<svg width="18" height="14" viewBox="0 0 18 14" fill="none" xmlns="http://www.w3.org/2000/svg">
<path d="M5.13321 5.529H5.06095L4.58761 7.38262H5.60655L5.13321 5.529Z" fill="#364141"/>
<path fill-rule="evenodd" clip-rule="evenodd" d="M1.5 0C0.671573 0 0 0.671573 0 1.5V12.5C0 13.3284 0.671573 14 1.5 14H16.5C17.3284 14 18 13.3284 18 12.5V1.5C18 0.671573 17.3284 0 16.5 0H1.5ZM4.04561 9.5H2.43409L4.13595 4.28604H6.05821L7.76007 9.5H6.14854L5.88477 8.46299H4.30938L4.04561 9.5ZM11.6847 9.5H8.02803V4.28604H9.56006V8.28594H11.6847V9.5ZM14.0592 9.5H12.5271V5.5001H11.0782V4.28604H15.5081V5.5001H14.0592V9.5Z" fill="#364141"/>
</svg>
