<svg width="20" height="20" viewBox="0 0 20 20" fill="none" xmlns="http://www.w3.org/2000/svg">
<path d="M10 2.75C7.47546 2.75 5.25069 4.0406 3.95208 6H6.45001V8H0.75V2H2.75V4.25518C4.44387 2.12025 7.06123 0.75 10 0.75C15.1086 0.75 19.25 4.89137 19.25 10H17.25C17.25 5.99594 14.0041 2.75 10 2.75Z" fill="#364141"/>
<path d="M10 17.25C12.5245 17.25 14.7493 15.9594 16.0479 14L13.55 14L13.55 12L19.25 12V18H17.25V15.7448C15.5561 17.8798 12.9388 19.25 10 19.25C4.89137 19.25 0.75 15.1086 0.75 10H2.75C2.75 14.0041 5.99594 17.25 10 17.25Z" fill="#364141"/>
</svg>
