<svg width="18" height="18" viewBox="0 0 18 18" fill="none" xmlns="http://www.w3.org/2000/svg">
<path d="M10.25 9C10.25 9.69036 9.69036 10.25 9 10.25C8.30964 10.25 7.75 9.69036 7.75 9C7.75 8.30964 8.30964 7.75 9 7.75C9.69036 7.75 10.25 8.30964 10.25 9Z" fill="#364141"/>
<path fill-rule="evenodd" clip-rule="evenodd" d="M3.14909 9C0.989796 12.1325 0.263214 15.1124 1.57538 16.4246C2.88754 17.7368 5.86744 17.0102 8.99999 14.8509C12.1325 17.0102 15.1124 17.7368 16.4246 16.4246C17.7368 15.1124 17.0102 12.1325 14.8509 9C17.0102 5.86744 17.7368 2.88753 16.4246 1.57536C15.1125 0.263195 12.1325 0.989784 8.99999 3.14909C5.86744 0.989787 2.88753 0.2632 1.57536 1.57537C0.263195 2.88754 0.989784 5.86744 3.14909 9ZM8.99999 12.3571C9.58839 11.8841 10.1822 11.3534 10.7678 10.7678C11.3534 10.1821 11.8841 9.58839 12.3571 9C11.8841 8.4116 11.3534 7.81784 10.7678 7.23222C10.1821 6.64661 9.58838 6.11589 8.99999 5.64291C8.41159 6.11589 7.81784 6.64661 7.23223 7.23222C6.64662 7.81783 6.1159 8.41159 5.64291 9C6.11589 9.58839 6.64661 10.1821 7.23222 10.7678C7.81783 11.3534 8.41159 11.8841 8.99999 12.3571ZM7.32057 13.5645C6.81456 13.1372 6.31158 12.6755 5.818 12.182C5.32443 11.6884 4.86274 11.1854 4.43549 10.6794C3.9737 11.4073 3.61217 12.1047 3.35695 12.7428C3.03296 13.5528 2.91749 14.1743 2.92023 14.5894C2.92202 14.8621 2.97095 14.9763 2.99036 15.0096C3.02366 15.029 3.13787 15.078 3.41058 15.0798C3.82571 15.0825 4.44723 14.967 5.25722 14.643C5.89526 14.3878 6.59265 14.0263 7.32057 13.5645ZM4.43548 7.32058C4.86275 6.81456 5.32444 6.31159 5.81802 5.818C6.31159 5.32443 6.81456 4.86274 7.32057 4.43549C6.59264 3.9737 5.89525 3.61216 5.2572 3.35694C4.44721 3.03295 3.8257 2.91748 3.41057 2.92022C3.13785 2.92201 3.02365 2.97094 2.99035 2.99035C2.97094 3.02365 2.92201 3.13786 2.92021 3.41057C2.91748 3.8257 3.03294 4.44722 3.35694 5.25721C3.61216 5.89525 3.97369 6.59265 4.43548 7.32058ZM13.5645 10.6794C14.0263 11.4073 14.3878 12.1047 14.643 12.7428C14.967 13.5528 15.0825 14.1743 15.0798 14.5894C15.078 14.8621 15.029 14.9763 15.0096 15.0096C14.9763 15.029 14.8621 15.078 14.5894 15.0798C14.1743 15.0825 13.5528 14.967 12.7428 14.643C12.1047 14.3878 11.4073 14.0263 10.6794 13.5645C11.1854 13.1372 11.6884 12.6755 12.182 12.182C12.6756 11.6884 13.1372 11.1854 13.5645 10.6794ZM13.5645 7.32058C14.0263 6.59265 14.3878 5.89525 14.643 5.2572C14.967 4.44721 15.0825 3.8257 15.0798 3.41057C15.078 3.13785 15.029 3.02364 15.0096 2.99035C14.9763 2.97094 14.8621 2.92201 14.5894 2.92021C14.1743 2.91748 13.5528 3.03294 12.7428 3.35694C12.1047 3.61216 11.4073 3.9737 10.6794 4.43549C11.1854 4.86274 11.6884 5.32443 12.182 5.81801C12.6755 6.31159 13.1372 6.81456 13.5645 7.32058ZM2.97929 15.0018C2.97929 15.0018 2.98191 15.0032 2.98607 15.007C2.9812 15.0039 2.97929 15.0018 2.97929 15.0018ZM2.99297 15.0139C2.99679 15.0181 2.99817 15.0207 2.99817 15.0207C2.99817 15.0207 2.99609 15.0188 2.99297 15.0139ZM15.0207 2.99816C15.0207 2.99816 15.0181 2.99678 15.0139 2.99296C15.0188 2.99607 15.0207 2.99816 15.0207 2.99816ZM15.007 2.98605C15.0032 2.98189 15.0018 2.97928 15.0018 2.97928C15.0018 2.97928 15.0039 2.98118 15.007 2.98605ZM15.0207 15.0018C15.0207 15.0018 15.0181 15.0032 15.0139 15.007C15.0188 15.0039 15.0207 15.0018 15.0207 15.0018ZM15.007 15.0139C15.0032 15.0181 15.0018 15.0207 15.0018 15.0207C15.0018 15.0207 15.0039 15.0188 15.007 15.0139ZM2.97928 2.99816C2.97928 2.99816 2.98189 2.99678 2.98605 2.99296C2.98118 2.99608 2.97928 2.99816 2.97928 2.99816ZM2.99296 2.98606C2.99678 2.9819 2.99816 2.97928 2.99816 2.97928C2.99816 2.97928 2.99607 2.98118 2.99296 2.98606Z" fill="#364141"/>
</svg>
