<svg width="18" height="18" viewBox="0 0 18 18" fill="none" xmlns="http://www.w3.org/2000/svg">
<path fill-rule="evenodd" clip-rule="evenodd" d="M18 9C18 13.9706 13.9706 18 9 18C4.02944 18 0 13.9706 0 9C0 4.02944 4.02944 0 9 0C13.9706 0 18 4.02944 18 9ZM13.1922 14.6064C12.0236 15.4816 10.5723 16 9 16C5.13401 16 2 12.866 2 9C2 7.42767 2.5184 5.97641 3.39362 4.80783L13.1922 14.6064ZM14.6064 13.1922L4.80783 3.39362C5.97641 2.5184 7.42767 2 9 2C12.866 2 16 5.13401 16 9C16 10.5723 15.4816 12.0236 14.6064 13.1922Z" fill="#364141"/>
</svg>
