<svg width="18" height="16" viewBox="0 0 18 16" fill="none" xmlns="http://www.w3.org/2000/svg">
<path d="M0 1.5C0 0.671573 0.671573 0 1.5 0H16.5C17.3284 0 18 0.671573 18 1.5V2.75C18 3.57843 17.3284 4.25 16.5 4.25H1.5C0.671573 4.25 0 3.57843 0 2.75V1.5Z" fill="#364141"/>
<path d="M0 7.38C0 6.55158 0.671573 5.88 1.5 5.88H16.5C17.3284 5.88 18 6.55158 18 7.38V8.63C18 9.45843 17.3284 10.13 16.5 10.13H1.5C0.671573 10.13 0 9.45843 0 8.63V7.38Z" fill="#364141"/>
<path d="M1.5 11.75C0.671573 11.75 0 12.4216 0 13.25V14.5C0 15.3284 0.671573 16 1.5 16H16.5C17.3284 16 18 15.3284 18 14.5V13.25C18 12.4216 17.3284 11.75 16.5 11.75H1.5Z" fill="#364141"/>
</svg>
