<svg width="20" height="20" viewBox="0 0 20 20" fill="none" xmlns="http://www.w3.org/2000/svg">
<path d="M17.3925 4.86587L12.6882 7.58191C11.7779 5.56867 11.8296 3.32259 12.6911 1.41171C14.5463 1.99249 16.2191 3.17218 17.3925 4.86587Z" fill="#364141"/>
<path d="M18.1426 6.1649L13.4382 8.88095C14.7266 10.6759 16.6977 11.7542 18.7833 11.9636C19.2079 10.0666 19.0226 8.02802 18.1426 6.1649Z" fill="#364141"/>
<path d="M18.3254 13.4199C15.891 13.0904 13.6147 11.7715 12.1338 9.63406L11.0246 10.2745L15.1342 17.3925C16.6029 16.3749 17.6851 14.9818 18.3254 13.4199Z" fill="#364141"/>
<path d="M13.8352 18.1426L9.72555 11.0245L8.61634 11.6649C9.72698 14.0162 9.73102 16.6468 8.79914 18.9199C8.29371 18.8515 7.79511 18.7405 7.30903 18.5883C8.1705 16.6774 8.2222 14.4313 7.31191 12.418L2.60745 15.1341C5.10601 18.7404 9.86823 20.0164 13.8352 18.1426Z" fill="#364141"/>
<path d="M1.85746 13.8351C-0.0162988 9.86813 1.25974 5.10598 4.86598 2.60745L8.97555 9.72543L7.86634 10.3658C6.3854 8.22836 4.10923 6.90953 1.67476 6.58C1.48129 7.05191 1.32817 7.53924 1.2169 8.03628C3.3025 8.2457 5.27352 9.32399 6.56191 11.1189L1.85746 13.8351Z" fill="#364141"/>
<path d="M6.16502 1.85746L10.2746 8.97543L11.3838 8.33502C10.2732 5.98377 10.2691 3.35315 11.2009 1.08008C9.52816 0.853661 7.78064 1.09433 6.16502 1.85746Z" fill="#364141"/>
</svg>
