<svg width="18" height="18" viewBox="0 0 18 18" fill="none" xmlns="http://www.w3.org/2000/svg">
<path d="M14.75 7C14.75 4.07855 12.5713 1.66598 9.75003 1.29847V0H8.25003V1.29847C6.73102 1.49634 5.39827 2.28706 4.49156 3.43085L2.03039 0.96967L0.969727 2.03033L15.9697 17.0303L17.0304 15.9697L14.75 13.6893V7Z" fill="#364141"/>
<path d="M3.25003 7C3.25003 6.77931 3.26246 6.56152 3.28666 6.3473L12.1894 15.25H1.00003V13.75C2.24267 13.75 3.25003 12.7426 3.25003 11.5V7Z" fill="#364141"/>
<path d="M9.50003 18C10.3285 18 11 17.3284 11 16.5H7.00003C7.00003 17.3284 7.6716 18 8.50003 18H9.50003Z" fill="#364141"/>
</svg>
