<svg width="18" height="17" viewBox="0 0 18 17" fill="none" xmlns="http://www.w3.org/2000/svg">
<path fill-rule="evenodd" clip-rule="evenodd" d="M5.25 2.75V3H1.5C0.671573 3 0 3.67157 0 4.5V15.5C0 16.3284 0.671573 17 1.5 17H16.5C17.3284 17 18 16.3284 18 15.5V4.5C18 3.67157 17.3284 3 16.5 3H12.75V2.75C12.75 1.23122 11.5188 0 10 0H8C6.48122 0 5.25 1.23122 5.25 2.75ZM8 1.5C7.30964 1.5 6.75 2.05964 6.75 2.75V3H11.25V2.75C11.25 2.05964 10.6904 1.5 10 1.5H8ZM10 8C10 8.55228 9.55228 9 9 9C8.44772 9 8 8.55228 8 8C8 7.44772 8.44772 7 9 7C9.55228 7 10 7.44772 10 8ZM16 10.3315V8.61719C14.1626 9.72501 11.7221 10.4267 9 10.4267C6.27789 10.4267 3.83735 9.72501 2 8.61719V10.3315C3.97024 11.3354 6.38763 11.9267 9 11.9267C11.6124 11.9267 14.0298 11.3354 16 10.3315Z" fill="#364141"/>
</svg>
