<svg width="16" height="16" viewBox="0 0 16 16" fill="none" xmlns="http://www.w3.org/2000/svg">
<path fill-rule="evenodd" clip-rule="evenodd" d="M1.5 0C0.671573 0 0 0.671573 0 1.5V14.5C0 15.3284 0.671573 16 1.5 16H14.5C15.3284 16 16 15.3284 16 14.5V1.5C16 0.671573 15.3284 0 14.5 0H1.5ZM3 3.5C3 3.22386 3.22386 3 3.5 3H12.5C12.7761 3 13 3.22386 13 3.5V5.5C13 5.77614 12.7761 6 12.5 6H3.5C3.22386 6 3 5.77614 3 5.5V3.5ZM9.75 9.5H7.25V8H9.75V9.5ZM3 9.5H5.5V8H3V9.5ZM9.75 13H7.25V11.5H9.75V13ZM11.25 8V13H12.75V8H11.25ZM5.5 13H3V11.5H5.5V13Z" fill="#364141"/>
</svg>
