<svg width="17" height="18" viewBox="0 0 17 18" fill="none" xmlns="http://www.w3.org/2000/svg">
<path fill-rule="evenodd" clip-rule="evenodd" d="M10.25 2H4.75V0H3.25V2H1.5C0.671573 2 0 2.67157 0 3.5V14.5C0 15.2249 0.514173 15.8297 1.1977 15.9695C1.29534 15.9895 1.39645 16 1.5 16H6.23221C5.76443 15.1025 5.5 14.0821 5.5 13C5.5 9.41015 8.41015 6.5 12 6.5C13.0821 6.5 14.1025 6.76443 15 7.23221V3.5C15 2.67157 14.3284 2 13.5 2H11.75V0H10.25V2ZM2 6V4H13V6H2Z" fill="#364141"/>
<path fill-rule="evenodd" clip-rule="evenodd" d="M17 13C17 15.7614 14.7614 18 12 18C9.23858 18 7 15.7614 7 13C7 10.2386 9.23858 8 12 8C14.7614 8 17 10.2386 17 13ZM11.1893 12.75L12.9697 10.9697L14.0303 12.0303L11.8107 14.25H10V12.75H11.1893Z" fill="#364141"/>
</svg>
