<svg width="16" height="17" viewBox="0 0 16 17" fill="none" xmlns="http://www.w3.org/2000/svg">
<path d="M0 2.75H1.65111C1.90678 2.75 2.12126 2.94287 2.1483 3.19711L3.13826 12.5027C1.94753 12.561 1 13.5448 1 14.75C1 15.9926 2.00736 17 3.25 17C4.49264 17 5.5 15.9926 5.5 14.75C5.5 14.6655 5.49534 14.5821 5.48627 14.5H10.0137C10.0047 14.5821 10 14.6655 10 14.75C10 15.9926 11.0074 17 12.25 17C13.4926 17 14.5 15.9926 14.5 14.75C14.5 13.5074 13.4926 12.5 12.25 12.5H5.14926L4.8833 10H12.7703C13.4853 10 14.1009 9.49531 14.2412 8.79417L15.3804 3.09806C15.4423 2.78866 15.2056 2.5 14.8901 2.5H4.03632C3.71533 1.47672 2.76082 0.75 1.65111 0.75H0V2.75Z" fill="#364141"/>
</svg>
