<svg width="18" height="14" viewBox="0 0 18 14" fill="none" xmlns="http://www.w3.org/2000/svg">
<path d="M14.5 0C13.6716 0 13 0.671573 13 1.5V12.5C13 13.3284 13.6716 14 14.5 14H16.5C17.3284 14 18 13.3284 18 12.5V1.5C18 0.671573 17.3284 0 16.5 0H14.5Z" fill="#364141"/>
<path d="M6.5 4.5C6.5 3.67157 7.17157 3 8 3H10C10.8284 3 11.5 3.67157 11.5 4.5V12.5C11.5 13.3284 10.8284 14 10 14H8C7.17157 14 6.5 13.3284 6.5 12.5V4.5Z" fill="#364141"/>
<path d="M0 7.5C0 6.67157 0.671573 6 1.5 6H3.5C4.32843 6 5 6.67157 5 7.5V12.5C5 13.3284 4.32843 14 3.5 14H1.5C0.671573 14 0 13.3284 0 12.5V7.5Z" fill="#364141"/>
</svg>
