<svg width="18" height="18" viewBox="0 0 18 18" fill="none" xmlns="http://www.w3.org/2000/svg">
<path fill-rule="evenodd" clip-rule="evenodd" d="M9 18C13.9706 18 18 13.9706 18 9C18 4.02944 13.9706 0 9 0C4.02944 0 0 4.02944 0 9C0 13.9706 4.02944 18 9 18ZM5.75 6.5C5.75 4.98122 6.98122 3.75 8.5 3.75H9.5C11.0188 3.75 12.25 4.98122 12.25 6.5C12.25 7.93451 11.1516 9.11248 9.75 9.23879V10.5H8.25V9C8.25 8.30964 8.80964 7.75 9.5 7.75C10.1904 7.75 10.75 7.19036 10.75 6.5C10.75 5.80964 10.1904 5.25 9.5 5.25H8.5C7.80964 5.25 7.25 5.80964 7.25 6.5H5.75ZM10 13C10 13.5523 9.55228 14 9 14C8.44772 14 8 13.5523 8 13C8 12.4477 8.44772 12 9 12C9.55228 12 10 12.4477 10 13Z" fill="#364141"/>
</svg>
