<svg width="18" height="18" viewBox="0 0 18 18" fill="none" xmlns="http://www.w3.org/2000/svg">
<path fill-rule="evenodd" clip-rule="evenodd" d="M16.8834 13.3453C17.595 12.0571 18 10.5758 18 9C18 4.02944 13.9706 0 9 0C4.02944 0 0 4.02944 0 9C0 10.5533 0.3935 12.0147 1.08625 13.2899C1.09631 13.3084 1.10643 13.3269 1.11661 13.3453C2.64955 16.1205 5.60528 18 9 18C12.3947 18 15.3505 16.1205 16.8834 13.3453ZM15.5231 12.7038C14.233 14.971 11.7951 16.5 9 16.5C6.20493 16.5 3.76696 14.971 2.47688 12.7038C4.35474 11.9423 6.59473 11.5 9 11.5C11.4053 11.5 13.6453 11.9423 15.5231 12.7038ZM12 7C12 8.65685 10.6569 10 9 10C7.34315 10 6 8.65685 6 7C6 5.34315 7.34315 4 9 4C10.6569 4 12 5.34315 12 7Z" fill="#364141"/>
</svg>
