<svg width="18" height="19" viewBox="0 0 18 19" fill="none" xmlns="http://www.w3.org/2000/svg">
<path fill-rule="evenodd" clip-rule="evenodd" d="M0.542969 2.20694L16.543 18.2069L17.9572 16.7927L16.7175 15.553C16.8953 15.3064 17.0001 15.0037 17.0001 14.6764V4.49996C17.0001 3.67154 16.3285 2.99996 15.5001 2.99996H4.16442L1.95718 0.792725L0.542969 2.20694ZM8.31399 7.14953L11.1887 10.0242L12.5856 8.82767C12.7545 8.68301 12.6646 8.40638 12.4429 8.38861L10.2764 8.21492C10.183 8.20743 10.1016 8.14829 10.0656 8.06173L9.23092 6.05495C9.14552 5.84962 8.85465 5.84962 8.76926 6.05494L8.31399 7.14953Z" fill="#364141"/>
<path d="M6.64146 12.6036L7.13221 10.5463L5.40427 8.81837C5.4009 8.81518 5.39766 8.81193 5.39452 8.80863L1.00237 4.41646C1.00085 4.4441 1.00009 4.47194 1.00009 4.49996V14.6764C1.00009 15.5049 1.67166 16.1764 2.50009 16.1764H5.85009C5.93293 16.1764 6.00009 16.2436 6.00009 16.3264V18.2121C6.00009 18.5786 6.38136 18.8205 6.71298 18.6645L11.7978 16.2716C11.931 16.2089 12.0764 16.1764 12.2236 16.1764H12.7623L8.5334 11.9475L7.01495 12.875C6.82518 12.9909 6.58987 12.8199 6.64146 12.6036Z" fill="#364141"/>
</svg>
