<svg width="16" height="17" viewBox="0 0 16 17" fill="none" xmlns="http://www.w3.org/2000/svg">
<path fill-rule="evenodd" clip-rule="evenodd" d="M1.5 0C0.671573 0 0 0.671573 0 1.5V12.5C0 13.3284 0.671573 14 1.5 14H4.85C4.93284 14 5 14.0672 5 14.15V16.191C5 16.5627 5.39116 16.8044 5.72361 16.6382L10.7889 14.1056C10.9277 14.0361 11.0808 14 11.2361 14H14.5C15.3284 14 16 13.3284 16 12.5V1.5C16 0.671573 15.3284 0 14.5 0H1.5ZM8.23083 3.55498C8.14543 3.34966 7.85457 3.34966 7.76917 3.55498L6.9345 5.56176C6.8985 5.64832 6.8171 5.70747 6.72365 5.71496L4.55716 5.88864C4.3355 5.90641 4.24561 6.18304 4.4145 6.32771L6.06514 7.74166C6.13633 7.80264 6.16743 7.89834 6.14567 7.98953L5.64138 10.1037C5.58978 10.32 5.82509 10.4909 6.01487 10.375L7.86969 9.24209C7.94969 9.19323 8.05031 9.19323 8.13031 9.24209L9.98513 10.375C10.1749 10.4909 10.4102 10.32 10.3586 10.1037L9.85433 7.98953C9.83257 7.89834 9.86367 7.80264 9.93486 7.74166L11.5855 6.32771C11.7544 6.18304 11.6645 5.90641 11.4428 5.88864L9.27635 5.71496C9.1829 5.70747 9.1015 5.64832 9.0655 5.56177L8.23083 3.55498Z" fill="#364141"/>
</svg>
