<svg width="16" height="17" viewBox="0 0 16 17" fill="none" xmlns="http://www.w3.org/2000/svg">
<path fill-rule="evenodd" clip-rule="evenodd" d="M1.5 0C0.671573 0 0 0.671573 0 1.5V12.5C0 13.3284 0.671573 14 1.5 14H4.85C4.93284 14 5 14.0672 5 14.15V16.191C5 16.5627 5.39116 16.8044 5.72361 16.6382L10.7889 14.1056C10.9277 14.0361 11.0808 14 11.2361 14H14.5C15.3284 14 16 13.3284 16 12.5V1.5C16 0.671573 15.3284 0 14.5 0H1.5ZM7.25 3.75V6.25H4.75V7.75H7.25V10.25H8.75V7.75H11.25V6.25H8.75V3.75H7.25Z" fill="#364141"/>
</svg>
