<svg width="20" height="16" viewBox="0 0 20 16" fill="none" xmlns="http://www.w3.org/2000/svg">
<path d="M1.99982 3.75C1.99982 2.09315 3.34296 0.75 4.99982 0.75H5.49982V2.75H4.99982C4.44753 2.75 3.99982 3.19772 3.99982 3.75V5.9914C3.99982 6.75305 3.71271 7.46224 3.2282 8C3.71271 8.53777 3.99982 9.24695 3.99982 10.0086V12.25C3.99982 12.8023 4.44753 13.25 4.99982 13.25H5.49982V15.25H4.99982C3.34296 15.25 1.99982 13.9069 1.99982 12.25V10.0086C1.99982 9.56212 1.70384 9.16974 1.27454 9.04708L0.975098 8.96152V7.03848L1.27454 6.95292C1.70384 6.83026 1.99982 6.43788 1.99982 5.9914V3.75Z" fill="#364141"/>
<path d="M8.99982 7V4.75H10.9998V7H13.2498V9H10.9998V11.25H8.99982V9H6.74982V7H8.99982Z" fill="#364141"/>
<path d="M14.9998 0.75C16.6567 0.75 17.9998 2.09315 17.9998 3.75V5.9914C17.9998 6.43788 18.2958 6.83026 18.7251 6.95292L19.0245 7.03848V8.96152L18.7251 9.04708C18.2958 9.16974 17.9998 9.56212 17.9998 10.0086V12.25C17.9998 13.9069 16.6567 15.25 14.9998 15.25H14.4998V13.25H14.9998C15.5521 13.25 15.9998 12.8023 15.9998 12.25V10.0086C15.9998 9.24695 16.2869 8.53777 16.7714 8C16.2869 7.46224 15.9998 6.75305 15.9998 5.9914V3.75C15.9998 3.19772 15.5521 2.75 14.9998 2.75H14.4998V0.75H14.9998Z" fill="#364141"/>
</svg>
