<svg width="18" height="14" viewBox="0 0 18 14" fill="none" xmlns="http://www.w3.org/2000/svg">
<path fill-rule="evenodd" clip-rule="evenodd" d="M16.5 0C17.3284 0 18 0.671573 18 1.5V12.5C18 13.3284 17.3284 14 16.5 14H4.87048C4.3322 14 3.83518 13.7116 3.56812 13.2442L0 7L3.56812 0.755791C3.83518 0.288429 4.3322 0 4.87048 0H16.5ZM12.2981 3.64136L10 5.93946L7.7019 3.64136L6.64124 4.70202L8.93934 7.00012L6.64124 9.29821L7.7019 10.3589L10 8.06078L12.2981 10.3589L13.3588 9.29821L11.0607 7.00012L13.3588 4.70202L12.2981 3.64136Z" fill="#364141"/>
</svg>
