<svg width="16" height="4" viewBox="0 0 16 4" fill="none" xmlns="http://www.w3.org/2000/svg">
<path d="M3.5 2C3.5 2.9665 2.7165 3.75 1.75 3.75C0.783502 3.75 0 2.9665 0 2C0 1.0335 0.783502 0.25 1.75 0.25C2.7165 0.25 3.5 1.0335 3.5 2Z" fill="#364141"/>
<path d="M9.75 2C9.75 2.9665 8.9665 3.75 8 3.75C7.0335 3.75 6.25 2.9665 6.25 2C6.25 1.0335 7.0335 0.25 8 0.25C8.9665 0.25 9.75 1.0335 9.75 2Z" fill="#364141"/>
<path d="M14.25 3.75C15.2165 3.75 16 2.9665 16 2C16 1.0335 15.2165 0.25 14.25 0.25C13.2835 0.25 12.5 1.0335 12.5 2C12.5 2.9665 13.2835 3.75 14.25 3.75Z" fill="#364141"/>
</svg>
