<svg width="4" height="16" viewBox="0 0 4 16" fill="none" xmlns="http://www.w3.org/2000/svg">
<path d="M2 3.5C1.0335 3.5 0.25 2.7165 0.25 1.75C0.25 0.783502 1.0335 0 2 0C2.9665 0 3.75 0.783502 3.75 1.75C3.75 2.7165 2.9665 3.5 2 3.5Z" fill="#364141"/>
<path d="M2 9.75C1.0335 9.75 0.25 8.9665 0.25 8C0.25 7.0335 1.0335 6.25 2 6.25C2.9665 6.25 3.75 7.0335 3.75 8C3.75 8.9665 2.9665 9.75 2 9.75Z" fill="#364141"/>
<path d="M0.25 14.25C0.25 15.2165 1.0335 16 2 16C2.9665 16 3.75 15.2165 3.75 14.25C3.75 13.2835 2.9665 12.5 2 12.5C1.0335 12.5 0.25 13.2835 0.25 14.25Z" fill="#364141"/>
</svg>
