<svg width="18" height="17" viewBox="0 0 18 17" fill="none" xmlns="http://www.w3.org/2000/svg">
<path fill-rule="evenodd" clip-rule="evenodd" d="M14.5992 13.185L16.707 15.2929L15.2928 16.7071L0.292832 1.70711L1.70705 0.292893L3.82621 2.41206C5.1875 1.18837 6.91204 0.25 8.99983 0.25C14.0404 0.25 16.9638 5.71968 17.7698 7.4689C17.9262 7.80822 17.9262 8.19178 17.7698 8.5311C17.3335 9.47806 16.2766 11.5154 14.5992 13.185ZM7.09578 5.68163L8.16667 6.75251C8.40501 6.59299 8.69162 6.49995 8.99995 6.49995C9.82838 6.49995 10.5 7.17153 10.5 7.99995C10.5 8.30829 10.4069 8.5949 10.2474 8.83324L11.3183 9.90413C11.7442 9.38615 12 8.72292 12 7.99995C12 6.3431 10.6568 4.99995 8.99995 4.99995C8.27699 4.99995 7.61376 5.25569 7.09578 5.68163Z" fill="#364141"/>
<path d="M0.230041 7.46894C0.48187 6.92238 0.940413 6.01258 1.60568 5.01989L11.7581 15.1723C10.9226 15.5333 10.0031 15.75 8.99983 15.75C3.9592 15.75 1.03599 10.2802 0.230042 8.53106C0.0737102 8.19177 0.07371 7.80823 0.230041 7.46894Z" fill="#364141"/>
</svg>
