<svg width="18" height="15" viewBox="0 0 18 15" fill="none" xmlns="http://www.w3.org/2000/svg">
<path d="M0 1.5V14C0 14.5523 0.447715 15 1 15C1.55228 15 2 14.5523 2 14V6.75C2 5.50736 3.00736 4.5 4.25 4.5H15V4C15 3.17157 14.3284 2.5 13.5 2.5H8.5L7.10049 0.75061C6.72094 0.27618 6.14632 0 5.53875 0H1.5C0.671573 0 0 0.671573 0 1.5Z" fill="#364141"/>
<path d="M5 6H15.75C16.5784 6 17.25 6.67157 17.25 7.5V13.5C17.25 14.3284 16.5784 15 15.75 15H3.5V7.5C3.5 6.67157 4.17157 6 5 6Z" fill="#364141"/>
</svg>
