<svg width="18" height="14" viewBox="0 0 18 14" fill="none" xmlns="http://www.w3.org/2000/svg">
<path fill-rule="evenodd" clip-rule="evenodd" d="M5.41167 2C4.98851 2 4.61116 2.26635 4.46943 2.66507L3.25967 6.06838C3.49959 6.02348 3.74705 6 4 6C5.48056 6 6.77325 6.8044 7.46487 8H10.5351C11.2267 6.8044 12.5194 6 14 6C14.253 6 14.5004 6.02348 14.7403 6.06838L13.5306 2.66506C13.3888 2.26635 13.0115 2 12.5883 2H11V0H12.5883C13.8578 0 14.9899 0.799038 15.4151 1.99519L17.786 8.66506C17.8081 8.72713 17.8236 8.78993 17.833 8.85271C17.9417 9.21613 18 9.60125 18 10C18 12.2091 16.2091 14 14 14C11.7909 14 10 12.2091 10 10H8C8 12.2091 6.20914 14 4 14C1.79086 14 0 12.2091 0 10C0 9.60118 0.0583676 9.21599 0.167027 8.85251C0.176447 8.78979 0.192001 8.72706 0.214039 8.66507L2.58495 1.9952C3.01014 0.799043 4.14219 0 5.41167 0H7V2H5.41167ZM4 12C5.10457 12 6 11.1046 6 10C6 8.89543 5.10457 8 4 8C2.89543 8 2 8.89543 2 10C2 11.1046 2.89543 12 4 12ZM14 12C15.1046 12 16 11.1046 16 10C16 8.89543 15.1046 8 14 8C12.8954 8 12 8.89543 12 10C12 11.1046 12.8954 12 14 12Z" fill="#364141"/>
</svg>
