<svg width="18" height="18" viewBox="0 0 18 18" fill="none" xmlns="http://www.w3.org/2000/svg">
<path d="M10.1527 17.9269C13.517 17.4968 16.3007 15.2091 17.4427 12.125H13.3642C12.8065 14.3387 11.6698 16.3223 10.1246 17.9053C10.134 17.9125 10.1433 17.9197 10.1527 17.9269Z" fill="#364141"/>
<path d="M9.00001 16.9096C10.3028 15.5921 11.2824 13.9543 11.8103 12.125H6.18971C6.71759 13.9543 7.69723 15.5921 9.00001 16.9096Z" fill="#364141"/>
<path d="M5.90555 10.875H12.0945C12.1968 10.2652 12.25 9.63883 12.25 9C12.25 8.36116 12.1968 7.73477 12.0945 7.125H5.90554C5.80325 7.73476 5.75 8.36115 5.75 8.99998C5.75 9.63882 5.80325 10.2652 5.90555 10.875Z" fill="#364141"/>
<path d="M4.38689 7.125C4.29671 7.73692 4.25 8.363 4.25 8.99998C4.25 9.63697 4.29671 10.2631 4.3869 10.875H0.195591C0.0674253 10.2702 0 9.64298 0 9C0 8.35702 0.0674253 7.72979 0.195591 7.125H4.38689Z" fill="#364141"/>
<path d="M6.1897 5.875H11.8103C11.2824 4.04567 10.3028 2.40791 8.99999 1.09034C7.69721 2.40791 6.71757 4.04567 6.1897 5.875Z" fill="#364141"/>
<path d="M7.87539 17.9053C7.86605 17.9125 7.85671 17.9197 7.84735 17.9269C4.48302 17.4968 1.69935 15.2091 0.557347 12.125H4.63577C5.19353 14.3387 6.3302 16.3223 7.87539 17.9053Z" fill="#364141"/>
<path d="M7.87537 0.0947147C6.33018 1.67772 5.19351 3.66128 4.63576 5.875H0.557347C1.69935 2.79085 4.48301 0.503226 7.84735 0.0731201C7.8567 0.080304 7.86604 0.0875022 7.87537 0.0947147Z" fill="#364141"/>
<path d="M10.1246 0.0947126C11.6698 1.67772 12.8065 3.66128 13.3642 5.875H17.4427C16.3006 2.79084 13.517 0.503217 10.1526 0.0731202C10.1433 0.0803033 10.1339 0.0875008 10.1246 0.0947126Z" fill="#364141"/>
<path d="M13.75 9C13.75 9.63699 13.7033 10.2631 13.6131 10.875H17.8044C17.9326 10.2702 18 9.64298 18 9C18 8.35702 17.9326 7.72979 17.8044 7.125H13.6131C13.7033 7.73693 13.75 8.36301 13.75 9Z" fill="#364141"/>
</svg>
