<svg width="18" height="18" viewBox="0 0 18 18" fill="none" xmlns="http://www.w3.org/2000/svg">
<path d="M0 13C0 14.1046 0.89543 15 2 15H3C4.10457 15 5 14.1046 5 13V10C5 8.89543 4.10457 8 3 8H2.10074C2.66168 4.56744 5.501 2 9 2C12.499 2 15.3383 4.56744 15.8993 8H15C13.8954 8 13 8.89543 13 10V13C13 13.8864 13.5766 14.638 14.3751 14.9004C14.117 15.5449 13.4866 16 12.75 16H9V18H12.75C14.5809 18 16.1053 16.6879 16.4343 14.9527C17.33 14.7544 18 13.9554 18 13V9.25C18 4.17738 14.0876 0 9 0C3.91238 0 0 4.17738 0 9.25V13Z" fill="#364141"/>
</svg>
