<svg width="14" height="18" viewBox="0 0 14 18" fill="none" xmlns="http://www.w3.org/2000/svg">
<path d="M7 11.5L6.27906 12.5814C6.0971 12.8544 6 13.175 6 13.5031C6 14.0537 6.44941 14.5 7 14.5C7.55059 14.5 8 14.0537 8 13.5031C8 13.175 7.9029 12.8544 7.72094 12.5814L7 11.5Z" fill="#364141"/>
<path fill-rule="evenodd" clip-rule="evenodd" d="M0 2H0.5V5.10955C0.5 6.02441 0.999718 6.86621 1.80287 7.30429L4.91167 9L1.80287 10.6957C0.999718 11.1338 0.5 11.9756 0.5 12.8904V16H0V18H14V16H13.5V12.8904C13.5 11.9756 13.0003 11.1338 12.1971 10.6957L9.08833 9L12.1971 7.30429C13.0003 6.86621 13.5 6.02441 13.5 5.10955V2H14V0H0V2ZM11.5 16V12.8904C11.5 12.7075 11.4001 12.5391 11.2394 12.4515L7 10.1391L2.76057 12.4515C2.59994 12.5391 2.5 12.7075 2.5 12.8904V16H11.5ZM11.5 3.5H2.5V2H11.5V3.5Z" fill="#364141"/>
</svg>
