<svg width="18" height="15" viewBox="0 0 18 15" fill="none" xmlns="http://www.w3.org/2000/svg">
<path fill-rule="evenodd" clip-rule="evenodd" d="M3 1.5C3 0.671573 3.67157 0 4.5 0H16.5C17.3284 0 18 0.671573 18 1.5V10.5C18 11.3284 17.3284 12 16.5 12H4.5C3.67157 12 3 11.3284 3 10.5V1.5ZM7.5 3.5C7.91421 3.5 8.25 3.16421 8.25 2.75C8.25 2.33579 7.91421 2 7.5 2C7.08579 2 6.75 2.33579 6.75 2.75C6.75 3.16421 7.08579 3.5 7.5 3.5ZM16 5.88319V7.78349L13.0488 5.48811L8.51655 9.79375L7.48343 8.70625L8.33582 7.89648L7.5 7.06066L5 9.56066V7.43933L7.5 4.93934L9.42367 6.86302L12.9512 3.51189L16 5.88319Z" fill="#364141"/>
<path d="M1.5 3.06299C0.637386 3.28501 0 4.06806 0 4.99998V12.9954C0 14.0997 0.894924 14.9949 1.99917 14.9954L10.499 14.9989C11.5241 14.9994 12.4054 14.3827 12.7915 13.5H3C2.17157 13.5 1.5 12.8284 1.5 12V3.06299Z" fill="#364141"/>
</svg>
