<svg width="18" height="18" viewBox="0 0 18 18" fill="none" xmlns="http://www.w3.org/2000/svg">
<path d="M15.2071 1.70694L13.7929 0.292725L8.5 5.58562L6.20711 3.29272L4.79289 4.70694L8.5 8.41405L15.2071 1.70694Z" fill="#364141"/>
<path d="M0.367038 10.0683L2.3501 6.62543L3.6499 7.37412L2.13752 9.99977H4.58579C4.851 9.99977 5.10536 10.1051 5.29289 10.2927L6.92678 11.9266C6.97366 11.9734 7.03725 11.9998 7.10355 11.9998H10.8964C10.9628 11.9998 11.0263 11.9734 11.0732 11.9266L12.7071 10.2927C12.8946 10.1051 13.149 9.99977 13.4142 9.99977H15.827L14.3463 7.36747L15.6537 6.63208L17.6468 10.1755C17.863 10.5598 17.9834 10.9901 17.9984 11.4299C17.9995 11.453 18 11.4763 18 11.4998V16.4998C18 17.3282 17.3284 17.9998 16.5 17.9998H1.5C0.671573 17.9998 0 17.3282 0 16.4998V11.4408C0 10.9591 0.12657 10.4857 0.367038 10.0683Z" fill="#364141"/>
</svg>
