<svg width="18" height="14" viewBox="0 0 18 14" fill="none" xmlns="http://www.w3.org/2000/svg">
<path fill-rule="evenodd" clip-rule="evenodd" d="M1.5 0C0.671573 0 0 0.671573 0 1.5V12.5C0 13.3284 0.671573 14 1.5 14H16.5C17.3284 14 18 13.3284 18 12.5V1.5C18 0.671573 17.3284 0 16.5 0H1.5ZM5.5 4H3.25V2.5H5.5V4ZM7.88 4H10.13V2.5H7.88V4ZM12.55 4H14.8V2.5H12.55V4ZM7.88 7.75H10.13V6.25H7.88V7.75ZM14.8 7.75H12.55V6.25H14.8V7.75ZM3.25 7.75H5.5V6.25H3.25V7.75ZM15 11.5H3V10H15V11.5Z" fill="#364141"/>
</svg>
