<svg width="18" height="18" viewBox="0 0 18 18" fill="none" xmlns="http://www.w3.org/2000/svg">
<path d="M6.79278 11.2072C8.56402 12.9785 11.4358 12.9785 13.207 11.2072L16.207 8.20724C17.9782 6.436 17.9782 3.56426 16.207 1.79303C14.4358 0.0217891 11.564 0.0217919 9.79278 1.79303L8.79278 2.79303L10.207 4.20724L11.207 3.20724C12.1972 2.21705 13.8026 2.21705 14.7928 3.20724C15.783 4.19743 15.783 5.80284 14.7928 6.79303L11.7928 9.79302C10.8026 10.7832 9.19719 10.7832 8.207 9.79303L6.79278 11.2072Z" fill="#364141"/>
<path d="M11.207 6.79303C9.43576 5.02179 6.56402 5.02179 4.79278 6.79303L1.79278 9.79303C0.0215454 11.5643 0.0215471 14.436 1.79278 16.2072C3.56402 17.9785 6.43576 17.9785 8.207 16.2072L9.207 15.2072L7.79278 13.793L6.79279 14.793C5.8026 15.7832 4.19718 15.7832 3.207 14.793C2.21681 13.8028 2.21681 12.1974 3.207 11.2072L6.207 8.20724C7.19718 7.21705 8.8026 7.21705 9.79278 8.20724L11.207 6.79303Z" fill="#364141"/>
<path d="M3.99989 4.00012V1.00012H5.99989V4.00012H3.99989Z" fill="#364141"/>
<path d="M3.99989 4.00012L3.99989 6.00012H0.999893L0.999893 4.00012L3.99989 4.00012Z" fill="#364141"/>
<path d="M11.9999 17.0001V14.0001H13.9999V17.0001H11.9999Z" fill="#364141"/>
<path d="M13.9999 14.0001V12.0001H16.9999V14.0001H13.9999Z" fill="#364141"/>
</svg>
