<svg width="14" height="19" viewBox="0 0 14 19" fill="none" xmlns="http://www.w3.org/2000/svg">
<path fill-rule="evenodd" clip-rule="evenodd" d="M2.5 9V5.25C2.5 2.76472 4.51472 0.75 7 0.75C9.48528 0.75 11.5 2.76472 11.5 5.25V9H12.5C13.3284 9 14 9.67157 14 10.5V17.5C14 18.3284 13.3284 19 12.5 19H1.5C0.671573 19 0 18.3284 0 17.5V10.5C0 9.67157 0.671573 9 1.5 9H2.5ZM4.5 5.25C4.5 3.86929 5.61929 2.75 7 2.75C8.38071 2.75 9.5 3.86929 9.5 5.25V9H4.5V5.25ZM8 13C8 13.5523 7.55228 14 7 14C6.44772 14 6 13.5523 6 13C6 12.4477 6.44772 12 7 12C7.55228 12 8 12.4477 8 13Z" fill="#364141"/>
</svg>
