<svg width="18" height="18" viewBox="0 0 18 18" fill="none" xmlns="http://www.w3.org/2000/svg">
<path fill-rule="evenodd" clip-rule="evenodd" d="M12.5773 13.9915C11.2582 15.0104 9.60404 15.6166 7.8083 15.6166C3.49589 15.6166 0 12.1207 0 7.8083C0 3.49589 3.49589 0 7.8083 0C12.1207 0 15.6166 3.49589 15.6166 7.8083C15.6166 9.60404 15.0104 11.2582 13.9915 12.5773L17.997 16.5827L16.5827 17.997L12.5773 13.9915ZM13.6166 7.8083C13.6166 11.0161 11.0161 13.6166 7.8083 13.6166C4.60046 13.6166 2 11.0161 2 7.8083C2 4.60046 4.60046 2 7.8083 2C11.0161 2 13.6166 4.60046 13.6166 7.8083Z" fill="#364141"/>
</svg>
