<svg width="18" height="18" viewBox="0 0 18 18" fill="none" xmlns="http://www.w3.org/2000/svg">
<path d="M14.25 0V1.05539C13.125 1.17974 12.25 2.1335 12.25 3.29163C12.25 4.53424 13.2573 5.54159 14.5 5.54159H15.5C15.9142 5.54159 16.25 5.87737 16.25 6.29159C16.25 6.7058 15.9142 7.04159 15.5 7.04159H14.7083C14.1791 7.04159 13.75 6.61252 13.75 6.08325H12.25C12.25 7.28432 13.1113 8.28421 14.25 8.49894V9.58325H15.75V8.52785C16.875 8.40349 17.75 7.44972 17.75 6.29159C17.75 5.04895 16.7426 4.04159 15.5 4.04159H14.5C14.0858 4.04159 13.75 3.70582 13.75 3.29163C13.75 2.87743 14.0858 2.54167 14.5 2.54167H15.5001C15.9142 2.54167 16.25 2.87742 16.25 3.29159H17.75C17.75 2.13346 16.875 1.17971 15.75 1.05539V0H14.25Z" fill="#364141"/>
<path d="M7.5 6.0001L10.75 4.26676V7.49998C10.75 9.43297 12.317 11 14.25 11H15V15.1668C15 15.5442 14.5978 15.7856 14.2647 15.6079L7.5 12.0001H6.50477C6.57251 13.3874 7.35704 14.6464 8.58459 15.316L8.72885 15.3947L7.77115 17.1505L7.62689 17.0718C5.75673 16.0517 4.57209 14.1195 4.50318 12.0001H1.5C0.671573 12.0001 0 11.3285 0 10.5001V7.5001C0 6.67167 0.671573 6.0001 1.5 6.0001H7.5Z" fill="#364141"/>
</svg>
