<svg width="14" height="18" viewBox="0 0 14 18" fill="none" xmlns="http://www.w3.org/2000/svg">
<path fill-rule="evenodd" clip-rule="evenodd" d="M0 16.5C0 17.3284 0.671573 18 1.5 18H12.5C13.3284 18 14 17.3284 14 16.5V9C14 8.17157 13.3284 7.5 12.5 7.5H10.25C8.45507 7.5 7 6.04493 7 4.25V1.5C7 0.671573 6.32843 0 5.5 0H1.5C0.671573 0 0 0.671573 0 1.5V16.5ZM8.76777 9.76777L7 11.5355L5.23223 9.76777L4.17157 10.8284L5.93934 12.5962L4.17157 14.364L5.23223 15.4246L7 13.6569L8.76777 15.4246L9.82843 14.364L8.06066 12.5962L9.82843 10.8284L8.76777 9.76777Z" fill="#364141"/>
<path d="M8.5 0.161133V3.75004C8.5 4.99268 9.50736 6.00004 10.75 6.00004H13.9291C13.5147 3.10303 11.3265 0.778233 8.5 0.161133Z" fill="#364141"/>
</svg>
