<svg width="17" height="19" viewBox="0 0 17 19" fill="none" xmlns="http://www.w3.org/2000/svg">
<path fill-rule="evenodd" clip-rule="evenodd" d="M7.4409 2.38295C9.33872 0.429315 12.4753 0.429315 14.3731 2.38295C16.1947 4.25812 16.1947 7.24196 14.3731 9.11714L9.72367 13.9034C8.50998 15.1527 6.50406 15.1528 5.29037 13.9034C4.12543 12.7042 4.12543 10.7959 5.29037 9.59673L9.70403 5.05326L11.1386 6.44683L6.72493 10.9903C6.31391 11.4134 6.31391 12.0867 6.72493 12.5098C7.15315 12.9506 7.86089 12.9506 8.28911 12.5098L12.9386 7.72356C14.0063 6.62449 14.0063 4.8756 12.9386 3.77652C11.8262 2.63146 9.98781 2.63146 8.87545 3.77652L3.74027 9.06275C2.01594 10.8378 2.01594 13.6623 3.74027 15.4373C5.53675 17.2867 8.50587 17.2867 10.3024 15.4373L15.0469 10.5533L16.4814 11.9468L11.7369 16.8309C9.15496 19.4888 4.88766 19.4888 2.30571 16.8309C-0.172541 14.2798 -0.17254 10.2203 2.30571 7.66918L7.4409 2.38295Z" fill="#364141"/>
</svg>
