<svg width="18" height="19" viewBox="0 0 18 19" fill="none" xmlns="http://www.w3.org/2000/svg">
<path d="M11.5 0.914434V0H10V3.75H13.5V2.25H12.2558C12.7211 1.78623 13.3629 1.5 14.0708 1.5C15.1596 1.5 16.0921 2.17718 16.4666 3.13604L17.8638 2.59038C17.2721 1.07536 15.798 0 14.0708 0C13.0954 0 12.2006 0.34298 11.5 0.914434Z" fill="#364141"/>
<path d="M16.5 7.08557V8H18V4.25H14.5V5.75H15.7442C15.2789 6.21377 14.6371 6.5 13.9292 6.5C12.8404 6.5 11.9079 5.82282 11.5334 4.86396L10.1362 5.40962C10.7279 6.92464 12.202 8 13.9292 8C14.9046 8 15.7994 7.65702 16.5 7.08557Z" fill="#364141"/>
<path fill-rule="evenodd" clip-rule="evenodd" d="M8.24368 0.490303C8.3133 0.373437 8.40088 0.277466 8.5 0.202393V4.50011C8.5 7.26153 10.7386 9.50011 13.5 9.50011H15.3412L17.5751 13.2499C17.9723 13.9165 17.4893 14.7597 16.7103 14.7597H11.8958L9.97572 17.5743C9.56299 18.1793 8.67048 18.19 8.24323 17.595L6.20717 14.7597H1.50688C0.727887 14.7597 0.244854 13.9165 0.641992 13.2499L8.24368 0.490303ZM9.01313 9.472L9.10853 16.5098L6.59516 13.0098L8.54255 9.35775C8.66416 9.1297 9.00962 9.21357 9.01313 9.472Z" fill="#364141"/>
</svg>
