<svg width="18" height="17" viewBox="0 0 18 17" fill="none" xmlns="http://www.w3.org/2000/svg">
<path d="M3.40182 0.330684C4.09591 -0.132042 5.02012 -0.0405268 5.60998 0.549336L7.4506 2.38996C8.04047 2.97982 8.13198 3.90403 7.66925 4.59812L6.3371 6.59635L6.7446 7.68301C7.277 9.10273 8.39721 10.2229 9.81693 10.7553L10.9036 11.1628L12.9018 9.83068C13.5959 9.36796 14.5201 9.45947 15.11 10.0493L16.9506 11.89C17.5405 12.4798 17.632 13.404 17.1693 14.0981L15.8633 16.0571C15.5834 16.4769 15.1246 16.7432 14.6212 16.7779C6.73048 17.3221 0.177871 10.7695 0.722059 2.87874C0.756775 2.37535 1.02303 1.91654 1.44287 1.63665L3.40182 0.330684Z" fill="#364141"/>
</svg>
