<svg width="17" height="16" viewBox="0 0 17 16" fill="none" xmlns="http://www.w3.org/2000/svg">
<path d="M8.75 3H11.5C12.3284 3 13 3.67157 13 4.5V7H14C15.2426 7 16.25 8.00736 16.25 9.25C16.25 10.4926 15.2426 11.5 14 11.5H13V14.5C13 15.3284 12.3284 16 11.5 16H8.5V14.5C8.5 13.3954 7.60457 12.5 6.5 12.5C5.39543 12.5 4.5 13.3954 4.5 14.5V16H1.5C0.671573 16 0 15.3284 0 14.5V11.5H1.5C2.60457 11.5 3.5 10.6046 3.5 9.5C3.5 8.39543 2.60457 7.5 1.5 7.5H0V4.5C0 3.67157 0.671573 3 1.5 3H4.25V2H4.26373C4.38809 0.875012 5.34186 0 6.5 0C7.65814 0 8.61191 0.875012 8.73627 2H8.75V3Z" fill="#364141"/>
</svg>
