<svg width="16" height="16" viewBox="0 0 16 16" fill="none" xmlns="http://www.w3.org/2000/svg">
<path fill-rule="evenodd" clip-rule="evenodd" d="M1.5 0C0.671573 0 0 0.671573 0 1.5V5.75C0 6.57843 0.671573 7.25 1.5 7.25H5.75C6.57843 7.25 7.25 6.57843 7.25 5.75V1.5C7.25 0.671573 6.57843 0 5.75 0H1.5ZM4.7 4.25H2.5V2.75H4.7V4.25Z" fill="#364141"/>
<path fill-rule="evenodd" clip-rule="evenodd" d="M10.25 0C9.42157 0 8.75 0.671573 8.75 1.5V5.75C8.75 6.57843 9.42157 7.25 10.25 7.25H14.5C15.3284 7.25 16 6.57843 16 5.75V1.5C16 0.671573 15.3284 0 14.5 0H10.25ZM11.3 4.25H13.5V2.75H11.3V4.25Z" fill="#364141"/>
<path d="M16 10.25H14.5V8.75H16V10.25Z" fill="#364141"/>
<path fill-rule="evenodd" clip-rule="evenodd" d="M1.5 8.75C0.671573 8.75 0 9.42157 0 10.25V14.5C0 15.3284 0.671573 16 1.5 16H5.75C6.57843 16 7.25 15.3284 7.25 14.5V10.25C7.25 9.42157 6.57843 8.75 5.75 8.75H1.5ZM2.5 13.25H4.7V11.75H2.5V13.25Z" fill="#364141"/>
<path d="M9 10.25C9 9.42157 9.67157 8.75 10.5 8.75H13.25V10.25H10.5V13.1172H9V10.25Z" fill="#364141"/>
<path d="M9 16H13.25V14.5H9V16Z" fill="#364141"/>
<path d="M11.75 11.6016H14.5C15.3284 11.6016 16 12.2731 16 13.1016V16H14.5V13.1016H11.75V11.6016Z" fill="#364141"/>
</svg>
