<svg width="17" height="17" viewBox="0 0 17 17" fill="none" xmlns="http://www.w3.org/2000/svg">
<path d="M16.6778 17C16.8888 16.0335 17 15.0297 17 14C17 6.26801 10.732 0 3 0C1.97025 0 0.966468 0.111176 0 0.32218V2.37805C0.95886 2.13126 1.9641 2 3 2C9.62742 2 15 7.37258 15 14C15 15.0359 14.8687 16.0411 14.6219 17H16.6778Z" fill="#364141"/>
<path d="M11.8 17C11.9311 16.3538 12 15.6849 12 15C12 9.47716 7.52285 5.00001 2 5.00001C1.31507 5.00001 0.64622 5.06887 0 5.20004V7.25204C0.63924 7.08751 1.3094 7.00001 2 7.00001C6.41828 7.00001 10 10.5817 10 15C10 15.6906 9.91249 16.3608 9.74796 17H11.8Z" fill="#364141"/>
<path d="M6 14C6 15.6569 4.65685 17 3 17C1.34315 17 0 15.6569 0 14C0 12.3431 1.34315 11 3 11C4.65685 11 6 12.3431 6 14Z" fill="#364141"/>
</svg>
