<svg width="15" height="18" viewBox="0 0 15 18" fill="none" xmlns="http://www.w3.org/2000/svg">
<path d="M4 0H2L0.5 6H2.25V10C1.42157 10 0.75 10.6716 0.75 11.5V16.5C0.75 17.3284 1.42157 18 2.25 18H3.75C4.57843 18 5.25 17.3284 5.25 16.5V11.5C5.25 10.6716 4.57843 10 3.75 10V6H5.5L4 0Z" fill="#364141"/>
<path d="M8 4.5V1C8 0.723858 8.22386 0.5 8.5 0.5H10.5C10.7761 0.5 11 0.723858 11 1V1.06635C11 1.31518 11.183 1.52614 11.4293 1.56133L12.7828 1.75469C13.7681 1.89545 14.5 2.73929 14.5 3.73459V6H13.5L13.4257 5.7772C13.1948 5.08429 12.4282 4.72874 11.75 5V10C12.5784 10 13.25 10.6716 13.25 11.5V16.5C13.25 17.3284 12.5784 18 11.75 18H10.25C9.42157 18 8.75 17.3284 8.75 16.5V11.5C8.75 10.6716 9.42157 10 10.25 10V5H8.5C8.22386 5 8 4.77614 8 4.5Z" fill="#364141"/>
</svg>
