<svg width="18" height="18" viewBox="0 0 18 18" fill="none" xmlns="http://www.w3.org/2000/svg">
<path fill-rule="evenodd" clip-rule="evenodd" d="M9 18C13.9706 18 18 13.9706 18 9C18 4.02944 13.9706 0 9 0C4.02944 0 0 4.02944 0 9C0 13.9706 4.02944 18 9 18ZM10.25 4.58196V4.25C10.25 3.55964 9.69037 3 9.00002 3C8.30966 3 7.75002 3.55964 7.75002 4.25V4.58196C7.75002 4.85595 7.82118 5.12524 7.95653 5.36347L9.00002 7.2L10.0435 5.36347C10.1789 5.12524 10.25 4.85595 10.25 4.58196ZM10.25 13.418V13.75C10.25 14.4404 9.69037 15 9.00002 15C8.30966 15 7.75002 14.4404 7.75002 13.75V13.418C7.75002 13.144 7.82118 12.8748 7.95653 12.6365L9.00002 10.8L10.0435 12.6365C10.1789 12.8748 10.25 13.144 10.25 13.418ZM13.7387 7.70754L13.4512 7.87353C13.2139 8.01052 12.9451 8.08354 12.6711 8.08543L10.5589 8.10001L11.6276 6.27806C11.7662 6.04173 11.9639 5.84546 12.2012 5.70846L12.4887 5.54248C13.0865 5.1973 13.851 5.40215 14.1962 6.00001C14.5414 6.59788 14.3365 7.36237 13.7387 7.70754ZM5.7989 12.2916L5.51141 12.4575C4.91355 12.8027 4.14906 12.5979 3.80388 12C3.4587 11.4021 3.66354 10.6377 4.26141 10.2925L4.5489 10.1265C4.78618 9.9895 5.05497 9.91649 5.32896 9.91459L7.44119 9.90001L6.37244 11.722C6.23381 11.9583 6.03618 12.1546 5.7989 12.2916ZM5.51139 5.54248L5.79888 5.70846C6.03616 5.84546 6.23379 6.04173 6.37242 6.27806L7.44117 8.10001L5.32894 8.08543C5.05495 8.08354 4.78616 8.01052 4.54888 7.87352L4.26139 7.70754C3.66353 7.36237 3.45868 6.59788 3.80386 6.00001C4.14904 5.40215 4.91353 5.1973 5.51139 5.54248ZM13.4511 10.1265L13.7386 10.2925C14.3365 10.6377 14.5413 11.4021 14.1962 12C13.851 12.5979 13.0865 12.8027 12.4886 12.4575L12.2011 12.2916C11.9639 12.1546 11.7662 11.9583 11.6276 11.722L10.5589 9.90001L12.6711 9.91459C12.9451 9.91648 13.2139 9.9895 13.4511 10.1265Z" fill="#364141"/>
</svg>
