<svg width="19" height="19" viewBox="0 0 19 19" fill="none" xmlns="http://www.w3.org/2000/svg">
<path d="M15.9767 0.23558C15.8869 0.0432176 15.6134 0.0432182 15.5236 0.235581L14.6749 2.0541C14.6501 2.10731 14.6073 2.15008 14.5541 2.17492L12.7356 3.02363C12.5432 3.1134 12.5432 3.38693 12.7356 3.47671L14.5541 4.32542C14.6073 4.35025 14.6501 4.39302 14.6749 4.44623L15.5236 6.26476C15.6134 6.45712 15.8869 6.45712 15.9767 6.26476L16.8254 4.44623C16.8502 4.39302 16.893 4.35025 16.9462 4.32542L18.7647 3.47671C18.9571 3.38693 18.9571 3.1134 18.7647 3.02363L16.9462 2.17492C16.893 2.15008 16.8502 2.10731 16.8254 2.0541L15.9767 0.23558Z" fill="#364141"/>
<path d="M9.67307 2.36564C9.39814 1.80756 8.60241 1.80756 8.32748 2.36564L6.09777 6.89179C6.02 7.04964 5.8892 7.17513 5.72826 7.24629L1.0517 9.31398C0.456075 9.57733 0.456075 10.4225 1.0517 10.6859L5.72826 12.7536C5.8892 12.8247 6.02 12.9502 6.09777 13.1081L8.32748 17.6342C8.60241 18.1923 9.39814 18.1923 9.67307 17.6342L11.9028 13.1081C11.9805 12.9502 12.1113 12.8247 12.2723 12.7536L16.9488 10.6859C17.5445 10.4225 17.5445 9.57733 16.9488 9.31398L12.2723 7.24629C12.1113 7.17513 11.9805 7.04964 11.9028 6.89179L9.67307 2.36564Z" fill="#364141"/>
</svg>
