<svg width="18" height="18" viewBox="0 0 18 18" fill="none" xmlns="http://www.w3.org/2000/svg">
<path d="M8.13592 1.48364C8.52166 0.821372 9.47841 0.821372 9.86414 1.48364L12.0111 5.16967C12.1524 5.41227 12.3891 5.5843 12.6635 5.64372L16.8326 6.54651C17.5816 6.70872 17.8773 7.61865 17.3666 8.19015L14.5245 11.371C14.3374 11.5804 14.247 11.8587 14.2752 12.1381L14.7049 16.3821C14.7821 17.1446 14.0081 17.7069 13.3068 17.3979L9.40328 15.6777C9.14637 15.5645 8.8537 15.5645 8.59678 15.6777L4.69329 17.3979C3.99195 17.7069 3.21792 17.1446 3.29513 16.3821L3.72483 12.1381C3.75311 11.8587 3.66267 11.5804 3.47561 11.371L0.633418 8.19015C0.122763 7.61865 0.418416 6.70872 1.16747 6.54651L5.33653 5.64372C5.61092 5.5843 5.8477 5.41227 5.989 5.16967L8.13592 1.48364Z" fill="#364141"/>
</svg>
