<svg width="16" height="18" viewBox="0 0 16 18" fill="none" xmlns="http://www.w3.org/2000/svg">
<path d="M2.5 4.80614C2.5 2.566 4.316 0.75 6.55614 0.75H8.25C10.5972 0.75 12.5 2.65279 12.5 5H10.5C10.5 3.75736 9.49264 2.75 8.25 2.75H6.55614C5.42057 2.75 4.5 3.67057 4.5 4.80614C4.5 5.51508 4.86521 6.17401 5.46639 6.54975L9.7868 9.25H16V10.75H0V9.25H6.0132L4.40639 8.24574C3.22045 7.50453 2.5 6.20466 2.5 4.80614Z" fill="#364141"/>
<path d="M10.2706 12.25C10.419 12.5373 10.5 12.86 10.5 13.1939C10.5 14.3294 9.57943 15.25 8.44386 15.25H6.75C5.50736 15.25 4.5 14.2426 4.5 13H2.5C2.5 15.3472 4.40279 17.25 6.75 17.25H8.44386C10.684 17.25 12.5 15.434 12.5 13.1939C12.5 12.8722 12.4619 12.5557 12.3887 12.25H10.2706Z" fill="#364141"/>
</svg>
