<svg width="16" height="18" viewBox="0 0 16 18" fill="none" xmlns="http://www.w3.org/2000/svg">
<path fill-rule="evenodd" clip-rule="evenodd" d="M15.0858 6.58579L8.93934 0.43934C8.65804 0.158035 8.2765 0 7.87868 0H2.5C1.39543 0 0.5 0.895431 0.5 2V7.37868C0.5 7.7765 0.658035 8.15804 0.93934 8.43934L7.08579 14.5858C7.86684 15.3668 9.13316 15.3668 9.91421 14.5858L15.0858 9.41421C15.8668 8.63317 15.8668 7.36684 15.0858 6.58579ZM5.5 4C5.5 4.55228 5.05228 5 4.5 5C3.94772 5 3.5 4.55228 3.5 4C3.5 3.44772 3.94772 3 4.5 3C5.05228 3 5.5 3.44772 5.5 4Z" fill="#364141"/>
<path d="M6.62814 17.2451L0.974089 11.9445C0.671613 11.6609 0.5 11.2648 0.5 10.8502V10L7.13865 16.2237C7.90528 16.9424 9.09738 16.9453 9.86743 16.2302L15.5 11V11.8459C15.5 12.263 15.3263 12.6613 15.0207 12.9451L10.3802 17.2541C9.32139 18.2373 7.68226 18.2334 6.62814 17.2451Z" fill="#364141"/>
</svg>
