<svg width="18" height="14" viewBox="0 0 18 14" fill="none" xmlns="http://www.w3.org/2000/svg">
<path fill-rule="evenodd" clip-rule="evenodd" d="M0 1.5C0 0.671573 0.671573 0 1.5 0H10.25V3.5H11.75V0H16.5C17.3284 0 18 0.671573 18 1.5V5.5H16.5C15.6716 5.5 15 6.17157 15 7C15 7.82843 15.6716 8.5 16.5 8.5H18V12.5C18 13.3284 17.3284 14 16.5 14H11.75V10.5H10.25V14H1.5C0.671573 14 0 13.3284 0 12.5V8.5H1.5C2.32843 8.5 3 7.82843 3 7C3 6.17157 2.32843 5.5 1.5 5.5H0V1.5ZM11.75 9H10.25V5H11.75V9Z" fill="#364141"/>
</svg>
