<svg width="18" height="18" viewBox="0 0 18 18" fill="none" xmlns="http://www.w3.org/2000/svg">
<path d="M8.99991 9C11.4852 9 13.4999 6.98528 13.4999 4.5C13.4999 2.01472 11.4852 0 8.99991 0C6.51463 0 4.49991 2.01472 4.49991 4.5C4.49991 6.98528 6.51463 9 8.99991 9Z" fill="#364141"/>
<path d="M8.99991 18C13.1616 18 15.6835 15.2945 16.9595 13.3479C17.6089 12.357 17.0052 11.1279 15.8378 10.9267C13.362 10.5 11.1385 10.5 8.99991 10.5C6.86135 10.5 4.63784 10.5 2.16206 10.9267C0.994576 11.1279 0.390903 12.357 1.04035 13.3479C2.31628 15.2945 4.83823 18 8.99991 18Z" fill="#364141"/>
</svg>
