<svg width="19" height="17" viewBox="0 0 19 17" fill="none" xmlns="http://www.w3.org/2000/svg">
<path d="M6.99999 8C9.20913 8 11 6.20914 11 4C11 1.79086 9.20913 0 6.99999 0C4.79086 0 2.99999 1.79086 2.99999 4C2.99999 6.20914 4.79086 8 6.99999 8Z" fill="#364141"/>
<path d="M6.98031 9.25C5.46558 9.24999 3.83575 9.24999 2.04124 9.53319C0.371938 9.79663 -0.554576 11.6367 0.454801 13.1034C1.59179 14.7555 3.73191 17 6.99999 17C10.2681 17 12.4082 14.7555 13.5452 13.1034C14.5546 11.6367 13.6281 9.79663 11.9588 9.53319C10.1642 9.24999 8.53441 9.24999 7.01968 9.25H6.98031Z" fill="#364141"/>
<path d="M13 6.75H19V5.25H13V6.75Z" fill="#364141"/>
</svg>
