<svg width="18" height="18" viewBox="0 0 18 18" fill="none" xmlns="http://www.w3.org/2000/svg">
<path d="M13.7265 0.485337C13.6368 0.292974 13.3632 0.292974 13.2735 0.485336L12.1066 2.98566C12.0817 3.03887 12.0389 3.08164 11.9857 3.10648L9.48541 4.27338C9.29305 4.36316 9.29305 4.63669 9.48541 4.72647L11.9857 5.89337C12.0389 5.91821 12.0817 5.96098 12.1066 6.01419L13.2735 8.51451C13.3632 8.70687 13.6368 8.70687 13.7265 8.51451L14.8934 6.01419C14.9183 5.96098 14.9611 5.91821 15.0143 5.89337L17.5146 4.72647C17.707 4.63669 17.707 4.36316 17.5146 4.27338L15.0143 3.10648C14.9611 3.08164 14.9183 3.03887 14.8934 2.98566L13.7265 0.485337Z" fill="#364141"/>
<path d="M3.5 2.99992H7.5V4.49992C7.5 7.81363 10.1863 10.4999 13.5 10.4999H15V10.7499C15 12.6829 13.433 14.2499 11.5 14.2499H5L0.4 17.6999C0.235191 17.8235 0 17.7059 0 17.4999V6.49992C0 4.56693 1.567 2.99992 3.5 2.99992Z" fill="#364141"/>
</svg>
