<svg width="16" height="18" viewBox="0 0 16 18" fill="none" xmlns="http://www.w3.org/2000/svg">
<path fill-rule="evenodd" clip-rule="evenodd" d="M0 6C0 2.68629 2.68629 0 6 0H15C15.5523 0 16 0.447715 16 1V8C16 11.3137 13.3137 14 10 14H2.25311C2.04802 14 1.97581 14.2719 2.15388 14.3736L4.37063 15.6404C4.62493 15.7857 4.59891 16.1604 4.32697 16.2692L0.479987 17.808C0.250084 17.9 0 17.7307 0 17.483V6ZM4.1934 7.03028L9.50594 3.43146C9.70643 3.29564 9.9636 3.49572 9.88125 3.72346L8.85714 6.55556H11.6768C11.9239 6.55556 12.0212 6.87591 11.8158 7.01334L6.49033 10.5764C6.28966 10.7106 6.03411 10.5106 6.11621 10.2836L7.14286 7.44444L4.33742 7.48723C4.08909 7.49102 3.98777 7.16957 4.1934 7.03028Z" fill="#364141"/>
</svg>
