<svg width="24" height="24" viewBox="0 0 24 24" fill="none" xmlns="http://www.w3.org/2000/svg">
<path d="M18.008 3.5L20.998 6.49496L19.9364 7.55473L16.9465 4.55977L18.008 3.5Z" fill="#364141"/>
<path d="M7.04928 4.56071L4.05936 7.55567L2.9978 6.49591L5.98773 3.50094L7.04928 4.56071Z" fill="#364141"/>
<path d="M11.2473 9.02151V13.3251L13.9582 16.0405L15.0197 14.9807L12.7473 12.7045V9.02151H11.2473Z" fill="#364141"/>
<path fill-rule="evenodd" clip-rule="evenodd" d="M20.2174 12.7652C20.2174 17.3139 16.5373 21.0013 11.9976 21.0013C7.45789 21.0013 3.77774 17.3139 3.77774 12.7652C3.77774 8.21649 7.45789 4.52904 11.9976 4.52904C16.5373 4.52904 20.2174 8.21649 20.2174 12.7652ZM18.7174 12.7652C18.7174 16.4883 15.7061 19.5013 11.9976 19.5013C8.28912 19.5013 5.27774 16.4883 5.27774 12.7652C5.27774 9.04212 8.28912 6.02904 11.9976 6.02904C15.7061 6.02904 18.7174 9.04212 18.7174 12.7652Z" fill="#364141"/>
</svg>
