<svg width="24" height="24" viewBox="0 0 24 24" fill="none" xmlns="http://www.w3.org/2000/svg">
<path fill-rule="evenodd" clip-rule="evenodd" d="M5.43409 14.5H7.04561L7.30938 13.463H8.88477L9.14854 14.5H10.7601L9.05821 9.28604H7.13595L5.43409 14.5ZM8.06095 10.529H8.13321L8.60655 12.3826H7.58761L8.06095 10.529Z" fill="#364141"/>
<path d="M11.028 14.5H14.6847V13.2859H12.5601V9.28604H11.028V14.5Z" fill="#364141"/>
<path d="M17.0592 14.5H15.5271V10.5001H14.0782V9.28604H18.5081V10.5001H17.0592V14.5Z" fill="#364141"/>
<path fill-rule="evenodd" clip-rule="evenodd" d="M3 6.5C3 5.67157 3.67157 5 4.5 5H19.5C20.3284 5 21 5.67157 21 6.5V17.5C21 18.3284 20.3284 19 19.5 19H4.5C3.67157 19 3 18.3284 3 17.5V6.5ZM4.5 6.5H19.5V17.5H4.5L4.5 6.5Z" fill="#364141"/>
</svg>
