<svg width="24" height="24" viewBox="0 0 24 24" fill="none" xmlns="http://www.w3.org/2000/svg">
<path fill-rule="evenodd" clip-rule="evenodd" d="M12.5303 20.5303L12 21.0606L11.4697 20.5303L8.46966 17.5303L9.53032 16.4697L11.25 18.1893V12.75H5.81065L7.53032 14.4697L6.46966 15.5303L3.46966 12.5303L2.93933 12L3.46966 11.4697L6.46966 8.46966L7.53032 9.53032L5.81065 11.25H11.25V5.81065L9.53032 7.53032L8.46966 6.46966L11.4697 3.46966L12 2.93933L12.5303 3.46966L15.5303 6.46966L14.4697 7.53032L12.75 5.81065V11.25H18.1893L16.4697 9.53032L17.5303 8.46966L20.5303 11.4697L21.0606 12L20.5303 12.5303L17.5303 15.5303L16.4697 14.4697L18.1893 12.75H12.75V18.1893L14.4697 16.4697L15.5303 17.5303L12.5303 20.5303Z" fill="#364141"/>
</svg>
