<svg width="24" height="24" viewBox="0 0 24 24" fill="none" xmlns="http://www.w3.org/2000/svg">
<path d="M12 4.5C9.22486 4.5 6.8004 6.00747 5.50316 8.25H8.45001V9.75H3V4H4.5V7.02362C6.11192 4.59903 8.8686 3 12 3C16.9706 3 21 7.02944 21 12H19.5C19.5 7.85786 16.1421 4.5 12 4.5Z" fill="#364141"/>
<path d="M12 19.5C14.7751 19.5 17.1996 17.9925 18.4968 15.75H15.55L15.55 14.25H21V20H19.5V16.9764C17.8881 19.401 15.1314 21 12 21C7.02944 21 3 16.9706 3 12H4.5C4.5 16.1421 7.85786 19.5 12 19.5Z" fill="#364141"/>
</svg>
