<svg width="24" height="24" viewBox="0 0 24 24" fill="none" xmlns="http://www.w3.org/2000/svg">
<path d="M8.5 9.5C9.05228 9.5 9.5 9.05228 9.5 8.5C9.5 7.94772 9.05228 7.5 8.5 7.5C7.94772 7.5 7.5 7.94772 7.5 8.5C7.5 9.05228 7.94772 9.5 8.5 9.5Z" fill="#364141"/>
<path d="M8 12C8 12.5523 7.55228 13 7 13C6.44772 13 6 12.5523 6 12C6 11.4477 6.44772 11 7 11C7.55228 11 8 11.4477 8 12Z" fill="#364141"/>
<path d="M8.5 16.5C9.05228 16.5 9.5 16.0523 9.5 15.5C9.5 14.9477 9.05228 14.5 8.5 14.5C7.94772 14.5 7.5 14.9477 7.5 15.5C7.5 16.0523 7.94772 16.5 8.5 16.5Z" fill="#364141"/>
<path d="M13 7C13 7.55228 12.5523 8 12 8C11.4477 8 11 7.55228 11 7C11 6.44772 11.4477 6 12 6C12.5523 6 13 6.44772 13 7Z" fill="#364141"/>
<path d="M15.5 9.5C16.0523 9.5 16.5 9.05228 16.5 8.5C16.5 7.94772 16.0523 7.5 15.5 7.5C14.9477 7.5 14.5 7.94772 14.5 8.5C14.5 9.05228 14.9477 9.5 15.5 9.5Z" fill="#364141"/>
<path fill-rule="evenodd" clip-rule="evenodd" d="M3 11.5C3 6.80558 6.80558 3 11.5 3H12.5C17.1944 3 21 6.80558 21 11.5V12C21 13.1046 20.1046 14 19 14H15.5C14.6716 14 14 14.6716 14 15.5V19C14 20.1046 13.1046 21 12 21H11.5C6.80558 21 3 17.1944 3 12.5V11.5ZM11.5 4.5H12.5C16.366 4.5 19.5 7.63401 19.5 11.5V12C19.5 12.2761 19.2761 12.5 19 12.5H15.5C13.8431 12.5 12.5 13.8431 12.5 15.5V19C12.5 19.2761 12.2761 19.5 12 19.5H11.5C7.63401 19.5 4.5 16.366 4.5 12.5V11.5C4.5 7.63401 7.63401 4.5 11.5 4.5Z" fill="#364141"/>
</svg>
