<svg width="24" height="24" viewBox="0 0 24 24" fill="none" xmlns="http://www.w3.org/2000/svg">
<path d="M13.0001 12.0001C13.0001 12.5524 12.5524 13.0001 12.0001 13.0001C11.4478 13.0001 11.0001 12.5524 11.0001 12.0001C11.0001 11.4478 11.4478 11.0001 12.0001 11.0001C12.5524 11.0001 13.0001 11.4478 13.0001 12.0001Z" fill="#364141"/>
<path fill-rule="evenodd" clip-rule="evenodd" d="M6.19523 12.0001C4.23594 14.9563 3.63716 17.7793 4.92904 19.0712C6.22093 20.363 9.04385 19.7643 12.0001 17.805C14.9563 19.7643 17.7793 20.363 19.0712 19.0712C20.363 17.7793 19.7643 14.9563 17.805 12.0001C19.7643 9.04385 20.3631 6.22091 19.0712 4.92902C17.7793 3.63713 14.9564 4.23593 12.0001 6.19523C9.04385 4.23593 6.22091 3.63713 4.92902 4.92902C3.63713 6.22091 4.23593 9.04385 6.19523 12.0001ZM13.304 16.8576C13.9958 17.2811 14.6635 17.613 15.2821 17.8476C17.0412 18.5149 17.8092 18.2118 18.0105 18.0105C18.2118 17.8092 18.5149 17.0412 17.8476 15.2821C17.613 14.6635 17.2811 13.9958 16.8576 13.304C16.356 13.9378 15.7957 14.5684 15.1821 15.1821C14.5684 15.7957 13.9378 16.356 13.304 16.8576ZM12.0001 15.969C12.707 15.4382 13.4223 14.8205 14.1214 14.1214C14.8205 13.4223 15.4382 12.707 15.969 12.0001C15.4382 11.2932 14.8205 10.5779 14.1214 9.87877C13.4223 9.17968 12.707 8.56198 12.0001 8.03118C11.2932 8.56198 10.5779 9.17968 9.87879 9.87877C9.1797 10.5779 8.56199 11.2932 8.03118 12.0001C8.56198 12.707 9.17968 13.4223 9.87877 14.1214C10.5779 14.8205 11.2932 15.4382 12.0001 15.969ZM7.14261 13.304C7.64422 13.9378 8.20445 14.5684 8.81811 15.1821C9.43177 15.7957 10.0624 16.356 10.6962 16.8576C10.0044 17.2811 9.33665 17.613 8.71813 17.8476C6.95896 18.5149 6.19102 18.2118 5.9897 18.0105C5.78838 17.8092 5.48534 17.0412 6.15261 15.2821C6.38722 14.6635 6.7191 13.9958 7.14261 13.304ZM7.14261 10.6962C7.64423 10.0624 8.20446 9.43178 8.81813 8.81811C9.43179 8.20445 10.0624 7.64422 10.6962 7.14261C10.0044 6.71909 9.33663 6.3872 8.71811 6.15258C6.95894 5.48531 6.191 5.78836 5.98968 5.98968C5.78836 6.191 5.48531 6.95894 6.15258 8.71811C6.3872 9.33663 6.71909 10.0044 7.14261 10.6962ZM13.304 7.14261C13.9958 6.71909 14.6636 6.3872 15.2821 6.15258C17.0413 5.48531 17.8092 5.78836 18.0105 5.98968C18.2118 6.191 18.5149 6.95894 17.8476 8.71811C17.613 9.33663 17.2811 10.0044 16.8576 10.6962C16.356 10.0624 15.7957 9.43178 15.1821 8.81811C14.5684 8.20445 13.9378 7.64422 13.304 7.14261Z" fill="#364141"/>
</svg>
