<svg width="24" height="24" viewBox="0 0 24 24" fill="none" xmlns="http://www.w3.org/2000/svg">
<path fill-rule="evenodd" clip-rule="evenodd" d="M6.5 8.49995H4.5C3.67157 8.49995 3 9.17152 3 9.99995V13.9999C3 14.8284 3.67157 15.4999 4.5 15.4999H6.5L11.1464 20.1464C11.4614 20.4614 12 20.2383 12 19.7928V4.20706C12 3.7616 11.4614 3.53852 11.1464 3.8535L6.5 8.49995ZM7.12132 13.9999L10.5 17.3786V6.62127L7.12132 9.99995H4.5L4.5 13.9999H7.12132Z" fill="#364141"/>
<path d="M15.182 15.1818C15.9963 14.3674 16.5 13.2425 16.5 11.9999C16.5 10.7572 15.9963 9.63216 15.1819 8.81782L14.1213 9.87848C14.6642 10.4214 15 11.1714 15 11.9999C15 12.8283 14.6642 13.5782 14.1214 14.1211L15.182 15.1818Z" fill="#364141"/>
<path d="M18.3639 18.3639L17.3033 17.3032C18.6605 15.946 19.5 14.0709 19.5 11.9998C19.5 9.92881 18.6606 8.05383 17.3033 6.6966L18.364 5.63594C19.9927 7.26461 21 9.51459 21 11.9998C21 14.4852 19.9926 16.7352 18.3639 18.3639Z" fill="#364141"/>
</svg>
