<svg width="24" height="24" viewBox="0 0 24 24" fill="none" xmlns="http://www.w3.org/2000/svg">
<path fill-rule="evenodd" clip-rule="evenodd" d="M21 12C21 16.9706 16.9706 21 12 21C7.02944 21 3 16.9706 3 12C3 7.02944 7.02944 3 12 3C16.9706 3 21 7.02944 21 12ZM16.7465 17.8072C15.4536 18.8652 13.801 19.5 12 19.5C7.85786 19.5 4.5 16.1421 4.5 12C4.5 10.199 5.13477 8.54635 6.19279 7.25345L16.7465 17.8072ZM17.8072 16.7465L7.25345 6.19279C8.54635 5.13477 10.199 4.5 12 4.5C16.1421 4.5 19.5 7.85786 19.5 12C19.5 13.801 18.8652 15.4536 17.8072 16.7465Z" fill="#364141"/>
</svg>
