<svg width="24" height="24" viewBox="0 0 24 24" fill="none" xmlns="http://www.w3.org/2000/svg">
<path d="M8 8.5H6V15.5H8V8.5Z" fill="#364141"/>
<path d="M18 8.5H16V15.5H18V8.5Z" fill="#364141"/>
<path d="M13 8.5H15V15.5H13V8.5Z" fill="#364141"/>
<path d="M10 8.5H9V15.5H10V8.5Z" fill="#364141"/>
<path d="M11 8.5H12V15.5H11V8.5Z" fill="#364141"/>
<path fill-rule="evenodd" clip-rule="evenodd" d="M3 6.5C3 5.67157 3.67157 5 4.5 5H19.5C20.3284 5 21 5.67157 21 6.5V17.5C21 18.3284 20.3284 19 19.5 19H4.5C3.67157 19 3 18.3284 3 17.5V6.5ZM4.5 6.5H19.5V17.5H4.5L4.5 6.5Z" fill="#364141"/>
</svg>
