<svg width="24" height="24" viewBox="0 0 24 24" fill="none" xmlns="http://www.w3.org/2000/svg">
<path fill-rule="evenodd" clip-rule="evenodd" d="M4.5 4C3.67157 4 3 4.67157 3 5.5V6.75C3 7.57843 3.67157 8.25 4.5 8.25H19.5C20.3284 8.25 21 7.57843 21 6.75V5.5C21 4.67157 20.3284 4 19.5 4H4.5ZM19.5 5.5H4.5L4.5 6.75H19.5V5.5Z" fill="#364141"/>
<path fill-rule="evenodd" clip-rule="evenodd" d="M4.5 9.88C3.67157 9.88 3 10.5516 3 11.38V12.63C3 13.4584 3.67157 14.13 4.5 14.13H19.5C20.3284 14.13 21 13.4584 21 12.63V11.38C21 10.5516 20.3284 9.88 19.5 9.88H4.5ZM19.5 11.38H4.5L4.5 12.63H19.5V11.38Z" fill="#364141"/>
<path fill-rule="evenodd" clip-rule="evenodd" d="M3 17.25C3 16.4216 3.67157 15.75 4.5 15.75H19.5C20.3284 15.75 21 16.4216 21 17.25V18.5C21 19.3284 20.3284 20 19.5 20H4.5C3.67157 20 3 19.3284 3 18.5V17.25ZM4.5 17.25H19.5V18.5H4.5L4.5 17.25Z" fill="#364141"/>
</svg>
