<svg width="24" height="24" viewBox="0 0 24 24" fill="none" xmlns="http://www.w3.org/2000/svg">
<path fill-rule="evenodd" clip-rule="evenodd" d="M11 5.5C11 4.67157 11.6716 4 12.5 4H18.5C19.3284 4 20 4.67157 20 5.5V18.5C20 19.3284 19.3284 20 18.5 20H12.5C11.6716 20 11 19.3284 11 18.5V5.5ZM12.5 5.5H18.5V18.5H12.5V5.5Z" fill="#364141"/>
<path d="M4 5.75H9.5V4.25H4V5.75Z" fill="#364141"/>
<path d="M9.5 19.75H4V18.25H9.5V19.75Z" fill="#364141"/>
<path d="M4 12.75H9.5V11.25H4V12.75Z" fill="#364141"/>
<path d="M9.5 9.25H4V7.75H9.5V9.25Z" fill="#364141"/>
<path d="M4 16.25H9.5V14.75H4V16.25Z" fill="#364141"/>
</svg>
