<svg width="24" height="24" viewBox="0 0 24 24" fill="none" xmlns="http://www.w3.org/2000/svg">
<path fill-rule="evenodd" clip-rule="evenodd" d="M3 5.5C3 4.67157 3.67157 4 4.5 4H19.5C20.3284 4 21 4.67157 21 5.5V9.5C21 10.3284 20.3284 11 19.5 11H4.5C3.67157 11 3 10.3284 3 9.5V5.5ZM4.5 5.5H19.5V9.5H4.5L4.5 5.5Z" fill="#364141"/>
<path fill-rule="evenodd" clip-rule="evenodd" d="M3 14.5C3 13.6716 3.67157 13 4.5 13H19.5C20.3284 13 21 13.6716 21 14.5V18.5C21 19.3284 20.3284 20 19.5 20H4.5C3.67157 20 3 19.3284 3 18.5V14.5ZM4.5 14.5H19.5V18.5H4.5L4.5 14.5Z" fill="#364141"/>
</svg>
