<svg width="24" height="24" viewBox="0 0 24 24" fill="none" xmlns="http://www.w3.org/2000/svg">
<path fill-rule="evenodd" clip-rule="evenodd" d="M16.5 19.7943C14.7063 20.8299 12.7042 21.1779 10.7991 20.92C10.2937 20.8516 9.79508 20.7406 9.309 20.5884C7.23036 19.9377 5.38073 18.5351 4.20581 16.5C1.72053 12.1954 3.1954 6.69109 7.50004 4.20581C11.8047 1.72053 17.309 3.1954 19.7943 7.50004C20.9692 9.53505 21.259 11.8382 20.7833 13.9637C20.672 14.4607 20.5189 14.9481 20.3255 15.42C19.5962 17.1988 18.2938 18.7586 16.5 19.7943ZM15.082 18.8382L11.7255 13.0246L10.6163 13.665C11.4964 15.5281 11.6816 17.5666 11.257 19.4637C12.5324 19.5918 13.8508 19.3949 15.082 18.8382ZM9.86631 12.3659L10.9755 11.7255L7.61903 5.91192C6.52131 6.69985 5.69162 7.74309 5.16478 8.91172C7.02001 9.4925 8.69282 10.6722 9.86631 12.3659ZM8.56188 13.119L5.16192 15.082C4.46957 13.5508 4.33371 11.8848 4.68736 10.3341C6.20714 10.8032 7.58196 11.7538 8.56188 13.119ZM5.91192 16.381L9.31188 14.4181C10.0042 15.9493 10.1401 17.6153 9.78643 19.166C8.26666 18.6969 6.89184 17.7463 5.91192 16.381ZM18.8353 15.0884C18.3085 16.257 17.4788 17.3002 16.381 18.0882L13.0246 12.2746L14.1338 11.6342C15.3073 13.3279 16.9801 14.5076 18.8353 15.0884ZM15.4382 10.881C16.4181 12.2463 17.7929 13.1969 19.3127 13.666C19.6664 12.1153 19.5305 10.4493 18.8382 8.91807L15.4382 10.881ZM18.0882 7.61903L14.6882 9.582C13.9959 8.05076 13.86 6.38482 14.2136 4.83412C15.7334 5.3032 17.1082 6.25383 18.0882 7.61903ZM13.3838 10.3351C12.5037 8.47198 12.3185 6.43344 12.7431 4.53637C11.4676 4.40831 10.1493 4.60522 8.91807 5.16192L12.2746 10.9755L13.3838 10.3351Z" fill="#364141"/>
</svg>
