<svg width="24" height="24" viewBox="0 0 24 24" fill="none" xmlns="http://www.w3.org/2000/svg">
<path fill-rule="evenodd" clip-rule="evenodd" d="M12.75 4.29847C15.5713 4.66598 17.75 7.07855 17.75 10V14.5C17.75 15.7426 18.7574 16.75 20 16.75V18.25H4V16.75C5.24264 16.75 6.25 15.7426 6.25 14.5V10C6.25 7.07855 8.42873 4.66598 11.25 4.29847V3H12.75V4.29847ZM12 5.75C9.65279 5.75 7.75 7.65279 7.75 10V14.5C7.75 15.3442 7.47104 16.1233 7.00027 16.75H16.9997C16.529 16.1233 16.25 15.3442 16.25 14.5V10C16.25 7.65279 14.3472 5.75 12 5.75Z" fill="#364141"/>
<path d="M14 19.5C14 20.3284 13.3284 21 12.5 21H11.5C10.6716 21 10 20.3284 10 19.5H14Z" fill="#364141"/>
</svg>
