<svg width="24" height="24" viewBox="0 0 24 24" fill="none" xmlns="http://www.w3.org/2000/svg">
<path fill-rule="evenodd" clip-rule="evenodd" d="M12.75 4.29847C15.5713 4.66598 17.75 7.07855 17.75 10V16.6892L20.0304 18.9696L18.9697 20.0302L3.96973 5.03022L5.03039 3.96956L7.49162 6.43079C8.39833 5.28703 9.73106 4.49634 11.25 4.29847V3H12.75V4.29847ZM8.56193 7.50111C9.33463 6.43981 10.5868 5.75 12 5.75C14.3473 5.75 16.25 7.65279 16.25 10V15.1892L8.56193 7.50111Z" fill="#364141"/>
<path d="M13.6894 16.75L15.1894 18.25H4.00004V16.75C5.24268 16.75 6.25004 15.7426 6.25004 14.5V10C6.25004 9.77931 6.26248 9.56152 6.28668 9.3473L7.75004 10.8107V14.5C7.75004 15.3442 7.47108 16.1233 7.00032 16.75H13.6894Z" fill="#364141"/>
<path d="M14 19.5C14 20.3284 13.3285 21 12.5 21H11.5C10.6716 21 10 20.3284 10 19.5H14Z" fill="#364141"/>
</svg>
