<svg width="24" height="24" viewBox="0 0 24 24" fill="none" xmlns="http://www.w3.org/2000/svg">
<path fill-rule="evenodd" clip-rule="evenodd" d="M6.75 4H13.375C15.7912 4 17.75 5.95875 17.75 8.375C17.75 9.7807 17.087 11.0316 16.0567 11.832C17.3676 12.5876 18.25 14.0033 18.25 15.625C18.25 18.0412 16.2912 20 13.875 20H6.75V4ZM13.375 11.25C14.9628 11.25 16.25 9.96282 16.25 8.375C16.25 6.78718 14.9628 5.5 13.375 5.5H8.25V11.25H13.375ZM8.25 12.75H13.875C15.4628 12.75 16.75 14.0372 16.75 15.625C16.75 17.2128 15.4628 18.5 13.875 18.5H8.25V12.75Z" fill="#364141"/>
</svg>
