<svg width="24" height="24" viewBox="0 0 24 24" fill="none" xmlns="http://www.w3.org/2000/svg">
<path d="M7.5 7.75L16.5 7.75V6.25L7.5 6.25V7.75Z" fill="#364141"/>
<path d="M14 10.75L7.5 10.75V9.25001L14 9.25L14 10.75Z" fill="#364141"/>
<path fill-rule="evenodd" clip-rule="evenodd" d="M7.5 3.25C5.98122 3.25 4.75 4.48122 4.75 6V18C4.75 19.5188 5.98122 20.75 7.5 20.75H19.25V19.25H18.25V16.75H19.25V3.25H7.5ZM16.75 16.75H7.5C6.80964 16.75 6.25 17.3096 6.25 18C6.25 18.6904 6.80964 19.25 7.5 19.25H16.75V16.75ZM7.5 15.25C7.04989 15.25 6.62503 15.3581 6.25 15.5499V6C6.25 5.30964 6.80964 4.75 7.5 4.75H17.75V15.25H7.5Z" fill="#364141"/>
</svg>
