<svg width="24" height="24" viewBox="0 0 24 24" fill="none" xmlns="http://www.w3.org/2000/svg">
<path fill-rule="evenodd" clip-rule="evenodd" d="M6 15.6397V5.19374C6 4.85246 6.33435 4.61148 6.65811 4.7194L11.6838 6.39462C11.889 6.46304 12.111 6.46304 12.3162 6.39462L17.3419 4.7194C17.6657 4.61148 18 4.85246 18 5.19374V15.6397C18 15.8549 17.8623 16.0459 17.6581 16.114L12.3162 17.8946C12.111 17.963 11.889 17.963 11.6838 17.8946L6.34189 16.114C6.13772 16.0459 6 15.8549 6 15.6397ZM11.2094 7.81765C11.2229 7.82214 11.2364 7.82652 11.25 7.83079V16.1689L7.5 14.9189V6.58117L11.2094 7.81765ZM12.75 7.83079V16.1689L16.5 14.9189V6.58117L12.7906 7.81765C12.7771 7.82214 12.7636 7.82652 12.75 7.83079Z" fill="#364141"/>
<path d="M3 8.50003V17.2793C3 17.7097 3.27543 18.0918 3.68377 18.228L11.6838 20.8946C11.889 20.963 12.111 20.963 12.3162 20.8946L20.3162 18.228C20.7246 18.0918 21 17.7097 21 17.2793V8.50003C21 7.6716 20.3284 7.00003 19.5 7.00003V17L12 19.5L4.5 17V7.00003C3.67157 7.00003 3 7.6716 3 8.50003Z" fill="#364141"/>
</svg>
