<svg width="24" height="24" viewBox="0 0 24 24" fill="none" xmlns="http://www.w3.org/2000/svg">
<path d="M12 12C12.5523 12 13 11.5523 13 11C13 10.4477 12.5523 10 12 10C11.4477 10 11 10.4477 11 11C11 11.5523 11.4477 12 12 12Z" fill="#364141"/>
<path fill-rule="evenodd" clip-rule="evenodd" d="M8.25 6V5.75C8.25 4.23122 9.48122 3 11 3H13C14.5188 3 15.75 4.23122 15.75 5.75V6H19.5C20.3284 6 21 6.67157 21 7.5V18.5C21 19.3284 20.3284 20 19.5 20H4.5C3.67157 20 3 19.3284 3 18.5V7.5C3 6.67157 3.67157 6 4.5 6H8.25ZM9.75 5.75C9.75 5.05964 10.3096 4.5 11 4.5H13C13.6904 4.5 14.25 5.05964 14.25 5.75V6H9.75V5.75ZM19.5 7.5V11.2955C17.6172 12.5874 14.977 13.4267 12 13.4267C9.023 13.4267 6.38277 12.5874 4.5 11.2955L4.5 7.5H19.5ZM4.5 18.5L4.5 13.0624C6.5544 14.2289 9.16216 14.9267 12 14.9267C14.8378 14.9267 17.4456 14.2289 19.5 13.0624V18.5H4.5Z" fill="#364141"/>
</svg>
