<svg width="24" height="24" viewBox="0 0 24 24" fill="none" xmlns="http://www.w3.org/2000/svg">
<path fill-rule="evenodd" clip-rule="evenodd" d="M6 5.5C6 4.67157 6.67157 4 7.5 4H19.5C20.3284 4 21 4.67157 21 5.5V16.5C21 17.3284 20.3284 18 19.5 18H7.5C6.67157 18 6 17.3284 6 16.5V5.5ZM7.5 5.5H10.25V8.25H7.5V5.5ZM11.75 8.25V5.5H19.5V8.25H11.75ZM7.5 9.75H19.5V16.5H7.5V9.75Z" fill="#364141"/>
<path d="M4.5 7V18C4.5 18.8284 5.17157 19.5 6 19.5H17C17 20.3284 16.3284 21 15.5 21H5C3.89543 21 3 20.1046 3 19V8.5C3 7.67157 3.67157 7 4.5 7Z" fill="#364141"/>
</svg>
