<svg width="24" height="24" viewBox="0 0 24 24" fill="none" xmlns="http://www.w3.org/2000/svg">
<path d="M5.75 9.30005H9V7.80005H5.75V9.30005Z" fill="#364141"/>
<path d="M5.75 12H9V10.5H5.75V12Z" fill="#364141"/>
<path d="M5.75 14.75H9V13.25H5.75V14.75Z" fill="#364141"/>
<path fill-rule="evenodd" clip-rule="evenodd" d="M4.5 5C3.67157 5 3 5.67157 3 6.5V17.5C3 18.3284 3.67157 19 4.5 19H19.5C20.3284 19 21 18.3284 21 17.5V6.5C21 5.67157 20.3284 5 19.5 5H4.5ZM19.5 6.5H11.75V17.5H19.5V6.5ZM4.5 17.5H10.25V6.5H4.5L4.5 17.5Z" fill="#364141"/>
</svg>
