<svg width="24" height="24" viewBox="0 0 24 24" fill="none" xmlns="http://www.w3.org/2000/svg">
<path d="M19.5 12C19.5 16.1421 16.1421 19.5 12 19.5C7.85786 19.5 4.5 16.1421 4.5 12C4.5 7.85786 7.85786 4.5 12 4.5L13.3929 3.10713C12.9389 3.0366 12.4737 3 12 3C7.02944 3 3 7.02944 3 12C3 16.9706 7.02944 21 12 21C16.9706 21 21 16.9706 21 12C21 11.5263 20.9634 11.0611 20.8929 10.6071L19.5 12Z" fill="#364141"/>
<path fill-rule="evenodd" clip-rule="evenodd" d="M14.0607 11H16.8572C17.4071 11 17.9328 10.7736 18.3106 10.3739L20.8215 7.71775C21.1307 7.39069 20.9831 6.8523 20.5503 6.72866L18 6L17.2801 3.48048C17.1545 3.04059 16.6025 2.89755 16.279 3.22104L13.5858 5.91421C13.2107 6.28929 13 6.79799 13 7.32843V9.93934L11.4697 11.4697C11.1768 11.7626 11.1768 12.2374 11.4697 12.5303C11.7626 12.8232 12.2374 12.8232 12.5303 12.5303L14.0607 11ZM16.7866 7.21335L18.7137 7.76394L17.2205 9.34348C17.1261 9.44339 16.9947 9.5 16.8572 9.5H14.5V7.32843C14.5 7.19582 14.5527 7.06864 14.6464 6.97487L16.2581 5.36327L16.7866 7.21335Z" fill="#364141"/>
<path d="M7 12C7 9.58103 8.71776 7.56328 11 7.10001V8.64493C9.55426 9.0752 8.5 10.4145 8.5 12C8.5 13.933 10.067 15.5 12 15.5C13.5855 15.5 14.9248 14.4457 15.3551 13H16.9C16.4367 15.2822 14.419 17 12 17C9.23858 17 7 14.7614 7 12Z" fill="#364141"/>
</svg>
