<svg width="24" height="24" viewBox="0 0 24 24" fill="none" xmlns="http://www.w3.org/2000/svg">
<path fill-rule="evenodd" clip-rule="evenodd" d="M8.5 7C7.67157 7 7 7.67157 7 8.5V10C7 10.8284 7.67157 11.5 8.5 11.5H15.5C16.3284 11.5 17 10.8284 17 10V8.5C17 7.67157 16.3284 7 15.5 7H8.5ZM15.5 8.5H8.5V10H15.5V8.5Z" fill="#364141"/>
<path d="M11 14.25H13V12.75H11V14.25Z" fill="#364141"/>
<path d="M7.5 14.25V12.75H9.5V14.25H7.5Z" fill="#364141"/>
<path d="M11 17.25H13V15.75H11V17.25Z" fill="#364141"/>
<path d="M14.75 17.25V12.75H16.25V17.25H14.75Z" fill="#364141"/>
<path d="M7.5 15.75V17.25H9.5V15.75H7.5Z" fill="#364141"/>
<path fill-rule="evenodd" clip-rule="evenodd" d="M5.5 4C4.67157 4 4 4.67157 4 5.5V18.5C4 19.3284 4.67157 20 5.5 20H18.5C19.3284 20 20 19.3284 20 18.5V5.5C20 4.67157 19.3284 4 18.5 4H5.5ZM18.5 5.5H5.5V18.5H18.5V5.5Z" fill="#364141"/>
</svg>
