<svg width="24" height="24" viewBox="0 0 24 24" fill="none" xmlns="http://www.w3.org/2000/svg">
<path d="M16.5 13H10V11.5H16.5V13Z" fill="#364141"/>
<path d="M7.5 16.75H14V15.25H7.5V16.75Z" fill="#364141"/>
<path fill-rule="evenodd" clip-rule="evenodd" d="M15.25 5H8.75V3H7.25V5H5.5C4.67157 5 4 5.67157 4 6.5V18.5C4 19.3284 4.67157 20 5.5 20H18.5C19.3284 20 20 19.3284 20 18.5V6.5C20 5.67157 19.3284 5 18.5 5H16.75V3H15.25V5ZM5.5 6.5H18.5V8.25H5.5V6.5ZM18.5 9.75V18.5H5.5V9.75H18.5Z" fill="#364141"/>
</svg>
