<svg width="24" height="24" viewBox="0 0 24 24" fill="none" xmlns="http://www.w3.org/2000/svg">
<path d="M16.9697 13.9697L15.1893 15.75H14V17.25H15.8107L18.0303 15.0303L16.9697 13.9697Z" fill="#364141"/>
<path fill-rule="evenodd" clip-rule="evenodd" d="M8.75 5H14.25V3H15.75V5H17.5C18.3284 5 19 5.67157 19 6.5V11.9996C20.2144 12.9118 21 14.3642 21 16C21 18.7614 18.7614 21 16 21C14.3642 21 12.9118 20.2144 11.9996 19H5.5C4.67157 19 4 18.3284 4 17.5V6.5C4 5.67157 4.67157 5 5.5 5H7.25V3H8.75V5ZM17.5 9.75V11.2289C17.0265 11.0802 16.5226 11 16 11C13.2386 11 11 13.2386 11 16C11 16.5226 11.0802 17.0265 11.2289 17.5H5.5V9.75H17.5ZM5.5 8.25H17.5V6.5H5.5V8.25ZM16 19.5C17.933 19.5 19.5 17.933 19.5 16C19.5 14.067 17.933 12.5 16 12.5C14.067 12.5 12.5 14.067 12.5 16C12.5 17.933 14.067 19.5 16 19.5Z" fill="#364141"/>
</svg>
