<svg width="24" height="24" viewBox="0 0 24 24" fill="none" xmlns="http://www.w3.org/2000/svg">
<path fill-rule="evenodd" clip-rule="evenodd" d="M16 12.5C16 14.7091 14.2091 16.5 12 16.5C9.79086 16.5 8 14.7091 8 12.5C8 10.2909 9.79086 8.5 12 8.5C14.2091 8.5 16 10.2909 16 12.5ZM14.5 12.5C14.5 13.8807 13.3807 15 12 15C10.6193 15 9.5 13.8807 9.5 12.5C9.5 11.1193 10.6193 10 12 10C13.3807 10 14.5 11.1193 14.5 12.5Z" fill="#364141"/>
<path fill-rule="evenodd" clip-rule="evenodd" d="M3 8.5C3 7.67157 3.67157 7 4.5 7H6.26581C6.4142 7 6.55493 6.93409 6.64992 6.82009L8.40031 4.71963C8.7803 4.26365 9.34319 4 9.93675 4H14.25C14.8795 4 15.4723 4.29639 15.85 4.8L17.35 6.8C17.4444 6.9259 17.5926 7 17.75 7H19.5C20.3284 7 21 7.67157 21 8.5V18.5C21 19.3284 20.3284 20 19.5 20H4.5C3.67157 20 3 19.3284 3 18.5V8.5ZM19.5 8.5V18.5H4.5L4.5 8.5L6.26581 8.5C6.85937 8.5 7.42227 8.23635 7.80226 7.78037L9.55264 5.67991C9.64764 5.56591 9.78836 5.5 9.93675 5.5H14.25C14.4074 5.5 14.5556 5.5741 14.65 5.7L16.15 7.7C16.5277 8.20361 17.1205 8.5 17.75 8.5H19.5Z" fill="#364141"/>
</svg>
