<svg width="24" height="24" viewBox="0 0 24 24" fill="none" xmlns="http://www.w3.org/2000/svg">
<path d="M8.96967 10.5303L10.9393 12.5L8.96967 14.4697L10.0303 15.5303L12 13.5607L13.9697 15.5303L15.0303 14.4697L13.0607 12.5L15.0303 10.5303L13.9697 9.46967L12 11.4393L10.0303 9.46967L8.96967 10.5303Z" fill="#364141"/>
<path fill-rule="evenodd" clip-rule="evenodd" d="M3 8.5C3 7.67157 3.67157 7 4.5 7H6.26581C6.4142 7 6.55493 6.93409 6.64992 6.82009L8.40031 4.71963C8.7803 4.26365 9.34319 4 9.93675 4H14.25C14.8795 4 15.4723 4.29639 15.85 4.8L17.35 6.8C17.4444 6.9259 17.5926 7 17.75 7H19.5C20.3284 7 21 7.67157 21 8.5V18.5C21 19.3284 20.3284 20 19.5 20H4.5C3.67157 20 3 19.3284 3 18.5V8.5ZM19.5 8.5V18.5H4.5L4.5 8.5L6.26581 8.5C6.85937 8.5 7.42227 8.23635 7.80226 7.78037L9.55264 5.67991C9.64764 5.56591 9.78836 5.5 9.93675 5.5H14.25C14.4074 5.5 14.5556 5.5741 14.65 5.7L16.15 7.7C16.5277 8.20361 17.1205 8.5 17.75 8.5H19.5Z" fill="#364141"/>
</svg>
