<svg width="24" height="24" viewBox="0 0 24 24" fill="none" xmlns="http://www.w3.org/2000/svg">
<path fill-rule="evenodd" clip-rule="evenodd" d="M7.5 5C6.67157 5 6 5.67157 6 6.5V17.5C6 18.3284 6.67157 19 7.5 19H16.5C17.3284 19 18 18.3284 18 17.5V6.5C18 5.67157 17.3284 5 16.5 5H7.5ZM16.5 6.5H7.5V17.5H16.5V6.5Z" fill="#364141"/>
<path d="M19.5 15.9982C20.3283 15.9982 21 15.3267 21 14.4982V9.5C21 8.67157 20.3284 8 19.5 8V15.9982Z" fill="#364141"/>
<path d="M3 9.50002C3 8.70519 3.6182 8.05475 4.4 8.0033V15.9949C3.61809 15.9435 3 15.2929 3 14.4982V9.50002Z" fill="#364141"/>
</svg>
