<svg width="24" height="24" viewBox="0 0 24 24" fill="none" xmlns="http://www.w3.org/2000/svg">
<path d="M17 3V5.5H14.5V7H17V9.5H18.5V7H21V5.5H18.5V3H17Z" fill="#364141"/>
<path fill-rule="evenodd" clip-rule="evenodd" d="M4 5.5H5.65421C6.03705 5.5 6.35845 5.78835 6.39982 6.16896L7.41471 15.5059C7.36032 15.502 7.30539 15.5 7.25 15.5C6.00736 15.5 5 16.5074 5 17.75C5 18.9926 6.00736 20 7.25 20C8.49264 20 9.5 18.9926 9.5 17.75C9.5 17.487 9.45488 17.2346 9.37197 17H14.128C14.0451 17.2346 14 17.487 14 17.75C14 18.9926 15.0074 20 16.25 20C17.4926 20 18.5 18.9926 18.5 17.75C18.5 16.5074 17.4926 15.5 16.25 15.5H8.9229L8.73268 13.75H15.9793C17.0792 13.75 18.0179 12.9548 18.1987 11.8699L18.2398 11.6233L16.7602 11.3767L16.7191 11.6233C16.6588 11.9849 16.3459 12.25 15.9793 12.25H8.56963L7.99898 7H12.5V5.5H7.7759C7.46483 4.61858 6.62543 4 5.65421 4H4V5.5ZM15.5 17.75C15.5 17.3358 15.8358 17 16.25 17C16.6642 17 17 17.3358 17 17.75C17 18.1642 16.6642 18.5 16.25 18.5C15.8358 18.5 15.5 18.1642 15.5 17.75ZM8 17.75C8 18.1642 7.66421 18.5 7.25 18.5C6.83579 18.5 6.5 18.1642 6.5 17.75C6.5 17.3358 6.83579 17 7.25 17C7.66421 17 8 17.3358 8 17.75Z" fill="#364141"/>
</svg>
