<svg width="24" height="24" viewBox="0 0 24 24" fill="none" xmlns="http://www.w3.org/2000/svg">
<path fill-rule="evenodd" clip-rule="evenodd" d="M16 6.5C16 5.67157 16.6716 5 17.5 5H19.5C20.3284 5 21 5.67157 21 6.5V17.5C21 18.3284 20.3284 19 19.5 19H17.5C16.6716 19 16 18.3284 16 17.5V6.5ZM17.5 6.5H19.5V17.5H17.5V6.5Z" fill="#364141"/>
<path fill-rule="evenodd" clip-rule="evenodd" d="M11 8C10.1716 8 9.5 8.67157 9.5 9.5V17.5C9.5 18.3284 10.1716 19 11 19H13C13.8284 19 14.5 18.3284 14.5 17.5V9.5C14.5 8.67157 13.8284 8 13 8H11ZM13 9.5H11V17.5H13V9.5Z" fill="#364141"/>
<path fill-rule="evenodd" clip-rule="evenodd" d="M4.5 11C3.67157 11 3 11.6716 3 12.5V17.5C3 18.3284 3.67157 19 4.5 19H6.5C7.32843 19 8 18.3284 8 17.5V12.5C8 11.6716 7.32843 11 6.5 11H4.5ZM6.5 12.5H4.5V17.5H6.5V12.5Z" fill="#364141"/>
</svg>
