<svg width="24" height="24" viewBox="0 0 24 24" fill="none" xmlns="http://www.w3.org/2000/svg">
<path fill-rule="evenodd" clip-rule="evenodd" d="M6.99987 4.51677C8.06011 3.80834 9.25379 3.33653 10.5 3.12587C10.9934 3.04247 11.4951 3 12 3V8.985H11.9988C11.4029 8.98524 10.8204 9.16205 10.325 9.49312C9.82915 9.82441 9.44271 10.2953 9.21451 10.8462C8.98631 11.3971 8.9266 12.0033 9.04294 12.5882C9.15927 13.173 9.44642 13.7103 9.86808 14.1319C10.2897 14.5536 10.827 14.8407 11.4118 14.9571C11.9967 15.0734 12.6029 15.0137 13.1538 14.7855C13.7047 14.5573 14.1756 14.1709 14.5069 13.675C14.8382 13.1792 15.015 12.5963 15.015 12H21C21 12.5049 20.9575 13.0066 20.8741 13.5C20.6635 14.7462 20.1917 15.9399 19.4832 17.0001C18.4943 18.4802 17.0887 19.6337 15.4442 20.3149C13.7996 20.9961 11.99 21.1743 10.2442 20.8271C8.49836 20.4798 6.89472 19.6226 5.63604 18.364C4.37737 17.1053 3.5202 15.5016 3.17294 13.7558C2.82567 12.01 3.0039 10.2004 3.68509 8.55585C4.36628 6.91131 5.51983 5.50571 6.99987 4.51677ZM19.3485 13.5C19.155 14.448 18.7788 15.3544 18.236 16.1668C17.4119 17.4001 16.2406 18.3614 14.8701 18.9291C13.4997 19.4968 11.9917 19.6453 10.5368 19.3559C9.08197 19.0665 7.7456 18.3522 6.6967 17.3033C5.64781 16.2544 4.9335 14.918 4.64411 13.4632C4.35473 12.0083 4.50325 10.5003 5.07091 9.12987C5.63856 7.75943 6.59986 6.58809 7.83323 5.76398C8.64561 5.22116 9.55201 4.84504 10.5 4.65153V7.74145C10.146 7.86615 9.80702 8.03516 9.4916 8.24591C8.74912 8.74203 8.17042 9.44718 7.82869 10.2722C7.48696 11.0972 7.39755 12.005 7.57176 12.8808C7.74597 13.7567 8.17598 14.5612 8.80742 15.1926C9.43885 15.824 10.2433 16.254 11.1192 16.4282C11.995 16.6025 12.9028 16.513 13.7278 16.1713C14.5528 15.8296 15.258 15.2509 15.7541 14.5084C15.9648 14.193 16.1339 13.854 16.2586 13.5H19.3485Z" fill="#364141"/>
<path fill-rule="evenodd" clip-rule="evenodd" d="M15.3678 3.65389L13.1282 9.20405L13.1292 9.20444C13.8698 9.50358 14.4614 10.0843 14.7742 10.8192L14.7748 10.8207L20.283 8.47983C20.0851 8.01415 19.8497 7.56917 19.5805 7.14855C18.849 6.00555 17.868 5.04234 16.7118 4.33189C16.2863 4.07045 15.8371 3.84323 15.3678 3.65389ZM14.9846 8.61216C15.1067 8.7197 15.2228 8.83377 15.3326 8.95385L18.1764 7.74528C17.6321 6.95512 16.9409 6.27648 16.1409 5.74671L14.9846 8.61216Z" fill="#364141"/>
</svg>
