<svg width="24" height="24" viewBox="0 0 24 24" fill="none" xmlns="http://www.w3.org/2000/svg">
<path fill-rule="evenodd" clip-rule="evenodd" d="M12 12H21C21 12.5049 20.9575 13.0066 20.8741 13.5C20.6635 14.7462 20.1917 15.9399 19.4832 17.0001C18.4943 18.4802 17.0887 19.6337 15.4442 20.3149C13.7996 20.9961 11.99 21.1743 10.2442 20.8271C8.49836 20.4798 6.89472 19.6226 5.63604 18.364C4.37737 17.1053 3.5202 15.5016 3.17294 13.7558C2.82567 12.01 3.0039 10.2004 3.68509 8.55585C4.36628 6.91131 5.51983 5.50571 6.99987 4.51677C8.06011 3.80834 9.25379 3.33653 10.5 3.12587C10.9934 3.04247 11.4951 3 12 3V12ZM19.3485 13.5C19.155 14.448 18.7788 15.3544 18.236 16.1668C17.4119 17.4001 16.2406 18.3614 14.8701 18.9291C13.4997 19.4968 11.9917 19.6453 10.5368 19.3559C9.08197 19.0665 7.7456 18.3522 6.6967 17.3033C5.64781 16.2544 4.9335 14.918 4.64411 13.4632C4.35473 12.0083 4.50325 10.5003 5.07091 9.12987C5.63856 7.75943 6.59986 6.58809 7.83323 5.76398C8.64561 5.22116 9.55201 4.84504 10.5 4.65153V13.5H19.3485Z" fill="#364141"/>
<path fill-rule="evenodd" clip-rule="evenodd" d="M20.4879 9.00007C20.6584 9.48252 20.789 9.98385 20.8756 10.5001H13.5V3.12451C14.0162 3.21112 14.5176 3.34167 15 3.51219C17.5572 4.41605 19.584 6.44283 20.4879 9.00007ZM15 5.12383C16.7298 5.87982 18.1203 7.27028 18.8762 9.00007H15V5.12383Z" fill="#364141"/>
</svg>
