<svg width="24" height="24" viewBox="0 0 24 24" fill="none" xmlns="http://www.w3.org/2000/svg">
<path fill-rule="evenodd" clip-rule="evenodd" d="M17 5C16.1716 5 15.5 5.67157 15.5 6.5V16H20V6.5C20 5.67157 19.3284 5 18.5 5H17ZM18.5 6.5H17V14.5H18.5V6.5Z" fill="#364141"/>
<path fill-rule="evenodd" clip-rule="evenodd" d="M4 11.5C4 10.6716 4.67157 10 5.5 10H7C7.82843 10 8.5 10.6716 8.5 11.5V16H4V11.5ZM5.5 11.5H7V14.5H5.5V11.5Z" fill="#364141"/>
<path d="M3 19H21V17.5H3V19Z" fill="#364141"/>
<path fill-rule="evenodd" clip-rule="evenodd" d="M9.75 9C9.75 8.17157 10.4216 7.5 11.25 7.5H12.75C13.5784 7.5 14.25 8.17157 14.25 9V16H9.75V9ZM11.25 9H12.75V14.5H11.25V9Z" fill="#364141"/>
</svg>
