<svg width="24" height="24" viewBox="0 0 24 24" fill="none" xmlns="http://www.w3.org/2000/svg">
<path d="M16.5303 10.0303L15.4697 8.96967L11 13.4393L9.03033 11.4697L7.96967 12.5303L11 15.5607L16.5303 10.0303Z" fill="#364141"/>
<path fill-rule="evenodd" clip-rule="evenodd" d="M21 12C21 16.9706 16.9706 21 12 21C7.02944 21 3 16.9706 3 12C3 7.02944 7.02944 3 12 3C16.9706 3 21 7.02944 21 12ZM19.5 12C19.5 16.1421 16.1421 19.5 12 19.5C7.85786 19.5 4.5 16.1421 4.5 12C4.5 7.85786 7.85786 4.5 12 4.5C16.1421 4.5 19.5 7.85786 19.5 12Z" fill="#364141"/>
</svg>
