<svg width="24" height="24" viewBox="0 0 24 24" fill="none" xmlns="http://www.w3.org/2000/svg">
<path d="M13 16C13 16.5523 12.5523 17 12 17C11.4477 17 11 16.5523 11 16C11 15.4477 11.4477 15 12 15C12.5523 15 13 15.4477 13 16Z" fill="#364141"/>
<path d="M11.5 6.75C9.98122 6.75 8.75 7.98122 8.75 9.5H10.25C10.25 8.80964 10.8096 8.25 11.5 8.25H12.5C13.1904 8.25 13.75 8.80964 13.75 9.5C13.75 10.1904 13.1904 10.75 12.5 10.75C11.8096 10.75 11.25 11.3096 11.25 12V13.5H12.75V12.2388C14.1516 12.1125 15.25 10.9345 15.25 9.5C15.25 7.98122 14.0188 6.75 12.5 6.75H11.5Z" fill="#364141"/>
<path fill-rule="evenodd" clip-rule="evenodd" d="M12 21C16.9706 21 21 16.9706 21 12C21 7.02944 16.9706 3 12 3C7.02944 3 3 7.02944 3 12C3 16.9706 7.02944 21 12 21ZM12 19.5C16.1421 19.5 19.5 16.1421 19.5 12C19.5 7.85786 16.1421 4.5 12 4.5C7.85786 4.5 4.5 7.85786 4.5 12C4.5 16.1421 7.85786 19.5 12 19.5Z" fill="#364141"/>
</svg>
