<svg width="24" height="24" viewBox="0 0 24 24" fill="none" xmlns="http://www.w3.org/2000/svg">
<path d="M18 11.0001V6.81077L16.2803 8.53044L15.2197 7.46978L18.75 3.93945L22.2803 7.46978L21.2197 8.53044L19.5 6.81077V11.0001H18Z" fill="#364141"/>
<path d="M18.4291 13.5001C17.9439 16.8924 15.0265 19.5001 11.5 19.5001C7.63401 19.5001 4.5 16.3661 4.5 12.5001C4.5 8.63412 7.63401 5.50011 11.5 5.50011C12.2539 5.50011 12.9799 5.61928 13.6603 5.83982L14.825 4.67507C13.8037 4.24054 12.6799 4.00011 11.5 4.00011C6.80558 4.00011 3 7.80569 3 12.5001C3 17.1945 6.80558 21.0001 11.5 21.0001C15.8561 21.0001 19.4469 17.7233 19.9418 13.5001H18.4291Z" fill="#364141"/>
<path d="M10.75 8.56824V7.00011H12.25V8.60791C13.3958 8.87237 14.25 9.89898 14.25 11.1251H12.75C12.75 10.5268 12.265 10.0418 11.6667 10.0418H11.1042C10.6324 10.0418 10.25 10.4242 10.25 10.8959C10.25 11.3677 10.6324 11.7501 11.1042 11.7501H11.8958C13.196 11.7501 14.25 12.8041 14.25 14.1043C14.25 15.2841 13.3821 16.2612 12.25 16.432V18.0001H10.75V16.4548C9.63458 16.3901 8.75 15.4651 8.75 14.3334H10.25C10.25 14.6786 10.5298 14.9584 10.875 14.9584H11.8958C12.3676 14.9584 12.75 14.576 12.75 14.1043C12.75 13.6325 12.3676 13.2501 11.8958 13.2501H11.1042C9.804 13.2501 8.75 12.1961 8.75 10.8959C8.75 9.71616 9.61786 8.73906 10.75 8.56824Z" fill="#364141"/>
</svg>
