<svg width="24" height="24" viewBox="0 0 24 24" fill="none" xmlns="http://www.w3.org/2000/svg">
<path fill-rule="evenodd" clip-rule="evenodd" d="M12 13.5C13.7949 13.5 15.25 12.0449 15.25 10.25C15.25 8.45507 13.7949 7 12 7C10.2051 7 8.75 8.45507 8.75 10.25C8.75 12.0449 10.2051 13.5 12 13.5ZM12 12C12.9665 12 13.75 11.2165 13.75 10.25C13.75 9.2835 12.9665 8.5 12 8.5C11.0335 8.5 10.25 9.2835 10.25 10.25C10.25 11.2165 11.0335 12 12 12Z" fill="#364141"/>
<path fill-rule="evenodd" clip-rule="evenodd" d="M3.91473 15.9579C3.32892 14.7634 3 13.4201 3 12C3 7.02944 7.02944 3 12 3C16.9706 3 21 7.02944 21 12C21 13.4201 20.6711 14.7634 20.0853 15.9579C19.8701 16.3965 19.6204 16.8151 19.3395 17.21C19.3312 17.2217 19.3228 17.2334 19.3144 17.2451C17.681 19.519 15.0134 21 12 21C8.98656 21 6.31904 19.519 4.68558 17.2451C4.40353 16.8525 4.15232 16.4363 3.93547 15.9999C3.92852 15.9859 3.92161 15.9719 3.91473 15.9579ZM18.7399 15.2938C19.2267 14.2996 19.5 13.1817 19.5 12C19.5 7.85786 16.1421 4.5 12 4.5C7.85786 4.5 4.5 7.85786 4.5 12C4.5 13.1817 4.77329 14.2996 5.26012 15.2938C7.18131 14.4772 9.50148 14 12 14C14.4985 14 16.8187 14.4772 18.7399 15.2938ZM17.9361 16.5845C16.2617 15.9093 14.2256 15.5 12 15.5C9.77435 15.5 7.73831 15.9093 6.06388 16.5845C7.43559 18.358 9.58444 19.5 12 19.5C14.4156 19.5 16.5644 18.358 17.9361 16.5845Z" fill="#364141"/>
</svg>
