<svg width="24" height="24" viewBox="0 0 24 24" fill="none" xmlns="http://www.w3.org/2000/svg">
<path d="M14.0303 10.0303L12.9697 8.96967L8.5 13.4393L6.53033 11.4697L5.46967 12.5303L8.5 15.5607L14.0303 10.0303Z" fill="#364141"/>
<path fill-rule="evenodd" clip-rule="evenodd" d="M10 20.5C11.12 20.5 12.1895 20.2834 13.1687 19.8897C13.6017 19.9622 14.0464 20 14.5 20C18.9183 20 22.5 16.4183 22.5 12C22.5 7.58172 18.9183 4 14.5 4C14.0464 4 13.6017 4.03775 13.1687 4.11027C12.1895 3.71663 11.12 3.5 10 3.5C5.30558 3.5 1.5 7.30558 1.5 12C1.5 16.6944 5.30558 20.5 10 20.5ZM10 19C13.866 19 17 15.866 17 12C17 8.13401 13.866 5 10 5C6.13401 5 3 8.13401 3 12C3 15.866 6.13401 19 10 19ZM21 12C21 15.2212 18.6569 17.8951 15.5821 18.4103C17.3701 16.8521 18.5 14.558 18.5 12C18.5 9.44201 17.3701 7.14793 15.5821 5.58966C18.6569 6.10489 21 8.77881 21 12Z" fill="#364141"/>
</svg>
