<svg width="24" height="24" viewBox="0 0 24 24" fill="none" xmlns="http://www.w3.org/2000/svg">
<path d="M12 4.5C9.22486 4.5 6.8004 6.00747 5.50316 8.25H8.45001V9.75H3V4H4.5V7.02362C6.11192 4.59903 8.8686 3 12 3C16.9706 3 21 7.02944 21 12C21 16.9706 16.9706 21 12 21C7.02944 21 3 16.9706 3 12H4.5C4.5 16.1421 7.85786 19.5 12 19.5C16.1421 19.5 19.5 16.1421 19.5 12C19.5 7.85786 16.1421 4.5 12 4.5Z" fill="#364141"/>
<path d="M11.25 7V12.3107L14.4697 15.5303L15.5303 14.4697L12.75 11.6893V7H11.25Z" fill="#364141"/>
</svg>
