<svg width="24" height="24" viewBox="0 0 24 24" fill="none" xmlns="http://www.w3.org/2000/svg">
<path d="M11.6579 12.7111C11.5984 14.0506 10.6129 15 9.16633 15C7.51149 15 6.5 13.8615 6.5 12.002V11.9941C6.5 10.1346 7.50778 9 9.16633 9C10.5832 9 11.6021 9.9652 11.6542 11.2731L11.6579 11.3638H10.1481L10.1444 11.3204C10.096 10.7689 9.70926 10.3631 9.16633 10.3631C8.50811 10.3631 8.10649 10.9737 8.10649 11.9902V11.998C8.10649 13.0184 8.50811 13.6369 9.17005 13.6369C9.70926 13.6369 10.0737 13.2508 10.1444 12.6875L10.1518 12.6284H11.6616L11.6579 12.7111Z" fill="#364141"/>
<path d="M17.4963 12.7111C17.4368 14.0506 16.4513 15 15.0047 15C13.3499 15 12.3384 13.8615 12.3384 12.002V11.9941C12.3384 10.1346 13.3462 9 15.0047 9C16.4216 9 17.4405 9.9652 17.4926 11.2731L17.4963 11.3638H15.9865L15.9828 11.3204C15.9344 10.7689 15.5477 10.3631 15.0047 10.3631C14.3465 10.3631 13.9449 10.9737 13.9449 11.9902V11.998C13.9449 13.0184 14.3465 13.6369 15.0085 13.6369C15.5477 13.6369 15.9121 13.2508 15.9828 12.6875L15.9902 12.6284H17.5L17.4963 12.7111Z" fill="#364141"/>
<path fill-rule="evenodd" clip-rule="evenodd" d="M3 6.5C3 5.67157 3.67157 5 4.5 5H19.5C20.3284 5 21 5.67157 21 6.5V17.5C21 18.3284 20.3284 19 19.5 19H4.5C3.67157 19 3 18.3284 3 17.5V6.5ZM4.5 6.5H19.5V17.5H4.5L4.5 6.5Z" fill="#364141"/>
</svg>
