<svg width="24" height="24" viewBox="0 0 24 24" fill="none" xmlns="http://www.w3.org/2000/svg">
<path fill-rule="evenodd" clip-rule="evenodd" d="M11 5.75C8.65279 5.75 6.75 7.65279 6.75 10V10.8709L6.32855 11.0763C5.24441 11.6046 4.5 12.7161 4.5 14C4.5 15.7949 5.95507 17.25 7.75 17.25H16.75C18.2688 17.25 19.5 16.0188 19.5 14.5C19.5 12.9812 18.2688 11.75 16.75 11.75H15.25V10C15.25 7.65279 13.3472 5.75 11 5.75ZM5.25013 9.96044C5.27141 6.80301 7.83756 4.25 11 4.25C14.1756 4.25 16.75 6.82436 16.75 10V10.25C19.0972 10.25 21 12.1528 21 14.5C21 16.8472 19.0972 18.75 16.75 18.75H7.75C5.12665 18.75 3 16.6234 3 14C3 12.2929 3.90063 10.7973 5.25013 9.96044Z" fill="#364141"/>
</svg>
