<svg width="24" height="24" viewBox="0 0 24 24" fill="none" xmlns="http://www.w3.org/2000/svg">
<path d="M11.25 7.75V10.25H8.75V11.75H11.25V14.25H12.75V11.75H15.25V10.25H12.75V7.75H11.25Z" fill="#364141"/>
<path fill-rule="evenodd" clip-rule="evenodd" d="M4 5.5C4 4.67157 4.67157 4 5.5 4H18.5C19.3284 4 20 4.67157 20 5.5V16.5C20 17.3284 19.3284 18 18.5 18H15.2361C15.0808 18 14.9277 18.0361 14.7889 18.1056L9.72361 20.6382C9.39116 20.8044 9 20.5627 9 20.191V18.15C9 18.0672 8.93284 18 8.85 18H5.5C4.67157 18 4 17.3284 4 16.5V5.5ZM5.5 5.5H18.5V16.5H15.2361C14.848 16.5 14.4652 16.5904 14.118 16.7639L10.5 18.5729V18.15C10.5 17.2387 9.76127 16.5 8.85 16.5H5.5V5.5Z" fill="#364141"/>
</svg>
