<svg width="24" height="24" viewBox="0 0 24 24" fill="none" xmlns="http://www.w3.org/2000/svg">
<path d="M12.2308 7.55498C12.1454 7.34966 11.8546 7.34966 11.7692 7.55498L10.9345 9.56176C10.8985 9.64832 10.8171 9.70747 10.7236 9.71496L8.55716 9.88864C8.3355 9.90641 8.24561 10.183 8.4145 10.3277L10.0651 11.7417C10.1363 11.8026 10.1674 11.8983 10.1457 11.9895L9.64138 14.1037C9.58978 14.32 9.82509 14.4909 10.0149 14.375L11.8697 13.2421C11.9497 13.1932 12.0503 13.1932 12.1303 13.2421L13.9851 14.375C14.1749 14.4909 14.4102 14.32 14.3586 14.1037L13.8543 11.9895C13.8326 11.8983 13.8637 11.8026 13.9349 11.7417L15.5855 10.3277C15.7544 10.183 15.6645 9.90641 15.4428 9.88864L13.2764 9.71496C13.1829 9.70747 13.1015 9.64832 13.0655 9.56177L12.2308 7.55498Z" fill="#364141"/>
<path fill-rule="evenodd" clip-rule="evenodd" d="M4 5.5C4 4.67157 4.67157 4 5.5 4H18.5C19.3284 4 20 4.67157 20 5.5V16.5C20 17.3284 19.3284 18 18.5 18H15.2361C15.0808 18 14.9277 18.0361 14.7889 18.1056L9.72361 20.6382C9.39116 20.8044 9 20.5627 9 20.191V18.15C9 18.0672 8.93284 18 8.85 18H5.5C4.67157 18 4 17.3284 4 16.5V5.5ZM5.5 5.5H18.5V16.5H15.2361C14.848 16.5 14.4652 16.5904 14.118 16.7639L10.5 18.5729V18.15C10.5 17.2387 9.76127 16.5 8.85 16.5H5.5V5.5Z" fill="#364141"/>
</svg>
