<svg width="24" height="24" viewBox="0 0 24 24" fill="none" xmlns="http://www.w3.org/2000/svg">
<path fill-rule="evenodd" clip-rule="evenodd" d="M3.46973 4.03039L19.4697 20.0304L20.5304 18.9697L19.4212 17.8605C19.7735 17.586 20.0001 17.1578 20.0001 16.6766V6.50011C20.0001 5.67169 19.3285 5.00011 18.5001 5.00011H6.56077L4.53039 2.96973L3.46973 4.03039ZM8.06077 6.50011L11.1366 9.57599L11.7692 8.05509C11.8546 7.84977 12.1455 7.84977 12.2309 8.0551L13.0656 10.0619C13.1016 10.1484 13.183 10.2076 13.2764 10.2151L15.4429 10.3888C15.6646 10.4065 15.7544 10.6832 15.5856 10.8278L13.9349 12.2418C13.9104 12.2628 13.8906 12.2879 13.8762 12.3155L18.2372 16.6766H18.5001V6.50011L8.06077 6.50011Z" fill="#364141"/>
<path d="M5.50005 16.6766V7.91433L4.00234 6.41661C4.00082 6.44425 4.00005 6.47209 4.00005 6.50011V16.6766C4.00005 17.505 4.67163 18.1766 5.50005 18.1766H8.85005C8.93289 18.1766 9.00005 18.2437 9.00005 18.3266V20.2122C9.00005 20.5787 9.38133 20.8207 9.71295 20.6646L14.7978 18.2718C14.931 18.2091 15.0764 18.1766 15.2236 18.1766H15.7623L14.4014 16.8157C14.3191 16.8443 14.2382 16.8773 14.1591 16.9145L10.5001 18.6364V18.3266C10.5001 17.4153 9.76132 16.6766 8.85005 16.6766H5.50005Z" fill="#364141"/>
<path d="M8.40423 10.8185L8.39449 10.8088C8.39762 10.8121 8.40087 10.8153 8.40423 10.8185Z" fill="#364141"/>
<path d="M11.5334 13.9477L10.1322 12.5465L9.64143 14.6038C9.58983 14.8201 9.82514 14.991 10.0149 14.8751L11.5334 13.9477Z" fill="#364141"/>
</svg>
