<svg width="24" height="24" viewBox="0 0 24 24" fill="none" xmlns="http://www.w3.org/2000/svg">
<path fill-rule="evenodd" clip-rule="evenodd" d="M10.4135 9.28919L16 8L14.7108 13.5865C14.5818 14.1454 14.1454 14.5818 13.5865 14.7108L8 16L9.28919 10.4135C9.41817 9.85459 9.85459 9.41817 10.4135 9.28919ZM10.7508 10.7508L13.9988 10.0012L13.2492 13.2492L10.0012 13.9988L10.7508 10.7508Z" fill="#364141"/>
<path fill-rule="evenodd" clip-rule="evenodd" d="M21 12C21 16.9706 16.9706 21 12 21C7.02944 21 3 16.9706 3 12C3 7.02944 7.02944 3 12 3C16.9706 3 21 7.02944 21 12ZM19.5 12C19.5 16.1421 16.1421 19.5 12 19.5C7.85786 19.5 4.5 16.1421 4.5 12C4.5 7.85786 7.85786 4.5 12 4.5C16.1421 4.5 19.5 7.85786 19.5 12Z" fill="#364141"/>
</svg>
