<svg width="24" height="24" viewBox="0 0 24 24" fill="none" xmlns="http://www.w3.org/2000/svg">
<path d="M13 4C13 4.55228 12.5523 5 12 5C11.4477 5 11 4.55228 11 4C11 3.44772 11.4477 3 12 3C12.5523 3 13 3.44772 13 4Z" fill="#364141"/>
<path fill-rule="evenodd" clip-rule="evenodd" d="M3 7.4265C3.36608 7.25792 3.98493 7.01072 4.55256 6.80672C5.07092 6.62042 5.61436 6.9305 5.75578 7.46286L5.76098 7.48246C5.89566 7.98946 6.39922 8.30621 6.91455 8.20807L6.93708 8.20377C7.40875 8.11395 7.75 7.70157 7.75 7.22143V7.14096C7.75 6.64617 8.11194 6.22572 8.60414 6.17523C9.10221 6.12414 9.64368 6.0821 10.1465 6.04933C10.6106 6.01908 11 6.38994 11 6.85504C11 7.30406 11.364 7.66807 11.813 7.66807H12.191C12.6378 7.66807 13 7.30585 13 6.85903C13 6.3951 13.3893 6.02561 13.8522 6.05556C14.3525 6.08792 14.8993 6.1287 15.3955 6.17772C15.8879 6.22635 16.25 6.64617 16.25 7.14096V7.22143C16.25 7.70157 16.5913 8.11395 17.0629 8.20377L17.0855 8.20807C17.6008 8.30621 18.1043 7.98946 18.239 7.48246L18.2442 7.46286C18.3856 6.9305 18.9291 6.62042 19.4474 6.80672C20.0151 7.01072 20.6339 7.25792 21 7.4265V7.43001L18 16H6L3 7.43001V7.4265ZM5.21443 9.21594L7.06416 14.5H16.9358L18.7856 9.21594C18.2392 9.63091 17.5266 9.81905 16.8048 9.68158L16.7823 9.67729C15.7388 9.47856 14.9506 8.64836 14.7831 7.62809C14.65 7.61686 14.515 7.60615 14.3799 7.59598C14.0723 8.50986 13.2085 9.16807 12.191 9.16807H11.813C10.7927 9.16807 9.92674 8.50746 9.61943 7.59064C9.48483 7.6011 9.35039 7.61215 9.21762 7.62379C9.05156 8.64603 8.26266 9.47829 7.2177 9.67729L7.19517 9.68158C6.47335 9.81905 5.76076 9.63091 5.21443 9.21594Z" fill="#364141"/>
<path d="M5.5 17.5V19H18.5V17.5H5.5Z" fill="#364141"/>
</svg>
