<svg width="24" height="24" viewBox="0 0 24 24" fill="none" xmlns="http://www.w3.org/2000/svg">
<path d="M4.24999 7.75C4.24999 6.23122 5.4812 5 6.99999 5H7.49999V6.5H6.99999C6.30963 6.5 5.74999 7.05964 5.74999 7.75V9.9914C5.74999 10.7718 5.42119 11.4921 4.87843 12C5.42119 12.5079 5.74999 13.2282 5.74999 14.0086V16.25C5.74999 16.9404 6.30963 17.5 6.99999 17.5H7.49999V19H6.99999C5.4812 19 4.24999 17.7688 4.24999 16.25V14.0086C4.24999 13.4505 3.88001 12.96 3.34339 12.8067L3.04395 12.7211V11.2789L3.34339 11.1933C3.88001 11.04 4.24999 10.5495 4.24999 9.9914V7.75Z" fill="#364141"/>
<path d="M11.25 11.25V8.75H12.75V11.25H15.25V12.75H12.75V15.25H11.25V12.75H8.74999V11.25H11.25Z" fill="#364141"/>
<path d="M17 5C18.5188 5 19.75 6.23122 19.75 7.75V9.9914C19.75 10.5495 20.12 11.04 20.6566 11.1933L20.956 11.2789V12.7211L20.6566 12.8067C20.12 12.96 19.75 13.4505 19.75 14.0086V16.25C19.75 17.7688 18.5188 19 17 19H16.5V17.5H17C17.6903 17.5 18.25 16.9404 18.25 16.25V14.0086C18.25 13.2282 18.5788 12.5079 19.1215 12C18.5788 11.4921 18.25 10.7718 18.25 9.9914V7.75C18.25 7.05964 17.6903 6.5 17 6.5H16.5V5H17Z" fill="#364141"/>
</svg>
