<svg width="24" height="24" viewBox="0 0 24 24" fill="none" xmlns="http://www.w3.org/2000/svg">
<path d="M15.2981 8.64136L13 10.9395L10.7019 8.64136L9.64124 9.70202L11.9393 12.0001L9.64124 14.2982L10.7019 15.3589L13 13.0608L15.2981 15.3589L16.3588 14.2982L14.0607 12.0001L16.3588 9.70202L15.2981 8.64136Z" fill="#364141"/>
<path fill-rule="evenodd" clip-rule="evenodd" d="M6.56812 5.75579L3 12L6.56812 18.2442C6.83518 18.7116 7.3322 19 7.87048 19H19.5C20.3284 19 21 18.3284 21 17.5V6.5C21 5.67157 20.3284 5 19.5 5H7.87048C7.3322 5 6.83518 5.28843 6.56812 5.75579ZM19.5 17.5H7.87048L4.72763 12L7.87048 6.5L19.5 6.5V17.5Z" fill="#364141"/>
</svg>
