<svg width="24" height="24" viewBox="0 0 24 24" fill="none" xmlns="http://www.w3.org/2000/svg">
<path d="M13.4801 12.5063C12.7453 12.3525 12.3659 11.9662 12.3659 11.3544C12.3659 10.5717 12.9879 10.0932 14.0065 10.0932C15.0285 10.0932 15.6095 10.517 15.6334 11.2792H14.5055C14.4816 11.0741 14.2868 10.9477 14.0031 10.9477C13.7365 10.9477 13.5519 11.0741 13.5519 11.2519C13.5519 11.4125 13.6818 11.5116 13.9723 11.5697L14.6046 11.6928C15.401 11.8466 15.7462 12.1747 15.7462 12.7694C15.7462 13.5795 15.0866 14.0854 14.0236 14.0854C12.9674 14.0854 12.3419 13.6581 12.3009 12.9096H13.4801C13.5177 13.1181 13.7125 13.2309 14.0338 13.2309C14.3244 13.2309 14.5089 13.1112 14.5089 12.9301C14.5089 12.7694 14.3961 12.6942 14.0578 12.6259L13.4801 12.5063Z" fill="#364141"/>
<path d="M9.286 13.9999L8.00426 10.1957H9.30651L9.96617 12.9164H10.0311L10.6771 10.1957H11.9486L10.6805 13.9999H9.286Z" fill="#364141"/>
<path fill-rule="evenodd" clip-rule="evenodd" d="M20.3506 10.911L13.0316 3.97723C12.4531 3.42914 11.5469 3.42914 10.9684 3.97723L3.64941 10.911C3.0249 11.5026 3.0249 12.4972 3.64941 13.0888L10.9684 20.0226C11.5469 20.5707 12.4531 20.5707 13.0316 20.0226L20.3506 13.0888C20.9751 12.4972 20.9751 11.5026 20.3506 10.911ZM4.68103 11.9999L12 5.06616L19.3189 11.9999L12 18.9337L4.68103 11.9999Z" fill="#364141"/>
</svg>
