<svg width="24" height="24" viewBox="0 0 24 24" fill="none" xmlns="http://www.w3.org/2000/svg">
<path fill-rule="evenodd" clip-rule="evenodd" d="M11.25 5V3H12.75V5H13C15.0711 5 16.75 6.67893 16.75 8.75V9H15.25V8.75C15.25 7.50736 14.2426 6.5 13 6.5H11C9.75736 6.5 8.75 7.50736 8.75 8.75V9C8.75 10.2426 9.75736 11.25 11 11.25H13C15.0711 11.25 16.75 12.9289 16.75 15V15.25C16.75 17.3211 15.0711 19 13 19H12.75V21H11.25V19H11C8.92893 19 7.25 17.3211 7.25 15.25V15H8.75V15.25C8.75 16.4926 9.75736 17.5 11 17.5H13C14.2426 17.5 15.25 16.4926 15.25 15.25V15C15.25 13.7574 14.2426 12.75 13 12.75H11C8.92893 12.75 7.25 11.0711 7.25 9V8.75C7.25 6.67893 8.92893 5 11 5H11.25Z" fill="#364141"/>
</svg>
