<svg width="24" height="24" viewBox="0 0 24 24" fill="none" xmlns="http://www.w3.org/2000/svg">
<path fill-rule="evenodd" clip-rule="evenodd" d="M3 6.5C3 5.67157 3.67157 5 4.5 5H19.5C20.3284 5 21 5.67157 21 6.5V17.5C21 18.3284 20.3284 19 19.5 19H4.5C3.67157 19 3 18.3284 3 17.5V6.5ZM4.5 6.5H19.5V7.9336L13.2747 12.2135C12.5069 12.7414 11.4931 12.7414 10.7253 12.2135L4.5 7.9336V6.5ZM4.5 9.7539L4.5 17.5H19.5V9.7539L14.1245 13.4496C12.8448 14.3294 11.1552 14.3294 9.87552 13.4496L4.5 9.7539Z" fill="#364141"/>
</svg>
