<svg width="24" height="24" viewBox="0 0 24 24" fill="none" xmlns="http://www.w3.org/2000/svg">
<path d="M8 6.75C7.30964 6.75 6.75 7.30964 6.75 8V8.5H5.25V8C5.25 6.48122 6.48122 5.25 8 5.25C9.51878 5.25 10.75 6.48122 10.75 8V8.5H9.25V8C9.25 7.30964 8.69036 6.75 8 6.75Z" fill="#364141"/>
<path d="M16 6.75C15.3096 6.75 14.75 7.30964 14.75 8V8.5H13.25V8C13.25 6.48122 14.4812 5.25 16 5.25C17.5188 5.25 18.75 6.48122 18.75 8V8.5H17.25V8C17.25 7.30964 16.6904 6.75 16 6.75Z" fill="#364141"/>
<path fill-rule="evenodd" clip-rule="evenodd" d="M5 12C5 12.4962 5.05886 13.0007 5.17363 13.5C5.82536 16.335 8.2801 19 12 19C15.7199 19 18.1746 16.335 18.8264 13.5C18.9411 13.0007 19 12.4962 19 12H5ZM17.2801 13.5C16.6597 15.6177 14.759 17.5 12 17.5C9.24098 17.5 7.3403 15.6177 6.71985 13.5H17.2801Z" fill="#364141"/>
</svg>
