<svg width="24" height="24" viewBox="0 0 24 24" fill="none" xmlns="http://www.w3.org/2000/svg">
<path fill-rule="evenodd" clip-rule="evenodd" d="M11.7803 7.71969L10.0303 5.96969L8.96967 7.03035L10.7197 8.78035L4.43934 15.0607C4.15804 15.342 4 15.7235 4 16.1213V20H7.87868C8.2765 20 8.65803 19.842 8.93934 19.5607L15.2197 13.2803L16.9697 15.0303L18.0303 13.9697L16.2803 12.2197L19.4393 9.06068C20.0251 8.47489 20.0251 7.52514 19.4393 6.93936L17.0607 4.56068C16.4749 3.97489 15.5251 3.97489 14.9393 4.56068L11.7803 7.71969ZM16 5.62134L18.3787 8.00002L15.2197 11.159L12.841 8.78035L16 5.62134ZM14.159 12.2197L7.87868 18.5L5.5 18.5L5.5 16.1213L11.7803 9.84101L14.159 12.2197Z" fill="#364141"/>
</svg>
