<svg width="24" height="24" viewBox="0 0 24 24" fill="none" xmlns="http://www.w3.org/2000/svg">
<path fill-rule="evenodd" clip-rule="evenodd" d="M17.5705 17.51C17.8742 17.232 18.1541 16.9417 18.4108 16.6476C19.8084 15.0463 20.5698 13.2796 20.8413 12.5703C20.9821 12.2025 20.9821 11.7975 20.8413 11.4297C20.5698 10.7204 19.8084 8.9537 18.4108 7.3524C17.0064 5.74329 14.9099 4.25 11.9998 4.25C9.65869 4.25 7.84409 5.21651 6.4928 6.43228L4.53019 4.46967L3.46953 5.53033L18.4695 20.5303L19.5302 19.4697L17.5705 17.51ZM16.509 16.4484C16.7854 16.1991 17.0423 15.9343 17.2807 15.6613C18.5131 14.2492 19.1982 12.667 19.4405 12.0341C19.4491 12.0115 19.4491 11.9885 19.4405 11.9659C19.1982 11.333 18.5131 9.75078 17.2807 8.33874C16.0551 6.93451 14.338 5.75 11.9998 5.75C10.1514 5.75 8.69102 6.49035 7.55483 7.49431L9.90909 9.84857C10.4494 9.3234 11.1869 9 11.9999 9C13.6567 9 14.9999 10.3431 14.9999 12C14.9999 12.813 14.6765 13.5505 14.1513 14.0908L16.509 16.4484ZM13.0904 13.0299L10.97 10.9094C11.2386 10.6556 11.6011 10.5 11.9999 10.5C12.8283 10.5 13.4999 11.1716 13.4999 12C13.4999 12.3988 13.3442 12.7612 13.0904 13.0299Z" fill="#364141"/>
<path d="M4.55921 11.9659C4.70947 11.5734 5.03001 10.8158 5.54578 9.96015L4.45659 8.87095C3.76166 9.95835 3.34468 10.9429 3.15835 11.4297C3.01753 11.7975 3.01753 12.2025 3.15835 12.5703C3.42989 13.2796 4.19128 15.0463 5.58889 16.6476C6.99332 18.2567 9.08981 19.75 11.9998 19.75C13.0436 19.75 13.9828 19.5579 14.8228 19.2372L13.6308 18.0451C13.1242 18.1768 12.5812 18.25 11.9998 18.25C9.66172 18.25 7.9446 17.0655 6.71899 15.6613C5.48657 14.2492 4.80151 12.667 4.55921 12.0341C4.55058 12.0115 4.55058 11.9885 4.55921 11.9659Z" fill="#364141"/>
</svg>
