<svg width="24" height="24" viewBox="0 0 24 24" fill="none" xmlns="http://www.w3.org/2000/svg">
<path fill-rule="evenodd" clip-rule="evenodd" d="M15.0001 12C15.0001 13.6569 13.6569 15 12.0001 15C10.3432 15 9.00008 13.6569 9.00008 12C9.00008 10.3431 10.3432 9 12.0001 9C13.6569 9 15.0001 10.3431 15.0001 12ZM13.5001 12C13.5001 12.8284 12.8285 13.5 12.0001 13.5C11.1717 13.5 10.5001 12.8284 10.5001 12C10.5001 11.1716 11.1717 10.5 12.0001 10.5C12.8285 10.5 13.5001 11.1716 13.5001 12Z" fill="#364141"/>
<path fill-rule="evenodd" clip-rule="evenodd" d="M12.0001 4.25C9.09006 4.25 6.99356 5.74329 5.58914 7.3524C4.19153 8.9537 3.43013 10.7204 3.1586 11.4297C3.01777 11.7975 3.01777 12.2025 3.1586 12.5703C3.43013 13.2796 4.19153 15.0463 5.58914 16.6476C6.99356 18.2567 9.09006 19.75 12.0001 19.75C14.9101 19.75 17.0066 18.2567 18.411 16.6476C19.8086 15.0463 20.57 13.2796 20.8416 12.5703C20.9824 12.2025 20.9824 11.7975 20.8416 11.4297C20.57 10.7204 19.8086 8.9537 18.411 7.3524C17.0066 5.74329 14.9101 4.25 12.0001 4.25ZM4.55945 11.9659C4.80175 11.333 5.48681 9.75078 6.71924 8.33874C7.94485 6.93451 9.66197 5.75 12.0001 5.75C14.3382 5.75 16.0553 6.93451 17.2809 8.33874C18.5134 9.75078 19.1984 11.333 19.4407 11.9659C19.4493 11.9885 19.4493 12.0115 19.4407 12.0341C19.1984 12.667 18.5134 14.2492 17.2809 15.6613C16.0553 17.0655 14.3382 18.25 12.0001 18.25C9.66196 18.25 7.94485 17.0655 6.71924 15.6613C5.48681 14.2492 4.80175 12.667 4.55945 12.0341C4.55082 12.0115 4.55082 11.9885 4.55945 11.9659Z" fill="#364141"/>
</svg>
