<svg width="24" height="24" viewBox="0 0 24 24" fill="none" xmlns="http://www.w3.org/2000/svg">
<path d="M16 16.75C16 15.0931 14.5 13.25 12 13.25C9.5 13.25 8 15.0931 8 16.75H16Z" fill="#364141"/>
<path d="M15.25 10.25C14.6977 10.25 14.25 9.80228 14.25 9.25V9H12.75V9.25C12.75 10.6307 13.8693 11.75 15.25 11.75C16.6307 11.75 17.75 10.6307 17.75 9.25V9H16.25V9.25C16.25 9.80228 15.8023 10.25 15.25 10.25Z" fill="#364141"/>
<path d="M7.75 9.25C7.75 9.80228 8.19772 10.25 8.75 10.25C9.30228 10.25 9.75 9.80228 9.75 9.25V9H11.25V9.25C11.25 10.6307 10.1307 11.75 8.75 11.75C7.36929 11.75 6.25 10.6307 6.25 9.25V9H7.75V9.25Z" fill="#364141"/>
<path fill-rule="evenodd" clip-rule="evenodd" d="M21 12C21 16.9706 16.9706 21 12 21C7.02944 21 3 16.9706 3 12C3 7.02944 7.02944 3 12 3C16.9706 3 21 7.02944 21 12ZM19.5 12C19.5 16.1421 16.1421 19.5 12 19.5C7.85786 19.5 4.5 16.1421 4.5 12C4.5 7.85786 7.85786 4.5 12 4.5C16.1421 4.5 19.5 7.85786 19.5 12Z" fill="#364141"/>
</svg>
