<svg width="24" height="24" viewBox="0 0 24 24" fill="none" xmlns="http://www.w3.org/2000/svg">
<path d="M14.25 10.75C14.25 10.1977 14.6977 9.75 15.25 9.75C15.8023 9.75 16.25 10.1977 16.25 10.75V11H17.75V10.75C17.75 9.36929 16.6307 8.25 15.25 8.25C13.8693 8.25 12.75 9.36929 12.75 10.75V11H14.25V10.75Z" fill="#364141"/>
<path d="M8.75 9.75C8.19772 9.75 7.75 10.1977 7.75 10.75V11H6.25V10.75C6.25 9.36929 7.36929 8.25 8.75 8.25C10.1307 8.25 11.25 9.36929 11.25 10.75V11H9.75V10.75C9.75 10.1977 9.30228 9.75 8.75 9.75Z" fill="#364141"/>
<path d="M16 13.25C16 14.9069 14.5 16.75 12 16.75C9.5 16.75 8 14.9069 8 13.25H16Z" fill="#364141"/>
<path fill-rule="evenodd" clip-rule="evenodd" d="M21 12C21 16.9706 16.9706 21 12 21C7.02944 21 3 16.9706 3 12C3 7.02944 7.02944 3 12 3C16.9706 3 21 7.02944 21 12ZM19.5 12C19.5 16.1421 16.1421 19.5 12 19.5C7.85786 19.5 4.5 16.1421 4.5 12C4.5 7.85786 7.85786 4.5 12 4.5C16.1421 4.5 19.5 7.85786 19.5 12Z" fill="#364141"/>
</svg>
