<svg width="24" height="24" viewBox="0 0 24 24" fill="none" xmlns="http://www.w3.org/2000/svg">
<path d="M5 7.5V5.5H19V7.5H14.2857L16 9H20.5V5.5C20.5 4.67157 19.8284 4 19 4H5C4.17157 4 3.5 4.67157 3.5 5.5V9H8L9.71429 7.5H5Z" fill="#364141"/>
<path d="M5 18.75V12H6.5V18.5H17.5V12H19V18.75C19 19.4404 18.4404 20 17.75 20H6.25C5.55964 20 5 19.4404 5 18.75Z" fill="#364141"/>
<path d="M11.25 17V10.8107L9.03033 13.0303L7.96967 11.9697L12 7.93934L16.0303 11.9697L14.9697 13.0303L12.75 10.8107V17H11.25Z" fill="#364141"/>
</svg>
