<svg width="24" height="24" viewBox="0 0 24 24" fill="none" xmlns="http://www.w3.org/2000/svg">
<path fill-rule="evenodd" clip-rule="evenodd" d="M11.988 3.18047C12.2171 3.37677 12.3063 3.69124 12.2143 3.97859C11.2554 6.97509 11.6653 8.54453 12.1414 9.33003C12.3856 9.73297 12.6732 9.97548 12.8908 10.1158C12.9676 10.1653 13.0356 10.202 13.0896 10.2282C13.142 10.218 13.2055 10.204 13.2774 10.185C13.5074 10.1243 13.8078 10.0169 14.1025 9.83276C14.6565 9.48653 15.25 8.84013 15.25 7.50001C15.25 7.21914 15.4069 6.9618 15.6566 6.83322C15.9064 6.70463 16.207 6.72635 16.4356 6.88949L16 7.50001C16.4356 6.88949 16.4359 6.88967 16.4361 6.88986L16.4367 6.89027L16.4381 6.89125L16.4416 6.89382L16.452 6.90135C16.4603 6.90743 16.4714 6.91565 16.4851 6.92598C16.5125 6.94664 16.5504 6.97578 16.5972 7.01324C16.6909 7.08811 16.8208 7.19654 16.9748 7.3373C17.282 7.61814 17.6894 8.03143 18.097 8.56753C18.9098 9.63644 19.75 11.2299 19.75 13.25C19.75 16.8244 16.9987 21 12 21C7.00326 21 4.25 16.8578 4.25 13.25C4.25 10.8509 4.91977 8.82092 6.14135 7.12428C7.35635 5.43678 9.08958 4.1167 11.1646 3.07919C11.4344 2.94426 11.7589 2.98417 11.988 3.18047ZM16.5261 9.01712C16.1992 10.0294 15.558 10.692 14.8975 11.1048C14.4422 11.3893 13.9926 11.5476 13.6601 11.6353C13.4926 11.6796 13.3509 11.7069 13.2479 11.7234C13.1963 11.7317 13.154 11.7374 13.1226 11.7411C13.1069 11.743 13.0939 11.7444 13.0838 11.7454L13.0708 11.7467L13.066 11.7471L13.064 11.7473L13.0631 11.7474C13.0627 11.7474 13.0623 11.7474 13 11C12.794 11.7212 12.7933 11.721 12.7926 11.7208L12.7913 11.7204L12.7882 11.7195L12.7811 11.7174L12.7631 11.7118C12.7494 11.7074 12.7323 11.7018 12.7122 11.6947C12.672 11.6806 12.6194 11.6606 12.5568 11.6336C12.4317 11.5798 12.2655 11.4973 12.078 11.3764C11.7018 11.1339 11.2394 10.7358 10.8586 10.1075C10.2338 9.07656 9.89174 7.53822 10.3309 5.2718C9.1069 6.05694 8.10688 6.96153 7.35865 8.00074C6.33023 9.4291 5.75 11.1491 5.75 13.25C5.75 16.2047 7.99674 19.5 12 19.5C16.0013 19.5 18.25 16.1756 18.25 13.25C18.25 11.6608 17.5902 10.3792 16.903 9.47546C16.7759 9.30832 16.6488 9.15535 16.5261 9.01712ZM13 11L12.794 11.7212L12.9257 11.7588L13.0623 11.7474L13 11Z" fill="#364141"/>
</svg>
