<svg width="24" height="24" viewBox="0 0 24 24" fill="none" xmlns="http://www.w3.org/2000/svg">
<path fill-rule="evenodd" clip-rule="evenodd" d="M4.25 20V4H5.75V5.25H11.3956C12.046 5.25 12.6427 5.61069 12.945 6.18654L13.3283 6.91667H18.5C19.1904 6.91667 19.75 7.47631 19.75 8.16667V15.5C19.75 16.1904 19.1904 16.75 18.5 16.75H12.6044C11.954 16.75 11.3573 16.3893 11.055 15.8135L10.6717 15.0833H5.75V20H4.25ZM5.75 13.5833V6.75H10.4412L12.5143 12.6237C12.6078 12.8888 13 12.8216 13 12.5405V8.41633C13.0087 8.41655 13.0174 8.41667 13.0261 8.41667H18.25V15.25H12.6044C12.5115 15.25 12.4263 15.1985 12.3831 15.1162L11.8593 14.1185C11.6865 13.7894 11.3455 13.5833 10.9739 13.5833H5.75Z" fill="#364141"/>
</svg>
