<svg width="24" height="24" viewBox="0 0 24 24" fill="none" xmlns="http://www.w3.org/2000/svg">
<path fill-rule="evenodd" clip-rule="evenodd" d="M5.25 19C4.00736 19 3 17.9926 3 16.75V5.5C3 4.67157 3.67157 4 4.5 4H8.53875C9.14632 4 9.72094 4.27618 10.1005 4.75061L11.5 6.5H17.5C18.3284 6.5 19 7.17157 19 8V9.5H19.75C20.4404 9.5 21 10.0596 21 10.75V17.75C21 18.4404 20.4404 19 19.75 19H5.25ZM10.7791 8H17.5V9.5H7.75C6.7835 9.5 6 10.2835 6 11.25V16.75C6 17.1642 5.66421 17.5 5.25 17.5C4.83579 17.5 4.5 17.1642 4.5 16.75V5.5H8.53875C8.69064 5.5 8.8343 5.56905 8.92918 5.68765L10.7791 8ZM7.37197 17.5C7.45488 17.2654 7.5 17.013 7.5 16.75V11.25C7.5 11.1119 7.61193 11 7.75 11H19.5V17.5H7.37197Z" fill="#364141"/>
</svg>
