<svg width="24" height="24" viewBox="0 0 24 24" fill="none" xmlns="http://www.w3.org/2000/svg">
<path fill-rule="evenodd" clip-rule="evenodd" d="M6.41198 5H9.56853L13.4984 19H11.9404L10.4667 13.75H5.80744L4.51797 19H2.97339L6.41198 5ZM6.17587 12.25H10.0456L8.4316 6.5H7.58815L6.17587 12.25Z" fill="#364141"/>
<path fill-rule="evenodd" clip-rule="evenodd" d="M17.5001 12C15.7051 12 14.2501 13.4551 14.2501 15.25V15.75C14.2501 17.5449 15.7051 19 17.5001 19C18.3125 19 19.0553 18.7019 19.6251 18.2091V19H20.8751V12H19.6251V12.7909C19.0553 12.2981 18.3125 12 17.5001 12ZM19.2501 15.75V15.25C19.2501 14.2835 18.4666 13.5 17.5001 13.5C16.5336 13.5 15.7501 14.2835 15.7501 15.25V15.75C15.7501 16.7165 16.5336 17.5 17.5001 17.5C18.4666 17.5 19.2501 16.7165 19.2501 15.75Z" fill="#364141"/>
</svg>
