<svg width="24" height="24" viewBox="0 0 24 24" fill="none" xmlns="http://www.w3.org/2000/svg">
<path fill-rule="evenodd" clip-rule="evenodd" d="M13.1234 10.816L14.9697 8.96967L16.0303 10.0303L14.1997 11.861C14.3912 12.2146 14.5 12.6196 14.5 13.05C14.5 14.4307 13.3807 15.55 12 15.55C10.6193 15.55 9.5 14.4307 9.5 13.05C9.5 11.6693 10.6193 10.55 12 10.55C12.404 10.55 12.7856 10.6458 13.1234 10.816ZM13 13.05C13 13.6023 12.5523 14.05 12 14.05C11.4477 14.05 11 13.6023 11 13.05C11 12.4977 11.4477 12.05 12 12.05C12.5523 12.05 13 12.4977 13 13.05Z" fill="#364141"/>
<path fill-rule="evenodd" clip-rule="evenodd" d="M17.6573 20C19.6963 18.35 21 15.8273 21 13C21 8.02944 16.9706 4 12 4C7.02944 4 3 8.02944 3 13C3 15.8273 4.30367 18.35 6.34267 20H17.6573ZM17.0991 18.5C18.5779 17.1285 19.5 15.1724 19.5 13C19.5 8.85786 16.1421 5.5 12 5.5C7.85786 5.5 4.5 8.85786 4.5 13C4.5 15.1724 5.42215 17.1285 6.90088 18.5H17.0991Z" fill="#364141"/>
</svg>
