<svg width="24" height="24" viewBox="0 0 24 24" fill="none" xmlns="http://www.w3.org/2000/svg">
<path fill-rule="evenodd" clip-rule="evenodd" d="M15.5 12C15.5 13.933 13.933 15.5 12 15.5C10.067 15.5 8.5 13.933 8.5 12C8.5 10.067 10.067 8.5 12 8.5C13.933 8.5 15.5 10.067 15.5 12ZM14 12C14 13.1046 13.1046 14 12 14C10.8954 14 10 13.1046 10 12C10 10.8954 10.8954 10 12 10C13.1046 10 14 10.8954 14 12Z" fill="#364141"/>
<path fill-rule="evenodd" clip-rule="evenodd" d="M10 4.00467C10 3.44981 10.4498 3 11.0047 3H12.9953C13.5502 3 14 3.44981 14 4.00467C14 4.45659 14.3046 4.84634 14.7256 5.01064C14.8229 5.0486 14.9192 5.08852 15.0144 5.13037C15.4283 5.31226 15.9195 5.25213 16.2392 4.93243C16.6316 4.54003 17.2679 4.54003 17.6603 4.93243L19.0676 6.33982C19.4601 6.73224 19.4601 7.36847 19.0676 7.76088C18.7479 8.08058 18.6878 8.57182 18.8697 8.98574C18.9115 9.08093 18.9514 9.17716 18.9894 9.27437C19.1537 9.69537 19.5434 10 19.9953 10C20.5502 10 21 10.4498 21 11.0047V12.9953C21 13.5502 20.5502 14 19.9953 14C19.5434 14 19.1537 14.3046 18.9894 14.7256C18.9514 14.8229 18.9115 14.9191 18.8697 15.0143C18.6878 15.4283 18.7479 15.9195 19.0676 16.2392C19.46 16.6317 19.46 17.2679 19.0676 17.6603L17.6603 19.0676C17.2679 19.4601 16.6316 19.4601 16.2392 19.0676C15.9195 18.7479 15.4282 18.6878 15.0143 18.8697C14.9191 18.9115 14.8228 18.9514 14.7256 18.9894C14.3046 19.1537 14 19.5434 14 19.9953C14 20.5502 13.5502 21 12.9953 21H11.0047C10.4498 21 10 20.5502 10 19.9953C10 19.5434 9.69537 19.1537 9.27437 18.9894C9.17718 18.9514 9.08097 18.9115 8.98579 18.8697C8.57184 18.6878 8.08056 18.748 7.76084 19.0677C7.36839 19.4601 6.73211 19.4601 6.33966 19.0677L4.93239 17.6604C4.53996 17.268 4.53996 16.6317 4.93239 16.2393C5.25211 15.9196 5.31225 15.4283 5.13035 15.0143C5.08851 14.9191 5.04859 14.8229 5.01064 14.7256C4.84634 14.3046 4.45659 14 4.00467 14C3.44981 14 3 13.5502 3 12.9953V11.0047C3 10.4498 3.44981 10 4.00467 10C4.45659 10 4.84634 9.69537 5.01064 9.27437C5.04858 9.17715 5.08849 9.08091 5.13032 8.98572C5.31221 8.57179 5.25207 8.08054 4.93237 7.76084C4.53995 7.36841 4.53995 6.73217 4.93237 6.33975L6.33972 4.9324C6.73214 4.53998 7.36837 4.53998 7.76079 4.9324C8.08049 5.2521 8.57173 5.31224 8.98566 5.13035C9.08088 5.08851 9.17713 5.04859 9.27437 5.01064C9.69537 4.84634 10 4.45659 10 4.00467ZM9.8197 6.408C10.5967 6.10477 11.2693 5.41294 11.4515 4.5H12.5485C12.7307 5.41294 13.4033 6.10477 14.1803 6.408C14.258 6.43831 14.3349 6.4702 14.4109 6.50363C15.1753 6.83951 16.1407 6.82599 16.9155 6.30895L17.6911 7.08464C17.1741 7.85936 17.1606 8.82482 17.4964 9.58916C17.5298 9.66521 17.5617 9.74206 17.592 9.8197C17.8952 10.5967 18.5871 11.2693 19.5 11.4515V12.5485C18.5871 12.7307 17.8952 13.4033 17.592 14.1803C17.5617 14.258 17.5298 14.3348 17.4964 14.4109C17.1605 15.1753 17.174 16.1408 17.6911 16.9155L16.9155 17.6912C16.1407 17.1741 15.1752 17.1605 14.4108 17.4964C14.3348 17.5298 14.2579 17.5617 14.1803 17.592C13.4033 17.8952 12.7307 18.5871 12.5485 19.5H11.4515C11.2693 18.5871 10.5967 17.8952 9.8197 17.592C9.74208 17.5617 9.66524 17.5298 9.58921 17.4964C8.82481 17.1606 7.85928 17.1741 7.08452 17.6912L6.30887 16.9156C6.82597 16.1408 6.8395 15.1753 6.50361 14.4109C6.47019 14.3348 6.43831 14.258 6.408 14.1803C6.10477 13.4033 5.41294 12.7307 4.5 12.5485V11.4515C5.41294 11.2693 6.10477 10.5967 6.408 9.8197C6.4383 9.74206 6.47018 9.6652 6.50359 9.58915C6.83946 8.82479 6.82593 7.85931 6.30886 7.08458L7.08454 6.3089C7.85927 6.82596 8.82475 6.83949 9.5891 6.50361C9.66517 6.47019 9.74204 6.43831 9.8197 6.408Z" fill="#364141"/>
</svg>
