<svg width="24" height="24" viewBox="0 0 24 24" fill="none" xmlns="http://www.w3.org/2000/svg">
<path fill-rule="evenodd" clip-rule="evenodd" d="M8.37151 6.75C7.85494 6.75 7.39159 7.06775 7.20547 7.54962L5.8023 11.1824C6.18045 11.0639 6.58277 11 7 11C8.58156 11 9.94874 11.9179 10.5979 13.25H13.4021C14.0513 11.9179 15.4184 11 17 11C17.4182 11 17.8214 11.0642 18.2003 11.1832L16.795 7.54914C16.6087 7.06752 16.1455 6.75 15.6291 6.75H14V5.25H15.6291C16.7651 5.25 17.7842 5.94855 18.194 7.00811L20.6564 13.3757C20.7103 13.4967 20.7583 13.621 20.8002 13.7481C20.8055 13.7629 20.8103 13.7778 20.8146 13.7927C20.935 14.1737 21 14.5792 21 15C21 17.2091 19.2091 19 17 19C14.7909 19 13 17.2091 13 15C13 14.916 13.0026 14.8327 13.0077 14.75H10.9923C10.9974 14.8327 11 14.916 11 15C11 17.2091 9.20914 19 7 19C4.79086 19 3 17.2091 3 15C3 14.401 3.13168 13.8327 3.36768 13.3225L5.80622 7.00916C6.21568 5.94904 7.23507 5.25 8.37151 5.25H10V6.75H8.37151ZM19.2746 13.961L19.3822 14.2393C19.4587 14.4791 19.5 14.7347 19.5 15C19.5 16.3807 18.3807 17.5 17 17.5C15.6193 17.5 14.5 16.3807 14.5 15C14.5 13.6193 15.6193 12.5 17 12.5C18.01 12.5 18.8801 13.0989 19.2746 13.961ZM4.60963 14.2702L4.60372 14.2851C4.53624 14.5116 4.5 14.7516 4.5 15C4.5 16.3807 5.61929 17.5 7 17.5C8.38071 17.5 9.5 16.3807 9.5 15C9.5 13.6193 8.38071 12.5 7 12.5C6.00706 12.5 5.14932 13.0789 4.74585 13.9175L4.60963 14.2702Z" fill="#364141"/>
</svg>
