<svg width="24" height="24" viewBox="0 0 24 24" fill="none" xmlns="http://www.w3.org/2000/svg">
<path fill-rule="evenodd" clip-rule="evenodd" d="M11.9454 3.00016C11.2656 3.0042 10.6036 3.08361 9.96747 3.23046C9.92943 3.23924 9.89149 3.24826 9.85364 3.25752C5.9194 4.22011 3 7.76913 3 12C3 16.2309 5.9194 19.7799 9.85364 20.7425C10.4692 20.8931 11.1097 20.9804 11.7677 20.9971C11.8268 20.9986 11.886 20.9995 11.9454 20.9998C11.9636 20.9999 11.9818 21 12 21C12.0182 21 12.0364 20.9999 12.0546 20.9998C12.75 20.9957 13.4268 20.9127 14.0764 20.7593C14.0997 20.7538 14.1231 20.7482 14.1464 20.7425C18.0806 19.7799 21 16.2309 21 12C21 7.76912 18.0806 4.22011 14.1464 3.25752C13.4585 3.08923 12.7397 3 12 3C11.9818 3 11.9636 3.00005 11.9454 3.00016ZM19.2637 13.875C19.418 13.2757 19.5 12.6474 19.5 12C19.5 11.3526 19.418 10.7243 19.2637 10.125H16.1012C16.1991 10.7356 16.25 11.3618 16.25 12C16.25 12.6382 16.1991 13.2644 16.1012 13.875H19.2637ZM14.75 12C14.75 11.3596 14.6913 10.7329 14.5789 10.125H9.4211C9.30873 10.7329 9.25 11.3596 9.25 12C9.25 12.6404 9.30873 13.2671 9.4211 13.875H14.5789C14.6913 13.2671 14.75 12.6404 14.75 12ZM7.89879 13.875H4.73628C4.58204 13.2757 4.5 12.6474 4.5 12C4.5 11.3526 4.58204 10.7243 4.73628 10.125H7.89879C7.80087 10.7356 7.75 11.3618 7.75 12C7.75 12.6382 7.80087 13.2644 7.89879 13.875ZM9.73509 8.875H14.2649C13.7994 7.41932 13.0175 6.10512 12 5.01335C10.9825 6.10512 10.2006 7.41932 9.73509 8.875ZM10.2968 4.69424C9.32724 5.91396 8.59506 7.33084 8.1701 8.875H5.18005C6.1357 6.79282 8.01685 5.22366 10.2968 4.69424ZM12 18.9866C13.0175 17.8949 13.7994 16.5807 14.2649 15.125H9.73509C10.2006 16.5807 10.9825 17.8949 12 18.9866ZM10.2968 19.3058C9.32725 18.086 8.59506 16.6692 8.1701 15.125H5.18005C6.1357 17.2072 8.01686 18.7763 10.2968 19.3058ZM18.8199 8.875H15.8299C15.4049 7.33084 14.6728 5.91396 13.7032 4.69424C15.9831 5.22366 17.8643 6.79282 18.8199 8.875ZM18.8199 15.125C17.8643 17.2072 15.9831 18.7763 13.7032 19.3058C14.6728 18.086 15.4049 16.6692 15.8299 15.125H18.8199Z" fill="#364141"/>
</svg>
