<svg width="24" height="24" viewBox="0 0 24 24" fill="none" xmlns="http://www.w3.org/2000/svg">
<path d="M3.25 6.5V17.5H4.75V12.75H10.25V17.5H11.75V6.5H10.25V11.25H4.75V6.5H3.25Z" fill="#364141"/>
<path d="M14.75 9.25C14.75 8.55964 15.3096 8 16 8H18C18.6904 8 19.25 8.55964 19.25 9.25V9.85126C19.25 10.2958 19.0139 10.707 18.6298 10.931L14.6144 13.2733C13.7695 13.7662 13.25 14.6707 13.25 15.6487V17.5H20.75V16H14.75V15.6487C14.75 15.2042 14.9861 14.793 15.3702 14.569L19.3856 12.2267C20.2305 11.7338 20.75 10.8293 20.75 9.85126V9.25C20.75 7.73122 19.5188 6.5 18 6.5H16C14.4812 6.5 13.25 7.73122 13.25 9.25H14.75Z" fill="#364141"/>
</svg>
