<svg width="24" height="24" viewBox="0 0 24 24" fill="none" xmlns="http://www.w3.org/2000/svg">
<path d="M14.8456 6.71201L18.6024 4.36401L19.3974 5.63601L15.6406 7.98401C15.3625 8.15784 15.0411 8.25001 14.7131 8.25001H11.9999C10.7573 8.25001 9.74992 9.25737 9.74992 10.5V12.75C9.74992 13.3023 10.1976 13.75 10.7499 13.75C11.3022 13.75 11.7499 13.3023 11.7499 12.75V10.25H13.9999C15.0978 10.25 16.0455 10.8934 16.4864 11.8238L20.1088 9.61005L20.891 10.89L16.7499 13.4206V14.5C16.7499 16.5711 15.071 18.25 12.9999 18.25H10.8027C10.7533 18.25 10.7051 18.2646 10.664 18.292L7.91595 20.1241L7.0839 18.876L9.83197 17.0439C10.1194 16.8523 10.4572 16.75 10.8027 16.75H12.9999C14.2426 16.75 15.2499 15.7427 15.2499 14.5V13C15.2499 12.3097 14.6903 11.75 13.9999 11.75H13.2499V12.75C13.2499 14.1307 12.1306 15.25 10.7499 15.25C9.36921 15.25 8.24992 14.1307 8.24992 12.75V10.7135L7.4409 11.118C7.01742 11.3298 6.74992 11.7626 6.74992 12.2361V13.4794C6.74992 14.0504 6.4713 14.5855 6.00348 14.913L3.93002 16.3644L3.06982 15.1356L5.14329 13.6842C5.21012 13.6374 5.24992 13.5609 5.24992 13.4794V12.2361C5.24992 11.1945 5.83843 10.2422 6.77008 9.77641L8.6343 8.8443C9.24582 7.6036 10.5232 6.75001 11.9999 6.75001H14.7131C14.76 6.75001 14.8059 6.73685 14.8456 6.71201Z" fill="#364141"/>
</svg>
