<svg width="24" height="24" viewBox="0 0 24 24" fill="none" xmlns="http://www.w3.org/2000/svg">
<path d="M17.9566 8.27918C18.0742 9.25082 17.9523 10.2365 17.6016 11.1502L16.1732 10.6019C16.4345 9.92118 16.5253 9.18686 16.4377 8.46299C16.3501 7.73911 16.0868 7.04766 15.6706 6.44891C15.2545 5.85016 14.6982 5.36231 14.0503 5.02788C13.4023 4.69345 12.6824 4.52261 11.9533 4.53024C11.2242 4.53788 10.508 4.72376 9.86719 5.07169C9.22639 5.41961 8.68044 5.91901 8.27693 6.52634C7.87342 7.13367 7.62461 7.83049 7.55219 8.55604C7.47977 9.28159 7.58594 10.0138 7.86145 10.6889L6.44487 11.267C6.07506 10.3609 5.93255 9.37797 6.02976 8.40408C6.12696 7.43019 6.46094 6.49486 7.00256 5.67965C7.54419 4.86444 8.27701 4.19411 9.13714 3.7271C9.99726 3.26009 10.9586 3.01058 11.9373 3.00033C12.9159 2.99008 13.8823 3.2194 14.752 3.6683C15.6217 4.11719 16.3684 4.77203 16.927 5.57572C17.4856 6.37941 17.8391 7.30753 17.9566 8.27918Z" fill="#364141"/>
<path fill-rule="evenodd" clip-rule="evenodd" d="M12.0001 6.75C10.7574 6.75 9.75009 7.75736 9.75009 9V14.0426L8.61154 13.2294C7.66228 12.5513 6.41598 12.4535 5.37258 12.9752C4.58117 13.3709 4.35611 14.3956 4.90886 15.0865L8.96407 20.1556C9.39106 20.6893 10.0375 21 10.721 21H15.9052C16.8836 21 17.7499 20.3676 18.0481 19.4357L19.1937 15.8559C19.6077 14.5622 18.7896 13.1994 17.4532 12.9565L14.2501 12.3741V9C14.2501 7.75736 13.2427 6.75 12.0001 6.75ZM11.2501 9C11.2501 8.58579 11.5859 8.25 12.0001 8.25C12.4143 8.25 12.7501 8.58579 12.7501 9V12.7914C12.7501 13.2746 13.0957 13.6888 13.5712 13.7752L17.1849 14.4323C17.6303 14.5133 17.903 14.9675 17.765 15.3987L16.6195 18.9786C16.5201 19.2892 16.2313 19.5 15.9052 19.5H10.721C10.4932 19.5 10.2777 19.3964 10.1354 19.2185L6.16895 14.2605C6.68757 14.0531 7.2801 14.1217 7.73969 14.45L9.82698 15.9409C10.4227 16.3664 11.2501 15.9406 11.2501 15.2085V9Z" fill="#364141"/>
</svg>
