<svg width="24" height="24" viewBox="0 0 24 24" fill="none" xmlns="http://www.w3.org/2000/svg">
<path fill-rule="evenodd" clip-rule="evenodd" d="M3 16C3 17.1046 3.89543 18 5 18H6C7.10457 18 8 17.1046 8 16V13C8 11.8954 7.10457 11 6 11H5C4.84875 11 4.70142 11.0168 4.55977 11.0486C5.02727 7.35567 8.18015 4.5 12 4.5C15.8199 4.5 18.9727 7.35567 19.4402 11.0486C19.2986 11.0168 19.1513 11 19 11H18C16.8954 11 16 11.8954 16 13V16C16 17.0001 16.7341 17.8288 17.6929 17.9766C17.4791 18.851 16.6903 19.5 15.75 19.5H12V21H15.75C17.5172 21 18.9786 19.6902 19.2162 17.9885C20.2191 17.8807 21 17.0315 21 16V12C21 7.02944 16.9706 3 12 3C7.02944 3 3 7.02944 3 12V16ZM4.5 13C4.5 12.7239 4.72386 12.5 5 12.5H6C6.27614 12.5 6.5 12.7239 6.5 13V16C6.5 16.2761 6.27614 16.5 6 16.5H5C4.72386 16.5 4.5 16.2761 4.5 16V13ZM19.5 13C19.5 12.7239 19.2761 12.5 19 12.5H18C17.7239 12.5 17.5 12.7239 17.5 13V16C17.5 16.2761 17.7239 16.5 18 16.5H19C19.2761 16.5 19.5 16.2761 19.5 16V13Z" fill="#364141"/>
</svg>
