<svg width="24" height="24" viewBox="0 0 24 24" fill="none" xmlns="http://www.w3.org/2000/svg">
<path fill-rule="evenodd" clip-rule="evenodd" d="M12 7.69292L10.9338 6.6155C9.46196 5.12817 7.0822 5.12817 5.61035 6.61551C4.12988 8.11155 4.12988 10.5436 5.61035 12.0396L12 18.4965L18.3896 12.0396C19.8701 10.5436 19.8701 8.11154 18.3896 6.61549C16.9178 5.12817 14.538 5.12817 13.0662 6.6155L12 7.69292ZM11.9195 5.4808C9.85507 3.48022 6.57642 3.50676 4.54416 5.56041C2.48528 7.64095 2.48528 11.0142 4.54416 13.0947L10.9449 19.5628C11.5276 20.1517 12.4724 20.1517 13.0551 19.5628L19.4558 13.0947C21.5147 11.0142 21.5147 7.64094 19.4558 5.5604C17.4236 3.50674 14.1449 3.48022 12.0804 5.4808C12.0534 5.50699 12.0266 5.53353 12 5.56041C11.9734 5.53352 11.9466 5.50699 11.9195 5.4808Z" fill="#364141"/>
</svg>
