<svg width="24" height="24" viewBox="0 0 24 24" fill="none" xmlns="http://www.w3.org/2000/svg">
<path d="M9.6075 11.94L10.5 10.75L12.88 13.9233C13.19 14.3367 13.81 14.3367 14.12 13.9233L15.375 12.25H16.5V10.75H15.0125C14.7686 10.75 14.5389 10.8649 14.3925 11.06L13.5 12.25L11.12 9.07667C10.81 8.66333 10.19 8.66333 9.88 9.07667L8.625 10.75H7.5V12.25H8.9875C9.23143 12.25 9.46114 12.1352 9.6075 11.94Z" fill="#364141"/>
<path fill-rule="evenodd" clip-rule="evenodd" d="M4.54416 5.56041C6.57642 3.50676 9.85507 3.48022 11.9195 5.4808C11.9466 5.50699 11.9734 5.53352 12 5.56041C12.0266 5.53353 12.0534 5.50699 12.0804 5.4808C14.1449 3.48022 17.4236 3.50674 19.4558 5.5604C21.5147 7.64094 21.5147 11.0142 19.4558 13.0947L13.0551 19.5628C12.4724 20.1517 11.5276 20.1517 10.9449 19.5628L4.54416 13.0947C2.48528 11.0142 2.48528 7.64095 4.54416 5.56041ZM10.9338 6.6155L12 7.69292L13.0662 6.6155C14.538 5.12817 16.9178 5.12817 18.3896 6.61549C19.8701 8.11154 19.8701 10.5436 18.3896 12.0396L12 18.4965L5.61035 12.0396C4.12988 10.5436 4.12988 8.11155 5.61035 6.61551C7.0822 5.12817 9.46196 5.12817 10.9338 6.6155Z" fill="#364141"/>
</svg>
