<svg width="24" height="24" viewBox="0 0 24 24" fill="none" xmlns="http://www.w3.org/2000/svg">
<path d="M12 14.5L11.2791 15.5814C11.0971 15.8544 11 16.175 11 16.5031C11 17.0537 11.4494 17.5 12 17.5C12.5506 17.5 13 17.0537 13 16.5031C13 16.175 12.9029 15.8544 12.7209 15.5814L12 14.5Z" fill="#364141"/>
<path fill-rule="evenodd" clip-rule="evenodd" d="M5 4.5H5.75V8.10955C5.75 8.93293 6.19975 9.69054 6.92258 10.0848L10.4338 12L6.92258 13.9152C6.19975 14.3095 5.75 15.0671 5.75 15.8904V19.5H5V21H19V19.5H18.25V15.8904C18.25 15.0671 17.8003 14.3095 17.0774 13.9152L13.5662 12L17.0774 10.0848C17.8003 9.69054 18.25 8.93292 18.25 8.10955V4.5H19V3H5V4.5ZM16.75 19.5V15.8904C16.75 15.616 16.6001 15.3635 16.3591 15.232L12 12.8543L7.64086 15.232C7.39992 15.3635 7.25 15.616 7.25 15.8904V19.5H16.75ZM12 11.1457L16.3591 8.76797C16.6001 8.63655 16.75 8.38401 16.75 8.10955V7.75H7.25V8.10955C7.25 8.38401 7.39992 8.63655 7.64086 8.76797L12 11.1457ZM7.25 6.25H16.75V4.5H7.25V6.25Z" fill="#364141"/>
</svg>
