<svg width="24" height="24" viewBox="0 0 24 24" fill="none" xmlns="http://www.w3.org/2000/svg">
<path d="M11.25 8.5C11.25 8.91421 10.9142 9.25 10.5 9.25C10.0858 9.25 9.75 8.91421 9.75 8.5C9.75 8.08579 10.0858 7.75 10.5 7.75C10.9142 7.75 11.25 8.08579 11.25 8.5Z" fill="#364141"/>
<path fill-rule="evenodd" clip-rule="evenodd" d="M7.5 5C6.67157 5 6 5.67157 6 6.5V15.5C6 16.3284 6.67157 17 7.5 17H19.5C20.3284 17 21 16.3284 21 15.5V6.5C21 5.67157 20.3284 5 19.5 5H7.5ZM19.5 6.5H7.5V12.5836L10.5392 9.97857L12.1668 11.6061L15.9935 8.54477L19.5 11.2721V6.5ZM10.9883 12.5489L10.4608 12.0214L7.5 14.5592V15.5H19.5V13.1724L16.0065 10.4552L11.4685 14.0857L10.5315 12.9143L10.9883 12.5489Z" fill="#364141"/>
<path d="M3 9.99998C3 9.06806 3.63739 8.28501 4.5 8.06299V17C4.5 17.8284 5.17157 18.5 6 18.5H15.7915C15.4054 19.3827 14.5241 19.9994 13.499 19.9989L4.99917 19.9954C3.89492 19.9949 3 19.0997 3 17.9954V9.99998Z" fill="#364141"/>
</svg>
