<svg width="24" height="24" viewBox="0 0 24 24" fill="none" xmlns="http://www.w3.org/2000/svg">
<path d="M9 10C9.55228 10 10 9.55228 10 9C10 8.44772 9.55228 8 9 8C8.44772 8 8 8.44772 8 9C8 9.55228 8.44772 10 9 10Z" fill="#364141"/>
<path fill-rule="evenodd" clip-rule="evenodd" d="M3 6.5C3 5.67157 3.67157 5 4.5 5H19.5C20.3284 5 21 5.67157 21 6.5V17.5C21 18.3284 20.3284 19 19.5 19H4.5C3.67157 19 3 18.3284 3 17.5V6.5ZM4.5 6.5H19.5V13.2345L14.9848 10.0739L11.3333 12.8125L9.01518 11.0739L4.5 14.2345L4.5 6.5ZM8.98482 12.9261L10.0833 13.75L8.55 14.9L9.45 16.1L15.0152 11.9261L19.5 15.0655V17.5H4.5V16.0655L8.98482 12.9261Z" fill="#364141"/>
</svg>
