<svg width="24" height="24" viewBox="0 0 24 24" fill="none" xmlns="http://www.w3.org/2000/svg">
<path d="M12.9642 3.53599L12 6.7497H16.1596C16.4964 6.7497 16.6825 7.14053 16.4701 7.40193L11.695 13.2792C11.4222 13.6148 10.8848 13.339 10.9986 12.9217L12 9.24995H7.87598C7.53321 9.24995 7.34922 8.847 7.57371 8.58797L12.2788 3.15907C12.5611 2.83333 13.088 3.12311 12.9642 3.53599Z" fill="#364141"/>
<path fill-rule="evenodd" clip-rule="evenodd" d="M3.36704 13.0685L5.3501 9.62567L6.6499 10.3744L5.13752 13H7.58579C7.851 13 8.10536 13.1054 8.29289 13.2929L9.92678 14.9268C9.97366 14.9737 10.0372 15 10.1036 15H13.8964C13.9628 15 14.0263 14.9737 14.0732 14.9268L15.7071 13.2929C15.8946 13.1054 16.149 13 16.4142 13H18.827L17.3463 10.3677L18.6537 9.63232L20.6468 13.1757C20.863 13.56 20.9834 13.9903 20.9984 14.4301C20.9995 14.4533 21 14.4766 21 14.5V19.5C21 20.3284 20.3284 21 19.5 21H4.5C3.67157 21 3 20.3284 3 19.5V14.4411C3 13.9593 3.12657 13.486 3.36704 13.0685ZM4.5 14.5H7.37868L8.86612 15.9875C9.19431 16.3156 9.63943 16.5 10.1036 16.5H13.8964C14.3606 16.5 14.8057 16.3156 15.1339 15.9875L16.6213 14.5H19.4998L19.5 14.5239V19.5H4.5L4.5 14.5Z" fill="#364141"/>
</svg>
