<svg width="24" height="24" viewBox="0 0 24 24" fill="none" xmlns="http://www.w3.org/2000/svg">
<path d="M11.25 12V5.81065L8.53033 8.53032L7.46967 7.46966L12 2.93933L16.5303 7.46966L15.4697 8.53032L12.75 5.81065V12H11.25Z" fill="#364141"/>
<path fill-rule="evenodd" clip-rule="evenodd" d="M3.36704 12.0685L5.3501 8.62565L6.6499 9.37433L5.13752 12H7.58579C7.851 12 8.10536 12.1053 8.29289 12.2929L9.92678 13.9268C9.97366 13.9737 10.0372 14 10.1036 14H13.8964C13.9628 14 14.0263 13.9737 14.0732 13.9268L15.7071 12.2929C15.8946 12.1053 16.149 12 16.4142 12H18.827L17.3463 9.36769L18.6537 8.6323L20.6468 12.1757C20.863 12.56 20.9834 12.9903 20.9984 13.4301C20.9995 13.4532 21 13.4766 21 13.5V18.5C21 19.3284 20.3284 20 19.5 20H4.5C3.67157 20 3 19.3284 3 18.5V13.4411C3 12.9593 3.12657 12.4859 3.36704 12.0685ZM4.5 13.5H7.37868L8.86612 14.9874C9.19431 15.3156 9.63943 15.5 10.1036 15.5H13.8964C14.3606 15.5 14.8057 15.3156 15.1339 14.9874L16.6213 13.5H19.4998L19.5 13.5239V18.5H4.5L4.5 13.5Z" fill="#364141"/>
</svg>
