<svg width="24" height="24" viewBox="0 0 24 24" fill="none" xmlns="http://www.w3.org/2000/svg">
<path fill-rule="evenodd" clip-rule="evenodd" d="M3 12.2111C3 11.4214 3.23375 10.6494 3.6718 9.9923L6.40627 5.8906C6.7772 5.3342 7.40166 5 8.07037 5H15.9296C16.5983 5 17.2228 5.3342 17.5937 5.8906L20.3282 9.9923C20.7662 10.6494 21 11.4214 21 12.2111V17.5C21 18.3284 20.3284 19 19.5 19H4.5C4.39645 19 4.29534 18.9895 4.1977 18.9695C3.51417 18.8297 3 18.2249 3 17.5V12.2111ZM4.91987 10.8244L7.65434 6.72265C7.74708 6.58355 7.90319 6.5 8.07037 6.5H15.9296C16.0968 6.5 16.2529 6.58355 16.3457 6.72265L19.0801 10.8244C19.1183 10.8816 19.1539 10.9402 19.1871 11H16.4142C16.149 11 15.8946 11.1054 15.7071 11.2929L14.0732 12.9268C14.0263 12.9737 13.9628 13 13.8964 13H10.1036C10.0372 13 9.97366 12.9737 9.92678 12.9268L8.29289 11.2929C8.10536 11.1054 7.851 11 7.58579 11H4.81294C4.84607 10.9402 4.88173 10.8816 4.91987 10.8244ZM4.5 12.5V17.5H19.5V12.5H16.6213L15.1339 13.9874C14.8057 14.3156 14.3606 14.5 13.8964 14.5H10.1036C9.63943 14.5 9.19431 14.3156 8.86612 13.9874L7.37868 12.5H4.5Z" fill="#364141"/>
</svg>
