<svg width="24" height="24" viewBox="0 0 24 24" fill="none" xmlns="http://www.w3.org/2000/svg">
<path fill-rule="evenodd" clip-rule="evenodd" d="M20.0026 5.02941L19.0354 5.99656L21.0009 7.96202L19.9402 9.02268L17.9748 7.05722L16.5396 8.49235L18.5051 10.4578L17.4444 11.5185L15.479 9.55301L12.8674 12.1645C13.5666 13.0859 13.9815 14.2348 13.9815 15.4806C13.9815 18.513 11.5232 20.9713 8.49075 20.9713C5.45829 20.9713 3 18.513 3 15.4806C3 12.4481 5.45829 9.98983 8.49075 9.98983C9.73654 9.98983 10.8854 10.4047 11.8068 11.1039L18.9419 3.96875L20.0026 5.02941ZM12.4815 15.4806C12.4815 17.6846 10.6948 19.4713 8.49075 19.4713C6.28672 19.4713 4.5 17.6846 4.5 15.4806C4.5 13.2765 6.28672 11.4898 8.49075 11.4898C10.6948 11.4898 12.4815 13.2765 12.4815 15.4806Z" fill="#364141"/>
</svg>
