<svg width="24" height="24" viewBox="0 0 24 24" fill="none" xmlns="http://www.w3.org/2000/svg">
<path d="M11 9.75H13V8.25H11V9.75Z" fill="#364141"/>
<path d="M17.5 9.75H15.5V8.25H17.5V9.75Z" fill="#364141"/>
<path d="M6.5 9.75H8.5V8.25H6.5V9.75Z" fill="#364141"/>
<path d="M13 12.75H11V11.25H13V12.75Z" fill="#364141"/>
<path d="M15.5 12.75H17.5V11.25H15.5V12.75Z" fill="#364141"/>
<path d="M8.5 12.75H6.5V11.25H8.5V12.75Z" fill="#364141"/>
<path d="M6.5 15.75H17.5V14.25H6.5V15.75Z" fill="#364141"/>
<path fill-rule="evenodd" clip-rule="evenodd" d="M3 6.5C3 5.67157 3.67157 5 4.5 5H19.5C20.3284 5 21 5.67157 21 6.5V17.5C21 18.3284 20.3284 19 19.5 19H4.5C3.67157 19 3 18.3284 3 17.5V6.5ZM4.5 6.5H19.5V17.5H4.5L4.5 6.5Z" fill="#364141"/>
</svg>
