<svg width="24" height="24" viewBox="0 0 24 24" fill="none" xmlns="http://www.w3.org/2000/svg">
<path fill-rule="evenodd" clip-rule="evenodd" d="M8.75 9V7.75H4V6.25H8.75V3H10.25V6.25H13V7.75H10.25V9C10.25 10.903 9.46252 12.622 8.19565 13.8491C8.74334 14.1063 9.35488 14.25 10 14.25H12.8626L14.8106 9.70456H16.1894L18.9945 16.25H19V16.2627L20.6894 20.2046L19.3106 20.7954L18.0055 17.75H13V17.7373L11.6894 20.7954L10.3106 20.2046L12.2197 15.75H10C8.85453 15.75 7.78729 15.4151 6.89088 14.8378C5.89446 15.4178 4.73603 15.75 3.5 15.75H3V14.25H3.5C4.27349 14.25 5.00791 14.0827 5.66906 13.7824C4.7854 12.7714 4.25 11.4482 4.25 10H5.75C5.75 11.15 6.20676 12.1933 6.94876 12.9585C8.05252 11.996 8.75 10.5795 8.75 9ZM15.5 11.9039L13.6374 16.25H17.3626L15.5 11.9039Z" fill="#364141"/>
</svg>
