<svg width="24" height="24" viewBox="0 0 24 24" fill="none" xmlns="http://www.w3.org/2000/svg">
<path d="M6.5 6.5H19C19 5.67157 18.3284 5 17.5 5H6.5C5.67157 5 5 5.67157 5 6.5V15.5H3C3 16.3284 3.67157 17 4.5 17H12.5V15.5H6.5V6.5Z" fill="#364141"/>
<path d="M18 16C18 16.2761 17.7761 16.5 17.5 16.5C17.2239 16.5 17 16.2761 17 16C17 15.7239 17.2239 15.5 17.5 15.5C17.7761 15.5 18 15.7239 18 16Z" fill="#364141"/>
<path fill-rule="evenodd" clip-rule="evenodd" d="M15.5 8C14.6716 8 14 8.67157 14 9.5V17.5C14 18.3284 14.6716 19 15.5 19H19.5C20.3284 19 21 18.3284 21 17.5V9.5C21 8.67157 20.3284 8 19.5 8H15.5ZM19.5 17.5V9.5H15.5V17.5H19.5Z" fill="#364141"/>
</svg>
