<svg width="24" height="24" viewBox="0 0 24 24" fill="none" xmlns="http://www.w3.org/2000/svg">
<path d="M18 8C19.1046 8 20 7.10457 20 6C20 4.89543 19.1046 4 18 4C16.8954 4 16 4.89543 16 6C16 7.10457 16.8954 8 18 8Z" fill="#364141"/>
<path fill-rule="evenodd" clip-rule="evenodd" d="M17 14C17 17.866 13.866 21 10 21C6.13401 21 3 17.866 3 14C3 10.134 6.13401 7 10 7C13.866 7 17 10.134 17 14ZM15.5 14C15.5 17.0376 13.0376 19.5 10 19.5C6.96243 19.5 4.5 17.0376 4.5 14C4.5 10.9624 6.96243 8.5 10 8.5C13.0376 8.5 15.5 10.9624 15.5 14Z" fill="#364141"/>
</svg>
