<svg width="24" height="24" viewBox="0 0 24 24" fill="none" xmlns="http://www.w3.org/2000/svg">
<path fill-rule="evenodd" clip-rule="evenodd" d="M15.43 16.1035C17.5608 14.9034 19 12.6198 19 10C19 6.13401 15.866 3 12 3C8.13401 3 5 6.13401 5 10C5 12.6295 6.44985 14.9204 8.59375 16.1168V17.5819C8.59375 19.4697 10.1241 21 12.0119 21C13.8997 21 15.43 19.4697 15.43 17.5819V16.1035ZM17.5 10C17.5 12.0233 16.4078 13.7938 14.7749 14.75H9.22507C7.59224 13.7938 6.5 12.0233 6.5 10C6.5 6.96243 8.96243 4.5 12 4.5C15.0376 4.5 17.5 6.96243 17.5 10ZM10.0938 16.25V17.5819C10.0938 18.6412 10.9525 19.5 12.0119 19.5C13.0712 19.5 13.93 18.6412 13.93 17.5819V16.25H10.0938Z" fill="#364141"/>
</svg>
