<svg width="24" height="24" viewBox="0 0 24 24" fill="none" xmlns="http://www.w3.org/2000/svg">
<path d="M9.96968 14.0302C11.6433 15.7038 14.3567 15.7038 16.0303 14.0302L19.0303 11.0302C20.704 9.35661 20.7039 6.64316 19.0303 4.96956C17.3567 3.29595 14.6433 3.29596 12.9697 4.96956L11.9697 5.96956L13.0303 7.03022L14.0303 6.03022C15.1182 4.9424 16.8819 4.9424 17.9697 6.03022C19.0575 7.11804 19.0575 8.88174 17.9697 9.96956L14.9697 12.9696C13.8819 14.0574 12.1182 14.0574 11.0303 12.9696L9.96968 14.0302Z" fill="#364141"/>
<path d="M14.0303 9.96956C12.3567 8.29595 9.64329 8.29596 7.96968 9.96956L4.96968 12.9696C3.29608 14.6432 3.29608 17.3566 4.96968 19.0302C6.64329 20.7038 9.35674 20.7038 11.0303 19.0302L12.0303 18.0302L10.9697 16.9696L9.96968 17.9696C8.88186 19.0574 7.11816 19.0574 6.03034 17.9696C4.94252 16.8817 4.94252 15.118 6.03034 14.0302L9.03034 11.0302C10.1182 9.9424 11.8819 9.9424 12.9697 11.0302L14.0303 9.96956Z" fill="#364141"/>
</svg>
