<svg width="24" height="24" viewBox="0 0 24 24" fill="none" xmlns="http://www.w3.org/2000/svg">
<path d="M14.6811 14.6203C15.3583 14.4268 15.9971 14.0635 16.5304 13.5302L19.0304 11.0302C20.704 9.35662 20.704 6.64317 19.0304 4.96956C17.3568 3.29595 14.6433 3.29596 12.9697 4.96956L11.9697 5.96956L13.0304 7.03022L14.0304 6.03022C15.1182 4.9424 16.8819 4.9424 17.9697 6.03022C19.0575 7.11804 19.0575 8.88174 17.9697 9.96956L15.4697 12.4696C14.8855 13.0537 14.1065 13.3242 13.3418 13.281L10.3514 10.2905C11.2615 10.0735 12.2596 10.3201 12.9697 11.0302L14.0304 9.96956C12.7185 8.6577 10.7678 8.37415 9.17972 9.11888L4.53039 4.46955L3.46973 5.53021L17.9697 20.0302L19.0304 18.9695L14.6811 14.6203Z" fill="#364141"/>
<path d="M6.9394 10.9999L8.00006 12.0605L6.03038 14.0302C4.94256 15.118 4.94256 16.8817 6.03038 17.9696C7.1182 19.0574 8.88191 19.0574 9.96973 17.9696L10.9697 16.9696L12.0304 18.0302L11.0304 19.0302C9.35678 20.7038 6.64333 20.7038 4.96972 19.0302C3.29612 17.3566 3.29612 14.6432 4.96972 12.9696L6.9394 10.9999Z" fill="#364141"/>
</svg>
