<svg width="24" height="24" viewBox="0 0 24 24" fill="none" xmlns="http://www.w3.org/2000/svg">
<path d="M12 10C12.5523 10 13 9.55228 13 9C13 8.44772 12.5523 8 12 8C11.4477 8 11 8.44772 11 9C11 9.55228 11.4477 10 12 10Z" fill="#364141"/>
<path fill-rule="evenodd" clip-rule="evenodd" d="M19 10C19 13.866 14 21 12 21C10 21 5 13.866 5 10C5 6.13401 8.13401 3 12 3C15.866 3 19 6.13401 19 10ZM17.5 10C17.5 10.6838 17.2681 11.6446 16.8008 12.7779C16.3435 13.8868 15.7047 15.0556 14.9991 16.122C14.2907 17.1925 13.5447 18.1147 12.8918 18.7495C12.5639 19.0683 12.2912 19.2834 12.0869 19.4096C12.0534 19.4303 12.0245 19.4469 12 19.4602C11.9755 19.4469 11.9466 19.4303 11.9131 19.4096C11.7088 19.2834 11.4361 19.0683 11.1082 18.7495C10.4553 18.1147 9.70932 17.1925 9.00091 16.122C8.29525 15.0556 7.65653 13.8868 7.19922 12.7779C6.73186 11.6446 6.5 10.6838 6.5 10C6.5 6.96243 8.96243 4.5 12 4.5C15.0376 4.5 17.5 6.96243 17.5 10Z" fill="#364141"/>
</svg>
