<svg width="24" height="24" viewBox="0 0 24 24" fill="none" xmlns="http://www.w3.org/2000/svg">
<path d="M12 16C12.5523 16 13 15.5523 13 15C13 14.4477 12.5523 14 12 14C11.4477 14 11 14.4477 11 15C11 15.5523 11.4477 16 12 16Z" fill="#364141"/>
<path fill-rule="evenodd" clip-rule="evenodd" d="M7.75 7.25V11H6.5C5.67157 11 5 11.6716 5 12.5V19.5C5 20.3284 5.67157 21 6.5 21H17.5C18.3284 21 19 20.3284 19 19.5V12.5C19 11.6716 18.3284 11 17.5 11H16.25V7.25C16.25 4.90279 14.3472 3 12 3C9.65279 3 7.75 4.90279 7.75 7.25ZM12 4.5C10.4812 4.5 9.25 5.73122 9.25 7.25V11H14.75V7.25C14.75 5.73122 13.5188 4.5 12 4.5ZM6.5 12.5L6.5 19.5H17.5V12.5H6.5Z" fill="#364141"/>
</svg>
