<svg width="24" height="24" viewBox="0 0 24 24" fill="none" xmlns="http://www.w3.org/2000/svg">
<path d="M12.2266 3.23558C12.1368 3.04322 11.8633 3.04322 11.7735 3.23558L11.4021 4.0314C11.3772 4.08461 11.3345 4.12738 11.2813 4.15222L10.4854 4.52363C10.2931 4.6134 10.2931 4.88694 10.4854 4.97671L11.2813 5.34812C11.3345 5.37296 11.3772 5.41573 11.4021 5.46894L11.7735 6.26476C11.8633 6.45712 12.1368 6.45712 12.2266 6.26476L12.598 5.46894C12.6228 5.41573 12.6656 5.37296 12.7188 5.34812L13.5146 4.97671C13.707 4.88694 13.707 4.6134 13.5146 4.52363L12.7188 4.15222C12.6656 4.12738 12.6228 4.08461 12.598 4.0314L12.2266 3.23558Z" fill="#364141"/>
<path d="M6.97658 4.23558C6.8868 4.04322 6.61327 4.04322 6.52349 4.23558L5.83388 5.7132C5.80905 5.76641 5.76628 5.80918 5.71307 5.83402L4.23545 6.52363C4.04308 6.6134 4.04308 6.88694 4.23545 6.97671L5.71307 7.66632C5.76628 7.69115 5.80905 7.73392 5.83388 7.78713L6.52349 9.26476C6.61327 9.45712 6.8868 9.45712 6.97658 9.26476L7.66618 7.78713C7.69102 7.73392 7.73379 7.69115 7.787 7.66632L9.26462 6.97671C9.45698 6.88694 9.45698 6.6134 9.26462 6.52363L7.787 5.83402C7.73379 5.80918 7.69102 5.76641 7.66618 5.7132L6.97658 4.23558Z" fill="#364141"/>
<path d="M16.5235 14.2356C16.6133 14.0432 16.8868 14.0432 16.9766 14.2356L17.6662 15.7132C17.691 15.7664 17.7338 15.8092 17.787 15.834L19.2646 16.5236C19.457 16.6134 19.457 16.8869 19.2646 16.9767L17.787 17.6663C17.7338 17.6912 17.691 17.7339 17.6662 17.7871L16.9766 19.2648C16.8868 19.4571 16.6133 19.4571 16.5235 19.2648L15.8339 17.7871C15.809 17.7339 15.7663 17.6912 15.7131 17.6663L14.2354 16.9767C14.0431 16.8869 14.0431 16.6134 14.2354 16.5236L15.7131 15.834C15.7663 15.8092 15.809 15.7664 15.8339 15.7132L16.5235 14.2356Z" fill="#364141"/>
<path fill-rule="evenodd" clip-rule="evenodd" d="M19.9394 5.43957L18.5607 4.06089C17.9749 3.4751 17.0251 3.4751 16.4394 4.06089L4.06068 16.4396C3.47489 17.0254 3.47489 17.9751 4.06068 18.5609L5.43936 19.9396C6.02514 20.5254 6.97489 20.5254 7.56068 19.9396L19.9394 7.56089C20.5251 6.9751 20.5251 6.02535 19.9394 5.43957ZM5.12134 17.5002L13.5303 9.09122L14.909 10.4699L6.50002 18.8789L5.12134 17.5002ZM14.591 8.03056L15.9697 9.40924L18.8787 6.50023L17.5 5.12155L14.591 8.03056Z" fill="#364141"/>
</svg>
