<svg width="24" height="24" viewBox="0 0 24 24" fill="none" xmlns="http://www.w3.org/2000/svg">
<path d="M15.3206 10.5417C15.3206 10.4677 15.3206 10.3937 15.3149 10.3198C15.6753 10.0768 15.9899 9.77569 16.2416 9.43761C15.9098 9.56967 15.5494 9.66477 15.1776 9.70173C15.5608 9.49044 15.8526 9.15764 15.9899 8.76144C15.6352 8.95689 15.2348 9.09953 14.8172 9.17348C14.4797 8.84068 13.9991 8.63466 13.4671 8.63466C12.4431 8.63466 11.6194 9.40062 11.6194 10.3409C11.6194 10.473 11.6365 10.6051 11.6651 10.7318C10.132 10.6579 8.76481 9.98171 7.85524 8.94632C7.69505 9.19989 7.60354 9.49043 7.60354 9.80738C7.60354 10.399 7.9296 10.922 8.42729 11.2284C8.12412 11.2178 7.83807 11.1386 7.59209 11.0118V11.0329C7.59209 11.8623 8.2271 12.549 9.07374 12.7075C8.9193 12.7445 8.75339 12.7656 8.5875 12.7656C8.46735 12.7656 8.35295 12.7551 8.23853 12.7392C8.47307 13.4154 9.15383 13.9067 9.96615 13.9225C9.33116 14.3821 8.53599 14.6515 7.6722 14.6515C7.51773 14.6515 7.37473 14.6462 7.22599 14.6304C8.04404 15.1164 9.01653 15.3964 10.0634 15.3964C13.4614 15.3964 15.3206 12.7973 15.3206 10.5417Z" fill="#364141"/>
<path fill-rule="evenodd" clip-rule="evenodd" d="M11.7339 20.4677C13.8756 20.4677 15.8374 19.6968 17.3566 18.4173L19.9375 20.9982L20.9982 19.9375L18.4173 17.3566C19.6968 15.8374 20.4677 13.8756 20.4677 11.7339C20.4677 6.91029 16.5575 3 11.7339 3C6.91029 3 3 6.91029 3 11.7339C3 16.5575 6.91029 20.4677 11.7339 20.4677ZM11.7339 18.9677C15.729 18.9677 18.9677 15.729 18.9677 11.7339C18.9677 7.73871 15.729 4.5 11.7339 4.5C7.73871 4.5 4.5 7.73871 4.5 11.7339C4.5 15.729 7.73871 18.9677 11.7339 18.9677Z" fill="#364141"/>
</svg>
