<svg width="24" height="24" viewBox="0 0 24 24" fill="none" xmlns="http://www.w3.org/2000/svg">
<path fill-rule="evenodd" clip-rule="evenodd" d="M15.9114 16.9719C14.5471 18.0997 12.797 18.7773 10.8887 18.7773C6.53187 18.7773 3 15.2454 3 10.8887C3 6.53187 6.53187 3 10.8887 3C15.2454 3 18.7773 6.53187 18.7773 10.8887C18.7773 12.7969 18.0997 14.547 16.9721 15.9113L20.9981 19.9374L19.9375 20.998L15.9114 16.9719ZM17.2773 10.8887C17.2773 14.417 14.417 17.2773 10.8887 17.2773C7.3603 17.2773 4.5 14.417 4.5 10.8887C4.5 7.3603 7.3603 4.5 10.8887 4.5C14.417 4.5 17.2773 7.3603 17.2773 10.8887Z" fill="#364141"/>
</svg>
