<svg width="24" height="24" viewBox="0 0 24 24" fill="none" xmlns="http://www.w3.org/2000/svg">
<path d="M14.346 13.3432C12.8825 12.9511 11.9183 11.6256 11.9222 10.1788L13.4704 10.5937C13.616 11.2055 14.0841 11.7201 14.7342 11.8943C15.3844 12.0685 16.047 11.8569 16.479 11.3998L18.0272 11.8147C17.3072 13.0696 15.8095 13.7353 14.346 13.3432Z" fill="#364141"/>
<path d="M13.8185 7.58112C14.4854 7.7598 14.8811 8.44522 14.7024 9.11206L12.2876 8.46501C12.4663 7.79818 13.1517 7.40245 13.8185 7.58112Z" fill="#364141"/>
<path d="M17.6822 8.6164C18.3491 8.79508 18.7448 9.4805 18.5661 10.1473L16.1513 9.50028C16.33 8.83345 17.0154 8.43772 17.6822 8.6164Z" fill="#364141"/>
<path fill-rule="evenodd" clip-rule="evenodd" d="M10.5713 4.24505C10.6694 3.87918 10.9665 3.60339 11.3443 3.5766C12.246 3.51269 14.1166 3.51989 16.7857 4.23506C19.4547 4.95022 21.0783 5.87931 21.8272 6.38549C22.1411 6.5976 22.2605 6.98501 22.1624 7.35087L20.5471 13.3794C20.2009 14.6713 19.2321 15.7047 17.9652 16.1332L13.7937 17.5444C13.4113 17.6738 12.9886 17.5605 12.7221 17.2573L9.81509 13.9494C8.93222 12.9448 8.60984 11.5655 8.95599 10.2736L10.5713 4.24505ZM16.3974 5.68395C18.4754 6.24073 19.8433 6.92672 20.601 7.38254L19.0982 12.9912C18.8819 13.7986 18.2763 14.4445 17.4845 14.7123L13.6288 16.0167L10.9418 12.9592C10.39 12.3313 10.1885 11.4692 10.4049 10.6618L11.9077 5.05317C12.7918 5.03728 14.3195 5.12716 16.3974 5.68395Z" fill="#364141"/>
<path d="M6.28205 7.48748C6.89572 7.32305 7.46351 7.20036 7.9828 7.10988L7.55065 8.72267C7.27075 8.7834 6.97716 8.85414 6.67027 8.93637C4.5528 9.50375 3.25659 10.2283 2.64977 10.6285C2.63802 10.6362 2.62953 10.6459 2.62317 10.6647C2.61584 10.6863 2.61137 10.723 2.62387 10.7697L3.90263 15.5421C4.18388 16.5917 4.97109 17.4313 6.00043 17.7795L9.11691 18.8338C9.22085 18.8689 9.33558 18.8322 9.39977 18.7432L9.89178 18.0611C10.1341 17.7252 10.6029 17.6493 10.9388 17.8917C11.2747 18.134 11.3506 18.6028 11.1083 18.9387L10.6163 19.6208C10.1669 20.2437 9.36385 20.5008 8.63623 20.2547L5.51976 19.2004C4.01533 18.6915 2.86479 17.4643 2.45374 15.9303L1.17498 11.1579C1.00527 10.5245 1.20162 9.78664 1.82401 9.37623C2.55791 8.89229 4.00092 8.09871 6.28205 7.48748Z" fill="#364141"/>
<path d="M9.80386 15.2088L8.68835 13.9395C7.43158 14.4388 6.62523 15.6595 6.62879 16.9824L8.17697 16.5676C8.32258 15.9557 8.79064 15.4411 9.44079 15.2669C9.5619 15.2345 9.68345 15.2154 9.80386 15.2088Z" fill="#364141"/>
<path d="M5.00843 12.6823C5.1871 13.3491 5.87253 13.7449 6.53936 13.5662C7.20619 13.3875 7.60192 12.7021 7.42324 12.0352L5.00843 12.6823Z" fill="#364141"/>
</svg>
