<svg width="24" height="24" viewBox="0 0 24 24" fill="none" xmlns="http://www.w3.org/2000/svg">
<path fill-rule="evenodd" clip-rule="evenodd" d="M4.5 15.0001H7.75332C7.82213 17.0281 8.95677 18.876 10.7466 19.8523L10.8909 19.931L11.6091 18.6142L11.4649 18.5355C10.157 17.8221 9.32244 16.4789 9.25449 15.0001H10.5L17.2647 18.608C17.5978 18.7856 18 18.5442 18 18.1668V5.83345C18 5.45599 17.5978 5.21465 17.2647 5.39228L10.5 9.00012H4.5C3.67157 9.00012 3 9.67169 3 10.5001V13.5001C3 14.3285 3.67157 15.0001 4.5 15.0001ZM10.875 10.5001H9.25V13.5001H10.875L16.5 16.5001V7.50012L10.875 10.5001ZM4.5 10.5001H7.75V13.5001H4.5L4.5 10.5001Z" fill="#364141"/>
<path d="M19.5 9.50012V14.5001C20.3284 14.5001 21 13.8285 21 13.0001V11.0001C21 10.1717 20.3284 9.50012 19.5 9.50012Z" fill="#364141"/>
</svg>
