<svg width="24" height="24" viewBox="0 0 24 24" fill="none" xmlns="http://www.w3.org/2000/svg">
<path d="M17.25 3V4.05539C16.125 4.17974 15.25 5.1335 15.25 6.29163C15.25 7.53424 16.2573 8.54159 17.5 8.54159H18.5C18.9142 8.54159 19.25 8.87737 19.25 9.29159C19.25 9.7058 18.9142 10.0416 18.5 10.0416H17.7083C17.1791 10.0416 16.75 9.61252 16.75 9.08325H15.25C15.25 10.2843 16.1113 11.2842 17.25 11.4989V12.5833H18.75V11.5279C19.875 11.4035 20.75 10.4497 20.75 9.29159C20.75 8.04895 19.7426 7.04159 18.5 7.04159H17.5C17.0858 7.04159 16.75 6.70582 16.75 6.29163C16.75 5.87743 17.0858 5.54167 17.5 5.54167H18.5001C18.9142 5.54167 19.25 5.87742 19.25 6.29159H20.75C20.75 5.13346 19.875 4.17971 18.75 4.05539V3H17.25Z" fill="#364141"/>
<path fill-rule="evenodd" clip-rule="evenodd" d="M10.5 9.0001L13.75 7.26676V8.96676L10.875 10.5001H9.25V13.5001H10.875L16.5 16.5001V14H18V18.1668C18 18.5442 17.5978 18.7856 17.2647 18.6079L10.5 15.0001H9.25449C9.32244 16.4789 10.157 17.8221 11.4649 18.5354L11.6091 18.6141L10.8909 19.931L10.7466 19.8523C8.95677 18.876 7.82213 17.028 7.75332 15.0001H4.5C3.67157 15.0001 3 14.3285 3 13.5001V10.5001C3 9.67167 3.67157 9.0001 4.5 9.0001H10.5ZM7.75 10.5001H4.5L4.5 13.5001H7.75V10.5001Z" fill="#364141"/>
</svg>
