<svg width="24" height="24" viewBox="0 0 24 24" fill="none" xmlns="http://www.w3.org/2000/svg">
<path fill-rule="evenodd" clip-rule="evenodd" d="M8 7C8 4.79086 9.79086 3 12 3C14.2091 3 16 4.79086 16 7V10C16 12.2091 14.2091 14 12 14C9.79086 14 8 12.2091 8 10V7ZM14.5 7V10C14.5 11.3807 13.3807 12.5 12 12.5C10.6193 12.5 9.5 11.3807 9.5 10V7C9.5 5.61929 10.6193 4.5 12 4.5C13.3807 4.5 14.5 5.61929 14.5 7Z" fill="#364141"/>
<path d="M5.25 10C5.25 13.4744 7.87504 16.3357 11.25 16.7088V19.5H9.5C8.67157 19.5 8 20.1716 8 21H16C16 20.1716 15.3284 19.5 14.5 19.5H12.75V16.7088C16.125 16.3357 18.75 13.4744 18.75 10H17.25C17.25 12.8995 14.8995 15.25 12 15.25C9.10051 15.25 6.75 12.8995 6.75 10H5.25Z" fill="#364141"/>
</svg>
