<svg width="24" height="24" viewBox="0 0 24 24" fill="none" xmlns="http://www.w3.org/2000/svg">
<path d="M13 17C13 17.5523 12.5523 18 12 18C11.4477 18 11 17.5523 11 17C11 16.4477 11.4477 16 12 16C12.5523 16 13 16.4477 13 17Z" fill="#364141"/>
<path fill-rule="evenodd" clip-rule="evenodd" d="M6.5 3C5.67157 3 5 3.67157 5 4.5V19.5C5 20.3284 5.67157 21 6.5 21H17.5C18.3284 21 19 20.3284 19 19.5V4.5C19 3.67157 18.3284 3 17.5 3H6.5ZM9.25 4.5H6.5L6.5 19.5H17.5V4.5H14.75L14.4146 5.17082C14.1605 5.679 13.6411 6 13.0729 6H10.9271C10.3589 6 9.8395 5.679 9.58541 5.17082L9.25 4.5Z" fill="#364141"/>
</svg>
