<svg width="24" height="24" viewBox="0 0 24 24" fill="none" xmlns="http://www.w3.org/2000/svg">
<path fill-rule="evenodd" clip-rule="evenodd" d="M5.5 4C4.67157 4 4 4.67157 4 5.5V18.5C4 19.3284 4.67157 20 5.5 20H9.75C10.5784 20 11.25 19.3284 11.25 18.5V5.5C11.25 4.67157 10.5784 4 9.75 4H5.5ZM9.75 5.5H5.5L5.5 18.5H9.75V5.5Z" fill="#364141"/>
<path fill-rule="evenodd" clip-rule="evenodd" d="M14.25 4C13.4216 4 12.75 4.67157 12.75 5.5V8.5C12.75 9.32843 13.4216 10 14.25 10H18.5C19.3284 10 20 9.32843 20 8.5V5.5C20 4.67157 19.3284 4 18.5 4H14.25ZM18.5 5.5H14.25V8.5H18.5V5.5Z" fill="#364141"/>
<path fill-rule="evenodd" clip-rule="evenodd" d="M12.75 13C12.75 12.1716 13.4216 11.5 14.25 11.5H18.5C19.3284 11.5 20 12.1716 20 13V18.5C20 19.3284 19.3284 20 18.5 20H14.25C13.4216 20 12.75 19.3284 12.75 18.5V13ZM14.25 13H18.5V18.5H14.25V13Z" fill="#364141"/>
</svg>
