<svg width="24" height="24" viewBox="0 0 24 24" fill="none" xmlns="http://www.w3.org/2000/svg">
<path fill-rule="evenodd" clip-rule="evenodd" d="M18.639 15.4933C17.3825 17.8759 14.8799 19.5 12 19.5C7.85786 19.5 4.5 16.1422 4.5 12C4.5 8.71124 6.61727 5.91639 9.56259 4.9048C9.52123 5.26442 9.5 5.62991 9.5 6.00003C9.5 11.1258 13.5596 15.3035 18.639 15.4933ZM19.2317 13.9967C19.1547 13.9989 19.0775 14 19 14C14.5817 14 11 10.4183 11 6.00003C11 5.50479 11.045 5.02007 11.1311 4.54972C11.2289 4.01601 11.3796 3.50081 11.5776 3.00977C11.0048 3.03623 10.446 3.11623 9.90608 3.24489C5.94537 4.18865 3 7.75037 3 12C3 16.9706 7.02944 21 12 21C15.7648 21 18.9897 18.6884 20.3327 15.4071C20.544 14.8909 20.7087 14.3507 20.8216 13.7917C20.3088 13.9111 19.7771 13.9812 19.2317 13.9967Z" fill="#364141"/>
</svg>
