<svg width="24" height="24" viewBox="0 0 24 24" fill="none" xmlns="http://www.w3.org/2000/svg">
<path fill-rule="evenodd" clip-rule="evenodd" d="M9 8.25V12.75H13.5V8.25H9ZM12 9.75H10.5V11.25H12V9.75Z" fill="#364141"/>
<path d="M15 9.75H18V8.25H15V9.75Z" fill="#364141"/>
<path d="M18 12.75H15V11.25H18V12.75Z" fill="#364141"/>
<path d="M9 14.25V15.75L18 15.75V14.25L9 14.25Z" fill="#364141"/>
<path fill-rule="evenodd" clip-rule="evenodd" d="M6 6.5C6 5.67157 6.67157 5 7.5 5H19.5C20.3284 5 21 5.67157 21 6.5V17.5C21 18.3284 20.3284 19 19.5 19H6V6.5ZM7.5 6.5H19.5V17.5H7.5V6.5Z" fill="#364141"/>
<path d="M3 8.5H4.5V19C3.67157 19 3 18.3284 3 17.5V8.5Z" fill="#364141"/>
</svg>
