<svg width="24" height="24" viewBox="0 0 24 24" fill="none" xmlns="http://www.w3.org/2000/svg">
<path fill-rule="evenodd" clip-rule="evenodd" d="M4 5.5C4 4.67157 4.67157 4 5.5 4H18.5C19.3284 4 20 4.67157 20 5.5V10C20 15.5228 15.5228 20 10 20H5.5C4.67157 20 4 19.3284 4 18.5V5.5ZM10 18.5H5.5V5.5H18.5V10C18.5 10.2761 18.2761 10.5 18 10.5H14C12.067 10.5 10.5 12.067 10.5 14V18C10.5 18.2761 10.2761 18.5 10 18.5ZM18.2676 11.9822C18.1801 11.994 18.0907 12 18 12H14C12.8954 12 12 12.8954 12 14V18C12 18.0907 11.994 18.1801 11.9822 18.2676C15.0846 17.5265 17.5265 15.0846 18.2676 11.9822Z" fill="#364141"/>
</svg>
