<svg width="24" height="24" viewBox="0 0 24 24" fill="none" xmlns="http://www.w3.org/2000/svg">
<path d="M5.56152 4.47705V7.3042H6.39648V8H3.81104V7.3042H4.68994V5.28516H4.64355L3.81104 5.85889V5.0874L4.68994 4.47705H5.56152Z" fill="#364141"/>
<path d="M20 6.75H8V5.25H20V6.75Z" fill="#364141"/>
<path d="M8 12.75H20V11.25H8V12.75Z" fill="#364141"/>
<path d="M8 18.75H20V17.25H8V18.75Z" fill="#364141"/>
<path d="M3.62793 11.3306V11.3452H4.44824V11.3281C4.44824 11.0376 4.6582 10.8325 4.96094 10.8325C5.24902 10.8325 5.44189 11.0059 5.44189 11.2646C5.44189 11.4771 5.30273 11.6602 4.79248 12.1289L3.6792 13.1519V13.75H6.35742V13.0518H4.87305V13.0054L5.4541 12.4951C6.07422 11.9507 6.30859 11.5967 6.30859 11.2012C6.30859 10.5762 5.77881 10.1562 4.99268 10.1562C4.17725 10.1562 3.62793 10.6274 3.62793 11.3306Z" fill="#364141"/>
<path d="M5.00488 18.2583H4.57031V17.6406H5.00488C5.32227 17.6406 5.51514 17.4868 5.51514 17.2329C5.51514 16.979 5.32227 16.8252 5.00488 16.8252C4.69238 16.8252 4.48486 17.001 4.4751 17.272H3.69629C3.7085 16.5786 4.21387 16.1562 5.0293 16.1562C5.80811 16.1562 6.32324 16.5347 6.32324 17.106C6.32324 17.5137 6.07422 17.8213 5.68115 17.8921V17.9385C6.16455 17.9897 6.45264 18.2949 6.45264 18.7515C6.45264 19.3936 5.88379 19.8208 5.0293 19.8208C4.2041 19.8208 3.66211 19.3838 3.63037 18.6929H4.45068C4.46289 18.9492 4.67285 19.1079 5.00488 19.1079C5.34424 19.1079 5.56641 18.9395 5.56641 18.6831C5.56641 18.4268 5.34424 18.2583 5.00488 18.2583Z" fill="#364141"/>
</svg>
