<svg width="24" height="24" viewBox="0 0 24 24" fill="none" xmlns="http://www.w3.org/2000/svg">
<path fill-rule="evenodd" clip-rule="evenodd" d="M3.56068 12.4394L7.46969 8.53039L4.96969 6.03039L6.03035 4.96973L8.53035 7.46973L10.6465 5.35361C10.8417 5.15835 11.1583 5.15835 11.3536 5.35361L17.8588 11.8588C18.054 12.0541 18.054 12.3707 17.8588 12.5659L10.773 19.6517C10.1872 20.2375 9.23746 20.2375 8.65167 19.6517L3.56068 14.5607C2.97489 13.9749 2.97489 13.0252 3.56068 12.4394ZM9.96969 11.0304L8.53035 9.59105L4.62134 13.5001H14.8033L16.091 12.2124L11 7.12138L9.59101 8.53039L11.0303 9.96973L9.96969 11.0304Z" fill="#364141"/>
<path fill-rule="evenodd" clip-rule="evenodd" d="M18.25 13.8611L16.3852 15.9923C15.9757 16.4603 15.75 17.061 15.75 17.6828V17.7501C15.75 19.1308 16.8693 20.2501 18.25 20.2501C19.6307 20.2501 20.75 19.1308 20.75 17.7501V17.6828C20.75 17.061 20.5243 16.4603 20.1148 15.9923L18.25 13.8611ZM17.5141 16.9801L18.25 16.139L18.986 16.9801C19.1562 17.1746 19.25 17.4243 19.25 17.6828V17.7501C19.25 18.3023 18.8023 18.7501 18.25 18.7501C17.6977 18.7501 17.25 18.3023 17.25 17.7501V17.6828C17.25 17.4243 17.3438 17.1746 17.5141 16.9801Z" fill="#364141"/>
</svg>
