<svg width="24" height="24" viewBox="0 0 24 24" fill="none" xmlns="http://www.w3.org/2000/svg">
<path d="M13.7678 11.7678L12 13.5355L10.2322 11.7678L9.17157 12.8284L10.9393 14.5962L9.17157 16.364L10.2322 17.4246L12 15.6569L13.7678 17.4246L14.8284 16.364L13.0607 14.5962L14.8284 12.8284L13.7678 11.7678Z" fill="#364141"/>
<path fill-rule="evenodd" clip-rule="evenodd" d="M19 19.5V10.25C19 6.24594 15.7541 3 11.75 3H6.5C6.44822 3 6.39706 3.00262 6.34663 3.00774C5.59025 3.08456 5 3.72335 5 4.5V19.5C5 20.3284 5.67157 21 6.5 21H17.5C18.3284 21 19 20.3284 19 19.5ZM6.5 19.5L6.5 4.5H11C11.2761 4.5 11.5 4.72386 11.5 5V7.5C11.5 9.15685 12.8431 10.5 14.5 10.5H17C17.2761 10.5 17.5 10.7239 17.5 11V19.5H6.5ZM13 5C13 4.87314 12.9882 4.74904 12.9656 4.62874C15.1656 5.10223 16.8978 6.83443 17.3713 9.0344C17.251 9.01181 17.1269 9 17 9H14.5C13.6716 9 13 8.32843 13 7.5V5Z" fill="#364141"/>
</svg>
