<svg width="24" height="24" viewBox="0 0 24 24" fill="none" xmlns="http://www.w3.org/2000/svg">
<path d="M14.4999 3.91443V3H12.9999V6.75H16.4999V5.25H15.2557C15.721 4.78623 16.3628 4.5 17.0707 4.5C18.1595 4.5 19.092 5.17718 19.4664 6.13604L20.8637 5.59038C20.272 4.07536 18.7978 3 17.0707 3C16.0952 3 15.2005 3.34298 14.4999 3.91443Z" fill="#364141"/>
<path d="M19.4999 10.0856V11H20.9999V7.25H17.4999V8.75H18.7441C18.2788 9.21377 17.637 9.5 16.9291 9.5C15.8403 9.5 14.9078 8.82282 14.5333 7.86396L13.1361 8.40962C13.7278 9.92464 15.2019 11 16.9291 11C17.9045 11 18.7992 10.657 19.4999 10.0856Z" fill="#364141"/>
<path d="M11.1395 3.48092C11.2325 3.3239 11.3578 3.2046 11.4999 3.12303V5.8151L5.31603 16.2503H9.73417L11.5112 10.5639C11.5966 10.2906 11.9998 10.3522 11.9998 10.6385V19.1646L13.9773 16.2503H18.6836L16.4611 12.5H18.2047L20.4213 16.2405C20.8164 16.9071 20.3359 17.7503 19.561 17.7503H14.7722L12.8623 20.5649C12.4518 21.1699 11.564 21.1806 11.1391 20.5857L9.11383 17.7503H4.43854C3.66369 17.7503 3.18322 16.9071 3.57825 16.2405L11.1395 3.48092Z" fill="#364141"/>
</svg>
