<svg width="24" height="24" viewBox="0 0 24 24" fill="none" xmlns="http://www.w3.org/2000/svg">
<path fill-rule="evenodd" clip-rule="evenodd" d="M10.6202 4.55715C12.4199 2.70458 15.3942 2.70458 17.1938 4.55715C18.9212 6.33531 18.9212 9.16478 17.1938 10.9429L12.5444 15.7292C11.4288 16.8775 9.5852 16.8775 8.46969 15.7292C7.39899 14.627 7.39899 12.8731 8.46969 11.7709L12.8833 7.22746L13.9593 8.27263L9.54561 12.8161C9.04035 13.3362 9.04035 14.1639 9.54561 14.684C10.072 15.2259 10.942 15.2259 11.4684 14.684L16.1179 9.89776C17.2798 8.70167 17.2798 6.79842 16.1179 5.60233L16.6559 5.07974L16.1179 5.60233C14.9074 4.35619 12.9067 4.35619 11.6961 5.60233L6.56095 10.8886C4.74238 12.7606 4.74238 15.7395 6.56095 17.6115C8.45561 19.5619 11.587 19.5619 13.4817 17.6115L18.2262 12.7275L19.3021 13.7726L14.5576 18.6567C12.0738 21.2135 7.96879 21.2135 5.48503 18.6567C3.10102 16.2026 3.10102 12.2975 5.48503 9.84337L10.6202 4.55715Z" fill="#364141"/>
</svg>
