<svg width="24" height="24" viewBox="0 0 24 24" fill="none" xmlns="http://www.w3.org/2000/svg">
<path fill-rule="evenodd" clip-rule="evenodd" d="M19 10C19 6.13401 15.866 3 12 3H7.5C6.67157 3 6 3.67157 6 4.5V16.5C6 17.3284 6.67157 18 7.5 18H17.5C18.3284 18 19 17.3284 19 16.5V10ZM8 16.5C7.72386 16.5 7.5 16.2761 7.5 16V5C7.5 4.72386 7.72386 4.5 8 4.5H11.5C11.7761 4.5 12 4.72386 12 5V7.5C12 9.15685 13.3431 10.5 15 10.5H17C17.2761 10.5 17.5 10.7239 17.5 11V16C17.5 16.2761 17.2761 16.5 17 16.5H8ZM13.5 5C13.5 4.89831 13.4924 4.7984 13.4778 4.7008C15.498 5.26297 17.0499 6.94937 17.4171 9.04357C17.2826 9.01502 17.143 9 17 9H15C14.1716 9 13.5 8.32843 13.5 7.5V5Z" fill="#364141"/>
<path d="M3 8C3 7.06808 3.63739 6.28503 4.5 6.06301V18C4.5 18.8284 5.17157 19.5 6 19.5H15.9367C15.7143 20.3624 14.9309 20.9994 13.999 20.999L4.99896 20.9943C3.8948 20.9937 3 20.0984 3 18.9943V8Z" fill="#364141"/>
</svg>
