<svg width="24" height="24" viewBox="0 0 24 24" fill="none" xmlns="http://www.w3.org/2000/svg">
<path fill-rule="evenodd" clip-rule="evenodd" d="M19 19.5C19 20.3284 18.3284 21 17.5 21H6.5C5.67157 21 5 20.3284 5 19.5V4.5C5 3.72335 5.59025 3.08456 6.34663 3.00774C6.39706 3.00262 6.44822 3 6.5 3H11.75C15.7541 3 19 6.24594 19 10.25V19.5ZM6.5 4.5L6.5 19.5H17.5V11C17.5 10.7239 17.2761 10.5 17 10.5H14.5C12.8431 10.5 11.5 9.15685 11.5 7.5V5C11.5 4.72386 11.2761 4.5 11 4.5H6.5ZM12.9656 4.62874C12.9882 4.74904 13 4.87314 13 5V7.5C13 8.32843 13.6716 9 14.5 9H17C17.1269 9 17.251 9.01181 17.3713 9.0344C16.8978 6.83443 15.1656 5.10223 12.9656 4.62874Z" fill="#364141"/>
</svg>
