<svg width="24" height="24" viewBox="0 0 24 24" fill="none" xmlns="http://www.w3.org/2000/svg">
<path fill-rule="evenodd" clip-rule="evenodd" d="M7.25 11.5C9.59721 11.5 11.5 9.59721 11.5 7.25C11.5 4.90279 9.59721 3 7.25 3C4.90279 3 3 4.90279 3 7.25C3 9.59721 4.90279 11.5 7.25 11.5ZM7.25 10C8.76878 10 10 8.76878 10 7.25C10 5.73122 8.76878 4.5 7.25 4.5C5.73122 4.5 4.5 5.73122 4.5 7.25C4.5 8.76878 5.73122 10 7.25 10Z" fill="#364141"/>
<path fill-rule="evenodd" clip-rule="evenodd" d="M3.5 13.5V21H11V13.5H3.5ZM5 15V19.5H9.5V15H5Z" fill="#364141"/>
<path fill-rule="evenodd" clip-rule="evenodd" d="M12 11L16.5 3L21 11H12ZM16.5 6.05959L18.4352 9.5H14.5648L16.5 6.05959Z" fill="#364141"/>
</svg>
