<svg width="24" height="24" viewBox="0 0 24 24" fill="none" xmlns="http://www.w3.org/2000/svg">
<path fill-rule="evenodd" clip-rule="evenodd" d="M19.0251 5.02509L18.9749 4.97483C17.608 3.608 15.392 3.608 14.0251 4.97483L4.43934 14.5606C4.15804 14.8419 4 15.2235 4 15.6213V20H8.37868C8.7765 20 9.15804 19.8419 9.43934 19.5606L19.0251 9.97483C20.392 8.608 20.392 6.39192 19.0251 5.02509ZM17.9142 6.03549L17.9645 6.08575C18.7455 6.86679 18.7455 8.13312 17.9645 8.91417L16.9698 9.90889L14.0911 7.03021L15.0858 6.03549C15.8668 5.25444 17.1332 5.25445 17.9142 6.03549ZM13.0304 8.09087L5.5 15.6213L5.5 18.5L8.37868 18.5L15.9091 10.9695L13.0304 8.09087Z" fill="#364141"/>
</svg>
