<svg width="24" height="24" viewBox="0 0 24 24" fill="none" xmlns="http://www.w3.org/2000/svg">
<path fill-rule="evenodd" clip-rule="evenodd" d="M14.8746 7.54945C15.2923 7.06716 15.545 6.43809 15.545 5.75C15.545 4.23122 14.3138 3 12.795 3C11.2762 3 10.045 4.23122 10.045 5.75C10.045 6.30365 10.2086 6.81908 10.4901 7.25059C10.3083 7.34588 10.1373 7.46138 9.98057 7.59506L8.46353 7.21148C7.10548 6.86811 5.70636 7.6004 5.21452 8.91199L4.61156 10.5199C4.33397 11.2601 4.58716 12.0946 5.22931 12.5557L10.1075 16.0592L10.1108 16.0547L11.8 17.3671V18.8775C11.8 20.0497 12.7503 21 13.9225 21C15.0947 21 16.045 20.0497 16.045 18.8775V16.2638C16.045 15.544 15.7006 14.8676 15.1184 14.4442L13.4581 13.2367L13.8481 12.2618L14.6941 13.002C15.061 13.323 15.5319 13.5 16.0195 13.5H17.17C17.3875 13.5 17.5974 13.4673 17.795 13.4066V21H19.295V8H17.795V9.3434C17.5974 9.28268 17.3875 9.25 17.17 9.25H16.826L14.8746 7.54945ZM12.795 7C13.4853 7 14.045 6.44036 14.045 5.75C14.045 5.05964 13.4853 4.5 12.795 4.5C12.1046 4.5 11.545 5.05964 11.545 5.75C11.545 6.44036 12.1046 7 12.795 7ZM7.68121 12.4699C7.70713 12.3661 7.74069 12.2633 7.78211 12.162L9.10799 8.92163L8.09583 8.66572C7.47854 8.50964 6.84258 8.8425 6.61901 9.43868L6.01606 11.0465C5.9764 11.1523 6.01257 11.2715 6.10431 11.3374L7.68121 12.4699ZM17.795 11.375C17.795 11.0298 17.5152 10.75 17.17 10.75H16.2641L13.9273 8.71361L11.9315 8.4475C11.368 8.37236 10.8247 8.68698 10.6094 9.21317L9.17039 12.7301C9.04293 13.0416 9.1386 13.3999 9.4044 13.6064L13.3 16.6329V18.8775C13.3 19.2213 13.5787 19.5 13.9225 19.5C14.2663 19.5 14.545 19.2213 14.545 18.8775V16.2638C14.545 16.0239 14.4302 15.7984 14.2361 15.6573L11.6319 13.7633L13.2419 9.73824L15.6818 11.8731C15.7753 11.9549 15.8953 12 16.0195 12H17.17C17.5152 12 17.795 11.7202 17.795 11.375Z" fill="#364141"/>
<path d="M7.11436 15.3214C7.48915 15.4978 7.65 15.9446 7.47363 16.3193L6.39116 18.6196C6.19843 19.0291 6.49724 19.5 6.94986 19.5C7.18375 19.5 7.39756 19.3679 7.50215 19.1587L8.37419 17.4146C8.55943 17.0441 9.00994 16.8939 9.38042 17.0792C9.75091 17.2644 9.90107 17.7149 9.71583 18.0854L8.84379 19.8295C8.48511 20.5469 7.7519 21 6.94986 21C5.39772 21 4.37303 19.3853 5.03393 17.9809L6.1164 15.6807C6.29277 15.3059 6.73957 15.145 7.11436 15.3214Z" fill="#364141"/>
</svg>
