<svg width="24" height="24" viewBox="0 0 24 24" fill="none" xmlns="http://www.w3.org/2000/svg">
<path fill-rule="evenodd" clip-rule="evenodd" d="M8.60998 3.54946C8.02012 2.9596 7.09591 2.86808 6.40182 3.33081L4.44287 4.63677C4.02303 4.91666 3.75677 5.37547 3.72206 5.87886C3.17787 13.7696 9.73048 20.3222 17.6212 19.778C18.1246 19.7433 18.5834 19.477 18.8633 19.0572L20.1693 17.0982C20.632 16.4042 20.5405 15.4799 19.9506 14.8901L18.11 13.0495C17.5201 12.4596 16.5959 12.3681 15.9018 12.8308L13.9036 14.163L12.8169 13.7555C11.3972 13.2231 10.277 12.1029 9.7446 10.6831L9.3371 9.59647L10.6693 7.59824C11.132 6.90415 11.0405 5.97994 10.4506 5.39008L8.60998 3.54946ZM7.54932 4.61012C7.46505 4.52585 7.33302 4.51278 7.23387 4.57888L6.71894 4.92217L5.27492 5.88485C5.24206 5.90675 5.22122 5.94266 5.2185 5.98207C4.73695 12.9646 10.5354 18.7631 17.518 18.2816C17.5574 18.2788 17.5933 18.258 17.6152 18.2251L18.9212 16.2662C18.9873 16.167 18.9742 16.035 18.8899 15.9507L17.0493 14.1101C16.9651 14.0259 16.833 14.0128 16.7339 14.0789L14.0963 15.8372L12.2902 15.16C10.4649 14.4754 9.02462 13.0352 8.34011 11.2098L7.66282 9.40373L9.42118 6.76619C9.48728 6.66704 9.47421 6.53501 9.38994 6.45074L8.02515 5.08595L7.54932 4.61012Z" fill="#364141"/>
</svg>
