<svg width="24" height="24" viewBox="0 0 24 24" fill="none" xmlns="http://www.w3.org/2000/svg">
<path d="M17.5 8L18.2485 8.04678L18.2983 7.25H17.5V8ZM17.1758 13.1871L16.4273 13.1404L17.1758 13.1871ZM6.8242 13.1871L6.07566 13.2339L6.8242 13.1871ZM6.5 8V7.25H5.70166L5.75146 8.04678L6.5 8ZM9.75 3.75C9.75 3.33579 9.41421 3 9 3C8.58579 3 8.25 3.33579 8.25 3.75H9.75ZM15.75 3.75C15.75 3.33579 15.4142 3 15 3C14.5858 3 14.25 3.33579 14.25 3.75H15.75ZM16.7515 7.95322L16.4273 13.1404L17.9243 13.2339L18.2485 8.04678L16.7515 7.95322ZM7.57274 13.1404L7.24854 7.95322L5.75146 8.04678L6.07566 13.2339L7.57274 13.1404ZM6.5 8.75H9V7.25H6.5V8.75ZM8.25 3.75V8H9.75V3.75H8.25ZM9 8.75H15V7.25H9V8.75ZM15 8.75H17.5V7.25H15V8.75ZM14.25 3.75V8H15.75V3.75H14.25ZM14.1816 15.25H12V16.75H14.1816V15.25ZM12 15.25H9.81835V16.75H12V15.25ZM11.25 16V17.25H12.75V16H11.25ZM9 19.5H7V21H9V19.5ZM11.25 17.25C11.25 18.4926 10.2426 19.5 9 19.5V21C11.0711 21 12.75 19.3211 12.75 17.25H11.25ZM6.07566 13.2339C6.19918 15.2103 7.83812 16.75 9.81835 16.75V15.25C8.63021 15.25 7.64685 14.3262 7.57274 13.1404L6.07566 13.2339ZM16.4273 13.1404C16.3532 14.3262 15.3698 15.25 14.1816 15.25V16.75C16.1619 16.75 17.8008 15.2103 17.9243 13.2339L16.4273 13.1404Z" fill="#364141"/>
</svg>
