<svg width="24" height="24" viewBox="0 0 24 24" fill="none" xmlns="http://www.w3.org/2000/svg">
<path fill-rule="evenodd" clip-rule="evenodd" d="M11 4.5C10.3096 4.5 9.75 5.05964 9.75 5.75V7.75H5.5V10.25H6C7.51878 10.25 8.75 11.4812 8.75 13C8.75 14.5188 7.51878 15.75 6 15.75H5.5V18.5H8.25V18C8.25 16.4812 9.48122 15.25 11 15.25C12.5188 15.25 13.75 16.4812 13.75 18V18.5H16.25V14.25H18.25C18.9404 14.25 19.5 13.6904 19.5 13C19.5 12.3096 18.9404 11.75 18.25 11.75H16.25V7.75H12.25V5.75C12.25 5.05964 11.6904 4.5 11 4.5ZM8.25 5.75C8.25 4.23122 9.48122 3 11 3C12.5188 3 13.75 4.23122 13.75 5.75V6.25H16.5C17.1904 6.25 17.75 6.80964 17.75 7.5V10.25H18.25C19.7688 10.25 21 11.4812 21 13C21 14.5188 19.7688 15.75 18.25 15.75H17.75V18.75C17.75 19.4404 17.1904 20 16.5 20H12.25V18C12.25 17.3096 11.6904 16.75 11 16.75C10.3096 16.75 9.75 17.3096 9.75 18V20H5.25C4.55964 20 4 19.4404 4 18.75V14.25H6C6.69036 14.25 7.25 13.6904 7.25 13C7.25 12.3096 6.69036 11.75 6 11.75H4V7.5C4 6.80964 4.55964 6.25 5.25 6.25H8.25V5.75Z" fill="#364141"/>
</svg>
