<svg width="24" height="24" viewBox="0 0 24 24" fill="none" xmlns="http://www.w3.org/2000/svg">
<path d="M8.2 8.25H7V6.75H8.2V8.25Z" fill="#364141"/>
<path fill-rule="evenodd" clip-rule="evenodd" d="M4 5.5C4 4.67157 4.67157 4 5.5 4H9.75C10.5784 4 11.25 4.67157 11.25 5.5V9.75C11.25 10.5784 10.5784 11.25 9.75 11.25H5.5C4.67157 11.25 4 10.5784 4 9.75V5.5ZM5.5 5.5H9.75V9.75H5.5L5.5 5.5Z" fill="#364141"/>
<path d="M17 8.25H15.8V6.75H17V8.25Z" fill="#364141"/>
<path fill-rule="evenodd" clip-rule="evenodd" d="M12.75 5.5C12.75 4.67157 13.4216 4 14.25 4H18.5C19.3284 4 20 4.67157 20 5.5V9.75C20 10.5784 19.3284 11.25 18.5 11.25H14.25C13.4216 11.25 12.75 10.5784 12.75 9.75V5.5ZM14.25 5.5H18.5V9.75H14.25V5.5Z" fill="#364141"/>
<path d="M20 14.25H18.5V12.75H20V14.25Z" fill="#364141"/>
<path d="M7 17.25H8.2V15.75H7V17.25Z" fill="#364141"/>
<path fill-rule="evenodd" clip-rule="evenodd" d="M4 14.25C4 13.4216 4.67157 12.75 5.5 12.75H9.75C10.5784 12.75 11.25 13.4216 11.25 14.25V18.5C11.25 19.3284 10.5784 20 9.75 20H5.5C4.67157 20 4 19.3284 4 18.5V14.25ZM5.5 14.25H9.75V18.5H5.5L5.5 14.25Z" fill="#364141"/>
<path d="M14.5 12.75C13.6716 12.75 13 13.4216 13 14.25V17.1406H14.5V14.25H17.25V12.75H14.5Z" fill="#364141"/>
<path d="M17.25 20H13V18.5H17.25V20Z" fill="#364141"/>
<path d="M18.5 15.63H15.75V17.13H18.5V20H20V17.13C20 16.3016 19.3284 15.63 18.5 15.63Z" fill="#364141"/>
</svg>
