<svg width="24" height="24" viewBox="0 0 24 24" fill="none" xmlns="http://www.w3.org/2000/svg">
<path d="M10.3333 3.25C7.52589 3.25 5.25 5.52589 5.25 8.33333H6.75C6.75 6.35431 8.35431 4.75 10.3333 4.75H13.6667C15.6457 4.75 17.25 6.35431 17.25 8.33333C17.25 10.3124 15.6457 11.9167 13.6667 11.9167H12.8571C11.9695 11.9167 11.25 12.6362 11.25 13.5238V16.5H12.75V13.5238C12.75 13.4646 12.798 13.4167 12.8571 13.4167H13.6667C16.4741 13.4167 18.75 11.1408 18.75 8.33333C18.75 5.52589 16.4741 3.25 13.6667 3.25H10.3333Z" fill="#364141"/>
<path d="M12 21C12.5523 21 13 20.5523 13 20C13 19.4477 12.5523 19 12 19C11.4477 19 11 19.4477 11 20C11 20.5523 11.4477 21 12 21Z" fill="#364141"/>
</svg>
