<svg width="24" height="24" viewBox="0 0 24 24" fill="none" xmlns="http://www.w3.org/2000/svg">
<path fill-rule="evenodd" clip-rule="evenodd" d="M11.25 5.81067L5.06065 12L11.25 18.1894V14.25H16.5C17.5487 14.25 18.5088 14.6299 19.25 15.2595V13C19.25 11.2051 17.7949 9.75001 16 9.75001H11.25V5.81067ZM20.75 18.5H19.25C19.25 16.9812 18.0188 15.75 16.5 15.75H12.75V19.3965C12.75 20.2874 11.6728 20.7335 11.0429 20.1036L2.93933 12L11.0429 3.89646C11.6729 3.26649 12.75 3.71267 12.75 4.60357V8.25001H16C18.6233 8.25001 20.75 10.3767 20.75 13V18.5ZM12.1035 19.0429C12.1033 19.0427 12.1037 19.0431 12.1035 19.0429V19.0429Z" fill="#364141"/>
</svg>
