<svg width="24" height="24" viewBox="0 0 24 24" fill="none" xmlns="http://www.w3.org/2000/svg">
<path d="M15.5 4.75C16.7426 4.75 17.75 5.75736 17.75 7V12.1893L19.9696 9.96967L21.0303 11.0303L17 15.0607L12.9696 11.0303L14.0303 9.96967L16.25 12.1893V7C16.25 6.58579 15.9142 6.25 15.5 6.25H6.49998V4.75H15.5Z" fill="#364141"/>
<path d="M17.5001 19.25L8.50006 19.25C7.25742 19.25 6.25006 18.2426 6.25006 17L6.25006 11.8107L4.03039 14.0303L2.96973 12.9697L7.00006 8.93934L11.0304 12.9697L9.96973 14.0303L7.75006 11.8107L7.75006 17C7.75006 17.4142 8.08584 17.75 8.50006 17.75L17.5001 17.75V19.25Z" fill="#364141"/>
</svg>
