<svg width="24" height="24" viewBox="0 0 24 24" fill="none" xmlns="http://www.w3.org/2000/svg">
<path d="M10.5 10C10.5 10.5523 10.0523 11 9.5 11C8.94772 11 8.5 10.5523 8.5 10C8.5 9.44772 8.94772 9 9.5 9C10.0523 9 10.5 9.44772 10.5 10Z" fill="#364141"/>
<path d="M14.5 11C15.0523 11 15.5 10.5523 15.5 10C15.5 9.44772 15.0523 9 14.5 9C13.9477 9 13.5 9.44772 13.5 10C13.5 10.5523 13.9477 11 14.5 11Z" fill="#364141"/>
<path d="M12 15.75C10.2752 15.75 8.82242 14.5856 8.3848 13H9.98387C10.352 13.7409 11.1166 14.25 12 14.25C12.8834 14.25 13.6479 13.7409 14.0161 13H15.6152C15.1776 14.5856 13.7248 15.75 12 15.75Z" fill="#364141"/>
<path fill-rule="evenodd" clip-rule="evenodd" d="M16 5H12.75V3H11.25V5H8C6.34315 5 5 6.34315 5 8V16C5 17.6569 6.34315 19 8 19H16C17.6569 19 19 17.6569 19 16V8C19 6.34315 17.6569 5 16 5ZM16 6.5H8C7.17157 6.5 6.5 7.17157 6.5 8V16C6.5 16.8284 7.17157 17.5 8 17.5H16C16.8284 17.5 17.5 16.8284 17.5 16V8C17.5 7.17157 16.8284 6.5 16 6.5Z" fill="#364141"/>
<path d="M21.5 10.5V13.5C21.5 14.3284 20.8284 15 20 15V9C20.8284 9 21.5 9.67157 21.5 10.5Z" fill="#364141"/>
<path d="M2.5 13.5V10.5C2.5 9.67157 3.17157 9 4 9V15C3.17157 15 2.5 14.3284 2.5 13.5Z" fill="#364141"/>
</svg>
