<svg width="24" height="24" viewBox="0 0 24 24" fill="none" xmlns="http://www.w3.org/2000/svg">
<path d="M20.6778 20C20.8888 19.0335 21 18.0297 21 17C21 9.26801 14.732 3 7 3C5.97025 3 4.96647 3.11118 4 3.32218V4.86232C4.96106 4.62558 5.96586 4.5 7 4.5C13.9036 4.5 19.5 10.0964 19.5 17C19.5 18.0341 19.3744 19.0389 19.1377 20H20.6778Z" fill="#364141"/>
<path d="M15.8 20C15.9311 19.3538 16 18.6849 16 18C16 12.4772 11.5228 8.00001 6 8.00001C5.31507 8.00001 4.64622 8.06887 4 8.20004V9.73664C4.64138 9.58195 5.31112 9.50001 6 9.50001C10.6944 9.50001 14.5 13.3056 14.5 18C14.5 18.6889 14.4181 19.3586 14.2634 20H15.8Z" fill="#364141"/>
<path fill-rule="evenodd" clip-rule="evenodd" d="M7 20C8.65685 20 10 18.6569 10 17C10 15.3431 8.65685 14 7 14C5.34315 14 4 15.3431 4 17C4 18.6569 5.34315 20 7 20ZM7 18.5C7.82843 18.5 8.5 17.8284 8.5 17C8.5 16.1716 7.82843 15.5 7 15.5C6.17157 15.5 5.5 16.1716 5.5 17C5.5 17.8284 6.17157 18.5 7 18.5Z" fill="#364141"/>
</svg>
