<svg width="24" height="24" viewBox="0 0 24 24" fill="none" xmlns="http://www.w3.org/2000/svg">
<path fill-rule="evenodd" clip-rule="evenodd" d="M10.5 9H8.75V13C9.57843 13 10.25 13.6716 10.25 14.5V19.5C10.25 20.3284 9.57843 21 8.75 21H7.25C6.42157 21 5.75 20.3284 5.75 19.5V14.5C5.75 13.6716 6.42157 13 7.25 13V9H5.5L7 3H9L10.5 9ZM8 5.18466L7.42116 7.5H8.57884L8 5.18466ZM7.25 19.5V14.5H8.75V19.5H7.25Z" fill="#364141"/>
<path fill-rule="evenodd" clip-rule="evenodd" d="M19.7494 9.5H18.2494L18.25 8.54057L17.8953 8.42233C17.6387 8.3368 17.3613 8.3368 17.1047 8.42233L16.75 8.54057V13C17.5784 13 18.25 13.6716 18.25 14.5V19.5C18.25 20.3284 17.5784 21 16.75 21H15.25C14.4216 21 13.75 20.3284 13.75 19.5V14.5C13.75 13.6716 14.4216 13 15.25 13V8.75H13.5C12.8096 8.75 12.25 8.19036 12.25 7.5V4.5C12.25 3.80964 12.8096 3.25 13.5 3.25H15.5C16.1047 3.25 16.6092 3.67944 16.725 4.25H17C18.5188 4.25 19.75 5.48122 19.75 7L19.7494 9.5ZM13.75 4.75V7.25H15.8783L16.6304 6.99931C17.155 6.82443 17.7192 6.81208 18.2494 6.96227C18.2295 6.28937 17.6777 5.75 17 5.75H16.5C15.8953 5.75 15.3908 5.32056 15.275 4.75H13.75ZM15.25 19.5V14.5H16.75V19.5H15.25Z" fill="#364141"/>
</svg>
