<svg width="24" height="24" viewBox="0 0 24 24" fill="none" xmlns="http://www.w3.org/2000/svg">
<path d="M13.25 8.08196V7.75C13.25 7.05964 12.6904 6.5 12 6.5C11.3096 6.5 10.75 7.05964 10.75 7.75V8.08196C10.75 8.35595 10.8212 8.62524 10.9565 8.86347L12 10.7L13.0435 8.86347C13.1788 8.62524 13.25 8.35595 13.25 8.08196Z" fill="#364141"/>
<path d="M13.25 16.45V16.118C13.25 15.844 13.1788 15.5747 13.0435 15.3365L12 13.5L10.9565 15.3365C10.8212 15.5747 10.75 15.844 10.75 16.118V16.45C10.75 17.1403 11.3096 17.7 12 17.7C12.6904 17.7 13.25 17.1403 13.25 16.45Z" fill="#364141"/>
<path d="M9.14527 9.00849L8.85779 8.8425C8.25992 8.49733 7.49543 8.70217 7.15025 9.30004C6.80508 9.8979 7.00992 10.6624 7.60779 11.0076L7.89527 11.1735C8.13255 11.3105 8.40135 11.3836 8.67533 11.3855L10.7876 11.4L9.71882 9.57808C9.58019 9.34175 9.38255 9.14548 9.14527 9.00849Z" fill="#364141"/>
<path d="M16.3922 13.1925L16.1047 13.0265C15.8674 12.8895 15.5986 12.8165 15.3246 12.8146L13.2124 12.8L14.2811 14.622C14.4198 14.8583 14.6174 15.0546 14.8547 15.1916L15.1422 15.3575C15.74 15.7027 16.5045 15.4979 16.8497 14.9C17.1949 14.3021 16.99 13.5377 16.3922 13.1925Z" fill="#364141"/>
<path d="M16.1047 11.1736L16.3922 11.0076C16.9901 10.6624 17.1949 9.89793 16.8497 9.30006C16.5046 8.7022 15.7401 8.49735 15.1422 8.84253L14.8547 9.00851C14.6174 9.1455 14.4198 9.34178 14.2812 9.57811L13.2124 11.4001L15.3247 11.3855C15.5987 11.3836 15.8674 11.3106 16.1047 11.1736Z" fill="#364141"/>
<path d="M8.85783 15.3574L9.14532 15.1915C9.3826 15.0545 9.58023 14.8582 9.71886 14.6219L10.7876 12.7999L8.67538 12.8145C8.40139 12.8164 8.1326 12.8894 7.89532 13.0264L7.60783 13.1924C7.00996 13.5376 6.80512 14.302 7.1503 14.8999C7.49548 15.4978 8.25996 15.7026 8.85783 15.3574Z" fill="#364141"/>
<path fill-rule="evenodd" clip-rule="evenodd" d="M12 21C16.9706 21 21 16.9706 21 12C21 7.02944 16.9706 3 12 3C7.02944 3 3 7.02944 3 12C3 16.9706 7.02944 21 12 21ZM12 19.5C16.1421 19.5 19.5 16.1421 19.5 12C19.5 7.85786 16.1421 4.5 12 4.5C7.85786 4.5 4.5 7.85786 4.5 12C4.5 16.1421 7.85786 19.5 12 19.5Z" fill="#364141"/>
</svg>
