<svg width="24" height="24" viewBox="0 0 24 24" fill="none" xmlns="http://www.w3.org/2000/svg">
<path fill-rule="evenodd" clip-rule="evenodd" d="M7.75 7.75V7.25C7.75 4.90279 9.65279 3 12 3C14.3472 3 16.25 4.90279 16.25 7.25V7.75H18.5C19.1904 7.75 19.75 8.30964 19.75 9V16.25C19.75 18.8734 17.6234 21 15 21H9C6.37665 21 4.25 18.8734 4.25 16.25V9C4.25 8.30964 4.80964 7.75 5.5 7.75H7.75ZM9.25 7.25C9.25 5.73122 10.4812 4.5 12 4.5C13.5188 4.5 14.75 5.73122 14.75 7.25V7.75H9.25V7.25ZM5.75 16.25V9.25H18.25V16.25C18.25 18.0449 16.7949 19.5 15 19.5H9C7.20507 19.5 5.75 18.0449 5.75 16.25Z" fill="#364141"/>
</svg>
