<svg width="24" height="24" viewBox="0 0 24 24" fill="none" xmlns="http://www.w3.org/2000/svg">
<path d="M17.9767 3.23558C17.8869 3.04322 17.6134 3.04322 17.5236 3.23558L16.6749 5.0541C16.65 5.10731 16.6073 5.15008 16.5541 5.17492L14.7355 6.02363C14.5432 6.1134 14.5432 6.38693 14.7355 6.47671L16.5541 7.32542C16.6073 7.35025 16.65 7.39302 16.6749 7.44623L17.5236 9.26476C17.6134 9.45712 17.8869 9.45712 17.9767 9.26476L18.8254 7.44623C18.8502 7.39302 18.893 7.35025 18.9462 7.32542L20.7647 6.47671C20.9571 6.38693 20.9571 6.1134 20.7647 6.02363L18.9462 5.17492C18.893 5.15008 18.8502 5.10731 18.8254 5.0541L17.9767 3.23558Z" fill="#364141"/>
<path fill-rule="evenodd" clip-rule="evenodd" d="M10.1031 5.82105C10.4697 5.07694 11.5307 5.07694 11.8973 5.82105L13.8626 9.8105C13.9663 10.021 14.1407 10.1883 14.3553 10.2832L18.4316 12.0855C19.2258 12.4366 19.2258 13.5636 18.4316 13.9147L14.3553 15.717C14.1407 15.8119 13.9663 15.9792 13.8626 16.1897L11.8973 20.1791C11.5307 20.9232 10.4697 20.9232 10.1031 20.1791L8.13782 16.1897C8.03413 15.9792 7.85974 15.8119 7.64514 15.717L3.56877 13.9147C2.7746 13.5636 2.7746 12.4366 3.56877 12.0855L7.64514 10.2832C7.85974 10.1883 8.03413 10.021 8.13782 9.8105L10.1031 5.82105ZM9.48341 10.4734L11.0002 7.3944L12.517 10.4734C12.7762 10.9996 13.2122 11.4179 13.7487 11.6551L16.7908 13.0001L13.7487 14.3451C13.2122 14.5823 12.7762 15.0006 12.517 15.5268L11.0002 18.6058L9.48341 15.5268C9.22419 15.0006 8.78819 14.5823 8.25171 14.3451L5.20962 13.0001L8.25171 11.6551C8.78819 11.4179 9.22419 10.9996 9.48341 10.4734Z" fill="#364141"/>
</svg>
