<svg width="24" height="24" viewBox="0 0 24 24" fill="none" xmlns="http://www.w3.org/2000/svg">
<path d="M9.46967 13.4697L15.1893 7.75H11V6.25L17.75 6.25L17.75 13H16.25L16.25 8.81066L10.5303 14.5303L9.46967 13.4697Z" fill="#364141"/>
<path fill-rule="evenodd" clip-rule="evenodd" d="M7.5 3C6.67157 3 6 3.67157 6 4.5V16.5C6 17.3284 6.67157 18 7.5 18H19.5C20.3284 18 21 17.3284 21 16.5V4.5C21 3.67157 20.3284 3 19.5 3H7.5ZM19.5 4.5H7.5V16.5H19.5V4.5Z" fill="#364141"/>
<path d="M4.5 7.06299C3.63739 7.28501 3 8.06806 3 8.99998V18.9945C3 20.0988 3.89492 20.9941 4.99916 20.9945L15.4989 20.9989C16.5241 20.9994 17.4053 20.3827 17.7915 19.5H6C5.17157 19.5 4.5 18.8284 4.5 18V7.06299Z" fill="#364141"/>
</svg>
