<svg width="24" height="24" viewBox="0 0 24 24" fill="none" xmlns="http://www.w3.org/2000/svg">
<path d="M7.5 4H14.25V5.5H10.5V9.75C10.5 11.2688 9.26878 12.5 7.75 12.5C6.50736 12.5 5.5 13.5074 5.5 14.75V15.5H18.5V14.75C18.5 13.5074 17.4926 12.5 16.25 12.5H14.25V11H16.25C18.3211 11 20 12.6789 20 14.75V17H4V14.75C4 12.6789 5.67893 11 7.75 11C8.44036 11 9 10.4404 9 9.75V5.5H7.5V4Z" fill="#364141"/>
<path d="M5 18.5H19C19 19.3284 18.3283 19.9999 17.4999 19.9999L6.49925 19.9988C5.67142 19.9987 5.00033 19.3278 5 18.5Z" fill="#364141"/>
<path d="M18.3002 9.54812L15.5017 7.06056L16.4983 5.93944L18.1998 7.45188L20.9504 4.48966L22.0496 5.51034L18.3002 9.54812Z" fill="#364141"/>
</svg>
