<svg width="24" height="24" viewBox="0 0 24 24" fill="none" xmlns="http://www.w3.org/2000/svg">
<path fill-rule="evenodd" clip-rule="evenodd" d="M9 5.5V9C9 10.1046 8.10457 11 7 11C5.34315 11 4 12.3431 4 14V17H20V14C20 12.3431 18.6569 11 17 11C15.8954 11 15 10.1046 15 9V5.5H16.5V4H7.5V5.5H9ZM10.5 5.5V9C10.5 10.933 8.933 12.5 7 12.5C6.17157 12.5 5.5 13.1716 5.5 14V15.5H18.5V14C18.5 13.1716 17.8284 12.5 17 12.5C15.067 12.5 13.5 10.933 13.5 9V5.5H10.5Z" fill="#364141"/>
<path d="M19 18.5H5C5.00033 19.3278 5.67142 19.9987 6.49925 19.9988L17.4999 19.9999C18.3283 19.9999 19 19.3284 19 18.5Z" fill="#364141"/>
</svg>
