<svg width="24" height="24" viewBox="0 0 24 24" fill="none" xmlns="http://www.w3.org/2000/svg">
<path fill-rule="evenodd" clip-rule="evenodd" d="M11.9999 4.98032L10.285 7.92456C9.93179 8.53106 9.33985 8.96113 8.65387 9.10968L5.32381 9.83079L7.59402 12.3715C8.06168 12.8949 8.28778 13.5908 8.21708 14.2891L7.87385 17.679L10.9918 16.3051C11.6341 16.022 12.3657 16.022 13.008 16.3051L16.126 17.679L15.7827 14.2891C15.712 13.5908 15.9381 12.8949 16.4058 12.3715L18.676 9.83079L15.346 9.10968C14.66 8.96113 14.068 8.53106 13.7148 7.92456L11.9999 4.98032ZM12.864 3.48358C12.4783 2.82131 11.5215 2.82131 11.1358 3.48358L8.98888 7.16961C8.84758 7.41221 8.6108 7.58424 8.33641 7.64366L4.16735 8.54645C3.41829 8.70866 3.12264 9.61858 3.6333 10.1901L6.47549 13.371C6.66255 13.5803 6.75299 13.8587 6.72471 14.138L6.29501 18.382C6.2178 19.1445 6.99183 19.7069 7.69317 19.3978L11.5967 17.6777C11.8536 17.5645 12.1462 17.5645 12.4032 17.6777L16.3066 19.3978C17.008 19.7069 17.782 19.1445 17.7048 18.382L17.2751 14.138C17.2468 13.8587 17.3373 13.5803 17.5243 13.371L20.3665 10.1901C20.8772 9.61858 20.5815 8.70866 19.8325 8.54645L15.6634 7.64366C15.389 7.58424 15.1522 7.41221 15.0109 7.16961L12.864 3.48358Z" fill="#364141"/>
</svg>
