<svg width="24" height="24" viewBox="0 0 24 24" fill="none" xmlns="http://www.w3.org/2000/svg">
<path d="M12 3C13.3367 3 14.6567 3.29777 15.864 3.87167C17.0712 4.44557 18.1355 5.28119 18.9795 6.31782C19.8234 7.35446 20.4259 8.56607 20.743 9.86464C21.0602 11.1632 21.0841 12.5161 20.813 13.8251C20.5419 15.134 19.9827 16.3662 19.1759 17.432C18.3691 18.4978 17.335 19.3705 16.1488 19.9867C14.9625 20.6029 13.6539 20.9471 12.318 20.9944C10.9821 21.0416 9.65247 20.7907 8.42567 20.2598L9.01901 18.8887C10.0422 19.3314 11.1511 19.5407 12.2652 19.5013C13.3794 19.4619 14.4708 19.1748 15.4601 18.6609C16.4494 18.147 17.3118 17.4192 17.9847 16.5303C18.6576 15.6414 19.124 14.6138 19.35 13.5221C19.5761 12.4304 19.5562 11.3021 19.2917 10.2191C19.0272 9.1361 18.5247 8.12562 17.8209 7.26107C17.117 6.39651 16.2294 5.6996 15.2225 5.22097C14.2157 4.74234 13.1148 4.494 12 4.494V3Z" fill="#364141"/>
<path d="M5.63604 18.364C4.59794 17.3259 3.82954 16.0496 3.39786 14.6464C2.96618 13.2432 2.88432 11.7557 3.15942 10.3136L4.62695 10.5935C4.39752 11.7962 4.4658 13.0368 4.82582 14.2071C5.18584 15.3773 5.82668 16.4418 6.69246 17.3075L5.63604 18.364Z" fill="#364141"/>
<path d="M8.02644 3.92468C6.66624 4.59398 5.49715 5.59602 4.62763 6.83781L5.85145 7.69473C6.57662 6.65908 7.55165 5.82338 8.68605 5.26518L8.02644 3.92468Z" fill="#364141"/>
</svg>
