<svg width="24" height="24" viewBox="0 0 24 24" fill="none" xmlns="http://www.w3.org/2000/svg">
<path d="M6.75 7.80614C6.75 5.70407 8.45407 4 10.5561 4H12.25C14.4591 4 16.25 5.79086 16.25 8H14.75C14.75 6.61929 13.6307 5.5 12.25 5.5H10.5561C9.28249 5.5 8.25 6.53249 8.25 7.80614C8.25 8.60128 8.65962 9.34032 9.33389 9.76174L13.3151 12.25H20V13.75H4V12.25H10.4849L8.53889 11.0337C7.42605 10.3382 6.75 9.11846 6.75 7.80614Z" fill="#364141"/>
<path d="M14.548 15.25C14.6792 15.5424 14.75 15.8633 14.75 16.1939C14.75 17.4675 13.7175 18.5 12.4439 18.5H10.75C9.36929 18.5 8.25 17.3807 8.25 16H6.75C6.75 18.2091 8.54086 20 10.75 20H12.4439C14.5459 20 16.25 18.2959 16.25 16.1939C16.25 15.8715 16.2092 15.5548 16.1312 15.25H14.548Z" fill="#364141"/>
</svg>
