<svg width="24" height="24" viewBox="0 0 24 24" fill="none" xmlns="http://www.w3.org/2000/svg">
<path d="M11.25 6V3H12.75V6H11.25Z" fill="#364141"/>
<path d="M11.25 21V18H12.75V21H11.25Z" fill="#364141"/>
<path fill-rule="evenodd" clip-rule="evenodd" d="M12 16C14.2091 16 16 14.2091 16 12C16 9.79086 14.2091 8 12 8C9.79086 8 8 9.79086 8 12C8 14.2091 9.79086 16 12 16ZM12 14.5C13.3807 14.5 14.5 13.3807 14.5 12C14.5 10.6193 13.3807 9.5 12 9.5C10.6193 9.5 9.5 10.6193 9.5 12C9.5 13.3807 10.6193 14.5 12 14.5Z" fill="#364141"/>
<path d="M21 11.25H18V12.75H21V11.25Z" fill="#364141"/>
<path d="M6 11.25H3V12.75H6V11.25Z" fill="#364141"/>
<path d="M18.8943 17.8337L17.8336 18.8943L15.7123 16.773L16.773 15.7124L18.8943 17.8337Z" fill="#364141"/>
<path d="M8.28769 7.22708L7.22703 8.28774L5.10571 6.16642L6.16637 5.10576L8.28769 7.22708Z" fill="#364141"/>
<path d="M17.8336 5.10566L15.7123 7.22698L16.773 8.28764L18.8943 6.16632L17.8336 5.10566Z" fill="#364141"/>
<path d="M8.28769 16.7729L7.22703 15.7123L5.10571 17.8336L6.16637 18.8942L8.28769 16.7729Z" fill="#364141"/>
</svg>
