<svg width="24" height="24" viewBox="0 0 24 24" fill="none" xmlns="http://www.w3.org/2000/svg">
<path fill-rule="evenodd" clip-rule="evenodd" d="M15.5 3.25V4.75H18.1893L14.3911 8.54824C13.1902 7.57979 11.6628 7 10 7C6.13401 7 3 10.134 3 14C3 17.866 6.13401 21 10 21C13.866 21 17 17.866 17 14C17 12.3372 16.4202 10.8098 15.4518 9.6089L19.25 5.81066V8.5H20.75V3.25H15.5ZM15.5 14C15.5 17.0376 13.0376 19.5 10 19.5C6.96243 19.5 4.5 17.0376 4.5 14C4.5 10.9624 6.96243 8.5 10 8.5C13.0376 8.5 15.5 10.9624 15.5 14Z" fill="#364141"/>
</svg>
