<svg width="24" height="24" viewBox="0 0 24 24" fill="none" xmlns="http://www.w3.org/2000/svg">
<path fill-rule="evenodd" clip-rule="evenodd" d="M18.5 9.5C18.5 12.8362 15.9866 15.5853 12.75 15.9572V17.75H15V19.25H12.75V21H11.25V19.25H9V17.75H11.25V15.9572C8.01342 15.5853 5.5 12.8362 5.5 9.5C5.5 5.91015 8.41015 3 12 3C15.5899 3 18.5 5.91015 18.5 9.5ZM12 14.5C14.7614 14.5 17 12.2614 17 9.5C17 6.73858 14.7614 4.5 12 4.5C9.23858 4.5 7 6.73858 7 9.5C7 12.2614 9.23858 14.5 12 14.5Z" fill="#364141"/>
</svg>
