<svg width="24" height="24" viewBox="0 0 24 24" fill="none" xmlns="http://www.w3.org/2000/svg">
<path fill-rule="evenodd" clip-rule="evenodd" d="M3 12C3 7.02944 7.02944 3 12 3H12.1719C17.0475 3 21 6.95249 21 11.8281V13C21 14.7949 19.5449 16.25 17.75 16.25C16.6903 16.25 15.7491 15.7429 15.1558 14.9581C14.4238 15.8965 13.2824 16.5 12 16.5C9.79086 16.5 8 14.7091 8 12.5V11.5C8 9.29086 9.79086 7.5 12 7.5C14.2091 7.5 16 9.29086 16 11.5V13C16 13.9665 16.7835 14.75 17.75 14.75C18.7165 14.75 19.5 13.9665 19.5 13V11.8281C19.5 7.78091 16.2191 4.5 12.1719 4.5H12C7.85786 4.5 4.5 7.85786 4.5 12C4.5 16.1421 7.85786 19.5 12 19.5C13.2996 19.5 14.5221 19.1694 15.5878 18.5878L16.6856 19.6856C15.3208 20.5194 13.7165 21 12 21C7.02944 21 3 16.9706 3 12ZM12 9C13.3807 9 14.5 10.1193 14.5 11.5V12.5C14.5 13.8807 13.3807 15 12 15C10.6193 15 9.5 13.8807 9.5 12.5V11.5C9.5 10.1193 10.6193 9 12 9Z" fill="#364141"/>
</svg>
