<svg width="24" height="24" viewBox="0 0 24 24" fill="none" xmlns="http://www.w3.org/2000/svg">
<path d="M9 10C9.55228 10 10 9.55228 10 9C10 8.44772 9.55228 8 9 8C8.44772 8 8 8.44772 8 9C8 9.55228 8.44772 10 9 10Z" fill="#364141"/>
<path fill-rule="evenodd" clip-rule="evenodd" d="M4.43934 13.4393L11.3358 20.3358C12.1168 21.1168 13.3832 21.1168 14.1642 20.3358L20.3358 14.1642C21.1168 13.3832 21.1168 12.1168 20.3358 11.3358L13.4393 4.43934C13.158 4.15804 12.7765 4 12.3787 4H6C4.89543 4 4 4.89543 4 6V12.3787C4 12.7765 4.15804 13.158 4.43934 13.4393ZM12.3787 5.5L19.2751 12.3964C19.4704 12.5917 19.4704 12.9083 19.2751 13.1036L13.1036 19.2751C12.9083 19.4704 12.5917 19.4704 12.3964 19.2751L5.5 12.3787L5.5 6C5.5 5.72386 5.72386 5.5 6 5.5L12.3787 5.5Z" fill="#364141"/>
</svg>
