<svg width="24" height="24" viewBox="0 0 24 24" fill="none" xmlns="http://www.w3.org/2000/svg">
<path fill-rule="evenodd" clip-rule="evenodd" d="M7 8.5C7.82843 8.5 8.5 7.82843 8.5 7C8.5 6.17157 7.82843 5.5 7 5.5C6.17157 5.5 5.5 6.17157 5.5 7C5.5 7.82843 6.17157 8.5 7 8.5ZM7.75 9.90549C9.04392 9.57245 10 8.39788 10 7C10 5.34315 8.65685 4 7 4C5.34315 4 4 5.34315 4 7C4 8.39788 4.95608 9.57245 6.25 9.90549V14.0945C4.95608 14.4275 4 15.6021 4 17C4 18.6569 5.34315 20 7 20C8.65685 20 10 18.6569 10 17C10 15.6021 9.04392 14.4275 7.75 14.0945V9.90549ZM7 18.5C7.82843 18.5 8.5 17.8284 8.5 17C8.5 16.1716 7.82843 15.5 7 15.5C6.17157 15.5 5.5 16.1716 5.5 17C5.5 17.8284 6.17157 18.5 7 18.5ZM12 6.25H20V4.75H12V6.25ZM12 9.25H16V7.75H12V9.25ZM16 19.25H12V17.75H16V19.25ZM20 16.25H12V14.75H20V16.25Z" fill="#364141"/>
</svg>
