<svg width="24" height="24" viewBox="0 0 24 24" fill="none" xmlns="http://www.w3.org/2000/svg">
<path fill-rule="evenodd" clip-rule="evenodd" d="M11.166 21C10.744 21 10.3694 20.73 10.236 20.3298L7.95943 13.5H6V5.09341L16.2108 3.73196C17.5498 3.55343 18.8201 4.37379 19.2083 5.66763L20.7529 10.8162C21.3784 12.9014 19.817 15 17.6399 15H14.0406L14.4991 16.3756C15.2574 18.6506 13.5641 21 11.166 21ZM9.26849 12.6838L11.5298 19.4677C12.705 19.2557 13.4712 18.0352 13.0761 16.8499L12.3982 14.8163C12.1823 14.1687 12.6643 13.5 13.3469 13.5H17.6399C18.8122 13.5 19.653 12.37 19.3161 11.2472L17.7716 6.09865C17.5951 5.51055 17.0177 5.13765 16.4091 5.2188L7.5 6.40668V12H8.31981C8.75024 12 9.13238 12.2755 9.26849 12.6838Z" fill="#364141"/>
<path d="M3 13.5V5.25004H4.5V13.5H3Z" fill="#364141"/>
</svg>
