<svg width="24" height="24" viewBox="0 0 24 24" fill="none" xmlns="http://www.w3.org/2000/svg">
<path fill-rule="evenodd" clip-rule="evenodd" d="M6.75746 11.8778L8.53942 4.75H7V3.25H17V4.75H15.4606L17.2425 11.8778C17.4441 12.6843 18.1687 13.25 19 13.25V14.75H12.75V20L12.2122 20.8628C12.1143 21.0198 11.8857 21.0198 11.7878 20.8628L11.25 20V14.75H5V13.25C5.83126 13.25 6.55585 12.6843 6.75746 11.8778ZM10.0856 4.75H13.9144L15.7873 12.2416C15.8789 12.608 16.0295 12.9471 16.2275 13.25H7.77249C7.7962 13.2137 7.81922 13.177 7.84154 13.1397C8.00569 12.8655 8.13206 12.5641 8.21268 12.2416L10.0856 4.75Z" fill="#364141"/>
</svg>
