<svg width="24" height="24" viewBox="0 0 24 24" fill="none" xmlns="http://www.w3.org/2000/svg">
<path d="M15 3.25V4.75H10.0856L8.21268 12.2416C8.12109 12.608 7.97047 12.9471 7.77249 13.25H16.2275C16.0295 12.9471 15.8789 12.608 15.7873 12.2416L15.5224 11.1819L16.9776 10.8181L17.2425 11.8778C17.4441 12.6843 18.1687 13.25 19 13.25V14.75H12.75V20L12.2122 20.8628C12.1143 21.0198 11.8857 21.0198 11.7878 20.8628L11.25 20V14.75H5V13.25C5.83126 13.25 6.55585 12.6843 6.75746 11.8778L8.53942 4.75H7V3.25H15Z" fill="#364141"/>
<path d="M18.3002 9.54812L15.5017 7.06056L16.4983 5.93944L18.1998 7.45188L20.9504 4.48966L22.0496 5.51034L18.3002 9.54812Z" fill="#364141"/>
</svg>
