<svg width="24" height="24" viewBox="0 0 24 24" fill="none" xmlns="http://www.w3.org/2000/svg">
<path fill-rule="evenodd" clip-rule="evenodd" d="M11.166 3.25C10.744 3.25 10.3694 3.52 10.236 3.92029L7.95943 10.75H6V19.1566L16.2108 20.5181C17.5498 20.6966 18.8201 19.8762 19.2083 18.5824L20.7529 13.4339C21.3784 11.3486 19.817 9.25 17.6399 9.25H14.0406L14.4991 7.87444C15.2574 5.5994 13.5641 3.25 11.166 3.25ZM9.26849 11.5662L11.5298 4.7823C12.705 4.99429 13.4712 6.21481 13.0761 7.4001L12.3982 9.43377C12.1823 10.0813 12.6643 10.75 13.3469 10.75H17.6399C18.8122 10.75 19.653 11.88 19.3161 13.0029L17.7716 18.1514C17.5951 18.7395 17.0177 19.1124 16.4091 19.0312L7.5 17.8434V12.25H8.31981C8.75024 12.25 9.13238 11.9746 9.26849 11.5662Z" fill="#364141"/>
<path d="M3 10.75V19H4.5V10.75H3Z" fill="#364141"/>
</svg>
