<svg width="24" height="24" viewBox="0 0 24 24" fill="none" xmlns="http://www.w3.org/2000/svg">
<path d="M11 3C9.89543 3 9 3.89543 9 5H6.4994C5.6713 5 5 5.6713 5 6.4994L19 6.5C19 5.67161 18.3285 5 17.5001 5H15C15 3.89543 14.1046 3 13 3H11Z" fill="#364141"/>
<path fill-rule="evenodd" clip-rule="evenodd" d="M5 8L6.7911 18.7466C6.91165 19.4699 7.53743 20 8.27069 20H15.7293C16.4626 20 17.0884 19.4699 17.2089 18.7466L19 8H5ZM6.77069 9.5L8.27069 18.5H15.7293L17.2293 9.5H6.77069Z" fill="#364141"/>
</svg>
