<svg width="24" height="24" viewBox="0 0 24 24" fill="none" xmlns="http://www.w3.org/2000/svg">
<path d="M12.7499 13.5L13.2499 10V8.5H10.7499V10L11.2499 13.5H12.7499Z" fill="#364141"/>
<path d="M11.9999 17C12.5522 17 12.9999 16.5523 12.9999 16C12.9999 15.4477 12.5522 15 11.9999 15C11.4476 15 10.9999 15.4477 10.9999 16C10.9999 16.5523 11.4476 17 11.9999 17Z" fill="#364141"/>
<path fill-rule="evenodd" clip-rule="evenodd" d="M11.9999 3.0022C6.64638 6.21224 3.05082 12.0532 3.00049 18.7377C5.67914 20.181 8.74386 21 11.9999 21C15.2559 21 18.3207 20.181 20.9994 18.7377C20.949 12.0531 17.3535 6.21224 11.9999 3.0022ZM4.53174 17.8314C6.79534 18.9013 9.32591 19.5 11.9999 19.5C14.6739 19.5 17.2045 18.9013 19.4681 17.8314C19.1376 12.3985 16.2558 7.65314 11.9999 4.77982C7.74402 7.65315 4.86221 12.3985 4.53174 17.8314Z" fill="#364141"/>
</svg>
