<svg width="24" height="24" viewBox="0 0 24 24" fill="none" xmlns="http://www.w3.org/2000/svg">
<path d="M12 16C12.5523 16 13 15.5523 13 15C13 14.4477 12.5523 14 12 14C11.4477 14 11 14.4477 11 15C11 15.5523 11.4477 16 12 16Z" fill="#364141"/>
<path fill-rule="evenodd" clip-rule="evenodd" d="M12 4.5C10.4812 4.5 9.25 5.73122 9.25 7.25V11H17.5C18.3284 11 19 11.6716 19 12.5V19.5C19 20.3284 18.3284 21 17.5 21H6.5C5.67157 21 5 20.3284 5 19.5V12.5C5 11.6716 5.67157 11 6.5 11H7.75V7.25C7.75 4.90279 9.65279 3 12 3C14.3472 3 16.25 4.90279 16.25 7.25V7.5H14.75V7.25C14.75 5.73122 13.5188 4.5 12 4.5ZM6.5 12.5L6.5 19.5H17.5V12.5H6.5Z" fill="#364141"/>
</svg>
