<svg width="24" height="24" viewBox="0 0 24 24" fill="none" xmlns="http://www.w3.org/2000/svg">
<path fill-rule="evenodd" clip-rule="evenodd" d="M12.5 8.5C12.5 10.433 10.933 12 9.00001 12C7.06702 12 5.50001 10.433 5.50001 8.5C5.50001 6.567 7.06702 5 9.00001 5C10.933 5 12.5 6.567 12.5 8.5ZM11 8.5C11 9.60457 10.1046 10.5 9.00001 10.5C7.89545 10.5 7.00001 9.60457 7.00001 8.5C7.00001 7.39543 7.89545 6.5 9.00001 6.5C10.1046 6.5 11 7.39543 11 8.5Z" fill="#364141"/>
<path fill-rule="evenodd" clip-rule="evenodd" d="M20 9C20 10.6569 18.6569 12 17 12C15.3432 12 14 10.6569 14 9C14 7.34315 15.3432 6 17 6C18.6569 6 20 7.34315 20 9ZM18.5 9C18.5 9.82843 17.8284 10.5 17 10.5C16.1716 10.5 15.5 9.82843 15.5 9C15.5 8.17157 16.1716 7.5 17 7.5C17.8284 7.5 18.5 8.17157 18.5 9Z" fill="#364141"/>
<path d="M16.6418 14.7662C17.2893 14.7849 17.9477 14.8255 18.6335 14.9131C18.9819 14.9576 19.2024 15.1581 19.2933 15.3701C19.3797 15.5715 19.3684 15.8202 19.16 16.0579C18.4729 16.8417 17.5416 17.5661 16.3767 17.7602C15.9681 17.8283 15.6921 18.2147 15.7602 18.6233C15.8283 19.0319 16.2147 19.3079 16.6233 19.2398C18.2634 18.9665 19.4814 17.9667 20.2879 17.0468C20.8848 16.366 20.9815 15.5006 20.6718 14.7786C20.3666 14.0673 19.6867 13.5354 18.8236 13.4252C17.825 13.2976 16.8847 13.263 15.9944 13.2535C16.4688 13.6169 16.7043 14.1922 16.6418 14.7662Z" fill="#364141"/>
<path fill-rule="evenodd" clip-rule="evenodd" d="M8.98298 13.25C7.80043 13.25 6.52847 13.25 5.1443 13.4293C4.28899 13.5401 3.61404 14.0644 3.30564 14.7689C2.99329 15.4825 3.07737 16.3398 3.6478 17.0273C4.69329 18.2875 6.45642 19.75 9.00001 19.75C11.5436 19.75 13.3067 18.2875 14.3522 17.0273C14.9227 16.3398 15.0067 15.4825 14.6944 14.7689C14.386 14.0644 13.711 13.5401 12.8557 13.4293C11.4716 13.25 10.1996 13.25 9.01706 13.25H8.98298ZM5.33701 14.9169C6.61845 14.7509 7.80373 14.75 9.00001 14.75C10.1963 14.75 11.3816 14.7509 12.663 14.9169C13.0084 14.9616 13.2278 15.1591 13.3203 15.3704C13.4088 15.5728 13.4004 15.8254 13.1978 16.0696C12.2949 17.1579 10.9141 18.25 9.00001 18.25C7.08594 18.25 5.70516 17.1579 4.80222 16.0696C4.59962 15.8254 4.59118 15.5728 4.67975 15.3704C4.77226 15.1591 4.99165 14.9616 5.33701 14.9169Z" fill="#364141"/>
</svg>
