<svg width="24" height="24" viewBox="0 0 24 24" fill="none" xmlns="http://www.w3.org/2000/svg">
<path fill-rule="evenodd" clip-rule="evenodd" d="M9.99999 12C12.2091 12 14 10.2091 14 8C14 5.79086 12.2091 4 9.99999 4C7.79086 4 5.99999 5.79086 5.99999 8C5.99999 10.2091 7.79086 12 9.99999 12ZM9.99999 10.5C11.3807 10.5 12.5 9.38071 12.5 8C12.5 6.61929 11.3807 5.5 9.99999 5.5C8.61928 5.5 7.49999 6.61929 7.49999 8C7.49999 9.38071 8.61928 10.5 9.99999 10.5Z" fill="#364141"/>
<path fill-rule="evenodd" clip-rule="evenodd" d="M9.98031 13.25H10.0197C11.5344 13.25 13.1642 13.25 14.9588 13.5332C16.6281 13.7966 17.5546 15.6367 16.5452 17.1034C15.4082 18.7555 13.2681 21 9.99999 21C6.73191 21 4.59179 18.7555 3.4548 17.1034C2.44542 15.6367 3.37194 13.7966 5.04124 13.5332C6.83575 13.25 8.46558 13.25 9.98031 13.25ZM9.99999 14.75C8.47033 14.75 6.94547 14.7512 5.27506 15.0149C4.60589 15.1205 4.3577 15.7695 4.69046 16.253C5.73547 17.7715 7.48361 19.5 9.99999 19.5C12.5164 19.5 14.2645 17.7715 15.3095 16.253C15.6423 15.7695 15.3941 15.1205 14.7249 15.0149C13.0545 14.7512 11.5297 14.75 9.99999 14.75Z" fill="#364141"/>
<path d="M22.5303 7.53033L21.4697 6.46967L18 9.93934L16.5303 8.46967L15.4697 9.53033L18 12.0607L22.5303 7.53033Z" fill="#364141"/>
</svg>
