<svg width="24" height="24" viewBox="0 0 24 24" fill="none" xmlns="http://www.w3.org/2000/svg">
<path fill-rule="evenodd" clip-rule="evenodd" d="M16.5 7.5C16.5 9.98528 14.4853 12 12 12C9.5147 12 7.49998 9.98528 7.49998 7.5C7.49998 5.01472 9.5147 3 12 3C14.4853 3 16.5 5.01472 16.5 7.5ZM15 7.5C15 9.15685 13.6568 10.5 12 10.5C10.3431 10.5 8.99998 9.15685 8.99998 7.5C8.99998 5.84315 10.3431 4.5 12 4.5C13.6568 4.5 15 5.84315 15 7.5Z" fill="#364141"/>
<path fill-rule="evenodd" clip-rule="evenodd" d="M11.982 13.25C10.2161 13.25 8.33033 13.25 6.2494 13.5471C4.51169 13.7953 3.51899 15.7494 4.70975 17.2343C6.03662 18.8889 8.43007 21 12 21C15.5699 21 17.9633 18.8889 19.2902 17.2343C20.481 15.7494 19.4883 13.7953 17.7506 13.5471C15.6696 13.25 13.7839 13.25 12.018 13.25H11.982ZM6.46144 15.0321C8.42972 14.751 10.2205 14.75 12 14.75C13.7795 14.75 15.5702 14.751 17.5385 15.0321C17.9058 15.0845 18.1431 15.2973 18.2448 15.5293C18.3428 15.7527 18.3333 16.03 18.12 16.2959C16.9288 17.7813 14.9206 19.5 12 19.5C9.07931 19.5 7.07115 17.7813 5.87995 16.2959C5.6667 16.03 5.65719 15.7527 5.75516 15.5293C5.85684 15.2973 6.09418 15.0845 6.46144 15.0321Z" fill="#364141"/>
</svg>
