<svg width="24" height="24" viewBox="0 0 24 24" fill="none" xmlns="http://www.w3.org/2000/svg">
<path fill-rule="evenodd" clip-rule="evenodd" d="M17 15.0455V17.5C17 18.3284 16.3284 19 15.5 19H4.5C3.67157 19 3 18.3284 3 17.5V6.5C3 5.67157 3.67157 5 4.5 5H15.5C16.3284 5 17 5.67157 17 6.5V8.97159L20.3339 7.79716C20.6591 7.68258 21 7.9239 21 8.26875V15.7861C21 16.1331 20.6552 16.3746 20.3291 16.256L17 15.0455ZM4.5 6.5H15.5V17.5H4.5L4.5 6.5ZM17 13.4494L19.5 14.3584V9.68126L17 10.5619V13.4494Z" fill="#364141"/>
</svg>
