<svg width="24" height="24" viewBox="0 0 24 24" fill="none" xmlns="http://www.w3.org/2000/svg">
<path d="M11.0463 9.72948C10.7182 9.57829 10.3612 9.5 10 9.5V8C10.5147 8 11.024 8.09933 11.5 8.2919C11.5585 8.31558 11.6166 8.34067 11.6741 8.36716C12.199 8.60906 12.6653 8.96186 13.0408 9.40125C13.4163 9.84064 13.6922 10.3562 13.8493 10.9124C14.0065 11.4686 14.0412 12.0523 13.9511 12.6232C13.8611 13.1942 13.6484 13.7388 13.3276 14.2197C13.0069 14.7005 12.5858 15.1061 12.0932 15.4086C11.6007 15.711 11.0484 15.9032 10.4745 15.9718C10.4117 15.9793 10.3487 15.9853 10.2858 15.9898C9.77355 16.0265 9.25844 15.9642 8.76873 15.8058L9.23046 14.3786C9.57408 14.4897 9.93799 14.5252 10.2966 14.4823C10.6553 14.4395 11.0004 14.3194 11.3083 14.1304C11.6161 13.9413 11.8793 13.6878 12.0798 13.3873C12.2802 13.0868 12.4132 12.7464 12.4695 12.3895C12.5258 12.0327 12.504 11.6679 12.4058 11.3203C12.3076 10.9726 12.1352 10.6504 11.9005 10.3758C11.6658 10.1012 11.3744 9.88066 11.0463 9.72948Z" fill="#364141"/>
<path d="M7.62134 12.7694C7.7431 13.1458 7.95247 13.488 8.23223 13.7678L7.17157 14.8284C6.8074 14.4642 6.51752 14.0336 6.31732 13.5614C6.27152 13.4533 6.23041 13.3431 6.19414 13.231C6.15788 13.1189 6.12667 13.0055 6.10053 12.8912C5.98628 12.3912 5.96899 11.8729 6.05082 11.3644L7.53182 11.6024C7.46899 11.9929 7.49962 12.3931 7.62134 12.7694Z" fill="#364141"/>
<path d="M7.92776 10.6015C8.16364 10.252 8.48411 9.96779 8.85933 9.77539L8.86024 9.77493L8.17639 8.43988C8.0343 8.51266 7.89712 8.59367 7.76546 8.68234C7.47193 8.88004 7.20592 9.11584 6.97442 9.38353C6.8706 9.50359 6.77371 9.63007 6.68441 9.7624L7.92776 10.6015Z" fill="#364141"/>
<path fill-rule="evenodd" clip-rule="evenodd" d="M17 8.97159V6.5C17 5.67157 16.3284 5 15.5 5H4.5C3.67157 5 3 5.67157 3 6.5V17.5C3 18.3284 3.67157 19 4.5 19H15.5C16.3284 19 17 18.3284 17 17.5V15.0455L20.3291 16.256C20.6552 16.3746 21 16.1331 21 15.7861V8.26875C21 7.9239 20.6591 7.68258 20.3339 7.79716L17 8.97159ZM15.5 6.5H4.5L4.5 17.5H15.5V6.5ZM17 10.5619V13.4494L19.5 14.3584V9.68126L17 10.5619Z" fill="#364141"/>
</svg>
