<svg width="24" height="24" viewBox="0 0 24 24" fill="none" xmlns="http://www.w3.org/2000/svg">
<path fill-rule="evenodd" clip-rule="evenodd" d="M14.2361 9C14.7111 8.46924 15 7.76835 15 7C15 5.34315 13.6568 4 12 4C10.3431 4 8.99995 5.34315 8.99995 7C8.99995 7.76835 9.28881 8.46924 9.76385 9H8.14565C7.46922 9 6.87648 9.45273 6.6985 10.1053L4.1722 19.3684C4.08545 19.6865 4.32489 20 4.65458 20H19.3453C19.675 20 19.9145 19.6865 19.8277 19.3684L17.3014 10.1053C17.1234 9.45273 16.5307 9 15.8543 9H14.2361ZM13.5 7C13.5 7.82843 12.8284 8.5 12 8.5C11.1715 8.5 10.5 7.82843 10.5 7C10.5 6.17157 11.1715 5.5 12 5.5C12.8284 5.5 13.5 6.17157 13.5 7ZM18.0361 18.5H5.96383L8.14565 10.5L15.8543 10.5L18.0361 18.5Z" fill="#364141"/>
</svg>
