<svg width="24" height="24" viewBox="0 0 24 24" fill="none" xmlns="http://www.w3.org/2000/svg">
<path d="M18.9696 19.0304L4.46959 4.53039L5.53025 3.46973L7.64772 5.58719C9.0283 5.20453 10.4828 5.00006 11.9851 5.00006C15.3148 5.00006 18.41 6.00459 20.9853 7.72746L20.1541 8.97636C17.8165 7.41204 15.007 6.50006 11.9851 6.50006C10.9226 6.50006 9.88629 6.61281 8.88755 6.82702L11.0936 9.03307C11.3928 9.01119 11.695 9.00006 11.9998 9.00006C14.5138 9.00006 16.851 9.7574 18.7956 11.0564L17.9635 12.3046C16.4065 11.2645 14.5626 10.6201 12.5758 10.5152L20.0303 17.9697L18.9696 19.0304Z" fill="#364141"/>
<path d="M12.9999 18C12.9999 18.5523 12.5522 19 11.9999 19C11.4476 19 10.9999 18.5523 10.9999 18C10.9999 17.4477 11.4476 17 11.9999 17C12.5522 17 12.9999 17.4477 12.9999 18Z" fill="#364141"/>
<path d="M7.52849 14.5428C8.5143 13.7694 9.70552 13.2458 11.0067 13.0676L12.4572 14.518C12.3063 14.5061 12.1539 14.5001 12 14.5001C10.6205 14.5001 9.35453 14.9859 8.3637 15.7957L7.52849 14.5428Z" fill="#364141"/>
<path d="M8.89456 10.9553L7.71101 9.7718C6.82178 10.1042 5.98153 10.537 5.20403 11.0563L6.03616 12.3045C6.90754 11.7225 7.86873 11.2643 8.89456 10.9553Z" fill="#364141"/>
<path d="M2.98486 7.72746C3.52605 7.36541 4.0902 7.03507 4.67467 6.73912L5.7961 7.8624C5.10543 8.18334 4.44375 8.55633 3.81609 8.97636L2.98486 7.72746Z" fill="#364141"/>
</svg>
