<svg width="24" height="24" viewBox="0 0 24 24" fill="none" xmlns="http://www.w3.org/2000/svg">
<path d="M11.9851 5C15.3148 5 18.41 6.00453 20.9853 7.72741L20.1541 8.9763C17.8165 7.41198 15.007 6.5 11.9851 6.5C8.96322 6.5 6.15371 7.41198 3.81609 8.9763L2.98486 7.72741C5.56014 6.00453 8.65535 5 11.9851 5Z" fill="#364141"/>
<path d="M11.9999 19C12.5522 19 12.9999 18.5523 12.9999 18C12.9999 17.4477 12.5522 17 11.9999 17C11.4476 17 10.9999 17.4477 10.9999 18C10.9999 18.5523 11.4476 19 11.9999 19Z" fill="#364141"/>
<path d="M18.7956 11.0563C16.851 9.75734 14.5138 9 11.9998 9C9.48575 9 7.1486 9.75732 5.20403 11.0563L6.03616 12.3045C7.74263 11.1646 9.79359 10.5 11.9998 10.5C14.206 10.5 16.257 11.1646 17.9635 12.3045L18.7956 11.0563Z" fill="#364141"/>
<path d="M11.9999 13C13.687 13 15.2395 13.5763 16.4714 14.5427L15.6362 15.7956C14.6453 14.9858 13.3793 14.5 11.9999 14.5C10.6204 14.5 9.3544 14.9858 8.36358 15.7956L7.52837 14.5427C8.7602 13.5763 10.3127 13 11.9999 13Z" fill="#364141"/>
</svg>
