<svg width="24" height="24" viewBox="0 0 24 24" fill="none" xmlns="http://www.w3.org/2000/svg">
<path d="M15.375 8.625H13.5V7.375H16.625V10.5H15.375V8.625Z" fill="#364141"/>
<path d="M10.5 8.625H8.625V10.5H7.375V7.375H10.5V8.625Z" fill="#364141"/>
<path d="M15.375 15.375H13.5V16.625H16.625V13.5H15.375V15.375Z" fill="#364141"/>
<path d="M10.5 15.375H8.625V13.5H7.375V16.625H10.5V15.375Z" fill="#364141"/>
<path fill-rule="evenodd" clip-rule="evenodd" d="M5.5 4C4.67157 4 4 4.67157 4 5.5V18.5C4 19.3284 4.67157 20 5.5 20H18.5C19.3284 20 20 19.3284 20 18.5V5.5C20 4.67157 19.3284 4 18.5 4H5.5ZM18.5 5.5H5.5V18.5H18.5V5.5Z" fill="#364141"/>
</svg>
