<svg width="24" height="24" viewBox="0 0 24 24" fill="none" xmlns="http://www.w3.org/2000/svg">
<path fill-rule="evenodd" clip-rule="evenodd" d="M19 5.625C19 7.07475 17.8247 8.25 16.375 8.25C14.9253 8.25 13.75 7.07475 13.75 5.625C13.75 4.17525 14.9253 3 16.375 3C17.8247 3 19 4.17525 19 5.625ZM17.5 5.625C17.5 6.24632 16.9963 6.75 16.375 6.75C15.7537 6.75 15.25 6.24632 15.25 5.625C15.25 5.00368 15.7537 4.5 16.375 4.5C16.9963 4.5 17.5 5.00368 17.5 5.625Z" fill="#364141"/>
<path fill-rule="evenodd" clip-rule="evenodd" d="M12.5 8.7998C12.5 10.0424 11.4926 11.0498 10.25 11.0498C9.00736 11.0498 8 10.0424 8 8.7998C8 7.55716 9.00736 6.5498 10.25 6.5498C11.4926 6.5498 12.5 7.55716 12.5 8.7998ZM11 8.7998C11 9.21402 10.6642 9.5498 10.25 9.5498C9.83579 9.5498 9.5 9.21402 9.5 8.7998C9.5 8.38559 9.83579 8.0498 10.25 8.0498C10.6642 8.0498 11 8.38559 11 8.7998Z" fill="#364141"/>
<path d="M5.5 13.5C6.32843 13.5 7 12.8284 7 12C7 11.1716 6.32843 10.5 5.5 10.5C4.67157 10.5 4 11.1716 4 12C4 12.8284 4.67157 13.5 5.5 13.5Z" fill="#364141"/>
<path fill-rule="evenodd" clip-rule="evenodd" d="M10.25 17.5C11.4926 17.5 12.5 16.4926 12.5 15.25C12.5 14.0074 11.4926 13 10.25 13C9.00736 13 8 14.0074 8 15.25C8 16.4926 9.00736 17.5 10.25 17.5ZM10.25 16C10.6642 16 11 15.6642 11 15.25C11 14.8358 10.6642 14.5 10.25 14.5C9.83579 14.5 9.5 14.8358 9.5 15.25C9.5 15.6642 9.83579 16 10.25 16Z" fill="#364141"/>
<path fill-rule="evenodd" clip-rule="evenodd" d="M16.375 14.6299C17.8247 14.6299 19 13.4546 19 12.0049C19 10.5551 17.8247 9.37988 16.375 9.37988C14.9253 9.37988 13.75 10.5551 13.75 12.0049C13.75 13.4546 14.9253 14.6299 16.375 14.6299ZM16.375 13.1299C16.9963 13.1299 17.5 12.6262 17.5 12.0049C17.5 11.3836 16.9963 10.8799 16.375 10.8799C15.7537 10.8799 15.25 11.3836 15.25 12.0049C15.25 12.6262 15.7537 13.1299 16.375 13.1299Z" fill="#364141"/>
<path fill-rule="evenodd" clip-rule="evenodd" d="M19 18.375C19 19.8247 17.8247 21 16.375 21C14.9253 21 13.75 19.8247 13.75 18.375C13.75 16.9253 14.9253 15.75 16.375 15.75C17.8247 15.75 19 16.9253 19 18.375ZM17.5 18.375C17.5 18.9963 16.9963 19.5 16.375 19.5C15.7537 19.5 15.25 18.9963 15.25 18.375C15.25 17.7537 15.7537 17.25 16.375 17.25C16.9963 17.25 17.5 17.7537 17.5 18.375Z" fill="#364141"/>
</svg>
