<svg width="24" height="24" viewBox="0 0 24 24" fill="none" xmlns="http://www.w3.org/2000/svg">
<path fill-rule="evenodd" clip-rule="evenodd" d="M6 9C6 6.23858 8.23858 4 11 4H19.5C20.3284 4 21 4.67157 21 5.5V13C21 15.7614 18.7614 18 16 18H7.5C6.67157 18 6 17.3284 6 16.5V9ZM11 5.5H19.5V13C19.5 14.933 17.933 16.5 16 16.5H7.5V9C7.5 7.067 9.067 5.5 11 5.5Z" fill="#364141"/>
<path d="M3 12C3 10.6013 3.57432 9.33675 4.5 8.42928V18C4.5 18.8284 5.17157 19.5 6 19.5H16.5707C15.6633 20.4257 14.3987 21 13 21H5C3.89543 21 3 20.1046 3 19V12Z" fill="#364141"/>
</svg>
