<svg width="24" height="24" viewBox="0 0 24 24" fill="none" xmlns="http://www.w3.org/2000/svg">
<path d="M14.25 7.75H12.75V10.25H10.25V11.75H12.75V14.25H14.25V11.75H16.75V10.25H14.25V7.75Z" fill="#364141"/>
<path fill-rule="evenodd" clip-rule="evenodd" d="M11 4C8.23858 4 6 6.23858 6 9V16.5C6 17.3284 6.67157 18 7.5 18H16C18.7614 18 21 15.7614 21 13V5.5C21 4.67157 20.3284 4 19.5 4H11ZM19.5 5.5H11C9.067 5.5 7.5 7.067 7.5 9V16.5H16C17.933 16.5 19.5 14.933 19.5 13V5.5Z" fill="#364141"/>
<path d="M4.5 8.42928C3.57432 9.33675 3 10.6013 3 12V19C3 20.1046 3.89543 21 5 21H13C14.3987 21 15.6633 20.4257 16.5707 19.5H6C5.17157 19.5 4.5 18.8284 4.5 18V8.42928Z" fill="#364141"/>
</svg>
