<svg width="24" height="24" viewBox="0 0 24 24" fill="none" xmlns="http://www.w3.org/2000/svg">
<path fill-rule="evenodd" clip-rule="evenodd" d="M4 5C4 4.17157 4.67157 3.5 5.5 3.5H7C7.82843 3.5 8.5 4.17157 8.5 5V19C8.5 19.8284 7.82843 20.5 7 20.5H5.5C4.67157 20.5 4 19.8284 4 19V5ZM5.5 5H7V8.75H5.5V5ZM5.5 10.25L5.5 19H7V10.25H5.5Z" fill="#364141"/>
<path fill-rule="evenodd" clip-rule="evenodd" d="M9.75 5C9.75 4.17157 10.4216 3.5 11.25 3.5H12.75C13.5784 3.5 14.25 4.17157 14.25 5V19C14.25 19.8284 13.5784 20.5 12.75 20.5H11.25C10.4216 20.5 9.75 19.8284 9.75 19V5ZM11.25 5H12.75V13.75H11.25V5ZM11.25 15.25V19H12.75V15.25H11.25Z" fill="#364141"/>
<path fill-rule="evenodd" clip-rule="evenodd" d="M17 3.5C16.1716 3.5 15.5 4.17157 15.5 5V19C15.5 19.8284 16.1716 20.5 17 20.5H18.5C19.3284 20.5 20 19.8284 20 19V5C20 4.17157 19.3284 3.5 18.5 3.5H17ZM18.5 5H17V8.75H18.5V5ZM17 19V10.25H18.5V19H17Z" fill="#364141"/>
</svg>
