<svg width="24" height="24" viewBox="0 0 24 24" fill="none" xmlns="http://www.w3.org/2000/svg">
<path d="M12.75 9.75371C12.75 10.17 12.4142 10.5074 12 10.5074C11.5858 10.5074 11.25 10.17 11.25 9.75371C11.25 9.33745 11.5858 9 12 9C12.4142 9 12.75 9.33745 12.75 9.75371Z" fill="#364141"/>
<path fill-rule="evenodd" clip-rule="evenodd" d="M9.74559 7.35803C10.3408 6.91488 11.1226 6.5 12 6.5C12.8774 6.5 13.6593 6.91488 14.2544 7.35803C14.8602 7.80909 15.3564 8.35213 15.678 8.74352C16.1615 9.33214 16.1615 10.1679 15.678 10.7565C15.3564 11.1479 14.8602 11.6909 14.2544 12.142C13.6593 12.5851 12.8774 13 12 13C11.1226 13 10.3408 12.5851 9.74559 12.142C9.13979 11.6909 8.64359 11.1479 8.32207 10.7565C7.83853 10.1679 7.83853 9.33213 8.32207 8.74352C8.6436 8.35213 9.13979 7.80909 9.74559 7.35803ZM10.6414 8.56116C10.171 8.91143 9.76247 9.35319 9.48112 9.69568C9.46382 9.71673 9.45941 9.73547 9.45941 9.75C9.45941 9.76453 9.46382 9.78327 9.48112 9.80432C9.76247 10.1468 10.171 10.5886 10.6414 10.9388C11.1225 11.297 11.5884 11.5 12 11.5C12.4117 11.5 12.8776 11.297 13.3586 10.9388C13.8291 10.5886 14.2376 10.1468 14.5189 9.80432C14.5362 9.78327 14.5406 9.76453 14.5406 9.75C14.5406 9.73547 14.5362 9.71673 14.5189 9.69568C14.2376 9.35319 13.8291 8.91143 13.3586 8.56116C12.8776 8.20298 12.4117 8 12 8C11.5884 8 11.1225 8.20298 10.6414 8.56116Z" fill="#364141"/>
<path fill-rule="evenodd" clip-rule="evenodd" d="M9 16.5H17C19.2091 16.5 21 14.7091 21 12.5V4C21 3.44772 20.5523 3 20 3H7C4.79086 3 3 4.79086 3 7V20.5C3 20.706 3.23519 20.8236 3.4 20.7L9 16.5ZM8.5 15L4.5 18V7C4.5 5.61929 5.61929 4.5 7 4.5H19.5V12.5C19.5 13.8807 18.3807 15 17 15H8.5Z" fill="#364141"/>
</svg>
