<svg width="24" height="24" viewBox="0 0 24 24" fill="none" xmlns="http://www.w3.org/2000/svg">
<path fill-rule="evenodd" clip-rule="evenodd" d="M13.5778 9.57159C14.7182 8.99469 15.5 7.81192 15.5 6.44653C15.5 4.51354 13.933 2.94653 12 2.94653C10.067 2.94653 8.5 4.51354 8.5 6.44653C8.5 7.81192 9.28184 8.99469 10.4222 9.57159H13.5778ZM13.1665 8.07159C13.6732 7.70718 14 7.11405 14 6.44653C14 5.34196 13.1046 4.44653 12 4.44653C10.8954 4.44653 10 5.34196 10 6.44653C10 7.11405 10.3268 7.70718 10.8335 8.07159H13.1665Z" fill="#364141"/>
<path d="M10.5 10.5C10.5 11.3284 11.1716 12 12 12C12.8284 12 13.5 11.3284 13.5 10.5H10.5Z" fill="#364141"/>
<path d="M18.5 6.5H16.9986C16.9871 5.97852 16.9083 5.47521 16.7711 5H19C19.5523 5 20 5.44772 20 6V12.926C20 14.859 18.433 16.426 16.5 16.426H9.33333L4.39529 19.9523C4.22982 20.0705 4 19.9522 4 19.7489V8.5C4 6.65926 5.421 5.15041 7.22586 5.01058C7.0851 5.50178 7.0066 6.02287 7.0004 6.56291C6.13758 6.78479 5.5 7.56794 5.5 8.5V17.3202L8.85273 14.926H16.5C17.6046 14.926 18.5 14.0305 18.5 12.926V6.5Z" fill="#364141"/>
</svg>
