<svg width="24" height="24" viewBox="0 0 24 24" fill="none" xmlns="http://www.w3.org/2000/svg">
<path d="M16.7265 3.48534C16.6368 3.29297 16.3632 3.29297 16.2735 3.48534L15.1066 5.98566C15.0817 6.03887 15.0389 6.08164 14.9857 6.10648L12.4854 7.27338C12.293 7.36316 12.293 7.63669 12.4854 7.72647L14.9857 8.89337C15.0389 8.91821 15.0817 8.96098 15.1066 9.01419L16.2735 11.5145C16.3632 11.7069 16.6368 11.7069 16.7265 11.5145L17.8934 9.01419C17.9183 8.96098 17.9611 8.91821 18.0143 8.89337L20.5146 7.72647C20.707 7.63669 20.707 7.36316 20.5146 7.27338L18.0143 6.10648C17.9611 6.08164 17.9183 6.03887 17.8934 5.98566L16.7265 3.48534Z" fill="#364141"/>
<path d="M6.5 5.99992H10.5V7.49992H6.5C5.39543 7.49992 4.5 8.39536 4.5 9.49992V17.9999L7.5 15.7499H14.5C15.6046 15.7499 16.5 14.8545 16.5 13.7499V13.4999H18V13.7499C18 15.6829 16.433 17.2499 14.5 17.2499H8L3.4 20.6999C3.23519 20.8235 3 20.7059 3 20.4999V9.49992C3 7.56693 4.567 5.99992 6.5 5.99992Z" fill="#364141"/>
</svg>
