<svg width="24" height="24" viewBox="0 0 24 24" fill="none" xmlns="http://www.w3.org/2000/svg">
<path fill-rule="evenodd" clip-rule="evenodd" d="M8 13H12.5C14.433 13 16 11.433 16 9.5V5C16 4.44772 15.5523 4 15 4H7.5C5.567 4 4 5.567 4 7.5V15.5C4 15.706 4.23519 15.8236 4.4 15.7L8 13ZM7.5 11.5L5.5 13V7.5C5.5 6.39543 6.39543 5.5 7.5 5.5H14.5V9.5C14.5 10.6046 13.6046 11.5 12.5 11.5H7.5Z" fill="#364141"/>
<path d="M12.5 17C10.9145 17 9.5752 15.9458 9.14493 14.5H10.7675C11.1134 15.0978 11.7597 15.5 12.5 15.5L16.5 15.5L18.5 17V12C18.5 11.2597 18.0978 10.6133 17.5 10.2675V8.6449C18.9457 9.07517 20 10.4144 20 12V19.5C20 19.706 19.7648 19.8236 19.6 19.7L16 17L12.5 17Z" fill="#364141"/>
</svg>
