<svg width="24" height="24" viewBox="0 0 24 24" fill="none" xmlns="http://www.w3.org/2000/svg">
<path d="M12.75 10L13 7.9V7H11V7.9L11.25 10H12.75Z" fill="#364141"/>
<path d="M12 13C12.5523 13 13 12.5523 13 12C13 11.4477 12.5523 11 12 11C11.4477 11 11 11.4477 11 12C11 12.5523 11.4477 13 12 13Z" fill="#364141"/>
<path fill-rule="evenodd" clip-rule="evenodd" d="M3.4 20.7C3.23519 20.8236 3 20.706 3 20.5V7C3 4.79086 4.79086 3 7 3H20C20.5523 3 21 3.44772 21 4V12.5C21 14.7091 19.2091 16.5 17 16.5H9L3.4 20.7ZM8.5 15H17C18.3807 15 19.5 13.8807 19.5 12.5V4.5H7C5.61929 4.5 4.5 5.61929 4.5 7V18L8.5 15Z" fill="#364141"/>
</svg>
