<svg width="24" height="24" viewBox="0 0 24 24" fill="none" xmlns="http://www.w3.org/2000/svg">
<path fill-rule="evenodd" clip-rule="evenodd" d="M20.0303 3.96965C18.909 2.84833 17.091 2.84833 15.9697 3.96965L9.54289 10.3964C9.35536 10.584 9.25 10.8383 9.25 11.1035V14.75H12.8964C13.1617 14.75 13.416 14.6446 13.6036 14.4571L20.0303 8.03031C21.1516 6.90899 21.1516 5.09097 20.0303 3.96965ZM17.0303 5.03031C17.5659 4.49478 18.4341 4.49478 18.9697 5.03031C19.5052 5.56585 19.5052 6.43412 18.9697 6.96965L12.6893 13.25H10.75V11.3106L17.0303 5.03031Z" fill="#364141"/>
<path d="M9.25 5.49998H11.5L13 3.99998H9.25C6.3505 3.99998 4 6.35049 4 9.24998V18.25C4 19.2165 4.7835 20 5.75 20H14.75C17.6495 20 20 17.6495 20 14.75V11L18.5 12.5V14.75C18.5 16.8211 16.8211 18.5 14.75 18.5H5.75C5.61193 18.5 5.5 18.3881 5.5 18.25V9.24998C5.5 7.17892 7.17893 5.49998 9.25 5.49998Z" fill="#364141"/>
</svg>
