<svg width="24" height="24" viewBox="0 0 24 24" fill="none" xmlns="http://www.w3.org/2000/svg">
<path fill-rule="evenodd" clip-rule="evenodd" d="M12.0285 19.9838C11.8537 19.9946 11.6775 20 11.5 20C6.80558 20 3 16.1944 3 11.5C3 6.80558 6.80558 3 11.5 3C16.1944 3 20 6.80558 20 11.5C20 14.2085 18.7332 16.6211 16.7597 18.1777C17.0901 18.6729 17.5847 19.0424 18.1631 19.2159C18.791 19.4043 19.4432 19.5 20.0988 19.5H21V21H20.0988C19.2972 21 18.4999 20.883 17.7321 20.6526C16.8129 20.3769 16.0274 19.7882 15.5047 18.9994C14.4687 19.5538 13.3044 19.8998 12.0678 19.9813C12.0548 19.9825 12.0417 19.9833 12.0285 19.9838ZM8.55447 17.852C8.35778 17.4088 8.25 16.9209 8.25 16.4134V16.3438C8.25 14.1407 10.2656 12.4883 12.426 12.9203C13.7431 13.1838 14.8532 14.0647 15.4091 15.2875L16.0899 16.7853C17.5665 15.5019 18.5 13.61 18.5 11.5C18.5 7.63401 15.366 4.5 11.5 4.5C7.63401 4.5 4.5 7.63401 4.5 11.5C4.5 14.3138 6.1602 16.7398 8.55447 17.852ZM11.9623 18.485L11.9361 18.4855C11.7147 18.4899 11.4939 18.46 11.2816 18.3968L11.2138 18.3766C10.3454 18.118 9.75 17.3196 9.75 16.4134V16.3438C9.75 15.0872 10.8996 14.1448 12.1318 14.3912C12.9759 14.56 13.6873 15.1246 14.0435 15.9082L14.8374 17.6547C13.9729 18.1245 12.9983 18.4174 11.9623 18.485Z" fill="#364141"/>
</svg>
