<svg width="24" height="24" viewBox="0 0 24 24" fill="none" xmlns="http://www.w3.org/2000/svg">
<path d="M13.5059 6.43146L8.1934 10.0303C7.98777 10.1696 8.08909 10.491 8.33742 10.4872L11.1429 10.4444L10.1162 13.2836C10.0341 13.5106 10.2897 13.7106 10.4903 13.5764L15.8158 10.0133C16.0212 9.87591 15.9239 9.55556 15.6768 9.55556H12.8571L13.8813 6.72346C13.9636 6.49572 13.7064 6.29564 13.5059 6.43146Z" fill="#364141"/>
<path fill-rule="evenodd" clip-rule="evenodd" d="M10 3C6.68629 3 4 5.68629 4 9V20.483C4 20.7307 4.25008 20.9 4.47999 20.808L8.32697 19.2692C8.59891 19.1604 8.62493 18.7857 8.37063 18.6404L6.15388 17.3736C5.97581 17.2719 6.04802 17 6.25311 17H14C17.3137 17 20 14.3137 20 11V4C20 3.44772 19.5523 3 19 3H10ZM18.5 4.5H10C7.51472 4.5 5.5 6.51472 5.5 9V15.5H14C16.4853 15.5 18.5 13.4853 18.5 11V4.5Z" fill="#364141"/>
</svg>
