<svg width="24" height="24" viewBox="0 0 24 24" fill="none" xmlns="http://www.w3.org/2000/svg">
<path d="M11.2856 9.79999H16V11.3H7.71439L11.4644 7.47495L12.5356 8.52505L11.2856 9.79999Z" fill="#364141"/>
<path d="M8 12.7V14.2H12.7144L11.4644 15.475L12.5356 16.5251L16.2856 12.7H8Z" fill="#364141"/>
<path fill-rule="evenodd" clip-rule="evenodd" d="M4 9C4 6.23858 6.23858 4 9 4H18.5C19.3284 4 20 4.67157 20 5.5V15C20 17.7614 17.7614 20 15 20H5.5C4.67157 20 4 19.3284 4 18.5V9ZM9 5.5H18.5V15C18.5 16.933 16.933 18.5 15 18.5H5.5V9C5.5 7.067 7.067 5.5 9 5.5Z" fill="#364141"/>
</svg>
