<svg width="24" height="24" viewBox="0 0 24 24" fill="none" xmlns="http://www.w3.org/2000/svg">
<path d="M12 11C12.5523 11 13 10.5523 13 10C13 9.44772 12.5523 9 12 9C11.4477 9 11 9.44772 11 10C11 10.5523 11.4477 11 12 11Z" fill="#364141"/>
<path d="M9.5 10C9.5 10.5523 9.05228 11 8.5 11C7.94772 11 7.5 10.5523 7.5 10C7.5 9.44772 7.94772 9 8.5 9C9.05228 9 9.5 9.44772 9.5 10Z" fill="#364141"/>
<path d="M15.5 11C16.0523 11 16.5 10.5523 16.5 10C16.5 9.44772 16.0523 9 15.5 9C14.9477 9 14.5 9.44772 14.5 10C14.5 10.5523 14.9477 11 15.5 11Z" fill="#364141"/>
<path fill-rule="evenodd" clip-rule="evenodd" d="M10 3C6.68629 3 4 5.68629 4 9V20.483C4 20.7307 4.25008 20.9 4.47999 20.808L8.32697 19.2692C8.59891 19.1604 8.62493 18.7857 8.37063 18.6404L6.15388 17.3736C5.97581 17.2719 6.04802 17 6.25311 17H14C17.3137 17 20 14.3137 20 11V4C20 3.44772 19.5523 3 19 3H10ZM18.5 4.5H10C7.51472 4.5 5.5 6.51472 5.5 9V15.5H14C16.4853 15.5 18.5 13.4853 18.5 11V4.5Z" fill="#364141"/>
</svg>
