<svg width="24" height="24" viewBox="0 0 24 24" fill="none" xmlns="http://www.w3.org/2000/svg">
<path fill-rule="evenodd" clip-rule="evenodd" d="M15.25 10.25C15.25 12.0449 13.7949 13.5 12 13.5C10.2051 13.5 8.75 12.0449 8.75 10.25C8.75 8.45507 10.2051 7 12 7C13.7949 7 15.25 8.45507 15.25 10.25ZM13.75 10.25C13.75 11.2165 12.9665 12 12 12C11.0335 12 10.25 11.2165 10.25 10.25C10.25 9.2835 11.0335 8.5 12 8.5C12.9665 8.5 13.75 9.2835 13.75 10.25Z" fill="#364141"/>
<path fill-rule="evenodd" clip-rule="evenodd" d="M4 18.5C4 19.3284 4.67157 20 5.5 20H15C16.9266 20 18.5987 18.9103 19.4336 17.3137C19.6645 16.8721 19.8314 16.3918 19.9219 15.8851L19.9249 15.8681C19.9743 15.5861 20 15.2961 20 15V5.5C20 4.67157 19.3284 4 18.5 4H9C6.23858 4 4 6.23858 4 9V18.5ZM18.5 5.5H9C7.067 5.5 5.5 7.067 5.5 9V15.1945C7.37312 14.4387 9.60459 14 12 14C14.3932 14 16.6228 14.4379 18.4948 15.1924C18.4983 15.1287 18.5 15.0646 18.5 15V5.5ZM15 18.5C16.3375 18.5 17.4997 17.7498 18.0889 16.6473C16.3862 15.9348 14.2938 15.5 12 15.5C9.51802 15.5 7.27184 16.009 5.5 16.8282V18.5H15Z" fill="#364141"/>
</svg>
