<svg width="24" height="24" viewBox="0 0 24 24" fill="none" xmlns="http://www.w3.org/2000/svg">
<path d="M8.13321 10.529H8.06095L7.58761 12.3826H8.60655L8.13321 10.529Z" fill="#364141"/>
<path fill-rule="evenodd" clip-rule="evenodd" d="M4.5 5C3.67157 5 3 5.67157 3 6.5V17.5C3 18.3284 3.67157 19 4.5 19H19.5C20.3284 19 21 18.3284 21 17.5V6.5C21 5.67157 20.3284 5 19.5 5H4.5ZM7.04561 14.5H5.43409L7.13595 9.28604H9.05821L10.7601 14.5H9.14854L8.88477 13.463H7.30938L7.04561 14.5ZM14.6847 14.5H11.028V9.28604H12.5601V13.2859H14.6847V14.5ZM17.0592 14.5H15.5271V10.5001H14.0782V9.28604H18.5081V10.5001H17.0592V14.5Z" fill="#364141"/>
</svg>
