<svg width="24" height="24" viewBox="0 0 24 24" fill="none" xmlns="http://www.w3.org/2000/svg">
<path d="M12 21.4142L8.29292 17.7071L9.70714 16.2929L11 17.5858V13H6.41424L7.70714 14.2929L6.29292 15.7071L2.58582 12L6.29292 8.29292L7.70714 9.70714L6.41424 11H11V6.41424L9.70714 7.70714L8.29292 6.29292L12 2.58582L15.7071 6.29292L14.2929 7.70714L13 6.41424V11H17.5858L16.2929 9.70714L17.7071 8.29292L21.4142 12L17.7071 15.7071L16.2929 14.2929L17.5858 13H13V17.5858L14.2929 16.2929L15.7071 17.7071L12 21.4142Z" fill="#364141"/>
</svg>
