<svg width="24" height="24" viewBox="0 0 24 24" fill="none" xmlns="http://www.w3.org/2000/svg">
<path d="M12 4.75C9.47546 4.75 7.25069 6.0406 5.95208 8H8.45001V10H2.75V4H4.75V6.25518C6.44387 4.12025 9.06123 2.75 12 2.75C17.1086 2.75 21.25 6.89137 21.25 12H19.25C19.25 7.99594 16.0041 4.75 12 4.75Z" fill="#364141"/>
<path d="M12 19.25C14.5245 19.25 16.7493 17.9594 18.0479 16L15.55 16L15.55 14L21.25 14V20H19.25V17.7448C17.5561 19.8798 14.9388 21.25 12 21.25C6.89137 21.25 2.75 17.1086 2.75 12H4.75C4.75 16.0041 7.99594 19.25 12 19.25Z" fill="#364141"/>
</svg>
