<svg width="24" height="24" viewBox="0 0 24 24" fill="none" xmlns="http://www.w3.org/2000/svg">
<path fill-rule="evenodd" clip-rule="evenodd" d="M11.5 3C6.80558 3 3 6.80558 3 11.5V12.5C3 17.1944 6.80558 21 11.5 21H12C13.1046 21 14 20.1046 14 19V15.5C14 14.6716 14.6716 14 15.5 14H19C20.1046 14 21 13.1046 21 12V11.5C21 6.80558 17.1944 3 12.5 3H11.5ZM12 8C12.5523 8 13 7.55228 13 7C13 6.44772 12.5523 6 12 6C11.4477 6 11 6.44772 11 7C11 7.55228 11.4477 8 12 8ZM8.5 9.5C9.05228 9.5 9.5 9.05228 9.5 8.5C9.5 7.94772 9.05228 7.5 8.5 7.5C7.94772 7.5 7.5 7.94772 7.5 8.5C7.5 9.05228 7.94772 9.5 8.5 9.5ZM7 13C7.55228 13 8 12.5523 8 12C8 11.4477 7.55228 11 7 11C6.44772 11 6 11.4477 6 12C6 12.5523 6.44772 13 7 13ZM9.5 15.5C9.5 16.0523 9.05228 16.5 8.5 16.5C7.94772 16.5 7.5 16.0523 7.5 15.5C7.5 14.9477 7.94772 14.5 8.5 14.5C9.05228 14.5 9.5 14.9477 9.5 15.5ZM16.5 8.5C16.5 9.05228 16.0523 9.5 15.5 9.5C14.9477 9.5 14.5 9.05228 14.5 8.5C14.5 7.94772 14.9477 7.5 15.5 7.5C16.0523 7.5 16.5 7.94772 16.5 8.5Z" fill="#364141"/>
</svg>
