<svg width="24" height="24" viewBox="0 0 24 24" fill="none" xmlns="http://www.w3.org/2000/svg">
<path d="M13.25 12C13.25 12.6904 12.6904 13.25 12 13.25C11.3096 13.25 10.75 12.6904 10.75 12C10.75 11.3096 11.3096 10.75 12 10.75C12.6904 10.75 13.25 11.3096 13.25 12Z" fill="#364141"/>
<path fill-rule="evenodd" clip-rule="evenodd" d="M6.14909 12C3.9898 15.1325 3.26321 18.1124 4.57538 19.4246C5.88754 20.7368 8.86744 20.0102 12 17.8509C15.1325 20.0102 18.1124 20.7368 19.4246 19.4246C20.7368 18.1124 20.0102 15.1325 17.8509 12C20.0102 8.86744 20.7368 5.88753 19.4246 4.57536C18.1125 3.2632 15.1325 3.98978 12 6.14909C8.86744 3.98979 5.88753 3.2632 4.57536 4.57537C3.2632 5.88754 3.98978 8.86744 6.14909 12ZM12 15.3571C12.5884 14.8841 13.1822 14.3534 13.7678 13.7678C14.3534 13.1821 14.8841 12.5884 15.3571 12C14.8841 11.4116 14.3534 10.8178 13.7678 10.2322C13.1821 9.64661 12.5884 9.11589 12 8.64291C11.4116 9.11589 10.8178 9.64661 10.2322 10.2322C9.64662 10.8178 9.1159 11.4116 8.64291 12C9.11589 12.5884 9.64661 13.1821 10.2322 13.7678C10.8178 14.3534 11.4116 14.8841 12 15.3571ZM10.3206 16.5645C9.81456 16.1372 9.31158 15.6755 8.818 15.182C8.32443 14.6884 7.86274 14.1854 7.43549 13.6794C6.9737 14.4073 6.61217 15.1047 6.35695 15.7428C6.03296 16.5528 5.91749 17.1743 5.92023 17.5894C5.92202 17.8621 5.97095 17.9763 5.99036 18.0096C6.02366 18.029 6.13787 18.078 6.41058 18.0798C6.82571 18.0825 7.44723 17.967 8.25722 17.643C8.89526 17.3878 9.59265 17.0263 10.3206 16.5645ZM7.43548 10.3206C7.86275 9.81456 8.32444 9.31159 8.81802 8.818C9.31159 8.32443 9.81456 7.86274 10.3206 7.43549C9.59264 6.9737 8.89525 6.61216 8.2572 6.35694C7.44721 6.03295 6.8257 5.91748 6.41057 5.92022C6.13785 5.92201 6.02365 5.97094 5.99035 5.99035C5.97094 6.02365 5.92201 6.13786 5.92021 6.41057C5.91748 6.8257 6.03294 7.44722 6.35694 8.25721C6.61216 8.89525 6.97369 9.59265 7.43548 10.3206ZM16.5645 13.6794C17.0263 14.4073 17.3878 15.1047 17.643 15.7428C17.967 16.5528 18.0825 17.1743 18.0798 17.5894C18.078 17.8621 18.029 17.9763 18.0096 18.0096C17.9763 18.029 17.8621 18.078 17.5894 18.0798C17.1743 18.0825 16.5528 17.967 15.7428 17.643C15.1047 17.3878 14.4073 17.0263 13.6794 16.5645C14.1854 16.1372 14.6884 15.6755 15.182 15.182C15.6756 14.6884 16.1372 14.1854 16.5645 13.6794ZM16.5645 10.3206C17.0263 9.59265 17.3878 8.89525 17.643 8.2572C17.967 7.44721 18.0825 6.8257 18.0798 6.41057C18.078 6.13785 18.029 6.02364 18.0096 5.99035C17.9763 5.97094 17.8621 5.92201 17.5894 5.92021C17.1743 5.91748 16.5528 6.03294 15.7428 6.35694C15.1047 6.61216 14.4073 6.9737 13.6794 7.43549C14.1854 7.86274 14.6884 8.32443 15.182 8.81801C15.6755 9.31159 16.1372 9.81456 16.5645 10.3206ZM5.97929 18.0018C5.97929 18.0018 5.98191 18.0032 5.98607 18.007C5.9812 18.0039 5.97929 18.0018 5.97929 18.0018ZM5.99297 18.0139C5.99679 18.0181 5.99817 18.0207 5.99817 18.0207C5.99817 18.0207 5.99609 18.0188 5.99297 18.0139ZM18.0207 5.99816C18.0207 5.99816 18.0181 5.99678 18.0139 5.99296C18.0188 5.99607 18.0207 5.99816 18.0207 5.99816ZM18.007 5.98605C18.0032 5.98189 18.0018 5.97928 18.0018 5.97928C18.0018 5.97928 18.0039 5.98118 18.007 5.98605ZM18.0207 18.0018C18.0207 18.0018 18.0181 18.0032 18.0139 18.007C18.0188 18.0039 18.0207 18.0018 18.0207 18.0018ZM18.007 18.0139C18.0032 18.0181 18.0018 18.0207 18.0018 18.0207C18.0018 18.0207 18.0039 18.0188 18.007 18.0139ZM5.97928 5.99816C5.97928 5.99816 5.98189 5.99678 5.98605 5.99296C5.98118 5.99608 5.97928 5.99816 5.97928 5.99816ZM5.99296 5.98606C5.99678 5.9819 5.99816 5.97928 5.99816 5.97928C5.99816 5.97928 5.99607 5.98118 5.99296 5.98606Z" fill="#364141"/>
</svg>
