<svg width="24" height="24" viewBox="0 0 24 24" fill="none" xmlns="http://www.w3.org/2000/svg">
<path d="M12 19.7928V4.20706C12 3.7616 11.4614 3.53852 11.1464 3.8535L6.5 8.49995H4.5C3.67157 8.49995 3 9.17152 3 9.99995V13.9999C3 14.8284 3.67157 15.4999 4.5 15.4999H6.5L11.1464 20.1464C11.4614 20.4614 12 20.2383 12 19.7928Z" fill="#364141"/>
<path d="M15.182 15.1818C15.9963 14.3674 16.5 13.2425 16.5 11.9999C16.5 10.7572 15.9963 9.63216 15.1819 8.81782L13.7677 10.232C14.2202 10.6844 14.5 11.3095 14.5 11.9999C14.5 12.6902 14.2202 13.3152 13.7678 13.7676L15.182 15.1818Z" fill="#364141"/>
<path d="M18.3639 18.3639L16.9497 16.9496C18.2165 15.6829 19 13.9329 19 11.9998C19 10.0669 18.2165 8.3169 16.9498 7.05015L18.364 5.63594C19.9927 7.26461 21 9.51459 21 11.9998C21 14.4852 19.9926 16.7352 18.3639 18.3639Z" fill="#364141"/>
</svg>
