<svg width="24" height="24" viewBox="0 0 24 24" fill="none" xmlns="http://www.w3.org/2000/svg">
<path fill-rule="evenodd" clip-rule="evenodd" d="M21 12C21 16.9706 16.9706 21 12 21C7.02944 21 3 16.9706 3 12C3 7.02944 7.02944 3 12 3C16.9706 3 21 7.02944 21 12ZM16.1922 17.6064C15.0236 18.4816 13.5723 19 12 19C8.13401 19 5 15.866 5 12C5 10.4277 5.5184 8.97641 6.39362 7.80783L16.1922 17.6064ZM17.6064 16.1922L7.80783 6.39362C8.97641 5.5184 10.4277 5 12 5C15.866 5 19 8.13401 19 12C19 13.5723 18.4816 15.0236 17.6064 16.1922Z" fill="#364141"/>
</svg>
