<svg width="24" height="24" viewBox="0 0 24 24" fill="none" xmlns="http://www.w3.org/2000/svg">
<path d="M3 5.5C3 4.67157 3.67157 4 4.5 4H19.5C20.3284 4 21 4.67157 21 5.5V6.75C21 7.57843 20.3284 8.25 19.5 8.25H4.5C3.67157 8.25 3 7.57843 3 6.75V5.5Z" fill="#364141"/>
<path d="M3 11.38C3 10.5516 3.67157 9.88 4.5 9.88H19.5C20.3284 9.88 21 10.5516 21 11.38V12.63C21 13.4584 20.3284 14.13 19.5 14.13H4.5C3.67157 14.13 3 13.4584 3 12.63V11.38Z" fill="#364141"/>
<path d="M4.5 15.75C3.67157 15.75 3 16.4216 3 17.25V18.5C3 19.3284 3.67157 20 4.5 20H19.5C20.3284 20 21 19.3284 21 18.5V17.25C21 16.4216 20.3284 15.75 19.5 15.75H4.5Z" fill="#364141"/>
</svg>
