<svg width="24" height="24" viewBox="0 0 24 24" fill="none" xmlns="http://www.w3.org/2000/svg">
<path d="M19.3925 6.86587L14.6882 9.58191C13.7779 7.56867 13.8296 5.32259 14.6911 3.41171C16.5463 3.99249 18.2191 5.17218 19.3925 6.86587Z" fill="#364141"/>
<path d="M20.1426 8.1649L15.4382 10.8809C16.7266 12.6759 18.6977 13.7542 20.7833 13.9636C21.2079 12.0666 21.0226 10.028 20.1426 8.1649Z" fill="#364141"/>
<path d="M20.3254 15.4199C17.891 15.0904 15.6147 13.7715 14.1338 11.6341L13.0246 12.2745L17.1342 19.3925C18.6029 18.3749 19.6851 16.9818 20.3254 15.4199Z" fill="#364141"/>
<path d="M15.8352 20.1426L11.7255 13.0245L10.6163 13.6649C11.727 16.0162 11.731 18.6468 10.7991 20.9199C10.2937 20.8515 9.79511 20.7405 9.30903 20.5883C10.1705 18.6774 10.2222 16.4313 9.31191 14.418L4.60745 17.1341C7.10601 20.7404 11.8682 22.0164 15.8352 20.1426Z" fill="#364141"/>
<path d="M3.85746 15.8351C1.9837 11.8681 3.25974 7.10598 6.86598 4.60745L10.9755 11.7254L9.86634 12.3658C8.3854 10.2284 6.10923 8.90953 3.67476 8.58C3.48129 9.05191 3.32817 9.53924 3.2169 10.0363C5.3025 10.2457 7.27352 11.324 8.56191 13.1189L3.85746 15.8351Z" fill="#364141"/>
<path d="M8.16502 3.85746L12.2746 10.9754L13.3838 10.335C12.2732 7.98377 12.2691 5.35315 13.2009 3.08008C11.5282 2.85366 9.78064 3.09433 8.16502 3.85746Z" fill="#364141"/>
</svg>
