<svg width="24" height="24" viewBox="0 0 24 24" fill="none" xmlns="http://www.w3.org/2000/svg">
<path d="M17.75 10C17.75 7.07855 15.5713 4.66598 12.75 4.29847V3H11.25V4.29847C9.73102 4.49634 8.39827 5.28706 7.49156 6.43085L5.03039 3.96967L3.96973 5.03033L18.9697 20.0303L20.0304 18.9697L17.75 16.6893V10Z" fill="#364141"/>
<path d="M6.25003 10C6.25003 9.77931 6.26246 9.56152 6.28666 9.3473L15.1894 18.25H4.00003V16.75C5.24267 16.75 6.25003 15.7426 6.25003 14.5V10Z" fill="#364141"/>
<path d="M12.5 21C13.3285 21 14 20.3284 14 19.5H10C10 20.3284 10.6716 21 11.5 21H12.5Z" fill="#364141"/>
</svg>
