<svg width="24" height="24" viewBox="0 0 24 24" fill="none" xmlns="http://www.w3.org/2000/svg">
<path fill-rule="evenodd" clip-rule="evenodd" d="M6.5 3.75H13.375C15.9293 3.75 18 5.82068 18 8.375C18 9.7343 17.4136 10.9566 16.48 11.8028C17.6995 12.6356 18.5 14.0368 18.5 15.625C18.5 18.1793 16.4293 20.25 13.875 20.25H6.5V3.75ZM13.375 11C14.8247 11 16 9.82475 16 8.375C16 6.92525 14.8247 5.75 13.375 5.75H8.5V11H13.375ZM8.5 13H13.875C15.3247 13 16.5 14.1753 16.5 15.625C16.5 17.0747 15.3247 18.25 13.875 18.25H8.5V13Z" fill="#364141"/>
</svg>
