<svg width="24" height="24" viewBox="0 0 24 24" fill="none" xmlns="http://www.w3.org/2000/svg">
<path d="M6 15.6397V5.19374C6 4.85246 6.33435 4.61148 6.65811 4.7194L11.25 6.25003V17.75L6.34189 16.114C6.13772 16.0459 6 15.8549 6 15.6397Z" fill="#364141"/>
<path d="M12.75 17.75V6.25003L17.3419 4.7194C17.6657 4.61148 18 4.85246 18 5.19374V15.6397C18 15.8549 17.8623 16.0459 17.6581 16.114L12.75 17.75Z" fill="#364141"/>
<path d="M3 8.50006V17.2793C3 17.7097 3.27543 18.0919 3.68377 18.228L11.6838 20.8947C11.889 20.9631 12.111 20.9631 12.3162 20.8946L20.3162 18.228C20.7246 18.0919 21 17.7097 21 17.2793V8.50006C21 7.67163 20.3284 7.00006 19.5 7.00006V17.0001L12 19.5001L4.5 17.0001V7.00006C3.67157 7.00006 3 7.67163 3 8.50006Z" fill="#364141"/>
</svg>
