<svg width="24" height="24" viewBox="0 0 24 24" fill="none" xmlns="http://www.w3.org/2000/svg">
<path fill-rule="evenodd" clip-rule="evenodd" d="M8.25 5.75V6H4.5C3.67157 6 3 6.67157 3 7.5V18.5C3 19.3284 3.67157 20 4.5 20H19.5C20.3284 20 21 19.3284 21 18.5V7.5C21 6.67157 20.3284 6 19.5 6H15.75V5.75C15.75 4.23122 14.5188 3 13 3H11C9.48122 3 8.25 4.23122 8.25 5.75ZM11 4.5C10.3096 4.5 9.75 5.05964 9.75 5.75V6H14.25V5.75C14.25 5.05964 13.6904 4.5 13 4.5H11ZM13 11C13 11.5523 12.5523 12 12 12C11.4477 12 11 11.5523 11 11C11 10.4477 11.4477 10 12 10C12.5523 10 13 10.4477 13 11ZM19 13.3315V11.6172C17.1626 12.725 14.7221 13.4267 12 13.4267C9.27789 13.4267 6.83735 12.725 5 11.6172V13.3315C6.97024 14.3354 9.38763 14.9267 12 14.9267C14.6124 14.9267 17.0298 14.3354 19 13.3315Z" fill="#364141"/>
</svg>
