<svg width="24" height="24" viewBox="0 0 24 24" fill="none" xmlns="http://www.w3.org/2000/svg">
<path fill-rule="evenodd" clip-rule="evenodd" d="M6 5.5C6 4.67157 6.67157 4 7.5 4H19.5C20.3284 4 21 4.67157 21 5.5V16.5C21 17.3284 20.3284 18 19.5 18H7.5C6.67157 18 6 17.3284 6 16.5V5.5ZM11.75 8.25V6H10.25V8.25H8V9.75H19V8.25H11.75Z" fill="#364141"/>
<path d="M4.5 18V7C3.67157 7 3 7.67157 3 8.5V19C3 20.1046 3.89543 21 5 21H15.5C16.3284 21 17 20.3284 17 19.5H6C5.17157 19.5 4.5 18.8284 4.5 18Z" fill="#364141"/>
</svg>
