<svg width="24" height="24" viewBox="0 0 24 24" fill="none" xmlns="http://www.w3.org/2000/svg">
<path d="M18.9811 12.5189C18.7155 16.1426 15.6914 19 12 19C8.13401 19 5 15.866 5 12C5 8.30855 7.8574 5.28449 11.4811 5.01894L13.3929 3.10713C12.9389 3.0366 12.4737 3 12 3C7.02944 3 3 7.02944 3 12C3 16.9706 7.02944 21 12 21C16.9706 21 21 16.9706 21 12C21 11.5263 20.9634 11.0611 20.8929 10.6071L18.9811 12.5189Z" fill="#364141"/>
<path d="M16.279 3.22104L13.5858 5.91421C13.2107 6.28929 13 6.79799 13 7.32843V9.58579L11.2929 11.2929C10.9024 11.6834 10.9024 12.3166 11.2929 12.7071C11.6834 13.0976 12.3166 13.0976 12.7071 12.7071L14.4142 11H16.8572C17.4071 11 17.9328 10.7736 18.3106 10.3739L20.8215 7.71775C21.1307 7.39069 20.9831 6.8523 20.5503 6.72866L18 6L17.2801 3.48048C17.1545 3.04059 16.6025 2.89755 16.279 3.22104Z" fill="#364141"/>
<path d="M7 12C7 9.58103 8.71776 7.56328 11 7.10001V9.17069C9.83481 9.58253 9 10.6938 9 12C9 13.6568 10.3431 15 12 15C13.3062 15 14.4175 14.1652 14.8293 13H16.9C16.4367 15.2822 14.419 17 12 17C9.23858 17 7 14.7614 7 12Z" fill="#364141"/>
</svg>
