<svg width="24" height="24" viewBox="0 0 24 24" fill="none" xmlns="http://www.w3.org/2000/svg">
<path fill-rule="evenodd" clip-rule="evenodd" d="M5.5 4C4.67157 4 4 4.67157 4 5.5V18.5C4 19.3284 4.67157 20 5.5 20H18.5C19.3284 20 20 19.3284 20 18.5V5.5C20 4.67157 19.3284 4 18.5 4H5.5ZM7 7.5C7 7.22386 7.22386 7 7.5 7H16.5C16.7761 7 17 7.22386 17 7.5V9.5C17 9.77614 16.7761 10 16.5 10H7.5C7.22386 10 7 9.77614 7 9.5V7.5ZM13.75 13.5H11.25V12H13.75V13.5ZM7 13.5H9.5V12H7V13.5ZM13.75 17H11.25V15.5H13.75V17ZM15.25 12V17H16.75V12H15.25ZM9.5 17H7V15.5H9.5V17Z" fill="#364141"/>
</svg>
