<svg width="24" height="24" viewBox="0 0 24 24" fill="none" xmlns="http://www.w3.org/2000/svg">
<path fill-rule="evenodd" clip-rule="evenodd" d="M8.75 5H15.25V3H16.75V5H18.5C19.3284 5 20 5.67157 20 6.5V18.5C20 19.3284 19.3284 20 18.5 20H5.5C4.67157 20 4 19.3284 4 18.5V6.5C4 5.67157 4.67157 5 5.5 5H7.25V3H8.75V5ZM6 7V9H18V7H6ZM6 11.75V13.25H8.5V11.75H6ZM13.25 13.25H10.75V11.75H13.25V13.25ZM18 11.75V13.25H15.5V11.75H18ZM13.25 17H10.75V15.5H13.25V17ZM15.5 15.5V17H18V15.5H15.5ZM8.5 17H6V15.5H8.5V17Z" fill="#364141"/>
</svg>
