<svg width="24" height="24" viewBox="0 0 24 24" fill="none" xmlns="http://www.w3.org/2000/svg">
<path fill-rule="evenodd" clip-rule="evenodd" d="M14.25 5H8.75V3H7.25V5H5.5C4.67157 5 4 5.67157 4 6.5V17.5C4 18.2249 4.51417 18.8297 5.1977 18.9695C5.29534 18.9895 5.39645 19 5.5 19H10.2322C9.76443 18.1025 9.5 17.0821 9.5 16C9.5 12.4101 12.4101 9.5 16 9.5C17.0821 9.5 18.1025 9.76443 19 10.2322V6.5C19 5.67157 18.3284 5 17.5 5H15.75V3H14.25V5ZM6 9V7H17V9H6Z" fill="#364141"/>
<path fill-rule="evenodd" clip-rule="evenodd" d="M21 16C21 18.7614 18.7614 21 16 21C13.2386 21 11 18.7614 11 16C11 13.2386 13.2386 11 16 11C18.7614 11 21 13.2386 21 16ZM15.1893 15.75L16.9697 13.9697L18.0303 15.0303L15.8107 17.25H14V15.75H15.1893Z" fill="#364141"/>
</svg>
