<svg width="24" height="24" viewBox="0 0 24 24" fill="none" xmlns="http://www.w3.org/2000/svg">
<path d="M14.5 12.5C14.5 13.8807 13.3807 15 12 15C10.6193 15 9.5 13.8807 9.5 12.5C9.5 11.1193 10.6193 10 12 10C13.3807 10 14.5 11.1193 14.5 12.5Z" fill="#364141"/>
<path fill-rule="evenodd" clip-rule="evenodd" d="M4.5 7C3.67157 7 3 7.67157 3 8.5V18.5C3 19.3284 3.67157 20 4.5 20H19.5C20.3284 20 21 19.3284 21 18.5V8.5C21 7.67157 20.3284 7 19.5 7H17.75C17.5926 7 17.4444 6.9259 17.35 6.8L15.85 4.8C15.4723 4.29639 14.8795 4 14.25 4H9.93675C9.34319 4 8.7803 4.26365 8.40031 4.71963L6.64992 6.82009C6.55493 6.93409 6.4142 7 6.26581 7H4.5ZM16 12.5C16 14.7091 14.2091 16.5 12 16.5C9.79086 16.5 8 14.7091 8 12.5C8 10.2909 9.79086 8.5 12 8.5C14.2091 8.5 16 10.2909 16 12.5Z" fill="#364141"/>
</svg>
