<svg width="24" height="24" viewBox="0 0 24 24" fill="none" xmlns="http://www.w3.org/2000/svg">
<path fill-rule="evenodd" clip-rule="evenodd" d="M4.5 7C3.67157 7 3 7.67157 3 8.5V18.5C3 19.3284 3.67157 20 4.5 20H19.5C20.3284 20 21 19.3284 21 18.5V8.5C21 7.67157 20.3284 7 19.5 7H17.75C17.5926 7 17.4444 6.9259 17.35 6.8L15.85 4.8C15.4723 4.29639 14.8795 4 14.25 4H9.93675C9.34319 4 8.7803 4.26365 8.40031 4.71963L6.64992 6.82009C6.55493 6.93409 6.4142 7 6.26581 7H4.5ZM12 10C12.3612 10 12.7182 10.0783 13.0463 10.2295C13.3744 10.3807 13.6658 10.6012 13.9005 10.8758C14.1352 11.1504 14.3076 11.4726 14.4058 11.8203C14.504 12.1679 14.5258 12.5327 14.4695 12.8895C14.4132 13.2464 14.2802 13.5868 14.0798 13.8873C13.8793 14.1878 13.6161 14.4413 13.3083 14.6304C13.0004 14.8194 12.6553 14.9395 12.2966 14.9823C11.938 15.0252 11.5744 14.9898 11.2307 14.8787L10.7687 16.3058C11.2584 16.4642 11.7735 16.5265 12.2858 16.4898C12.3487 16.4853 12.4117 16.4793 12.4745 16.4718C13.0485 16.4032 13.6007 16.211 14.0932 15.9086C14.5858 15.6061 15.0069 15.2005 15.3276 14.7197C15.6484 14.2388 15.8611 13.6942 15.9511 13.1232C16.0412 12.5523 16.0065 11.9686 15.8493 11.4124C15.6922 10.8562 15.4163 10.3406 15.0408 9.90125C14.6653 9.46185 14.199 9.10906 13.6741 8.86716C13.6166 8.84067 13.5585 8.81558 13.5 8.7919C13.024 8.59933 12.5147 8.5 12 8.5V10ZM9.62134 13.2694C9.7431 13.6458 9.95247 13.988 10.2322 14.2678L9.17157 15.3284C8.8074 14.9642 8.51752 14.5336 8.31732 14.0614C8.27152 13.9533 8.23041 13.8431 8.19414 13.731C8.15788 13.6189 8.12667 13.5055 8.10053 13.3912C7.98628 12.8912 7.96899 12.3729 8.05082 11.8644L9.53182 12.1024C9.46899 12.4929 9.49962 12.8931 9.62134 13.2694ZM9.92776 11.1015C10.1636 10.752 10.4841 10.4678 10.8593 10.2754L10.8602 10.2749L10.1764 8.93988C10.0343 9.01266 9.89712 9.09367 9.76547 9.18234C9.47193 9.38004 9.20592 9.61584 8.97442 9.88353C8.8706 10.0036 8.77372 10.1301 8.68441 10.2624L9.92776 11.1015Z" fill="#364141"/>
</svg>
