<svg width="24" height="24" viewBox="0 0 24 24" fill="none" xmlns="http://www.w3.org/2000/svg">
<path fill-rule="evenodd" clip-rule="evenodd" d="M4.5 7C3.67157 7 3 7.67157 3 8.5V18.5C3 19.3284 3.67157 20 4.5 20H19.5C20.3284 20 21 19.3284 21 18.5V8.5C21 7.67157 20.3284 7 19.5 7H17.75C17.5926 7 17.4444 6.9259 17.35 6.8L15.85 4.8C15.4723 4.29639 14.8795 4 14.25 4H9.93675C9.34319 4 8.7803 4.26365 8.40031 4.71963L6.64992 6.82009C6.55493 6.93409 6.4142 7 6.26581 7H4.5ZM8.96967 10.5303L10.9393 12.5L8.96967 14.4697L10.0303 15.5303L12 13.5607L13.9697 15.5303L15.0303 14.4697L13.0607 12.5L15.0303 10.5303L13.9697 9.46967L12 11.4393L10.0303 9.46967L8.96967 10.5303Z" fill="#364141"/>
</svg>
