<svg width="24" height="24" viewBox="0 0 24 24" fill="none" xmlns="http://www.w3.org/2000/svg">
<path d="M17 3V5.5H14.5V7H17V9.5H18.5V7H21V5.5H18.5V3H17Z" fill="#364141"/>
<path d="M5.65111 5.75H4V3.75H5.65111C6.76082 3.75 7.71533 4.47672 8.03632 5.5H12V6C12 9.31371 14.6863 12 18 12H18.1011C17.8934 12.5888 17.333 13 16.6867 13H8.8833L9.14926 15.5H16.25C17.4926 15.5 18.5 16.5074 18.5 17.75C18.5 18.9926 17.4926 20 16.25 20C15.0074 20 14 18.9926 14 17.75C14 17.6655 14.0047 17.5821 14.0137 17.5H9.48627C9.49534 17.5821 9.5 17.6655 9.5 17.75C9.5 18.9926 8.49264 20 7.25 20C6.00736 20 5 18.9926 5 17.75C5 16.5448 5.94753 15.561 7.13826 15.5027L6.1483 6.19711C6.12126 5.94287 5.90678 5.75 5.65111 5.75Z" fill="#364141"/>
</svg>
