<svg width="24" height="24" viewBox="0 0 24 24" fill="none" xmlns="http://www.w3.org/2000/svg">
<path d="M4 5.75H5.65111C5.90678 5.75 6.12126 5.94287 6.1483 6.19711L7.13826 15.5027C5.94753 15.561 5 16.5448 5 17.75C5 18.9926 6.00736 20 7.25 20C8.49264 20 9.5 18.9926 9.5 17.75C9.5 17.6655 9.49534 17.5821 9.48627 17.5H14.0137C14.0047 17.5821 14 17.6655 14 17.75C14 18.9926 15.0074 20 16.25 20C17.4926 20 18.5 18.9926 18.5 17.75C18.5 16.5074 17.4926 15.5 16.25 15.5H9.14926L8.8833 13H16.7703C17.4853 13 18.1009 12.4953 18.2412 11.7942L19.3804 6.09806C19.4423 5.78866 19.2056 5.5 18.8901 5.5H8.03632C7.71533 4.47672 6.76082 3.75 5.65111 3.75H4V5.75Z" fill="#364141"/>
</svg>
