<svg width="24" height="24" viewBox="0 0 24 24" fill="none" xmlns="http://www.w3.org/2000/svg">
<path d="M19.4832 17.0001C20.4722 15.5201 21 13.78 21 12H16.0064C16.0064 12.7924 15.7714 13.567 15.3312 14.2258C14.891 14.8847 14.2653 15.3982 13.5332 15.7014C12.8011 16.0047 11.9956 16.084 11.2184 15.9294C10.4412 15.7748 9.72736 15.3932 9.16706 14.8329C8.60676 14.2726 8.22518 13.5588 8.0706 12.7816C7.91601 12.0044 7.99535 11.1989 8.29858 10.4668C8.60182 9.73475 9.11533 9.10904 9.77417 8.66881C10.433 8.22858 11.2076 7.99361 12 7.99361V3C10.22 3 8.47991 3.52784 6.99987 4.51677C5.51983 5.50571 4.36628 6.91131 3.68509 8.55585C3.0039 10.2004 2.82567 12.01 3.17294 13.7558C3.5202 15.5016 4.37737 17.1053 5.63604 18.364C6.89472 19.6226 8.49836 20.4798 10.2442 20.8271C11.99 21.1743 13.7996 20.9961 15.4442 20.3149C17.0887 19.6337 18.4943 18.4802 19.4832 17.0001Z" fill="#364141"/>
<path d="M20.283 8.47983C19.3494 6.28304 17.5814 4.54709 15.3678 3.65389L13.4987 8.28598C14.4837 8.68346 15.2705 9.45595 15.6859 10.4335L20.283 8.47983Z" fill="#364141"/>
</svg>
