<svg width="24" height="24" viewBox="0 0 24 24" fill="none" xmlns="http://www.w3.org/2000/svg">
<path d="M17.5 5C16.6716 5 16 5.67157 16 6.5V17.5C16 18.3284 16.6716 19 17.5 19H19.5C20.3284 19 21 18.3284 21 17.5V6.5C21 5.67157 20.3284 5 19.5 5H17.5Z" fill="#364141"/>
<path d="M9.5 9.5C9.5 8.67157 10.1716 8 11 8H13C13.8284 8 14.5 8.67157 14.5 9.5V17.5C14.5 18.3284 13.8284 19 13 19H11C10.1716 19 9.5 18.3284 9.5 17.5V9.5Z" fill="#364141"/>
<path d="M3 12.5C3 11.6716 3.67157 11 4.5 11H6.5C7.32843 11 8 11.6716 8 12.5V17.5C8 18.3284 7.32843 19 6.5 19H4.5C3.67157 19 3 18.3284 3 17.5V12.5Z" fill="#364141"/>
</svg>
