<svg width="24" height="24" viewBox="0 0 24 24" fill="none" xmlns="http://www.w3.org/2000/svg">
<path d="M15.5 6.5C15.5 5.67157 16.1716 5 17 5H18.5C19.3284 5 20 5.67157 20 6.5V16H15.5V6.5Z" fill="#364141"/>
<path d="M5.5 10C4.67157 10 4 10.6716 4 11.5V16H8.5V11.5C8.5 10.6716 7.82843 10 7 10H5.5Z" fill="#364141"/>
<path d="M3 19.25H21V17.25H3V19.25Z" fill="#364141"/>
<path d="M11.25 7.5C10.4216 7.5 9.75 8.17157 9.75 9V16H14.25V9C14.25 8.17157 13.5784 7.5 12.75 7.5H11.25Z" fill="#364141"/>
</svg>
