<svg width="24" height="24" viewBox="0 0 24 24" fill="none" xmlns="http://www.w3.org/2000/svg">
<path fill-rule="evenodd" clip-rule="evenodd" d="M12 21C16.9706 21 21 16.9706 21 12C21 7.02944 16.9706 3 12 3C7.02944 3 3 7.02944 3 12C3 16.9706 7.02944 21 12 21ZM8.75 9.5C8.75 7.98122 9.98122 6.75 11.5 6.75H12.5C14.0188 6.75 15.25 7.98122 15.25 9.5C15.25 10.9345 14.1516 12.1125 12.75 12.2388V13.5H11.25V12C11.25 11.3096 11.8096 10.75 12.5 10.75C13.1904 10.75 13.75 10.1904 13.75 9.5C13.75 8.80964 13.1904 8.25 12.5 8.25H11.5C10.8096 8.25 10.25 8.80964 10.25 9.5H8.75ZM13 16C13 16.5523 12.5523 17 12 17C11.4477 17 11 16.5523 11 16C11 15.4477 11.4477 15 12 15C12.5523 15 13 15.4477 13 16Z" fill="#364141"/>
</svg>
