<svg width="24" height="24" viewBox="0 0 24 24" fill="none" xmlns="http://www.w3.org/2000/svg">
<path fill-rule="evenodd" clip-rule="evenodd" d="M19.8834 16.3453C20.595 15.0571 21 13.5758 21 12C21 7.02944 16.9706 3 12 3C7.02944 3 3 7.02944 3 12C3 13.5533 3.3935 15.0147 4.08625 16.2899C4.09631 16.3084 4.10643 16.3269 4.11661 16.3453C5.64955 19.1205 8.60528 21 12 21C15.3947 21 18.3505 19.1205 19.8834 16.3453ZM18.5231 15.7038C17.233 17.971 14.7951 19.5 12 19.5C9.20493 19.5 6.76696 17.971 5.47688 15.7038C7.35474 14.9423 9.59473 14.5 12 14.5C14.4053 14.5 16.6453 14.9423 18.5231 15.7038ZM15 10C15 11.6569 13.6569 13 12 13C10.3431 13 9 11.6569 9 10C9 8.34315 10.3431 7 12 7C13.6569 7 15 8.34315 15 10Z" fill="#364141"/>
</svg>
