<svg width="24" height="24" viewBox="0 0 24 24" fill="none" xmlns="http://www.w3.org/2000/svg">
<path fill-rule="evenodd" clip-rule="evenodd" d="M12 21C16.9706 21 21 16.9706 21 12C21 7.02944 16.9706 3 12 3C7.02944 3 3 7.02944 3 12C3 16.9706 7.02944 21 12 21ZM11.25 6V7.75C9.86929 7.75 8.75 8.86929 8.75 10.25C8.75 11.6307 9.86929 12.75 11.25 12.75H12.75C13.3023 12.75 13.75 13.1977 13.75 13.75C13.75 14.3023 13.3023 14.75 12.75 14.75H12H11C10.5858 14.75 10.25 14.4142 10.25 14H8.75C8.75 15.2426 9.75736 16.25 11 16.25H11.25V18H12.75V16.25C14.1307 16.25 15.25 15.1307 15.25 13.75C15.25 12.3693 14.1307 11.25 12.75 11.25H11.25C10.6977 11.25 10.25 10.8023 10.25 10.25C10.25 9.69772 10.6977 9.25 11.25 9.25H12H12.5C13.1904 9.25 13.75 9.80964 13.75 10.5H15.25C15.25 9.06549 14.1516 7.88752 12.75 7.76121V6H11.25Z" fill="#364141"/>
</svg>
