<svg width="24" height="24" viewBox="0 0 24 24" fill="none" xmlns="http://www.w3.org/2000/svg">
<path fill-rule="evenodd" clip-rule="evenodd" d="M18.5 12C18.5 16.6944 14.6944 20.5 10 20.5C5.30558 20.5 1.5 16.6944 1.5 12C1.5 7.30558 5.30558 3.5 10 3.5C14.6944 3.5 18.5 7.30558 18.5 12ZM12.9697 8.96967L14.0303 10.0303L8.5 15.5607L5.46967 12.5303L6.53033 11.4697L8.5 13.4393L12.9697 8.96967Z" fill="#364141"/>
<path d="M20 12C20 15.159 18.5352 17.9759 16.2477 19.8085C19.8255 19.0113 22.5 15.818 22.5 12C22.5 8.18204 19.8255 4.98875 16.2477 4.19148C18.5352 6.02409 20 8.84098 20 12Z" fill="#364141"/>
</svg>
