<svg width="24" height="24" viewBox="0 0 24 24" fill="none" xmlns="http://www.w3.org/2000/svg">
<path d="M18 6.81077V11.0001H19.5V6.81077L21.2197 8.53044L22.2803 7.46978L18.75 3.93945L15.2197 7.46978L16.2803 8.53044L18 6.81077Z" fill="#364141"/>
<path fill-rule="evenodd" clip-rule="evenodd" d="M19.9928 12.8521C19.5944 12.9489 19.1782 13.0001 18.75 13.0001C15.8505 13.0001 13.5 10.6496 13.5 7.75011C13.5 6.55549 13.899 5.45407 14.571 4.57183C13.6185 4.20262 12.5829 4.00011 11.5 4.00011C6.80558 4.00011 3 7.80569 3 12.5001C3 17.1945 6.80558 21.0001 11.5 21.0001C16.0765 21.0001 19.8083 17.3833 19.9928 12.8521ZM10.25 7.50012V8.84315C9.12807 8.94813 8.25 9.89242 8.25 11.0418C8.25 12.2614 9.2387 13.2501 10.4583 13.2501H11.5417C11.9329 13.2501 12.25 13.5673 12.25 13.9585C12.25 14.3497 11.9329 14.6668 11.5417 14.6668H10.25C9.97386 14.6668 9.75 14.4429 9.75 14.1668H8.25C8.25 15.2714 9.14543 16.1668 10.25 16.1668V17.5001H11.75V16.1571C12.8719 16.0521 13.75 15.1078 13.75 13.9585C13.75 12.7388 12.7613 11.7501 11.5417 11.7501H10.4583C10.0671 11.7501 9.75 11.433 9.75 11.0418C9.75 10.6506 10.0671 10.3335 10.4583 10.3335H11.3333C11.8396 10.3335 12.25 10.7439 12.25 11.2501H13.75C13.75 10.0575 12.8861 9.06669 11.75 8.86924V7.50012H10.25Z" fill="#364141"/>
</svg>
