<svg width="24" height="24" viewBox="0 0 24 24" fill="none" xmlns="http://www.w3.org/2000/svg">
<path d="M12 4.75C9.47546 4.75 7.25069 6.0406 5.95208 8H8.45001V10H2.75V4H4.75V6.25518C6.44387 4.12025 9.06123 2.75 12 2.75C17.1086 2.75 21.25 6.89137 21.25 12C21.25 17.1086 17.1086 21.25 12 21.25C6.89137 21.25 2.75 17.1086 2.75 12H4.75C4.75 16.0041 7.99594 19.25 12 19.25C16.0041 19.25 19.25 16.0041 19.25 12C19.25 7.99594 16.0041 4.75 12 4.75Z" fill="#364141"/>
<path d="M11 7V12.4142L14.2929 15.7071L15.7071 14.2929L13 11.5858V7H11Z" fill="#364141"/>
</svg>
