<svg width="24" height="24" viewBox="0 0 24 24" fill="none" xmlns="http://www.w3.org/2000/svg">
<path fill-rule="evenodd" clip-rule="evenodd" d="M3.54297 4.20694L19.543 20.2069L20.9572 18.7927L19.7175 17.553C19.8953 17.3064 20.0001 17.0037 20.0001 16.6764V6.49996C20.0001 5.67154 19.3285 4.99996 18.5001 4.99996H7.16442L4.95718 2.79272L3.54297 4.20694ZM11.314 9.14953L14.1887 12.0242L15.5856 10.8277C15.7545 10.683 15.6646 10.4064 15.4429 10.3886L13.2764 10.2149C13.183 10.2074 13.1016 10.1483 13.0656 10.0617L12.2309 8.05495C12.1455 7.84962 11.8547 7.84962 11.7693 8.05494L11.314 9.14953Z" fill="#364141"/>
<path d="M9.64146 14.6036L10.1322 12.5463L8.40427 10.8184C8.4009 10.8152 8.39766 10.8119 8.39452 10.8086L4.00237 6.41646C4.00085 6.4441 4.00009 6.47194 4.00009 6.49996V16.6764C4.00009 17.5049 4.67166 18.1764 5.50009 18.1764H8.85009C8.93293 18.1764 9.00009 18.2436 9.00009 18.3264V20.2121C9.00009 20.5786 9.38136 20.8205 9.71298 20.6645L14.7978 18.2716C14.931 18.2089 15.0764 18.1764 15.2236 18.1764H15.7623L11.5334 13.9475L10.015 14.875C9.82518 14.9909 9.58987 14.8199 9.64146 14.6036Z" fill="#364141"/>
</svg>
