<svg width="24" height="24" viewBox="0 0 24 24" fill="none" xmlns="http://www.w3.org/2000/svg">
<path fill-rule="evenodd" clip-rule="evenodd" d="M5.5 4C4.67157 4 4 4.67157 4 5.5V16.5C4 17.3284 4.67157 18 5.5 18H8.85C8.93284 18 9 18.0672 9 18.15V20.191C9 20.5627 9.39116 20.8044 9.72361 20.6382L14.7889 18.1056C14.9277 18.0361 15.0808 18 15.2361 18H18.5C19.3284 18 20 17.3284 20 16.5V5.5C20 4.67157 19.3284 4 18.5 4H5.5ZM12.2308 7.55498C12.1454 7.34966 11.8546 7.34966 11.7692 7.55498L10.9345 9.56176C10.8985 9.64832 10.8171 9.70747 10.7236 9.71496L8.55716 9.88864C8.3355 9.90641 8.24561 10.183 8.4145 10.3277L10.0651 11.7417C10.1363 11.8026 10.1674 11.8983 10.1457 11.9895L9.64138 14.1037C9.58978 14.32 9.82509 14.4909 10.0149 14.375L11.8697 13.2421C11.9497 13.1932 12.0503 13.1932 12.1303 13.2421L13.9851 14.375C14.1749 14.4909 14.4102 14.32 14.3586 14.1037L13.8543 11.9895C13.8326 11.8983 13.8637 11.8026 13.9349 11.7417L15.5855 10.3277C15.7544 10.183 15.6645 9.90641 15.4428 9.88864L13.2764 9.71496C13.1829 9.70747 13.1015 9.64832 13.0655 9.56177L12.2308 7.55498Z" fill="#364141"/>
</svg>
