<svg width="24" height="24" viewBox="0 0 24 24" fill="none" xmlns="http://www.w3.org/2000/svg">
<path fill-rule="evenodd" clip-rule="evenodd" d="M5.5 4C4.67157 4 4 4.67157 4 5.5V16.5C4 17.3284 4.67157 18 5.5 18H8.85C8.93284 18 9 18.0672 9 18.15V20.191C9 20.5627 9.39116 20.8044 9.72361 20.6382L14.7889 18.1056C14.9277 18.0361 15.0808 18 15.2361 18H18.5C19.3284 18 20 17.3284 20 16.5V5.5C20 4.67157 19.3284 4 18.5 4H5.5ZM11.25 7.75V10.25H8.75V11.75H11.25V14.25H12.75V11.75H15.25V10.25H12.75V7.75H11.25Z" fill="#364141"/>
</svg>
