<svg width="24" height="24" viewBox="0 0 24 24" fill="none" xmlns="http://www.w3.org/2000/svg">
<path d="M13.25 4.25C13.25 4.94036 12.6904 5.5 12 5.5C11.3096 5.5 10.75 4.94036 10.75 4.25C10.75 3.55964 11.3096 3 12 3C12.6904 3 13.25 3.55964 13.25 4.25Z" fill="#364141"/>
<path d="M4.55256 6.80672C5.07092 6.62042 5.61436 6.9305 5.75578 7.46286L5.76098 7.48246C5.89566 7.98946 6.39922 8.30621 6.91455 8.20807L6.93708 8.20377C7.40875 8.11395 7.75 7.70157 7.75 7.22143V7.14096C7.75 6.64617 8.11194 6.22572 8.60414 6.17523C9.10221 6.12414 9.64368 6.0821 10.1465 6.04933C10.6106 6.01908 11 6.38994 11 6.85504C11 7.30406 11.364 7.66807 11.813 7.66807H12.191C12.6378 7.66807 13 7.30585 13 6.85903C13 6.3951 13.3893 6.02561 13.8522 6.05556C14.3525 6.08792 14.8993 6.1287 15.3955 6.17772C15.8879 6.22635 16.25 6.64617 16.25 7.14096V7.22143C16.25 7.70157 16.5913 8.11395 17.0629 8.20377L17.0855 8.20807C17.6008 8.30621 18.1043 7.98946 18.239 7.48246L18.2442 7.46286C18.3856 6.9305 18.9291 6.62042 19.4474 6.80672C20.0151 7.01072 20.6339 7.25792 21 7.4265V7.43002L18 16H6L3 7.43002V7.4265C3.36608 7.25792 3.98493 7.01072 4.55256 6.80672Z" fill="#364141"/>
<path d="M5.5 17.25V19.25H18.5V17.25H5.5Z" fill="#364141"/>
</svg>
