<svg width="24" height="24" viewBox="0 0 24 24" fill="none" xmlns="http://www.w3.org/2000/svg">
<path d="M3.99982 7.75C3.99982 6.09315 5.34296 4.75 6.99982 4.75H7.49982V6.75H6.99982C6.44753 6.75 5.99982 7.19772 5.99982 7.75V9.9914C5.99982 10.7531 5.71271 11.4622 5.2282 12C5.71271 12.5378 5.99982 13.2469 5.99982 14.0086V16.25C5.99982 16.8023 6.44753 17.25 6.99982 17.25H7.49982V19.25H6.99982C5.34296 19.25 3.99982 17.9069 3.99982 16.25V14.0086C3.99982 13.5621 3.70384 13.1697 3.27454 13.0471L2.9751 12.9615V11.0385L3.27454 10.9529C3.70384 10.8303 3.99982 10.4379 3.99982 9.9914V7.75Z" fill="#364141"/>
<path d="M10.9998 11V8.75H12.9998V11H15.2498V13H12.9998V15.25H10.9998V13H8.74982V11H10.9998Z" fill="#364141"/>
<path d="M16.9998 4.75C18.6567 4.75 19.9998 6.09315 19.9998 7.75V9.9914C19.9998 10.4379 20.2958 10.8303 20.7251 10.9529L21.0245 11.0385V12.9615L20.7251 13.0471C20.2958 13.1697 19.9998 13.5621 19.9998 14.0086V16.25C19.9998 17.9069 18.6567 19.25 16.9998 19.25H16.4998V17.25H16.9998C17.5521 17.25 17.9998 16.8023 17.9998 16.25V14.0086C17.9998 13.2469 18.2869 12.5378 18.7714 12C18.2869 11.4622 17.9998 10.7531 17.9998 9.9914V7.75C17.9998 7.19772 17.5521 6.75 16.9998 6.75H16.4998V4.75H16.9998Z" fill="#364141"/>
</svg>
