<svg width="24" height="24" viewBox="0 0 24 24" fill="none" xmlns="http://www.w3.org/2000/svg">
<path fill-rule="evenodd" clip-rule="evenodd" d="M19.5 5C20.3284 5 21 5.67157 21 6.5V17.5C21 18.3284 20.3284 19 19.5 19H7.87048C7.3322 19 6.83518 18.7116 6.56812 18.2442L3 12L6.56812 5.75579C6.83518 5.28843 7.3322 5 7.87048 5H19.5ZM15.2981 8.64136L13 10.9395L10.7019 8.64136L9.64124 9.70202L11.9393 12.0001L9.64124 14.2982L10.7019 15.3589L13 13.0608L15.2981 15.3589L16.3588 14.2982L14.0607 12.0001L16.3588 9.70202L15.2981 8.64136Z" fill="#364141"/>
</svg>
