<svg width="24" height="24" viewBox="0 0 24 24" fill="none" xmlns="http://www.w3.org/2000/svg">
<path fill-rule="evenodd" clip-rule="evenodd" d="M11 4.75V3H13V4.75C15.2091 4.75 17 6.54086 17 8.75V9H15V8.75C15 7.64543 14.1046 6.75 13 6.75H11C9.89543 6.75 9 7.64543 9 8.75V9C9 10.1046 9.89543 11 11 11H13C15.2091 11 17 12.7909 17 15V15.25C17 17.4591 15.2091 19.25 13 19.25V21H11V19.25C8.79086 19.25 7 17.4591 7 15.25V15H9V15.25C9 16.3546 9.89543 17.25 11 17.25H13C14.1046 17.25 15 16.3546 15 15.25V15C15 13.8954 14.1046 13 13 13H11C8.79086 13 7 11.2091 7 9V8.75C7 6.54086 8.79086 4.75 11 4.75Z" fill="#364141"/>
</svg>
