<svg width="24" height="24" viewBox="0 0 24 24" fill="none" xmlns="http://www.w3.org/2000/svg">
<path d="M7.5 12C7.5 12.9665 6.7165 13.75 5.75 13.75C4.7835 13.75 4 12.9665 4 12C4 11.0335 4.7835 10.25 5.75 10.25C6.7165 10.25 7.5 11.0335 7.5 12Z" fill="#364141"/>
<path d="M13.75 12C13.75 12.9665 12.9665 13.75 12 13.75C11.0335 13.75 10.25 12.9665 10.25 12C10.25 11.0335 11.0335 10.25 12 10.25C12.9665 10.25 13.75 11.0335 13.75 12Z" fill="#364141"/>
<path d="M18.25 13.75C19.2165 13.75 20 12.9665 20 12C20 11.0335 19.2165 10.25 18.25 10.25C17.2835 10.25 16.5 11.0335 16.5 12C16.5 12.9665 17.2835 13.75 18.25 13.75Z" fill="#364141"/>
</svg>
