<svg width="24" height="24" viewBox="0 0 24 24" fill="none" xmlns="http://www.w3.org/2000/svg">
<path d="M12 7.5C11.0335 7.5 10.25 6.7165 10.25 5.75C10.25 4.7835 11.0335 4 12 4C12.9665 4 13.75 4.7835 13.75 5.75C13.75 6.7165 12.9665 7.5 12 7.5Z" fill="#364141"/>
<path d="M12 13.75C11.0335 13.75 10.25 12.9665 10.25 12C10.25 11.0335 11.0335 10.25 12 10.25C12.9665 10.25 13.75 11.0335 13.75 12C13.75 12.9665 12.9665 13.75 12 13.75Z" fill="#364141"/>
<path d="M10.25 18.25C10.25 19.2165 11.0335 20 12 20C12.9665 20 13.75 19.2165 13.75 18.25C13.75 17.2835 12.9665 16.5 12 16.5C11.0335 16.5 10.25 17.2835 10.25 18.25Z" fill="#364141"/>
</svg>
