<svg width="24" height="24" viewBox="0 0 24 24" fill="none" xmlns="http://www.w3.org/2000/svg">
<path fill-rule="evenodd" clip-rule="evenodd" d="M17.5992 17.185L19.707 19.2929L18.2928 20.7071L3.29283 5.70711L4.70705 4.29289L6.82621 6.41206C8.1875 5.18837 9.91204 4.25 11.9998 4.25C17.0404 4.25 19.9638 9.71968 20.7698 11.4689C20.9262 11.8082 20.9262 12.1918 20.7698 12.5311C20.3335 13.4781 19.2766 15.5154 17.5992 17.185ZM10.0958 9.68163L11.1667 10.7525C11.405 10.593 11.6916 10.5 12 10.5C12.8284 10.5 13.5 11.1715 13.5 12C13.5 12.3083 13.4069 12.5949 13.2474 12.8332L14.3183 13.9041C14.7442 13.3861 15 12.7229 15 12C15 10.3431 13.6568 8.99995 12 8.99995C11.277 8.99995 10.6138 9.25569 10.0958 9.68163Z" fill="#364141"/>
<path d="M3.23004 11.4689C3.48187 10.9224 3.94041 10.0126 4.60568 9.01989L14.7581 19.1723C13.9226 19.5333 13.0031 19.75 11.9998 19.75C6.9592 19.75 4.03599 14.2802 3.23004 12.5311C3.07371 12.1918 3.07371 11.8082 3.23004 11.4689Z" fill="#364141"/>
</svg>
