<svg width="24" height="24" viewBox="0 0 24 24" fill="none" xmlns="http://www.w3.org/2000/svg">
<path d="M13.7499 12C13.7499 12.9665 12.9664 13.75 11.9999 13.75C11.0334 13.75 10.2499 12.9665 10.2499 12C10.2499 11.0335 11.0334 10.25 11.9999 10.25C12.9664 10.25 13.7499 11.0335 13.7499 12Z" fill="#364141"/>
<path fill-rule="evenodd" clip-rule="evenodd" d="M3.23004 11.4689C4.03599 9.71975 6.9592 4.25 11.9998 4.25C17.0404 4.25 19.9638 9.71968 20.7698 11.4689C20.9262 11.8082 20.9262 12.1918 20.7698 12.5311C19.9638 14.2803 17.0404 19.75 11.9998 19.75C6.9592 19.75 4.03599 14.2802 3.23004 12.5311C3.07371 12.1918 3.07371 11.8082 3.23004 11.4689ZM15.2499 12C15.2499 13.7949 13.7948 15.25 11.9999 15.25C10.205 15.25 8.74991 13.7949 8.74991 12C8.74991 10.2051 10.205 8.75 11.9999 8.75C13.7948 8.75 15.2499 10.2051 15.2499 12Z" fill="#364141"/>
</svg>
