<svg width="24" height="24" viewBox="0 0 24 24" fill="none" xmlns="http://www.w3.org/2000/svg">
<path fill-rule="evenodd" clip-rule="evenodd" d="M12 21C16.9706 21 21 16.9706 21 12C21 7.02944 16.9706 3 12 3C7.02944 3 3 7.02944 3 12C3 16.9706 7.02944 21 12 21ZM14.75 10.75C14.75 10.1977 15.1977 9.75 15.75 9.75C16.3023 9.75 16.75 10.1977 16.75 10.75V11H18.25V10.75C18.25 9.36929 17.1307 8.25 15.75 8.25C14.3693 8.25 13.25 9.36929 13.25 10.75V11H14.75V10.75ZM8.25 9.75C7.69772 9.75 7.25 10.1977 7.25 10.75V11H5.75V10.75C5.75 9.36929 6.86929 8.25 8.25 8.25C9.63071 8.25 10.75 9.36929 10.75 10.75V11H9.25V10.75C9.25 10.1977 8.80228 9.75 8.25 9.75ZM16 13.25C16 14.9069 14.5 16.75 12 16.75C9.5 16.75 8 14.9069 8 13.25H16Z" fill="#364141"/>
</svg>
