<svg width="24" height="24" viewBox="0 0 24 24" fill="none" xmlns="http://www.w3.org/2000/svg">
<path fill-rule="evenodd" clip-rule="evenodd" d="M12 21C16.9706 21 21 16.9706 21 12C21 7.02944 16.9706 3 12 3C7.02944 3 3 7.02944 3 12C3 16.9706 7.02944 21 12 21ZM8.5 10.5C9.05228 10.5 9.5 10.0523 9.5 9.5C9.5 8.94772 9.05228 8.5 8.5 8.5C7.94772 8.5 7.5 8.94772 7.5 9.5C7.5 10.0523 7.94772 10.5 8.5 10.5ZM15.5 10.5C16.0523 10.5 16.5 10.0523 16.5 9.5C16.5 8.94772 16.0523 8.5 15.5 8.5C14.9477 8.5 14.5 8.94772 14.5 9.5C14.5 10.0523 14.9477 10.5 15.5 10.5ZM15.5 14.25V15.75H8.5V14.25H15.5Z" fill="#364141"/>
</svg>
