<svg width="24" height="24" viewBox="0 0 24 24" fill="none" xmlns="http://www.w3.org/2000/svg">
<path fill-rule="evenodd" clip-rule="evenodd" d="M12 21C16.9706 21 21 16.9706 21 12C21 7.02944 16.9706 3 12 3C7.02944 3 3 7.02944 3 12C3 16.9706 7.02944 21 12 21ZM16 16.75C16 15.0931 14.5 13.25 12 13.25C9.5 13.25 8 15.0931 8 16.75H16ZM15.75 10.25C15.1977 10.25 14.75 9.80228 14.75 9.25V9H13.25V9.25C13.25 10.6307 14.3693 11.75 15.75 11.75C17.1307 11.75 18.25 10.6307 18.25 9.25V9H16.75V9.25C16.75 9.80228 16.3023 10.25 15.75 10.25ZM7.25 9.25C7.25 9.80228 7.69772 10.25 8.25 10.25C8.80228 10.25 9.25 9.80228 9.25 9.25V9H10.75V9.25C10.75 10.6307 9.63071 11.75 8.25 11.75C6.86929 11.75 5.75 10.6307 5.75 9.25V9H7.25V9.25Z" fill="#364141"/>
</svg>
