<svg width="24" height="24" viewBox="0 0 24 24" fill="none" xmlns="http://www.w3.org/2000/svg">
<path fill-rule="evenodd" clip-rule="evenodd" d="M12 21C16.9706 21 21 16.9706 21 12C21 7.02944 16.9706 3 12 3C7.02944 3 3 7.02944 3 12C3 16.9706 7.02944 21 12 21ZM8.5 10.5C9.05228 10.5 9.5 10.0523 9.5 9.5C9.5 8.94772 9.05228 8.5 8.5 8.5C7.94772 8.5 7.5 8.94772 7.5 9.5C7.5 10.0523 7.94772 10.5 8.5 10.5ZM15.5 10.5C16.0523 10.5 16.5 10.0523 16.5 9.5C16.5 8.94772 16.0523 8.5 15.5 8.5C14.9477 8.5 14.5 8.94772 14.5 9.5C14.5 10.0523 14.9477 10.5 15.5 10.5ZM7.35545 13C7.81468 15.1432 9.71969 16.75 12 16.75C14.2803 16.75 16.1853 15.1432 16.6446 13H15.0933C14.6715 14.3056 13.446 15.25 12 15.25C10.554 15.25 9.32853 14.3056 8.90675 13H7.35545Z" fill="#364141"/>
</svg>
