<svg width="24" height="24" viewBox="0 0 24 24" fill="none" xmlns="http://www.w3.org/2000/svg">
<path fill-rule="evenodd" clip-rule="evenodd" d="M12 21C16.9706 21 21 16.9706 21 12C21 7.02944 16.9706 3 12 3C7.02944 3 3 7.02944 3 12C3 16.9706 7.02944 21 12 21ZM10 10.25H7V8.75H10V10.25ZM14 10.25H17V8.75H14V10.25ZM12 12C9.71971 12 7.81469 13.6068 7.35547 15.75H8.90677C9.32855 14.4444 10.554 13.5 12 13.5C13.446 13.5 14.6715 14.4444 15.0933 15.75H16.6446C16.1853 13.6068 14.2803 12 12 12Z" fill="#364141"/>
</svg>
