<svg width="24" height="24" viewBox="0 0 24 24" fill="none" xmlns="http://www.w3.org/2000/svg">
<path d="M3 5.5V18C3 18.5523 3.44772 19 4 19C4.55228 19 5 18.5523 5 18V10.75C5 9.50736 6.00736 8.5 7.25 8.5H18V8C18 7.17157 17.3284 6.5 16.5 6.5H11.5L10.1005 4.75061C9.72094 4.27618 9.14632 4 8.53875 4H4.5C3.67157 4 3 4.67157 3 5.5Z" fill="#364141"/>
<path d="M8 10H18.75C19.5784 10 20.25 10.6716 20.25 11.5V17.5C20.25 18.3284 19.5784 19 18.75 19H6.5V11.5C6.5 10.6716 7.17157 10 8 10Z" fill="#364141"/>
</svg>
