<svg width="24" height="24" viewBox="0 0 24 24" fill="none" xmlns="http://www.w3.org/2000/svg">
<path fill-rule="evenodd" clip-rule="evenodd" d="M6.21582 4.75H9.75788L13.7579 19H11.6806L10.2771 14H6.00333L4.77526 19H2.71582L6.21582 4.75ZM6.49456 12H9.71566L8.24198 6.75H7.78404L6.49456 12Z" fill="#364141"/>
<path fill-rule="evenodd" clip-rule="evenodd" d="M17.4999 11.5C15.5669 11.5 13.9999 13.067 13.9999 15V15.5C13.9999 17.433 15.5669 19 17.4999 19C18.3567 19 19.1416 18.6922 19.7499 18.1811V19H21.2499V11.5H19.7499V12.3189C19.1416 11.8078 18.3567 11.5 17.4999 11.5ZM18.9999 15.5V15C18.9999 14.1716 18.3284 13.5 17.4999 13.5C16.6715 13.5 15.9999 14.1716 15.9999 15V15.5C15.9999 16.3284 16.6715 17 17.4999 17C18.3284 17 18.9999 16.3284 18.9999 15.5Z" fill="#364141"/>
</svg>
