<svg width="24" height="24" viewBox="0 0 24 24" fill="none" xmlns="http://www.w3.org/2000/svg">
<path d="M5.5 4C4.67157 4 4 4.67157 4 5.5V9.75C4 10.5784 4.67157 11.25 5.5 11.25H9.75C10.5784 11.25 11.25 10.5784 11.25 9.75V5.5C11.25 4.67157 10.5784 4 9.75 4H5.5Z" fill="#364141"/>
<path d="M14.25 4C13.4216 4 12.75 4.67157 12.75 5.5V9.75C12.75 10.5784 13.4216 11.25 14.25 11.25H18.5C19.3284 11.25 20 10.5784 20 9.75V5.5C20 4.67157 19.3284 4 18.5 4H14.25Z" fill="#364141"/>
<path d="M4 14.3C4 13.4716 4.67157 12.8 5.5 12.8H9.75C10.5784 12.8 11.25 13.4716 11.25 14.3V18.55C11.25 19.3784 10.5784 20.05 9.75 20.05H5.5C4.67157 20.05 4 19.3784 4 18.55V14.3Z" fill="#364141"/>
<path d="M14.25 12.8C13.4216 12.8 12.75 13.4716 12.75 14.3V18.55C12.75 19.3784 13.4216 20.05 14.25 20.05H18.5C19.3284 20.05 20 19.3784 20 18.55V14.3C20 13.4716 19.3284 12.8 18.5 12.8H14.25Z" fill="#364141"/>
</svg>
