<svg width="24" height="24" viewBox="0 0 24 24" fill="none" xmlns="http://www.w3.org/2000/svg">
<path fill-rule="evenodd" clip-rule="evenodd" d="M21 13C21 15.8273 19.6963 18.35 17.6573 20H6.34267C4.30367 18.35 3 15.8273 3 13C3 8.02944 7.02944 4 12 4C16.9706 4 21 8.02944 21 13ZM14.5 13.0501C14.5 12.6197 14.3912 12.2147 14.1997 11.861L16.0303 10.0304L14.9697 8.96973L13.1233 10.8161C12.7856 10.6459 12.404 10.5501 12 10.5501C10.6193 10.5501 9.5 11.6694 9.5 13.0501C9.5 14.4308 10.6193 15.5501 12 15.5501C13.3807 15.5501 14.5 14.4308 14.5 13.0501Z" fill="#364141"/>
</svg>
