<svg width="24" height="24" viewBox="0 0 24 24" fill="none" xmlns="http://www.w3.org/2000/svg">
<path fill-rule="evenodd" clip-rule="evenodd" d="M11.0047 3C10.4498 3 10 3.44981 10 4.00467C10 4.45659 9.69537 4.84634 9.27437 5.01064C9.17713 5.04859 9.08088 5.08851 8.98566 5.13035C8.57173 5.31224 8.08049 5.2521 7.76079 4.9324C7.36837 4.53998 6.73214 4.53998 6.33972 4.9324L4.93237 6.33975C4.53995 6.73217 4.53995 7.36841 4.93237 7.76084C5.25207 8.08054 5.31221 8.57179 5.13032 8.98572C5.08849 9.08091 5.04858 9.17715 5.01064 9.27437C4.84634 9.69537 4.45659 10 4.00467 10C3.44981 10 3 10.4498 3 11.0047V12.9953C3 13.5502 3.44981 14 4.00467 14C4.45659 14 4.84634 14.3046 5.01064 14.7256C5.04859 14.8229 5.08851 14.9191 5.13035 15.0143C5.31225 15.4283 5.25211 15.9196 4.93239 16.2393C4.53996 16.6317 4.53996 17.268 4.93239 17.6604L6.33966 19.0677C6.73211 19.4601 7.36839 19.4601 7.76084 19.0677C8.08056 18.748 8.57184 18.6878 8.98579 18.8697C9.08097 18.9115 9.17718 18.9514 9.27437 18.9894C9.69537 19.1537 10 19.5434 10 19.9953C10 20.5502 10.4498 21 11.0047 21H12.9953C13.5502 21 14 20.5502 14 19.9953C14 19.5434 14.3046 19.1537 14.7256 18.9894C14.8228 18.9514 14.9191 18.9115 15.0143 18.8697C15.4282 18.6878 15.9195 18.7479 16.2392 19.0676C16.6316 19.4601 17.2679 19.4601 17.6603 19.0676L19.0676 17.6603C19.46 17.2679 19.46 16.6317 19.0676 16.2392C18.7479 15.9195 18.6878 15.4283 18.8697 15.0143C18.9115 14.9191 18.9514 14.8229 18.9894 14.7256C19.1537 14.3046 19.5434 14 19.9953 14C20.5502 14 21 13.5502 21 12.9953V11.0047C21 10.4498 20.5502 10 19.9953 10C19.5434 10 19.1537 9.69537 18.9894 9.27437C18.9514 9.17716 18.9115 9.08093 18.8697 8.98574C18.6878 8.57182 18.7479 8.08058 19.0676 7.76088C19.4601 7.36847 19.4601 6.73224 19.0676 6.33982L17.6603 4.93243C17.2679 4.54003 16.6316 4.54003 16.2392 4.93243C15.9195 5.25213 15.4283 5.31226 15.0144 5.13037C14.9192 5.08852 14.8229 5.0486 14.7256 5.01064C14.3046 4.84634 14 4.45659 14 4.00467C14 3.44981 13.5502 3 12.9953 3H11.0047ZM12 15C13.6569 15 15 13.6569 15 12C15 10.3431 13.6569 9 12 9C10.3431 9 9 10.3431 9 12C9 13.6569 10.3431 15 12 15Z" fill="#364141"/>
</svg>
