<svg width="24" height="24" viewBox="0 0 24 24" fill="none" xmlns="http://www.w3.org/2000/svg">
<path fill-rule="evenodd" clip-rule="evenodd" d="M4.5 5C3.67157 5 3 5.67157 3 6.5V17.5C3 18.3284 3.67157 19 4.5 19H19.5C20.3284 19 21 18.3284 21 17.5V6.5C21 5.67157 20.3284 5 19.5 5H4.5ZM11.0661 11.2188C11.0505 10.2852 10.3239 9.32812 8.78094 9.32812C7.17157 9.32812 6.3161 10.3555 6.3161 11.7617V12.3672C6.3161 13.6953 7.01532 14.8438 8.76923 14.8438C10.4216 14.8438 11.07 13.8125 11.07 12.7695V11.7578H8.88641V12.793H9.62469V12.9023C9.62469 13.25 9.35907 13.6016 8.80829 13.6016C8.07001 13.6016 7.8786 13.0156 7.8786 12.3594V11.7812C7.8786 11.0039 8.18719 10.5703 8.76923 10.5703C9.26141 10.5703 9.53094 10.8789 9.57391 11.2188H11.0661ZM13.2109 14.75V9.41797H11.668V14.75H13.2109ZM15.5706 12.8633V14.75H14.0277V9.41797H17.7542V10.6328H15.5706V11.6914H17.5472V12.8633H15.5706Z" fill="#364141"/>
</svg>
