<svg width="24" height="24" viewBox="0 0 24 24" fill="none" xmlns="http://www.w3.org/2000/svg">
<path fill-rule="evenodd" clip-rule="evenodd" d="M8.41167 7C7.98851 7 7.61116 7.26635 7.46943 7.66507L6.25967 11.0684C6.49959 11.0235 6.74705 11 7 11C8.48056 11 9.77325 11.8044 10.4649 13H13.5351C14.2267 11.8044 15.5194 11 17 11C17.253 11 17.5004 11.0235 17.7403 11.0684L16.5306 7.66506C16.3888 7.26635 16.0115 7 15.5883 7H14V5H15.5883C16.8578 5 17.9899 5.79904 18.4151 6.99519L20.786 13.6651C20.8081 13.7271 20.8236 13.7899 20.833 13.8527C20.9417 14.2161 21 14.6013 21 15C21 17.2091 19.2091 19 17 19C14.7909 19 13 17.2091 13 15H11C11 17.2091 9.20914 19 7 19C4.79086 19 3 17.2091 3 15C3 14.6012 3.05837 14.216 3.16703 13.8525C3.17645 13.7898 3.192 13.7271 3.21404 13.6651L5.58495 6.9952C6.01014 5.79904 7.14219 5 8.41167 5H10V7H8.41167ZM7 17C8.10457 17 9 16.1046 9 15C9 13.8954 8.10457 13 7 13C5.89543 13 5 13.8954 5 15C5 16.1046 5.89543 17 7 17ZM17 17C18.1046 17 19 16.1046 19 15C19 13.8954 18.1046 13 17 13C15.8954 13 15 13.8954 15 15C15 16.1046 15.8954 17 17 17Z" fill="#364141"/>
</svg>
