<svg width="24" height="24" viewBox="0 0 24 24" fill="none" xmlns="http://www.w3.org/2000/svg">
<path d="M13.1527 20.9269C16.517 20.4968 19.3007 18.2091 20.4427 15.125H16.3642C15.8065 17.3387 14.6698 19.3223 13.1246 20.9053C13.134 20.9125 13.1433 20.9197 13.1527 20.9269Z" fill="#364141"/>
<path d="M12 19.9096C13.3028 18.5921 14.2824 16.9543 14.8103 15.125H9.18971C9.71759 16.9543 10.6972 18.5921 12 19.9096Z" fill="#364141"/>
<path d="M8.90555 13.875H15.0945C15.1968 13.2652 15.25 12.6388 15.25 12C15.25 11.3612 15.1968 10.7348 15.0945 10.125H8.90554C8.80325 10.7348 8.75 11.3611 8.75 12C8.75 12.6388 8.80325 13.2652 8.90555 13.875Z" fill="#364141"/>
<path d="M7.38689 10.125C7.29671 10.7369 7.25 11.363 7.25 12C7.25 12.637 7.29671 13.2631 7.3869 13.875H3.19559C3.06743 13.2702 3 12.643 3 12C3 11.357 3.06743 10.7298 3.19559 10.125H7.38689Z" fill="#364141"/>
<path d="M9.1897 8.875H14.8103C14.2824 7.04567 13.3028 5.40791 12 4.09034C10.6972 5.40791 9.71757 7.04567 9.1897 8.875Z" fill="#364141"/>
<path d="M10.8754 20.9053C10.8661 20.9125 10.8567 20.9197 10.8473 20.9269C7.48302 20.4968 4.69935 18.2091 3.55735 15.125H7.63577C8.19353 17.3387 9.3302 19.3223 10.8754 20.9053Z" fill="#364141"/>
<path d="M10.8754 3.09471C9.33018 4.67772 8.19351 6.66128 7.63576 8.875H3.55735C4.69935 5.79085 7.48301 3.50323 10.8473 3.07312C10.8567 3.0803 10.866 3.0875 10.8754 3.09471Z" fill="#364141"/>
<path d="M13.1246 3.09471C14.6698 4.67772 15.8065 6.66128 16.3642 8.875H20.4427C19.3006 5.79084 16.517 3.50322 13.1526 3.07312C13.1433 3.0803 13.1339 3.0875 13.1246 3.09471Z" fill="#364141"/>
<path d="M16.75 12C16.75 12.637 16.7033 13.2631 16.6131 13.875H20.8044C20.9326 13.2702 21 12.643 21 12C21 11.357 20.9326 10.7298 20.8044 10.125H16.6131C16.7033 10.7369 16.75 11.363 16.75 12Z" fill="#364141"/>
</svg>
