<svg width="24" height="24" viewBox="0 0 24 24" fill="none" xmlns="http://www.w3.org/2000/svg">
<path d="M15.5 9.25C15.5 8.69772 15.9477 8.25 16.5 8.25H18C18.5523 8.25 19 8.69772 19 9.25V9.85874C19 10.2124 18.8132 10.5398 18.5087 10.7197L14.9738 12.8085C14.0604 13.3482 13.5 14.3303 13.5 15.3913V17.5H21V15.5H15.5V15.3913C15.5 15.0376 15.6868 14.7102 15.9913 14.5303L19.5262 12.4415C20.4396 11.9018 21 10.9197 21 9.85874V9.25C21 7.59315 19.6569 6.25 18 6.25H16.5C14.8431 6.25 13.5 7.59315 13.5 9.25H15.5Z" fill="#364141"/>
<path d="M3 6.5V17.5H5V13H10V17.5H12V6.5H10V11H5V6.5H3Z" fill="#364141"/>
</svg>
