<svg width="24" height="24" viewBox="0 0 24 24" fill="none" xmlns="http://www.w3.org/2000/svg">
<path d="M17.9565 8.27918C18.0741 9.25082 17.9522 10.2365 17.6015 11.1502L16.1731 10.6019C16.4344 9.92118 16.5252 9.18686 16.4376 8.46299C16.35 7.73911 16.0867 7.04766 15.6705 6.44891C15.2544 5.85016 14.6981 5.36231 14.0502 5.02788C13.4022 4.69345 12.6823 4.52261 11.9532 4.53024C11.2241 4.53788 10.5079 4.72376 9.8671 5.07169C9.22631 5.41961 8.68035 5.91901 8.27684 6.52634C7.87333 7.13367 7.62452 7.83049 7.5521 8.55604C7.47968 9.28159 7.58585 10.0138 7.86136 10.6889L6.44478 11.267C6.07497 10.3609 5.93246 9.37797 6.02967 8.40408C6.12687 7.43019 6.46085 6.49486 7.00247 5.67965C7.5441 4.86444 8.27692 4.19411 9.13705 3.7271C9.99718 3.26009 10.9585 3.01058 11.9372 3.00033C12.9158 2.99008 13.8822 3.2194 14.7519 3.6683C15.6216 4.11719 16.3683 4.77203 16.9269 5.57572C17.4855 6.37941 17.839 7.30753 17.9565 8.27918Z" fill="#364141"/>
<path d="M13.5 8.5V12.2914C13.5 12.4122 13.5864 12.5157 13.7052 12.5373L17.3999 13.2091C18.2619 13.3658 18.8067 14.2248 18.5809 15.0714L17.2969 19.8865C17.1218 20.5431 16.5271 21 15.8475 21H11.229C10.7687 21 10.3339 20.7887 10.0495 20.4267L5.39184 14.4988C5.17684 14.2251 5.229 13.8282 5.5074 13.6194C6.37948 12.9654 7.58882 13.0047 8.41649 13.7142L10.2523 15.2878C10.3496 15.3712 10.4999 15.302 10.4999 15.1739V8.5C10.4999 7.67157 11.1715 7 11.9999 7C12.8284 7 13.5 7.67157 13.5 8.5Z" fill="#364141"/>
</svg>
