<svg width="24" height="24" viewBox="0 0 24 24" fill="none" xmlns="http://www.w3.org/2000/svg">
<path d="M9.5 8.625V12.25C9.5 12.9404 10.0596 13.5 10.75 13.5C11.4404 13.5 12 12.9404 12 12.25V10.5H15.5C16.6046 10.5 17.5 11.3954 17.5 12.5L21 10L18 5L15 7H11.125C10.2275 7 9.5 7.72754 9.5 8.625Z" fill="#364141"/>
<path d="M3 15.5L5 14V11.7361C5 10.9785 5.428 10.286 6.10557 9.94721L8 9V12.25C8 13.7688 9.23122 15 10.75 15C12.2688 15 13.5 13.7688 13.5 12.25V12H15C15.5523 12 16 12.4477 16 13V14C16 16.2091 14.2091 18 12 18H9L6 20L3 15.5Z" fill="#364141"/>
</svg>
