<svg width="24" height="24" viewBox="0 0 24 24" fill="none" xmlns="http://www.w3.org/2000/svg">
<path d="M3 16C3 17.1046 3.89543 18 5 18H6C7.10457 18 8 17.1046 8 16V13C8 11.8954 7.10457 11 6 11H5.10074C5.66168 7.56744 8.501 5 12 5C15.499 5 18.3383 7.56744 18.8993 11H18C16.8954 11 16 11.8954 16 13V16C16 16.8864 16.5766 17.638 17.3751 17.9004C17.117 18.5449 16.4866 19 15.75 19H12V21H15.75C17.5809 21 19.1053 19.6879 19.4343 17.9527C20.33 17.7544 21 16.9554 21 16V12.25C21 7.17738 17.0876 3 12 3C6.91238 3 3 7.17738 3 12.25V16Z" fill="#364141"/>
</svg>
