<svg width="24" height="24" viewBox="0 0 24 24" fill="none" xmlns="http://www.w3.org/2000/svg">
<path fill-rule="evenodd" clip-rule="evenodd" d="M4.54416 5.56041C2.48528 7.64095 2.48528 11.0142 4.54416 13.0947L10.9449 19.5628C11.5276 20.1517 12.4724 20.1517 13.0551 19.5628L19.4558 13.0947C21.5147 11.0142 21.5147 7.64094 19.4558 5.5604C17.397 3.47986 14.0589 3.47987 12 5.56041C9.94112 3.47987 6.60303 3.47987 4.54416 5.56041ZM9.6504 11.8737L10.5 10.4577L12.8354 14.3501C13.1365 14.8518 13.8635 14.8518 14.1646 14.3501L15.4246 12.25H16.5V10.75H15.0142C14.7419 10.75 14.4897 10.8928 14.3496 11.1263L13.5 12.5423L11.1646 8.64986C10.8635 8.14816 10.1365 8.14817 9.83544 8.64986L8.57536 10.75H7.5V12.25H8.98585C9.25807 12.25 9.51034 12.1072 9.6504 11.8737Z" fill="#364141"/>
</svg>
