<svg width="24" height="24" viewBox="0 0 24 24" fill="none" xmlns="http://www.w3.org/2000/svg">
<path fill-rule="evenodd" clip-rule="evenodd" d="M5 5H5.5V8.10955C5.5 9.02441 5.99972 9.86621 6.80287 10.3043L9.91167 12L6.80287 13.6957C5.99972 14.1338 5.5 14.9756 5.5 15.8904V19H5V21H19V19H18.5V15.8904C18.5 14.9756 18.0003 14.1338 17.1971 13.6957L14.0883 12L17.1971 10.3043C18.0003 9.86621 18.5 9.02441 18.5 8.10955V5H19V3H5V5ZM16.5 19V15.8904C16.5 15.7075 16.4001 15.5391 16.2394 15.4515L12 13.1391L7.76057 15.4515C7.59994 15.5391 7.5 15.7075 7.5 15.8904V19H16.5ZM16.5 6.5H7.5V5H16.5V6.5ZM12 14.5L11.2791 15.5814C11.0971 15.8544 11 16.175 11 16.5031C11 17.0537 11.4494 17.5 12 17.5C12.5506 17.5 13 17.0537 13 16.5031C13 16.175 12.9029 15.8544 12.7209 15.5814L12 14.5Z" fill="#364141"/>
<path d="M12 14.5L11.2791 15.5814C11.0971 15.8544 11 16.175 11 16.5031C11 17.0537 11.4494 17.5 12 17.5C12.5506 17.5 13 17.0537 13 16.5031C13 16.175 12.9029 15.8544 12.7209 15.5814L12 14.5Z" fill="#364141"/>
<path fill-rule="evenodd" clip-rule="evenodd" d="M5 5H5.5V8.10955C5.5 9.02441 5.99972 9.86621 6.80287 10.3043L9.91167 12L6.80287 13.6957C5.99972 14.1338 5.5 14.9756 5.5 15.8904V19H5V21H19V19H18.5V15.8904C18.5 14.9756 18.0003 14.1338 17.1971 13.6957L14.0883 12L17.1971 10.3043C18.0003 9.86621 18.5 9.02441 18.5 8.10955V5H19V3H5V5ZM16.5 19V15.8904C16.5 15.7075 16.4001 15.5391 16.2394 15.4515L12 13.1391L7.76057 15.4515C7.59994 15.5391 7.5 15.7075 7.5 15.8904V19H16.5ZM16.5 6.5H7.5V5H16.5V6.5Z" fill="#364141"/>
</svg>
