<svg width="24" height="24" viewBox="0 0 24 24" fill="none" xmlns="http://www.w3.org/2000/svg">
<path fill-rule="evenodd" clip-rule="evenodd" d="M4.5 5C3.67157 5 3 5.67157 3 6.5V17.5C3 18.3284 3.67157 19 4.5 19H19.5C20.3284 19 21 18.3284 21 17.5V6.5C21 5.67157 20.3284 5 19.5 5H4.5ZM9 9C9.55228 9 10 8.55228 10 8C10 7.44772 9.55228 7 9 7C8.44771 7 8 7.44772 8 8C8 8.55228 8.44771 9 9 9ZM5 14.091V16.1091L8.97286 12.5335L10.0028 13.5634L8.4932 14.9471L9.50678 16.0529L15.0047 11.0132L19 14.609V12.591L14.9954 8.98681L11.1095 12.5488L9.02722 10.4665L5 14.091Z" fill="#364141"/>
</svg>
