<svg width="24" height="24" viewBox="0 0 24 24" fill="none" xmlns="http://www.w3.org/2000/svg">
<path fill-rule="evenodd" clip-rule="evenodd" d="M6 6.5C6 5.67157 6.67157 5 7.5 5H19.5C20.3284 5 21 5.67157 21 6.5V15.5C21 16.3284 20.3284 17 19.5 17H7.5C6.67157 17 6 16.3284 6 15.5V6.5ZM10.5 8.5C10.9142 8.5 11.25 8.16421 11.25 7.75C11.25 7.33579 10.9142 7 10.5 7C10.0858 7 9.75 7.33579 9.75 7.75C9.75 8.16421 10.0858 8.5 10.5 8.5ZM19 10.8832V12.7835L16.0488 10.4881L11.5166 14.7937L10.4834 13.7063L11.3358 12.8965L10.5 12.0607L8 14.5607V12.4393L10.5 9.93934L12.4237 11.863L15.9512 8.51189L19 10.8832Z" fill="#364141"/>
<path d="M4.5 8.06299C3.63739 8.28501 3 9.06806 3 9.99998V17.9954C3 19.0997 3.89492 19.9949 4.99917 19.9954L13.499 19.9989C14.5241 19.9994 15.4054 19.3827 15.7915 18.5H6C5.17157 18.5 4.5 17.8284 4.5 17V8.06299Z" fill="#364141"/>
</svg>
