<svg width="24" height="24" viewBox="0 0 24 24" fill="none" xmlns="http://www.w3.org/2000/svg">
<path d="M12.9642 3.53575L12 6.74946H16.1596C16.4964 6.74946 16.6825 7.14028 16.4701 7.40169L11.695 13.2789C11.4222 13.6146 10.8848 13.3387 10.9986 12.9214L12 9.2497H7.87598C7.53321 9.2497 7.34922 8.84676 7.57371 8.58773L12.2788 3.15883C12.5611 2.83308 13.088 3.12287 12.9642 3.53575Z" fill="#364141"/>
<path d="M3.36704 13.0682L5.3501 9.62536L6.6499 10.374L5.13752 12.9997H7.58579C7.851 12.9997 8.10536 13.1051 8.29289 13.2926L9.92678 14.9265C9.97366 14.9734 10.0372 14.9997 10.1036 14.9997H13.8964C13.9628 14.9997 14.0263 14.9734 14.0732 14.9265L15.7071 13.2926C15.8946 13.1051 16.149 12.9997 16.4142 12.9997H18.827L17.3463 10.3674L18.6537 9.63201L20.6468 13.1754C20.863 13.5597 20.9834 13.99 20.9984 14.4298C20.9995 14.453 21 14.4763 21 14.4997V19.4997C21 20.3281 20.3284 20.9997 19.5 20.9997H4.5C3.67157 20.9997 3 20.3281 3 19.4997V14.4408C3 13.959 3.12657 13.4857 3.36704 13.0682Z" fill="#364141"/>
</svg>
