<svg width="24" height="24" viewBox="0 0 24 24" fill="none" xmlns="http://www.w3.org/2000/svg">
<path d="M11 12.45V6.86419L8.70711 9.15709L7.29289 7.74287L12 3.03577L16.7071 7.74287L15.2929 9.15709L13 6.86419V12.45H11Z" fill="#364141"/>
<path d="M3.36704 12.0685L5.3501 8.62569L6.6499 9.37437L5.13752 12H7.58579C7.851 12 8.10536 12.1054 8.29289 12.2929L9.92678 13.9268C9.97366 13.9737 10.0372 14 10.1036 14H13.8964C13.9628 14 14.0263 13.9737 14.0732 13.9268L15.7071 12.2929C15.8946 12.1054 16.149 12 16.4142 12H18.827L17.3463 9.36773L18.6537 8.63234L20.6468 12.1757C20.863 12.5601 20.9834 12.9903 20.9984 13.4301C20.9995 13.4533 21 13.4766 21 13.5V18.5C21 19.3285 20.3284 20 19.5 20H4.5C3.67157 20 3 19.3285 3 18.5V13.4411C3 12.9593 3.12657 12.486 3.36704 12.0685Z" fill="#364141"/>
</svg>
