<svg width="24" height="24" viewBox="0 0 24 24" fill="none" xmlns="http://www.w3.org/2000/svg">
<path d="M18.2071 4.70694L16.7929 3.29272L11.5 8.58562L9.20711 6.29272L7.79289 7.70694L11.5 11.414L18.2071 4.70694Z" fill="#364141"/>
<path d="M3.36704 13.0683L5.3501 9.62543L6.6499 10.3741L5.13752 12.9998H7.58579C7.851 12.9998 8.10536 13.1051 8.29289 13.2927L9.92678 14.9266C9.97366 14.9734 10.0372 14.9998 10.1036 14.9998H13.8964C13.9628 14.9998 14.0263 14.9734 14.0732 14.9266L15.7071 13.2927C15.8946 13.1051 16.149 12.9998 16.4142 12.9998H18.827L17.3463 10.3675L18.6537 9.63208L20.6468 13.1755C20.863 13.5598 20.9834 13.9901 20.9984 14.4299C20.9995 14.453 21 14.4763 21 14.4998V19.4998C21 20.3282 20.3284 20.9998 19.5 20.9998H4.5C3.67157 20.9998 3 20.3282 3 19.4998V14.4408C3 13.9591 3.12657 13.4857 3.36704 13.0683Z" fill="#364141"/>
</svg>
