<svg width="24" height="24" viewBox="0 0 24 24" fill="none" xmlns="http://www.w3.org/2000/svg">
<path fill-rule="evenodd" clip-rule="evenodd" d="M4 7.9797C4 7.02485 4.34157 6.1015 4.96297 5.37653L6.40136 3.69842C6.78132 3.25513 7.33602 3 7.91987 3H16.0801C16.664 3 17.2187 3.25513 17.5986 3.69842L19.037 5.37653C19.6584 6.1015 20 7.02485 20 7.9797V11.5C20 12.3284 19.3284 13 18.5 13H5.5C4.67157 13 4 12.3284 4 11.5V7.9797ZM6.10186 6.35272L7.54024 4.6746C7.63523 4.56378 7.77391 4.5 7.91987 4.5H16.0801C16.2261 4.5 16.3648 4.56378 16.4598 4.6746L17.8981 6.35272C17.9391 6.40048 17.9781 6.44961 18.0151 6.5H15.9142C15.649 6.5 15.3946 6.60536 15.2071 6.79289L13.5732 8.42678C13.5263 8.47366 13.4628 8.5 13.3964 8.5H10.6036C10.5372 8.5 10.4737 8.47366 10.4268 8.42678L8.79289 6.79289C8.60536 6.60536 8.351 6.5 8.08579 6.5H5.98493C6.02193 6.44961 6.06092 6.40048 6.10186 6.35272Z" fill="#364141"/>
<path d="M4 14.5H8.08579C8.351 14.5 8.60536 14.6054 8.79289 14.7929L10.4268 16.4268C10.4737 16.4737 10.5372 16.5 10.6036 16.5H13.3964C13.4628 16.5 13.5263 16.4737 13.5732 16.4268L15.2071 14.7929C15.3946 14.6054 15.649 14.5 15.9142 14.5H20V19.5C20 20.3284 19.3284 21 18.5 21H5.5C4.67157 21 4 20.3284 4 19.5V14.5Z" fill="#364141"/>
</svg>
