<svg width="24" height="24" viewBox="0 0 24 24" fill="none" xmlns="http://www.w3.org/2000/svg">
<path fill-rule="evenodd" clip-rule="evenodd" d="M20.2071 5.20718L18.9142 6.50008L20.7071 8.29297L19.2929 9.70718L17.5 7.91429L16.4142 9.00008L18.2071 10.793L16.7929 12.2072L15 10.4143L13.0317 12.3826C13.6424 13.2686 14 14.3426 14 15.5001C14 18.5376 11.5376 21.0001 8.5 21.0001C5.46243 21.0001 3 18.5376 3 15.5001C3 12.4625 5.46243 10.0001 8.5 10.0001C9.6575 10.0001 10.7315 10.3576 11.6175 10.9683L18.7929 3.79297L20.2071 5.20718ZM12 15.5001C12 17.4331 10.433 19.0001 8.5 19.0001C6.567 19.0001 5 17.4331 5 15.5001C5 13.5671 6.567 12.0001 8.5 12.0001C10.433 12.0001 12 13.5671 12 15.5001Z" fill="#364141"/>
</svg>
