<svg width="24" height="24" viewBox="0 0 24 24" fill="none" xmlns="http://www.w3.org/2000/svg">
<path fill-rule="evenodd" clip-rule="evenodd" d="M4.5 5C3.67157 5 3 5.67157 3 6.5V17.5C3 18.3284 3.67157 19 4.5 19H19.5C20.3284 19 21 18.3284 21 17.5V6.5C21 5.67157 20.3284 5 19.5 5H4.5ZM8.5 9H6.25V7.5H8.5V9ZM10.88 9H13.13V7.5H10.88V9ZM15.55 9H17.8V7.5H15.55V9ZM10.88 12.75H13.13V11.25H10.88V12.75ZM17.8 12.75H15.55V11.25H17.8V12.75ZM6.25 12.75H8.5V11.25H6.25V12.75ZM18 16.5H6V15H18V16.5Z" fill="#364141"/>
</svg>
