<svg width="24" height="24" viewBox="0 0 24 24" fill="none" xmlns="http://www.w3.org/2000/svg">
<path fill-rule="evenodd" clip-rule="evenodd" d="M8.5 9V8H4V6H8.5V3H10.5V6H13V8H10.5V9C10.5 10.8383 9.79139 12.5111 8.63243 13.7601C9.0591 13.9153 9.51966 14 10 14H12.6977L14.5809 9.60608H16.4191L20.9191 20.1061L19.0809 20.8939L17.8406 18H13.1594L11.9191 20.8939L10.0809 20.1061L11.8406 16H10C8.85916 16 7.7927 15.6816 6.88461 15.1288C5.8815 15.684 4.72766 16 3.5 16H3V14H3.5C4.11996 14 4.71357 13.8872 5.26142 13.6809C4.47083 12.6646 4 11.3873 4 10H6C6 10.995 6.36333 11.9052 6.96456 12.6051C7.911 11.6954 8.5 10.4165 8.5 9ZM15.5 12.5386L14.0165 16H16.9835L15.5 12.5386Z" fill="#364141"/>
</svg>
