<svg width="24" height="24" viewBox="0 0 24 24" fill="none" xmlns="http://www.w3.org/2000/svg">
<path d="M6.5 5C5.67157 5 5 5.67157 5 6.5V15.5H3C3 16.3284 3.67157 17 4.5 17H12.5V9.5C12.5 7.84315 13.8431 6.5 15.5 6.5H19C19 5.67157 18.3284 5 17.5 5H6.5Z" fill="#364141"/>
<path fill-rule="evenodd" clip-rule="evenodd" d="M14 9.5C14 8.67157 14.6716 8 15.5 8H19.5C20.3284 8 21 8.67157 21 9.5V17.5C21 18.3284 20.3284 19 19.5 19H15.5C14.6716 19 14 18.3284 14 17.5V9.5ZM18.25 16.75C18.25 17.1642 17.9142 17.5 17.5 17.5C17.0858 17.5 16.75 17.1642 16.75 16.75C16.75 16.3358 17.0858 16 17.5 16C17.9142 16 18.25 16.3358 18.25 16.75Z" fill="#364141"/>
</svg>
