<svg width="24" height="24" viewBox="0 0 24 24" fill="none" xmlns="http://www.w3.org/2000/svg">
<path d="M9.79291 14.207C11.5641 15.9782 14.4359 15.9782 16.2071 14.207L19.2071 11.207C20.9784 9.43576 20.9784 6.56402 19.2071 4.79278C17.4359 3.02154 14.5641 3.02155 12.7929 4.79278L11.7929 5.79278L13.2071 7.207L14.2071 6.207C15.1973 5.21681 16.8027 5.21681 17.7929 6.207C18.7831 7.19718 18.7831 8.80259 17.7929 9.79278L14.7929 12.7928C13.8027 13.783 12.1973 13.783 11.2071 12.7928L9.79291 14.207Z" fill="#364141"/>
<path d="M14.2071 9.79278C12.4359 8.02154 9.56414 8.02155 7.7929 9.79278L4.7929 12.7928C3.02167 14.564 3.02167 17.4358 4.79291 19.207C6.56414 20.9782 9.43588 20.9782 11.2071 19.207L12.2071 18.207L10.7929 16.7928L9.79291 17.7928C8.80272 18.783 7.19731 18.783 6.20712 17.7928C5.21693 16.8026 5.21693 15.1972 6.20712 14.207L9.20712 11.207C10.1973 10.2168 11.8027 10.2168 12.7929 11.207L14.2071 9.79278Z" fill="#364141"/>
</svg>
