<svg width="24" height="24" viewBox="0 0 24 24" fill="none" xmlns="http://www.w3.org/2000/svg">
<path d="M15.143 14.7289C15.7129 14.5078 16.2472 14.1672 16.7072 13.7072L19.2072 11.2072C20.9784 9.43601 20.9784 6.56426 19.2072 4.79303C17.4359 3.02179 14.5642 3.02179 12.793 4.79303L11.793 5.79303L13.2072 7.20724L14.2072 6.20724C15.1974 5.21705 16.8028 5.21705 17.793 6.20724C18.7832 7.19743 18.7832 8.80284 17.793 9.79303L15.293 12.293C14.785 12.801 14.115 13.0484 13.4493 13.0352L10.8815 10.4674C11.5693 10.4354 12.2677 10.682 12.793 11.2072L14.2072 9.79303C12.8629 8.44879 10.8849 8.12473 9.23501 8.82084L4.70718 4.29301L3.29297 5.70723L17.793 20.2072L19.2072 18.793L15.143 14.7289Z" fill="#364141"/>
<path d="M6.58587 11.0001L8.00008 12.4143L6.20718 14.2072C5.21699 15.1974 5.21699 16.8028 6.20718 17.793C7.19737 18.7832 8.80278 18.7832 9.79297 17.793L10.793 16.793L12.2072 18.2072L11.2072 19.2072C9.43595 20.9785 6.5642 20.9785 4.79297 19.2072C3.02173 17.436 3.02173 14.5643 4.79296 12.793L6.58587 11.0001Z" fill="#364141"/>
</svg>
