<svg width="24" height="24" viewBox="0 0 24 24" fill="none" xmlns="http://www.w3.org/2000/svg">
<path d="M9.79291 14.2072C11.5641 15.9785 14.4359 15.9785 16.2071 14.2072L19.2071 11.2072C20.9784 9.436 20.9784 6.56426 19.2071 4.79303C17.4359 3.02179 14.5641 3.02179 12.7929 4.79303L11.7929 5.79303L13.2071 7.20724L14.2071 6.20724C15.1973 5.21705 16.8027 5.21705 17.7929 6.20724C18.7831 7.19743 18.7831 8.80284 17.7929 9.79303L14.7929 12.793C13.8027 13.7832 12.1973 13.7832 11.2071 12.793L9.79291 14.2072Z" fill="#364141"/>
<path d="M14.2071 9.79303C12.4359 8.02179 9.56414 8.02179 7.7929 9.79303L4.7929 12.793C3.02167 14.5643 3.02167 17.436 4.79291 19.2072C6.56414 20.9785 9.43588 20.9785 11.2071 19.2072L12.2071 18.2072L10.7929 16.793L9.79291 17.793C8.80272 18.7832 7.19731 18.7832 6.20712 17.793C5.21693 16.8028 5.21693 15.1974 6.20712 14.2072L9.20712 11.2072C10.1973 10.2171 11.8027 10.2171 12.7929 11.2072L14.2071 9.79303Z" fill="#364141"/>
<path d="M7.00002 7.00012V4.00012H9.00002V7.00012H7.00002Z" fill="#364141"/>
<path d="M7.00002 7.00012L7.00002 9.00012H4.00001L4.00002 7.00012L7.00002 7.00012Z" fill="#364141"/>
<path d="M15 20.0001V17.0001H17V20.0001H15Z" fill="#364141"/>
<path d="M17 17.0001V15.0001H20V17.0001H17Z" fill="#364141"/>
</svg>
