<svg width="24" height="24" viewBox="0 0 24 24" fill="none" xmlns="http://www.w3.org/2000/svg">
<path d="M11.7735 3.23558C11.8633 3.04322 12.1368 3.04322 12.2266 3.23558L12.598 4.0314C12.6229 4.08461 12.6656 4.12738 12.7188 4.15222L13.5147 4.52363C13.707 4.6134 13.707 4.88694 13.5147 4.97671L12.7188 5.34812C12.6656 5.37296 12.6229 5.41573 12.598 5.46894L12.2266 6.26476C12.1368 6.45712 11.8633 6.45712 11.7735 6.26476L11.4021 5.46894C11.3773 5.41573 11.3345 5.37296 11.2813 5.34812L10.4855 4.97671C10.2931 4.88694 10.2931 4.6134 10.4855 4.52363L11.2813 4.15222C11.3345 4.12738 11.3773 4.08461 11.4021 4.0314L11.7735 3.23558Z" fill="#364141"/>
<path d="M6.52352 4.23558C6.6133 4.04322 6.88683 4.04322 6.97661 4.23558L7.66621 5.7132C7.69105 5.76641 7.73382 5.80918 7.78703 5.83402L9.26465 6.52363C9.45701 6.6134 9.45701 6.88694 9.26465 6.97671L7.78703 7.66632C7.73382 7.69115 7.69105 7.73392 7.66621 7.78713L6.97661 9.26476C6.88683 9.45712 6.6133 9.45712 6.52352 9.26476L5.83391 7.78713C5.80908 7.73392 5.76631 7.69115 5.7131 7.66632L4.23548 6.97671C4.04311 6.88694 4.04311 6.6134 4.23548 6.52363L5.7131 5.83402C5.76631 5.80918 5.80908 5.76641 5.83391 5.7132L6.52352 4.23558Z" fill="#364141"/>
<path d="M16.9766 14.2356C16.8868 14.0432 16.6133 14.0432 16.5235 14.2356L15.8339 15.7132C15.8091 15.7664 15.7663 15.8092 15.7131 15.834L14.2355 16.5236C14.0431 16.6134 14.0431 16.8869 14.2355 16.9767L15.7131 17.6663C15.7663 17.6912 15.8091 17.7339 15.8339 17.7871L16.5235 19.2648C16.6133 19.4571 16.8868 19.4571 16.9766 19.2648L17.6662 17.7871C17.691 17.7339 17.7338 17.6912 17.787 17.6663L19.2647 16.9767C19.457 16.8869 19.457 16.6134 19.2647 16.5236L17.787 15.834C17.7338 15.8092 17.691 15.7664 17.6662 15.7132L16.9766 14.2356Z" fill="#364141"/>
<path fill-rule="evenodd" clip-rule="evenodd" d="M4.06071 16.4392C3.47489 17.0251 3.47487 17.9749 4.06068 18.5607L5.43936 19.9393C6.02514 20.5251 6.97489 20.5251 7.56068 19.9393L19.9394 7.56066C20.5251 6.97487 20.5251 6.02513 19.9394 5.43934L18.5607 4.06066C17.9749 3.47487 17.0251 3.47487 16.4394 4.06066L4.06071 16.4392ZM14.341 8.28033L15.7197 9.65901L18.8787 6.5L17.5 5.12132L14.341 8.28033Z" fill="#364141"/>
</svg>
