<svg width="24" height="24" viewBox="0 0 24 24" fill="none" xmlns="http://www.w3.org/2000/svg">
<path d="M15.1951 10.465C15.1951 10.3918 15.1951 10.3186 15.1895 10.2454C15.5462 10.0049 15.8576 9.70687 16.1067 9.37224C15.7783 9.50295 15.4216 9.59709 15.0536 9.63367C15.4329 9.42453 15.7217 9.09512 15.8576 8.70295C15.5065 8.89641 15.1102 9.0376 14.6968 9.1108C14.3628 8.78138 13.8871 8.57746 13.3605 8.57746C12.347 8.57746 11.5316 9.33562 11.5316 10.2664C11.5316 10.3971 11.5486 10.5278 11.5769 10.6533C10.0594 10.5801 8.70612 9.91079 7.80581 8.88595C7.64726 9.13693 7.55668 9.42452 7.55668 9.73824C7.55668 10.3239 7.87941 10.8415 8.37204 11.1448C8.07196 11.1343 7.78882 11.0559 7.54535 10.9304V10.9513C7.54535 11.7722 8.17388 12.452 9.0119 12.6088C8.85903 12.6454 8.69481 12.6664 8.53061 12.6664C8.41169 12.6664 8.29845 12.6559 8.18519 12.6402C8.41735 13.3095 9.09117 13.7958 9.89522 13.8115C9.2667 14.2664 8.47963 14.533 7.62463 14.533C7.47174 14.533 7.3302 14.5278 7.18297 14.5121C7.99269 14.9932 8.95527 15.2703 9.99148 15.2703C13.3549 15.2703 15.1951 12.6977 15.1951 10.465Z" fill="#364141"/>
<path fill-rule="evenodd" clip-rule="evenodd" d="M11.6449 20.2898C13.6718 20.2898 15.5358 19.5922 17.0099 18.4241L19.5826 20.9968L20.9968 19.5826L18.4241 17.0099C19.5922 15.5358 20.2898 13.6718 20.2898 11.6449C20.2898 6.87046 16.4194 3 11.6449 3C6.87046 3 3 6.87046 3 11.6449C3 16.4194 6.87046 20.2898 11.6449 20.2898ZM11.6449 18.2898C15.3148 18.2898 18.2898 15.3148 18.2898 11.6449C18.2898 7.97502 15.3148 5 11.6449 5C7.97502 5 5 7.97502 5 11.6449C5 15.3148 7.97502 18.2898 11.6449 18.2898Z" fill="#364141"/>
</svg>
