<svg width="24" height="24" viewBox="0 0 24 24" fill="none" xmlns="http://www.w3.org/2000/svg">
<path fill-rule="evenodd" clip-rule="evenodd" d="M15.5773 16.9915C14.2582 18.0104 12.604 18.6166 10.8083 18.6166C6.49589 18.6166 3 15.1207 3 10.8083C3 6.49589 6.49589 3 10.8083 3C15.1207 3 18.6166 6.49589 18.6166 10.8083C18.6166 12.604 18.0104 14.2582 16.9915 15.5773L20.997 19.5827L19.5827 20.997L15.5773 16.9915ZM16.6166 10.8083C16.6166 14.0161 14.0161 16.6166 10.8083 16.6166C7.60046 16.6166 5 14.0161 5 10.8083C5 7.60046 7.60046 5 10.8083 5C14.0161 5 16.6166 7.60046 16.6166 10.8083Z" fill="#364141"/>
</svg>
