<svg width="24" height="24" viewBox="0 0 24 24" fill="none" xmlns="http://www.w3.org/2000/svg">
<path fill-rule="evenodd" clip-rule="evenodd" d="M10.5714 4.24505C10.6694 3.87918 10.9666 3.60339 11.3444 3.5766C12.246 3.51269 14.1167 3.51989 16.7857 4.23506C19.4548 4.95022 21.0784 5.87931 21.8273 6.38549C22.1411 6.5976 22.2605 6.98501 22.1625 7.35087L20.5472 13.3794C20.201 14.6713 19.2321 15.7047 17.9653 16.1332L13.7938 17.5444C13.4114 17.6738 12.9887 17.5605 12.7222 17.2573L9.81516 13.9494C8.93229 12.9448 8.60991 11.5655 8.95606 10.2736L10.5714 4.24505ZM14.7025 9.11194C14.8812 8.4451 14.4855 7.75968 13.8186 7.581C13.1518 7.40233 12.4664 7.79806 12.2877 8.46489L14.7025 9.11194ZM18.5662 10.1472C18.7449 9.48038 18.3492 8.79496 17.6823 8.61628C17.0155 8.4376 16.3301 8.83333 16.1514 9.50016L18.5662 10.1472ZM14.3461 13.343C12.8826 12.9509 11.9184 11.6254 11.9223 10.1786L13.4705 10.5935C13.6161 11.2053 14.0842 11.7199 14.7343 11.8941C15.3845 12.0683 16.0471 11.8567 16.4791 11.3996L18.0273 11.8145C17.3073 13.0694 15.8096 13.7351 14.3461 13.343Z" fill="#364141"/>
<path fill-rule="evenodd" clip-rule="evenodd" d="M6.02769 7.62447C6.84484 7.40552 7.58353 7.25614 8.23837 7.15625L7.50715 9.88521C7.15567 11.1969 7.30548 12.5743 7.89675 13.7613C7.77931 13.7794 7.66168 13.804 7.54426 13.8355C6.08077 14.2276 5.11659 15.5531 5.12049 16.9999L6.66867 16.585C6.81428 15.9732 7.28234 15.4586 7.93249 15.2844C8.31779 15.1811 8.70747 15.2134 9.05094 15.3519L11.5391 18.1832L9.92369 20.0213C9.65719 20.3246 9.2345 20.4378 8.85209 20.3085L4.99649 19.0042C3.7296 18.5756 2.76073 17.5422 2.41458 16.2504L0.906943 10.6238C0.80891 10.2579 0.928327 9.87062 1.24285 9.65957C1.96732 9.17344 3.50977 8.29915 6.02769 7.62447ZM3.50013 12.1821C3.67881 12.8489 4.36423 13.2446 5.03106 13.0659C5.6979 12.8873 6.09363 12.2018 5.91495 11.535L3.50013 12.1821Z" fill="#364141"/>
</svg>
