<svg width="24" height="24" viewBox="0 0 24 24" fill="none" xmlns="http://www.w3.org/2000/svg">
<path d="M17.25 3V4.05539C16.125 4.17974 15.25 5.1335 15.25 6.29163C15.25 7.53424 16.2573 8.54159 17.5 8.54159H18.5C18.9142 8.54159 19.25 8.87737 19.25 9.29159C19.25 9.7058 18.9142 10.0416 18.5 10.0416H17.7083C17.1791 10.0416 16.75 9.61252 16.75 9.08325H15.25C15.25 10.2843 16.1113 11.2842 17.25 11.4989V12.5833H18.75V11.5279C19.875 11.4035 20.75 10.4497 20.75 9.29159C20.75 8.04895 19.7426 7.04159 18.5 7.04159H17.5C17.0858 7.04159 16.75 6.70582 16.75 6.29163C16.75 5.87743 17.0858 5.54167 17.5 5.54167H18.5001C18.9142 5.54167 19.25 5.87742 19.25 6.29159H20.75C20.75 5.13346 19.875 4.17971 18.75 4.05539V3H17.25Z" fill="#364141"/>
<path d="M10.5 9.0001L13.75 7.26676V10.5C13.75 12.433 15.317 14 17.25 14H18V18.1668C18 18.5442 17.5978 18.7856 17.2647 18.6079L10.5 15.0001H9.50477C9.57251 16.3874 10.357 17.6464 11.5846 18.316L11.7289 18.3947L10.7711 20.1505L10.6269 20.0718C8.75673 19.0517 7.57209 17.1195 7.50318 15.0001H4.5C3.67157 15.0001 3 14.3285 3 13.5001V10.5001C3 9.67167 3.67157 9.0001 4.5 9.0001H10.5Z" fill="#364141"/>
</svg>
