<svg width="24" height="24" viewBox="0 0 24 24" fill="none" xmlns="http://www.w3.org/2000/svg">
<path d="M10.5 9.00012L17.2647 5.39228C17.5978 5.21465 18 5.45599 18 5.83345V18.1668C18 18.5442 17.5978 18.7856 17.2647 18.608L10.5 15.0001H9.50477C9.57251 16.3874 10.357 17.6464 11.5846 18.316L11.7289 18.3947L10.7711 20.1505L10.6269 20.0718C8.75673 19.0517 7.57209 17.1196 7.50318 15.0001H4.5C3.67157 15.0001 3 14.3285 3 13.5001V10.5001C3 9.67169 3.67157 9.00012 4.5 9.00012H10.5Z" fill="#364141"/>
<path d="M19.5 9.50012V14.5001C20.3284 14.5001 21 13.8285 21 13.0001V11.0001C21 10.1717 20.3284 9.50012 19.5 9.50012Z" fill="#364141"/>
</svg>
