<svg width="24" height="24" viewBox="0 0 24 24" fill="none" xmlns="http://www.w3.org/2000/svg">
<path fill-rule="evenodd" clip-rule="evenodd" d="M6.5 3C5.67157 3 5 3.67157 5 4.5V19.5C5 20.3284 5.67157 21 6.5 21H17.5C18.3284 21 19 20.3284 19 19.5V4.5C19 3.67157 18.3284 3 17.5 3H6.5ZM8.58541 6.17082L8 5H16L15.4146 6.17082C15.1605 6.679 14.6411 7 14.0729 7H9.92705C9.35889 7 8.8395 6.679 8.58541 6.17082ZM13 18C13 18.5523 12.5523 19 12 19C11.4477 19 11 18.5523 11 18C11 17.4477 11.4477 17 12 17C12.5523 17 13 17.4477 13 18Z" fill="#364141"/>
</svg>
