<svg width="24" height="24" viewBox="0 0 24 24" fill="none" xmlns="http://www.w3.org/2000/svg">
<path d="M4 5.5C4 4.67157 4.67157 4 5.5 4H9.5C10.3284 4 11 4.67157 11 5.5V18.5C11 19.3284 10.3284 20 9.5 20H5.5C4.67157 20 4 19.3284 4 18.5V5.5Z" fill="#364141"/>
<path d="M13 5.5C13 4.67157 13.6716 4 14.5 4H18.5C19.3284 4 20 4.67157 20 5.5V8C20 8.82843 19.3284 9.5 18.5 9.5H14.5C13.6716 9.5 13 8.82843 13 8V5.5Z" fill="#364141"/>
<path d="M14.5 11.5C13.6716 11.5 13 12.1716 13 13V18.5C13 19.3284 13.6716 20 14.5 20H18.5C19.3284 20 20 19.3284 20 18.5V13C20 12.1716 19.3284 11.5 18.5 11.5H14.5Z" fill="#364141"/>
</svg>
