<svg width="24" height="24" viewBox="0 0 24 24" fill="none" xmlns="http://www.w3.org/2000/svg">
<path d="M3.711 6.04915L4.5899 5.44345V7.2041H3.711V8.0999H6.49645V7.2041H5.66149V4.37695H4.65859L3.711 5.035V6.04915Z" fill="#364141"/>
<path d="M20 7H8.99997V5H20V7Z" fill="#364141"/>
<path d="M8.99997 13H20V11H8.99997V13Z" fill="#364141"/>
<path d="M8.99997 19H20V17H8.99997V19Z" fill="#364141"/>
<path fill-rule="evenodd" clip-rule="evenodd" d="M3.52789 11.4451V11.3305C3.52789 10.951 3.67702 10.6293 3.93929 10.4038C4.20024 10.1795 4.56614 10.0562 4.99264 10.0562C5.40264 10.0562 5.75521 10.1656 6.00756 10.3659C6.26182 10.5677 6.40856 10.8576 6.40856 11.2011C6.40856 11.6444 6.14135 12.0247 5.52005 12.5702L5.08561 12.9517H6.45739V13.8499H3.57916V13.1078L4.72478 12.0552C4.98016 11.8206 5.13619 11.6631 5.22861 11.5404C5.31831 11.4213 5.34186 11.343 5.34186 11.2646C5.34186 11.1614 5.30418 11.0812 5.24257 11.0258C5.18001 10.9696 5.08512 10.9324 4.9609 10.9324C4.83253 10.9324 4.73027 10.9756 4.66064 11.0431C4.59121 11.1104 4.54821 11.2077 4.54821 11.328V11.4451H3.52789ZM4.69657 10.1784C4.04704 10.2792 3.6279 10.7164 3.6279 11.3306C3.6279 11.3017 3.62882 11.2732 3.63065 11.2451C3.66777 10.676 4.07755 10.2744 4.69657 10.1784Z" fill="#364141"/>
<path fill-rule="evenodd" clip-rule="evenodd" d="M4.47028 17.5405V18.3582H5.00485C5.15914 18.3582 5.27642 18.3966 5.35251 18.4542C5.42615 18.51 5.46637 18.587 5.46637 18.683C5.46637 18.7791 5.42615 18.8561 5.35251 18.9118C5.27642 18.9694 5.15914 19.0078 5.00485 19.0078C4.85364 19.0078 4.74128 18.9716 4.66785 18.9165C4.59686 18.8632 4.55526 18.7873 4.55053 18.688L4.546 18.5928H3.52563L3.53044 18.6974C3.54755 19.0699 3.70338 19.3791 3.96948 19.5937C4.23396 19.8069 4.59969 19.9207 5.02926 19.9207C5.47204 19.9207 5.85075 19.8101 6.12143 19.6068C6.39444 19.4017 6.5526 19.1053 6.5526 18.7514C6.5526 18.5013 6.47321 18.285 6.32072 18.1241C6.2262 18.0244 6.10667 17.9491 5.9672 17.8998C6.25224 17.7507 6.4232 17.4596 6.4232 17.1059C6.4232 16.7866 6.27775 16.5199 6.02746 16.3362C5.77969 16.1543 5.43362 16.0562 5.02926 16.0562C4.60518 16.0562 4.24995 16.166 3.99738 16.3773C3.74291 16.5902 3.60282 16.8978 3.59627 17.2701L3.59448 17.3719H4.57152L4.575 17.2755C4.57893 17.1663 4.62171 17.0817 4.69094 17.0233C4.76139 16.9638 4.86692 16.9251 5.00485 16.9251C5.14871 16.9251 5.25171 16.9601 5.31659 17.0119C5.37872 17.0615 5.4151 17.1336 5.4151 17.2328C5.4151 17.332 5.37872 17.4041 5.31659 17.4537C5.25171 17.5056 5.14871 17.5405 5.00485 17.5405H4.47028ZM5.68964 17.9393C5.73447 17.9444 5.77759 17.9516 5.81894 17.961C6.05023 18.0134 6.22596 18.1321 6.33302 18.3024C6.2056 18.0997 5.98092 17.9703 5.68112 17.9385L5.68964 17.9393ZM4.50861 16.2241C4.03608 16.3601 3.74464 16.6946 3.70158 17.1719C3.69863 17.2045 3.69686 17.238 3.69626 17.272C3.7056 16.7414 4.00373 16.3695 4.50861 16.2241Z" fill="#364141"/>
</svg>
