<svg width="24" height="24" viewBox="0 0 24 24" fill="none" xmlns="http://www.w3.org/2000/svg">
<path fill-rule="evenodd" clip-rule="evenodd" d="M14.3033 14.0001H5.12134L9.71233 18.591L14.3033 14.0001ZM3.56068 12.4394L7.46969 8.53039L4.96969 6.03039L6.03035 4.96973L8.53035 7.46973L10.6465 5.35361C10.8417 5.15835 11.1583 5.15835 11.3536 5.35361L17.8588 11.8588C18.054 12.0541 18.054 12.3707 17.8588 12.5659L10.773 19.6517C10.1872 20.2375 9.23746 20.2375 8.65167 19.6517L3.56068 14.5607C2.97489 13.9749 2.97489 13.0252 3.56068 12.4394ZM18 14.7501L16.549 16.3824C16.1954 16.7803 16 17.2941 16 17.8265V18.0001C16 19.1046 16.8954 20.0001 18 20.0001C19.1046 20.0001 20 19.1046 20 18.0001V17.8265C20 17.2941 19.8047 16.7803 19.451 16.3824L18 14.7501Z" fill="#364141"/>
</svg>
