<svg width="24" height="24" viewBox="0 0 24 24" fill="none" xmlns="http://www.w3.org/2000/svg">
<path fill-rule="evenodd" clip-rule="evenodd" d="M5 19.5C5 20.3284 5.67157 21 6.5 21H17.5C18.3284 21 19 20.3284 19 19.5V12C19 11.1716 18.3284 10.5 17.5 10.5H15.25C13.4551 10.5 12 9.04493 12 7.25V4.5C12 3.67157 11.3284 3 10.5 3H6.5C5.67157 3 5 3.67157 5 4.5V19.5ZM9 16.7379V18.2707H10.5328C10.5991 18.2707 10.6627 18.2444 10.7096 18.1975L13.2146 15.6925L11.5783 14.0561L9.07322 16.5611C9.02634 16.608 9 16.6716 9 16.7379ZM14.1818 14.7253L13.9217 14.9853L12.2854 13.349L12.5455 13.0889C12.9973 12.637 13.7299 12.637 14.1818 13.0889C14.6337 13.5408 14.6337 14.2734 14.1818 14.7253Z" fill="#364141"/>
<path d="M13.5 3.16113V6.75004C13.5 7.99268 14.5074 9.00004 15.75 9.00004H18.9291C18.5147 6.10303 16.3265 3.77823 13.5 3.16113Z" fill="#364141"/>
</svg>
