<svg width="24" height="24" viewBox="0 0 24 24" fill="none" xmlns="http://www.w3.org/2000/svg">
<path d="M10.5 3H7.5C6.67157 3 6 3.67157 6 4.5V16.5C6 17.3284 6.67157 18 7.5 18H17.5C18.3284 18 19 17.3284 19 16.5V12C19 11.1716 18.3284 10.5 17.5 10.5H15.75C13.6789 10.5 12 8.82107 12 6.75V4.5C12 3.67157 11.3284 3 10.5 3Z" fill="#364141"/>
<path d="M13.5 3.16107V6.74998C13.5 7.99262 14.5074 8.99998 15.75 8.99998H18.9291C18.5147 6.10297 16.3265 3.77817 13.5 3.16107Z" fill="#364141"/>
<path d="M3 7.99998C3 7.06806 3.63739 6.28501 4.5 6.06299V18C4.5 18.8284 5.17157 19.5 6 19.5H15.9367C15.7143 20.3624 14.9309 20.9994 13.999 20.9989L4.99896 20.9943C3.8948 20.9937 3 20.0984 3 18.9943V7.99998Z" fill="#364141"/>
</svg>
