<svg width="24" height="24" viewBox="0 0 24 24" fill="none" xmlns="http://www.w3.org/2000/svg">
<path fill-rule="evenodd" clip-rule="evenodd" d="M10.4409 4.38295C12.3387 2.42932 15.4753 2.42931 17.3731 4.38295C19.1947 6.25812 19.1947 9.24196 17.3731 11.1171L12.7237 15.9034C11.51 17.1527 9.50406 17.1528 8.29037 15.9034C7.12543 14.7042 7.12543 12.7959 8.29037 11.5967L12.704 7.05326L14.1386 8.44683L9.72493 12.9903C9.31391 13.4134 9.31391 14.0867 9.72493 14.5098C10.1532 14.9506 10.8609 14.9506 11.2891 14.5098L15.9386 9.72356C17.0063 8.62449 17.0063 6.8756 15.9386 5.77652C14.8262 4.63146 12.9878 4.63146 11.8755 5.77652L6.74027 11.0627C5.01594 12.8378 5.01594 15.6623 6.74027 17.4373C8.53675 19.2867 11.5059 19.2867 13.3024 17.4373L18.0469 12.5533L19.4814 13.9468L14.7369 18.8309C12.155 21.4888 7.88766 21.4888 5.30571 18.8309C2.82746 16.2798 2.82746 12.2203 5.30571 9.66918L10.4409 4.38295Z" fill="#364141"/>
</svg>
