<svg width="24" height="24" viewBox="0 0 24 24" fill="none" xmlns="http://www.w3.org/2000/svg">
<path fill-rule="evenodd" clip-rule="evenodd" d="M5 19.5C5 20.3284 5.67157 21 6.5 21H17.5C18.3284 21 19 20.3284 19 19.5V12C19 11.1716 18.3284 10.5 17.5 10.5H15.25C13.4551 10.5 12 9.04493 12 7.25V4.5C12 3.67157 11.3284 3 10.5 3H6.5C5.67157 3 5 3.67157 5 4.5V19.5ZM12.75 18.5V13H11.25V18.5H12.75ZM15.75 18.5V14.5H14.25V18.5H15.75ZM8.25 16V18.5H9.75V16H8.25Z" fill="#364141"/>
<path d="M13.5 3.16113V6.75004C13.5 7.99268 14.5074 9.00004 15.75 9.00004H18.9291C18.5147 6.10303 16.3265 3.77823 13.5 3.16113Z" fill="#364141"/>
</svg>
