<svg width="24" height="24" viewBox="0 0 24 24" fill="none" xmlns="http://www.w3.org/2000/svg">
<path d="M14.5 3.91443V3H13V6.75H16.5V5.25H15.2558C15.7211 4.78623 16.3629 4.5 17.0708 4.5C18.1596 4.5 19.0921 5.17718 19.4666 6.13604L20.8638 5.59038C20.2721 4.07536 18.798 3 17.0708 3C16.0954 3 15.2006 3.34298 14.5 3.91443Z" fill="#364141"/>
<path d="M19.5 10.0856V11H21V7.25H17.5V8.75H18.7442C18.2789 9.21377 17.6371 9.5 16.9292 9.5C15.8404 9.5 14.9079 8.82282 14.5334 7.86396L13.1362 8.40962C13.7279 9.92464 15.202 11 16.9292 11C17.9046 11 18.7994 10.657 19.5 10.0856Z" fill="#364141"/>
<path fill-rule="evenodd" clip-rule="evenodd" d="M11.2437 3.4903C11.3133 3.37344 11.4009 3.27747 11.5 3.20239V7.50011C11.5 10.2615 13.7386 12.5001 16.5 12.5001H18.3412L20.5751 16.2499C20.9723 16.9165 20.4893 17.7597 19.7103 17.7597H14.8958L12.9757 20.5743C12.563 21.1793 11.6705 21.19 11.2432 20.595L9.20717 17.7597H4.50688C3.72789 17.7597 3.24485 16.9165 3.64199 16.2499L11.2437 3.4903ZM12.0131 12.472L12.1085 19.5098L9.59516 16.0098L11.5426 12.3578C11.6642 12.1297 12.0096 12.2136 12.0131 12.472Z" fill="#364141"/>
</svg>
