<svg width="24" height="24" viewBox="0 0 24 24" fill="none" xmlns="http://www.w3.org/2000/svg">
<path fill-rule="evenodd" clip-rule="evenodd" d="M5 19.5C5 20.3284 5.67157 21 6.5 21H17.5C18.3284 21 19 20.3284 19 19.5V12C19 11.1716 18.3284 10.5 17.5 10.5H15.25C13.4551 10.5 12 9.04493 12 7.25V4.5C12 3.67157 11.3284 3 10.5 3H6.5C5.67157 3 5 3.67157 5 4.5V19.5ZM13.7678 12.7678L12 14.5355L10.2322 12.7678L9.17157 13.8284L10.9393 15.5962L9.17157 17.364L10.2322 18.4246L12 16.6569L13.7678 18.4246L14.8284 17.364L13.0607 15.5962L14.8284 13.8284L13.7678 12.7678Z" fill="#364141"/>
<path d="M13.5 3.16113V6.75004C13.5 7.99268 14.5074 9.00004 15.75 9.00004H18.9291C18.5147 6.10303 16.3265 3.77823 13.5 3.16113Z" fill="#364141"/>
</svg>
