<svg width="24" height="24" viewBox="0 0 24 24" fill="none" xmlns="http://www.w3.org/2000/svg">
<path d="M13.4576 7.99151C14.7412 7.88602 15.75 6.81082 15.75 5.5C15.75 4.11929 14.6307 3 13.25 3C11.8693 3 10.75 4.11929 10.75 5.5C10.75 6.46558 11.2974 7.3033 12.0988 7.71976L11.7894 7.65787C11.3285 7.5657 10.8657 7.80689 10.6772 8.23742L10.6177 8.3733L8.06451 8.13927C7.1672 8.05703 6.32569 8.58498 6.0093 9.42868L5.30446 11.3083C5.15028 11.7194 5.28235 12.183 5.63005 12.4512L12.5 17.75V19.75C12.5 20.4404 13.0597 21 13.75 21C14.4404 21 15 20.4404 15 19.75V16.9628C15 16.5117 14.7971 16.0847 14.4474 15.7998L12.5451 14.25L13.5451 11.75L15.188 13.1876C15.4182 13.389 15.7136 13.5 16.0195 13.5H17.1701C17.3951 13.5 17.6075 13.4459 17.795 13.3501V21H19.295V8H17.795V10.8999C17.6075 10.8041 17.3951 10.75 17.1701 10.75H16.5451L13.5 8L13.4576 7.99151Z" fill="#364141"/>
<path d="M5.81054 19.0536L7.79505 15.25L8.48489 16.2615C9.10963 17.1776 9.17814 18.3636 8.66302 19.3455L8.16886 20.2874C7.93903 20.7256 7.48513 21 6.9904 21C5.99107 21 5.34829 19.9396 5.81054 19.0536Z" fill="#364141"/>
</svg>
