<svg width="24" height="24" viewBox="0 0 24 24" fill="none" xmlns="http://www.w3.org/2000/svg">
<path d="M6.40182 3.33068C7.09591 2.86796 8.02012 2.95947 8.60998 3.54934L10.4506 5.38996C11.0405 5.97982 11.132 6.90403 10.6693 7.59812L9.3371 9.59635L9.7446 10.683C10.277 12.1027 11.3972 13.2229 12.8169 13.7553L13.9036 14.1628L15.9018 12.8307C16.5959 12.368 17.5201 12.4595 18.11 13.0493L19.9506 14.89C20.5405 15.4798 20.632 16.404 20.1693 17.0981L18.8633 19.0571C18.5834 19.4769 18.1246 19.7432 17.6212 19.7779C9.73048 20.3221 3.17787 13.7695 3.72206 5.87874C3.75677 5.37535 4.02303 4.91654 4.44287 4.63665L6.40182 3.33068Z" fill="#364141"/>
</svg>
