<svg width="24" height="24" viewBox="0 0 24 24" fill="none" xmlns="http://www.w3.org/2000/svg">
<path d="M12.75 7H15.5C16.3284 7 17 7.67157 17 8.5V11H18C19.2426 11 20.25 12.0074 20.25 13.25C20.25 14.4926 19.2426 15.5 18 15.5H17V18.5C17 19.3284 16.3284 20 15.5 20H12.5V18.5C12.5 17.3954 11.6046 16.5 10.5 16.5C9.39543 16.5 8.5 17.3954 8.5 18.5V20H5.5C4.67157 20 4 19.3284 4 18.5V15.5H5.5C6.60457 15.5 7.5 14.6046 7.5 13.5C7.5 12.3954 6.60457 11.5 5.5 11.5H4V8.5C4 7.67157 4.67157 7 5.5 7H8.25V6H8.26373C8.38809 4.87501 9.34186 4 10.5 4C11.6581 4 12.6119 4.87501 12.7363 6H12.75V7Z" fill="#364141"/>
</svg>
