<svg width="24" height="24" viewBox="0 0 24 24" fill="none" xmlns="http://www.w3.org/2000/svg">
<path fill-rule="evenodd" clip-rule="evenodd" d="M5.5 4C4.67157 4 4 4.67157 4 5.5V9.75C4 10.5784 4.67157 11.25 5.5 11.25H9.75C10.5784 11.25 11.25 10.5784 11.25 9.75V5.5C11.25 4.67157 10.5784 4 9.75 4H5.5ZM8.7 8.25H6.5V6.75H8.7V8.25Z" fill="#364141"/>
<path fill-rule="evenodd" clip-rule="evenodd" d="M14.25 4C13.4216 4 12.75 4.67157 12.75 5.5V9.75C12.75 10.5784 13.4216 11.25 14.25 11.25H18.5C19.3284 11.25 20 10.5784 20 9.75V5.5C20 4.67157 19.3284 4 18.5 4H14.25ZM15.3 8.25H17.5V6.75H15.3V8.25Z" fill="#364141"/>
<path d="M20 14.25H18.5V12.75H20V14.25Z" fill="#364141"/>
<path fill-rule="evenodd" clip-rule="evenodd" d="M5.5 12.75C4.67157 12.75 4 13.4216 4 14.25V18.5C4 19.3284 4.67157 20 5.5 20H9.75C10.5784 20 11.25 19.3284 11.25 18.5V14.25C11.25 13.4216 10.5784 12.75 9.75 12.75H5.5ZM6.5 17.25H8.7V15.75H6.5V17.25Z" fill="#364141"/>
<path d="M13 14.25C13 13.4216 13.6716 12.75 14.5 12.75H17.25V14.25H14.5V17.1172H13V14.25Z" fill="#364141"/>
<path d="M13 20H17.25V18.5H13V20Z" fill="#364141"/>
<path d="M15.75 15.6016H18.5C19.3284 15.6016 20 16.2731 20 17.1016V20H18.5V17.1016H15.75V15.6016Z" fill="#364141"/>
</svg>
