<svg width="24" height="24" viewBox="0 0 24 24" fill="none" xmlns="http://www.w3.org/2000/svg">
<path d="M10.3333 3C7.38781 3 5 5.38781 5 8.33333H7C7 6.49238 8.49238 5 10.3333 5H13.6667C15.5076 5 17 6.49238 17 8.33333C17 10.1743 15.5076 11.6667 13.6667 11.6667H12.8571C11.8315 11.6667 11 12.4981 11 13.5238V16.5H13V13.6667H13.6667C16.6122 13.6667 19 11.2789 19 8.33333C19 5.38781 16.6122 3 13.6667 3H10.3333Z" fill="#364141"/>
<path d="M12 21C12.5523 21 13 20.5523 13 20C13 19.4477 12.5523 19 12 19C11.4477 19 11 19.4477 11 20C11 20.5523 11.4477 21 12 21Z" fill="#364141"/>
</svg>
