<svg width="24" height="24" viewBox="0 0 24 24" fill="none" xmlns="http://www.w3.org/2000/svg">
<path d="M15.2498 4.5C16.6305 4.5 17.7498 5.61929 17.7498 7V11.5858L19.5427 9.79289L20.9569 11.2071L16.7498 15.4142L12.5427 11.2071L13.9569 9.79289L15.7498 11.5858V7C15.7498 6.72386 15.526 6.5 15.2498 6.5H5.99996V4.5H15.2498Z" fill="#364141"/>
<path d="M18 19.5L8.74983 19.5C7.36912 19.5 6.24983 18.3807 6.24983 17L6.24983 12.4142L4.45694 14.2071L3.04272 12.7929L7.24983 8.58578L11.4569 12.7929L10.0427 14.2071L8.24983 12.4142L8.24983 17C8.24983 17.2761 8.47369 17.5 8.74983 17.5L18 17.5V19.5Z" fill="#364141"/>
</svg>
