<svg width="24" height="24" viewBox="0 0 24 24" fill="none" xmlns="http://www.w3.org/2000/svg">
<path fill-rule="evenodd" clip-rule="evenodd" d="M16 5H12.75V3H11.25V5H8C6.34315 5 5 6.34315 5 8V16C5 17.6569 6.34315 19 8 19H16C17.6569 19 19 17.6569 19 16V8C19 6.34315 17.6569 5 16 5ZM9.5 11C10.0523 11 10.5 10.5523 10.5 10C10.5 9.44772 10.0523 9 9.5 9C8.94772 9 8.5 9.44772 8.5 10C8.5 10.5523 8.94772 11 9.5 11ZM14.5 11C15.0523 11 15.5 10.5523 15.5 10C15.5 9.44772 15.0523 9 14.5 9C13.9477 9 13.5 9.44772 13.5 10C13.5 10.5523 13.9477 11 14.5 11ZM8.38477 13C8.82239 14.5856 10.2752 15.75 12 15.75C13.7247 15.75 15.1775 14.5856 15.6151 13H14.0161C13.6479 13.7409 12.8834 14.25 12 14.25C11.1165 14.25 10.352 13.7409 9.98384 13H8.38477Z" fill="#364141"/>
<path d="M21.5 10.5V13.5C21.5 14.3284 20.8284 15 20 15V9C20.8284 9 21.5 9.67157 21.5 10.5Z" fill="#364141"/>
<path d="M2.5 13.5V10.5C2.5 9.67157 3.17157 9 4 9V15C3.17157 15 2.5 14.3284 2.5 13.5Z" fill="#364141"/>
</svg>
