<svg width="24" height="24" viewBox="0 0 24 24" fill="none" xmlns="http://www.w3.org/2000/svg">
<path d="M20.6778 20C20.8888 19.0335 21 18.0297 21 17C21 9.26801 14.732 3 7 3C5.97025 3 4.96647 3.11118 4 3.32218V5.37805C4.95886 5.13126 5.9641 5 7 5C13.6274 5 19 10.3726 19 17C19 18.0359 18.8687 19.0411 18.6219 20H20.6778Z" fill="#364141"/>
<path d="M15.8 20C15.9311 19.3538 16 18.6849 16 18C16 12.4772 11.5228 8.00001 6 8.00001C5.31507 8.00001 4.64622 8.06887 4 8.20004V10.252C4.63924 10.0875 5.3094 10 6 10C10.4183 10 14 13.5817 14 18C14 18.6906 13.9125 19.3608 13.748 20H15.8Z" fill="#364141"/>
<path d="M10 17C10 18.6569 8.65685 20 7 20C5.34315 20 4 18.6569 4 17C4 15.3431 5.34315 14 7 14C8.65685 14 10 15.3431 10 17Z" fill="#364141"/>
</svg>
