<svg width="24" height="24" viewBox="0 0 24 24" fill="none" xmlns="http://www.w3.org/2000/svg">
<path d="M9 3H7L5.5 9H7.25V13C6.42157 13 5.75 13.6716 5.75 14.5V19.5C5.75 20.3284 6.42157 21 7.25 21H8.75C9.57843 21 10.25 20.3284 10.25 19.5V14.5C10.25 13.6716 9.57843 13 8.75 13V9H10.5L9 3Z" fill="#364141"/>
<path d="M13 7.5V4C13 3.72386 13.2239 3.5 13.5 3.5H15.5C15.7761 3.5 16 3.72386 16 4V4.06635C16 4.31518 16.183 4.52614 16.4293 4.56133L17.7828 4.75469C18.7681 4.89545 19.5 5.73929 19.5 6.73459V9H18.5L18.4257 8.7772C18.1948 8.08429 17.4282 7.72874 16.75 8V13C17.5784 13 18.25 13.6716 18.25 14.5V19.5C18.25 20.3284 17.5784 21 16.75 21H15.25C14.4216 21 13.75 20.3284 13.75 19.5V14.5C13.75 13.6716 14.4216 13 15.25 13V8H13.5C13.2239 8 13 7.77614 13 7.5Z" fill="#364141"/>
</svg>
