<svg width="24" height="24" viewBox="0 0 24 24" fill="none" xmlns="http://www.w3.org/2000/svg">
<path fill-rule="evenodd" clip-rule="evenodd" d="M12 21C16.9706 21 21 16.9706 21 12C21 7.02944 16.9706 3 12 3C7.02944 3 3 7.02944 3 12C3 16.9706 7.02944 21 12 21ZM13.25 7.58196V7.25C13.25 6.55964 12.6904 6 12 6C11.3097 6 10.75 6.55964 10.75 7.25V7.58196C10.75 7.85595 10.8212 8.12524 10.9565 8.36347L12 10.2L13.0435 8.36347C13.1789 8.12524 13.25 7.85595 13.25 7.58196ZM13.25 16.418V16.75C13.25 17.4404 12.6904 18 12 18C11.3097 18 10.75 17.4404 10.75 16.75V16.418C10.75 16.144 10.8212 15.8748 10.9565 15.6365L12 13.8L13.0435 15.6365C13.1789 15.8748 13.25 16.144 13.25 16.418ZM16.7387 10.7075L16.4512 10.8735C16.2139 11.0105 15.9451 11.0835 15.6711 11.0854L13.5589 11.1L14.6276 9.27806C14.7662 9.04173 14.9639 8.84546 15.2012 8.70846L15.4887 8.54248C16.0865 8.1973 16.851 8.40215 17.1962 9.00001C17.5414 9.59788 17.3365 10.3624 16.7387 10.7075ZM8.7989 15.2916L8.51141 15.4575C7.91355 15.8027 7.14906 15.5979 6.80388 15C6.4587 14.4021 6.66354 13.6377 7.26141 13.2925L7.5489 13.1265C7.78618 12.9895 8.05497 12.9165 8.32896 12.9146L10.4412 12.9L9.37244 14.722C9.23381 14.9583 9.03618 15.1546 8.7989 15.2916ZM8.51139 8.54248L8.79888 8.70846C9.03616 8.84546 9.23379 9.04173 9.37242 9.27806L10.4412 11.1L8.32894 11.0854C8.05495 11.0835 7.78616 11.0105 7.54888 10.8735L7.26139 10.7075C6.66353 10.3624 6.45868 9.59788 6.80386 9.00001C7.14904 8.40215 7.91353 8.1973 8.51139 8.54248ZM16.4511 13.1265L16.7386 13.2925C17.3365 13.6377 17.5413 14.4021 17.1962 15C16.851 15.5979 16.0865 15.8027 15.4886 15.4575L15.2011 15.2916C14.9639 15.1546 14.7662 14.9583 14.6276 14.722L13.5589 12.9L15.6711 12.9146C15.9451 12.9165 16.2139 12.9895 16.4511 13.1265Z" fill="#364141"/>
</svg>
