<svg width="24" height="24" viewBox="0 0 24 24" fill="none" xmlns="http://www.w3.org/2000/svg">
<path d="M17.9767 3.23558C17.8869 3.04322 17.6134 3.04322 17.5236 3.23558L16.6749 5.0541C16.6501 5.10731 16.6073 5.15008 16.5541 5.17492L14.7356 6.02363C14.5432 6.1134 14.5432 6.38693 14.7356 6.47671L16.5541 7.32542C16.6073 7.35025 16.6501 7.39302 16.6749 7.44623L17.5236 9.26476C17.6134 9.45712 17.8869 9.45712 17.9767 9.26476L18.8254 7.44623C18.8502 7.39302 18.893 7.35025 18.9462 7.32542L20.7647 6.47671C20.9571 6.38693 20.9571 6.1134 20.7647 6.02363L18.9462 5.17492C18.893 5.15008 18.8502 5.10731 18.8254 5.0541L17.9767 3.23558Z" fill="#364141"/>
<path d="M11.6731 5.36564C11.3981 4.80756 10.6024 4.80756 10.3275 5.36564L8.09777 9.89179C8.02 10.0496 7.8892 10.1751 7.72826 10.2463L3.0517 12.314C2.45607 12.5773 2.45607 13.4225 3.0517 13.6859L7.72826 15.7536C7.8892 15.8247 8.02 15.9502 8.09777 16.1081L10.3275 20.6342C10.6024 21.1923 11.3981 21.1923 11.6731 20.6342L13.9028 16.1081C13.9805 15.9502 14.1113 15.8247 14.2723 15.7536L18.9488 13.6859C19.5445 13.4225 19.5445 12.5773 18.9488 12.314L14.2723 10.2463C14.1113 10.1751 13.9805 10.0496 13.9028 9.89179L11.6731 5.36564Z" fill="#364141"/>
</svg>
