<svg width="24" height="24" viewBox="0 0 24 24" fill="none" xmlns="http://www.w3.org/2000/svg">
<path d="M13 7.25C13 9.0248 13.8807 10.5939 15.2289 11.5442C15.3537 11.6471 15.4913 11.7351 15.6388 11.8056C16.4079 12.2474 17.2994 12.5 18.25 12.5C18.3803 12.5 18.5096 12.4953 18.6375 12.4859C19.4578 13.0213 20 13.9473 20 15V17H4V15C4 13.3431 5.34315 12 7 12H7.5C8.60457 12 9.5 11.1046 9.5 10V5.5H8V4H14.1266C13.4211 4.89393 13 6.02279 13 7.25Z" fill="#364141"/>
<path d="M5 18.5C5.00033 19.3278 5.67142 19.9987 6.49925 19.9988L17.4999 19.9999C18.3283 19.9999 19 19.3284 19 18.5H5Z" fill="#364141"/>
<path d="M17.8002 10.0481L15.0017 7.56056L15.9983 6.43944L17.6998 7.95188L20.4504 4.98966L21.5496 6.01034L17.8002 10.0481Z" fill="#364141"/>
</svg>
