<svg width="24" height="24" viewBox="0 0 24 24" fill="none" xmlns="http://www.w3.org/2000/svg">
<path fill-rule="evenodd" clip-rule="evenodd" d="M11.9999 5.97377L10.7171 8.17621C10.2932 8.90402 9.58286 9.4201 8.75969 9.59835L6.26863 10.1378L7.96687 12.0384C8.52806 12.6665 8.79938 13.5015 8.71453 14.3395L8.45778 16.8753L10.7902 15.8475C11.5609 15.5079 12.4389 15.5079 13.2097 15.8475L15.542 16.8753L15.2853 14.3395C15.2004 13.5015 15.4718 12.6665 16.0329 12.0384L17.7312 10.1378L15.2401 9.59835C14.417 9.4201 13.7066 8.90401 13.2827 8.17621L11.9999 5.97377ZM12.864 3.48358C12.4783 2.82131 11.5215 2.82131 11.1358 3.48358L8.98888 7.16961C8.84758 7.41221 8.6108 7.58424 8.33641 7.64366L4.16735 8.54645C3.41829 8.70866 3.12264 9.61858 3.6333 10.1901L6.47549 13.371C6.66255 13.5803 6.75299 13.8587 6.72471 14.138L6.29501 18.382C6.2178 19.1445 6.99183 19.7069 7.69317 19.3978L11.5967 17.6777C11.8536 17.5645 12.1462 17.5645 12.4032 17.6777L16.3066 19.3978C17.008 19.7069 17.782 19.1445 17.7048 18.382L17.2751 14.138C17.2468 13.8587 17.3373 13.5803 17.5243 13.371L20.3665 10.1901C20.8772 9.61858 20.5815 8.70866 19.8325 8.54645L15.6634 7.64366C15.389 7.58424 15.1522 7.41221 15.0109 7.16961L12.864 3.48358Z" fill="#364141"/>
</svg>
