<svg width="24" height="24" viewBox="0 0 24 24" fill="none" xmlns="http://www.w3.org/2000/svg">
<path d="M11.1358 3.48358C11.5215 2.82131 12.4783 2.82131 12.864 3.48358L15.0109 7.16961C15.1522 7.41221 15.389 7.58424 15.6634 7.64366L19.8325 8.54645C20.5815 8.70866 20.8772 9.61858 20.3665 10.1901L17.5243 13.371C17.3373 13.5803 17.2468 13.8587 17.2751 14.138L17.7048 18.382C17.782 19.1445 17.008 19.7069 16.3066 19.3978L12.4032 17.6777C12.1462 17.5645 11.8536 17.5645 11.5967 17.6777L7.69317 19.3978C6.99183 19.7069 6.2178 19.1445 6.29501 18.382L6.72471 14.138C6.75299 13.8587 6.66255 13.5803 6.47549 13.371L3.6333 10.1901C3.12264 9.61858 3.41829 8.70866 4.16735 8.54645L8.33641 7.64366C8.6108 7.58424 8.84758 7.41221 8.98888 7.16961L11.1358 3.48358Z" fill="#364141"/>
</svg>
