<svg width="24" height="24" viewBox="0 0 24 24" fill="none" xmlns="http://www.w3.org/2000/svg">
<path fill-rule="evenodd" clip-rule="evenodd" d="M11.9999 2.98688C12.3355 2.98687 12.6712 3.15243 12.8641 3.48358L15.011 7.16961C15.1523 7.41221 15.389 7.58424 15.6634 7.64366L19.8325 8.54645C20.5816 8.70866 20.8772 9.61858 20.3666 10.1901L17.5244 13.371C17.3373 13.5803 17.2469 13.8587 17.2751 14.138L17.7048 18.382C17.782 19.1445 17.008 19.7069 16.3067 19.3978L12.4032 17.6777C12.2747 17.6211 12.1373 17.5928 11.9999 17.5928C11.9913 17.5928 11.9828 17.5929 11.9742 17.5931C11.8989 17.595 11.8238 17.6055 11.7504 17.6244C11.6982 17.6379 11.6467 17.6556 11.5967 17.6777L7.6932 19.3978C7.60553 19.4365 7.51673 19.4615 7.4286 19.4742C7.2123 19.5054 7.00003 19.4625 6.81846 19.3648C6.48214 19.1839 6.25114 18.8153 6.29501 18.382L6.72471 14.138C6.75299 13.8587 6.66255 13.5803 6.47549 13.371L3.6333 10.1901C3.12264 9.61858 3.41829 8.70866 4.16735 8.54645L8.33641 7.64366C8.6108 7.58424 8.84758 7.41221 8.98888 7.16961L11.1358 3.48358C11.3249 3.15891 11.6512 2.9934 11.9803 2.98707M11.9999 5.97376L13.2827 8.17621C13.7067 8.90401 14.417 9.4201 15.2402 9.59835L17.7312 10.1378L16.033 12.0384C15.4718 12.6665 15.2005 13.5015 15.2853 14.3395L15.5421 16.8753L13.2097 15.8475C12.8243 15.6777 12.4121 15.5928 11.9999 15.5928L11.9999 5.97376Z" fill="#364141"/>
</svg>
