<svg width="24" height="24" viewBox="0 0 24 24" fill="none" xmlns="http://www.w3.org/2000/svg">
<path d="M12 3C13.3367 3 14.6567 3.29777 15.864 3.87167C17.0712 4.44557 18.1355 5.28119 18.9795 6.31782C19.8234 7.35446 20.4259 8.56607 20.743 9.86464C21.0602 11.1632 21.0841 12.5161 20.813 13.8251C20.5419 15.134 19.9827 16.3662 19.1759 17.432C18.3691 18.4978 17.335 19.3705 16.1488 19.9867C14.9625 20.6029 13.6539 20.9471 12.318 20.9944C10.9821 21.0416 9.65247 20.7907 8.42567 20.2598L9.21203 18.4426C10.1689 18.8567 11.2061 19.0525 12.2481 19.0156C13.2901 18.9788 14.3108 18.7103 15.236 18.2296C16.1613 17.749 16.9679 17.0683 17.5972 16.237C18.2265 15.4056 18.6627 14.4446 18.8741 13.4236C19.0856 12.4026 19.0669 11.3473 18.8195 10.3344C18.5722 9.32154 18.1023 8.37648 17.444 7.5679C16.7857 6.75933 15.9556 6.10754 15.0139 5.6599C14.0722 5.21226 13.0427 4.98 12 4.98V3Z" fill="#364141"/>
<path d="M5.63604 18.364C4.59794 17.3259 3.82954 16.0496 3.39786 14.6464C2.96618 13.2432 2.88432 11.7557 3.15942 10.3136L5.10434 10.6846C4.88977 11.8094 4.95362 12.9697 5.29033 14.0642C5.62705 15.1587 6.22639 16.1542 7.03611 16.9639L5.63604 18.364Z" fill="#364141"/>
<path d="M8.02644 3.92468C6.66624 4.59398 5.49715 5.59602 4.62763 6.83781L6.24955 7.97349C6.92777 7.00489 7.83967 6.22331 8.90062 5.70125L8.02644 3.92468Z" fill="#364141"/>
</svg>
