<svg width="24" height="24" viewBox="0 0 24 24" fill="none" xmlns="http://www.w3.org/2000/svg">
<path d="M6.5 7.80614C6.5 5.566 8.316 3.75 10.5561 3.75H12.25C14.5972 3.75 16.5 5.65279 16.5 8H14.5C14.5 6.75736 13.4926 5.75 12.25 5.75H10.5561C9.42057 5.75 8.5 6.67057 8.5 7.80614C8.5 8.51508 8.86521 9.17401 9.46639 9.54975L13.7868 12.25H20V13.75H4V12.25H10.0132L8.40639 11.2457C7.22045 10.5045 6.5 9.20466 6.5 7.80614Z" fill="#364141"/>
<path d="M14.2706 15.25C14.419 15.5373 14.5 15.86 14.5 16.1939C14.5 17.3294 13.5794 18.25 12.4439 18.25H10.75C9.50736 18.25 8.5 17.2426 8.5 16H6.5C6.5 18.3472 8.40279 20.25 10.75 20.25H12.4439C14.684 20.25 16.5 18.434 16.5 16.1939C16.5 15.8722 16.4619 15.5557 16.3887 15.25H14.2706Z" fill="#364141"/>
</svg>
