<svg width="24" height="24" viewBox="0 0 24 24" fill="none" xmlns="http://www.w3.org/2000/svg">
<path d="M11 6V3H13V6H11Z" fill="#364141"/>
<path d="M11 21V18H13V21H11Z" fill="#364141"/>
<path d="M16 12C16 14.2091 14.2091 16 12 16C9.79086 16 8 14.2091 8 12C8 9.79086 9.79086 8 12 8C14.2091 8 16 9.79086 16 12Z" fill="#364141"/>
<path d="M21 11H18V13H21V11Z" fill="#364141"/>
<path d="M6 11L3 11V13H6V11Z" fill="#364141"/>
<path d="M16.9497 15.5356L19.0711 17.6569L17.6569 19.0711L15.5355 16.9498L16.9497 15.5356Z" fill="#364141"/>
<path d="M6.34315 4.92899L8.46447 7.05031L7.05025 8.46452L4.92893 6.3432L6.34315 4.92899Z" fill="#364141"/>
<path d="M17.6569 4.92888L15.5355 7.0502L16.9497 8.46441L19.0711 6.34309L17.6569 4.92888Z" fill="#364141"/>
<path d="M7.05025 15.5355L4.92893 17.6568L6.34315 19.071L8.46447 16.9497L7.05025 15.5355Z" fill="#364141"/>
</svg>
