<svg width="24" height="24" viewBox="0 0 24 24" fill="none" xmlns="http://www.w3.org/2000/svg">
<path fill-rule="evenodd" clip-rule="evenodd" d="M2.75 12C2.75 6.89137 6.89137 2.75 12 2.75H12.1719C17.1856 2.75 21.25 6.81441 21.25 11.8281V12.875C21.25 14.877 19.627 16.5 17.625 16.5C16.5363 16.5 15.5596 16.02 14.8951 15.2601C14.1666 16.024 13.1389 16.5 12 16.5C9.79086 16.5 8 14.7091 8 12.5V11.5C8 9.29086 9.79086 7.5 12 7.5C14.2091 7.5 16 9.29086 16 11.5V12.875C16 13.7725 16.7275 14.5 17.625 14.5C18.5225 14.5 19.25 13.7725 19.25 12.875V11.8281C19.25 7.91898 16.081 4.75 12.1719 4.75H12C7.99594 4.75 4.75 7.99594 4.75 12C4.75 16.0041 7.99594 19.25 12 19.25C13.23 19.25 14.3884 18.9437 15.4032 18.4032L16.8673 19.8673C15.4535 20.7439 13.7858 21.25 12 21.25C6.89137 21.25 2.75 17.1086 2.75 12ZM12 9.5C13.1046 9.5 14 10.3954 14 11.5V12.5C14 13.6046 13.1046 14.5 12 14.5C10.8954 14.5 10 13.6046 10 12.5V11.5C10 10.3954 10.8954 9.5 12 9.5Z" fill="#364141"/>
</svg>
