<svg width="24" height="24" viewBox="0 0 24 24" fill="none" xmlns="http://www.w3.org/2000/svg">
<path fill-rule="evenodd" clip-rule="evenodd" d="M13.4393 4.43934L20.3358 11.3358C21.1168 12.1168 21.1168 13.3832 20.3358 14.1642L14.1642 20.3358C13.3832 21.1168 12.1168 21.1168 11.3358 20.3358L4.43934 13.4393C4.15804 13.158 4 12.7765 4 12.3787V6C4 4.89543 4.89543 4 6 4H12.3787C12.7765 4 13.158 4.15804 13.4393 4.43934ZM9 10C9.55228 10 10 9.55228 10 9C10 8.44772 9.55228 8 9 8C8.44772 8 8 8.44772 8 9C8 9.55228 8.44772 10 9 10Z" fill="#364141"/>
</svg>
