<svg width="24" height="24" viewBox="0 0 24 24" fill="none" xmlns="http://www.w3.org/2000/svg">
<path fill-rule="evenodd" clip-rule="evenodd" d="M19.0858 9.58579L12.9393 3.43934C12.658 3.15804 12.2765 3 11.8787 3H6.5C5.39543 3 4.5 3.89543 4.5 5V10.3787C4.5 10.7765 4.65804 11.158 4.93934 11.4393L11.0858 17.5858C11.8668 18.3668 13.1332 18.3668 13.9142 17.5858L19.0858 12.4142C19.8668 11.6332 19.8668 10.3668 19.0858 9.58579ZM9.5 7C9.5 7.55228 9.05228 8 8.5 8C7.94772 8 7.5 7.55228 7.5 7C7.5 6.44772 7.94772 6 8.5 6C9.05228 6 9.5 6.44772 9.5 7Z" fill="#364141"/>
<path d="M10.6281 20.2451L4.97409 14.9445C4.67161 14.6609 4.5 14.2648 4.5 13.8502V13L11.1386 19.2237C11.9053 19.9424 13.0974 19.9453 13.8674 19.2302L19.5 14V14.8459C19.5 15.263 19.3263 15.6613 19.0207 15.9451L14.3802 20.2541C13.3214 21.2373 11.6823 21.2334 10.6281 20.2451Z" fill="#364141"/>
</svg>
