<svg width="24" height="24" viewBox="0 0 24 24" fill="none" xmlns="http://www.w3.org/2000/svg">
<path d="M7.75 9.90549C9.04392 9.57245 10 8.39788 10 7C10 5.34315 8.65685 4 7 4C5.34315 4 4 5.34315 4 7C4 8.39788 4.95608 9.57245 6.25 9.90549V14.0945C4.95608 14.4275 4 15.6021 4 17C4 18.6569 5.34315 20 7 20C8.65685 20 10 18.6569 10 17C10 15.6021 9.04392 14.4275 7.75 14.0945V9.90549Z" fill="#364141"/>
<path d="M12 6.5H20V4.5H12V6.5Z" fill="#364141"/>
<path d="M12 9.5H16V7.5H12V9.5Z" fill="#364141"/>
<path d="M12 16.5V14.5H20V16.5H12Z" fill="#364141"/>
<path d="M16 19.5H12V17.5H16V19.5Z" fill="#364141"/>
</svg>
