<svg width="24" height="24" viewBox="0 0 24 24" fill="none" xmlns="http://www.w3.org/2000/svg">
<path fill-rule="evenodd" clip-rule="evenodd" d="M3 6.5C3 5.67157 3.67157 5 4.5 5H13.25V8.5H14.75V5H19.5C20.3284 5 21 5.67157 21 6.5V10.5H19.5C18.6716 10.5 18 11.1716 18 12C18 12.8284 18.6716 13.5 19.5 13.5H21V17.5C21 18.3284 20.3284 19 19.5 19H14.75V15.5H13.25V19H4.5C3.67157 19 3 18.3284 3 17.5V13.5H4.5C5.32843 13.5 6 12.8284 6 12C6 11.1716 5.32843 10.5 4.5 10.5H3V6.5ZM14.75 14H13.25V10H14.75V14Z" fill="#364141"/>
</svg>
