<svg width="24" height="24" viewBox="0 0 24 24" fill="none" xmlns="http://www.w3.org/2000/svg">
<path fill-rule="evenodd" clip-rule="evenodd" d="M11.9999 3.0022C6.64638 6.21224 3.05082 12.0532 3.00049 18.7377C5.67914 20.181 8.74386 21 11.9999 21C15.2559 21 18.3207 20.181 20.9994 18.7377C20.949 12.0531 17.3535 6.21224 11.9999 3.0022ZM12.7499 13.5L13.2499 10V8.5H10.7499V10L11.2499 13.5H12.7499ZM12.9999 16C12.9999 16.5523 12.5522 17 11.9999 17C11.4476 17 10.9999 16.5523 10.9999 16C10.9999 15.4477 11.4476 15 11.9999 15C12.5522 15 12.9999 15.4477 12.9999 16Z" fill="#364141"/>
</svg>
