<svg width="24" height="24" viewBox="0 0 24 24" fill="none" xmlns="http://www.w3.org/2000/svg">
<path fill-rule="evenodd" clip-rule="evenodd" d="M9.5 7.25C9.5 5.86929 10.6193 4.75 12 4.75C13.3807 4.75 14.5 5.86929 14.5 7.25V7.5H16.5V7.25C16.5 4.76472 14.4853 2.75 12 2.75C9.51472 2.75 7.5 4.76472 7.5 7.25V11H6.5C5.67157 11 5 11.6716 5 12.5V19.5C5 20.3284 5.67157 21 6.5 21H17.5C18.3284 21 19 20.3284 19 19.5V12.5C19 11.6716 18.3284 11 17.5 11H9.5V7.25ZM13 15C13 15.5523 12.5523 16 12 16C11.4477 16 11 15.5523 11 15C11 14.4477 11.4477 14 12 14C12.5523 14 13 14.4477 13 15Z" fill="#364141"/>
</svg>
