<svg width="24" height="24" viewBox="0 0 24 24" fill="none" xmlns="http://www.w3.org/2000/svg">
<path d="M9.99999 12C12.2091 12 14 10.2091 14 8C14 5.79086 12.2091 4 9.99999 4C7.79086 4 5.99999 5.79086 5.99999 8C5.99999 10.2091 7.79086 12 9.99999 12Z" fill="#364141"/>
<path d="M9.98031 13.25C8.46558 13.25 6.83575 13.25 5.04124 13.5332C3.37194 13.7966 2.44542 15.6367 3.4548 17.1034C4.59179 18.7555 6.73191 21 9.99999 21C13.2681 21 15.4082 18.7555 16.5452 17.1034C17.5546 15.6367 16.6281 13.7966 14.9588 13.5332C13.1642 13.25 11.5344 13.25 10.0197 13.25H9.98031Z" fill="#364141"/>
<path d="M22.5303 7.53033L21.4697 6.46967L18 9.93934L16.5303 8.46967L15.4697 9.53033L18 12.0607L22.5303 7.53033Z" fill="#364141"/>
</svg>
