<svg width="24" height="24" viewBox="0 0 24 24" fill="none" xmlns="http://www.w3.org/2000/svg">
<path d="M12 12C14.4853 12 16.5 9.98528 16.5 7.5C16.5 5.01472 14.4853 3 12 3C9.51475 3 7.50003 5.01472 7.50003 7.5C7.50003 9.98528 9.51475 12 12 12Z" fill="#364141"/>
<path d="M12 21C16.1617 21 18.6837 18.2945 19.9596 16.3479C20.609 15.357 20.0054 14.1279 18.8379 13.9267C16.3621 13.5 14.1386 13.5 12 13.5C9.86147 13.5 7.63796 13.5 5.16218 13.9267C3.9947 14.1279 3.39102 15.357 4.04047 16.3479C5.3164 18.2945 7.83835 21 12 21Z" fill="#364141"/>
</svg>
