<svg width="24" height="24" viewBox="0 0 24 24" fill="none" xmlns="http://www.w3.org/2000/svg">
<path fill-rule="evenodd" clip-rule="evenodd" d="M9 12C10.933 12 12.5 10.433 12.5 8.5C12.5 6.567 10.933 5 9 5C7.067 5 5.5 6.567 5.5 8.5C5.5 10.433 7.067 12 9 12ZM17 12C18.6569 12 20 10.6569 20 9C20 7.34315 18.6569 6 17 6C15.3431 6 14 7.34315 14 9C14 10.6569 15.3431 12 17 12ZM15.75 19C15.5901 19 15.4337 18.9939 15.2807 18.9821C15.5068 18.7512 15.7104 18.5227 15.8915 18.3044C16.9529 17.025 17.137 15.3613 16.5265 13.9669C16.4559 13.8057 16.3757 13.65 16.2866 13.5006C17.1941 13.504 18.16 13.5246 19.1962 13.6517C19.9607 13.7455 20.564 14.1891 20.8396 14.7852C21.1188 15.389 21.0437 16.1144 20.5338 16.6962C19.5993 17.7625 18.0235 19 15.75 19ZM9.01705 13.25H8.98298H8.98297C7.80042 13.25 6.52847 13.25 5.1443 13.4293C4.28899 13.5401 3.61404 14.0644 3.30564 14.7689C2.99329 15.4825 3.07737 16.3398 3.6478 17.0273C4.69329 18.2875 6.45642 19.75 9.00001 19.75C11.5436 19.75 13.3067 18.2875 14.3522 17.0273C14.9227 16.3398 15.0067 15.4825 14.6944 14.7689C14.386 14.0644 13.711 13.5401 12.8557 13.4293C11.4716 13.25 10.1996 13.25 9.01706 13.25H9.01705Z" fill="#364141"/>
</svg>
