<svg width="24" height="24" viewBox="0 0 24 24" fill="none" xmlns="http://www.w3.org/2000/svg">
<path fill-rule="evenodd" clip-rule="evenodd" d="M3 6.5C3 5.67157 3.67157 5 4.5 5H15.5C16.3284 5 17 5.67157 17 6.5V8.97159L20.3339 7.79716C20.6591 7.68258 21 7.9239 21 8.26875V15.7861C21 16.1331 20.6552 16.3746 20.3291 16.256L17 15.0455V17.5C17 18.3284 16.3284 19 15.5 19H4.5C3.67157 19 3 18.3284 3 17.5V6.5ZM10 9.5C10.3612 9.5 10.7182 9.57829 11.0463 9.72948C11.3744 9.88066 11.6658 10.1012 11.9005 10.3758C12.1352 10.6504 12.3076 10.9726 12.4058 11.3203C12.504 11.6679 12.5258 12.0327 12.4695 12.3895C12.4132 12.7464 12.2802 13.0868 12.0798 13.3873C11.8793 13.6878 11.6161 13.9413 11.3083 14.1304C11.0004 14.3194 10.6553 14.4395 10.2966 14.4823C9.93799 14.5252 9.57437 14.4898 9.23075 14.3787L8.76874 15.8058C9.25844 15.9642 9.77355 16.0265 10.2858 15.9898C10.3487 15.9853 10.4117 15.9793 10.4745 15.9718C11.0485 15.9032 11.6007 15.711 12.0932 15.4086C12.5858 15.1061 13.0069 14.7005 13.3276 14.2197C13.6484 13.7388 13.8611 13.1942 13.9511 12.6232C14.0412 12.0523 14.0065 11.4686 13.8493 10.9124C13.6922 10.3562 13.4163 9.84064 13.0408 9.40125C12.6653 8.96186 12.199 8.60906 11.6741 8.36716C11.6166 8.34067 11.5585 8.31558 11.5 8.2919C11.024 8.09933 10.5147 8 10 8L10 9.5ZM8.23223 13.7678C7.95247 13.488 7.7431 13.1458 7.62134 12.7694C7.49962 12.3931 7.46892 11.9933 7.53175 11.6028L6.05091 11.3638C5.96908 11.8723 5.98628 12.3912 6.10053 12.8912C6.12667 13.0055 6.15788 13.1189 6.19414 13.231C6.23041 13.3431 6.27152 13.4533 6.31732 13.5614C6.51752 14.0336 6.80712 14.4639 7.1713 14.8282L8.23223 13.7678ZM8.85933 9.77539C8.48411 9.96779 8.16364 10.252 7.92776 10.6015L6.68441 9.7624C6.77372 9.63007 6.8706 9.50359 6.97442 9.38353C7.20592 9.11584 7.47193 8.88004 7.76547 8.68234C7.89712 8.59367 8.0343 8.51266 8.17639 8.43988L8.86024 9.77493L8.85933 9.77539Z" fill="#364141"/>
</svg>
