<svg width="24" height="24" viewBox="0 0 24 24" fill="none" xmlns="http://www.w3.org/2000/svg">
<path d="M18.7928 19.2072L4.29284 4.70718L5.70706 3.29297L7.70469 5.2906C9.02543 4.93795 10.4124 4.75008 11.8433 4.75008C15.1751 4.75008 18.269 5.76875 20.8429 7.51464L19.746 9.18867C17.4833 7.64769 14.7642 6.75008 11.8433 6.75008C11.0037 6.75008 10.1808 6.82423 9.3806 6.96651L11.19 8.77589C11.4577 8.75877 11.7277 8.75008 11.9998 8.75008C14.5652 8.75008 16.9501 9.52288 18.9343 10.8484L17.8248 12.5127C16.4816 11.6154 14.9198 11.0196 13.2362 10.8221L20.2071 17.793L18.7928 19.2072Z" fill="#364141"/>
<path d="M13.25 18C13.25 18.6904 12.6903 19.25 12 19.25C11.3096 19.25 10.75 18.6904 10.75 18C10.75 17.3097 11.3096 16.75 12 16.75C12.6903 16.75 13.25 17.3097 13.25 18Z" fill="#364141"/>
<path d="M7.38943 14.3342C8.35914 13.5774 9.51973 13.0538 10.7869 12.8477L12.7384 14.7992C12.4969 14.7668 12.2504 14.7501 12 14.7501C10.6718 14.7501 9.45359 15.2209 8.5031 16.0047L7.38943 14.3342Z" fill="#364141"/>
<path d="M9.09599 11.1568L7.51711 9.5779C6.64906 9.91148 5.82765 10.3391 5.06536 10.8483L6.17488 12.5126C7.06247 11.9197 8.04548 11.4584 9.09599 11.1568Z" fill="#364141"/>
<path d="M2.84277 7.5152C3.28839 7.21291 3.74958 6.93241 4.2249 6.67522L5.69392 8.16982C5.08394 8.46792 4.49792 8.809 3.93969 9.18923L2.84277 7.5152Z" fill="#364141"/>
</svg>
