<svg width="24" height="24" viewBox="0 0 24 24" fill="none" xmlns="http://www.w3.org/2000/svg">
<path d="M11.8433 6.75C8.92195 6.75 6.20253 7.64783 3.93969 9.18916L2.84277 7.51513C5.41688 5.7689 8.51102 4.75 11.8433 4.75C15.1751 4.75 18.269 5.76868 20.8429 7.51457L19.746 9.18859C17.4833 7.64762 14.7642 6.75 11.8433 6.75Z" fill="#364141"/>
<path d="M11.9999 19.25C12.6903 19.25 13.2499 18.6904 13.2499 18C13.2499 17.3096 12.6903 16.75 11.9999 16.75C11.3096 16.75 10.7499 17.3096 10.7499 18C10.7499 18.6904 11.3096 19.25 11.9999 19.25Z" fill="#364141"/>
<path d="M18.9343 10.8483C16.9501 9.5228 14.5652 8.75 11.9998 8.75C9.43447 8.75 7.04962 9.52278 5.06536 10.8482L6.17488 12.5125C7.84166 11.3991 9.84493 10.75 11.9998 10.75C14.1547 10.75 16.158 11.3992 17.8248 12.5126L18.9343 10.8483Z" fill="#364141"/>
<path d="M11.9999 12.75C13.7383 12.75 15.3386 13.3415 16.6105 14.3341L15.4968 16.0046C14.5463 15.2208 13.3281 14.75 11.9999 14.75C10.6717 14.75 9.45347 15.2208 8.50297 16.0046L7.38931 14.3341C8.66119 13.3415 10.2615 12.75 11.9999 12.75Z" fill="#364141"/>
</svg>
