<svg width="20" height="20" viewBox="0 0 20 20" fill="none" xmlns="http://www.w3.org/2000/svg">
<path d="M10 19.4142L6.29292 15.7071L7.70714 14.2929L9.00003 15.5858V11H4.41424L5.70714 12.2929L4.29292 13.7071L0.585815 9.99997L4.29292 6.29286L5.70714 7.70707L4.41424 8.99997H9.00003V4.41418L7.70714 5.70707L6.29292 4.29286L10 0.585754L13.7071 4.29286L12.2929 5.70707L11 4.41418V8.99997H15.5858L14.2929 7.70708L15.7071 6.29286L19.4142 9.99997L15.7071 13.7071L14.2929 12.2929L15.5858 11H11V15.5858L12.2929 14.2929L13.7071 15.7071L10 19.4142Z" fill="#364141"/>
</svg>
