<svg width="18" height="18" viewBox="0 0 18 18" fill="none" xmlns="http://www.w3.org/2000/svg">
<path d="M5.5 6.5C6.05228 6.5 6.5 6.05228 6.5 5.5C6.5 4.94772 6.05228 4.5 5.5 4.5C4.94772 4.5 4.5 4.94772 4.5 5.5C4.5 6.05228 4.94772 6.5 5.5 6.5Z" fill="#364141"/>
<path d="M5 9C5 9.55229 4.55228 10 4 10C3.44772 10 3 9.55229 3 9C3 8.44771 3.44772 8 4 8C4.55228 8 5 8.44771 5 9Z" fill="#364141"/>
<path d="M5.5 13.5C6.05228 13.5 6.5 13.0523 6.5 12.5C6.5 11.9477 6.05228 11.5 5.5 11.5C4.94772 11.5 4.5 11.9477 4.5 12.5C4.5 13.0523 4.94772 13.5 5.5 13.5Z" fill="#364141"/>
<path d="M10 4C10 4.55228 9.55229 5 9 5C8.44771 5 8 4.55228 8 4C8 3.44772 8.44771 3 9 3C9.55229 3 10 3.44772 10 4Z" fill="#364141"/>
<path d="M12.5 6.5C13.0523 6.5 13.5 6.05228 13.5 5.5C13.5 4.94772 13.0523 4.5 12.5 4.5C11.9477 4.5 11.5 4.94772 11.5 5.5C11.5 6.05228 11.9477 6.5 12.5 6.5Z" fill="#364141"/>
<path fill-rule="evenodd" clip-rule="evenodd" d="M0 8.5C0 3.80558 3.80558 0 8.5 0H9.5C14.1944 0 18 3.80558 18 8.5V9C18 10.1046 17.1046 11 16 11H12.5C11.6716 11 11 11.6716 11 12.5V16C11 17.1046 10.1046 18 9 18H8.5C3.80558 18 0 14.1944 0 9.5V8.5ZM8.5 1.5H9.5C13.366 1.5 16.5 4.63401 16.5 8.5V9C16.5 9.27614 16.2761 9.5 16 9.5H12.5C10.8431 9.5 9.5 10.8431 9.5 12.5V16C9.5 16.2761 9.27614 16.5 9 16.5H8.5C4.63401 16.5 1.5 13.366 1.5 9.5V8.5C1.5 4.63401 4.63401 1.5 8.5 1.5Z" fill="#364141"/>
</svg>
