<svg width="18" height="18" viewBox="0 0 18 18" fill="none" xmlns="http://www.w3.org/2000/svg">
<path fill-rule="evenodd" clip-rule="evenodd" d="M8.5 0C3.80558 0 0 3.80558 0 8.5V9.5C0 14.1944 3.80558 18 8.5 18H9C10.1046 18 11 17.1046 11 16V12.5C11 11.6716 11.6716 11 12.5 11H16C17.1046 11 18 10.1046 18 9V8.5C18 3.80558 14.1944 0 9.5 0H8.5ZM9 5C9.55228 5 10 4.55228 10 4C10 3.44772 9.55228 3 9 3C8.44772 3 8 3.44772 8 4C8 4.55228 8.44772 5 9 5ZM5.5 6.5C6.05228 6.5 6.5 6.05228 6.5 5.5C6.5 4.94772 6.05228 4.5 5.5 4.5C4.94772 4.5 4.5 4.94772 4.5 5.5C4.5 6.05228 4.94772 6.5 5.5 6.5ZM4 10C4.55228 10 5 9.55228 5 9C5 8.44772 4.55228 8 4 8C3.44772 8 3 8.44772 3 9C3 9.55228 3.44772 10 4 10ZM6.5 12.5C6.5 13.0523 6.05228 13.5 5.5 13.5C4.94772 13.5 4.5 13.0523 4.5 12.5C4.5 11.9477 4.94772 11.5 5.5 11.5C6.05228 11.5 6.5 11.9477 6.5 12.5ZM13.5 5.5C13.5 6.05228 13.0523 6.5 12.5 6.5C11.9477 6.5 11.5 6.05228 11.5 5.5C11.5 4.94772 11.9477 4.5 12.5 4.5C13.0523 4.5 13.5 4.94772 13.5 5.5Z" fill="#364141"/>
</svg>
