<svg width="16" height="16" viewBox="0 0 16 16" fill="none" xmlns="http://www.w3.org/2000/svg">
<path d="M9 8.00012C9 8.55241 8.55229 9.00012 8 9.00012C7.44772 9.00012 7 8.55241 7 8.00012C7 7.44784 7.44772 7.00012 8 7.00012C8.55229 7.00012 9 7.44784 9 8.00012Z" fill="#364141"/>
<path fill-rule="evenodd" clip-rule="evenodd" d="M2.19511 8.0001C0.235823 10.9563 -0.362965 13.7793 0.92892 15.0712C2.22081 16.363 5.04373 15.7643 7.99998 13.805C10.9562 15.7643 13.7791 16.363 15.071 15.0712C16.3629 13.7793 15.7641 10.9563 13.8048 8.0001C15.7641 5.04385 16.3629 2.22091 15.0711 0.929019C13.7792 -0.362871 10.9562 0.235925 7.99998 2.19523C5.04373 0.235925 2.22079 -0.362871 0.928897 0.929019C-0.362993 2.22091 0.235804 5.04385 2.19511 8.0001ZM9.30386 12.8576C9.99568 13.2811 10.6634 13.613 11.2819 13.8476C13.0411 14.5149 13.809 14.2118 14.0104 14.0105C14.2117 13.8092 14.5147 13.0412 13.8475 11.2821C13.6129 10.6635 13.281 9.9958 12.8575 9.30399C12.3559 9.93783 11.7956 10.5684 11.182 11.1821C10.5683 11.7957 9.93771 12.356 9.30386 12.8576ZM7.99998 11.969C8.70689 11.4382 9.42222 10.8205 10.1213 10.1214C10.8204 9.42232 11.4381 8.70701 11.9689 8.0001C11.4381 7.29318 10.8204 6.57786 10.1213 5.87877C9.4222 5.17968 8.70689 4.56198 7.99998 4.03118C7.29307 4.56198 6.57775 5.17968 5.87867 5.87877C5.17957 6.57786 4.56186 7.29318 4.03106 8.0001C4.56186 8.70701 5.17956 9.42232 5.87864 10.1214C6.57774 10.8205 7.29306 11.4382 7.99998 11.969ZM3.14249 9.30399C3.6441 9.93783 4.20433 10.5684 4.81798 11.1821C5.43165 11.7957 6.06224 12.356 6.69609 12.8576C6.00428 13.2811 5.33653 13.613 4.71801 13.8476C2.95884 14.5149 2.1909 14.2118 1.98958 14.0105C1.78826 13.8092 1.48521 13.0412 2.15248 11.2821C2.38709 10.6635 2.71898 9.9958 3.14249 9.30399ZM3.14249 6.69622C3.64411 6.06236 4.20434 5.43178 4.81801 4.81811C5.43167 4.20445 6.06225 3.64422 6.6961 3.14261C6.00427 2.71909 5.33651 2.3872 4.71798 2.15258C2.95882 1.48531 2.19088 1.78836 1.98956 1.98968C1.78823 2.191 1.48519 2.95894 2.15246 4.71811C2.38708 5.33663 2.71896 6.00439 3.14249 6.69622ZM9.30386 3.14261C9.99568 2.71909 10.6634 2.3872 11.282 2.15258C13.0411 1.48531 13.8091 1.78836 14.0104 1.98968C14.2117 2.191 14.5148 2.95894 13.8475 4.71811C13.6129 5.33663 13.281 6.00439 12.8575 6.69622C12.3558 6.06236 11.7956 5.43178 11.1819 4.81811C10.5683 4.20445 9.93771 3.64422 9.30386 3.14261Z" fill="#364141"/>
</svg>
