<svg width="18" height="18" viewBox="0 0 18 18" fill="none" xmlns="http://www.w3.org/2000/svg">
<path d="M9 16.7928V1.20706C9 0.761604 8.46143 0.538521 8.14645 0.853504L3.5 5.49995H1.5C0.671573 5.49995 0 6.17152 0 6.99995V10.9999C0 11.8284 0.671573 12.4999 1.5 12.4999H3.5L8.14645 17.1464C8.46143 17.4614 9 17.2383 9 16.7928Z" fill="#364141"/>
<path d="M12.182 12.1818C12.9963 11.3674 13.5 10.2425 13.5 8.99986C13.5 7.75719 12.9963 6.63216 12.1819 5.81782L10.7677 7.23203C11.2202 7.68445 11.5 8.30947 11.5 8.99986C11.5 9.69018 11.2202 10.3152 10.7678 10.7676L12.182 12.1818Z" fill="#364141"/>
<path d="M15.3639 15.3639L13.9497 13.9496C15.2165 12.6829 16 10.9329 16 8.99985C16 7.06688 15.2165 5.3169 13.9498 4.05015L15.364 2.63594C16.9927 4.26461 18 6.51459 18 8.99985C18 11.4852 16.9926 13.7352 15.3639 15.3639Z" fill="#364141"/>
</svg>
