<svg width="18" height="18" viewBox="0 0 18 18" fill="none" xmlns="http://www.w3.org/2000/svg">
<path fill-rule="evenodd" clip-rule="evenodd" d="M3.5 5.49995H1.5C0.671573 5.49995 0 6.17152 0 6.99995V10.9999C0 11.8284 0.671573 12.4999 1.5 12.4999H3.5L8.14645 17.1464C8.46143 17.4614 9 17.2383 9 16.7928V1.20706C9 0.761604 8.46143 0.538521 8.14645 0.853504L3.5 5.49995ZM4.12132 10.9999L7.5 14.3786V3.62127L4.12132 6.99995H1.5L1.5 10.9999H4.12132Z" fill="#364141"/>
<path d="M12.182 12.1818C12.9963 11.3674 13.5 10.2425 13.5 8.99986C13.5 7.75719 12.9963 6.63216 12.1819 5.81782L11.1213 6.87848C11.6642 7.42138 12 8.1714 12 8.99986C12 9.82825 11.6642 10.5782 11.1214 11.1211L12.182 12.1818Z" fill="#364141"/>
<path d="M15.3639 15.3639L14.3033 14.3032C15.6605 12.946 16.5 11.0709 16.5 8.99985C16.5 6.92881 15.6606 5.05383 14.3033 3.6966L15.364 2.63594C16.9927 4.26461 18 6.51459 18 8.99985C18 11.4852 16.9926 13.7352 15.3639 15.3639Z" fill="#364141"/>
</svg>
