<svg width="18" height="16" viewBox="0 0 18 16" fill="none" xmlns="http://www.w3.org/2000/svg">
<path fill-rule="evenodd" clip-rule="evenodd" d="M0 1.5C0 0.671573 0.671573 0 1.5 0H16.5C17.3284 0 18 0.671573 18 1.5V5.5C18 6.32843 17.3284 7 16.5 7H1.5C0.671573 7 0 6.32843 0 5.5V1.5ZM1.5 1.5H16.5V5.5H1.5L1.5 1.5Z" fill="#364141"/>
<path fill-rule="evenodd" clip-rule="evenodd" d="M0 10.5C0 9.67157 0.671573 9 1.5 9H16.5C17.3284 9 18 9.67157 18 10.5V14.5C18 15.3284 17.3284 16 16.5 16H1.5C0.671573 16 0 15.3284 0 14.5V10.5ZM1.5 10.5H16.5V14.5H1.5L1.5 10.5Z" fill="#364141"/>
</svg>
