<svg width="20" height="20" viewBox="0 0 20 20" fill="none" xmlns="http://www.w3.org/2000/svg">
<path fill-rule="evenodd" clip-rule="evenodd" d="M14.5 17.7943C12.7063 18.8299 10.7042 19.1779 8.79913 18.92C8.2937 18.8516 7.79508 18.7406 7.309 18.5884C5.23036 17.9377 3.38073 16.5351 2.20581 14.5C-0.279472 10.1954 1.1954 4.69109 5.50004 2.20581C9.80467 -0.279472 15.309 1.1954 17.7943 5.50004C18.9692 7.53505 19.259 9.83818 18.7833 11.9637C18.672 12.4607 18.5189 12.9481 18.3255 13.42C17.5962 15.1988 16.2938 16.7586 14.5 17.7943ZM13.082 16.8382L9.72552 11.0246L8.61631 11.665C9.49636 13.5281 9.68162 15.5666 9.25698 17.4637C10.5325 17.5918 11.8508 17.3949 13.082 16.8382ZM7.86631 10.3659L8.97552 9.72552L5.61903 3.91192C4.52131 4.69985 3.69162 5.74309 3.16478 6.91172C5.02001 7.4925 6.69282 8.67221 7.86631 10.3659ZM6.56188 11.119L3.16192 13.082C2.46957 11.5508 2.33371 9.88482 2.68736 8.33412C4.20714 8.80319 5.58196 9.75383 6.56188 11.119ZM3.91192 14.381L7.31188 12.4181C8.00422 13.9493 8.14008 15.6153 7.78643 17.166C6.26666 16.6969 4.89184 15.7463 3.91192 14.381ZM16.8353 13.0884C16.3085 14.257 15.4788 15.3002 14.381 16.0882L11.0246 10.2746L12.1338 9.63415C13.3073 11.3279 14.9801 12.5076 16.8353 13.0884ZM13.4382 8.88104C14.4181 10.2462 15.7929 11.1969 17.3127 11.666C17.6664 10.1153 17.5305 8.44931 16.8382 6.91807L13.4382 8.88104ZM16.0882 5.61903L12.6882 7.582C11.9959 6.05076 11.86 4.38482 12.2136 2.83412C13.7334 3.3032 15.1082 4.25383 16.0882 5.61903ZM11.3838 8.33512C10.5037 6.47198 10.3185 4.43344 10.7431 2.53637C9.46763 2.40831 8.1493 2.60522 6.91807 3.16192L10.2746 8.97552L11.3838 8.33512Z" fill="#364141"/>
</svg>
