<svg width="18" height="18" viewBox="0 0 18 18" fill="none" xmlns="http://www.w3.org/2000/svg">
<path fill-rule="evenodd" clip-rule="evenodd" d="M9.75004 1.29847C12.5713 1.66598 14.75 4.07855 14.75 7V13.6892L17.0304 15.9696L15.9697 17.0302L0.969727 2.03022L2.03039 0.969557L4.49162 3.43079C5.39833 2.28703 6.73106 1.49634 8.25004 1.29847V0H9.75004V1.29847ZM5.56193 4.50111C6.33463 3.43981 7.58678 2.75 9.00004 2.75C11.3473 2.75 13.25 4.65279 13.25 7V12.1892L5.56193 4.50111Z" fill="#364141"/>
<path d="M10.6894 13.75L12.1894 15.25H1.00004V13.75C2.24268 13.75 3.25004 12.7426 3.25004 11.5V7C3.25004 6.77931 3.26248 6.56152 3.28668 6.3473L4.75004 7.81066V11.5C4.75004 12.3442 4.47108 13.1233 4.00032 13.75H10.6894Z" fill="#364141"/>
<path d="M11 16.5C11 17.3284 10.3285 18 9.50004 18H8.50004C7.67162 18 7.00004 17.3284 7.00004 16.5H11Z" fill="#364141"/>
</svg>
