<svg width="16" height="18" viewBox="0 0 16 18" fill="none" xmlns="http://www.w3.org/2000/svg">
<path fill-rule="evenodd" clip-rule="evenodd" d="M8.75 1.29847C11.5713 1.66598 13.75 4.07855 13.75 7V11.5C13.75 12.7426 14.7574 13.75 16 13.75V15.25H0V13.75C1.24264 13.75 2.25 12.7426 2.25 11.5V7C2.25 4.07855 4.42873 1.66598 7.25 1.29847V0H8.75V1.29847ZM8 2.75C5.65279 2.75 3.75 4.65279 3.75 7V11.5C3.75 12.3442 3.47104 13.1233 3.00027 13.75H12.9997C12.529 13.1233 12.25 12.3442 12.25 11.5V7C12.25 4.65279 10.3472 2.75 8 2.75Z" fill="#364141"/>
<path d="M10 16.5C10 17.3284 9.32843 18 8.5 18H7.5C6.67157 18 6 17.3284 6 16.5H10Z" fill="#364141"/>
</svg>
