<svg width="13" height="16" viewBox="0 0 13 16" fill="none" xmlns="http://www.w3.org/2000/svg">
<path fill-rule="evenodd" clip-rule="evenodd" d="M0.75 0H7.375C9.79125 0 11.75 1.95875 11.75 4.375C11.75 5.7807 11.087 7.03156 10.0567 7.83198C11.3676 8.58761 12.25 10.0033 12.25 11.625C12.25 14.0412 10.2912 16 7.875 16H0.75V0ZM7.375 7.25C8.96282 7.25 10.25 5.96282 10.25 4.375C10.25 2.78718 8.96282 1.5 7.375 1.5H2.25V7.25H7.375ZM2.25 8.75H7.875C9.46282 8.75 10.75 10.0372 10.75 11.625C10.75 13.2128 9.46282 14.5 7.875 14.5H2.25V8.75Z" fill="#364141"/>
</svg>
