<svg width="13" height="18" viewBox="0 0 13 18" fill="none" xmlns="http://www.w3.org/2000/svg">
<path fill-rule="evenodd" clip-rule="evenodd" d="M0.5 0.75H7.375C9.92932 0.75 12 2.82068 12 5.375C12 6.7343 11.4136 7.95664 10.48 8.80285C11.6995 9.63562 12.5 11.0368 12.5 12.625C12.5 15.1793 10.4293 17.25 7.875 17.25H0.5V0.75ZM7.375 8C8.82475 8 10 6.82475 10 5.375C10 3.92525 8.82475 2.75 7.375 2.75H2.5V8H7.375ZM2.5 10H7.875C9.32475 10 10.5 11.1753 10.5 12.625C10.5 14.0747 9.32475 15.25 7.875 15.25H2.5V10Z" fill="#364141"/>
</svg>
