<svg width="18" height="17" viewBox="0 0 18 17" fill="none" xmlns="http://www.w3.org/2000/svg">
<path d="M3 11.6397V1.19374C3 0.852464 3.33435 0.611479 3.65811 0.719401L8.25 2.25003V13.75L3.34189 12.114C3.13772 12.0459 3 11.8549 3 11.6397Z" fill="#364141"/>
<path d="M9.75 13.75V2.25003L14.3419 0.719401C14.6657 0.611479 15 0.852464 15 1.19374V11.6397C15 11.8549 14.8623 12.0459 14.6581 12.114L9.75 13.75Z" fill="#364141"/>
<path d="M0 4.50006V13.2793C0 13.7097 0.27543 14.0919 0.683772 14.228L8.68377 16.8947C8.88904 16.9631 9.11096 16.9631 9.31623 16.8946L17.3162 14.228C17.7246 14.0919 18 13.7097 18 13.2793V4.50006C18 3.67163 17.3284 3.00006 16.5 3.00006V13.0001L9 15.5001L1.5 13.0001V3.00006C0.671573 3.00006 0 3.67163 0 4.50006Z" fill="#364141"/>
</svg>
