<svg width="18" height="17" viewBox="0 0 18 17" fill="none" xmlns="http://www.w3.org/2000/svg">
<path fill-rule="evenodd" clip-rule="evenodd" d="M3 1.5C3 0.671573 3.67157 0 4.5 0H16.5C17.3284 0 18 0.671573 18 1.5V12.5C18 13.3284 17.3284 14 16.5 14H4.5C3.67157 14 3 13.3284 3 12.5V1.5ZM4.5 1.5H7.25V4.25H4.5V1.5ZM8.75 4.25V1.5H16.5V4.25H8.75ZM4.5 5.75H16.5V12.5H4.5V5.75Z" fill="#364141"/>
<path d="M1.5 3V14C1.5 14.8284 2.17157 15.5 3 15.5H14C14 16.3284 13.3284 17 12.5 17H2C0.89543 17 0 16.1046 0 15V4.5C0 3.67157 0.671573 3 1.5 3Z" fill="#364141"/>
</svg>
