<svg width="18" height="18" viewBox="0 0 18 18" fill="none" xmlns="http://www.w3.org/2000/svg">
<path d="M15.9811 9.51888C15.7155 13.1425 12.6914 15.9999 9 15.9999C5.13401 15.9999 2 12.8659 2 8.99994C2 5.30849 4.8574 2.28443 8.48106 2.01888L10.3929 0.107069C9.93891 0.0365401 9.47373 -6.10352e-05 9 -6.10352e-05C4.02944 -6.10352e-05 0 4.02938 0 8.99994C0 13.9705 4.02944 17.9999 9 17.9999C13.9706 17.9999 18 13.9705 18 8.99994C18 8.52621 17.9634 8.06103 17.8929 7.60707L15.9811 9.51888Z" fill="#364141"/>
<path d="M13.279 0.220982L10.5858 2.91415C10.2107 3.28923 10 3.79793 10 4.32837V6.58573L8.29289 8.29283C7.90237 8.68336 7.90237 9.31652 8.29289 9.70705C8.68342 10.0976 9.31658 10.0976 9.70711 9.70705L11.4142 7.99994H13.8572C14.4071 7.99994 14.9328 7.77349 15.3106 7.37385L17.8215 4.71769C18.1307 4.39063 17.9831 3.85224 17.5503 3.7286L15 2.99994L14.2801 0.480414C14.1545 0.0405259 13.6025 -0.102513 13.279 0.220982Z" fill="#364141"/>
<path d="M4 8.99993C4 6.58097 5.71776 4.56322 8 4.09995V6.17063C6.83481 6.58247 6 7.69371 6 8.99993C6 10.6568 7.34315 11.9999 9 11.9999C10.3062 11.9999 11.4175 11.1651 11.8293 9.99993H13.9C13.4367 12.2822 11.419 13.9999 9 13.9999C6.23858 13.9999 4 11.7614 4 8.99993Z" fill="#364141"/>
</svg>
