<svg width="17" height="18" viewBox="0 0 17 18" fill="none" xmlns="http://www.w3.org/2000/svg">
<path d="M12.9697 10.9697L11.1893 12.75H10V14.25H11.8107L14.0303 12.0303L12.9697 10.9697Z" fill="#364141"/>
<path fill-rule="evenodd" clip-rule="evenodd" d="M4.75 2H10.25V0H11.75V2H13.5C14.3284 2 15 2.67157 15 3.5V8.99963C16.2144 9.91184 17 11.3642 17 13C17 15.7614 14.7614 18 12 18C10.3642 18 8.91184 17.2144 7.99963 16H1.5C0.671573 16 0 15.3284 0 14.5V3.5C0 2.67157 0.671573 2 1.5 2H3.25V0H4.75V2ZM13.5 6.75V8.2289C13.0265 8.08018 12.5226 8 12 8C9.23858 8 7 10.2386 7 13C7 13.5226 7.08018 14.0265 7.2289 14.5H1.5V6.75H13.5ZM1.5 5.25H13.5V3.5H1.5V5.25ZM12 16.5C13.933 16.5 15.5 14.933 15.5 13C15.5 11.067 13.933 9.5 12 9.5C10.067 9.5 8.5 11.067 8.5 13C8.5 14.933 10.067 16.5 12 16.5Z" fill="#364141"/>
</svg>
