<svg width="16" height="17" viewBox="0 0 16 17" fill="none" xmlns="http://www.w3.org/2000/svg">
<path fill-rule="evenodd" clip-rule="evenodd" d="M4.75 2H11.25V0H12.75V2H14.5C15.3284 2 16 2.67157 16 3.5V15.5C16 16.3284 15.3284 17 14.5 17H1.5C0.671573 17 0 16.3284 0 15.5V3.5C0 2.67157 0.671573 2 1.5 2H3.25V0H4.75V2ZM2 4V6H14V4H2ZM2 8.75001V10.25H4.5V8.75001H2ZM9.25 10.25H6.75V8.75001H9.25V10.25ZM14 8.75001V10.25H11.5V8.75001H14ZM9.25 14H6.75V12.5H9.25V14ZM11.5 12.5V14H14V12.5H11.5ZM4.5 14H2V12.5H4.5V14Z" fill="#364141"/>
</svg>
