<svg width="18" height="16" viewBox="0 0 18 16" fill="none" xmlns="http://www.w3.org/2000/svg">
<path fill-rule="evenodd" clip-rule="evenodd" d="M1.5 3C0.671573 3 0 3.67157 0 4.5V14.5C0 15.3284 0.671573 16 1.5 16H16.5C17.3284 16 18 15.3284 18 14.5V4.5C18 3.67157 17.3284 3 16.5 3H14.75C14.5926 3 14.4444 2.9259 14.35 2.8L12.85 0.8C12.4723 0.296388 11.8795 0 11.25 0H6.93675C6.34319 0 5.7803 0.263645 5.40031 0.719631L3.64992 2.82009C3.55493 2.93409 3.4142 3 3.26581 3H1.5ZM5.96967 6.53033L7.93934 8.5L5.96967 10.4697L7.03033 11.5303L9 9.56066L10.9697 11.5303L12.0303 10.4697L10.0607 8.5L12.0303 6.53033L10.9697 5.46967L9 7.43934L7.03033 5.46967L5.96967 6.53033Z" fill="#364141"/>
</svg>
