<svg width="18" height="16" viewBox="0 0 18 16" fill="none" xmlns="http://www.w3.org/2000/svg">
<path d="M11.5 8.5C11.5 9.88071 10.3807 11 9 11C7.61929 11 6.5 9.88071 6.5 8.5C6.5 7.11929 7.61929 6 9 6C10.3807 6 11.5 7.11929 11.5 8.5Z" fill="#364141"/>
<path fill-rule="evenodd" clip-rule="evenodd" d="M1.5 3C0.671573 3 0 3.67157 0 4.5V14.5C0 15.3284 0.671573 16 1.5 16H16.5C17.3284 16 18 15.3284 18 14.5V4.5C18 3.67157 17.3284 3 16.5 3H14.75C14.5926 3 14.4444 2.9259 14.35 2.8L12.85 0.8C12.4723 0.296388 11.8795 0 11.25 0H6.93675C6.34319 0 5.7803 0.263645 5.40031 0.719631L3.64992 2.82009C3.55493 2.93409 3.4142 3 3.26581 3H1.5ZM13 8.5C13 10.7091 11.2091 12.5 9 12.5C6.79086 12.5 5 10.7091 5 8.5C5 6.29086 6.79086 4.5 9 4.5C11.2091 4.5 13 6.29086 13 8.5Z" fill="#364141"/>
</svg>
