<svg width="18" height="16" viewBox="0 0 18 16" fill="none" xmlns="http://www.w3.org/2000/svg">
<path fill-rule="evenodd" clip-rule="evenodd" d="M13 8.5C13 10.7091 11.2091 12.5 9 12.5C6.79086 12.5 5 10.7091 5 8.5C5 6.29086 6.79086 4.5 9 4.5C11.2091 4.5 13 6.29086 13 8.5ZM11.5 8.5C11.5 9.88071 10.3807 11 9 11C7.61929 11 6.5 9.88071 6.5 8.5C6.5 7.11929 7.61929 6 9 6C10.3807 6 11.5 7.11929 11.5 8.5Z" fill="#364141"/>
<path fill-rule="evenodd" clip-rule="evenodd" d="M0 4.5C0 3.67157 0.671573 3 1.5 3H3.26581C3.4142 3 3.55493 2.93409 3.64992 2.82009L5.40031 0.719631C5.7803 0.263645 6.34319 0 6.93675 0H11.25C11.8795 0 12.4723 0.296388 12.85 0.8L14.35 2.8C14.4444 2.9259 14.5926 3 14.75 3H16.5C17.3284 3 18 3.67157 18 4.5V14.5C18 15.3284 17.3284 16 16.5 16H1.5C0.671573 16 0 15.3284 0 14.5V4.5ZM16.5 4.5V14.5H1.5L1.5 4.5L3.26581 4.5C3.85937 4.5 4.42227 4.23635 4.80226 3.78037L6.55264 1.67991C6.64764 1.56591 6.78836 1.5 6.93675 1.5H11.25C11.4074 1.5 11.5556 1.5741 11.65 1.7L13.15 3.7C13.5277 4.20361 14.1205 4.5 14.75 4.5H16.5Z" fill="#364141"/>
</svg>
