<svg width="18" height="16" viewBox="0 0 18 16" fill="none" xmlns="http://www.w3.org/2000/svg">
<path fill-rule="evenodd" clip-rule="evenodd" d="M1.5 3C0.671573 3 0 3.67157 0 4.5V14.5C0 15.3284 0.671573 16 1.5 16H16.5C17.3284 16 18 15.3284 18 14.5V4.5C18 3.67157 17.3284 3 16.5 3H14.75C14.5926 3 14.4444 2.9259 14.35 2.8L12.85 0.8C12.4723 0.296388 11.8795 0 11.25 0H6.93675C6.34319 0 5.7803 0.263645 5.40031 0.719631L3.64992 2.82009C3.55493 2.93409 3.4142 3 3.26581 3H1.5ZM9 6C9.36125 6 9.7182 6.07829 10.0463 6.22948C10.3744 6.38066 10.6658 6.60116 10.9005 6.87578C11.1352 7.1504 11.3076 7.47262 11.4058 7.82026C11.504 8.1679 11.5258 8.53269 11.4695 8.88953C11.4132 9.24636 11.2802 9.58676 11.0798 9.88729C10.8793 10.1878 10.6161 10.4413 10.3083 10.6304C10.0004 10.8194 9.65528 10.9395 9.29659 10.9823C8.93799 11.0252 8.57437 10.9898 8.23075 10.8787L7.76873 12.3058C8.25844 12.4642 8.77355 12.5265 9.28576 12.4898C9.34874 12.4853 9.41169 12.4793 9.47454 12.4718C10.0485 12.4032 10.6007 12.211 11.0932 11.9086C11.5858 11.6061 12.0069 11.2005 12.3276 10.7197C12.6484 10.2388 12.8611 9.69418 12.9511 9.12324C13.0412 8.55231 13.0065 7.96864 12.8493 7.41242C12.6922 6.8562 12.4163 6.34064 12.0408 5.90125C11.6653 5.46185 11.199 5.10906 10.6741 4.86716C10.6166 4.84067 10.5585 4.81558 10.5 4.7919C10.024 4.59933 9.5147 4.5 9 4.5V6ZM6.62134 9.2694C6.7431 9.64584 6.95247 9.98801 7.23223 10.2678L6.17157 11.3284C5.8074 10.9642 5.51752 10.5336 5.31732 10.0614C5.27152 9.95335 5.23041 9.84314 5.19414 9.73104C5.15788 9.61894 5.12667 9.50553 5.10053 9.39116C4.98628 8.89122 4.96899 8.37286 5.05082 7.86439L6.53182 8.10239C6.46899 8.49286 6.49962 8.8931 6.62134 9.2694ZM6.92776 7.1015C7.16364 6.75197 7.48411 6.46779 7.85933 6.27539L7.86024 6.27493L7.17639 4.93988C7.0343 5.01266 6.89712 5.09367 6.76547 5.18234C6.47193 5.38004 6.20592 5.61584 5.97442 5.88353C5.8706 6.00359 5.77372 6.13007 5.68441 6.2624L6.92776 7.1015Z" fill="#364141"/>
</svg>
