<svg width="18" height="14" viewBox="0 0 18 14" fill="none" xmlns="http://www.w3.org/2000/svg">
<path fill-rule="evenodd" clip-rule="evenodd" d="M4.5 0C3.67157 0 3 0.671573 3 1.5V12.5C3 13.3284 3.67157 14 4.5 14H13.5C14.3284 14 15 13.3284 15 12.5V1.5C15 0.671573 14.3284 0 13.5 0H4.5ZM13.5 1.5H4.5V12.5H13.5V1.5Z" fill="#364141"/>
<path d="M16.5 10.9982C17.3283 10.9982 18 10.3267 18 9.4982V4.5C18 3.67157 17.3284 3 16.5 3V10.9982Z" fill="#364141"/>
<path d="M0 4.50002C0 3.70519 0.618197 3.05475 1.4 3.0033V10.9949C0.61809 10.9435 0 10.2929 0 9.49821V4.50002Z" fill="#364141"/>
</svg>
