<svg width="16" height="16" viewBox="0 0 16 16" fill="none" xmlns="http://www.w3.org/2000/svg">
<path fill-rule="evenodd" clip-rule="evenodd" d="M0 1.5H1.65421C2.03705 1.5 2.35845 1.78835 2.39982 2.16896L3.41471 11.5059C3.36032 11.502 3.30539 11.5 3.25 11.5C2.00736 11.5 1 12.5074 1 13.75C1 14.9926 2.00736 16 3.25 16C4.49264 16 5.5 14.9926 5.5 13.75C5.5 13.487 5.45488 13.2346 5.37197 13H10.128C10.0451 13.2346 10 13.487 10 13.75C10 14.9926 11.0074 16 12.25 16C13.4926 16 14.5 14.9926 14.5 13.75C14.5 12.5074 13.4926 11.5 12.25 11.5H4.9229L4.73268 9.75H12.0893C13.1145 9.75 14.01 9.05702 14.2673 8.06466L15.6449 2.75096C15.8091 2.11773 15.3311 1.5 14.6769 1.5H3.7759C3.46483 0.618577 2.62543 0 1.65421 0H0V1.5ZM3.99898 3L4.56963 8.25H12.0893C12.431 8.25 12.7295 8.01901 12.8153 7.68822L14.0308 3H3.99898ZM11.5 13.75C11.5 13.3358 11.8358 13 12.25 13C12.6642 13 13 13.3358 13 13.75C13 14.1642 12.6642 14.5 12.25 14.5C11.8358 14.5 11.5 14.1642 11.5 13.75ZM4 13.75C4 14.1642 3.66421 14.5 3.25 14.5C2.83579 14.5 2.5 14.1642 2.5 13.75C2.5 13.3358 2.83579 13 3.25 13C3.66421 13 4 13.3358 4 13.75Z" fill="#364141"/>
</svg>
