<svg width="17" height="17" viewBox="0 0 17 17" fill="none" xmlns="http://www.w3.org/2000/svg">
<path d="M13 0V2.5H10.5V4H13V6.5H14.5V4H17V2.5H14.5V0H13Z" fill="#364141"/>
<path fill-rule="evenodd" clip-rule="evenodd" d="M0 2.5H1.65421C2.03705 2.5 2.35845 2.78835 2.39982 3.16896L3.41471 12.5059C3.36032 12.502 3.30539 12.5 3.25 12.5C2.00736 12.5 1 13.5074 1 14.75C1 15.9926 2.00736 17 3.25 17C4.49264 17 5.5 15.9926 5.5 14.75C5.5 14.487 5.45488 14.2346 5.37197 14H10.128C10.0451 14.2346 10 14.487 10 14.75C10 15.9926 11.0074 17 12.25 17C13.4926 17 14.5 15.9926 14.5 14.75C14.5 13.5074 13.4926 12.5 12.25 12.5H4.9229L4.73268 10.75H11.9793C13.0792 10.75 14.0179 9.95482 14.1987 8.8699L14.2398 8.6233L12.7602 8.3767L12.7191 8.6233C12.6588 8.98494 12.3459 9.25 11.9793 9.25H4.56963L3.99898 4H8.5V2.5H3.7759C3.46483 1.61858 2.62543 1 1.65421 1H0V2.5ZM11.5 14.75C11.5 14.3358 11.8358 14 12.25 14C12.6642 14 13 14.3358 13 14.75C13 15.1642 12.6642 15.5 12.25 15.5C11.8358 15.5 11.5 15.1642 11.5 14.75ZM4 14.75C4 15.1642 3.66421 15.5 3.25 15.5C2.83579 15.5 2.5 15.1642 2.5 14.75C2.5 14.3358 2.83579 14 3.25 14C3.66421 14 4 14.3358 4 14.75Z" fill="#364141"/>
</svg>
