<svg width="17" height="17" viewBox="0 0 17 17" fill="none" xmlns="http://www.w3.org/2000/svg">
<path d="M13 0V2.5H10.5V4H13V6.5H14.5V4H17V2.5H14.5V0H13Z" fill="#364141"/>
<path d="M1.65111 2.75H0V0.75H1.65111C2.76082 0.75 3.71533 1.47672 4.03632 2.5H8V3C8 6.31371 10.6863 9 14 9H14.1011C13.8934 9.58878 13.333 10 12.6867 10H4.8833L5.14926 12.5H12.25C13.4926 12.5 14.5 13.5074 14.5 14.75C14.5 15.9926 13.4926 17 12.25 17C11.0074 17 10 15.9926 10 14.75C10 14.6655 10.0047 14.5821 10.0137 14.5H5.48627C5.49534 14.5821 5.5 14.6655 5.5 14.75C5.5 15.9926 4.49264 17 3.25 17C2.00736 17 1 15.9926 1 14.75C1 13.5448 1.94753 12.561 3.13826 12.5027L2.1483 3.19711C2.12126 2.94287 1.90678 2.75 1.65111 2.75Z" fill="#364141"/>
</svg>
