<svg width="18" height="18" viewBox="0 0 18 18" fill="none" xmlns="http://www.w3.org/2000/svg">
<path fill-rule="evenodd" clip-rule="evenodd" d="M3.99987 1.51677C5.06011 0.808342 6.25379 0.33653 7.5 0.125875C7.99344 0.0424659 8.49511 0 9 0V5.985H8.99881C8.40291 5.98524 7.82044 6.16205 7.32496 6.49312C6.82915 6.82441 6.44271 7.29529 6.21451 7.84621C5.98631 8.39713 5.9266 9.00334 6.04294 9.5882C6.15927 10.173 6.44642 10.7103 6.86808 11.1319C7.28973 11.5536 7.82695 11.8407 8.41181 11.9571C8.99666 12.0734 9.60287 12.0137 10.1538 11.7855C10.7047 11.5573 11.1756 11.1709 11.5069 10.675C11.8382 10.1792 12.015 9.59631 12.015 9H18C18 9.50489 17.9575 10.0066 17.8741 10.5C17.6635 11.7462 17.1917 12.9399 16.4832 14.0001C15.4943 15.4802 14.0887 16.6337 12.4442 17.3149C10.7996 17.9961 8.99002 18.1743 7.24419 17.8271C5.49836 17.4798 3.89472 16.6226 2.63604 15.364C1.37737 14.1053 0.520203 12.5016 0.172937 10.7558C-0.17433 9.00998 0.00389957 7.20038 0.685088 5.55585C1.36628 3.91131 2.51983 2.50571 3.99987 1.51677ZM16.3485 10.5C16.155 11.448 15.7788 12.3544 15.236 13.1668C14.4119 14.4001 13.2406 15.3614 11.8701 15.9291C10.4997 16.4968 8.99168 16.6453 7.53683 16.3559C6.08197 16.0665 4.7456 15.3522 3.6967 14.3033C2.64781 13.2544 1.9335 11.918 1.64411 10.4632C1.35473 9.00832 1.50325 7.50032 2.07091 6.12987C2.63856 4.75943 3.59986 3.58809 4.83323 2.76398C5.64561 2.22116 6.55201 1.84504 7.5 1.65153V4.74145C7.14597 4.86615 6.80702 5.03516 6.4916 5.24591C5.74912 5.74203 5.17042 6.44718 4.82869 7.27218C4.48696 8.09719 4.39755 9.00501 4.57176 9.88083C4.74597 10.7567 5.17598 11.5612 5.80742 12.1926C6.43885 12.824 7.24335 13.254 8.11917 13.4282C8.995 13.6025 9.90281 13.513 10.7278 13.1713C11.5528 12.8296 12.258 12.2509 12.7541 11.5084C12.9648 11.193 13.1339 10.854 13.2586 10.5H16.3485Z" fill="#364141"/>
<path fill-rule="evenodd" clip-rule="evenodd" d="M12.3678 0.653885L10.1282 6.20405L10.1292 6.20444C10.8698 6.50358 11.4614 7.08435 11.7742 7.81924L11.7748 7.82074L17.283 5.47983C17.0851 5.01415 16.8497 4.56917 16.5805 4.14855C15.849 3.00555 14.868 2.04234 13.7118 1.33189C13.2863 1.07045 12.8371 0.84323 12.3678 0.653885ZM11.9846 5.61216C12.1067 5.7197 12.2228 5.83377 12.3326 5.95385L15.1764 4.74528C14.6321 3.95512 13.9409 3.27648 13.1409 2.74671L11.9846 5.61216Z" fill="#364141"/>
</svg>
