<svg width="18" height="18" viewBox="0 0 18 18" fill="none" xmlns="http://www.w3.org/2000/svg">
<path d="M16.4832 14.0001C17.4722 12.5201 18 10.78 18 9H13.0064C13.0064 9.79239 12.7714 10.567 12.3312 11.2258C11.891 11.8847 11.2653 12.3982 10.5332 12.7014C9.80111 13.0047 8.99556 13.084 8.2184 12.9294C7.44123 12.7748 6.72736 12.3932 6.16706 11.8329C5.60676 11.2726 5.22518 10.5588 5.0706 9.78161C4.91601 9.00444 4.99535 8.19889 5.29858 7.46682C5.60182 6.73475 6.11533 6.10904 6.77417 5.66881C7.43302 5.22858 8.20762 4.99361 9 4.99361V0C7.21997 0 5.47991 0.527841 3.99987 1.51677C2.51983 2.50571 1.36628 3.91131 0.685088 5.55585C0.00389957 7.20038 -0.17433 9.00998 0.172937 10.7558C0.520203 12.5016 1.37737 14.1053 2.63604 15.364C3.89472 16.6226 5.49836 17.4798 7.24419 17.8271C8.99002 18.1743 10.7996 17.9961 12.4442 17.3149C14.0887 16.6337 15.4943 15.4802 16.4832 14.0001Z" fill="#364141"/>
<path d="M17.283 5.47983C16.3494 3.28304 14.5814 1.54709 12.3678 0.653885L10.4987 5.28598C11.4837 5.68346 12.2705 6.45595 12.6859 7.43352L17.283 5.47983Z" fill="#364141"/>
</svg>
