<svg width="18" height="14" viewBox="0 0 18 14" fill="none" xmlns="http://www.w3.org/2000/svg">
<path fill-rule="evenodd" clip-rule="evenodd" d="M13 1.5C13 0.671573 13.6716 0 14.5 0H16.5C17.3284 0 18 0.671573 18 1.5V12.5C18 13.3284 17.3284 14 16.5 14H14.5C13.6716 14 13 13.3284 13 12.5V1.5ZM14.5 1.5H16.5V12.5H14.5V1.5Z" fill="#364141"/>
<path fill-rule="evenodd" clip-rule="evenodd" d="M8 3C7.17157 3 6.5 3.67157 6.5 4.5V12.5C6.5 13.3284 7.17157 14 8 14H10C10.8284 14 11.5 13.3284 11.5 12.5V4.5C11.5 3.67157 10.8284 3 10 3H8ZM10 4.5H8V12.5H10V4.5Z" fill="#364141"/>
<path fill-rule="evenodd" clip-rule="evenodd" d="M1.5 6C0.671573 6 0 6.67157 0 7.5V12.5C0 13.3284 0.671573 14 1.5 14H3.5C4.32843 14 5 13.3284 5 12.5V7.5C5 6.67157 4.32843 6 3.5 6H1.5ZM3.5 7.5H1.5V12.5H3.5V7.5Z" fill="#364141"/>
</svg>
