<svg width="22" height="18" viewBox="0 0 22 18" fill="none" xmlns="http://www.w3.org/2000/svg">
<path d="M13.0303 7.03033L11.9697 5.96967L7.5 10.4393L5.53033 8.46967L4.46967 9.53033L7.5 12.5607L13.0303 7.03033Z" fill="#364141"/>
<path fill-rule="evenodd" clip-rule="evenodd" d="M9 17.5C10.12 17.5 11.1895 17.2834 12.1687 16.8897C12.6017 16.9622 13.0464 17 13.5 17C17.9183 17 21.5 13.4183 21.5 9C21.5 4.58172 17.9183 1 13.5 1C13.0464 1 12.6017 1.03775 12.1687 1.11027C11.1895 0.716629 10.12 0.5 9 0.5C4.30558 0.5 0.5 4.30558 0.5 9C0.5 13.6944 4.30558 17.5 9 17.5ZM9 16C12.866 16 16 12.866 16 9C16 5.13401 12.866 2 9 2C5.13401 2 2 5.13401 2 9C2 12.866 5.13401 16 9 16ZM20 9C20 12.2212 17.6569 14.8951 14.5821 15.4103C16.3701 13.8521 17.5 11.558 17.5 9C17.5 6.44201 16.3701 4.14793 14.5821 2.58966C17.6569 3.10489 20 5.77881 20 9Z" fill="#364141"/>
</svg>
