<svg width="20" height="18" viewBox="0 0 20 18" fill="none" xmlns="http://www.w3.org/2000/svg">
<path d="M15 3.81077V8.00011H16.5V3.81077L18.2197 5.53044L19.2803 4.46978L15.75 0.939453L12.2197 4.46978L13.2803 5.53044L15 3.81077Z" fill="#364141"/>
<path fill-rule="evenodd" clip-rule="evenodd" d="M16.9928 9.85213C16.5944 9.94885 16.1782 10.0001 15.75 10.0001C12.8505 10.0001 10.5 7.64961 10.5 4.75011C10.5 3.55549 10.899 2.45407 11.571 1.57183C10.6185 1.20262 9.5829 1.00011 8.5 1.00011C3.80558 1.00011 0 4.80569 0 9.50011C0 14.1945 3.80558 18.0001 8.5 18.0001C13.0765 18.0001 16.8083 14.3833 16.9928 9.85213ZM7.25 4.50012V5.84315C6.12807 5.94813 5.25 6.89242 5.25 8.04179C5.25 9.26142 6.2387 10.2501 7.45833 10.2501H8.54167C8.93287 10.2501 9.25 10.5673 9.25 10.9585C9.25 11.3497 8.93287 11.6668 8.54167 11.6668H7.25C6.97386 11.6668 6.75 11.4429 6.75 11.1668H5.25C5.25 12.2714 6.14543 13.1668 7.25 13.1668V14.5001H8.75V13.1571C9.87193 13.0521 10.75 12.1078 10.75 10.9585C10.75 9.73883 9.7613 8.75012 8.54167 8.75012H7.45833C7.06713 8.75012 6.75 8.43299 6.75 8.04179C6.75 7.65059 7.06713 7.33346 7.45833 7.33346H8.33333C8.83959 7.33346 9.25 7.74386 9.25 8.25012H10.75C10.75 7.05752 9.88613 6.06669 8.75 5.86924V4.50012H7.25Z" fill="#364141"/>
</svg>
