<svg width="20" height="18" viewBox="0 0 20 18" fill="none" xmlns="http://www.w3.org/2000/svg">
<path d="M15 8.00011V3.81077L13.2803 5.53044L12.2197 4.46978L15.75 0.939453L19.2803 4.46978L18.2197 5.53044L16.5 3.81077V8.00011H15Z" fill="#364141"/>
<path d="M15.4291 10.5001C14.9439 13.8924 12.0265 16.5001 8.5 16.5001C4.63401 16.5001 1.5 13.3661 1.5 9.50011C1.5 5.63412 4.63401 2.50011 8.5 2.50011C9.25387 2.50011 9.97991 2.61928 10.6603 2.83982L11.825 1.67507C10.8037 1.24054 9.67994 1.00011 8.5 1.00011C3.80558 1.00011 0 4.80569 0 9.50011C0 14.1945 3.80558 18.0001 8.5 18.0001C12.8561 18.0001 16.4469 14.7233 16.9418 10.5001H15.4291Z" fill="#364141"/>
<path d="M7.75 5.56824V4.00011H9.25V5.60791C10.3958 5.87237 11.25 6.89898 11.25 8.12511H9.75C9.75 7.5268 9.26497 7.04178 8.66667 7.04178H8.10417C7.63242 7.04178 7.25 7.4242 7.25 7.89595C7.25 8.36769 7.63242 8.75011 8.10417 8.75011H8.89583C10.196 8.75011 11.25 9.80411 11.25 11.1043C11.25 12.2841 10.3821 13.2612 9.25 13.432V15.0001H7.75V13.4548C6.63458 13.3901 5.75 12.4651 5.75 11.3334H7.25C7.25 11.6786 7.52982 11.9584 7.875 11.9584H8.89583C9.36758 11.9584 9.75 11.576 9.75 11.1043C9.75 10.6325 9.36758 10.2501 8.89583 10.2501H8.10417C6.804 10.2501 5.75 9.19612 5.75 7.89595C5.75 6.71616 6.61786 5.73906 7.75 5.56824Z" fill="#364141"/>
</svg>
