<svg width="18" height="18" viewBox="0 0 18 18" fill="none" xmlns="http://www.w3.org/2000/svg">
<path fill-rule="evenodd" clip-rule="evenodd" d="M9 18C13.9706 18 18 13.9706 18 9C18 4.02944 13.9706 0 9 0C4.02944 0 0 4.02944 0 9C0 13.9706 4.02944 18 9 18ZM8.25 3V4.75C6.86929 4.75 5.75 5.86929 5.75 7.25C5.75 8.63071 6.86929 9.75 8.25 9.75H9.75C10.3023 9.75 10.75 10.1977 10.75 10.75C10.75 11.3023 10.3023 11.75 9.75 11.75H9H8C7.58579 11.75 7.25 11.4142 7.25 11H5.75C5.75 12.2426 6.75736 13.25 8 13.25H8.25V15H9.75V13.25C11.1307 13.25 12.25 12.1307 12.25 10.75C12.25 9.36929 11.1307 8.25 9.75 8.25H8.25C7.69772 8.25 7.25 7.80228 7.25 7.25C7.25 6.69772 7.69772 6.25 8.25 6.25H9H9.5C10.1904 6.25 10.75 6.80964 10.75 7.5H12.25C12.25 6.06549 11.1516 4.88752 9.75 4.76121V3H8.25Z" fill="#364141"/>
</svg>
