<svg width="18" height="18" viewBox="0 0 18 18" fill="none" xmlns="http://www.w3.org/2000/svg">
<path d="M10 5C10 5.55228 9.55229 6 9 6C8.44771 6 8 5.55228 8 5C8 4.44772 8.44771 4 9 4C9.55229 4 10 4.44772 10 5Z" fill="#364141"/>
<path d="M7 9.25H8.25V13.75H11V12.25H9.75V7.75H7V9.25Z" fill="#364141"/>
<path fill-rule="evenodd" clip-rule="evenodd" d="M9 18C13.9706 18 18 13.9706 18 9C18 4.02944 13.9706 0 9 0C4.02944 0 0 4.02944 0 9C0 13.9706 4.02944 18 9 18ZM9 16.5C13.1421 16.5 16.5 13.1421 16.5 9C16.5 4.85786 13.1421 1.5 9 1.5C4.85786 1.5 1.5 4.85786 1.5 9C1.5 13.1421 4.85786 16.5 9 16.5Z" fill="#364141"/>
</svg>
