<svg width="22" height="18" viewBox="0 0 22 18" fill="none" xmlns="http://www.w3.org/2000/svg">
<path fill-rule="evenodd" clip-rule="evenodd" d="M17.5 9C17.5 13.6944 13.6944 17.5 9 17.5C4.30558 17.5 0.5 13.6944 0.5 9C0.5 4.30558 4.30558 0.5 9 0.5C13.6944 0.5 17.5 4.30558 17.5 9ZM11.9697 5.96967L13.0303 7.03033L7.5 12.5607L4.46967 9.53033L5.53033 8.46967L7.5 10.4393L11.9697 5.96967Z" fill="#364141"/>
<path d="M19 9C19 12.159 17.5352 14.9759 15.2477 16.8085C18.8255 16.0113 21.5 12.818 21.5 9C21.5 5.18204 18.8255 1.98875 15.2477 1.19148C17.5352 3.02409 19 5.84098 19 9Z" fill="#364141"/>
</svg>
