<svg width="18" height="18" viewBox="0 0 18 18" fill="none" xmlns="http://www.w3.org/2000/svg">
<path d="M10 13C10 13.5523 9.55229 14 9 14C8.44771 14 8 13.5523 8 13C8 12.4477 8.44771 12 9 12C9.55229 12 10 12.4477 10 13Z" fill="#364141"/>
<path d="M8.5 3.75C6.98122 3.75 5.75 4.98122 5.75 6.5H7.25C7.25 5.80964 7.80964 5.25 8.5 5.25H9.5C10.1904 5.25 10.75 5.80964 10.75 6.5C10.75 7.19036 10.1904 7.75 9.5 7.75C8.80964 7.75 8.25 8.30964 8.25 9V10.5H9.75V9.23879C11.1516 9.11248 12.25 7.93451 12.25 6.5C12.25 4.98122 11.0188 3.75 9.5 3.75H8.5Z" fill="#364141"/>
<path fill-rule="evenodd" clip-rule="evenodd" d="M9 18C13.9706 18 18 13.9706 18 9C18 4.02944 13.9706 0 9 0C4.02944 0 0 4.02944 0 9C0 13.9706 4.02944 18 9 18ZM9 16.5C13.1421 16.5 16.5 13.1421 16.5 9C16.5 4.85786 13.1421 1.5 9 1.5C4.85786 1.5 1.5 4.85786 1.5 9C1.5 13.1421 4.85786 16.5 9 16.5Z" fill="#364141"/>
</svg>
