<svg width="20" height="20" viewBox="0 0 20 20" fill="none" xmlns="http://www.w3.org/2000/svg">
<path d="M10 2.75C7.47546 2.75 5.25069 4.0406 3.95208 6H6.45001V8H0.75V2H2.75V4.25518C4.44387 2.12025 7.06123 0.75 10 0.75C15.1086 0.75 19.25 4.89137 19.25 10C19.25 15.1086 15.1086 19.25 10 19.25C4.89137 19.25 0.75 15.1086 0.75 10H2.75C2.75 14.0041 5.99594 17.25 10 17.25C14.0041 17.25 17.25 14.0041 17.25 10C17.25 5.99594 14.0041 2.75 10 2.75Z" fill="#364141"/>
<path d="M9 5V10.4142L12.2929 13.7071L13.7071 12.2929L11 9.58579V5H9Z" fill="#364141"/>
</svg>
