<svg width="18" height="18" viewBox="0 0 18 18" fill="none" xmlns="http://www.w3.org/2000/svg">
<path d="M9 1.5C6.22486 1.5 3.8004 3.00747 2.50316 5.25H5.45001V6.75H0V1H1.5V4.02362C3.11192 1.59903 5.8686 0 9 0C13.9706 0 18 4.02944 18 9C18 13.9706 13.9706 18 9 18C4.02944 18 0 13.9706 0 9H1.5C1.5 13.1421 4.85786 16.5 9 16.5C13.1421 16.5 16.5 13.1421 16.5 9C16.5 4.85786 13.1421 1.5 9 1.5Z" fill="#364141"/>
<path d="M8.25 4V9.31066L11.4697 12.5303L12.5303 11.4697L9.75 8.68934V4H8.25Z" fill="#364141"/>
</svg>
