<svg width="18" height="14" viewBox="0 0 18 14" fill="none" xmlns="http://www.w3.org/2000/svg">
<path fill-rule="evenodd" clip-rule="evenodd" d="M1.5 0C0.671573 0 0 0.671573 0 1.5V12.5C0 13.3284 0.671573 14 1.5 14H16.5C17.3284 14 18 13.3284 18 12.5V1.5C18 0.671573 17.3284 0 16.5 0H1.5ZM8.65788 7.7111C8.59838 9.05056 7.61291 10 6.16633 10C4.51149 10 3.5 8.86146 3.5 7.00197V6.99409C3.5 5.1346 4.50778 4 6.16633 4C7.58316 4 8.6021 4.9652 8.65416 6.27315L8.65788 6.36376H7.14807L7.14435 6.32042C7.09601 5.76888 6.70926 5.3631 6.16633 5.3631C5.50811 5.3631 5.10649 5.97374 5.10649 6.99015V6.99803C5.10649 8.01838 5.50811 8.6369 6.17005 8.6369C6.70926 8.6369 7.0737 8.25082 7.14435 7.68746L7.15179 7.62837H8.6616L8.65788 7.7111ZM14.4963 7.7111C14.4368 9.05056 13.4513 10 12.0047 10C10.3499 10 9.3384 8.86146 9.3384 7.00197V6.99409C9.3384 5.1346 10.3462 4 12.0047 4C13.4216 4 14.4405 4.9652 14.4926 6.27315L14.4963 6.36376H12.9865L12.9828 6.32042C12.9344 5.76888 12.5477 5.3631 12.0047 5.3631C11.3465 5.3631 10.9449 5.97374 10.9449 6.99015V6.99803C10.9449 8.01838 11.3465 8.6369 12.0085 8.6369C12.5477 8.6369 12.9121 8.25082 12.9828 7.68746L12.9902 7.62837H14.5L14.4963 7.7111Z" fill="#364141"/>
</svg>
