<svg width="18" height="15" viewBox="0 0 18 15" fill="none" xmlns="http://www.w3.org/2000/svg">
<path fill-rule="evenodd" clip-rule="evenodd" d="M8 1.75C5.65279 1.75 3.75 3.65279 3.75 6V6.87095L3.32855 7.07633C2.24441 7.60463 1.5 8.71609 1.5 10C1.5 11.7949 2.95507 13.25 4.75 13.25H13.75C15.2688 13.25 16.5 12.0188 16.5 10.5C16.5 8.98122 15.2688 7.75 13.75 7.75H12.25V6C12.25 3.65279 10.3472 1.75 8 1.75ZM2.25013 5.96044C2.27141 2.80301 4.83756 0.25 8 0.25C11.1756 0.25 13.75 2.82436 13.75 6V6.25C16.0972 6.25 18 8.15279 18 10.5C18 12.8472 16.0972 14.75 13.75 14.75H4.75C2.12665 14.75 0 12.6234 0 10C0 8.29287 0.900628 6.79727 2.25013 5.96044Z" fill="#364141"/>
</svg>
