<svg width="16" height="17" viewBox="0 0 16 17" fill="none" xmlns="http://www.w3.org/2000/svg">
<path d="M8.23083 3.55498C8.14543 3.34966 7.85457 3.34966 7.76917 3.55498L6.9345 5.56176C6.8985 5.64832 6.8171 5.70747 6.72365 5.71496L4.55716 5.88864C4.3355 5.90641 4.24561 6.18304 4.4145 6.32771L6.06514 7.74166C6.13633 7.80264 6.16743 7.89834 6.14567 7.98953L5.64138 10.1037C5.58978 10.32 5.82509 10.4909 6.01487 10.375L7.86969 9.24209C7.94969 9.19323 8.05031 9.19323 8.13031 9.24209L9.98513 10.375C10.1749 10.4909 10.4102 10.32 10.3586 10.1037L9.85433 7.98953C9.83257 7.89834 9.86367 7.80264 9.93486 7.74166L11.5855 6.32771C11.7544 6.18304 11.6645 5.90641 11.4428 5.88864L9.27635 5.71496C9.1829 5.70747 9.1015 5.64832 9.0655 5.56177L8.23083 3.55498Z" fill="#364141"/>
<path fill-rule="evenodd" clip-rule="evenodd" d="M0 1.5C0 0.671573 0.671573 0 1.5 0H14.5C15.3284 0 16 0.671573 16 1.5V12.5C16 13.3284 15.3284 14 14.5 14H11.2361C11.0808 14 10.9277 14.0361 10.7889 14.1056L5.72361 16.6382C5.39116 16.8044 5 16.5627 5 16.191V14.15C5 14.0672 4.93284 14 4.85 14H1.5C0.671573 14 0 13.3284 0 12.5V1.5ZM1.5 1.5H14.5V12.5H11.2361C10.848 12.5 10.4652 12.5904 10.118 12.7639L6.5 14.5729V14.15C6.5 13.2387 5.76127 12.5 4.85 12.5H1.5V1.5Z" fill="#364141"/>
</svg>
