<svg width="18" height="18" viewBox="0 0 18 18" fill="none" xmlns="http://www.w3.org/2000/svg">
<path fill-rule="evenodd" clip-rule="evenodd" d="M7.41349 6.28919L13 5L11.7108 10.5865C11.5818 11.1454 11.1454 11.5818 10.5865 11.7108L5 13L6.28919 7.41349C6.41817 6.85459 6.85459 6.41817 7.41349 6.28919ZM7.75078 7.75078L10.9988 7.00125L10.2492 10.2492L7.00125 10.9988L7.75078 7.75078Z" fill="#364141"/>
<path fill-rule="evenodd" clip-rule="evenodd" d="M18 9C18 13.9706 13.9706 18 9 18C4.02944 18 0 13.9706 0 9C0 4.02944 4.02944 0 9 0C13.9706 0 18 4.02944 18 9ZM16.5 9C16.5 13.1421 13.1421 16.5 9 16.5C4.85786 16.5 1.5 13.1421 1.5 9C1.5 4.85786 4.85786 1.5 9 1.5C13.1421 1.5 16.5 4.85786 16.5 9Z" fill="#364141"/>
</svg>
