<svg width="18" height="17" viewBox="0 0 18 17" fill="none" xmlns="http://www.w3.org/2000/svg">
<path d="M10.25 1.25C10.25 1.94036 9.69036 2.5 9 2.5C8.30964 2.5 7.75 1.94036 7.75 1.25C7.75 0.559644 8.30964 0 9 0C9.69036 0 10.25 0.559644 10.25 1.25Z" fill="#364141"/>
<path d="M1.55256 3.80672C2.07092 3.62042 2.61436 3.9305 2.75578 4.46286L2.76098 4.48246C2.89566 4.98946 3.39922 5.30621 3.91455 5.20807L3.93708 5.20377C4.40875 5.11395 4.75 4.70157 4.75 4.22143V4.14096C4.75 3.64617 5.11194 3.22572 5.60414 3.17523C6.10221 3.12414 6.64368 3.0821 7.14651 3.04933C7.61063 3.01908 8 3.38994 8 3.85504C8 4.30406 8.36401 4.66807 8.81304 4.66807H9.19096C9.63778 4.66807 10 4.30585 10 3.85903C10 3.3951 10.3893 3.02561 10.8522 3.05556C11.3525 3.08792 11.8993 3.1287 12.3955 3.17772C12.8879 3.22635 13.25 3.64617 13.25 4.14096V4.22143C13.25 4.70157 13.5913 5.11395 14.0629 5.20377L14.0855 5.20807C14.6008 5.30621 15.1043 4.98946 15.239 4.48246L15.2442 4.46286C15.3856 3.9305 15.9291 3.62042 16.4474 3.80672C17.0151 4.01072 17.6339 4.25792 18 4.4265V4.43002L15 13H3L0 4.43002V4.4265C0.36608 4.25792 0.984929 4.01072 1.55256 3.80672Z" fill="#364141"/>
<path d="M2.5 14.25V16.25H15.5V14.25H2.5Z" fill="#364141"/>
</svg>
