<svg width="18" height="14" viewBox="0 0 18 14" fill="none" xmlns="http://www.w3.org/2000/svg">
<path d="M12.2981 3.64136L10 5.93946L7.7019 3.64136L6.64124 4.70202L8.93934 7.00012L6.64124 9.29821L7.7019 10.3589L10 8.06078L12.2981 10.3589L13.3588 9.29821L11.0607 7.00012L13.3588 4.70202L12.2981 3.64136Z" fill="#364141"/>
<path fill-rule="evenodd" clip-rule="evenodd" d="M3.56812 0.755791L0 7L3.56812 13.2442C3.83518 13.7116 4.3322 14 4.87048 14H16.5C17.3284 14 18 13.3284 18 12.5V1.5C18 0.671573 17.3284 0 16.5 0H4.87048C4.3322 0 3.83518 0.288429 3.56812 0.755791ZM16.5 12.5H4.87048L1.72763 7L4.87048 1.5L16.5 1.5V12.5Z" fill="#364141"/>
</svg>
