<svg width="18" height="18" viewBox="0 0 18 18" fill="none" xmlns="http://www.w3.org/2000/svg">
<path fill-rule="evenodd" clip-rule="evenodd" d="M0.649535 7.91098L7.96849 0.977234C8.54704 0.429139 9.45318 0.429138 10.0317 0.977233L17.3507 7.91098C17.9752 8.50262 17.9752 9.4972 17.3507 10.0888L10.0317 17.0226C9.45318 17.5707 8.54704 17.5707 7.96849 17.0226L0.649536 10.0888C0.025025 9.4972 0.0250243 8.50262 0.649535 7.91098ZM10.4802 9.50626C9.74538 9.35245 9.36598 8.96622 9.36598 8.3544C9.36598 7.57169 9.98805 7.09317 11.0066 7.09317C12.0286 7.09317 12.6096 7.517 12.6336 8.27921H11.5056C11.4817 8.07413 11.2869 7.94767 11.0032 7.94767C10.7366 7.94767 10.552 8.07413 10.552 8.25186C10.552 8.41251 10.6819 8.51163 10.9724 8.56974L11.6048 8.69278C12.4011 8.84659 12.7464 9.17472 12.7464 9.76944C12.7464 10.5795 12.0867 11.0854 11.0237 11.0854C9.96755 11.0854 9.34206 10.6581 9.30104 9.90958H10.4802C10.5178 10.1181 10.7127 10.2309 11.034 10.2309C11.3245 10.2309 11.5091 10.1112 11.5091 9.93009C11.5091 9.76944 11.3963 9.69425 11.0579 9.62589L10.4802 9.50626ZM6.28612 10.9999L5.00438 7.19571H6.30663L6.9663 9.91642H7.03124L7.67723 7.19571H8.94872L7.68065 10.9999H6.28612Z" fill="#364141"/>
</svg>
