<svg width="10" height="18" viewBox="0 0 10 18" fill="none" xmlns="http://www.w3.org/2000/svg">
<path fill-rule="evenodd" clip-rule="evenodd" d="M4 1.75V0H6V1.75C8.20914 1.75 10 3.54086 10 5.75V6H8V5.75C8 4.64543 7.10457 3.75 6 3.75H4C2.89543 3.75 2 4.64543 2 5.75V6C2 7.10457 2.89543 8 4 8H6C8.20914 8 10 9.79086 10 12V12.25C10 14.4591 8.20914 16.25 6 16.25V18H4V16.25C1.79086 16.25 0 14.4591 0 12.25V12H2V12.25C2 13.3546 2.89543 14.25 4 14.25H6C7.10457 14.25 8 13.3546 8 12.25V12C8 10.8954 7.10457 10 6 10H4C1.79086 10 0 8.20914 0 6V5.75C0 3.54086 1.79086 1.75 4 1.75Z" fill="#364141"/>
</svg>
