<svg width="10" height="18" viewBox="0 0 10 18" fill="none" xmlns="http://www.w3.org/2000/svg">
<path fill-rule="evenodd" clip-rule="evenodd" d="M4.25 2V0H5.75V2H6C8.07107 2 9.75 3.67893 9.75 5.75V6H8.25V5.75C8.25 4.50736 7.24264 3.5 6 3.5H4C2.75736 3.5 1.75 4.50736 1.75 5.75V6C1.75 7.24264 2.75736 8.25 4 8.25H6C8.07107 8.25 9.75 9.92893 9.75 12V12.25C9.75 14.3211 8.07107 16 6 16H5.75V18H4.25V16H4C1.92893 16 0.25 14.3211 0.25 12.25V12H1.75V12.25C1.75 13.4926 2.75736 14.5 4 14.5H6C7.24264 14.5 8.25 13.4926 8.25 12.25V12C8.25 10.7574 7.24264 9.75 6 9.75H4C1.92893 9.75 0.25 8.07107 0.25 6V5.75C0.25 3.67893 1.92893 2 4 2H4.25Z" fill="#364141"/>
</svg>
