<svg width="18" height="14" viewBox="0 0 18 14" fill="none" xmlns="http://www.w3.org/2000/svg">
<path fill-rule="evenodd" clip-rule="evenodd" d="M0 1.5C0 0.671573 0.671573 0 1.5 0H16.5C17.3284 0 18 0.671573 18 1.5V12.5C18 13.3284 17.3284 14 16.5 14H1.5C0.671573 14 0 13.3284 0 12.5V1.5ZM1.5 1.5H16.5V2.9336L10.2747 7.2135C9.50687 7.74138 8.49313 7.74138 7.72531 7.2135L1.5 2.9336V1.5ZM1.5 4.7539L1.5 12.5H16.5V4.7539L11.1245 8.44957C9.84479 9.32936 8.15521 9.32936 6.87552 8.44957L1.5 4.7539Z" fill="#364141"/>
</svg>
