<svg width="18" height="16" viewBox="0 0 18 16" fill="none" xmlns="http://www.w3.org/2000/svg">
<path d="M10.7499 8C10.7499 8.9665 9.96641 9.75 8.99991 9.75C8.03341 9.75 7.24991 8.9665 7.24991 8C7.24991 7.0335 8.03341 6.25 8.99991 6.25C9.96641 6.25 10.7499 7.0335 10.7499 8Z" fill="#364141"/>
<path fill-rule="evenodd" clip-rule="evenodd" d="M0.230041 7.46894C1.03599 5.71975 3.9592 0.25 8.99983 0.25C14.0404 0.25 16.9638 5.71968 17.7698 7.4689C17.9262 7.80822 17.9262 8.19178 17.7698 8.5311C16.9638 10.2803 14.0404 15.75 8.99983 15.75C3.9592 15.75 1.03599 10.2802 0.230042 8.53106C0.0737102 8.19177 0.07371 7.80823 0.230041 7.46894ZM12.2499 8C12.2499 9.79493 10.7948 11.25 8.99991 11.25C7.20498 11.25 5.74991 9.79493 5.74991 8C5.74991 6.20507 7.20498 4.75 8.99991 4.75C10.7948 4.75 12.2499 6.20507 12.2499 8Z" fill="#364141"/>
</svg>
