<svg width="16" height="16" viewBox="0 0 16 16" fill="none" xmlns="http://www.w3.org/2000/svg">
<path fill-rule="evenodd" clip-rule="evenodd" d="M7.78033 3.71969L6.03033 1.96969L4.96967 3.03035L6.71967 4.78035L0.43934 11.0607C0.158035 11.342 0 11.7235 0 12.1213V16H3.87868C4.2765 16 4.65803 15.842 4.93934 15.5607L11.2197 9.28035L12.9697 11.0303L14.0303 9.96969L12.2803 8.21969L15.4393 5.06068C16.0251 4.47489 16.0251 3.52514 15.4393 2.93936L13.0607 0.560678C12.4749 -0.0251089 11.5251 -0.0251086 10.9393 0.560678L7.78033 3.71969ZM12 1.62134L14.3787 4.00002L11.2197 7.15903L8.84099 4.78035L12 1.62134ZM10.159 8.21969L3.87868 14.5L1.5 14.5L1.5 12.1213L7.78033 5.84101L10.159 8.21969Z" fill="#364141"/>
</svg>
