<svg width="18" height="16" viewBox="0 0 18 16" fill="none" xmlns="http://www.w3.org/2000/svg">
<path fill-rule="evenodd" clip-rule="evenodd" d="M12.0001 8C12.0001 9.65685 10.6569 11 9.00008 11C7.34323 11 6.00008 9.65685 6.00008 8C6.00008 6.34315 7.34323 5 9.00008 5C10.6569 5 12.0001 6.34315 12.0001 8ZM10.5001 8C10.5001 8.82843 9.82851 9.5 9.00008 9.5C8.17166 9.5 7.50008 8.82843 7.50008 8C7.50008 7.17157 8.17166 6.5 9.00008 6.5C9.82851 6.5 10.5001 7.17157 10.5001 8Z" fill="#364141"/>
<path fill-rule="evenodd" clip-rule="evenodd" d="M9.00008 0.25C6.09006 0.25 3.99356 1.74329 2.58914 3.3524C1.19153 4.9537 0.430134 6.72036 0.158597 7.42965C0.0177727 7.79751 0.0177718 8.20249 0.158597 8.57034C0.430134 9.27964 1.19153 11.0463 2.58914 12.6476C3.99356 14.2567 6.09006 15.75 9.00008 15.75C11.9101 15.75 14.0066 14.2567 15.411 12.6476C16.8086 11.0463 17.57 9.27964 17.8416 8.57035C17.9824 8.20249 17.9824 7.79751 17.8416 7.42965C17.57 6.72036 16.8086 4.9537 15.411 3.3524C14.0066 1.74329 11.9101 0.25 9.00008 0.25ZM1.55945 7.96594C1.80175 7.33302 2.48681 5.75078 3.71924 4.33874C4.94485 2.93451 6.66197 1.75 9.00008 1.75C11.3382 1.75 13.0553 2.93451 14.2809 4.33874C15.5134 5.75078 16.1984 7.33302 16.4407 7.96594C16.4493 7.98849 16.4493 8.01151 16.4407 8.03406C16.1984 8.66698 15.5134 10.2492 14.2809 11.6613C13.0553 13.0655 11.3382 14.25 9.00008 14.25C6.66196 14.25 4.94485 13.0655 3.71924 11.6613C2.48681 10.2492 1.80175 8.66698 1.55945 8.03406C1.55082 8.01151 1.55082 7.98849 1.55945 7.96594Z" fill="#364141"/>
</svg>
