<svg width="18" height="18" viewBox="0 0 18 18" fill="none" xmlns="http://www.w3.org/2000/svg">
<path d="M5.5 8C6.05228 8 6.5 7.55228 6.5 7C6.5 6.44772 6.05228 6 5.5 6C4.94772 6 4.5 6.44772 4.5 7C4.5 7.55228 4.94772 8 5.5 8Z" fill="#364141"/>
<path d="M13.5 7C13.5 7.55228 13.0523 8 12.5 8C11.9477 8 11.5 7.55228 11.5 7C11.5 6.44772 11.9477 6 12.5 6C13.0523 6 13.5 6.44772 13.5 7Z" fill="#364141"/>
<path d="M9 13.75C6.71969 13.75 4.81468 12.1432 4.35545 10H5.90675C6.32853 11.3056 7.55398 12.25 9 12.25C10.446 12.25 11.6715 11.3056 12.0933 10H13.6446C13.1853 12.1432 11.2803 13.75 9 13.75Z" fill="#364141"/>
<path fill-rule="evenodd" clip-rule="evenodd" d="M18 9C18 13.9706 13.9706 18 9 18C4.02944 18 0 13.9706 0 9C0 4.02944 4.02944 0 9 0C13.9706 0 18 4.02944 18 9ZM16.5 9C16.5 13.1421 13.1421 16.5 9 16.5C4.85786 16.5 1.5 13.1421 1.5 9C1.5 4.85786 4.85786 1.5 9 1.5C13.1421 1.5 16.5 4.85786 16.5 9Z" fill="#364141"/>
</svg>
