<svg width="18" height="18" viewBox="0 0 18 18" fill="none" xmlns="http://www.w3.org/2000/svg">
<path d="M11.25 7.75C11.25 7.19772 11.6977 6.75 12.25 6.75C12.8023 6.75 13.25 7.19772 13.25 7.75V8H14.75V7.75C14.75 6.36929 13.6307 5.25 12.25 5.25C10.8693 5.25 9.75 6.36929 9.75 7.75V8H11.25V7.75Z" fill="#364141"/>
<path d="M5.75 6.75C5.19772 6.75 4.75 7.19772 4.75 7.75V8H3.25V7.75C3.25 6.36929 4.36929 5.25 5.75 5.25C7.13071 5.25 8.25 6.36929 8.25 7.75V8H6.75V7.75C6.75 7.19772 6.30228 6.75 5.75 6.75Z" fill="#364141"/>
<path d="M13 10.25C13 11.9069 11.5 13.75 9 13.75C6.5 13.75 5 11.9069 5 10.25H13Z" fill="#364141"/>
<path fill-rule="evenodd" clip-rule="evenodd" d="M18 9C18 13.9706 13.9706 18 9 18C4.02944 18 0 13.9706 0 9C0 4.02944 4.02944 0 9 0C13.9706 0 18 4.02944 18 9ZM16.5 9C16.5 13.1421 13.1421 16.5 9 16.5C4.85786 16.5 1.5 13.1421 1.5 9C1.5 4.85786 4.85786 1.5 9 1.5C13.1421 1.5 16.5 4.85786 16.5 9Z" fill="#364141"/>
</svg>
