<svg width="18" height="18" viewBox="0 0 18 18" fill="none" xmlns="http://www.w3.org/2000/svg">
<path d="M7 7.25H4V5.75H7V7.25Z" fill="#364141"/>
<path d="M11 7.25H14V5.75H11V7.25Z" fill="#364141"/>
<path d="M9.00002 9C6.71971 9 4.81469 10.6068 4.35547 12.75H5.90677C6.32855 11.4444 7.554 10.5 9.00002 10.5C10.446 10.5 11.6715 11.4444 12.0933 12.75H13.6446C13.1853 10.6068 11.2803 9 9.00002 9Z" fill="#364141"/>
<path fill-rule="evenodd" clip-rule="evenodd" d="M18 9C18 13.9706 13.9706 18 9 18C4.02944 18 0 13.9706 0 9C0 4.02944 4.02944 0 9 0C13.9706 0 18 4.02944 18 9ZM16.5 9C16.5 13.1421 13.1421 16.5 9 16.5C4.85786 16.5 1.5 13.1421 1.5 9C1.5 4.85786 4.85786 1.5 9 1.5C13.1421 1.5 16.5 4.85786 16.5 9Z" fill="#364141"/>
</svg>
