<svg width="18" height="18" viewBox="0 0 18 18" fill="none" xmlns="http://www.w3.org/2000/svg">
<path fill-rule="evenodd" clip-rule="evenodd" d="M9 18C13.9706 18 18 13.9706 18 9C18 4.02944 13.9706 0 9 0C4.02944 0 0 4.02944 0 9C0 13.9706 4.02944 18 9 18ZM11.75 7.75C11.75 7.19772 12.1977 6.75 12.75 6.75C13.3023 6.75 13.75 7.19772 13.75 7.75V8H15.25V7.75C15.25 6.36929 14.1307 5.25 12.75 5.25C11.3693 5.25 10.25 6.36929 10.25 7.75V8H11.75V7.75ZM5.25 6.75C4.69772 6.75 4.25 7.19772 4.25 7.75V8H2.75V7.75C2.75 6.36929 3.86929 5.25 5.25 5.25C6.63071 5.25 7.75 6.36929 7.75 7.75V8H6.25V7.75C6.25 7.19772 5.80228 6.75 5.25 6.75ZM13 10.25C13 11.9069 11.5 13.75 9 13.75C6.5 13.75 5 11.9069 5 10.25H13Z" fill="#364141"/>
</svg>
