<svg width="18" height="18" viewBox="0 0 18 18" fill="none" xmlns="http://www.w3.org/2000/svg">
<path fill-rule="evenodd" clip-rule="evenodd" d="M9 18C13.9706 18 18 13.9706 18 9C18 4.02944 13.9706 0 9 0C4.02944 0 0 4.02944 0 9C0 13.9706 4.02944 18 9 18ZM5.5 7.5C6.05228 7.5 6.5 7.05228 6.5 6.5C6.5 5.94772 6.05228 5.5 5.5 5.5C4.94772 5.5 4.5 5.94772 4.5 6.5C4.5 7.05228 4.94772 7.5 5.5 7.5ZM12.5 7.5C13.0523 7.5 13.5 7.05228 13.5 6.5C13.5 5.94772 13.0523 5.5 12.5 5.5C11.9477 5.5 11.5 5.94772 11.5 6.5C11.5 7.05228 11.9477 7.5 12.5 7.5ZM4.35545 10C4.81468 12.1432 6.71969 13.75 9.00001 13.75C11.2803 13.75 13.1853 12.1432 13.6446 10H12.0933C11.6715 11.3056 10.446 12.25 9.00001 12.25C7.55398 12.25 6.32853 11.3056 5.90675 10H4.35545Z" fill="#364141"/>
</svg>
