<svg width="18" height="18" viewBox="0 0 18 18" fill="none" xmlns="http://www.w3.org/2000/svg">
<path fill-rule="evenodd" clip-rule="evenodd" d="M9 18C13.9706 18 18 13.9706 18 9C18 4.02944 13.9706 0 9 0C4.02944 0 0 4.02944 0 9C0 13.9706 4.02944 18 9 18ZM13 13.75C13 12.0931 11.5 10.25 9 10.25C6.5 10.25 5 12.0931 5 13.75H13ZM12.75 7.25C12.1977 7.25 11.75 6.80228 11.75 6.25V6H10.25V6.25C10.25 7.63071 11.3693 8.75 12.75 8.75C14.1307 8.75 15.25 7.63071 15.25 6.25V6H13.75V6.25C13.75 6.80228 13.3023 7.25 12.75 7.25ZM4.25 6.25C4.25 6.80228 4.69772 7.25 5.25 7.25C5.80228 7.25 6.25 6.80228 6.25 6.25V6H7.75V6.25C7.75 7.63071 6.63071 8.75 5.25 8.75C3.86929 8.75 2.75 7.63071 2.75 6.25V6H4.25V6.25Z" fill="#364141"/>
</svg>
