<svg width="18" height="16" viewBox="0 0 18 16" fill="none" xmlns="http://www.w3.org/2000/svg">
<path d="M2 3.5V1.5H16V3.5H11.2857L13 5H17.5V1.5C17.5 0.671573 16.8284 0 16 0H2C1.17157 0 0.5 0.671573 0.5 1.5V5H5L6.71429 3.5H2Z" fill="#364141"/>
<path d="M2 14.75V8H3.5V14.5H14.5V8H16V14.75C16 15.4404 15.4404 16 14.75 16H3.25C2.55964 16 2 15.4404 2 14.75Z" fill="#364141"/>
<path d="M8.25 13V6.81066L6.03033 9.03033L4.96967 7.96967L9 3.93934L13.0303 7.96967L11.9697 9.03033L9.75 6.81066V13H8.25Z" fill="#364141"/>
</svg>
