<svg width="20" height="15" viewBox="0 0 20 15" fill="none" xmlns="http://www.w3.org/2000/svg">
<path fill-rule="evenodd" clip-rule="evenodd" d="M4.21582 0.75H7.75788L11.7579 15H9.68058L8.27707 10H4.00333L2.77526 15H0.71582L4.21582 0.75ZM4.49456 8H7.71566L6.24198 2.75H5.78404L4.49456 8Z" fill="#364141"/>
<path fill-rule="evenodd" clip-rule="evenodd" d="M15.4999 7.5C13.5669 7.5 11.9999 9.067 11.9999 11V11.5C11.9999 13.433 13.5669 15 15.4999 15C16.3567 15 17.1416 14.6922 17.7499 14.1811V15H19.2499V7.5H17.7499V8.31894C17.1416 7.80784 16.3567 7.5 15.4999 7.5ZM16.9999 11.5V11C16.9999 10.1716 16.3284 9.5 15.4999 9.5C14.6715 9.5 13.9999 10.1716 13.9999 11V11.5C13.9999 12.3284 14.6715 13 15.4999 13C16.3284 13 16.9999 12.3284 16.9999 11.5Z" fill="#364141"/>
</svg>
