<svg width="18" height="16" viewBox="0 0 18 16" fill="none" xmlns="http://www.w3.org/2000/svg">
<path fill-rule="evenodd" clip-rule="evenodd" d="M10.1234 6.81598L11.9697 4.96967L13.0303 6.03033L11.1997 7.86097C11.3912 8.21458 11.5 8.61958 11.5 9.04999C11.5 10.4307 10.3807 11.55 9 11.55C7.61929 11.55 6.5 10.4307 6.5 9.04999C6.5 7.66928 7.61929 6.54999 9 6.54999C9.404 6.54999 9.78561 6.64582 10.1234 6.81598ZM10 9.04999C10 9.60227 9.55228 10.05 9 10.05C8.44772 10.05 8 9.60227 8 9.04999C8 8.4977 8.44772 8.04999 9 8.04999C9.55228 8.04999 10 8.4977 10 9.04999Z" fill="#364141"/>
<path fill-rule="evenodd" clip-rule="evenodd" d="M14.6573 16C16.6963 14.35 18 11.8273 18 9C18 4.02944 13.9706 0 9 0C4.02944 0 0 4.02944 0 9C0 11.8273 1.30367 14.35 3.34267 16H14.6573ZM14.0991 14.5C15.5779 13.1285 16.5 11.1724 16.5 9C16.5 4.85786 13.1421 1.5 9 1.5C4.85786 1.5 1.5 4.85786 1.5 9C1.5 11.1724 2.42215 13.1285 3.90088 14.5H14.0991Z" fill="#364141"/>
</svg>
