<svg width="18" height="16" viewBox="0 0 18 16" fill="none" xmlns="http://www.w3.org/2000/svg">
<path fill-rule="evenodd" clip-rule="evenodd" d="M18 9C18 11.8273 16.6963 14.35 14.6573 16H3.34267C1.30367 14.35 0 11.8273 0 9C0 4.02944 4.02944 0 9 0C13.9706 0 18 4.02944 18 9ZM11.5 9.05011C11.5 8.61968 11.3912 8.21467 11.1997 7.86105L13.0303 6.03039L11.9697 4.96973L10.1233 6.81608C9.78558 6.64593 9.40398 6.55011 9 6.55011C7.61929 6.55011 6.5 7.66939 6.5 9.05011C6.5 10.4308 7.61929 11.5501 9 11.5501C10.3807 11.5501 11.5 10.4308 11.5 9.05011Z" fill="#364141"/>
</svg>
