<svg width="18" height="18" viewBox="0 0 18 18" fill="none" xmlns="http://www.w3.org/2000/svg">
<path fill-rule="evenodd" clip-rule="evenodd" d="M8.00467 0C7.44981 0 7 0.449806 7 1.00467C7 1.45659 6.69537 1.84634 6.27437 2.01064C6.17713 2.04859 6.08088 2.08851 5.98566 2.13035C5.57173 2.31224 5.08049 2.2521 4.76079 1.9324C4.36837 1.53998 3.73214 1.53998 3.33972 1.9324L1.93237 3.33975C1.53995 3.73217 1.53995 4.36841 1.93237 4.76084C2.25207 5.08054 2.31221 5.57179 2.13032 5.98572C2.08849 6.08091 2.04858 6.17715 2.01064 6.27437C1.84634 6.69537 1.45659 7 1.00467 7C0.449807 7 0 7.44981 0 8.00467V9.99533C0 10.5502 0.449807 11 1.00467 11C1.45659 11 1.84634 11.3046 2.01064 11.7256C2.04859 11.8229 2.08851 11.9191 2.13035 12.0143C2.31225 12.4283 2.25211 12.9196 1.93239 13.2393C1.53996 13.6317 1.53996 14.268 1.93239 14.6604L3.33966 16.0677C3.73211 16.4601 4.36839 16.4601 4.76084 16.0677C5.08056 15.748 5.57184 15.6878 5.98579 15.8697C6.08097 15.9115 6.17718 15.9514 6.27437 15.9894C6.69537 16.1537 7 16.5434 7 16.9953C7 17.5502 7.44981 18 8.00467 18H9.99533C10.5502 18 11 17.5502 11 16.9953C11 16.5434 11.3046 16.1537 11.7256 15.9894C11.8228 15.9514 11.9191 15.9115 12.0143 15.8697C12.4282 15.6878 12.9195 15.7479 13.2392 16.0676C13.6316 16.4601 14.2679 16.4601 14.6603 16.0676L16.0676 14.6603C16.46 14.2679 16.46 13.6317 16.0676 13.2392C15.7479 12.9195 15.6878 12.4283 15.8697 12.0143C15.9115 11.9191 15.9514 11.8229 15.9894 11.7256C16.1537 11.3046 16.5434 11 16.9953 11C17.5502 11 18 10.5502 18 9.99533V8.00467C18 7.44981 17.5502 7 16.9953 7C16.5434 7 16.1537 6.69537 15.9894 6.27437C15.9514 6.17716 15.9115 6.08093 15.8697 5.98574C15.6878 5.57182 15.7479 5.08058 16.0676 4.76088C16.4601 4.36847 16.4601 3.73224 16.0676 3.33982L14.6603 1.93243C14.2679 1.54003 13.6316 1.54003 13.2392 1.93243C12.9195 2.25213 12.4283 2.31226 12.0144 2.13037C11.9192 2.08852 11.8229 2.0486 11.7256 2.01064C11.3046 1.84634 11 1.45659 11 1.00467C11 0.449806 10.5502 0 9.99533 0H8.00467ZM9 12C10.6569 12 12 10.6569 12 9C12 7.34315 10.6569 6 9 6C7.34315 6 6 7.34315 6 9C6 10.6569 7.34315 12 9 12Z" fill="#364141"/>
</svg>
