<svg width="18" height="14" viewBox="0 0 18 14" fill="none" xmlns="http://www.w3.org/2000/svg">
<path fill-rule="evenodd" clip-rule="evenodd" d="M1.5 0C0.671573 0 0 0.671573 0 1.5V12.5C0 13.3284 0.671573 14 1.5 14H16.5C17.3284 14 18 13.3284 18 12.5V1.5C18 0.671573 17.3284 0 16.5 0H1.5ZM8.0661 6.21875C8.05048 5.28516 7.32391 4.32812 5.78094 4.32812C4.17157 4.32812 3.3161 5.35547 3.3161 6.76172V7.36719C3.3161 8.69531 4.01532 9.84375 5.76923 9.84375C7.42157 9.84375 8.07001 8.8125 8.07001 7.76953V6.75781H5.88641V7.79297H6.62469V7.90234C6.62469 8.25 6.35907 8.60156 5.80829 8.60156C5.07001 8.60156 4.8786 8.01562 4.8786 7.35938V6.78125C4.8786 6.00391 5.18719 5.57031 5.76923 5.57031C6.26141 5.57031 6.53094 5.87891 6.57391 6.21875H8.0661ZM10.2109 9.75V4.41797H8.66798V9.75H10.2109ZM12.5706 7.86328V9.75H11.0277V4.41797H14.7542V5.63281H12.5706V6.69141H14.5472V7.86328H12.5706Z" fill="#364141"/>
</svg>
