<svg width="18" height="14" viewBox="0 0 18 14" fill="none" xmlns="http://www.w3.org/2000/svg">
<path fill-rule="evenodd" clip-rule="evenodd" d="M5.37151 1.75C4.85494 1.75 4.39159 2.06775 4.20547 2.54962L2.8023 6.1824C3.18045 6.06388 3.58277 6 4 6C5.58156 6 6.94874 6.91788 7.59788 8.25H10.4021C11.0513 6.91788 12.4184 6 14 6C14.4182 6 14.8214 6.06418 15.2003 6.18322L13.795 2.54914C13.6087 2.06752 13.1455 1.75 12.6291 1.75H11V0.25H12.6291C13.7651 0.25 14.7842 0.948547 15.194 2.00811L17.6564 8.37567C17.7103 8.49675 17.7583 8.62099 17.8002 8.74805C17.8055 8.76289 17.8103 8.77779 17.8146 8.79273C17.935 9.17366 18 9.57924 18 10C18 12.2091 16.2091 14 14 14C11.7909 14 10 12.2091 10 10C10 9.91604 10.0026 9.83268 10.0077 9.75H7.99231C7.99741 9.83268 8 9.91604 8 10C8 12.2091 6.20914 14 4 14C1.79086 14 0 12.2091 0 10C0 9.40096 0.131684 8.83267 0.367685 8.3225L2.80622 2.00916C3.21568 0.949044 4.23507 0.25 5.37151 0.25H7V1.75H5.37151ZM16.2746 8.96103L16.3822 9.23927C16.4587 9.47914 16.5 9.73475 16.5 10C16.5 11.3807 15.3807 12.5 14 12.5C12.6193 12.5 11.5 11.3807 11.5 10C11.5 8.61929 12.6193 7.5 14 7.5C15.01 7.5 15.8801 8.09895 16.2746 8.96103ZM1.60963 9.27023L1.60372 9.28506C1.53624 9.51157 1.5 9.75155 1.5 10C1.5 11.3807 2.61929 12.5 4 12.5C5.38071 12.5 6.5 11.3807 6.5 10C6.5 8.61929 5.38071 7.5 4 7.5C3.00706 7.5 2.14932 8.07887 1.74585 8.91755L1.60963 9.27023Z" fill="#364141"/>
</svg>
