<svg width="18" height="18" viewBox="0 0 18 18" fill="none" xmlns="http://www.w3.org/2000/svg">
<path fill-rule="evenodd" clip-rule="evenodd" d="M8.94541 0.000162065C8.26559 0.00419967 7.60363 0.0836114 6.96747 0.230463C6.92943 0.239243 6.89149 0.248264 6.85364 0.257524C2.9194 1.22011 0 4.76913 0 9C0 13.2309 2.9194 16.7799 6.85364 17.7425C7.46925 17.8931 8.1097 17.9804 8.76771 17.9971C8.8268 17.9986 8.88604 17.9995 8.94541 17.9998C8.96359 17.9999 8.98179 18 9 18C9.01821 18 9.0364 17.9999 9.05459 17.9998C9.75004 17.9957 10.4268 17.9127 11.0764 17.7593C11.0997 17.7538 11.1231 17.7482 11.1464 17.7425C15.0806 16.7799 18 13.2309 18 9C18 4.76912 15.0806 1.22011 11.1464 0.257524C10.4585 0.0892338 9.73969 0 9 0C8.98179 0 8.9636 5.40748e-05 8.94541 0.000162065ZM16.2637 10.875C16.418 10.2757 16.5 9.64744 16.5 9C16.5 8.35256 16.418 7.72429 16.2637 7.125H13.1012C13.1991 7.73556 13.25 8.36184 13.25 9C13.25 9.63816 13.1991 10.2644 13.1012 10.875H16.2637ZM11.75 9C11.75 8.35958 11.6913 7.73289 11.5789 7.125H6.4211C6.30873 7.73289 6.25 8.35958 6.25 9C6.25 9.64042 6.30873 10.2671 6.4211 10.875H11.5789C11.6913 10.2671 11.75 9.64042 11.75 9ZM4.89879 10.875H1.73628C1.58204 10.2757 1.5 9.64744 1.5 9C1.5 8.35256 1.58204 7.72429 1.73628 7.125H4.89879C4.80087 7.73556 4.75 8.36184 4.75 9C4.75 9.63816 4.80087 10.2644 4.89879 10.875ZM6.73509 5.875H11.2649C10.7994 4.41932 10.0175 3.10512 9 2.01335C7.98251 3.10512 7.20056 4.41932 6.73509 5.875ZM7.29679 1.69424C6.32724 2.91396 5.59506 4.33084 5.1701 5.875H2.18005C3.1357 3.79282 5.01685 2.22366 7.29679 1.69424ZM9 15.9866C10.0175 14.8949 10.7994 13.5807 11.2649 12.125H6.73509C7.20056 13.5807 7.98251 14.8949 9 15.9866ZM7.2968 16.3058C6.32725 15.086 5.59506 13.6692 5.1701 12.125H2.18005C3.1357 14.2072 5.01686 15.7763 7.2968 16.3058ZM15.8199 5.875H12.8299C12.4049 4.33084 11.6728 2.91396 10.7032 1.69424C12.9831 2.22366 14.8643 3.79282 15.8199 5.875ZM15.8199 12.125C14.8643 14.2072 12.9831 15.7763 10.7032 16.3058C11.6728 15.086 12.4049 13.6692 12.8299 12.125H15.8199Z" fill="#364141"/>
</svg>
