<svg width="18" height="12" viewBox="0 0 18 12" fill="none" xmlns="http://www.w3.org/2000/svg">
<path d="M12.5 3.25C12.5 2.69772 12.9477 2.25 13.5 2.25H15C15.5523 2.25 16 2.69772 16 3.25V3.85874C16 4.2124 15.8132 4.53975 15.5087 4.71967L11.9738 6.80848C11.0604 7.34823 10.5 8.33029 10.5 9.39126V11.5H18V9.5H12.5V9.39126C12.5 9.0376 12.6868 8.71025 12.9913 8.53033L16.5262 6.44152C17.4396 5.90177 18 4.91971 18 3.85874V3.25C18 1.59315 16.6569 0.25 15 0.25H13.5C11.8431 0.25 10.5 1.59315 10.5 3.25H12.5Z" fill="#364141"/>
<path d="M0 0.5V11.5H2V7H7V11.5H9V0.5H7V5H2V0.5H0Z" fill="#364141"/>
</svg>
