<svg width="18" height="17" viewBox="0 0 18 17" fill="none" xmlns="http://www.w3.org/2000/svg">
<path d="M11.8456 2.71201L15.6024 0.364014L16.3974 1.63601L12.6406 3.98401C12.3625 4.15784 12.0411 4.25001 11.7131 4.25001H8.99992C7.75728 4.25001 6.74992 5.25737 6.74992 6.50001V8.75001C6.74992 9.3023 7.19764 9.75001 7.74992 9.75001C8.30221 9.75001 8.74992 9.3023 8.74992 8.75001V6.25001H10.9999C12.0978 6.25001 13.0455 6.89343 13.4864 7.82377L17.1088 5.61005L17.891 6.88997L13.7499 9.42064V10.5C13.7499 12.5711 12.071 14.25 9.99992 14.25H7.8027C7.75334 14.25 7.70509 14.2646 7.66402 14.292L4.91595 16.1241L4.0839 14.876L6.83197 13.0439C7.11944 12.8523 7.4572 12.75 7.8027 12.75H9.99992C11.2426 12.75 12.2499 11.7427 12.2499 10.5V9.00001C12.2499 8.30966 11.6903 7.75001 10.9999 7.75001H10.2499V8.75001C10.2499 10.1307 9.13063 11.25 7.74992 11.25C6.36921 11.25 5.24992 10.1307 5.24992 8.75001V6.71354L4.4409 7.11805C4.01742 7.32979 3.74992 7.76262 3.74992 8.23608V9.47936C3.74992 10.0504 3.4713 10.5855 3.00348 10.913L0.930018 12.3644L0.0698242 11.1356L2.14329 9.68417C2.21012 9.63738 2.24992 9.56093 2.24992 9.47936V8.23608C2.24992 7.19446 2.83843 6.24223 3.77008 5.77641L5.6343 4.8443C6.24582 3.6036 7.52319 2.75001 8.99992 2.75001H11.7131C11.76 2.75001 11.8059 2.73685 11.8456 2.71201Z" fill="#364141"/>
</svg>
