<svg width="16" height="18" viewBox="0 0 16 18" fill="none" xmlns="http://www.w3.org/2000/svg">
<path d="M13.9566 5.27918C14.0742 6.25082 13.9523 7.23648 13.6016 8.15021L12.1732 7.6019C12.4345 6.92118 12.5253 6.18686 12.4377 5.46299C12.3501 4.73911 12.0868 4.04766 11.6706 3.44891C11.2545 2.85016 10.6982 2.36231 10.0503 2.02788C9.40231 1.69345 8.6824 1.52261 7.95328 1.53024C7.22416 1.53788 6.50799 1.72376 5.86719 2.07169C5.22639 2.41961 4.68044 2.91901 4.27693 3.52634C3.87342 4.13367 3.62461 4.83049 3.55219 5.55604C3.47977 6.28159 3.58594 7.01384 3.86145 7.68895L2.44487 8.26704C2.07506 7.36086 1.93255 6.37797 2.02976 5.40408C2.12696 4.43019 2.46094 3.49486 3.00256 2.67965C3.54419 1.86444 4.27701 1.19411 5.13714 0.727097C5.99726 0.260086 6.95858 0.010578 7.93726 0.000329042C8.91594 -0.00991996 9.88227 0.219401 10.752 0.668297C11.6217 1.11719 12.3684 1.77203 12.927 2.57572C13.4856 3.37941 13.8391 4.30753 13.9566 5.27918Z" fill="#364141"/>
<path fill-rule="evenodd" clip-rule="evenodd" d="M8.00009 3.75C6.75745 3.75 5.75009 4.75736 5.75009 6V11.0426L4.61154 10.2294C3.66228 9.55132 2.41598 9.45353 1.37258 9.97523C0.581169 10.3709 0.356113 11.3956 0.908859 12.0865L4.96407 17.1556C5.39106 17.6893 6.03751 18 6.72103 18H11.9052C12.8836 18 13.7499 17.3676 14.0481 16.4357L15.1937 12.8559C15.6077 11.5622 14.7896 10.1994 13.4532 9.95645L10.2501 9.37407V6C10.2501 4.75736 9.24273 3.75 8.00009 3.75ZM7.25009 6C7.25009 5.58579 7.58588 5.25 8.00009 5.25C8.4143 5.25 8.75009 5.58579 8.75009 6V9.79136C8.75009 10.2746 9.09571 10.6888 9.5712 10.7752L13.1849 11.4323C13.6303 11.5133 13.903 11.9675 13.765 12.3987L12.6195 15.9786C12.5201 16.2892 12.2313 16.5 11.9052 16.5H6.72103C6.49319 16.5 6.2777 16.3964 6.13538 16.2185L2.16895 11.2605C2.68757 11.0531 3.2801 11.1217 3.73969 11.45L5.82698 12.9409C6.42266 13.3664 7.25009 12.9406 7.25009 12.2085V6Z" fill="#364141"/>
</svg>
