<svg width="18" height="15" viewBox="0 0 18 15" fill="none" xmlns="http://www.w3.org/2000/svg">
<path d="M6.5 3.625V7.25C6.5 7.94036 7.05964 8.5 7.75 8.5C8.44036 8.5 9 7.94036 9 7.25V5.5H12.5C13.6046 5.5 14.5 6.39543 14.5 7.5L18 5L15 0L12 2H8.125C7.22754 2 6.5 2.72754 6.5 3.625Z" fill="#364141"/>
<path d="M0 10.5L2 9V6.73607C2 5.97852 2.428 5.286 3.10557 4.94721L5 4V7.25C5 8.76878 6.23122 10 7.75 10C9.26878 10 10.5 8.76878 10.5 7.25V7H12C12.5523 7 13 7.44772 13 8V9C13 11.2091 11.2091 13 9 13H6L3 15L0 10.5Z" fill="#364141"/>
</svg>
