<svg width="14" height="18" viewBox="0 0 14 18" fill="none" xmlns="http://www.w3.org/2000/svg">
<path d="M12.9565 5.27918C13.0741 6.25082 12.9522 7.23648 12.6015 8.15021L11.1731 7.6019C11.4344 6.92118 11.5252 6.18686 11.4376 5.46299C11.35 4.73911 11.0867 4.04766 10.6705 3.44891C10.2544 2.85016 9.6981 2.36231 9.05016 2.02788C8.40222 1.69345 7.68231 1.52261 6.95319 1.53024C6.22407 1.53788 5.5079 1.72376 4.8671 2.07169C4.22631 2.41961 3.68035 2.91901 3.27684 3.52634C2.87333 4.13367 2.62452 4.83049 2.5521 5.55604C2.47968 6.28159 2.58585 7.01384 2.86136 7.68895L1.44478 8.26704C1.07497 7.36086 0.932459 6.37797 1.02967 5.40408C1.12687 4.43019 1.46085 3.49486 2.00247 2.67965C2.5441 1.86444 3.27692 1.19411 4.13705 0.727097C4.99718 0.260086 5.95849 0.010578 6.93717 0.000329042C7.91585 -0.00991996 8.88218 0.219401 9.7519 0.668297C10.6216 1.11719 11.3683 1.77203 11.9269 2.57572C12.4855 3.37941 12.839 4.30753 12.9565 5.27918Z" fill="#364141"/>
<path d="M8.49995 5.5V9.29136C8.49995 9.41218 8.58636 9.51571 8.70523 9.53732L12.3999 10.2091C13.2619 10.3658 13.8067 11.2248 13.5809 12.0714L12.2969 16.8865C12.1218 17.5431 11.5271 18 10.8475 18H6.229C5.76871 18 5.3339 17.7887 5.04953 17.4267L0.391839 11.4988C0.176843 11.2251 0.229005 10.8282 0.507396 10.6194C1.37948 9.96535 2.58882 10.0047 3.41649 10.7142L5.25233 12.2878C5.34963 12.3712 5.49995 12.302 5.49995 12.1739V5.5C5.49995 4.67157 6.17152 4 6.99995 4C7.82838 4 8.49995 4.67157 8.49995 5.5Z" fill="#364141"/>
</svg>
