<svg width="18" height="18" viewBox="0 0 18 18" fill="none" xmlns="http://www.w3.org/2000/svg">
<path fill-rule="evenodd" clip-rule="evenodd" d="M0 13C0 14.1046 0.89543 15 2 15H3C4.10457 15 5 14.1046 5 13V10C5 8.89543 4.10457 8 3 8H2C1.84875 8 1.70142 8.01679 1.55977 8.04861C2.02727 4.35567 5.18015 1.5 9 1.5C12.8199 1.5 15.9727 4.35567 16.4402 8.04861C16.2986 8.01679 16.1513 8 16 8H15C13.8954 8 13 8.89543 13 10V13C13 14.0001 13.7341 14.8288 14.6929 14.9766C14.4791 15.851 13.6903 16.5 12.75 16.5H9V18H12.75C14.5172 18 15.9786 16.6902 16.2162 14.9885C17.2191 14.8807 18 14.0315 18 13V9C18 4.02944 13.9706 0 9 0C4.02944 0 0 4.02944 0 9V13ZM1.5 10C1.5 9.72386 1.72386 9.5 2 9.5H3C3.27614 9.5 3.5 9.72386 3.5 10V13C3.5 13.2761 3.27614 13.5 3 13.5H2C1.72386 13.5 1.5 13.2761 1.5 13V10ZM16.5 10C16.5 9.72386 16.2761 9.5 16 9.5H15C14.7239 9.5 14.5 9.72386 14.5 10V13C14.5 13.2761 14.7239 13.5 15 13.5H16C16.2761 13.5 16.5 13.2761 16.5 13V10Z" fill="#364141"/>
</svg>
