<svg width="18" height="17" viewBox="0 0 18 17" fill="none" xmlns="http://www.w3.org/2000/svg">
<path fill-rule="evenodd" clip-rule="evenodd" d="M9 3.69292L7.9338 2.6155C6.46196 1.12817 4.0822 1.12817 2.61035 2.61551C1.12988 4.11155 1.12988 6.54357 2.61035 8.03961L9 14.4965L15.3896 8.0396C16.8701 6.54355 16.8701 4.11154 15.3896 2.61549C13.9178 1.12817 11.538 1.12817 10.0662 2.6155L9 3.69292ZM8.91955 1.4808C6.85507 -0.519782 3.57642 -0.493242 1.54416 1.56041C-0.514719 3.64095 -0.514718 7.01417 1.54416 9.09471L7.94491 15.5628C8.52762 16.1517 9.47238 16.1517 10.0551 15.5628L16.4558 9.0947C18.5147 7.01416 18.5147 3.64094 16.4558 1.5604C14.4236 -0.493257 11.1449 -0.519782 9.08044 1.4808C9.05342 1.50699 9.0266 1.53353 9 1.56041C8.97339 1.53352 8.94657 1.50699 8.91955 1.4808Z" fill="#364141"/>
</svg>
