<svg width="18" height="17" viewBox="0 0 18 17" fill="none" xmlns="http://www.w3.org/2000/svg">
<path d="M6.6075 7.94L7.5 6.75L9.88 9.92333C10.19 10.3367 10.81 10.3367 11.12 9.92333L12.375 8.25H13.5V6.75H12.0125C11.7686 6.75 11.5389 6.86485 11.3925 7.06L10.5 8.25L8.12 5.07667C7.81 4.66333 7.19 4.66333 6.88 5.07667L5.625 6.75H4.5V8.25H5.9875C6.23143 8.25 6.46114 8.13515 6.6075 7.94Z" fill="#364141"/>
<path fill-rule="evenodd" clip-rule="evenodd" d="M1.54416 1.56041C3.57642 -0.493242 6.85507 -0.519782 8.91955 1.4808C8.94657 1.50699 8.97339 1.53352 9 1.56041C9.0266 1.53353 9.05342 1.50699 9.08044 1.4808C11.1449 -0.519782 14.4236 -0.493257 16.4558 1.5604C18.5147 3.64094 18.5147 7.01416 16.4558 9.0947L10.0551 15.5628C9.47238 16.1517 8.52762 16.1517 7.94491 15.5628L1.54416 9.09471C-0.514718 7.01417 -0.514719 3.64095 1.54416 1.56041ZM7.9338 2.6155L9 3.69292L10.0662 2.6155C11.538 1.12817 13.9178 1.12817 15.3896 2.61549C16.8701 4.11154 16.8701 6.54355 15.3896 8.0396L9 14.4965L2.61035 8.03961C1.12988 6.54357 1.12988 4.11155 2.61035 2.61551C4.0822 1.12817 6.46196 1.12817 7.9338 2.6155Z" fill="#364141"/>
</svg>
