<svg width="18" height="17" viewBox="0 0 18 17" fill="none" xmlns="http://www.w3.org/2000/svg">
<path fill-rule="evenodd" clip-rule="evenodd" d="M1.54416 1.56041C-0.514719 3.64095 -0.514718 7.01417 1.54416 9.09471L7.94491 15.5628C8.52762 16.1517 9.47238 16.1517 10.0551 15.5628L16.4558 9.0947C18.5147 7.01416 18.5147 3.64094 16.4558 1.5604C14.397 -0.52014 11.0589 -0.520129 9 1.56041C6.94112 -0.520129 3.60303 -0.520127 1.54416 1.56041ZM6.6504 7.87373L7.5 6.45774L9.83544 10.3501C10.1365 10.8518 10.8635 10.8518 11.1646 10.3501L12.4246 8.25H13.5V6.75H12.0142C11.7419 6.75 11.4897 6.89283 11.3496 7.12627L10.5 8.54226L8.16456 4.64986C7.86354 4.14816 7.13645 4.14817 6.83544 4.64986L5.57536 6.75H4.5V8.25H5.98585C6.25807 8.25 6.51034 8.10717 6.6504 7.87373Z" fill="#364141"/>
</svg>
