<svg width="18" height="15" viewBox="0 0 18 15" fill="none" xmlns="http://www.w3.org/2000/svg">
<path d="M8.25 3.5C8.25 3.91421 7.91421 4.25 7.5 4.25C7.08579 4.25 6.75 3.91421 6.75 3.5C6.75 3.08579 7.08579 2.75 7.5 2.75C7.91421 2.75 8.25 3.08579 8.25 3.5Z" fill="#364141"/>
<path fill-rule="evenodd" clip-rule="evenodd" d="M4.5 0C3.67157 0 3 0.671573 3 1.5V10.5C3 11.3284 3.67157 12 4.5 12H16.5C17.3284 12 18 11.3284 18 10.5V1.5C18 0.671573 17.3284 0 16.5 0H4.5ZM16.5 1.5H4.5V7.58362L7.53923 4.97857L9.16677 6.60611L12.9935 3.54477L16.5 6.27208V1.5ZM7.98826 7.54892L7.46077 7.02143L4.5 9.55924V10.5H16.5V8.17237L13.0065 5.45523L8.46852 9.08565L7.53148 7.91435L7.98826 7.54892Z" fill="#364141"/>
<path d="M0 4.99998C0 4.06806 0.637386 3.28501 1.5 3.06299V12C1.5 12.8284 2.17157 13.5 3 13.5H12.7915C12.4054 14.3827 11.5241 14.9994 10.499 14.9989L1.99917 14.9954C0.894924 14.9949 0 14.0997 0 12.9954V4.99998Z" fill="#364141"/>
</svg>
