<svg width="18" height="14" viewBox="0 0 18 14" fill="none" xmlns="http://www.w3.org/2000/svg">
<path fill-rule="evenodd" clip-rule="evenodd" d="M1.5 0C0.671573 0 0 0.671573 0 1.5V12.5C0 13.3284 0.671573 14 1.5 14H16.5C17.3284 14 18 13.3284 18 12.5V1.5C18 0.671573 17.3284 0 16.5 0H1.5ZM6 4C6.55228 4 7 3.55228 7 3C7 2.44772 6.55228 2 6 2C5.44771 2 5 2.44772 5 3C5 3.55228 5.44771 4 6 4ZM2 9.09101V11.1091L5.97286 7.53348L7.00276 8.56338L5.4932 9.94713L6.50678 11.0529L12.0047 6.01319L16 9.60903V7.59097L11.9954 3.98681L8.10954 7.54884L6.02722 5.46652L2 9.09101Z" fill="#364141"/>
</svg>
