<svg width="16" height="18" viewBox="0 0 16 18" fill="none" xmlns="http://www.w3.org/2000/svg">
<path fill-rule="evenodd" clip-rule="evenodd" d="M0 4.9797C0 4.02485 0.341569 3.1015 0.962973 2.37653L2.40136 0.698417C2.78132 0.255125 3.33602 0 3.91987 0H12.0801C12.664 0 13.2187 0.255125 13.5986 0.698417L15.037 2.37653C15.6584 3.1015 16 4.02485 16 4.9797V8.5C16 9.32843 15.3284 10 14.5 10H1.5C0.671573 10 0 9.32843 0 8.5V4.9797ZM2.10186 3.35272L3.54024 1.6746C3.63523 1.56378 3.77391 1.5 3.91987 1.5H12.0801C12.2261 1.5 12.3648 1.56378 12.4598 1.6746L13.8981 3.35272C13.9391 3.40048 13.9781 3.44961 14.0151 3.5H11.9142C11.649 3.5 11.3946 3.60536 11.2071 3.79289L9.57322 5.42678C9.52634 5.47366 9.46275 5.5 9.39645 5.5H6.60355C6.53725 5.5 6.47366 5.47366 6.42678 5.42678L4.79289 3.79289C4.60536 3.60536 4.351 3.5 4.08579 3.5H1.98493C2.02193 3.44961 2.06092 3.40048 2.10186 3.35272Z" fill="#364141"/>
<path d="M0 11.5H4.08579C4.351 11.5 4.60536 11.6054 4.79289 11.7929L6.42678 13.4268C6.47366 13.4737 6.53725 13.5 6.60355 13.5H9.39645C9.46275 13.5 9.52634 13.4737 9.57322 13.4268L11.2071 11.7929C11.3946 11.6054 11.649 11.5 11.9142 11.5H16V16.5C16 17.3284 15.3284 18 14.5 18H1.5C0.671573 18 0 17.3284 0 16.5V11.5Z" fill="#364141"/>
</svg>
