<svg width="18" height="18" viewBox="0 0 18 18" fill="none" xmlns="http://www.w3.org/2000/svg">
<path d="M9.96416 0.535746L9 3.74946H13.1596C13.4964 3.74946 13.6825 4.14028 13.4701 4.40169L8.69497 10.2789C8.42224 10.6146 7.88481 10.3387 7.99862 9.92144L9 6.2497H4.87598C4.53321 6.2497 4.34922 5.84676 4.57371 5.58773L9.27876 0.15883C9.56107 -0.166917 10.088 0.122867 9.96416 0.535746Z" fill="#364141"/>
<path d="M0.367038 10.0682L2.3501 6.62536L3.6499 7.37404L2.13752 9.9997H4.58579C4.851 9.9997 5.10536 10.1051 5.29289 10.2926L6.92678 11.9265C6.97366 11.9734 7.03725 11.9997 7.10355 11.9997H10.8964C10.9628 11.9997 11.0263 11.9734 11.0732 11.9265L12.7071 10.2926C12.8946 10.1051 13.149 9.9997 13.4142 9.9997H15.827L14.3463 7.3674L15.6537 6.63201L17.6468 10.1754C17.863 10.5597 17.9834 10.99 17.9984 11.4298C17.9995 11.453 18 11.4763 18 11.4997V16.4997C18 17.3281 17.3284 17.9997 16.5 17.9997H1.5C0.671573 17.9997 0 17.3281 0 16.4997V11.4408C0 10.959 0.12657 10.4857 0.367038 10.0682Z" fill="#364141"/>
</svg>
