<svg width="18" height="18" viewBox="0 0 18 18" fill="none" xmlns="http://www.w3.org/2000/svg">
<path d="M8.25 9.99999V3.81065L5.53033 6.53032L4.46967 5.46966L9 0.939331L13.5303 5.46966L12.4697 6.53032L9.75 3.81065V9.99999H8.25Z" fill="#364141"/>
<path fill-rule="evenodd" clip-rule="evenodd" d="M0.367038 10.0685L2.3501 6.62565L3.6499 7.37433L2.13752 9.99999H4.58579C4.851 9.99999 5.10536 10.1053 5.29289 10.2929L6.92678 11.9268C6.97366 11.9737 7.03725 12 7.10355 12H10.8964C10.9628 12 11.0263 11.9737 11.0732 11.9268L12.7071 10.2929C12.8946 10.1053 13.149 9.99999 13.4142 9.99999H15.827L14.3463 7.36769L15.6537 6.6323L17.6468 10.1757C17.863 10.56 17.9834 10.9903 17.9984 11.4301C17.9995 11.4532 18 11.4766 18 11.5V16.5C18 17.3284 17.3284 18 16.5 18H1.5C0.671573 18 0 17.3284 0 16.5V11.4411C0 10.9593 0.12657 10.4859 0.367038 10.0685ZM1.5 11.5H4.37868L5.86612 12.9874C6.19431 13.3156 6.63943 13.5 7.10355 13.5H10.8964C11.3606 13.5 11.8057 13.3156 12.1339 12.9874L13.6213 11.5H16.4998L16.5 11.5239V16.5H1.5L1.5 11.5Z" fill="#364141"/>
</svg>
