<svg width="18" height="17" viewBox="0 0 18 17" fill="none" xmlns="http://www.w3.org/2000/svg">
<path d="M8 9.44998V3.86419L5.70711 6.15709L4.29289 4.74287L9 0.0357666L13.7071 4.74287L12.2929 6.15709L10 3.86419V9.44998H8Z" fill="#364141"/>
<path d="M0.367038 9.06851L2.3501 5.62569L3.6499 6.37437L2.13752 9.00003H4.58579C4.851 9.00003 5.10536 9.10539 5.29289 9.29293L6.92678 10.9268C6.97366 10.9737 7.03725 11 7.10355 11H10.8964C10.9628 11 11.0263 10.9737 11.0732 10.9268L12.7071 9.29293C12.8946 9.10539 13.149 9.00003 13.4142 9.00003H15.827L14.3463 6.36773L15.6537 5.63234L17.6468 9.17572C17.863 9.56005 17.9834 9.99032 17.9984 10.4301C17.9995 10.4533 18 10.4766 18 10.5V15.5C18 16.3285 17.3284 17 16.5 17H1.5C0.671573 17 0 16.3285 0 15.5V10.4411C0 9.95932 0.12657 9.48599 0.367038 9.06851Z" fill="#364141"/>
</svg>
