<svg width="18" height="18" viewBox="0 0 18 18" fill="none" xmlns="http://www.w3.org/2000/svg">
<path fill-rule="evenodd" clip-rule="evenodd" d="M17.2071 2.20718L15.9142 3.50008L17.7071 5.29297L16.2929 6.70718L14.5 4.91429L13.4142 6.00008L15.2071 7.79297L13.7929 9.20718L12 7.41429L10.0317 9.38255C10.6424 10.2686 11 11.3426 11 12.5001C11 15.5376 8.53757 18.0001 5.5 18.0001C2.46243 18.0001 0 15.5376 0 12.5001C0 9.46251 2.46243 7.00008 5.5 7.00008C6.6575 7.00008 7.73148 7.35764 8.61752 7.96834L15.7929 0.792969L17.2071 2.20718ZM9 12.5001C9 14.4331 7.433 16.0001 5.5 16.0001C3.567 16.0001 2 14.4331 2 12.5001C2 10.5671 3.567 9.00008 5.5 9.00008C7.433 9.00008 9 10.5671 9 12.5001Z" fill="#364141"/>
</svg>
