<svg width="18" height="18" viewBox="0 0 18 18" fill="none" xmlns="http://www.w3.org/2000/svg">
<path fill-rule="evenodd" clip-rule="evenodd" d="M17.0026 2.02941L16.0354 2.99656L18.0009 4.96202L16.9402 6.02268L14.9748 4.05722L13.5396 5.49235L15.5051 7.45782L14.4444 8.51848L12.479 6.55301L9.86745 9.16454C10.5666 10.0859 10.9815 11.2348 10.9815 12.4806C10.9815 15.513 8.5232 17.9713 5.49075 17.9713C2.45829 17.9713 0 15.513 0 12.4806C0 9.44812 2.45829 6.98983 5.49075 6.98983C6.73654 6.98983 7.88544 7.40472 8.80679 8.10388L15.9419 0.96875L17.0026 2.02941ZM9.4815 12.4806C9.4815 14.6846 7.69478 16.4713 5.49075 16.4713C3.28672 16.4713 1.5 14.6846 1.5 12.4806C1.5 10.2765 3.28672 8.48983 5.49075 8.48983C7.69478 8.48983 9.4815 10.2765 9.4815 12.4806Z" fill="#364141"/>
</svg>
