<svg width="18" height="18" viewBox="0 0 18 18" fill="none" xmlns="http://www.w3.org/2000/svg">
<path fill-rule="evenodd" clip-rule="evenodd" d="M5.5 6V5H1V3H5.5V0H7.5V3H10V5H7.5V6C7.5 7.83829 6.79139 9.51108 5.63243 10.7601C6.0591 10.9153 6.51966 11 7 11H9.69775L11.5809 6.60608H13.4191L17.9191 17.1061L16.0809 17.8939L14.8406 15H10.1594L8.91914 17.8939L7.08085 17.1061L8.8406 13H7C5.85916 13 4.7927 12.6816 3.88461 12.1288C2.8815 12.684 1.72766 13 0.5 13H0V11H0.5C1.11996 11 1.71357 10.8872 2.26142 10.6809C1.47083 9.66463 1 8.3873 1 7H3C3 7.99504 3.36333 8.90522 3.96456 9.60512C4.911 8.69535 5.5 7.41646 5.5 6ZM12.5 9.53859L11.0165 13H13.9835L12.5 9.53859Z" fill="#364141"/>
</svg>
