<svg width="18" height="18" viewBox="0 0 18 18" fill="none" xmlns="http://www.w3.org/2000/svg">
<path fill-rule="evenodd" clip-rule="evenodd" d="M5.75 6V4.75H1V3.25H5.75V0H7.25V3.25H10V4.75H7.25V6C7.25 7.90298 6.46252 9.62204 5.19565 10.8491C5.74334 11.1063 6.35488 11.25 7 11.25H9.8626L11.8106 6.70456H13.1894L15.9945 13.25H16V13.2627L17.6894 17.2046L16.3106 17.7954L15.0055 14.75H10V14.7373L8.68936 17.7954L7.31064 17.2046L9.21974 12.75H7C5.85453 12.75 4.78729 12.4151 3.89088 11.8378C2.89446 12.4178 1.73603 12.75 0.5 12.75H0V11.25H0.5C1.27349 11.25 2.00791 11.0827 2.66906 10.7824C1.7854 9.7714 1.25 8.44822 1.25 7H2.75C2.75 8.15001 3.20676 9.19333 3.94876 9.95845C5.05252 8.99601 5.75 7.57946 5.75 6ZM12.5 8.90394L10.6374 13.25H14.3626L12.5 8.90394Z" fill="#364141"/>
</svg>
