<svg width="18" height="14" viewBox="0 0 18 14" fill="none" xmlns="http://www.w3.org/2000/svg">
<path d="M3.5 0C2.67157 0 2 0.671573 2 1.5V10.5H0C0 11.3284 0.671573 12 1.5 12H9.5V4.5C9.5 2.84315 10.8431 1.5 12.5 1.5H16C16 0.671573 15.3284 0 14.5 0H3.5Z" fill="#364141"/>
<path fill-rule="evenodd" clip-rule="evenodd" d="M11 4.5C11 3.67157 11.6716 3 12.5 3H16.5C17.3284 3 18 3.67157 18 4.5V12.5C18 13.3284 17.3284 14 16.5 14H12.5C11.6716 14 11 13.3284 11 12.5V4.5ZM15.25 11.75C15.25 12.1642 14.9142 12.5 14.5 12.5C14.0858 12.5 13.75 12.1642 13.75 11.75C13.75 11.3358 14.0858 11 14.5 11C14.9142 11 15.25 11.3358 15.25 11.75Z" fill="#364141"/>
</svg>
