<svg width="14" height="18" viewBox="0 0 14 18" fill="none" xmlns="http://www.w3.org/2000/svg">
<path fill-rule="evenodd" clip-rule="evenodd" d="M10.43 13.1035C12.5608 11.9034 14 9.61978 14 7C14 3.13401 10.866 0 7 0C3.13401 0 0 3.13401 0 7C0 9.6295 1.44985 11.9204 3.59375 13.1168V14.5819C3.59375 16.4697 5.1241 18 7.01188 18C8.89965 18 10.43 16.4697 10.43 14.5819V13.1035ZM12.5 7C12.5 9.02327 11.4078 10.7938 9.77493 11.75H4.22507C2.59224 10.7938 1.5 9.02327 1.5 7C1.5 3.96243 3.96243 1.5 7 1.5C10.0376 1.5 12.5 3.96243 12.5 7ZM5.09375 13.25V14.5819C5.09375 15.6412 5.95252 16.5 7.01188 16.5C8.07123 16.5 8.93 15.6412 8.93 14.5819V13.25H5.09375Z" fill="#364141"/>
</svg>
