<svg width="18" height="18" viewBox="0 0 18 18" fill="none" xmlns="http://www.w3.org/2000/svg">
<path d="M12.143 11.7289C12.7129 11.5078 13.2472 11.1672 13.7072 10.7072L16.2072 8.20724C17.9784 6.43601 17.9784 3.56426 16.2072 1.79303C14.4359 0.0217891 11.5642 0.0217919 9.79296 1.79303L8.79297 2.79303L10.2072 4.20724L11.2072 3.20724C12.1974 2.21705 13.8028 2.21705 14.793 3.20724C15.7832 4.19743 15.7832 5.80284 14.793 6.79303L12.293 9.29303C11.785 9.80103 11.115 10.0484 10.4493 10.0352L7.88152 7.46735C8.56934 7.43536 9.26771 7.68199 9.79297 8.20724L11.2072 6.79303C9.86294 5.44879 7.88486 5.12473 6.23501 5.82084L1.70718 1.29301L0.292969 2.70723L14.793 17.2072L16.2072 15.793L12.143 11.7289Z" fill="#364141"/>
<path d="M3.58587 8.00013L5.00008 9.41434L3.20718 11.2072C2.21699 12.1974 2.21699 13.8028 3.20718 14.793C4.19737 15.7832 5.80278 15.7832 6.79297 14.793L7.79297 13.793L9.20718 15.2072L8.20718 16.2072C6.43595 17.9785 3.5642 17.9785 1.79297 16.2072C0.0217295 14.436 0.0217278 11.5643 1.79296 9.79303L3.58587 8.00013Z" fill="#364141"/>
</svg>
