<svg width="18" height="18" viewBox="0 0 18 18" fill="none" xmlns="http://www.w3.org/2000/svg">
<path d="M11.6811 11.6203C12.3583 11.4268 12.9971 11.0635 13.5304 10.5302L16.0304 8.03022C17.704 6.35662 17.704 3.64317 16.0304 1.96956C14.3568 0.295953 11.6433 0.295955 9.96972 1.96956L8.96972 2.96956L10.0304 4.03022L11.0304 3.03022C12.1182 1.9424 13.8819 1.9424 14.9697 3.03022C16.0575 4.11804 16.0575 5.88174 14.9697 6.96956L12.4697 9.46956C11.8855 10.0537 11.1065 10.3242 10.3418 10.281L7.35137 7.29053C8.26149 7.07355 9.25961 7.32011 9.96972 8.03022L11.0304 6.96956C9.71853 5.6577 7.76777 5.37415 6.17972 6.11888L1.53039 1.46955L0.469727 2.53021L14.9697 17.0302L16.0304 15.9695L11.6811 11.6203Z" fill="#364141"/>
<path d="M3.9394 7.99988L5.00006 9.06054L3.03038 11.0302C1.94256 12.118 1.94256 13.8817 3.03038 14.9696C4.1182 16.0574 5.88191 16.0574 6.96973 14.9696L7.96972 13.9696L9.03038 15.0302L8.03039 16.0302C6.35678 17.7038 3.64333 17.7038 1.96972 16.0302C0.296118 14.3566 0.296117 11.6432 1.96972 9.96956L3.9394 7.99988Z" fill="#364141"/>
</svg>
