<svg width="18" height="18" viewBox="0 0 18 18" fill="none" xmlns="http://www.w3.org/2000/svg">
<path d="M6.79278 11.207C8.56402 12.9782 11.4358 12.9782 13.207 11.207L16.207 8.20699C17.9782 6.43576 17.9782 3.56402 16.207 1.79278C14.4358 0.0215449 11.564 0.0215478 9.79278 1.79278L8.79278 2.79278L10.207 4.207L11.207 3.207C12.1972 2.21681 13.8026 2.21681 14.7928 3.207C15.783 4.19718 15.783 5.80259 14.7928 6.79278L11.7928 9.79278C10.8026 10.783 9.19719 10.783 8.207 9.79278L6.79278 11.207Z" fill="#364141"/>
<path d="M11.207 6.79278C9.43576 5.02154 6.56402 5.02155 4.79278 6.79278L1.79278 9.79278C0.0215454 11.564 0.0215471 14.4358 1.79278 16.207C3.56402 17.9782 6.43576 17.9782 8.207 16.207L9.207 15.207L7.79278 13.7928L6.79279 14.7928C5.8026 15.783 4.19718 15.783 3.207 14.7928C2.21681 13.8026 2.21681 12.1972 3.207 11.207L6.207 8.207C7.19718 7.21681 8.8026 7.21681 9.79278 8.207L11.207 6.79278Z" fill="#364141"/>
</svg>
