<svg width="18" height="18" viewBox="0 0 18 18" fill="none" xmlns="http://www.w3.org/2000/svg">
<path d="M6.96956 11.0302C8.64317 12.7038 11.3566 12.7038 13.0302 11.0302L16.0302 8.03022C17.7038 6.35661 17.7038 3.64316 16.0302 1.96956C14.3566 0.295953 11.6432 0.295955 9.96956 1.96956L8.96956 2.96956L10.0302 4.03022L11.0302 3.03022C12.118 1.9424 13.8817 1.9424 14.9696 3.03022C16.0574 4.11804 16.0574 5.88174 14.9696 6.96956L11.9696 9.96956C10.8817 11.0574 9.11804 11.0574 8.03022 9.96956L6.96956 11.0302Z" fill="#364141"/>
<path d="M11.0302 6.96956C9.35661 5.29595 6.64316 5.29596 4.96956 6.96956L1.96956 9.96956C0.295953 11.6432 0.295955 14.3566 1.96956 16.0302C3.64317 17.7038 6.35662 17.7038 8.03022 16.0302L9.03022 15.0302L7.96956 13.9696L6.96956 14.9696C5.88174 16.0574 4.11804 16.0574 3.03022 14.9696C1.9424 13.8817 1.9424 12.118 3.03022 11.0302L6.03022 8.03022C7.11804 6.9424 8.88174 6.9424 9.96956 8.03022L11.0302 6.96956Z" fill="#364141"/>
</svg>
