<svg width="18" height="18" viewBox="0 0 18 18" fill="none" xmlns="http://www.w3.org/2000/svg">
<path d="M8.77352 0.235581C8.8633 0.0432177 9.13683 0.0432181 9.22661 0.235581L9.59802 1.0314C9.62285 1.08461 9.66562 1.12738 9.71883 1.15222L10.5147 1.52363C10.707 1.6134 10.707 1.88694 10.5147 1.97671L9.71883 2.34812C9.66562 2.37296 9.62285 2.41573 9.59802 2.46894L9.22661 3.26476C9.13683 3.45712 8.8633 3.45712 8.77352 3.26476L8.40211 2.46894C8.37728 2.41573 8.33451 2.37296 8.2813 2.34812L7.48548 1.97671C7.29311 1.88694 7.29311 1.6134 7.48548 1.52363L8.2813 1.15222C8.33451 1.12738 8.37728 1.08461 8.40211 1.0314L8.77352 0.235581Z" fill="#364141"/>
<path d="M3.52352 1.23558C3.6133 1.04322 3.88683 1.04322 3.97661 1.23558L4.66621 2.7132C4.69105 2.76641 4.73382 2.80918 4.78703 2.83402L6.26465 3.52363C6.45701 3.6134 6.45701 3.88694 6.26465 3.97671L4.78703 4.66632C4.73382 4.69115 4.69105 4.73392 4.66621 4.78713L3.97661 6.26476C3.88683 6.45712 3.6133 6.45712 3.52352 6.26476L2.83391 4.78713C2.80908 4.73392 2.76631 4.69115 2.7131 4.66632L1.23548 3.97671C1.04311 3.88694 1.04311 3.6134 1.23548 3.52363L2.7131 2.83402C2.76631 2.80918 2.80908 2.76641 2.83391 2.7132L3.52352 1.23558Z" fill="#364141"/>
<path d="M13.9766 11.2356C13.8868 11.0432 13.6133 11.0432 13.5235 11.2356L12.8339 12.7132C12.8091 12.7664 12.7663 12.8092 12.7131 12.834L11.2355 13.5236C11.0431 13.6134 11.0431 13.8869 11.2355 13.9767L12.7131 14.6663C12.7663 14.6912 12.8091 14.7339 12.8339 14.7871L13.5235 16.2648C13.6133 16.4571 13.8868 16.4571 13.9766 16.2648L14.6662 14.7871C14.691 14.7339 14.7338 14.6912 14.787 14.6663L16.2647 13.9767C16.457 13.8869 16.457 13.6134 16.2647 13.5236L14.787 12.834C14.7338 12.8092 14.691 12.7664 14.6662 12.7132L13.9766 11.2356Z" fill="#364141"/>
<path fill-rule="evenodd" clip-rule="evenodd" d="M1.06071 13.4392C0.474893 14.0251 0.474868 14.9749 1.06068 15.5607L2.43936 16.9393C3.02514 17.5251 3.97489 17.5251 4.56068 16.9393L16.9394 4.56066C17.5251 3.97487 17.5251 3.02513 16.9394 2.43934L15.5607 1.06066C14.9749 0.474874 14.0251 0.474873 13.4394 1.06066L1.06071 13.4392ZM11.341 5.28033L12.7197 6.65901L15.8787 3.5L14.5 2.12132L11.341 5.28033Z" fill="#364141"/>
</svg>
