<svg width="18" height="18" viewBox="0 0 18 18" fill="none" xmlns="http://www.w3.org/2000/svg">
<path fill-rule="evenodd" clip-rule="evenodd" d="M12.9114 13.9719C11.5471 15.0997 9.797 15.7773 7.88866 15.7773C3.53187 15.7773 0 12.2454 0 7.88866C0 3.53187 3.53187 0 7.88866 0C12.2454 0 15.7773 3.53187 15.7773 7.88866C15.7773 9.79694 15.0997 11.547 13.9721 12.9113L17.9981 16.9374L16.9375 17.998L12.9114 13.9719ZM14.2773 7.88866C14.2773 11.417 11.417 14.2773 7.88866 14.2773C4.3603 14.2773 1.5 11.417 1.5 7.88866C1.5 4.3603 4.3603 1.5 7.88866 1.5C11.417 1.5 14.2773 4.3603 14.2773 7.88866Z" fill="#364141"/>
</svg>
