<svg width="18" height="18" viewBox="0 0 18 18" fill="none" xmlns="http://www.w3.org/2000/svg">
<path d="M12.1951 7.46505C12.1951 7.39185 12.1951 7.31863 12.1895 7.24543C12.5462 7.0049 12.8576 6.70687 13.1067 6.37224C12.7783 6.50295 12.4216 6.59709 12.0536 6.63367C12.4329 6.42453 12.7217 6.09512 12.8576 5.70295C12.5065 5.89641 12.1102 6.0376 11.6968 6.1108C11.3628 5.78138 10.8871 5.57746 10.3605 5.57746C9.34698 5.57746 8.5316 6.33562 8.5316 7.26636C8.5316 7.39708 8.5486 7.52779 8.5769 7.65328C7.05942 7.58006 5.70612 6.91079 4.80581 5.88595C4.64726 6.13693 4.55668 6.42452 4.55668 6.73824C4.55668 7.32386 4.87941 7.84151 5.37204 8.14478C5.07196 8.13434 4.78882 8.05591 4.54535 7.93041V7.95132C4.54535 8.77224 5.17388 9.45197 6.0119 9.60885C5.85903 9.64543 5.69481 9.66635 5.53061 9.66635C5.41169 9.66635 5.29845 9.65589 5.18519 9.64022C5.41735 10.3095 6.09117 10.7958 6.89522 10.8115C6.2667 11.2664 5.47963 11.533 4.62463 11.533C4.47174 11.533 4.3302 11.5278 4.18297 11.5121C4.99269 11.9932 5.95527 12.2703 6.99148 12.2703C10.3549 12.2703 12.1951 9.69772 12.1951 7.46505Z" fill="#364141"/>
<path fill-rule="evenodd" clip-rule="evenodd" d="M8.6449 17.2898C10.6718 17.2898 12.5358 16.5922 14.0099 15.4241L16.5826 17.9968L17.9968 16.5826L15.4241 14.0099C16.5922 12.5358 17.2898 10.6718 17.2898 8.6449C17.2898 3.87046 13.4194 0 8.6449 0C3.87046 0 0 3.87046 0 8.6449C0 13.4194 3.87046 17.2898 8.6449 17.2898ZM8.6449 15.2898C12.3148 15.2898 15.2898 12.3148 15.2898 8.6449C15.2898 4.97502 12.3148 2 8.6449 2C4.97502 2 2 4.97502 2 8.6449C2 12.3148 4.97502 15.2898 8.6449 15.2898Z" fill="#364141"/>
</svg>
