<svg width="22" height="18" viewBox="0 0 22 18" fill="none" xmlns="http://www.w3.org/2000/svg">
<path d="M13.346 10.3432C11.8825 9.95106 10.9183 8.62563 10.9222 7.17884L12.4704 7.59367C12.616 8.20553 13.0841 8.72011 13.7342 8.89432C14.3844 9.06852 15.047 8.85691 15.479 8.39983L17.0272 8.81466C16.3072 10.0696 14.8095 10.7353 13.346 10.3432Z" fill="#364141"/>
<path d="M12.8185 4.58112C13.4854 4.7598 13.8811 5.44522 13.7024 6.11206L11.2876 5.46501C11.4663 4.79818 12.1517 4.40245 12.8185 4.58112Z" fill="#364141"/>
<path d="M16.6822 5.6164C17.3491 5.79508 17.7448 6.4805 17.5661 7.14733L15.1513 6.50028C15.33 5.83345 16.0154 5.43772 16.6822 5.6164Z" fill="#364141"/>
<path fill-rule="evenodd" clip-rule="evenodd" d="M9.57133 1.24505C9.66937 0.87918 9.96649 0.603385 10.3443 0.576602C11.246 0.512685 13.1166 0.519893 15.7857 1.23506C18.4547 1.95022 20.0783 2.87931 20.8272 3.38549C21.1411 3.5976 21.2605 3.98501 21.1624 4.35087L19.5471 10.3794C19.2009 11.6713 18.2321 12.7047 16.9652 13.1332L12.7937 14.5444C12.4113 14.6738 11.9886 14.5605 11.7221 14.2573L8.81509 10.9494C7.93222 9.94482 7.60984 8.56545 7.95599 7.27361L9.57133 1.24505ZM15.3974 2.68395C17.4754 3.24073 18.8433 3.92672 19.601 4.38254L18.0982 9.99121C17.8819 10.7986 17.2763 11.4445 16.4845 11.7123L12.6288 13.0167L9.94181 9.95922C9.39002 9.33134 9.18853 8.46924 9.40487 7.66184L10.9077 2.05317C11.7918 2.03728 13.3195 2.12716 15.3974 2.68395Z" fill="#364141"/>
<path d="M5.28205 4.48748C5.89572 4.32305 6.46351 4.20036 6.9828 4.10988L6.55065 5.72267C6.27075 5.7834 5.97716 5.85414 5.67027 5.93637C3.5528 6.50375 2.25659 7.22833 1.64977 7.62848C1.63802 7.63623 1.62953 7.6459 1.62317 7.66467C1.61584 7.68632 1.61137 7.723 1.62387 7.76966L2.90263 12.5421C3.18388 13.5917 3.97109 14.4313 5.00043 14.7795L8.11691 15.8338C8.22085 15.8689 8.33558 15.8322 8.39977 15.7432L8.89178 15.0611C9.13411 14.7252 9.60288 14.6493 9.93881 14.8917C10.2747 15.134 10.3506 15.6028 10.1083 15.9387L9.6163 16.6208C9.16692 17.2437 8.36385 17.5008 7.63623 17.2547L4.51976 16.2004C3.01533 15.6915 1.86479 14.4643 1.45374 12.9303L0.174983 8.15789C0.00527061 7.52451 0.201624 6.78664 0.824015 6.37623C1.55791 5.89229 3.00092 5.09871 5.28205 4.48748Z" fill="#364141"/>
<path d="M8.80386 12.2088L7.68835 10.9395C6.43158 11.4388 5.62523 12.6595 5.62879 13.9824L7.17697 13.5676C7.32258 12.9557 7.79064 12.4411 8.44079 12.2669C8.5619 12.2345 8.68345 12.2154 8.80386 12.2088Z" fill="#364141"/>
<path d="M4.00843 9.68229C4.1871 10.3491 4.87253 10.7449 5.53936 10.5662C6.20619 10.3875 6.60192 9.70208 6.42324 9.03525L4.00843 9.68229Z" fill="#364141"/>
</svg>
