<svg width="23" height="18" viewBox="0 0 23 18" fill="none" xmlns="http://www.w3.org/2000/svg">
<path fill-rule="evenodd" clip-rule="evenodd" d="M10.5713 1.24505C10.6693 0.87918 10.9664 0.603385 11.3443 0.576602C12.2459 0.512685 14.1166 0.519893 16.7856 1.23506C19.4547 1.95022 21.0783 2.87931 21.8272 3.38549C22.141 3.5976 22.2604 3.98501 22.1624 4.35087L20.547 10.3794C20.2009 11.6713 19.232 12.7047 17.9651 13.1332L13.7937 14.5444C13.4113 14.6738 12.9886 14.5605 12.7221 14.2573L9.81504 10.9494C8.93217 9.94482 8.60979 8.56545 8.95594 7.27361L10.5713 1.24505ZM14.7024 6.11194C14.8811 5.4451 14.4853 4.75968 13.8185 4.581C13.1517 4.40233 12.4663 4.79806 12.2876 5.46489L14.7024 6.11194ZM18.5661 7.14721C18.7448 6.48038 18.3491 5.79496 17.6822 5.61628C17.0154 5.4376 16.33 5.83333 16.1513 6.50016L18.5661 7.14721ZM14.346 10.343C12.8825 9.95085 11.9183 8.62542 11.9222 7.17862L13.4704 7.59345C13.616 8.20532 14.084 8.7199 14.7342 8.8941C15.3843 9.06831 16.047 8.8567 16.479 8.39962L18.0272 8.81445C17.3072 10.0694 15.8095 10.7351 14.346 10.343Z" fill="#364141"/>
<path fill-rule="evenodd" clip-rule="evenodd" d="M6.02757 4.62447C6.84472 4.40552 7.58341 4.25614 8.23825 4.15625L7.50703 6.88521C7.15555 8.19693 7.30536 9.57429 7.89663 10.7613C7.77919 10.7794 7.66156 10.804 7.54414 10.8355C6.08065 11.2276 5.11647 12.5531 5.12037 13.9999L6.66854 13.585C6.81416 12.9732 7.28221 12.4586 7.93237 12.2844C8.31766 12.1811 8.70734 12.2134 9.05082 12.3519L11.539 15.1832L9.92357 17.0213C9.65707 17.3246 9.23438 17.4378 8.85197 17.3085L4.99637 16.0042C3.72948 15.5756 2.7606 14.5422 2.41446 13.2504L0.906821 7.62381C0.808787 7.25795 0.928205 6.87062 1.24273 6.65957C1.9672 6.17344 3.50964 5.29915 6.02757 4.62447ZM3.50001 9.18205C3.67869 9.84889 4.36411 10.2446 5.03094 10.0659C5.69778 9.88726 6.0935 9.20184 5.91483 8.53501L3.50001 9.18205Z" fill="#364141"/>
</svg>
