<svg width="18" height="15" viewBox="0 0 18 15" fill="none" xmlns="http://www.w3.org/2000/svg">
<path fill-rule="evenodd" clip-rule="evenodd" d="M1.5 10.0001H4.75332C4.82213 12.0281 5.95677 13.876 7.7466 14.8523L7.89086 14.931L8.60914 13.6142L8.46488 13.5355C7.15699 12.8221 6.32244 11.4789 6.25449 10.0001H7.5L14.2647 13.608C14.5978 13.7856 15 13.5442 15 13.1668V0.833454C15 0.455993 14.5978 0.21465 14.2647 0.392278L7.5 4.00012H1.5C0.671573 4.00012 0 4.67169 0 5.50012V8.50012C0 9.32855 0.671573 10.0001 1.5 10.0001ZM7.875 5.50012H6.25V8.50012H7.875L13.5 11.5001V2.50012L7.875 5.50012ZM1.5 5.50012H4.75V8.50012H1.5L1.5 5.50012Z" fill="#364141"/>
<path d="M16.5 4.50012V9.50012C17.3284 9.50012 18 8.82855 18 8.00012V6.00012C18 5.17169 17.3284 4.50012 16.5 4.50012Z" fill="#364141"/>
</svg>
