<svg width="18" height="16" viewBox="0 0 18 16" fill="none" xmlns="http://www.w3.org/2000/svg">
<path d="M7.5 4.00012L14.2647 0.392278C14.5978 0.21465 15 0.455993 15 0.833454V13.1668C15 13.5442 14.5978 13.7856 14.2647 13.608L7.5 10.0001H6.50477C6.57251 11.3874 7.35704 12.6464 8.58459 13.316L8.72885 13.3947L7.77115 15.1505L7.62689 15.0718C5.75673 14.0517 4.57209 12.1196 4.50318 10.0001H1.5C0.671573 10.0001 0 9.32855 0 8.50012V5.50012C0 4.67169 0.671573 4.00012 1.5 4.00012H7.5Z" fill="#364141"/>
<path d="M16.5 4.50012V9.50012C17.3284 9.50012 18 8.82855 18 8.00012V6.00012C18 5.17169 17.3284 4.50012 16.5 4.50012Z" fill="#364141"/>
</svg>
