<svg width="14" height="18" viewBox="0 0 14 18" fill="none" xmlns="http://www.w3.org/2000/svg">
<path d="M8 14C8 14.5523 7.55228 15 7 15C6.44772 15 6 14.5523 6 14C6 13.4477 6.44772 13 7 13C7.55228 13 8 13.4477 8 14Z" fill="#364141"/>
<path fill-rule="evenodd" clip-rule="evenodd" d="M1.5 0C0.671573 0 0 0.671573 0 1.5V16.5C0 17.3284 0.671573 18 1.5 18H12.5C13.3284 18 14 17.3284 14 16.5V1.5C14 0.671573 13.3284 0 12.5 0H1.5ZM4.25 1.5H1.5L1.5 16.5H12.5V1.5H9.75L9.41459 2.17082C9.1605 2.679 8.64111 3 8.07295 3H5.92705C5.35889 3 4.8395 2.679 4.58541 2.17082L4.25 1.5Z" fill="#364141"/>
</svg>
