<svg width="14" height="18" viewBox="0 0 14 18" fill="none" xmlns="http://www.w3.org/2000/svg">
<path fill-rule="evenodd" clip-rule="evenodd" d="M1.5 0C0.671573 0 0 0.671573 0 1.5V16.5C0 17.3284 0.671573 18 1.5 18H12.5C13.3284 18 14 17.3284 14 16.5V1.5C14 0.671573 13.3284 0 12.5 0H1.5ZM3.58541 3.17082L3 2H11L10.4146 3.17082C10.1605 3.679 9.64111 4 9.07295 4H4.92705C4.35889 4 3.8395 3.679 3.58541 3.17082ZM8 15C8 15.5523 7.55228 16 7 16C6.44772 16 6 15.5523 6 15C6 14.4477 6.44772 14 7 14C7.55228 14 8 14.4477 8 15Z" fill="#364141"/>
</svg>
