<svg width="16" height="16" viewBox="0 0 16 16" fill="none" xmlns="http://www.w3.org/2000/svg">
<path d="M0 1.5C0 0.671573 0.671573 0 1.5 0H5.5C6.32843 0 7 0.671573 7 1.5V14.5C7 15.3284 6.32843 16 5.5 16H1.5C0.671573 16 0 15.3284 0 14.5V1.5Z" fill="#364141"/>
<path d="M9 1.5C9 0.671573 9.67157 0 10.5 0H14.5C15.3284 0 16 0.671573 16 1.5V4C16 4.82843 15.3284 5.5 14.5 5.5H10.5C9.67157 5.5 9 4.82843 9 4V1.5Z" fill="#364141"/>
<path d="M10.5 7.5C9.67157 7.5 9 8.17157 9 9V14.5C9 15.3284 9.67157 16 10.5 16H14.5C15.3284 16 16 15.3284 16 14.5V9C16 8.17157 15.3284 7.5 14.5 7.5H10.5Z" fill="#364141"/>
</svg>
