<svg width="18" height="14" viewBox="0 0 18 14" fill="none" xmlns="http://www.w3.org/2000/svg">
<path fill-rule="evenodd" clip-rule="evenodd" d="M6 3.25V7.75H10.5V3.25H6ZM9 4.75H7.5V6.25H9V4.75Z" fill="#364141"/>
<path d="M12 4.75H15V3.25H12V4.75Z" fill="#364141"/>
<path d="M15 7.75H12V6.25H15V7.75Z" fill="#364141"/>
<path d="M6 9.25V10.75L15 10.75V9.25L6 9.25Z" fill="#364141"/>
<path fill-rule="evenodd" clip-rule="evenodd" d="M3 1.5C3 0.671573 3.67157 0 4.5 0H16.5C17.3284 0 18 0.671573 18 1.5V12.5C18 13.3284 17.3284 14 16.5 14H3V1.5ZM4.5 1.5H16.5V12.5H4.5V1.5Z" fill="#364141"/>
<path d="M0 3.5H1.5V14C0.671573 14 0 13.3284 0 12.5V3.5Z" fill="#364141"/>
</svg>
