<svg width="16" height="16" viewBox="0 0 16 16" fill="none" xmlns="http://www.w3.org/2000/svg">
<path fill-rule="evenodd" clip-rule="evenodd" d="M0 1.5C0 0.671573 0.671573 0 1.5 0H14.5C15.3284 0 16 0.671573 16 1.5V6C16 11.5228 11.5228 16 6 16H1.5C0.671573 16 0 15.3284 0 14.5V1.5ZM6 14.5H1.5V1.5H14.5V6C14.5 6.27614 14.2761 6.5 14 6.5H10C8.067 6.5 6.5 8.067 6.5 10V14C6.5 14.2761 6.27614 14.5 6 14.5ZM14.2676 7.98225C14.1801 7.99396 14.0907 8 14 8H10C8.89543 8 8 8.89543 8 10V14C8 14.0907 7.99396 14.1801 7.98225 14.2676C11.0846 13.5265 13.5265 11.0846 14.2676 7.98225Z" fill="#364141"/>
</svg>
