<svg width="17" height="16" viewBox="0 0 17 16" fill="none" xmlns="http://www.w3.org/2000/svg">
<path d="M0.710999 2.04915L1.5899 1.44345V3.2041H0.710999V4.0999H3.49645V3.2041H2.66149V0.376953H1.65859L0.710999 1.035V2.04915Z" fill="#364141"/>
<path d="M17 3H5.99997V1H17V3Z" fill="#364141"/>
<path d="M5.99997 9H17V7H5.99997V9Z" fill="#364141"/>
<path d="M5.99997 15H17V13H5.99997V15Z" fill="#364141"/>
<path fill-rule="evenodd" clip-rule="evenodd" d="M0.527893 7.44512V7.33047C0.527893 6.95099 0.677022 6.62928 0.939289 6.40381C1.20024 6.17947 1.56614 6.05615 1.99264 6.05615C2.40264 6.05615 2.75521 6.16563 3.00756 6.36591C3.26182 6.5677 3.40856 6.85761 3.40856 7.20107C3.40856 7.64443 3.14135 8.02469 2.52005 8.57016L2.08561 8.95166H3.45739V9.8499H0.579163V9.10784L1.72478 8.05517C1.98016 7.82057 2.13619 7.66315 2.22861 7.5404C2.31831 7.42126 2.34186 7.343 2.34186 7.26455C2.34186 7.16143 2.30418 7.08118 2.24257 7.02582C2.18001 6.96961 2.08512 6.93242 1.9609 6.93242C1.83253 6.93242 1.73027 6.97556 1.66064 7.04307C1.59121 7.11039 1.54821 7.20769 1.54821 7.32803V7.44512H0.527893ZM1.69657 6.17838C1.04704 6.27916 0.627899 6.71638 0.627899 7.33057C0.627899 7.30172 0.628818 7.27317 0.630647 7.24512C0.667773 6.67595 1.07755 6.2744 1.69657 6.17838Z" fill="#364141"/>
<path fill-rule="evenodd" clip-rule="evenodd" d="M1.47028 13.5405V14.3582H2.00485C2.15914 14.3582 2.27642 14.3966 2.35251 14.4542C2.42615 14.51 2.46637 14.587 2.46637 14.683C2.46637 14.7791 2.42615 14.8561 2.35251 14.9118C2.27642 14.9694 2.15914 15.0078 2.00485 15.0078C1.85364 15.0078 1.74128 14.9716 1.66785 14.9165C1.59686 14.8632 1.55526 14.7873 1.55053 14.688L1.546 14.5928H0.525635L0.530439 14.6974C0.54755 15.0699 0.703377 15.3791 0.969483 15.5937C1.23396 15.8069 1.59969 15.9207 2.02926 15.9207C2.47204 15.9207 2.85075 15.8101 3.12143 15.6068C3.39444 15.4017 3.5526 15.1053 3.5526 14.7514C3.5526 14.5013 3.47321 14.285 3.32072 14.1241C3.2262 14.0244 3.10667 13.9491 2.9672 13.8998C3.25224 13.7507 3.4232 13.4596 3.4232 13.1059C3.4232 12.7866 3.27775 12.5199 3.02746 12.3362C2.77969 12.1543 2.43362 12.0562 2.02926 12.0562C1.60518 12.0562 1.24995 12.166 0.997379 12.3773C0.742915 12.5902 0.602823 12.8978 0.596267 13.2701L0.594476 13.3719H1.57152L1.575 13.2755C1.57893 13.1663 1.62171 13.0817 1.69094 13.0233C1.76139 12.9638 1.86692 12.9251 2.00485 12.9251C2.14871 12.9251 2.25171 12.9601 2.31659 13.0119C2.37872 13.0615 2.4151 13.1336 2.4151 13.2328C2.4151 13.332 2.37872 13.4041 2.31659 13.4537C2.25171 13.5056 2.14871 13.5405 2.00485 13.5405H1.47028ZM2.68964 13.9393C2.73447 13.9444 2.77759 13.9516 2.81894 13.961C3.05023 14.0134 3.22596 14.1321 3.33302 14.3024C3.2056 14.0997 2.98092 13.9703 2.68112 13.9385L2.68964 13.9393ZM1.50861 12.2241C1.03608 12.3601 0.74464 12.6946 0.701581 13.1719C0.698634 13.2045 0.696857 13.238 0.696259 13.272C0.7056 12.7414 1.00373 12.3695 1.50861 12.2241Z" fill="#364141"/>
</svg>
