<svg width="17" height="17" viewBox="0 0 17 17" fill="none" xmlns="http://www.w3.org/2000/svg">
<path fill-rule="evenodd" clip-rule="evenodd" d="M11.3033 10.0001H2.12134L6.71233 14.591L11.3033 10.0001ZM0.560677 8.4394L4.46969 4.53039L1.96969 2.03039L3.03035 0.969727L5.53035 3.46973L7.64646 1.35361C7.84173 1.15835 8.15831 1.15835 8.35357 1.35361L14.8588 7.85882C15.054 8.05408 15.054 8.37066 14.8588 8.56592L7.77299 15.6517C7.1872 16.2375 6.23746 16.2375 5.65167 15.6517L0.560678 10.5607C-0.025108 9.97493 -0.0251095 9.02518 0.560677 8.4394ZM15 10.7501L13.549 12.3824C13.1954 12.7803 13 13.2941 13 13.8265V14.0001C13 15.1046 13.8954 16.0001 15 16.0001C16.1046 16.0001 17 15.1046 17 14.0001V13.8265C17 13.2941 16.8047 12.7803 16.451 12.3824L15 10.7501Z" fill="#364141"/>
</svg>
