<svg width="18" height="17" viewBox="0 0 18 17" fill="none" xmlns="http://www.w3.org/2000/svg">
<path fill-rule="evenodd" clip-rule="evenodd" d="M0.560677 8.4394L4.46969 4.53039L1.96969 2.03039L3.03035 0.969727L5.53035 3.46973L7.64646 1.35361C7.84173 1.15835 8.15831 1.15835 8.35357 1.35361L14.8588 7.85882C15.054 8.05408 15.054 8.37066 14.8588 8.56592L7.77299 15.6517C7.1872 16.2375 6.23746 16.2375 5.65167 15.6517L0.560678 10.5607C-0.0251079 9.97493 -0.0251094 9.02518 0.560677 8.4394ZM6.96969 7.03039L5.53035 5.59105L1.62134 9.50006H11.8033L13.091 8.21237L8.00002 3.12138L6.59101 4.53039L8.03035 5.96973L6.96969 7.03039Z" fill="#364141"/>
<path fill-rule="evenodd" clip-rule="evenodd" d="M15.25 9.86111L13.3852 11.9923C12.9757 12.4603 12.75 13.061 12.75 13.6828V13.7501C12.75 15.1308 13.8693 16.2501 15.25 16.2501C16.6307 16.2501 17.75 15.1308 17.75 13.7501V13.6828C17.75 13.061 17.5243 12.4603 17.1148 11.9923L15.25 9.86111ZM14.5141 12.9801L15.25 12.139L15.986 12.9801C16.1562 13.1746 16.25 13.4243 16.25 13.6828V13.7501C16.25 14.3023 15.8023 14.7501 15.25 14.7501C14.6977 14.7501 14.25 14.3023 14.25 13.7501V13.6828C14.25 13.4243 14.3438 13.1746 14.5141 12.9801Z" fill="#364141"/>
</svg>
