<svg width="18" height="19" viewBox="0 0 18 19" fill="none" xmlns="http://www.w3.org/2000/svg">
<path d="M11.5 0.914434V0H10V3.75H13.5V2.25H12.2558C12.7211 1.78623 13.3629 1.5 14.0708 1.5C15.1596 1.5 16.0921 2.17718 16.4666 3.13604L17.8638 2.59038C17.2721 1.07536 15.798 0 14.0708 0C13.0954 0 12.2006 0.34298 11.5 0.914434Z" fill="#364141"/>
<path d="M16.5 7.08557V8H18V4.25H14.5V5.75H15.7442C15.2789 6.21377 14.6371 6.5 13.9292 6.5C12.8404 6.5 11.9079 5.82282 11.5334 4.86396L10.1362 5.40962C10.7279 6.92464 12.202 8 13.9292 8C14.9046 8 15.7994 7.65702 16.5 7.08557Z" fill="#364141"/>
<path d="M8.13962 0.48092C8.23267 0.323901 8.35796 0.204604 8.5 0.123029V2.8151L2.31616 13.2503H6.73429L8.51129 7.56392C8.5967 7.29063 8.99991 7.35217 8.99991 7.63849V16.1646L10.9775 13.2503H15.6837L13.4613 9.5H15.2048L17.4215 13.2405C17.8165 13.9071 17.336 14.7503 16.5612 14.7503H11.7724L9.86245 17.5649C9.45191 18.1699 8.56415 18.1806 8.13918 17.5857L6.11395 14.7503H1.43866C0.663807 14.7503 0.183346 13.9071 0.57837 13.2405L8.13962 0.48092Z" fill="#364141"/>
</svg>
