<svg width="16" height="18" viewBox="0 0 16 18" fill="none" xmlns="http://www.w3.org/2000/svg">
<path fill-rule="evenodd" clip-rule="evenodd" d="M16 7C16 3.13401 12.866 0 9 0H4.5C3.67157 0 3 0.671573 3 1.5V13.5C3 14.3284 3.67157 15 4.5 15H14.5C15.3284 15 16 14.3284 16 13.5V7ZM5 13.5C4.72386 13.5 4.5 13.2761 4.5 13V2C4.5 1.72386 4.72386 1.5 5 1.5H8.5C8.77614 1.5 9 1.72386 9 2V4.5C9 6.15685 10.3431 7.5 12 7.5H14C14.2761 7.5 14.5 7.72386 14.5 8V13C14.5 13.2761 14.2761 13.5 14 13.5H5ZM10.5 2C10.5 1.89831 10.4924 1.7984 10.4778 1.7008C12.498 2.26297 14.0499 3.94937 14.4171 6.04357C14.2826 6.01502 14.143 6 14 6H12C11.1716 6 10.5 5.32843 10.5 4.5V2Z" fill="#364141"/>
<path d="M0 5C0 4.06808 0.637386 3.28503 1.5 3.06301V15C1.5 15.8284 2.17157 16.5 3 16.5H12.9367C12.7143 17.3624 11.9309 17.9994 10.999 17.999L1.99896 17.9943C0.894797 17.9937 0 17.0984 0 15.9943V5Z" fill="#364141"/>
</svg>
