<svg width="16" height="18" viewBox="0 0 16 18" fill="none" xmlns="http://www.w3.org/2000/svg">
<path d="M7.5 0H4.5C3.67157 0 3 0.671573 3 1.5V13.5C3 14.3284 3.67157 15 4.5 15H14.5C15.3284 15 16 14.3284 16 13.5V9C16 8.17157 15.3284 7.5 14.5 7.5H12.75C10.6789 7.5 9 5.82107 9 3.75V1.5C9 0.671573 8.32843 0 7.5 0Z" fill="#364141"/>
<path d="M10.5 0.161072V3.74998C10.5 4.99262 11.5074 5.99998 12.75 5.99998H15.9291C15.5147 3.10297 13.3265 0.778172 10.5 0.161072Z" fill="#364141"/>
<path d="M0 4.99998C0 4.06806 0.637386 3.28501 1.5 3.06299V15C1.5 15.8284 2.17157 16.5 3 16.5H12.9367C12.7143 17.3624 11.9309 17.9994 10.999 17.9989L1.99896 17.9943C0.894797 17.9937 0 17.0984 0 15.9943V4.99998Z" fill="#364141"/>
</svg>
