<svg width="14" height="18" viewBox="0 0 14 18" fill="none" xmlns="http://www.w3.org/2000/svg">
<path fill-rule="evenodd" clip-rule="evenodd" d="M0 16.5C0 17.3284 0.671573 18 1.5 18H12.5C13.3284 18 14 17.3284 14 16.5V9C14 8.17157 13.3284 7.5 12.5 7.5H10.25C8.45507 7.5 7 6.04493 7 4.25V1.5C7 0.671573 6.32843 0 5.5 0H1.5C0.671573 0 0 0.671573 0 1.5V16.5ZM4 13.7379V15.2707H5.53281C5.59911 15.2707 5.6627 15.2444 5.70959 15.1975L8.21463 12.6925L6.57827 11.0561L4.07322 13.5611C4.02634 13.608 4 13.6716 4 13.7379ZM9.18182 11.7253L8.92174 11.9853L7.28537 10.349L7.54545 10.0889C7.99732 9.63703 8.72995 9.63703 9.18182 10.0889C9.63369 10.5408 9.63369 11.2734 9.18182 11.7253Z" fill="#364141"/>
<path d="M8.5 0.161133V3.75004C8.5 4.99268 9.50736 6.00004 10.75 6.00004H13.9291C13.5147 3.10303 11.3265 0.778233 8.5 0.161133Z" fill="#364141"/>
</svg>
