<svg width="18" height="18" viewBox="0 0 18 18" fill="none" xmlns="http://www.w3.org/2000/svg">
<path fill-rule="evenodd" clip-rule="evenodd" d="M4.25 8.5C6.59721 8.5 8.5 6.59721 8.5 4.25C8.5 1.90279 6.59721 0 4.25 0C1.90279 0 0 1.90279 0 4.25C0 6.59721 1.90279 8.5 4.25 8.5ZM4.25 7C5.76878 7 7 5.76878 7 4.25C7 2.73122 5.76878 1.5 4.25 1.5C2.73122 1.5 1.5 2.73122 1.5 4.25C1.5 5.76878 2.73122 7 4.25 7Z" fill="#364141"/>
<path fill-rule="evenodd" clip-rule="evenodd" d="M0.5 10.5V18H8V10.5H0.5ZM2 12V16.5H6.5V12H2Z" fill="#364141"/>
<path fill-rule="evenodd" clip-rule="evenodd" d="M9 8L13.5 0L18 8H9ZM13.5 3.05959L15.4352 6.5H11.5648L13.5 3.05959Z" fill="#364141"/>
</svg>
