<svg width="17" height="17" viewBox="0 0 17 17" fill="none" xmlns="http://www.w3.org/2000/svg">
<path fill-rule="evenodd" clip-rule="evenodd" d="M15.0251 2.02509L14.9749 1.97483C13.608 0.607998 11.392 0.607999 10.0251 1.97483L0.43934 11.5606C0.158035 11.8419 0 12.2235 0 12.6213V17H4.37868C4.7765 17 5.15804 16.8419 5.43934 16.5606L15.0251 6.97483C16.392 5.608 16.392 3.39192 15.0251 2.02509ZM13.9142 3.03549L13.9645 3.08575C14.7455 3.86679 14.7455 5.13312 13.9645 5.91417L12.9698 6.90889L10.0911 4.03021L11.0858 3.03549C11.8668 2.25444 13.1332 2.25445 13.9142 3.03549ZM9.03041 5.09087L1.5 12.6213L1.5 15.5L4.37868 15.5L11.9091 7.96955L9.03041 5.09087Z" fill="#364141"/>
</svg>
