<svg width="15" height="18" viewBox="0 0 15 18" fill="none" xmlns="http://www.w3.org/2000/svg">
<path d="M8.45755 4.99151C9.74116 4.88602 10.75 3.81082 10.75 2.5C10.75 1.11929 9.63072 0 8.25001 0C6.8693 0 5.75001 1.11929 5.75001 2.5C5.75001 3.46558 6.29741 4.3033 7.09882 4.71976L6.78937 4.65787C6.32851 4.5657 5.86566 4.80689 5.67719 5.23742L5.6177 5.3733L3.06451 5.13927C2.1672 5.05703 1.32569 5.58498 1.0093 6.42868L0.304459 8.30825C0.150278 8.7194 0.282351 9.18303 0.630049 9.45121L7.50001 14.75V16.75C7.50001 17.4404 8.05965 18 8.75001 18C9.44036 18 10 17.4404 10 16.75V13.9628C10 13.5117 9.79708 13.0847 9.44742 12.7998L7.54505 11.25L8.54505 8.75L10.188 10.1876C10.4182 10.389 10.7136 10.5 11.0195 10.5H12.1701C12.3951 10.5 12.6075 10.4459 12.795 10.3501V18H14.295V5H12.795V7.89991C12.6075 7.80406 12.3951 7.75 12.1701 7.75H11.5451L8.50001 5L8.45755 4.99151Z" fill="#364141"/>
<path d="M0.810544 16.0536L2.79505 12.25L3.48489 13.2615C4.10963 14.1776 4.17814 15.3636 3.66302 16.3455L3.16886 17.2874C2.93903 17.7256 2.48513 18 1.9904 18C0.991068 18 0.348288 16.9396 0.810544 16.0536Z" fill="#364141"/>
</svg>
