<svg width="14" height="18" viewBox="0 0 14 18" fill="none" xmlns="http://www.w3.org/2000/svg">
<path d="M12.5 5L13.2485 5.04678L13.2983 4.25H12.5V5ZM12.1758 10.1871L11.4273 10.1404L12.1758 10.1871ZM1.8242 10.1871L1.07566 10.2339L1.8242 10.1871ZM1.5 5V4.25H0.701662L0.751461 5.04678L1.5 5ZM4.75 0.75C4.75 0.335786 4.41421 0 4 0C3.58579 0 3.25 0.335786 3.25 0.75H4.75ZM10.75 0.75C10.75 0.335786 10.4142 0 10 0C9.58579 0 9.25 0.335786 9.25 0.75H10.75ZM11.7515 4.95322L11.4273 10.1404L12.9243 10.2339L13.2485 5.04678L11.7515 4.95322ZM2.57274 10.1404L2.24854 4.95322L0.751461 5.04678L1.07566 10.2339L2.57274 10.1404ZM1.5 5.75H4V4.25H1.5V5.75ZM3.25 0.75V5H4.75V0.75H3.25ZM4 5.75H10V4.25H4V5.75ZM10 5.75H12.5V4.25H10V5.75ZM9.25 0.75V5H10.75V0.75H9.25ZM9.18165 12.25H7V13.75H9.18165V12.25ZM7 12.25H4.81835V13.75H7V12.25ZM6.25 13V14.25H7.75V13H6.25ZM4 16.5H2V18H4V16.5ZM6.25 14.25C6.25 15.4926 5.24264 16.5 4 16.5V18C6.07107 18 7.75 16.3211 7.75 14.25H6.25ZM1.07566 10.2339C1.19918 12.2103 2.83812 13.75 4.81835 13.75V12.25C3.63021 12.25 2.64685 11.3262 2.57274 10.1404L1.07566 10.2339ZM11.4273 10.1404C11.3532 11.3262 10.3698 12.25 9.18165 12.25V13.75C11.1619 13.75 12.8008 12.2103 12.9243 10.2339L11.4273 10.1404Z" fill="#364141"/>
</svg>
