<svg width="14" height="18" viewBox="0 0 14 18" fill="none" xmlns="http://www.w3.org/2000/svg">
<path d="M5.33333 0C2.38781 0 0 2.38781 0 5.33333H2C2 3.49238 3.49238 2 5.33333 2H8.66667C10.5076 2 12 3.49238 12 5.33333C12 7.17428 10.5076 8.66667 8.66667 8.66667H7.85714C6.83147 8.66667 6 9.49814 6 10.5238V13.5H8V10.6667H8.66667C11.6122 10.6667 14 8.27885 14 5.33333C14 2.38781 11.6122 0 8.66667 0H5.33333Z" fill="#364141"/>
<path d="M7 18C7.55228 18 8 17.5523 8 17C8 16.4477 7.55228 16 7 16C6.44772 16 6 16.4477 6 17C6 17.5523 6.44772 18 7 18Z" fill="#364141"/>
</svg>
