<svg width="20" height="16" viewBox="0 0 20 16" fill="none" xmlns="http://www.w3.org/2000/svg">
<path d="M13.5 0.75C14.7426 0.75 15.75 1.75736 15.75 3V8.18934L17.9696 5.96967L19.0303 7.03033L15 11.0607L10.9696 7.03033L12.0303 5.96967L14.25 8.18934V3C14.25 2.58579 13.9142 2.25 13.5 2.25H4.49998V0.75H13.5Z" fill="#364141"/>
<path d="M15.5001 15.25L6.50006 15.25C5.25742 15.25 4.25006 14.2426 4.25006 13L4.25006 7.81066L2.03039 10.0303L0.969727 8.96967L5.00006 4.93934L9.03039 8.96967L7.96973 10.0303L5.75006 7.81066L5.75006 13C5.75006 13.4142 6.08584 13.75 6.50006 13.75L15.5001 13.75V15.25Z" fill="#364141"/>
</svg>
