<svg width="18" height="16" viewBox="0 0 18 16" fill="none" xmlns="http://www.w3.org/2000/svg">
<path d="M12.25 0.5C13.6307 0.5 14.75 1.61929 14.75 3V7.58579L16.5428 5.79289L17.9571 7.20711L13.75 11.4142L9.54285 7.20711L10.9571 5.79289L12.75 7.58579V3C12.75 2.72386 12.5261 2.5 12.25 2.5H3.00008V0.5H12.25Z" fill="#364141"/>
<path d="M15.0001 15.5L5.74995 15.5C4.36924 15.5 3.24995 14.3807 3.24995 13L3.24995 8.41421L1.45706 10.2071L0.0428467 8.79289L4.24995 4.58578L8.45706 8.79289L7.04285 10.2071L5.24995 8.41421L5.24995 13C5.24995 13.2761 5.47381 13.5 5.74995 13.5L15.0001 13.5V15.5Z" fill="#364141"/>
</svg>
