<svg width="20" height="16" viewBox="0 0 20 16" fill="none" xmlns="http://www.w3.org/2000/svg">
<path d="M8.5 7C8.5 7.55228 8.05228 8 7.5 8C6.94772 8 6.5 7.55228 6.5 7C6.5 6.44772 6.94772 6 7.5 6C8.05228 6 8.5 6.44772 8.5 7Z" fill="#364141"/>
<path d="M12.5 8C13.0523 8 13.5 7.55228 13.5 7C13.5 6.44772 13.0523 6 12.5 6C11.9477 6 11.5 6.44772 11.5 7C11.5 7.55228 11.9477 8 12.5 8Z" fill="#364141"/>
<path d="M9.99999 12.75C8.27522 12.75 6.82242 11.5856 6.3848 10H7.98387C8.35204 10.7409 9.11656 11.25 9.99999 11.25C10.8834 11.25 11.6479 10.7409 12.0161 10H13.6152C13.1776 11.5856 11.7248 12.75 9.99999 12.75Z" fill="#364141"/>
<path fill-rule="evenodd" clip-rule="evenodd" d="M14 2H10.75V0H9.25V2H6C4.34315 2 3 3.34315 3 5V13C3 14.6569 4.34315 16 6 16H14C15.6569 16 17 14.6569 17 13V5C17 3.34315 15.6569 2 14 2ZM14 3.5H6C5.17157 3.5 4.5 4.17157 4.5 5V13C4.5 13.8284 5.17157 14.5 6 14.5H14C14.8284 14.5 15.5 13.8284 15.5 13V5C15.5 4.17157 14.8284 3.5 14 3.5Z" fill="#364141"/>
<path d="M19.5 7.5V10.5C19.5 11.3284 18.8284 12 18 12V6C18.8284 6 19.5 6.67157 19.5 7.5Z" fill="#364141"/>
<path d="M0.5 10.5V7.5C0.5 6.67157 1.17157 6 2 6V12C1.17157 12 0.5 11.3284 0.5 10.5Z" fill="#364141"/>
</svg>
