<svg width="20" height="16" viewBox="0 0 20 16" fill="none" xmlns="http://www.w3.org/2000/svg">
<path fill-rule="evenodd" clip-rule="evenodd" d="M14 2H10.75V0H9.25V2H6C4.34315 2 3 3.34315 3 5V13C3 14.6569 4.34315 16 6 16H14C15.6569 16 17 14.6569 17 13V5C17 3.34315 15.6569 2 14 2ZM7.5 8C8.05228 8 8.5 7.55228 8.5 7C8.5 6.44772 8.05228 6 7.5 6C6.94772 6 6.5 6.44772 6.5 7C6.5 7.55228 6.94772 8 7.5 8ZM12.5 8C13.0523 8 13.5 7.55228 13.5 7C13.5 6.44772 13.0523 6 12.5 6C11.9477 6 11.5 6.44772 11.5 7C11.5 7.55228 11.9477 8 12.5 8ZM6.38477 10C6.82239 11.5856 8.27519 12.75 9.99996 12.75C11.7247 12.75 13.1775 11.5856 13.6151 10H12.0161C11.6479 10.7409 10.8834 11.25 9.99996 11.25C9.11653 11.25 8.35201 10.7409 7.98384 10H6.38477Z" fill="#364141"/>
<path d="M19.5 7.5V10.5C19.5 11.3284 18.8284 12 18 12V6C18.8284 6 19.5 6.67157 19.5 7.5Z" fill="#364141"/>
<path d="M0.5 10.5V7.5C0.5 6.67157 1.17157 6 2 6V12C1.17157 12 0.5 11.3284 0.5 10.5Z" fill="#364141"/>
</svg>
