<svg width="17" height="17" viewBox="0 0 17 17" fill="none" xmlns="http://www.w3.org/2000/svg">
<path d="M16.6778 17C16.8888 16.0335 17 15.0297 17 14C17 6.26801 10.732 0 3 0C1.97025 0 0.966468 0.111176 0 0.32218V1.86232C0.961057 1.62558 1.96586 1.5 3 1.5C9.90356 1.5 15.5 7.09644 15.5 14C15.5 15.0341 15.3744 16.0389 15.1377 17H16.6778Z" fill="#364141"/>
<path d="M11.8 17C11.9311 16.3538 12 15.6849 12 15C12 9.47716 7.52285 5.00001 2 5.00001C1.31507 5.00001 0.64622 5.06887 0 5.20004V6.73664C0.641382 6.58195 1.31112 6.50001 2 6.50001C6.69442 6.50001 10.5 10.3056 10.5 15C10.5 15.6889 10.4181 16.3586 10.2634 17H11.8Z" fill="#364141"/>
<path fill-rule="evenodd" clip-rule="evenodd" d="M3 17C4.65685 17 6 15.6569 6 14C6 12.3431 4.65685 11 3 11C1.34315 11 0 12.3431 0 14C0 15.6569 1.34315 17 3 17ZM3 15.5C3.82843 15.5 4.5 14.8284 4.5 14C4.5 13.1716 3.82843 12.5 3 12.5C2.17157 12.5 1.5 13.1716 1.5 14C1.5 14.8284 2.17157 15.5 3 15.5Z" fill="#364141"/>
</svg>
