<svg width="18" height="18" viewBox="0 0 18 18" fill="none" xmlns="http://www.w3.org/2000/svg">
<path d="M10.25 5.08196V4.75C10.25 4.05964 9.69036 3.5 9 3.5C8.30964 3.5 7.75 4.05964 7.75 4.75V5.08196C7.75 5.35595 7.82116 5.62524 7.95651 5.86347L9 7.7L10.0435 5.86347C10.1788 5.62524 10.25 5.35595 10.25 5.08196Z" fill="#364141"/>
<path d="M10.25 13.45V13.118C10.25 12.844 10.1788 12.5747 10.0435 12.3365L9 10.5L7.95651 12.3365C7.82116 12.5747 7.75 12.844 7.75 13.118V13.45C7.75 14.1403 8.30964 14.7 9 14.7C9.69036 14.7 10.25 14.1403 10.25 13.45Z" fill="#364141"/>
<path d="M6.14527 6.00849L5.85779 5.8425C5.25992 5.49733 4.49543 5.70217 4.15025 6.30004C3.80508 6.8979 4.00992 7.66239 4.60779 8.00757L4.89527 8.17355C5.13255 8.31054 5.40135 8.38356 5.67533 8.38545L7.78756 8.40004L6.71882 6.57808C6.58019 6.34175 6.38255 6.14548 6.14527 6.00849Z" fill="#364141"/>
<path d="M13.3922 10.1925L13.1047 10.0265C12.8674 9.8895 12.5986 9.81649 12.3246 9.81459L10.2124 9.80001L11.2811 11.622C11.4198 11.8583 11.6174 12.0546 11.8547 12.1916L12.1422 12.3575C12.74 12.7027 13.5045 12.4979 13.8497 11.9C14.1949 11.3021 13.99 10.5377 13.3922 10.1925Z" fill="#364141"/>
<path d="M13.1047 8.17357L13.3922 8.00759C13.9901 7.66242 14.1949 6.89793 13.8497 6.30006C13.5046 5.7022 12.7401 5.49735 12.1422 5.84253L11.8547 6.00851C11.6174 6.1455 11.4198 6.34178 11.2812 6.57811L10.2124 8.40006L12.3247 8.38548C12.5987 8.38359 12.8674 8.31057 13.1047 8.17357Z" fill="#364141"/>
<path d="M5.85783 12.3574L6.14532 12.1915C6.3826 12.0545 6.58023 11.8582 6.71886 11.6219L7.78761 9.79992L5.67538 9.8145C5.40139 9.81639 5.1326 9.88941 4.89532 10.0264L4.60783 10.1924C4.00996 10.5376 3.80512 11.302 4.1503 11.8999C4.49548 12.4978 5.25996 12.7026 5.85783 12.3574Z" fill="#364141"/>
<path fill-rule="evenodd" clip-rule="evenodd" d="M9 18C13.9706 18 18 13.9706 18 9C18 4.02944 13.9706 0 9 0C4.02944 0 0 4.02944 0 9C0 13.9706 4.02944 18 9 18ZM9 16.5C13.1421 16.5 16.5 13.1421 16.5 9C16.5 4.85786 13.1421 1.5 9 1.5C4.85786 1.5 1.5 4.85786 1.5 9C1.5 13.1421 4.85786 16.5 9 16.5Z" fill="#364141"/>
</svg>
