<svg width="16" height="18" viewBox="0 0 16 18" fill="none" xmlns="http://www.w3.org/2000/svg">
<path fill-rule="evenodd" clip-rule="evenodd" d="M3.75 4.75V4.25C3.75 1.90279 5.65279 0 8 0C10.3472 0 12.25 1.90279 12.25 4.25V4.75H14.5C15.1904 4.75 15.75 5.30964 15.75 6V13.25C15.75 15.8734 13.6234 18 11 18H5C2.37665 18 0.25 15.8734 0.25 13.25V6C0.25 5.30964 0.809644 4.75 1.5 4.75H3.75ZM5.25 4.25C5.25 2.73122 6.48122 1.5 8 1.5C9.51878 1.5 10.75 2.73122 10.75 4.25V4.75H5.25V4.25ZM1.75 13.25V6.25H14.25V13.25C14.25 15.0449 12.7949 16.5 11 16.5H5C3.20507 16.5 1.75 15.0449 1.75 13.25Z" fill="#364141"/>
</svg>
