<svg width="19" height="18" viewBox="0 0 19 18" fill="none" xmlns="http://www.w3.org/2000/svg">
<path d="M15.9767 0.23558C15.8869 0.0432176 15.6134 0.0432182 15.5236 0.235581L14.6749 2.0541C14.65 2.10731 14.6073 2.15008 14.5541 2.17492L12.7355 3.02363C12.5432 3.1134 12.5432 3.38693 12.7355 3.47671L14.5541 4.32542C14.6073 4.35025 14.65 4.39302 14.6749 4.44623L15.5236 6.26476C15.6134 6.45712 15.8869 6.45712 15.9767 6.26476L16.8254 4.44623C16.8502 4.39302 16.893 4.35025 16.9462 4.32542L18.7647 3.47671C18.9571 3.38693 18.9571 3.1134 18.7647 3.02363L16.9462 2.17492C16.893 2.15008 16.8502 2.10731 16.8254 2.0541L15.9767 0.23558Z" fill="#364141"/>
<path fill-rule="evenodd" clip-rule="evenodd" d="M8.10314 2.82105C8.46972 2.07694 9.53069 2.07694 9.89726 2.82105L11.8626 6.8105C11.9663 7.02098 12.1407 7.1883 12.3553 7.28318L16.4316 9.0855C17.2258 9.43663 17.2258 10.5636 16.4316 10.9147L12.3553 12.717C12.1407 12.8119 11.9663 12.9792 11.8626 13.1897L9.89726 17.1791C9.53069 17.9232 8.46972 17.9232 8.10314 17.1791L6.13782 13.1897C6.03413 12.9792 5.85974 12.8119 5.64514 12.717L1.56877 10.9147C0.774603 10.5636 0.774603 9.43663 1.56877 9.0855L5.64514 7.28318C5.85974 7.1883 6.03413 7.02098 6.13782 6.8105L8.10314 2.82105ZM7.48341 7.47338L9.0002 4.3944L10.517 7.47338C10.7762 7.99957 11.2122 8.41787 11.7487 8.65507L14.7908 10.0001L11.7487 11.3451C11.2122 11.5823 10.7762 12.0006 10.517 12.5268L9.0002 15.6058L7.48341 12.5268C7.22419 12.0006 6.78819 11.5823 6.25171 11.3451L3.20962 10.0001L6.25171 8.65507C6.78819 8.41787 7.22419 7.99957 7.48341 7.47338Z" fill="#364141"/>
</svg>
