<svg width="18" height="18" viewBox="0 0 18 18" fill="none" xmlns="http://www.w3.org/2000/svg">
<path fill-rule="evenodd" clip-rule="evenodd" d="M3 1.5C3 0.671573 3.67157 0 4.5 0H16.5C17.3284 0 18 0.671573 18 1.5V13.5C18 14.3284 17.3284 15 16.5 15H4.5C3.67157 15 3 14.3284 3 13.5V1.5ZM6.46967 10.4697L12.1893 4.75H8V3.25L14.75 3.25L14.75 10H13.25L13.25 5.81066L7.53033 11.5303L6.46967 10.4697Z" fill="#364141"/>
<path d="M1.5 4.06299C0.637386 4.28501 0 5.06806 0 5.99998V15.9945C0 17.0988 0.894918 17.9941 1.99916 17.9945L12.4989 17.9989C13.5241 17.9994 14.4053 17.3827 14.7915 16.5H3C2.17157 16.5 1.5 15.8284 1.5 15V4.06299Z" fill="#364141"/>
</svg>
