<svg width="19" height="16" viewBox="0 0 19 16" fill="none" xmlns="http://www.w3.org/2000/svg">
<path d="M3.5 0H10.25V1.5H6.5V5.75C6.5 7.26878 5.26878 8.5 3.75 8.5C2.50736 8.5 1.5 9.50736 1.5 10.75V11.5H14.5V10.75C14.5 9.50736 13.4926 8.5 12.25 8.5H10.25V7H12.25C14.3211 7 16 8.67893 16 10.75V13H0V10.75C0 8.67893 1.67893 7 3.75 7C4.44036 7 5 6.44036 5 5.75V1.5H3.5V0Z" fill="#364141"/>
<path d="M1 14.5H15C15 15.3284 14.3283 15.9999 13.4999 15.9999L2.49925 15.9988C1.67142 15.9987 1.00033 15.3278 1 14.5Z" fill="#364141"/>
<path d="M14.3002 5.54812L11.5017 3.06056L12.4983 1.93944L14.1998 3.45188L16.9504 0.489662L18.0496 1.51034L14.3002 5.54812Z" fill="#364141"/>
</svg>
