<svg width="18" height="16" viewBox="0 0 18 16" fill="none" xmlns="http://www.w3.org/2000/svg">
<path d="M9 3.25C9 5.0248 9.88068 6.59391 11.2289 7.54416C11.3537 7.64707 11.4913 7.73512 11.6388 7.80561C12.4079 8.24738 13.2994 8.5 14.25 8.5C14.3803 8.5 14.5096 8.49525 14.6375 8.48592C15.4578 9.02131 16 9.94734 16 11V13H0V11C0 9.34315 1.34315 8 3 8H3.5C4.60457 8 5.5 7.10457 5.5 6V1.5H4V0H10.1266C9.42107 0.893925 9 2.02279 9 3.25Z" fill="#364141"/>
<path d="M1 14.5C1.00033 15.3278 1.67142 15.9987 2.49925 15.9988L13.4999 15.9999C14.3283 15.9999 15 15.3284 15 14.5H1Z" fill="#364141"/>
<path d="M13.8002 6.04812L11.0017 3.56056L11.9983 2.43944L13.6998 3.95188L16.4504 0.989662L17.5496 2.01034L13.8002 6.04812Z" fill="#364141"/>
</svg>
