<svg width="18" height="18" viewBox="0 0 18 18" fill="none" xmlns="http://www.w3.org/2000/svg">
<path fill-rule="evenodd" clip-rule="evenodd" d="M9.00003 3.97383L7.71722 6.17627C7.29332 6.90408 6.58299 7.42016 5.75981 7.59841L3.26875 8.13784L4.96699 10.0385C5.52818 10.6665 5.7995 11.5016 5.71466 12.3395L5.45791 14.8754L7.79028 13.8476C8.56102 13.5079 9.43904 13.5079 10.2098 13.8476L12.5422 14.8754L12.2854 12.3395C12.2006 11.5016 12.4719 10.6665 13.0331 10.0385L14.7313 8.13784L12.2403 7.59841C11.4171 7.42016 10.7067 6.90408 10.2828 6.17627L9.00003 3.97383ZM9.86414 1.48364C9.47841 0.821372 8.52166 0.821372 8.13592 1.48364L5.989 5.16967C5.8477 5.41227 5.61092 5.5843 5.33653 5.64372L1.16747 6.54651C0.418416 6.70872 0.122763 7.61865 0.633418 8.19015L3.47561 11.371C3.66267 11.5804 3.75311 11.8587 3.72483 12.1381L3.29513 16.3821C3.21792 17.1446 3.99195 17.7069 4.69329 17.3979L8.59678 15.6777C8.8537 15.5645 9.14637 15.5645 9.40328 15.6777L13.3068 17.3979C14.0081 17.7069 14.7821 17.1446 14.7049 16.3821L14.2752 12.1381C14.247 11.8587 14.3374 11.5804 14.5245 11.371L17.3666 8.19015C17.8773 7.61865 17.5816 6.70872 16.8326 6.54651L12.6635 5.64372C12.3891 5.5843 12.1524 5.41227 12.0111 5.16967L9.86414 1.48364Z" fill="#364141"/>
</svg>
