<svg width="18" height="18" viewBox="0 0 18 18" fill="none" xmlns="http://www.w3.org/2000/svg">
<path fill-rule="evenodd" clip-rule="evenodd" d="M9.00003 2.98038L7.28517 5.92462C6.93191 6.53113 6.33997 6.96119 5.65399 7.10974L2.32393 7.83085L4.59415 10.3716C5.0618 10.895 5.2879 11.5909 5.2172 12.2892L4.87397 15.6791L7.99191 14.3051C8.63419 14.0221 9.36587 14.0221 10.0082 14.3051L13.1261 15.6791L12.7829 12.2892C12.7122 11.5909 12.9383 10.895 13.4059 10.3716L15.6761 7.83085L12.3461 7.10974C11.6601 6.96119 11.0682 6.53112 10.7149 5.92462L9.00003 2.98038ZM9.86414 1.48364C9.47841 0.821372 8.52166 0.821372 8.13592 1.48364L5.989 5.16967C5.8477 5.41227 5.61092 5.5843 5.33653 5.64372L1.16747 6.54651C0.418416 6.70872 0.122763 7.61865 0.633418 8.19015L3.47561 11.371C3.66267 11.5804 3.75311 11.8587 3.72483 12.1381L3.29513 16.3821C3.21792 17.1446 3.99195 17.7069 4.69329 17.3979L8.59678 15.6777C8.8537 15.5645 9.14637 15.5645 9.40328 15.6777L13.3068 17.3979C14.0081 17.7069 14.7821 17.1446 14.7049 16.3821L14.2752 12.1381C14.247 11.8587 14.3374 11.5804 14.5245 11.371L17.3666 8.19015C17.8773 7.61865 17.5816 6.70872 16.8326 6.54651L12.6635 5.64372C12.3891 5.5843 12.1524 5.41227 12.0111 5.16967L9.86414 1.48364Z" fill="#364141"/>
</svg>
