<svg width="18" height="18" viewBox="0 0 18 18" fill="none" xmlns="http://www.w3.org/2000/svg">
<path d="M9 0C10.3367 0 11.6567 0.297767 12.864 0.871667C14.0712 1.44557 15.1355 2.28119 15.9795 3.31782C16.8234 4.35446 17.4259 5.56607 17.743 6.86464C18.0602 8.16321 18.0841 9.51612 17.813 10.8251C17.5419 12.134 16.9827 13.3662 16.1759 14.432C15.3691 15.4978 14.335 16.3705 13.1488 16.9867C11.9625 17.6029 10.6539 17.9471 9.31802 17.9944C7.98212 18.0416 6.65247 17.7907 5.42567 17.2598L6.21203 15.4426C7.16893 15.8567 8.20605 16.0525 9.24806 16.0156C10.2901 15.9788 11.3108 15.7103 12.236 15.2296C13.1613 14.749 13.9679 14.0683 14.5972 13.237C15.2265 12.4056 15.6627 11.4446 15.8741 10.4236C16.0856 9.40257 16.0669 8.3473 15.8195 7.33442C15.5722 6.32154 15.1023 5.37648 14.444 4.5679C13.7857 3.75933 12.9556 3.10754 12.0139 2.6599C11.0722 2.21226 10.0427 1.98 9 1.98V0Z" fill="#364141"/>
<path d="M2.63604 15.364C1.59794 14.3259 0.829544 13.0496 0.397864 11.6464C-0.033817 10.2432 -0.115679 8.75566 0.159415 7.31357L2.10434 7.68458C1.88977 8.80942 1.95362 9.96967 2.29033 11.0642C2.62705 12.1587 3.22639 13.1542 4.03611 13.9639L2.63604 15.364Z" fill="#364141"/>
<path d="M5.02644 0.924679C3.66624 1.59398 2.49715 2.59602 1.62763 3.83781L3.24955 4.97349C3.92777 4.00489 4.83967 3.22331 5.90062 2.70125L5.02644 0.924679Z" fill="#364141"/>
</svg>
