<svg width="16" height="16" viewBox="0 0 16 16" fill="none" xmlns="http://www.w3.org/2000/svg">
<path d="M2.75 3.80614C2.75 1.70407 4.45407 0 6.55614 0H8.25C10.4591 0 12.25 1.79086 12.25 4H10.75C10.75 2.61929 9.63071 1.5 8.25 1.5H6.55614C5.28249 1.5 4.25 2.53249 4.25 3.80614C4.25 4.60128 4.65962 5.34032 5.33389 5.76174L9.3151 8.25H16V9.75H0V8.25H6.4849L4.53889 7.03374C3.42605 6.33821 2.75 5.11846 2.75 3.80614Z" fill="#364141"/>
<path d="M10.548 11.25C10.6792 11.5424 10.75 11.8633 10.75 12.1939C10.75 13.4675 9.71751 14.5 8.44386 14.5H6.75C5.36929 14.5 4.25 13.3807 4.25 12H2.75C2.75 14.2091 4.54086 16 6.75 16H8.44386C10.5459 16 12.25 14.2959 12.25 12.1939C12.25 11.8715 12.2092 11.5548 12.1312 11.25H10.548Z" fill="#364141"/>
</svg>
