<svg width="18" height="18" viewBox="0 0 18 18" fill="none" xmlns="http://www.w3.org/2000/svg">
<path d="M8 3V0H10V3H8Z" fill="#364141"/>
<path d="M8 18V15H10V18H8Z" fill="#364141"/>
<path d="M13 9C13 11.2091 11.2091 13 9 13C6.79086 13 5 11.2091 5 9C5 6.79086 6.79086 5 9 5C11.2091 5 13 6.79086 13 9Z" fill="#364141"/>
<path d="M18 8H15V10H18V8Z" fill="#364141"/>
<path d="M3 8L0 8V10H3V8Z" fill="#364141"/>
<path d="M13.9497 12.5356L16.0711 14.6569L14.6569 16.0711L12.5355 13.9498L13.9497 12.5356Z" fill="#364141"/>
<path d="M3.34315 1.92899L5.46447 4.05031L4.05025 5.46452L1.92893 3.3432L3.34315 1.92899Z" fill="#364141"/>
<path d="M14.6569 1.92888L12.5355 4.0502L13.9497 5.46441L16.0711 3.34309L14.6569 1.92888Z" fill="#364141"/>
<path d="M4.05025 12.5355L1.92893 14.6568L3.34315 16.071L5.46447 13.9497L4.05025 12.5355Z" fill="#364141"/>
</svg>
