<svg width="18" height="18" viewBox="0 0 18 18" fill="none" xmlns="http://www.w3.org/2000/svg">
<path d="M8.25 3V0H9.75V3H8.25Z" fill="#364141"/>
<path d="M8.25 18V15H9.75V18H8.25Z" fill="#364141"/>
<path fill-rule="evenodd" clip-rule="evenodd" d="M9 13C11.2091 13 13 11.2091 13 9C13 6.79086 11.2091 5 9 5C6.79086 5 5 6.79086 5 9C5 11.2091 6.79086 13 9 13ZM9 11.5C10.3807 11.5 11.5 10.3807 11.5 9C11.5 7.61929 10.3807 6.5 9 6.5C7.61929 6.5 6.5 7.61929 6.5 9C6.5 10.3807 7.61929 11.5 9 11.5Z" fill="#364141"/>
<path d="M18 8.25H15V9.75H18V8.25Z" fill="#364141"/>
<path d="M3 8.25H0V9.75H3V8.25Z" fill="#364141"/>
<path d="M15.8943 14.8337L14.8336 15.8943L12.7123 13.773L13.773 12.7124L15.8943 14.8337Z" fill="#364141"/>
<path d="M5.28769 4.22708L4.22703 5.28774L2.10571 3.16642L3.16637 2.10576L5.28769 4.22708Z" fill="#364141"/>
<path d="M14.8336 2.10566L12.7123 4.22698L13.773 5.28764L15.8943 3.16632L14.8336 2.10566Z" fill="#364141"/>
<path d="M5.28769 13.7729L4.22703 12.7123L2.10571 14.8336L3.16637 15.8942L5.28769 13.7729Z" fill="#364141"/>
</svg>
