<svg width="18" height="18" viewBox="0 0 18 18" fill="none" xmlns="http://www.w3.org/2000/svg">
<path fill-rule="evenodd" clip-rule="evenodd" d="M0 9C0 4.02944 4.02944 0 9 0H9.17188C14.0475 0 18 3.95249 18 8.82812V10C18 11.7949 16.5449 13.25 14.75 13.25C13.6903 13.25 12.7491 12.7429 12.1558 11.9581C11.4238 12.8965 10.2824 13.5 9 13.5C6.79086 13.5 5 11.7091 5 9.5V8.5C5 6.29086 6.79086 4.5 9 4.5C11.2091 4.5 13 6.29086 13 8.5V10C13 10.9665 13.7835 11.75 14.75 11.75C15.7165 11.75 16.5 10.9665 16.5 10V8.82812C16.5 4.78091 13.2191 1.5 9.17188 1.5H9C4.85786 1.5 1.5 4.85786 1.5 9C1.5 13.1421 4.85786 16.5 9 16.5C10.2996 16.5 11.5221 16.1694 12.5878 15.5878L13.6856 16.6856C12.3208 17.5194 10.7165 18 9 18C4.02944 18 0 13.9706 0 9ZM9 6C10.3807 6 11.5 7.11929 11.5 8.5V9.5C11.5 10.8807 10.3807 12 9 12C7.61929 12 6.5 10.8807 6.5 9.5V8.5C6.5 7.11929 7.61929 6 9 6Z" fill="#364141"/>
</svg>
