<svg width="20" height="20" viewBox="0 0 20 20" fill="none" xmlns="http://www.w3.org/2000/svg">
<path fill-rule="evenodd" clip-rule="evenodd" d="M0.75 10C0.75 4.89137 4.89137 0.75 10 0.75H10.1719C15.1856 0.75 19.25 4.81441 19.25 9.82812V10.875C19.25 12.877 17.627 14.5 15.625 14.5C14.5363 14.5 13.5596 14.02 12.8951 13.2601C12.1666 14.024 11.1389 14.5 10 14.5C7.79086 14.5 6 12.7091 6 10.5V9.5C6 7.29086 7.79086 5.5 10 5.5C12.2091 5.5 14 7.29086 14 9.5V10.875C14 11.7725 14.7275 12.5 15.625 12.5C16.5225 12.5 17.25 11.7725 17.25 10.875V9.82812C17.25 5.91898 14.081 2.75 10.1719 2.75H10C5.99594 2.75 2.75 5.99594 2.75 10C2.75 14.0041 5.99594 17.25 10 17.25C11.23 17.25 12.3884 16.9437 13.4032 16.4032L14.8673 17.8673C13.4535 18.7439 11.7858 19.25 10 19.25C4.89137 19.25 0.75 15.1086 0.75 10ZM10 7.5C11.1046 7.5 12 8.39543 12 9.5V10.5C12 11.6046 11.1046 12.5 10 12.5C8.89543 12.5 8 11.6046 8 10.5V9.5C8 8.39543 8.89543 7.5 10 7.5Z" fill="#364141"/>
</svg>
