<svg width="18" height="18" viewBox="0 0 18 18" fill="none" xmlns="http://www.w3.org/2000/svg">
<path fill-rule="evenodd" clip-rule="evenodd" d="M12.5 0.25V1.75H15.1893L11.3911 5.54824C10.1902 4.57979 8.66283 4 7 4C3.13401 4 0 7.13401 0 11C0 14.866 3.13401 18 7 18C10.866 18 14 14.866 14 11C14 9.33717 13.4202 7.80976 12.4518 6.6089L16.25 2.81066V5.5H17.75V0.25H12.5ZM12.5 11C12.5 14.0376 10.0376 16.5 7 16.5C3.96243 16.5 1.5 14.0376 1.5 11C1.5 7.96243 3.96243 5.5 7 5.5C10.0376 5.5 12.5 7.96243 12.5 11Z" fill="#364141"/>
</svg>
