<svg width="17" height="17" viewBox="0 0 17 17" fill="none" xmlns="http://www.w3.org/2000/svg">
<path d="M5 6C5.55228 6 6 5.55228 6 5C6 4.44772 5.55228 4 5 4C4.44772 4 4 4.44772 4 5C4 5.55228 4.44772 6 5 6Z" fill="#364141"/>
<path fill-rule="evenodd" clip-rule="evenodd" d="M0.439341 9.43934L7.33579 16.3358C8.11684 17.1168 9.38316 17.1168 10.1642 16.3358L16.3358 10.1642C17.1168 9.38317 17.1168 8.11683 16.3358 7.33579L9.43934 0.43934C9.15804 0.158035 8.7765 0 8.37868 0H2C0.895431 0 0 0.89543 0 2V8.37868C0 8.7765 0.158036 9.15804 0.439341 9.43934ZM8.37868 1.5L15.2751 8.39645C15.4704 8.59171 15.4704 8.90829 15.2751 9.10355L9.10355 15.2751C8.90829 15.4704 8.59171 15.4704 8.39645 15.2751L1.5 8.37868L1.5 2C1.5 1.72386 1.72386 1.5 2 1.5L8.37868 1.5Z" fill="#364141"/>
</svg>
