<svg width="17" height="17" viewBox="0 0 17 17" fill="none" xmlns="http://www.w3.org/2000/svg">
<path fill-rule="evenodd" clip-rule="evenodd" d="M9.43934 0.43934L16.3358 7.33579C17.1168 8.11683 17.1168 9.38317 16.3358 10.1642L10.1642 16.3358C9.38316 17.1168 8.11684 17.1168 7.33579 16.3358L0.439341 9.43934C0.158036 9.15804 0 8.7765 0 8.37868V2C0 0.89543 0.895431 0 2 0H8.37868C8.7765 0 9.15804 0.158035 9.43934 0.43934ZM5 6C5.55228 6 6 5.55228 6 5C6 4.44772 5.55228 4 5 4C4.44772 4 4 4.44772 4 5C4 5.55228 4.44772 6 5 6Z" fill="#364141"/>
</svg>
