<svg width="16" height="16" viewBox="0 0 16 16" fill="none" xmlns="http://www.w3.org/2000/svg">
<path d="M3.75 5.90549C5.04392 5.57245 6 4.39788 6 3C6 1.34315 4.65685 0 3 0C1.34315 0 0 1.34315 0 3C0 4.39788 0.95608 5.57245 2.25 5.90549V10.0945C0.95608 10.4275 0 11.6021 0 13C0 14.6569 1.34315 16 3 16C4.65685 16 6 14.6569 6 13C6 11.6021 5.04392 10.4275 3.75 10.0945V5.90549Z" fill="#364141"/>
<path d="M8 2.5H16V0.5H8V2.5Z" fill="#364141"/>
<path d="M8 5.5H12V3.5H8V5.5Z" fill="#364141"/>
<path d="M8 12.5V10.5H16V12.5H8Z" fill="#364141"/>
<path d="M12 15.5H8V13.5H12V15.5Z" fill="#364141"/>
</svg>
