<svg width="18" height="18" viewBox="0 0 18 18" fill="none" xmlns="http://www.w3.org/2000/svg">
<path fill-rule="evenodd" clip-rule="evenodd" d="M8.16598 18C7.74403 18 7.36943 17.73 7.236 17.3298L4.95943 10.5H3V2.09341L13.2108 0.731961C14.5498 0.553435 15.8201 1.37379 16.2083 2.66763L17.7529 7.81616C18.3784 9.9014 16.817 12 14.6399 12H11.0406L11.4991 13.3756C12.2574 15.6506 10.5641 18 8.16598 18ZM6.26849 9.68381L8.5298 16.4677C9.70498 16.2557 10.4712 15.0352 10.0761 13.8499L9.39817 11.8163C9.18233 11.1687 9.6643 10.5 10.3469 10.5H14.6399C15.8122 10.5 16.653 9.37001 16.3161 8.24718L14.7716 3.09865C14.5951 2.51055 14.0177 2.13765 13.4091 2.2188L4.5 3.40668V9.00004H5.31981C5.75024 9.00004 6.13238 9.27547 6.26849 9.68381Z" fill="#364141"/>
<path d="M0 10.5V2.25004H1.5V10.5H0Z" fill="#364141"/>
</svg>
