<svg width="14" height="18" viewBox="0 0 14 18" fill="none" xmlns="http://www.w3.org/2000/svg">
<path fill-rule="evenodd" clip-rule="evenodd" d="M1.75746 8.87781L3.53942 1.75H2V0.25H12V1.75H10.4606L12.2425 8.87781C12.4441 9.68426 13.1687 10.25 14 10.25V11.75H7.75V17L7.21215 17.8628C7.11429 18.0198 6.88571 18.0198 6.78785 17.8628L6.25 17V11.75H0V10.25C0.831263 10.25 1.55585 9.68426 1.75746 8.87781ZM5.08558 1.75H8.91442L10.7873 9.24162C10.8789 9.60796 11.0295 9.94712 11.2275 10.25H2.77249C2.7962 10.2137 2.81922 10.177 2.84154 10.1397C3.00569 9.86552 3.13206 9.5641 3.21268 9.24162L5.08558 1.75Z" fill="#364141"/>
</svg>
