<svg width="18" height="18" viewBox="0 0 18 18" fill="none" xmlns="http://www.w3.org/2000/svg">
<path fill-rule="evenodd" clip-rule="evenodd" d="M8.16598 0.25C7.74403 0.25 7.36943 0.52 7.236 0.920291L4.95943 7.75H3V16.1566L13.2108 17.5181C14.5498 17.6966 15.8201 16.8762 16.2083 15.5824L17.7529 10.4339C18.3784 8.34864 16.817 6.25 14.6399 6.25H11.0406L11.4991 4.87444C12.2574 2.5994 10.5641 0.25 8.16598 0.25ZM6.26849 8.56623L8.5298 1.7823C9.70498 1.99429 10.4712 3.21481 10.0761 4.4001L9.39817 6.43377C9.18233 7.0813 9.6643 7.75 10.3469 7.75H14.6399C15.8122 7.75 16.653 8.88004 16.3161 10.0029L14.7716 15.1514C14.5951 15.7395 14.0177 16.1124 13.4091 16.0312L4.5 14.8434V9.25H5.31981C5.75024 9.25 6.13238 8.97457 6.26849 8.56623Z" fill="#364141"/>
<path d="M0 7.75V16H1.5V7.75H0Z" fill="#364141"/>
</svg>
