<svg width="14" height="17" viewBox="0 0 14 17" fill="none" xmlns="http://www.w3.org/2000/svg">
<path d="M6 0C4.89543 0 4 0.895431 4 2H1.4994C0.671303 2 0 2.6713 0 3.4994L14 3.5C14 2.67161 13.3285 2 12.5001 2H10C10 0.895431 9.10457 0 8 0H6Z" fill="#364141"/>
<path fill-rule="evenodd" clip-rule="evenodd" d="M0 5L1.7911 15.7466C1.91165 16.4699 2.53743 17 3.27069 17H10.7293C11.4626 17 12.0884 16.4699 12.2089 15.7466L14 5H0ZM1.77069 6.5L3.27069 15.5H10.7293L12.2293 6.5H1.77069Z" fill="#364141"/>
</svg>
