<svg width="18" height="18" viewBox="0 0 18 18" fill="none" xmlns="http://www.w3.org/2000/svg">
<path d="M9.75 10.5L10.25 7V5.5H7.75V7L8.25 10.5H9.75Z" fill="#364141"/>
<path d="M9 14C9.55229 14 10 13.5523 10 13C10 12.4477 9.55229 12 9 12C8.44771 12 8 12.4477 8 13C8 13.5523 8.44771 14 9 14Z" fill="#364141"/>
<path fill-rule="evenodd" clip-rule="evenodd" d="M9.00007 0.00219727C3.6465 3.21224 0.0509441 9.05317 0.000610352 15.7377C2.67926 17.181 5.74398 18 8.99999 18C12.256 18 15.3208 17.181 17.9995 15.7377C17.9491 9.05314 14.3536 3.21224 9.00007 0.00219727ZM1.53187 14.8314C3.79546 15.9013 6.32603 16.5 8.99999 16.5C11.674 16.5 14.2046 15.9013 16.4682 14.8314C16.1378 9.39852 13.256 4.65314 9.00006 1.77982C4.74414 4.65315 1.86233 9.39855 1.53187 14.8314Z" fill="#364141"/>
</svg>
