<svg width="18" height="18" viewBox="0 0 18 18" fill="none" xmlns="http://www.w3.org/2000/svg">
<path fill-rule="evenodd" clip-rule="evenodd" d="M9.00007 0.00219727C3.6465 3.21224 0.0509441 9.05317 0.000610352 15.7377C2.67926 17.181 5.74398 18 8.99999 18C12.256 18 15.3208 17.181 17.9995 15.7377C17.9491 9.05314 14.3536 3.21224 9.00007 0.00219727ZM9.75 10.5L10.25 7V5.5H7.75V7L8.25 10.5H9.75ZM10 13C10 13.5523 9.55228 14 9 14C8.44771 14 8 13.5523 8 13C8 12.4477 8.44771 12 9 12C9.55228 12 10 12.4477 10 13Z" fill="#364141"/>
</svg>
