<svg width="18" height="15" viewBox="0 0 18 15" fill="none" xmlns="http://www.w3.org/2000/svg">
<path fill-rule="evenodd" clip-rule="evenodd" d="M6 7C7.933 7 9.5 5.433 9.5 3.5C9.5 1.567 7.933 0 6 0C4.067 0 2.5 1.567 2.5 3.5C2.5 5.433 4.067 7 6 7ZM14 7C15.6569 7 17 5.65685 17 4C17 2.34315 15.6569 1 14 1C12.3431 1 11 2.34315 11 4C11 5.65685 12.3431 7 14 7ZM12.75 14C12.5901 14 12.4337 13.9939 12.2807 13.9821C12.5068 13.7512 12.7104 13.5227 12.8915 13.3044C13.9529 12.025 14.137 10.3613 13.5265 8.96692C13.4559 8.80565 13.3757 8.65003 13.2866 8.50065C14.1941 8.504 15.16 8.52464 16.1962 8.65172C16.9607 8.74548 17.564 9.18912 17.8396 9.78524C18.1188 10.389 18.0437 11.1144 17.5338 11.6962C16.5993 12.7625 15.0235 14 12.75 14ZM6.01705 8.25H5.98298H5.98297C4.80042 8.25 3.52847 8.24999 2.1443 8.42931C1.28899 8.54011 0.614043 9.06441 0.30564 9.76892C-0.00671038 10.4825 0.0773659 11.3398 0.647795 12.0273C1.69329 13.2875 3.45642 14.75 6.00001 14.75C8.54361 14.75 10.3067 13.2875 11.3522 12.0273C11.9227 11.3398 12.0067 10.4825 11.6944 9.76892C11.386 9.06441 10.711 8.54011 9.85573 8.42931C8.47156 8.24999 7.19961 8.25 6.01706 8.25H6.01705Z" fill="#364141"/>
</svg>
