<svg width="16" height="18" viewBox="0 0 16 18" fill="none" xmlns="http://www.w3.org/2000/svg">
<path fill-rule="evenodd" clip-rule="evenodd" d="M12.5 4.5C12.5 6.98528 10.4853 9 7.99998 9C5.5147 9 3.49998 6.98528 3.49998 4.5C3.49998 2.01472 5.5147 0 7.99998 0C10.4853 0 12.5 2.01472 12.5 4.5ZM11 4.5C11 6.15685 9.65683 7.5 7.99998 7.5C6.34313 7.5 4.99998 6.15685 4.99998 4.5C4.99998 2.84315 6.34313 1.5 7.99998 1.5C9.65683 1.5 11 2.84315 11 4.5Z" fill="#364141"/>
<path fill-rule="evenodd" clip-rule="evenodd" d="M7.98201 10.25C6.21609 10.25 4.33033 10.25 2.2494 10.5471C0.511691 10.7953 -0.481006 12.7494 0.709752 14.2343C2.03662 15.8889 4.43007 18 7.99998 18C11.5699 18 13.9633 15.8889 15.2902 14.2343C16.481 12.7494 15.4883 10.7953 13.7506 10.5471C11.6696 10.25 9.78387 10.25 8.01795 10.25H7.98201ZM2.46144 12.0321C4.42972 11.751 6.22051 11.75 7.99998 11.75C9.77945 11.75 11.5702 11.751 13.5385 12.0321C13.9058 12.0845 14.1431 12.2973 14.2448 12.5293C14.3428 12.7527 14.3333 13.03 14.12 13.2959C12.9288 14.7813 10.9206 16.5 7.99998 16.5C5.07931 16.5 3.07115 14.7813 1.87995 13.2959C1.6667 13.03 1.65719 12.7527 1.75516 12.5293C1.85684 12.2973 2.09418 12.0845 2.46144 12.0321Z" fill="#364141"/>
</svg>
