<svg width="18" height="14" viewBox="0 0 18 14" fill="none" xmlns="http://www.w3.org/2000/svg">
<path fill-rule="evenodd" clip-rule="evenodd" d="M0 1.5C0 0.671573 0.671573 0 1.5 0H12.5C13.3284 0 14 0.671573 14 1.5V3.97159L17.3339 2.79716C17.6591 2.68258 18 2.9239 18 3.26875V10.7861C18 11.1331 17.6552 11.3746 17.3291 11.256L14 10.0455V12.5C14 13.3284 13.3284 14 12.5 14H1.5C0.671573 14 0 13.3284 0 12.5V1.5ZM7 4.5C7.36125 4.5 7.7182 4.57829 8.04629 4.72948C8.37438 4.88066 8.6658 5.10116 8.9005 5.37578C9.1352 5.6504 9.3076 5.97262 9.40582 6.32026C9.50404 6.6679 9.52575 7.03269 9.46947 7.38953C9.41318 7.74636 9.28023 8.08676 9.07977 8.38729C8.87931 8.68781 8.6161 8.94132 8.30826 9.13036C8.00043 9.3194 7.65528 9.43949 7.29659 9.48235C6.93799 9.52519 6.57437 9.48983 6.23075 9.37871L5.76874 10.8058C6.25844 10.9642 6.77355 11.0265 7.28576 10.9898C7.34874 10.9853 7.41169 10.9793 7.47454 10.9718C8.04845 10.9032 8.60069 10.711 9.09322 10.4086C9.58576 10.1061 10.0069 9.70049 10.3276 9.21966C10.6484 8.73882 10.8611 8.19418 10.9511 7.62324C11.0412 7.05231 11.0065 6.46864 10.8493 5.91242C10.6922 5.3562 10.4163 4.84064 10.0408 4.40125C9.66529 3.96186 9.19901 3.60906 8.67407 3.36716C8.61658 3.34067 8.55854 3.31558 8.5 3.2919C8.02396 3.09933 7.5147 3 7 3L7 4.5ZM5.23223 8.76777C4.95247 8.488 4.7431 8.14584 4.62134 7.7694C4.49962 7.3931 4.46892 6.9933 4.53175 6.60283L3.05091 6.36382C2.96908 6.87229 2.98628 7.39122 3.10053 7.89116C3.12667 8.00553 3.15788 8.11894 3.19414 8.23104C3.23041 8.34314 3.27152 8.45335 3.31732 8.56136C3.51752 9.03356 3.80712 9.46391 4.1713 9.82816L5.23223 8.76777ZM5.85933 4.77539C5.48411 4.96779 5.16364 5.25197 4.92776 5.6015L3.68441 4.7624C3.77372 4.63007 3.8706 4.50359 3.97442 4.38353C4.20592 4.11584 4.47193 3.88004 4.76547 3.68234C4.89712 3.59367 5.0343 3.51266 5.17639 3.43988L5.86024 4.77493L5.85933 4.77539Z" fill="#364141"/>
</svg>
