<svg width="19" height="17" viewBox="0 0 19 17" fill="none" xmlns="http://www.w3.org/2000/svg">
<path d="M16.9696 16.0304L2.46959 1.53039L3.53025 0.469727L5.64772 2.58719C7.0283 2.20453 8.48283 2.00006 9.98509 2.00006C13.3148 2.00006 16.41 3.00459 18.9853 4.72746L18.1541 5.97636C15.8165 4.41204 13.007 3.50006 9.98509 3.50006C8.92256 3.50006 7.88629 3.61281 6.88755 3.82702L9.09359 6.03307C9.3928 6.01119 9.69499 6.00006 9.99978 6.00006C12.5138 6.00006 14.851 6.7574 16.7956 8.05639L15.9635 9.3046C14.4065 8.2645 12.5626 7.62012 10.5758 7.51522L18.0303 14.9697L16.9696 16.0304Z" fill="#364141"/>
<path d="M10.9999 15C10.9999 15.5523 10.5522 16 9.99992 16C9.44764 16 8.99992 15.5523 8.99992 15C8.99992 14.4477 9.44764 14 9.99992 14C10.5522 14 10.9999 14.4477 10.9999 15Z" fill="#364141"/>
<path d="M5.52849 11.5428C6.5143 10.7694 7.70552 10.2458 9.00674 10.0676L10.4572 11.518C10.3063 11.5061 10.1539 11.5001 9.99999 11.5001C8.62053 11.5001 7.35453 11.9859 6.3637 12.7957L5.52849 11.5428Z" fill="#364141"/>
<path d="M6.89456 7.95535L5.71101 6.7718C4.82178 7.1042 3.98153 7.53697 3.20403 8.05633L4.03616 9.30454C4.90754 8.72248 5.86873 8.26434 6.89456 7.95535Z" fill="#364141"/>
<path d="M0.984863 4.72746C1.52605 4.36541 2.0902 4.03507 2.67467 3.73912L3.7961 4.8624C3.10543 5.18334 2.44375 5.55633 1.81609 5.97636L0.984863 4.72746Z" fill="#364141"/>
</svg>
