<svg width="19" height="16" viewBox="0 0 19 16" fill="none" xmlns="http://www.w3.org/2000/svg">
<path d="M9.84325 2.75C6.92195 2.75 4.20253 3.64783 1.93969 5.18916L0.842773 3.51513C3.41688 1.7689 6.51102 0.75 9.84325 0.75C13.1751 0.75 16.269 1.76868 18.8429 3.51457L17.746 5.18859C15.4833 3.64762 12.7642 2.75 9.84325 2.75Z" fill="#364141"/>
<path d="M9.99993 15.25C10.6903 15.25 11.2499 14.6904 11.2499 14C11.2499 13.3096 10.6903 12.75 9.99993 12.75C9.30958 12.75 8.74993 13.3096 8.74993 14C8.74993 14.6904 9.30958 15.25 9.99993 15.25Z" fill="#364141"/>
<path d="M16.9343 6.8483C14.9501 5.5228 12.5652 4.75 9.99981 4.75C7.43447 4.75 5.04962 5.52278 3.06536 6.84824L4.17488 8.51252C5.84166 7.39913 7.84493 6.75 9.99981 6.75C12.1547 6.75 14.158 7.39915 15.8248 8.51258L16.9343 6.8483Z" fill="#364141"/>
<path d="M9.99989 8.75C11.7383 8.75 13.3386 9.34146 14.6105 10.3341L13.4968 12.0046C12.5463 11.2208 11.3281 10.75 9.99989 10.75C8.6717 10.75 7.45347 11.2208 6.50297 12.0046L5.38931 10.3341C6.66119 9.34146 8.26147 8.75 9.99989 8.75Z" fill="#364141"/>
</svg>
