<svg width="19" height="17" viewBox="0 0 19 17" fill="none" xmlns="http://www.w3.org/2000/svg">
<path d="M16.7928 16.2072L2.29284 1.70718L3.70706 0.292969L5.70469 2.2906C7.02543 1.93795 8.41239 1.75008 9.84325 1.75008C13.1751 1.75008 16.269 2.76875 18.8429 4.51464L17.746 6.18867C15.4833 4.64769 12.7642 3.75008 9.84325 3.75008C9.00368 3.75008 8.18078 3.82423 7.3806 3.96651L9.18998 5.77589C9.45772 5.75877 9.72775 5.75008 9.99981 5.75008C12.5652 5.75008 14.9501 6.52288 16.9343 7.84837L15.8248 9.51265C14.4816 8.61536 12.9198 8.01958 11.2362 7.8221L18.2071 14.793L16.7928 16.2072Z" fill="#364141"/>
<path d="M11.25 15C11.25 15.6904 10.6903 16.25 9.99995 16.25C9.3096 16.25 8.74995 15.6904 8.74995 15C8.74995 14.3097 9.3096 13.75 9.99995 13.75C10.6903 13.75 11.25 14.3097 11.25 15Z" fill="#364141"/>
<path d="M5.38943 11.3342C6.35914 10.5774 7.51973 10.0538 8.7869 9.84771L10.7384 11.7992C10.4969 11.7668 10.2504 11.7501 10 11.7501C8.67182 11.7501 7.45359 12.2209 6.5031 13.0047L5.38943 11.3342Z" fill="#364141"/>
<path d="M7.09599 8.15677L5.51711 6.5779C4.64906 6.91148 3.82765 7.33912 3.06536 7.84832L4.17488 9.51259C5.06247 8.9197 6.04548 8.45845 7.09599 8.15677Z" fill="#364141"/>
<path d="M0.842773 4.5152C1.28839 4.21291 1.74958 3.93241 2.2249 3.67522L3.69392 5.16982C3.08394 5.46792 2.49792 5.809 1.93969 6.18923L0.842773 4.5152Z" fill="#364141"/>
</svg>
