<svg width="19" height="14" viewBox="0 0 19 14" fill="none" xmlns="http://www.w3.org/2000/svg">
<path d="M9.98509 0C13.3148 0 16.41 1.00453 18.9853 2.72741L18.1541 3.9763C15.8165 2.41198 13.007 1.5 9.98509 1.5C6.96322 1.5 4.15371 2.41198 1.81609 3.9763L0.984863 2.72741C3.56014 1.00453 6.65535 0 9.98509 0Z" fill="#364141"/>
<path d="M9.99992 14C10.5522 14 10.9999 13.5523 10.9999 13C10.9999 12.4477 10.5522 12 9.99992 12C9.44764 12 8.99992 12.4477 8.99992 13C8.99992 13.5523 9.44764 14 9.99992 14Z" fill="#364141"/>
<path d="M16.7956 6.05633C14.851 4.75734 12.5138 4 9.99978 4C7.48575 4 5.1486 4.75732 3.20403 6.05628L4.03616 7.30448C5.74263 6.16459 7.79359 5.5 9.99978 5.5C12.206 5.5 14.257 6.16461 15.9635 7.30454L16.7956 6.05633Z" fill="#364141"/>
<path d="M9.99987 8C11.687 8 13.2395 8.57629 14.4714 9.54275L13.6362 10.7956C12.6453 9.98577 11.3793 9.5 9.99987 9.5C8.62041 9.5 7.3544 9.98577 6.36358 10.7956L5.52837 9.54275C6.7602 8.57629 8.31273 8 9.99987 8Z" fill="#364141"/>
</svg>
