<svg width="16" height="16" viewBox="0 0 16 16" fill="none" xmlns="http://www.w3.org/2000/svg">
<path d="M11.375 4.625H9.5V3.375H12.625V6.5H11.375V4.625Z" fill="#364141"/>
<path d="M6.5 4.625H4.625V6.5H3.375V3.375H6.5V4.625Z" fill="#364141"/>
<path d="M11.375 11.375H9.5V12.625H12.625V9.5H11.375V11.375Z" fill="#364141"/>
<path d="M6.5 11.375H4.625V9.5H3.375V12.625H6.5V11.375Z" fill="#364141"/>
<path fill-rule="evenodd" clip-rule="evenodd" d="M1.5 0C0.671573 0 0 0.671573 0 1.5V14.5C0 15.3284 0.671573 16 1.5 16H14.5C15.3284 16 16 15.3284 16 14.5V1.5C16 0.671573 15.3284 0 14.5 0H1.5ZM14.5 1.5H1.5V14.5H14.5V1.5Z" fill="#364141"/>
</svg>
