<svg width="19" height="19" viewBox="0 0 19 19" fill="none" xmlns="http://www.w3.org/2000/svg">
<path d="M16.008 0.5L18.998 3.49496L17.9364 4.55473L14.9465 1.55977L16.008 0.5Z" fill="#364141"/>
<path d="M5.04928 1.56071L2.05936 4.55567L0.997803 3.49591L3.98773 0.500944L5.04928 1.56071Z" fill="#364141"/>
<path d="M9.24734 6.02151V10.3251L11.9582 13.0405L13.0197 11.9807L10.7473 9.70451V6.02151H9.24734Z" fill="#364141"/>
<path fill-rule="evenodd" clip-rule="evenodd" d="M18.2174 9.76519C18.2174 14.3139 14.5373 18.0013 9.99759 18.0013C5.45789 18.0013 1.77774 14.3139 1.77774 9.76519C1.77774 5.21649 5.45789 1.52904 9.99759 1.52904C14.5373 1.52904 18.2174 5.21649 18.2174 9.76519ZM16.7174 9.76519C16.7174 13.4883 13.7061 16.5013 9.99759 16.5013C6.28912 16.5013 3.27774 13.4883 3.27774 9.76519C3.27774 6.04212 6.28912 3.02904 9.99759 3.02904C13.7061 3.02904 16.7174 6.04212 16.7174 9.76519Z" fill="#364141"/>
</svg>
