<svg width="18" height="14" viewBox="0 0 18 14" fill="none" xmlns="http://www.w3.org/2000/svg">
<path fill-rule="evenodd" clip-rule="evenodd" d="M2.43409 9.5H4.04561L4.30938 8.46299H5.88477L6.14854 9.5H7.76007L6.05821 4.28604H4.13595L2.43409 9.5ZM5.06095 5.529H5.13321L5.60655 7.38262H4.58761L5.06095 5.529Z" fill="#364141"/>
<path d="M8.02803 9.5H11.6847V8.28594H9.56006V4.28604H8.02803V9.5Z" fill="#364141"/>
<path d="M14.0592 9.5H12.5271V5.5001H11.0782V4.28604H15.5081V5.5001H14.0592V9.5Z" fill="#364141"/>
<path fill-rule="evenodd" clip-rule="evenodd" d="M0 1.5C0 0.671573 0.671573 0 1.5 0H16.5C17.3284 0 18 0.671573 18 1.5V12.5C18 13.3284 17.3284 14 16.5 14H1.5C0.671573 14 0 13.3284 0 12.5V1.5ZM1.5 1.5H16.5V12.5H1.5L1.5 1.5Z" fill="#364141"/>
</svg>
