<svg width="20" height="20" viewBox="0 0 20 20" fill="none" xmlns="http://www.w3.org/2000/svg">
<path fill-rule="evenodd" clip-rule="evenodd" d="M10.5303 18.5303L9.99999 19.0606L9.46966 18.5303L6.46966 15.5303L7.53032 14.4697L9.24999 16.1893V10.75H3.81065L5.53032 12.4697L4.46966 13.5303L1.46966 10.5303L0.939331 9.99999L1.46966 9.46966L4.46966 6.46966L5.53032 7.53032L3.81065 9.24999H9.24999V3.81065L7.53032 5.53032L6.46966 4.46966L9.46966 1.46966L9.99999 0.939331L10.5303 1.46966L13.5303 4.46966L12.4697 5.53032L10.75 3.81065V9.24999H16.1893L14.4697 7.53032L15.5303 6.46966L18.5303 9.46966L19.0606 9.99999L18.5303 10.5303L15.5303 13.5303L14.4697 12.4697L16.1893 10.75H10.75V16.1893L12.4697 14.4697L13.5303 15.5303L10.5303 18.5303Z" fill="#364141"/>
</svg>
