<svg width="18" height="14" viewBox="0 0 18 14" fill="none" xmlns="http://www.w3.org/2000/svg">
<path d="M5 3.5H3V10.5H5V3.5Z" fill="#364141"/>
<path d="M15 3.5H13V10.5H15V3.5Z" fill="#364141"/>
<path d="M10 3.5H12V10.5H10V3.5Z" fill="#364141"/>
<path d="M7 3.5H6V10.5H7V3.5Z" fill="#364141"/>
<path d="M8 3.5H9V10.5H8V3.5Z" fill="#364141"/>
<path fill-rule="evenodd" clip-rule="evenodd" d="M0 1.5C0 0.671573 0.671573 0 1.5 0H16.5C17.3284 0 18 0.671573 18 1.5V12.5C18 13.3284 17.3284 14 16.5 14H1.5C0.671573 14 0 13.3284 0 12.5V1.5ZM1.5 1.5H16.5V12.5H1.5L1.5 1.5Z" fill="#364141"/>
</svg>
