<svg width="18" height="16" viewBox="0 0 18 16" fill="none" xmlns="http://www.w3.org/2000/svg">
<path fill-rule="evenodd" clip-rule="evenodd" d="M1.5 0C0.671573 0 0 0.671573 0 1.5V2.75C0 3.57843 0.671573 4.25 1.5 4.25H16.5C17.3284 4.25 18 3.57843 18 2.75V1.5C18 0.671573 17.3284 0 16.5 0H1.5ZM16.5 1.5H1.5L1.5 2.75H16.5V1.5Z" fill="#364141"/>
<path fill-rule="evenodd" clip-rule="evenodd" d="M1.5 5.88C0.671573 5.88 0 6.55158 0 7.38V8.63C0 9.45843 0.671573 10.13 1.5 10.13H16.5C17.3284 10.13 18 9.45843 18 8.63V7.38C18 6.55158 17.3284 5.88 16.5 5.88H1.5ZM16.5 7.38H1.5L1.5 8.63H16.5V7.38Z" fill="#364141"/>
<path fill-rule="evenodd" clip-rule="evenodd" d="M0 13.25C0 12.4216 0.671573 11.75 1.5 11.75H16.5C17.3284 11.75 18 12.4216 18 13.25V14.5C18 15.3284 17.3284 16 16.5 16H1.5C0.671573 16 0 15.3284 0 14.5V13.25ZM1.5 13.25H16.5V14.5H1.5L1.5 13.25Z" fill="#364141"/>
</svg>
