<svg width="16" height="18" viewBox="0 0 16 18" fill="none" xmlns="http://www.w3.org/2000/svg">
<path d="M3.5 4.75L12.5 4.75V3.25L3.5 3.25V4.75Z" fill="#364141"/>
<path d="M10 7.75L3.5 7.75001V6.25001L10 6.25L10 7.75Z" fill="#364141"/>
<path fill-rule="evenodd" clip-rule="evenodd" d="M3.5 0.25C1.98122 0.25 0.75 1.48122 0.75 3V15C0.75 16.5188 1.98122 17.75 3.5 17.75H15.25V16.25H14.25V13.75H15.25V0.25H3.5ZM12.75 13.75H3.5C2.80964 13.75 2.25 14.3096 2.25 15C2.25 15.6904 2.80964 16.25 3.5 16.25H12.75V13.75ZM3.5 12.25C3.04989 12.25 2.62503 12.3581 2.25 12.5499V3C2.25 2.30964 2.80964 1.75 3.5 1.75H13.75V12.25H3.5Z" fill="#364141"/>
</svg>
