<svg width="18" height="17" viewBox="0 0 18 17" fill="none" xmlns="http://www.w3.org/2000/svg">
<path fill-rule="evenodd" clip-rule="evenodd" d="M3 11.6397V1.19374C3 0.852464 3.33435 0.611479 3.65811 0.719401L8.68377 2.39462C8.88904 2.46304 9.11096 2.46304 9.31623 2.39462L14.3419 0.719401C14.6657 0.611479 15 0.852464 15 1.19374V11.6397C15 11.8549 14.8623 12.0459 14.6581 12.114L9.31623 13.8946C9.11096 13.963 8.88904 13.963 8.68377 13.8946L3.34189 12.114C3.13772 12.0459 3 11.8549 3 11.6397ZM8.20943 3.81765C8.22293 3.82214 8.23645 3.82652 8.25 3.83079V12.1689L4.5 10.9189V2.58117L8.20943 3.81765ZM9.75 3.83079V12.1689L13.5 10.9189V2.58117L9.79057 3.81765C9.77707 3.82214 9.76355 3.82652 9.75 3.83079Z" fill="#364141"/>
<path d="M0 4.50003V13.2793C0 13.7097 0.27543 14.0918 0.683772 14.228L8.68377 16.8946C8.88904 16.963 9.11096 16.963 9.31623 16.8946L17.3162 14.228C17.7246 14.0918 18 13.7097 18 13.2793V4.50003C18 3.6716 17.3284 3.00003 16.5 3.00003V13L9 15.5L1.5 13V3.00003C0.671573 3.00003 0 3.6716 0 4.50003Z" fill="#364141"/>
</svg>
