<svg width="18" height="17" viewBox="0 0 18 17" fill="none" xmlns="http://www.w3.org/2000/svg">
<path d="M9 9C9.55229 9 10 8.55229 10 8C10 7.44772 9.55229 7 9 7C8.44771 7 8 7.44772 8 8C8 8.55229 8.44771 9 9 9Z" fill="#364141"/>
<path fill-rule="evenodd" clip-rule="evenodd" d="M5.25 3V2.75C5.25 1.23122 6.48122 0 8 0H10C11.5188 0 12.75 1.23122 12.75 2.75V3H16.5C17.3284 3 18 3.67157 18 4.5V15.5C18 16.3284 17.3284 17 16.5 17H1.5C0.671573 17 0 16.3284 0 15.5V4.5C0 3.67157 0.671573 3 1.5 3H5.25ZM6.75 2.75C6.75 2.05964 7.30964 1.5 8 1.5H10C10.6904 1.5 11.25 2.05964 11.25 2.75V3H6.75V2.75ZM16.5 4.5V8.2955C14.6172 9.58739 11.977 10.4267 9 10.4267C6.023 10.4267 3.38277 9.58739 1.5 8.2955L1.5 4.5H16.5ZM1.5 15.5L1.5 10.0624C3.5544 11.2289 6.16216 11.9267 9 11.9267C11.8378 11.9267 14.4456 11.2289 16.5 10.0624V15.5H1.5Z" fill="#364141"/>
</svg>
