<svg width="18" height="14" viewBox="0 0 18 14" fill="none" xmlns="http://www.w3.org/2000/svg">
<path d="M2.75 4.30005H6V2.80005H2.75V4.30005Z" fill="#364141"/>
<path d="M2.75 7H6V5.5H2.75V7Z" fill="#364141"/>
<path d="M2.75 9.75H6V8.25H2.75V9.75Z" fill="#364141"/>
<path fill-rule="evenodd" clip-rule="evenodd" d="M1.5 0C0.671573 0 0 0.671573 0 1.5V12.5C0 13.3284 0.671573 14 1.5 14H16.5C17.3284 14 18 13.3284 18 12.5V1.5C18 0.671573 17.3284 0 16.5 0H1.5ZM16.5 1.5H8.75V12.5H16.5V1.5ZM1.5 12.5H7.25V1.5H1.5L1.5 12.5Z" fill="#364141"/>
</svg>
