<svg width="18" height="18" viewBox="0 0 18 18" fill="none" xmlns="http://www.w3.org/2000/svg">
<path d="M16.5 8.99994C16.5 13.1421 13.1421 16.4999 9 16.4999C4.85786 16.4999 1.5 13.1421 1.5 8.99994C1.5 4.8578 4.85786 1.49994 9 1.49994L10.3929 0.107069C9.93891 0.0365401 9.47373 -6.10352e-05 9 -6.10352e-05C4.02944 -6.10352e-05 0 4.02938 0 8.99994C0 13.9705 4.02944 17.9999 9 17.9999C13.9706 17.9999 18 13.9705 18 8.99994C18 8.52621 17.9634 8.06103 17.8929 7.60707L16.5 8.99994Z" fill="#364141"/>
<path fill-rule="evenodd" clip-rule="evenodd" d="M11.0607 7.99994H13.8572C14.4071 7.99994 14.9328 7.77349 15.3106 7.37385L17.8215 4.71769C18.1307 4.39063 17.9831 3.85224 17.5503 3.7286L15 2.99994L14.2801 0.480414C14.1545 0.0405259 13.6025 -0.102513 13.279 0.220982L10.5858 2.91415C10.2107 3.28923 10 3.79793 10 4.32837V6.93928L8.46967 8.46961C8.17678 8.7625 8.17678 9.23738 8.46967 9.53027C8.76256 9.82316 9.23744 9.82316 9.53033 9.53027L11.0607 7.99994ZM13.7866 4.21329L15.7137 4.76388L14.2205 6.34342C14.1261 6.44333 13.9947 6.49994 13.8572 6.49994H11.5V4.32837C11.5 4.19576 11.5527 4.06858 11.6464 3.97481L13.2581 2.36321L13.7866 4.21329Z" fill="#364141"/>
<path d="M4 8.99993C4 6.58097 5.71776 4.56322 8 4.09995V5.64487C6.55426 6.07514 5.5 7.41442 5.5 8.99993C5.5 10.9329 7.067 12.4999 9 12.4999C10.5855 12.4999 11.9248 11.4457 12.3551 9.99993H13.9C13.4367 12.2822 11.419 13.9999 9 13.9999C6.23858 13.9999 4 11.7614 4 8.99993Z" fill="#364141"/>
</svg>
