<svg width="16" height="16" viewBox="0 0 16 16" fill="none" xmlns="http://www.w3.org/2000/svg">
<path fill-rule="evenodd" clip-rule="evenodd" d="M4.5 3C3.67157 3 3 3.67157 3 4.5V6C3 6.82843 3.67157 7.5 4.5 7.5H11.5C12.3284 7.5 13 6.82843 13 6V4.5C13 3.67157 12.3284 3 11.5 3H4.5ZM11.5 4.5H4.5V6H11.5V4.5Z" fill="#364141"/>
<path d="M7 10.25H9V8.75H7V10.25Z" fill="#364141"/>
<path d="M3.5 10.25V8.75H5.5V10.25H3.5Z" fill="#364141"/>
<path d="M7 13.25H9V11.75H7V13.25Z" fill="#364141"/>
<path d="M10.75 13.25V8.75H12.25V13.25H10.75Z" fill="#364141"/>
<path d="M3.5 11.75V13.25H5.5V11.75H3.5Z" fill="#364141"/>
<path fill-rule="evenodd" clip-rule="evenodd" d="M1.5 0C0.671573 0 0 0.671573 0 1.5V14.5C0 15.3284 0.671573 16 1.5 16H14.5C15.3284 16 16 15.3284 16 14.5V1.5C16 0.671573 15.3284 0 14.5 0H1.5ZM14.5 1.5H1.5V14.5H14.5V1.5Z" fill="#364141"/>
</svg>
