<svg width="16" height="17" viewBox="0 0 16 17" fill="none" xmlns="http://www.w3.org/2000/svg">
<path d="M12.5 10H6V8.5H12.5V10Z" fill="#364141"/>
<path d="M3.5 13.75H10V12.25H3.5V13.75Z" fill="#364141"/>
<path fill-rule="evenodd" clip-rule="evenodd" d="M11.25 2H4.75V0H3.25V2H1.5C0.671573 2 0 2.67157 0 3.5V15.5C0 16.3284 0.671573 17 1.5 17H14.5C15.3284 17 16 16.3284 16 15.5V3.5C16 2.67157 15.3284 2 14.5 2H12.75V0H11.25V2ZM1.5 3.5H14.5V5.25H1.5V3.5ZM14.5 6.75V15.5H1.5V6.75H14.5Z" fill="#364141"/>
</svg>
