<svg width="18" height="16" viewBox="0 0 18 16" fill="none" xmlns="http://www.w3.org/2000/svg">
<path d="M5.96967 6.53033L7.93934 8.5L5.96967 10.4697L7.03033 11.5303L9 9.56066L10.9697 11.5303L12.0303 10.4697L10.0607 8.5L12.0303 6.53033L10.9697 5.46967L9 7.43934L7.03033 5.46967L5.96967 6.53033Z" fill="#364141"/>
<path fill-rule="evenodd" clip-rule="evenodd" d="M0 4.5C0 3.67157 0.671573 3 1.5 3H3.26581C3.4142 3 3.55493 2.93409 3.64992 2.82009L5.40031 0.719631C5.7803 0.263645 6.34319 0 6.93675 0H11.25C11.8795 0 12.4723 0.296388 12.85 0.8L14.35 2.8C14.4444 2.9259 14.5926 3 14.75 3H16.5C17.3284 3 18 3.67157 18 4.5V14.5C18 15.3284 17.3284 16 16.5 16H1.5C0.671573 16 0 15.3284 0 14.5V4.5ZM16.5 4.5V14.5H1.5L1.5 4.5L3.26581 4.5C3.85937 4.5 4.42227 4.23635 4.80226 3.78037L6.55264 1.67991C6.64764 1.56591 6.78836 1.5 6.93675 1.5H11.25C11.4074 1.5 11.5556 1.5741 11.65 1.7L13.15 3.7C13.5277 4.20361 14.1205 4.5 14.75 4.5H16.5Z" fill="#364141"/>
</svg>
