<svg width="18" height="14" viewBox="0 0 18 14" fill="none" xmlns="http://www.w3.org/2000/svg">
<path fill-rule="evenodd" clip-rule="evenodd" d="M14 0C13.1716 0 12.5 0.671573 12.5 1.5V11H17V1.5C17 0.671573 16.3284 0 15.5 0H14ZM15.5 1.5H14V9.5H15.5V1.5Z" fill="#364141"/>
<path fill-rule="evenodd" clip-rule="evenodd" d="M1 6.5C1 5.67157 1.67157 5 2.5 5H4C4.82843 5 5.5 5.67157 5.5 6.5V11H1V6.5ZM2.5 6.5H4V9.5H2.5V6.5Z" fill="#364141"/>
<path d="M0 14H18V12.5H0V14Z" fill="#364141"/>
<path fill-rule="evenodd" clip-rule="evenodd" d="M6.75 4C6.75 3.17157 7.42157 2.5 8.25 2.5H9.75C10.5784 2.5 11.25 3.17157 11.25 4V11H6.75V4ZM8.25 4H9.75V9.5H8.25V4Z" fill="#364141"/>
</svg>
