<svg width="18" height="18" viewBox="0 0 18 18" fill="none" xmlns="http://www.w3.org/2000/svg">
<path fill-rule="evenodd" clip-rule="evenodd" d="M9 9H18C18 9.50489 17.9575 10.0066 17.8741 10.5C17.6635 11.7462 17.1917 12.9399 16.4832 14.0001C15.4943 15.4802 14.0887 16.6337 12.4442 17.3149C10.7996 17.9961 8.99002 18.1743 7.24419 17.8271C5.49836 17.4798 3.89472 16.6226 2.63604 15.364C1.37737 14.1053 0.520203 12.5016 0.172937 10.7558C-0.17433 9.00998 0.00389957 7.20038 0.685088 5.55585C1.36628 3.91131 2.51983 2.50571 3.99987 1.51677C5.06011 0.808342 6.25379 0.33653 7.5 0.125875C7.99344 0.0424659 8.49511 0 9 0V9ZM16.3485 10.5C16.155 11.448 15.7788 12.3544 15.236 13.1668C14.4119 14.4001 13.2406 15.3614 11.8701 15.9291C10.4997 16.4968 8.99168 16.6453 7.53683 16.3559C6.08197 16.0665 4.7456 15.3522 3.6967 14.3033C2.64781 13.2544 1.9335 11.918 1.64411 10.4632C1.35473 9.00832 1.50325 7.50032 2.07091 6.12987C2.63856 4.75943 3.59986 3.58809 4.83323 2.76398C5.64561 2.22116 6.55201 1.84504 7.5 1.65153V10.5H16.3485Z" fill="#364141"/>
<path fill-rule="evenodd" clip-rule="evenodd" d="M17.4879 6.00007C17.6584 6.48252 17.789 6.98385 17.8756 7.50007H10.5V0.124512C11.0162 0.211118 11.5176 0.341671 12 0.512191C14.5572 1.41605 16.584 3.44283 17.4879 6.00007ZM12 2.12383C13.7298 2.87982 15.1203 4.27028 15.8762 6.00007H12V2.12383Z" fill="#364141"/>
</svg>
