<svg width="18" height="18" viewBox="0 0 18 18" fill="none" xmlns="http://www.w3.org/2000/svg">
<path d="M11.2981 5.64124L9 7.93934L6.7019 5.64124L5.64124 6.7019L7.93934 9L5.64124 11.2981L6.7019 12.3588L9 10.0607L11.2981 12.3588L12.3588 11.2981L10.0607 9L12.3588 6.7019L11.2981 5.64124Z" fill="#364141"/>
<path fill-rule="evenodd" clip-rule="evenodd" d="M18 9C18 13.9706 13.9706 18 9 18C4.02944 18 0 13.9706 0 9C0 4.02944 4.02944 0 9 0C13.9706 0 18 4.02944 18 9ZM16.5 9C16.5 13.1421 13.1421 16.5 9 16.5C4.85786 16.5 1.5 13.1421 1.5 9C1.5 4.85786 4.85786 1.5 9 1.5C13.1421 1.5 16.5 4.85786 16.5 9Z" fill="#364141"/>
</svg>
