<svg width="18" height="18" viewBox="0 0 18 18" fill="none" xmlns="http://www.w3.org/2000/svg">
<path fill-rule="evenodd" clip-rule="evenodd" d="M9 10.5C10.7949 10.5 12.25 9.04493 12.25 7.25C12.25 5.45507 10.7949 4 9 4C7.20507 4 5.75 5.45507 5.75 7.25C5.75 9.04493 7.20507 10.5 9 10.5ZM9 9C9.9665 9 10.75 8.2165 10.75 7.25C10.75 6.2835 9.9665 5.5 9 5.5C8.0335 5.5 7.25 6.2835 7.25 7.25C7.25 8.2165 8.0335 9 9 9Z" fill="#364141"/>
<path fill-rule="evenodd" clip-rule="evenodd" d="M0.914732 12.9579C0.32892 11.7634 0 10.4201 0 9C0 4.02944 4.02944 0 9 0C13.9706 0 18 4.02944 18 9C18 10.4201 17.6711 11.7634 17.0853 12.9579C16.8701 13.3965 16.6204 13.8151 16.3395 14.21C16.3312 14.2217 16.3228 14.2334 16.3144 14.2451C14.681 16.519 12.0134 18 9 18C5.98656 18 3.31904 16.519 1.68558 14.2451C1.40353 13.8525 1.15232 13.4363 0.935472 12.9999C0.928523 12.9859 0.92161 12.9719 0.914732 12.9579ZM15.7399 12.2938C16.2267 11.2996 16.5 10.1817 16.5 9C16.5 4.85786 13.1421 1.5 9 1.5C4.85786 1.5 1.5 4.85786 1.5 9C1.5 10.1817 1.77329 11.2996 2.26012 12.2938C4.18131 11.4772 6.50148 11 9 11C11.4985 11 13.8187 11.4772 15.7399 12.2938ZM14.9361 13.5845C13.2617 12.9093 11.2256 12.5 9 12.5C6.77435 12.5 4.73831 12.9093 3.06388 13.5845C4.43559 15.358 6.58444 16.5 9 16.5C11.4156 16.5 13.5644 15.358 14.9361 13.5845Z" fill="#364141"/>
</svg>
