<svg width="16" height="17" viewBox="0 0 16 17" fill="none" xmlns="http://www.w3.org/2000/svg">
<path d="M7.25 3.75V6.25H4.75V7.75H7.25V10.25H8.75V7.75H11.25V6.25H8.75V3.75H7.25Z" fill="#364141"/>
<path fill-rule="evenodd" clip-rule="evenodd" d="M0 1.5C0 0.671573 0.671573 0 1.5 0H14.5C15.3284 0 16 0.671573 16 1.5V12.5C16 13.3284 15.3284 14 14.5 14H11.2361C11.0808 14 10.9277 14.0361 10.7889 14.1056L5.72361 16.6382C5.39116 16.8044 5 16.5627 5 16.191V14.15C5 14.0672 4.93284 14 4.85 14H1.5C0.671573 14 0 13.3284 0 12.5V1.5ZM1.5 1.5H14.5V12.5H11.2361C10.848 12.5 10.4652 12.5904 10.118 12.7639L6.5 14.5729V14.15C6.5 13.2387 5.76127 12.5 4.85 12.5H1.5V1.5Z" fill="#364141"/>
</svg>
