<svg width="18" height="19" viewBox="0 0 18 19" fill="none" xmlns="http://www.w3.org/2000/svg">
<path fill-rule="evenodd" clip-rule="evenodd" d="M0.469727 2.03039L16.4697 18.0304L17.5304 16.9697L16.4212 15.8605C16.7735 15.586 17.0001 15.1578 17.0001 14.6766V4.50011C17.0001 3.67169 16.3285 3.00011 15.5001 3.00011H3.56077L1.53039 0.969727L0.469727 2.03039ZM5.06077 4.50011L8.13665 7.57599L8.76922 6.05509C8.85462 5.84977 9.14548 5.84977 9.23088 6.0551L10.0656 8.06188C10.1016 8.14844 10.183 8.20758 10.2764 8.21507L12.4429 8.38876C12.6646 8.40653 12.7544 8.68316 12.5856 8.82782L10.9349 10.2418C10.9104 10.2628 10.8906 10.2879 10.8762 10.3155L15.2372 14.6766H15.5001V4.50011L5.06077 4.50011Z" fill="#364141"/>
<path d="M2.50005 14.6766V5.91433L1.00234 4.41661C1.00082 4.44425 1.00005 4.47209 1.00005 4.50011V14.6766C1.00005 15.505 1.67163 16.1766 2.50005 16.1766H5.85005C5.93289 16.1766 6.00005 16.2437 6.00005 16.3266V18.2122C6.00005 18.5787 6.38133 18.8207 6.71295 18.6646L11.7978 16.2718C11.931 16.2091 12.0764 16.1766 12.2236 16.1766H12.7623L11.4014 14.8157C11.3191 14.8443 11.2382 14.8773 11.1591 14.9145L7.50005 16.6364V16.3266C7.50005 15.4153 6.76132 14.6766 5.85005 14.6766H2.50005Z" fill="#364141"/>
<path d="M5.40423 8.81852L5.39449 8.80877C5.39762 8.81208 5.40087 8.81533 5.40423 8.81852Z" fill="#364141"/>
<path d="M8.53337 11.9477L7.13217 10.5465L6.64143 12.6038C6.58983 12.8201 6.82514 12.991 7.01492 12.8751L8.53337 11.9477Z" fill="#364141"/>
</svg>
