<svg width="18" height="14" viewBox="0 0 18 14" fill="none" xmlns="http://www.w3.org/2000/svg">
<path d="M1.24999 2.75C1.24999 1.23122 2.4812 0 3.99999 0H4.49999V1.5H3.99999C3.30963 1.5 2.74999 2.05964 2.74999 2.75V4.9914C2.74999 5.77178 2.42119 6.49206 1.87843 7C2.42119 7.50794 2.74999 8.22822 2.74999 9.0086V11.25C2.74999 11.9404 3.30963 12.5 3.99999 12.5H4.49999V14H3.99999C2.4812 14 1.24999 12.7688 1.24999 11.25V9.0086C1.24999 8.4505 0.880014 7.96002 0.343387 7.8067L0.0439453 7.72114V6.27886L0.343387 6.1933C0.880014 6.03998 1.24999 5.5495 1.24999 4.9914V2.75Z" fill="#364141"/>
<path d="M8.24999 6.25V3.75H9.74999V6.25H12.25V7.75H9.74999V10.25H8.24999V7.75H5.74999V6.25H8.24999Z" fill="#364141"/>
<path d="M14 0C15.5188 0 16.75 1.23122 16.75 2.75V4.9914C16.75 5.5495 17.12 6.03998 17.6566 6.1933L17.956 6.27886V7.72114L17.6566 7.8067C17.12 7.96002 16.75 8.4505 16.75 9.0086V11.25C16.75 12.7688 15.5188 14 14 14H13.5V12.5H14C14.6903 12.5 15.25 11.9404 15.25 11.25V9.0086C15.25 8.22822 15.5788 7.50794 16.1215 7C15.5788 6.49206 15.25 5.77178 15.25 4.9914V2.75C15.25 2.05964 14.6903 1.5 14 1.5H13.5V0H14Z" fill="#364141"/>
</svg>
