<svg width="4" height="16" viewBox="0 0 4 16" fill="none" xmlns="http://www.w3.org/2000/svg">
<path d="M2 3C1.17157 3 0.5 2.32843 0.5 1.5C0.5 0.671573 1.17157 0 2 0C2.82843 0 3.5 0.671573 3.5 1.5C3.5 2.32843 2.82843 3 2 3Z" fill="#364141"/>
<path d="M2 9.5C1.17157 9.5 0.5 8.82843 0.5 8C0.5 7.17157 1.17157 6.5 2 6.5C2.82843 6.5 3.5 7.17157 3.5 8C3.5 8.82843 2.82843 9.5 2 9.5Z" fill="#364141"/>
<path d="M0.5 14.5C0.5 15.3284 1.17157 16 2 16C2.82843 16 3.5 15.3284 3.5 14.5C3.5 13.6716 2.82843 13 2 13C1.17157 13 0.5 13.6716 0.5 14.5Z" fill="#364141"/>
</svg>
