<svg width="14" height="14" viewBox="0 0 14 14" fill="none" xmlns="http://www.w3.org/2000/svg">
<path d="M3 1.75C2.30964 1.75 1.75 2.30964 1.75 3V3.5H0.25V3C0.25 1.48122 1.48122 0.25 3 0.25C4.51878 0.25 5.75 1.48122 5.75 3V3.5H4.25V3C4.25 2.30964 3.69036 1.75 3 1.75Z" fill="#364141"/>
<path d="M11 1.75C10.3096 1.75 9.75 2.30964 9.75 3V3.5H8.25V3C8.25 1.48122 9.48122 0.25 11 0.25C12.5188 0.25 13.75 1.48122 13.75 3V3.5H12.25V3C12.25 2.30964 11.6904 1.75 11 1.75Z" fill="#364141"/>
<path fill-rule="evenodd" clip-rule="evenodd" d="M0 7C0 7.49619 0.0588565 8.00073 0.173632 8.5C0.825363 11.335 3.2801 14 7 14C10.7199 14 13.1746 11.335 13.8264 8.5C13.9411 8.00073 14 7.49619 14 7H0ZM12.2801 8.5C11.6597 10.6177 9.75902 12.5 7 12.5C4.24098 12.5 2.3403 10.6177 1.71985 8.5H12.2801Z" fill="#364141"/>
</svg>
