<svg width="18" height="17" viewBox="0 0 18 17" fill="none" xmlns="http://www.w3.org/2000/svg">
<path fill-rule="evenodd" clip-rule="evenodd" d="M14.5706 13.51C14.8743 13.232 15.1542 12.9417 15.4109 12.6476C16.8085 11.0463 17.5699 9.27964 17.8414 8.57035C17.9823 8.20249 17.9823 7.79751 17.8414 7.42965C17.5699 6.72036 16.8085 4.9537 15.4109 3.3524C14.0065 1.74329 11.91 0.25 8.99996 0.25C6.65881 0.25 4.84421 1.21651 3.49292 2.43228L1.53031 0.46967L0.469653 1.53033L15.4697 16.5303L16.5303 15.4697L14.5706 13.51ZM13.5091 12.4484C13.7856 12.1991 14.0425 11.9343 14.2808 11.6613C15.5132 10.2492 16.1983 8.66698 16.4406 8.03406C16.4492 8.01151 16.4492 7.98849 16.4406 7.96594C16.1983 7.33302 15.5132 5.75078 14.2808 4.33874C13.0552 2.93451 11.3381 1.75 8.99996 1.75C7.15148 1.75 5.69114 2.49035 4.55495 3.49431L6.90921 5.84857C7.44952 5.3234 8.18699 5 8.99998 5C10.6568 5 12 6.34315 12 8C12 8.813 11.6766 9.55047 11.1514 10.0908L13.5091 12.4484ZM10.0905 9.0299L7.97009 6.90944C8.23876 6.65562 8.6012 6.5 8.99998 6.5C9.82841 6.5 10.5 7.17157 10.5 8C10.5 8.39878 10.3444 8.76122 10.0905 9.0299Z" fill="#364141"/>
<path d="M1.55933 7.96594C1.70959 7.57344 2.03013 6.81584 2.5459 5.96015L1.45671 4.87095C0.761785 5.95835 0.344803 6.94294 0.158475 7.42965C0.0176506 7.79751 0.0176497 8.20249 0.158475 8.57034C0.430012 9.27964 1.1914 11.0463 2.58902 12.6476C3.99344 14.2567 6.08993 15.75 8.99996 15.75C10.0438 15.75 10.9829 15.5579 11.823 15.2372L10.6309 14.0451C10.1243 14.1768 9.58133 14.25 8.99996 14.25C6.66184 14.25 4.94473 13.0655 3.71911 11.6613C2.48669 10.2492 1.80163 8.66698 1.55933 8.03406C1.5507 8.01151 1.5507 7.98849 1.55933 7.96594Z" fill="#364141"/>
</svg>
