<svg width="18" height="18" viewBox="0 0 18 18" fill="none" xmlns="http://www.w3.org/2000/svg">
<path d="M13 13.75C13 12.0931 11.5 10.25 9 10.25C6.5 10.25 5 12.0931 5 13.75H13Z" fill="#364141"/>
<path d="M12.25 7.25C11.6977 7.25 11.25 6.80228 11.25 6.25V6H9.75V6.25C9.75 7.63071 10.8693 8.75 12.25 8.75C13.6307 8.75 14.75 7.63071 14.75 6.25V6H13.25V6.25C13.25 6.80228 12.8023 7.25 12.25 7.25Z" fill="#364141"/>
<path d="M4.75 6.25C4.75 6.80228 5.19772 7.25 5.75 7.25C6.30228 7.25 6.75 6.80228 6.75 6.25V6H8.25V6.25C8.25 7.63071 7.13071 8.75 5.75 8.75C4.36929 8.75 3.25 7.63071 3.25 6.25V6H4.75V6.25Z" fill="#364141"/>
<path fill-rule="evenodd" clip-rule="evenodd" d="M18 9C18 13.9706 13.9706 18 9 18C4.02944 18 0 13.9706 0 9C0 4.02944 4.02944 0 9 0C13.9706 0 18 4.02944 18 9ZM16.5 9C16.5 13.1421 13.1421 16.5 9 16.5C4.85786 16.5 1.5 13.1421 1.5 9C1.5 4.85786 4.85786 1.5 9 1.5C13.1421 1.5 16.5 4.85786 16.5 9Z" fill="#364141"/>
</svg>
