<svg width="16" height="18" viewBox="0 0 16 18" fill="none" xmlns="http://www.w3.org/2000/svg">
<path fill-rule="evenodd" clip-rule="evenodd" d="M7.98798 0.180469C8.21709 0.376769 8.30627 0.691242 8.21432 0.978592C7.25544 3.97509 7.66534 5.54453 8.1414 6.33003C8.3856 6.73297 8.67321 6.97548 8.89078 7.11576C8.96759 7.16528 9.03561 7.20199 9.0896 7.2282C9.14201 7.21797 9.20551 7.20396 9.27738 7.18499C9.50739 7.1243 9.80784 7.01693 10.1025 6.83276C10.6565 6.48653 11.25 5.84013 11.25 4.50001C11.25 4.21914 11.4069 3.9618 11.6566 3.83322C11.9064 3.70463 12.207 3.72635 12.4356 3.88949L12 4.50001C12.4356 3.88949 12.4359 3.88967 12.4361 3.88986L12.4367 3.89027L12.4381 3.89125L12.4416 3.89382L12.452 3.90135C12.4603 3.90743 12.4714 3.91565 12.4851 3.92598C12.5125 3.94664 12.5504 3.97578 12.5972 4.01324C12.6909 4.08811 12.8208 4.19654 12.9748 4.3373C13.282 4.61814 13.6894 5.03143 14.097 5.56753C14.9098 6.63644 15.75 8.22989 15.75 10.25C15.75 13.8244 12.9987 18 8 18C3.00326 18 0.25 13.8578 0.25 10.25C0.25 7.85093 0.919767 5.82092 2.14135 4.12428C3.35635 2.43678 5.08958 1.1167 7.16459 0.0791893C7.43444 -0.0557363 7.75887 -0.0158303 7.98798 0.180469ZM12.5261 6.01712C12.1992 7.02942 11.558 7.69195 10.8975 8.10476C10.4422 8.38934 9.99261 8.5476 9.66012 8.63534C9.49257 8.67956 9.35095 8.70686 9.24792 8.72342C9.19629 8.73171 9.15402 8.73737 9.12264 8.74112C9.10695 8.74299 9.09394 8.74439 9.08383 8.74541L9.07083 8.74667L9.06599 8.7471L9.064 8.74727L9.0631 8.74735C9.06269 8.74739 9.06228 8.74742 9 8.00001C8.79396 8.72115 8.79331 8.72097 8.79265 8.72078L8.79125 8.72037L8.78821 8.71949L8.78113 8.71738L8.7631 8.7118C8.74939 8.70744 8.73232 8.7018 8.7122 8.69472C8.67198 8.68056 8.61936 8.6606 8.55675 8.63362C8.43174 8.57976 8.26548 8.49734 8.07797 8.37645C7.70179 8.13391 7.2394 7.7358 6.8586 7.10749C6.2338 6.07656 5.89174 4.53822 6.3309 2.2718C5.1069 3.05694 4.10688 3.96153 3.35865 5.00074C2.33023 6.4291 1.75 8.14909 1.75 10.25C1.75 13.2047 3.99674 16.5 8 16.5C12.0013 16.5 14.25 13.1756 14.25 10.25C14.25 8.66076 13.5902 7.3792 12.903 6.47546C12.7759 6.30832 12.6488 6.15535 12.5261 6.01712ZM9 8.00001L8.79396 8.72115L8.92572 8.7588L9.06228 8.74742L9 8.00001Z" fill="#364141"/>
</svg>
