<svg width="16" height="16" viewBox="0 0 16 16" fill="none" xmlns="http://www.w3.org/2000/svg">
<path fill-rule="evenodd" clip-rule="evenodd" d="M0.25 16V0H1.75V1.25H7.39556C8.04595 1.25 8.64269 1.61069 8.94501 2.18654L9.32833 2.91667H14.5C15.1904 2.91667 15.75 3.47631 15.75 4.16667V11.5C15.75 12.1904 15.1904 12.75 14.5 12.75H8.60444C7.95405 12.75 7.35731 12.3893 7.05499 11.8135L6.67167 11.0833H1.75V16H0.25ZM1.75 9.58333V2.75H6.44118L8.51425 8.62372C8.60781 8.88878 9 8.8216 9 8.54051V4.41633C9.00869 4.41655 9.01739 4.41667 9.02611 4.41667H14.25V11.25H8.60444C8.51152 11.25 8.42628 11.1985 8.38309 11.1162L7.85929 10.1185C7.68653 9.78944 7.34554 9.58333 6.97389 9.58333H1.75Z" fill="#364141"/>
</svg>
