<svg width="18" height="15" viewBox="0 0 18 15" fill="none" xmlns="http://www.w3.org/2000/svg">
<path fill-rule="evenodd" clip-rule="evenodd" d="M2.25 15C1.00736 15 0 13.9926 0 12.75V1.5C0 0.671573 0.671573 0 1.5 0H5.53875C6.14632 0 6.72094 0.27618 7.10049 0.75061L8.5 2.5H14.5C15.3284 2.5 16 3.17157 16 4V5.5H16.75C17.4404 5.5 18 6.05964 18 6.75V13.75C18 14.4404 17.4404 15 16.75 15H2.25ZM7.77906 4H14.5V5.5H4.75C3.7835 5.5 3 6.2835 3 7.25V12.75C3 13.1642 2.66421 13.5 2.25 13.5C1.83579 13.5 1.5 13.1642 1.5 12.75V1.5H5.53875C5.69064 1.5 5.8343 1.56905 5.92918 1.68765L7.77906 4ZM4.37197 13.5C4.45488 13.2654 4.5 13.013 4.5 12.75V7.25C4.5 7.11193 4.61193 7 4.75 7H16.5V13.5H4.37197Z" fill="#364141"/>
</svg>
