<svg width="19" height="14" viewBox="0 0 19 14" fill="none" xmlns="http://www.w3.org/2000/svg">
<path fill-rule="evenodd" clip-rule="evenodd" d="M4.41198 0H7.56853L11.4984 14H9.94038L8.46669 8.75H3.80744L2.51797 14H0.973389L4.41198 0ZM4.17587 7.25H8.04564L6.4316 1.5H5.58815L4.17587 7.25Z" fill="#364141"/>
<path fill-rule="evenodd" clip-rule="evenodd" d="M15.5001 7C13.7051 7 12.2501 8.45507 12.2501 10.25V10.75C12.2501 12.5449 13.7051 14 15.5001 14C16.3125 14 17.0553 13.7019 17.6251 13.2091V14H18.8751V7H17.6251V7.79089C17.0553 7.2981 16.3125 7 15.5001 7ZM17.2501 10.75V10.25C17.2501 9.2835 16.4666 8.5 15.5001 8.5C14.5336 8.5 13.7501 9.2835 13.7501 10.25V10.75C13.7501 11.7165 14.5336 12.5 15.5001 12.5C16.4666 12.5 17.2501 11.7165 17.2501 10.75Z" fill="#364141"/>
</svg>
