<svg width="16" height="17" viewBox="0 0 16 17" fill="none" xmlns="http://www.w3.org/2000/svg">
<path fill-rule="evenodd" clip-rule="evenodd" d="M0 1.5C0 0.671573 0.671573 0 1.5 0H5.75C6.57843 0 7.25 0.671573 7.25 1.5V5.75C7.25 6.57843 6.57843 7.25 5.75 7.25H1.5C0.671573 7.25 0 6.57843 0 5.75V1.5ZM1.5 1.5H5.75V5.75H1.5L1.5 1.5Z" fill="#364141"/>
<path fill-rule="evenodd" clip-rule="evenodd" d="M8.75 1.5C8.75 0.671573 9.42157 0 10.25 0H14.5C15.3284 0 16 0.671573 16 1.5V5.75C16 6.57843 15.3284 7.25 14.5 7.25H10.25C9.42157 7.25 8.75 6.57843 8.75 5.75V1.5ZM10.25 1.5H14.5V5.75H10.25V1.5Z" fill="#364141"/>
<path fill-rule="evenodd" clip-rule="evenodd" d="M1.5 8.79999C0.671573 8.79999 0 9.47156 0 10.3V14.55C0 15.3784 0.671573 16.05 1.5 16.05H5.75C6.57843 16.05 7.25 15.3784 7.25 14.55V10.3C7.25 9.47156 6.57843 8.79999 5.75 8.79999H1.5ZM5.75 10.3H1.5L1.5 14.55H5.75V10.3Z" fill="#364141"/>
<path fill-rule="evenodd" clip-rule="evenodd" d="M8.75 10.3C8.75 9.47156 9.42157 8.79999 10.25 8.79999H14.5C15.3284 8.79999 16 9.47156 16 10.3V14.55C16 15.3784 15.3284 16.05 14.5 16.05H10.25C9.42157 16.05 8.75 15.3784 8.75 14.55V10.3ZM10.25 10.3H14.5V14.55H10.25V10.3Z" fill="#364141"/>
</svg>
