<svg width="18" height="18" viewBox="0 0 18 18" fill="none" xmlns="http://www.w3.org/2000/svg">
<path fill-rule="evenodd" clip-rule="evenodd" d="M12.5 9C12.5 10.933 10.933 12.5 9 12.5C7.067 12.5 5.5 10.933 5.5 9C5.5 7.067 7.067 5.5 9 5.5C10.933 5.5 12.5 7.067 12.5 9ZM11 9C11 10.1046 10.1046 11 9 11C7.89543 11 7 10.1046 7 9C7 7.89543 7.89543 7 9 7C10.1046 7 11 7.89543 11 9Z" fill="#364141"/>
<path fill-rule="evenodd" clip-rule="evenodd" d="M7 1.00467C7 0.449806 7.44981 0 8.00467 0H9.99533C10.5502 0 11 0.449806 11 1.00467C11 1.45659 11.3046 1.84634 11.7256 2.01064C11.8229 2.0486 11.9192 2.08852 12.0144 2.13037C12.4283 2.31226 12.9195 2.25213 13.2392 1.93243C13.6316 1.54003 14.2679 1.54003 14.6603 1.93243L16.0676 3.33982C16.4601 3.73224 16.4601 4.36847 16.0676 4.76088C15.7479 5.08058 15.6878 5.57182 15.8697 5.98574C15.9115 6.08093 15.9514 6.17716 15.9894 6.27437C16.1537 6.69537 16.5434 7 16.9953 7C17.5502 7 18 7.44981 18 8.00467V9.99533C18 10.5502 17.5502 11 16.9953 11C16.5434 11 16.1537 11.3046 15.9894 11.7256C15.9514 11.8229 15.9115 11.9191 15.8697 12.0143C15.6878 12.4283 15.7479 12.9195 16.0676 13.2392C16.46 13.6317 16.46 14.2679 16.0676 14.6603L14.6603 16.0676C14.2679 16.4601 13.6316 16.4601 13.2392 16.0676C12.9195 15.7479 12.4282 15.6878 12.0143 15.8697C11.9191 15.9115 11.8228 15.9514 11.7256 15.9894C11.3046 16.1537 11 16.5434 11 16.9953C11 17.5502 10.5502 18 9.99533 18H8.00467C7.44981 18 7 17.5502 7 16.9953C7 16.5434 6.69537 16.1537 6.27437 15.9894C6.17718 15.9514 6.08097 15.9115 5.98579 15.8697C5.57184 15.6878 5.08056 15.748 4.76084 16.0677C4.36839 16.4601 3.73211 16.4601 3.33966 16.0677L1.93239 14.6604C1.53996 14.268 1.53996 13.6317 1.93239 13.2393C2.25211 12.9196 2.31225 12.4283 2.13035 12.0143C2.08851 11.9191 2.04859 11.8229 2.01064 11.7256C1.84634 11.3046 1.45659 11 1.00467 11C0.449807 11 0 10.5502 0 9.99533V8.00467C0 7.44981 0.449807 7 1.00467 7C1.45659 7 1.84634 6.69537 2.01064 6.27437C2.04858 6.17715 2.08849 6.08091 2.13032 5.98572C2.31221 5.57179 2.25207 5.08054 1.93237 4.76084C1.53995 4.36841 1.53995 3.73217 1.93237 3.33975L3.33972 1.9324C3.73214 1.53998 4.36837 1.53998 4.76079 1.9324C5.08049 2.2521 5.57173 2.31224 5.98566 2.13035C6.08088 2.08851 6.17713 2.04859 6.27437 2.01064C6.69537 1.84634 7 1.45659 7 1.00467ZM6.8197 3.408C7.5967 3.10477 8.26929 2.41294 8.45148 1.5H9.54852C9.73071 2.41294 10.4033 3.10477 11.1803 3.408C11.258 3.43831 11.3349 3.4702 11.4109 3.50363C12.1753 3.83951 13.1407 3.82599 13.9155 3.30895L14.6911 4.08464C14.1741 4.85936 14.1606 5.82482 14.4964 6.58916C14.5298 6.66521 14.5617 6.74206 14.592 6.8197C14.8952 7.5967 15.5871 8.26929 16.5 8.45148V9.54852C15.5871 9.73071 14.8952 10.4033 14.592 11.1803C14.5617 11.258 14.5298 11.3348 14.4964 11.4109C14.1605 12.1753 14.174 13.1408 14.6911 13.9155L13.9155 14.6912C13.1407 14.1741 12.1752 14.1605 11.4108 14.4964C11.3348 14.5298 11.2579 14.5617 11.1803 14.592C10.4033 14.8952 9.73071 15.5871 9.54852 16.5H8.45148C8.26929 15.5871 7.5967 14.8952 6.8197 14.592C6.74208 14.5617 6.66524 14.5298 6.58921 14.4964C5.82481 14.1606 4.85928 14.1741 4.08452 14.6912L3.30887 13.9156C3.82597 13.1408 3.8395 12.1753 3.50361 11.4109C3.47019 11.3348 3.43831 11.258 3.408 11.1803C3.10477 10.4033 2.41294 9.73071 1.5 9.54852V8.45147C2.41294 8.26929 3.10477 7.5967 3.408 6.8197C3.4383 6.74206 3.47018 6.6652 3.50359 6.58915C3.83946 5.82479 3.82593 4.85931 3.30886 4.08458L4.08454 3.3089C4.85927 3.82596 5.82475 3.83949 6.5891 3.50361C6.66517 3.47019 6.74204 3.43831 6.8197 3.408Z" fill="#364141"/>
</svg>
