<svg width="18" height="12" viewBox="0 0 18 12" fill="none" xmlns="http://www.w3.org/2000/svg">
<path d="M0.25 0.5V11.5H1.75V6.75H7.25V11.5H8.75V0.5H7.25V5.25H1.75V0.5H0.25Z" fill="#364141"/>
<path d="M11.75 3.25C11.75 2.55964 12.3096 2 13 2H15C15.6904 2 16.25 2.55964 16.25 3.25V3.85126C16.25 4.29584 16.0139 4.70697 15.6298 4.93098L11.6144 7.27335C10.7695 7.76618 10.25 8.67066 10.25 9.64874V11.5H17.75V10H11.75V9.64874C11.75 9.20416 11.9861 8.79303 12.3702 8.56902L16.3856 6.22665C17.2305 5.73382 17.75 4.82934 17.75 3.85126V3.25C17.75 1.73122 16.5188 0.5 15 0.5H13C11.4812 0.5 10.25 1.73122 10.25 3.25H11.75Z" fill="#364141"/>
</svg>
