<svg width="14" height="18" viewBox="0 0 14 18" fill="none" xmlns="http://www.w3.org/2000/svg">
<path d="M7 11.5L6.27906 12.5814C6.0971 12.8544 6 13.175 6 13.5031C6 14.0537 6.44941 14.5 7 14.5C7.55059 14.5 8 14.0537 8 13.5031C8 13.175 7.9029 12.8544 7.72094 12.5814L7 11.5Z" fill="#364141"/>
<path fill-rule="evenodd" clip-rule="evenodd" d="M0 1.5H0.75V5.10955C0.75 5.93293 1.19975 6.69054 1.92258 7.08482L5.43375 9L1.92258 10.9152C1.19975 11.3095 0.75 12.0671 0.75 12.8904V16.5H0V18H14V16.5H13.25V12.8904C13.25 12.0671 12.8003 11.3095 12.0774 10.9152L8.56625 9L12.0774 7.08482C12.8003 6.69054 13.25 5.93292 13.25 5.10955V1.5H14V0H0V1.5ZM11.75 16.5V12.8904C11.75 12.616 11.6001 12.3635 11.3591 12.232L7 9.85432L2.64086 12.232C2.39992 12.3635 2.25 12.616 2.25 12.8904V16.5H11.75ZM7 8.14569L11.3591 5.76797C11.6001 5.63655 11.75 5.38401 11.75 5.10955V4.75H2.25V5.10955C2.25 5.38401 2.39992 5.63655 2.64086 5.76797L7 8.14569ZM2.25 3.25H11.75V1.5H2.25V3.25Z" fill="#364141"/>
</svg>
