<svg width="18" height="14" viewBox="0 0 18 14" fill="none" xmlns="http://www.w3.org/2000/svg">
<path d="M6 5C6.55228 5 7 4.55228 7 4C7 3.44772 6.55228 3 6 3C5.44772 3 5 3.44772 5 4C5 4.55228 5.44772 5 6 5Z" fill="#364141"/>
<path fill-rule="evenodd" clip-rule="evenodd" d="M0 1.5C0 0.671573 0.671573 0 1.5 0H16.5C17.3284 0 18 0.671573 18 1.5V12.5C18 13.3284 17.3284 14 16.5 14H1.5C0.671573 14 0 13.3284 0 12.5V1.5ZM1.5 1.5H16.5V8.23451L11.9848 5.07388L8.33333 7.8125L6.01518 6.07388L1.5 9.23451L1.5 1.5ZM5.98482 7.92612L7.08333 8.75L5.55 9.9L6.45 11.1L12.0152 6.92612L16.5 10.0655V12.5H1.5V11.0655L5.98482 7.92612Z" fill="#364141"/>
</svg>
