<svg width="18" height="14" viewBox="0 0 18 14" fill="none" xmlns="http://www.w3.org/2000/svg">
<path fill-rule="evenodd" clip-rule="evenodd" d="M0 7.2111C0 6.4214 0.233752 5.64937 0.671798 4.9923L3.40627 0.8906C3.7772 0.334202 4.40166 0 5.07037 0H12.9296C13.5983 0 14.2228 0.334202 14.5937 0.8906L17.3282 4.9923C17.7662 5.64937 18 6.4214 18 7.2111V12.5C18 13.3284 17.3284 14 16.5 14H1.5C1.39645 14 1.29534 13.9895 1.1977 13.9695C0.514173 13.8297 0 13.2249 0 12.5V7.2111ZM1.91987 5.82435L4.65434 1.72265C4.74708 1.58355 4.90319 1.5 5.07037 1.5H12.9296C13.0968 1.5 13.2529 1.58355 13.3457 1.72265L16.0801 5.82435C16.1183 5.88156 16.1539 5.94017 16.1871 6H13.4142C13.149 6 12.8946 6.10536 12.7071 6.29289L11.0732 7.92678C11.0263 7.97366 10.9628 8 10.8964 8H7.10355C7.03725 8 6.97366 7.97366 6.92678 7.92678L5.29289 6.29289C5.10536 6.10536 4.851 6 4.58579 6H1.81294C1.84607 5.94017 1.88173 5.88156 1.91987 5.82435ZM1.5 7.5V12.5H16.5V7.5H13.6213L12.1339 8.98744C11.8057 9.31563 11.3606 9.5 10.8964 9.5H7.10355C6.63943 9.5 6.19431 9.31563 5.86612 8.98744L4.37868 7.5H1.5Z" fill="#364141"/>
</svg>
