<svg width="18" height="14" viewBox="0 0 18 14" fill="none" xmlns="http://www.w3.org/2000/svg">
<path d="M8 4.75H10V3.25H8V4.75Z" fill="#364141"/>
<path d="M14.5 4.75H12.5V3.25H14.5V4.75Z" fill="#364141"/>
<path d="M3.5 4.75H5.5V3.25H3.5V4.75Z" fill="#364141"/>
<path d="M10 7.75H8V6.25H10V7.75Z" fill="#364141"/>
<path d="M12.5 7.75H14.5V6.25H12.5V7.75Z" fill="#364141"/>
<path d="M5.5 7.75H3.5V6.25H5.5V7.75Z" fill="#364141"/>
<path d="M3.5 10.75H14.5V9.25H3.5V10.75Z" fill="#364141"/>
<path fill-rule="evenodd" clip-rule="evenodd" d="M0 1.5C0 0.671573 0.671573 0 1.5 0H16.5C17.3284 0 18 0.671573 18 1.5V12.5C18 13.3284 17.3284 14 16.5 14H1.5C0.671573 14 0 13.3284 0 12.5V1.5ZM1.5 1.5H16.5V12.5H1.5L1.5 1.5Z" fill="#364141"/>
</svg>
