<svg width="18" height="14" viewBox="0 0 18 14" fill="none" xmlns="http://www.w3.org/2000/svg">
<path d="M3.5 1.5H16C16 0.671573 15.3284 0 14.5 0H3.5C2.67157 0 2 0.671573 2 1.5V10.5H0C0 11.3284 0.671573 12 1.5 12H9.5V10.5H3.5V1.5Z" fill="#364141"/>
<path d="M15 11C15 11.2761 14.7761 11.5 14.5 11.5C14.2239 11.5 14 11.2761 14 11C14 10.7239 14.2239 10.5 14.5 10.5C14.7761 10.5 15 10.7239 15 11Z" fill="#364141"/>
<path fill-rule="evenodd" clip-rule="evenodd" d="M12.5 3C11.6716 3 11 3.67157 11 4.5V12.5C11 13.3284 11.6716 14 12.5 14H16.5C17.3284 14 18 13.3284 18 12.5V4.5C18 3.67157 17.3284 3 16.5 3H12.5ZM16.5 12.5V4.5H12.5V12.5H16.5Z" fill="#364141"/>
</svg>
