<svg width="17" height="17" viewBox="0 0 17 17" fill="none" xmlns="http://www.w3.org/2000/svg">
<path d="M15 4C16.1046 4 17 3.10457 17 2C17 0.895431 16.1046 0 15 0C13.8954 0 13 0.895431 13 2C13 3.10457 13.8954 4 15 4Z" fill="#364141"/>
<path fill-rule="evenodd" clip-rule="evenodd" d="M14 10C14 13.866 10.866 17 7 17C3.13401 17 0 13.866 0 10C0 6.13401 3.13401 3 7 3C10.866 3 14 6.13401 14 10ZM12.5 10C12.5 13.0376 10.0376 15.5 7 15.5C3.96243 15.5 1.5 13.0376 1.5 10C1.5 6.96243 3.96243 4.5 7 4.5C10.0376 4.5 12.5 6.96243 12.5 10Z" fill="#364141"/>
</svg>
