<svg width="14" height="18" viewBox="0 0 14 18" fill="none" xmlns="http://www.w3.org/2000/svg">
<path d="M7 7C7.55228 7 8 6.55228 8 6C8 5.44772 7.55228 5 7 5C6.44772 5 6 5.44772 6 6C6 6.55228 6.44772 7 7 7Z" fill="#364141"/>
<path fill-rule="evenodd" clip-rule="evenodd" d="M14 7C14 10.866 9 18 7 18C5 18 0 10.866 0 7C0 3.13401 3.13401 0 7 0C10.866 0 14 3.13401 14 7ZM12.5 7C12.5 7.6838 12.2681 8.64456 11.8008 9.77786C11.3435 10.8868 10.7047 12.0556 9.99909 13.122C9.29068 14.1925 8.54467 15.1147 7.89184 15.7495C7.56393 16.0683 7.29123 16.2834 7.08688 16.4096C7.05342 16.4303 7.02452 16.4469 7 16.4602C6.97549 16.4469 6.94658 16.4303 6.91312 16.4096C6.70877 16.2834 6.43607 16.0683 6.10816 15.7495C5.45533 15.1147 4.70932 14.1925 4.00091 13.122C3.29525 12.0556 2.65653 10.8868 2.19922 9.77786C1.73186 8.64456 1.5 7.6838 1.5 7C1.5 3.96243 3.96243 1.5 7 1.5C10.0376 1.5 12.5 3.96243 12.5 7Z" fill="#364141"/>
</svg>
