<svg width="14" height="18" viewBox="0 0 14 18" fill="none" xmlns="http://www.w3.org/2000/svg">
<path d="M7 13C7.55228 13 8 12.5523 8 12C8 11.4477 7.55228 11 7 11C6.44772 11 6 11.4477 6 12C6 12.5523 6.44772 13 7 13Z" fill="#364141"/>
<path fill-rule="evenodd" clip-rule="evenodd" d="M2.75 4.25V8H1.5C0.671573 8 0 8.67157 0 9.5V16.5C0 17.3284 0.671573 18 1.5 18H12.5C13.3284 18 14 17.3284 14 16.5V9.5C14 8.67157 13.3284 8 12.5 8H11.25V4.25C11.25 1.90279 9.34721 0 7 0C4.65279 0 2.75 1.90279 2.75 4.25ZM7 1.5C5.48122 1.5 4.25 2.73122 4.25 4.25V8H9.75V4.25C9.75 2.73122 8.51878 1.5 7 1.5ZM1.5 9.5L1.5 16.5H12.5V9.5H1.5Z" fill="#364141"/>
</svg>
