<svg width="18" height="18" viewBox="0 0 18 18" fill="none" xmlns="http://www.w3.org/2000/svg">
<path d="M9.22657 0.235581C9.1368 0.0432181 8.86327 0.0432177 8.77349 0.235581L8.40208 1.0314C8.37725 1.08461 8.33448 1.12738 8.28126 1.15222L7.48544 1.52363C7.29308 1.6134 7.29308 1.88694 7.48544 1.97671L8.28126 2.34812C8.33448 2.37296 8.37725 2.41573 8.40208 2.46894L8.77349 3.26476C8.86327 3.45712 9.1368 3.45712 9.22657 3.26476L9.59799 2.46894C9.62282 2.41573 9.66559 2.37296 9.7188 2.34812L10.5146 1.97671C10.707 1.88694 10.707 1.6134 10.5146 1.52363L9.7188 1.15222C9.66559 1.12738 9.62282 1.08461 9.59799 1.0314L9.22657 0.235581Z" fill="#364141"/>
<path d="M3.97658 1.23558C3.8868 1.04322 3.61327 1.04322 3.52349 1.23558L2.83388 2.7132C2.80905 2.76641 2.76628 2.80918 2.71307 2.83402L1.23545 3.52363C1.04308 3.6134 1.04308 3.88694 1.23545 3.97671L2.71307 4.66632C2.76628 4.69115 2.80905 4.73392 2.83388 4.78713L3.52349 6.26476C3.61327 6.45712 3.8868 6.45712 3.97658 6.26476L4.66618 4.78713C4.69102 4.73392 4.73379 4.69115 4.787 4.66632L6.26462 3.97671C6.45698 3.88694 6.45698 3.6134 6.26462 3.52363L4.787 2.83402C4.73379 2.80918 4.69102 2.76641 4.66618 2.7132L3.97658 1.23558Z" fill="#364141"/>
<path d="M13.5235 11.2356C13.6133 11.0432 13.8868 11.0432 13.9766 11.2356L14.6662 12.7132C14.691 12.7664 14.7338 12.8092 14.787 12.834L16.2646 13.5236C16.457 13.6134 16.457 13.8869 16.2646 13.9767L14.787 14.6663C14.7338 14.6912 14.691 14.7339 14.6662 14.7871L13.9766 16.2648C13.8868 16.4571 13.6133 16.4571 13.5235 16.2648L12.8339 14.7871C12.809 14.7339 12.7663 14.6912 12.7131 14.6663L11.2354 13.9767C11.0431 13.8869 11.0431 13.6134 11.2354 13.5236L12.7131 12.834C12.7663 12.8092 12.809 12.7664 12.8339 12.7132L13.5235 11.2356Z" fill="#364141"/>
<path fill-rule="evenodd" clip-rule="evenodd" d="M16.9394 2.43957L15.5607 1.06089C14.9749 0.4751 14.0251 0.4751 13.4394 1.06089L1.06068 13.4396C0.474891 14.0254 0.474891 14.9751 1.06068 15.5609L2.43936 16.9396C3.02514 17.5254 3.97489 17.5254 4.56068 16.9396L16.9394 4.56089C17.5251 3.9751 17.5251 3.02535 16.9394 2.43957ZM2.12134 14.5002L10.5303 6.09122L11.909 7.4699L3.50002 15.8789L2.12134 14.5002ZM11.591 5.03056L12.9697 6.40924L15.8787 3.50023L14.5 2.12155L11.591 5.03056Z" fill="#364141"/>
</svg>
