<svg width="18" height="18" viewBox="0 0 18 18" fill="none" xmlns="http://www.w3.org/2000/svg">
<path d="M12.3206 7.54167C12.3206 7.46772 12.3206 7.39375 12.3149 7.31979C12.6753 7.07678 12.9899 6.77569 13.2416 6.43761C12.9098 6.56967 12.5494 6.66477 12.1776 6.70173C12.5608 6.49044 12.8526 6.15764 12.9899 5.76144C12.6352 5.95689 12.2348 6.09953 11.8172 6.17348C11.4797 5.84068 10.9991 5.63466 10.4671 5.63466C9.44314 5.63466 8.61938 6.40062 8.61938 7.34093C8.61938 7.473 8.63654 7.60505 8.66514 7.73183C7.13204 7.65787 5.76481 6.98171 4.85524 5.94632C4.69505 6.19989 4.60354 6.49043 4.60354 6.80738C4.60354 7.39903 4.9296 7.922 5.42729 8.2284C5.12412 8.21784 4.83807 8.13861 4.59209 8.01182V8.03295C4.59209 8.86231 5.2271 9.54904 6.07374 9.70753C5.9193 9.74449 5.75339 9.76563 5.5875 9.76563C5.46735 9.76563 5.35295 9.75506 5.23853 9.73922C5.47307 10.4154 6.15383 10.9067 6.96615 10.9225C6.33116 11.3821 5.53599 11.6515 4.6722 11.6515C4.51773 11.6515 4.37473 11.6462 4.22599 11.6304C5.04404 12.1164 6.01653 12.3964 7.0634 12.3964C10.4614 12.3964 12.3206 9.79732 12.3206 7.54167Z" fill="#364141"/>
<path fill-rule="evenodd" clip-rule="evenodd" d="M8.73387 17.4677C10.8756 17.4677 12.8374 16.6968 14.3566 15.4173L16.9375 17.9982L17.9982 16.9375L15.4173 14.3566C16.6968 12.8374 17.4677 10.8756 17.4677 8.73387C17.4677 3.91029 13.5575 0 8.73387 0C3.91029 0 0 3.91029 0 8.73387C0 13.5575 3.91029 17.4677 8.73387 17.4677ZM8.73387 15.9677C12.729 15.9677 15.9677 12.729 15.9677 8.73387C15.9677 4.73871 12.729 1.5 8.73387 1.5C4.73871 1.5 1.5 4.73871 1.5 8.73387C1.5 12.729 4.73871 15.9677 8.73387 15.9677Z" fill="#364141"/>
</svg>
