<svg width="14" height="18" viewBox="0 0 14 18" fill="none" xmlns="http://www.w3.org/2000/svg">
<path fill-rule="evenodd" clip-rule="evenodd" d="M3 4C3 1.79086 4.79086 0 7 0C9.20914 0 11 1.79086 11 4V7C11 9.20914 9.20914 11 7 11C4.79086 11 3 9.20914 3 7V4ZM9.5 4V7C9.5 8.38071 8.38071 9.5 7 9.5C5.61929 9.5 4.5 8.38071 4.5 7V4C4.5 2.61929 5.61929 1.5 7 1.5C8.38071 1.5 9.5 2.61929 9.5 4Z" fill="#364141"/>
<path d="M0.25 7C0.25 10.4744 2.87504 13.3357 6.25 13.7088V16.5H4.5C3.67157 16.5 3 17.1716 3 18H11C11 17.1716 10.3284 16.5 9.5 16.5H7.75V13.7088C11.125 13.3357 13.75 10.4744 13.75 7H12.25C12.25 9.8995 9.8995 12.25 7 12.25C4.10051 12.25 1.75 9.8995 1.75 7H0.25Z" fill="#364141"/>
</svg>
