<svg width="16" height="16" viewBox="0 0 16 16" fill="none" xmlns="http://www.w3.org/2000/svg">
<path fill-rule="evenodd" clip-rule="evenodd" d="M1.5 0C0.671573 0 0 0.671573 0 1.5V14.5C0 15.3284 0.671573 16 1.5 16H5.75C6.57843 16 7.25 15.3284 7.25 14.5V1.5C7.25 0.671573 6.57843 0 5.75 0H1.5ZM5.75 1.5H1.5L1.5 14.5H5.75V1.5Z" fill="#364141"/>
<path fill-rule="evenodd" clip-rule="evenodd" d="M10.25 0C9.42157 0 8.75 0.671573 8.75 1.5V4.5C8.75 5.32843 9.42157 6 10.25 6H14.5C15.3284 6 16 5.32843 16 4.5V1.5C16 0.671573 15.3284 0 14.5 0H10.25ZM14.5 1.5H10.25V4.5H14.5V1.5Z" fill="#364141"/>
<path fill-rule="evenodd" clip-rule="evenodd" d="M8.75 9C8.75 8.17157 9.42157 7.5 10.25 7.5H14.5C15.3284 7.5 16 8.17157 16 9V14.5C16 15.3284 15.3284 16 14.5 16H10.25C9.42157 16 8.75 15.3284 8.75 14.5V9ZM10.25 9H14.5V14.5H10.25V9Z" fill="#364141"/>
</svg>
