<svg width="18" height="18" viewBox="0 0 18 18" fill="none" xmlns="http://www.w3.org/2000/svg">
<path fill-rule="evenodd" clip-rule="evenodd" d="M15.639 12.4933C14.3825 14.8759 11.8799 16.5 9 16.5C4.85786 16.5 1.5 13.1422 1.5 9.00003C1.5 5.71124 3.61727 2.91639 6.56259 1.9048C6.52123 2.26442 6.5 2.62991 6.5 3.00003C6.5 8.12585 10.5596 12.3035 15.639 12.4933ZM16.2317 10.9967C16.1547 10.9989 16.0775 11 16 11C11.5817 11 8 7.4183 8 3.00003C8 2.50479 8.045 2.02007 8.13113 1.54972C8.22887 1.01601 8.37957 0.500808 8.57758 0.00976562C8.00481 0.0362296 7.44601 0.116234 6.90608 0.244888C2.94537 1.18865 0 4.75037 0 9.00003C0 13.9706 4.02944 18 9 18C12.7648 18 15.9897 15.6884 17.3327 12.4071C17.544 11.8909 17.7087 11.3507 17.8216 10.7917C17.3088 10.9111 16.7771 10.9812 16.2317 10.9967Z" fill="#364141"/>
</svg>
