<svg width="17" height="16" viewBox="0 0 17 16" fill="none" xmlns="http://www.w3.org/2000/svg">
<path d="M2.56152 0.477051V3.3042H3.39648V4H0.811035V3.3042H1.68994V1.28516H1.64355L0.811035 1.85889V1.0874L1.68994 0.477051H2.56152Z" fill="#364141"/>
<path d="M17 2.75H5V1.25H17V2.75Z" fill="#364141"/>
<path d="M5 8.75H17V7.25H5V8.75Z" fill="#364141"/>
<path d="M5 14.75H17V13.25H5V14.75Z" fill="#364141"/>
<path d="M0.62793 7.33057V7.34521H1.44824V7.32812C1.44824 7.0376 1.6582 6.83252 1.96094 6.83252C2.24902 6.83252 2.44189 7.00586 2.44189 7.26465C2.44189 7.47705 2.30273 7.66016 1.79248 8.12891L0.679199 9.15186V9.75H3.35742V9.05176H1.87305V9.00537L2.4541 8.49512C3.07422 7.95068 3.30859 7.59668 3.30859 7.20117C3.30859 6.57617 2.77881 6.15625 1.99268 6.15625C1.17725 6.15625 0.62793 6.62744 0.62793 7.33057Z" fill="#364141"/>
<path d="M2.00488 14.2583H1.57031V13.6406H2.00488C2.32227 13.6406 2.51514 13.4868 2.51514 13.2329C2.51514 12.979 2.32227 12.8252 2.00488 12.8252C1.69238 12.8252 1.48486 13.001 1.4751 13.272H0.696289C0.708496 12.5786 1.21387 12.1562 2.0293 12.1562C2.80811 12.1562 3.32324 12.5347 3.32324 13.106C3.32324 13.5137 3.07422 13.8213 2.68115 13.8921V13.9385C3.16455 13.9897 3.45264 14.2949 3.45264 14.7515C3.45264 15.3936 2.88379 15.8208 2.0293 15.8208C1.2041 15.8208 0.662109 15.3838 0.630371 14.6929H1.45068C1.46289 14.9492 1.67285 15.1079 2.00488 15.1079C2.34424 15.1079 2.56641 14.9395 2.56641 14.6831C2.56641 14.4268 2.34424 14.2583 2.00488 14.2583Z" fill="#364141"/>
</svg>
