<svg width="14" height="18" viewBox="0 0 14 18" fill="none" xmlns="http://www.w3.org/2000/svg">
<path fill-rule="evenodd" clip-rule="evenodd" d="M14 16.5C14 17.3284 13.3284 18 12.5 18H1.5C0.671573 18 0 17.3284 0 16.5V1.5C0 0.72335 0.59025 0.0845594 1.34663 0.00774434C1.39706 0.00262333 1.44822 0 1.5 0H6.75C10.7541 0 14 3.24594 14 7.25V16.5ZM1.5 1.5L1.5 16.5H12.5V8C12.5 7.72386 12.2761 7.5 12 7.5H9.5C7.84315 7.5 6.5 6.15685 6.5 4.5V2C6.5 1.72386 6.27614 1.5 6 1.5H1.5ZM7.96561 1.62874C7.98819 1.74904 8 1.87314 8 2V4.5C8 5.32843 8.67157 6 9.5 6H12C12.1269 6 12.251 6.01181 12.3713 6.0344C11.8978 3.83443 10.1656 2.10223 7.96561 1.62874Z" fill="#364141"/>
</svg>
