<svg width="17" height="18" viewBox="0 0 17 18" fill="none" xmlns="http://www.w3.org/2000/svg">
<path fill-rule="evenodd" clip-rule="evenodd" d="M7.62022 1.55715C9.41985 -0.295417 12.3942 -0.295417 14.1938 1.55715C15.9212 3.33531 15.9212 6.16478 14.1938 7.94294L9.54435 12.7292C8.42884 13.8775 6.5852 13.8775 5.46969 12.7292C4.39899 11.627 4.39899 9.87312 5.46969 8.77093L9.88335 4.22746L10.9593 5.27263L6.54561 9.8161C6.04035 10.3362 6.04035 11.1639 6.54561 11.684C7.07202 12.2259 7.94203 12.2259 8.46843 11.684L13.1179 6.89776C14.2798 5.70167 14.2798 3.79842 13.1179 2.60233L13.6559 2.07974L13.1179 2.60233C11.9074 1.35619 9.90667 1.35619 8.69614 2.60233L3.56095 7.88855C1.74238 9.76061 1.74238 12.7395 3.56095 14.6115C5.45561 16.5619 8.58701 16.5619 10.4817 14.6115L15.2262 9.72746L16.3021 10.7726L11.5576 15.6567C9.07382 18.2135 4.96879 18.2135 2.48503 15.6567C0.101019 13.2026 0.10102 9.2975 2.48503 6.84337L7.62022 1.55715Z" fill="#364141"/>
</svg>
