<svg width="14" height="18" viewBox="0 0 14 18" fill="none" xmlns="http://www.w3.org/2000/svg">
<path d="M7.75 14.5V9H6.25V14.5H7.75Z" fill="#364141"/>
<path d="M10.75 14.5V10.5H9.25V14.5H10.75Z" fill="#364141"/>
<path d="M3.25 12V14.5H4.75V12H3.25Z" fill="#364141"/>
<path fill-rule="evenodd" clip-rule="evenodd" d="M14 16.5V7.25C14 3.24594 10.7541 0 6.75 0H1.5C1.44822 0 1.39706 0.00262333 1.34663 0.00774434C0.59025 0.0845594 0 0.72335 0 1.5V16.5C0 17.3284 0.671573 18 1.5 18H12.5C13.3284 18 14 17.3284 14 16.5ZM1.5 16.5L1.5 1.5H6C6.27614 1.5 6.5 1.72386 6.5 2V4.5C6.5 6.15685 7.84315 7.5 9.5 7.5H12C12.2761 7.5 12.5 7.72386 12.5 8V16.5H1.5ZM8 2C8 1.87314 7.98819 1.74904 7.96561 1.62874C10.1656 2.10223 11.8978 3.83443 12.3713 6.0344C12.251 6.01181 12.1269 6 12 6H9.5C8.67157 6 8 5.32843 8 4.5V2Z" fill="#364141"/>
</svg>
