<svg width="16" height="16" viewBox="0 0 16 16" fill="none" xmlns="http://www.w3.org/2000/svg">
<path fill-rule="evenodd" clip-rule="evenodd" d="M0 1.5C0 0.671573 0.671573 0 1.5 0H5.5C6.32843 0 7 0.671573 7 1.5V14.5C7 15.3284 6.32843 16 5.5 16H1.5C0.671573 16 0 15.3284 0 14.5V1.5ZM1.5 1.5H5.5V14.5H1.5L1.5 1.5Z" fill="#364141"/>
<path fill-rule="evenodd" clip-rule="evenodd" d="M9 1.5C9 0.671573 9.67157 0 10.5 0H14.5C15.3284 0 16 0.671573 16 1.5V14.5C16 15.3284 15.3284 16 14.5 16H10.5C9.67157 16 9 15.3284 9 14.5V1.5ZM10.5 1.5H14.5V14.5H10.5V1.5Z" fill="#364141"/>
</svg>
