<svg width="16" height="18" viewBox="0 0 16 18" fill="none" xmlns="http://www.w3.org/2000/svg">
<path fill-rule="evenodd" clip-rule="evenodd" d="M10.8746 4.54945C11.2923 4.06716 11.545 3.43809 11.545 2.75C11.545 1.23122 10.3138 0 8.79498 0C7.2762 0 6.04498 1.23122 6.04498 2.75C6.04498 3.30365 6.20859 3.81908 6.4901 4.25059C6.30827 4.34588 6.13726 4.46138 5.98057 4.59506L4.46353 4.21148C3.10548 3.86811 1.70636 4.6004 1.21452 5.91199L0.611563 7.51986C0.333967 8.26012 0.587162 9.09456 1.22931 9.55574L6.10751 13.0592L6.11076 13.0547L7.80003 14.3671V15.8775C7.80003 17.0497 8.7503 18 9.92252 18C11.0947 18 12.045 17.0497 12.045 15.8775V13.2638C12.045 12.544 11.7006 11.8676 11.1184 11.4442L9.45811 10.2367L9.84808 9.26176L10.6941 10.002C11.061 10.323 11.5319 10.5 12.0195 10.5H13.17C13.3875 10.5 13.5974 10.4673 13.795 10.4066V18H15.295V5H13.795V6.3434C13.5974 6.28268 13.3875 6.25 13.17 6.25H12.826L10.8746 4.54945ZM8.79498 4C9.48534 4 10.045 3.44036 10.045 2.75C10.045 2.05964 9.48534 1.5 8.79498 1.5C8.10463 1.5 7.54498 2.05964 7.54498 2.75C7.54498 3.44036 8.10463 4 8.79498 4ZM3.68121 9.46989C3.70713 9.36614 3.74069 9.26327 3.78211 9.16205L5.10799 5.92163L4.09583 5.66572C3.47854 5.50964 2.84258 5.8425 2.61901 6.43868L2.01606 8.04655C1.9764 8.1523 2.01257 8.2715 2.10431 8.33739L3.68121 9.46989ZM13.795 8.375C13.795 8.02982 13.5152 7.75 13.17 7.75H12.2641L9.92733 5.71361L7.93151 5.4475C7.36797 5.37236 6.82471 5.68698 6.60941 6.21317L5.17039 9.73009C5.04293 10.0416 5.1386 10.3999 5.4044 10.6064L9.30003 13.6329V15.8775C9.30003 16.2213 9.57873 16.5 9.92252 16.5C10.2663 16.5 10.545 16.2213 10.545 15.8775V13.2638C10.545 13.0239 10.4302 12.7984 10.2361 12.6573L7.63192 10.7633L9.24194 6.73824L11.6818 8.87313C11.7753 8.95492 11.8953 9 12.0195 9H13.17C13.5152 9 13.795 8.72018 13.795 8.375Z" fill="#364141"/>
<path d="M3.11436 12.3214C3.48915 12.4978 3.65 12.9446 3.47363 13.3193L2.39116 15.6196C2.19843 16.0291 2.49724 16.5 2.94986 16.5C3.18375 16.5 3.39756 16.3679 3.50215 16.1587L4.37419 14.4146C4.55943 14.0441 5.00994 13.8939 5.38042 14.0792C5.75091 14.2644 5.90107 14.7149 5.71583 15.0854L4.84379 16.8295C4.48511 17.5469 3.7519 18 2.94986 18C1.39772 18 0.373029 16.3853 1.03393 14.9809L2.1164 12.6807C2.29277 12.3059 2.73957 12.145 3.11436 12.3214Z" fill="#364141"/>
</svg>
