<svg width="18" height="17" viewBox="0 0 18 17" fill="none" xmlns="http://www.w3.org/2000/svg">
<path fill-rule="evenodd" clip-rule="evenodd" d="M5.60998 0.549336C5.02012 -0.0405268 4.09591 -0.132042 3.40182 0.330684L1.44287 1.63665C1.02303 1.91654 0.756775 2.37535 0.722059 2.87874C0.177871 10.7695 6.73048 17.3221 14.6212 16.7779C15.1246 16.7432 15.5834 16.4769 15.8633 16.0571L17.1693 14.0981C17.632 13.404 17.5405 12.4798 16.9506 11.89L15.11 10.0493C14.5201 9.45947 13.5959 9.36796 12.9018 9.83068L10.9036 11.1628L9.81693 10.7553C8.39721 10.2229 7.277 9.10273 6.7446 7.68301L6.3371 6.59635L7.66925 4.59812C8.13198 3.90403 8.04047 2.97982 7.4506 2.38996L5.60998 0.549336ZM4.54932 1.61C4.46505 1.52573 4.33302 1.51266 4.23387 1.57876L3.71894 1.92204L2.27492 2.88472C2.24206 2.90663 2.22122 2.94254 2.2185 2.98194C1.73695 9.96452 7.53542 15.763 14.518 15.2814C14.5574 15.2787 14.5933 15.2579 14.6152 15.225L15.9212 13.2661C15.9873 13.1669 15.9742 13.0349 15.8899 12.9506L14.0493 11.11C13.9651 11.0257 13.833 11.0127 13.7339 11.0788L11.0963 12.8371L9.29024 12.1598C7.46489 11.4753 6.02462 10.0351 5.34011 8.20969L4.66282 6.4036L6.42118 3.76607C6.48728 3.66691 6.47421 3.53488 6.38994 3.45062L5.02515 2.08583L4.54932 1.61Z" fill="#364141"/>
</svg>
