<svg width="17" height="17" viewBox="0 0 17 17" fill="none" xmlns="http://www.w3.org/2000/svg">
<path fill-rule="evenodd" clip-rule="evenodd" d="M7 1.5C6.30964 1.5 5.75 2.05964 5.75 2.75V4.75H1.5V7.25H2C3.51878 7.25 4.75 8.48122 4.75 10C4.75 11.5188 3.51878 12.75 2 12.75H1.5V15.5H4.25V15C4.25 13.4812 5.48122 12.25 7 12.25C8.51878 12.25 9.75 13.4812 9.75 15V15.5H12.25V11.25H14.25C14.9404 11.25 15.5 10.6904 15.5 10C15.5 9.30964 14.9404 8.75 14.25 8.75H12.25V4.75H8.25V2.75C8.25 2.05964 7.69036 1.5 7 1.5ZM4.25 2.75C4.25 1.23122 5.48122 0 7 0C8.51878 0 9.75 1.23122 9.75 2.75V3.25H12.5C13.1904 3.25 13.75 3.80964 13.75 4.5V7.25H14.25C15.7688 7.25 17 8.48122 17 10C17 11.5188 15.7688 12.75 14.25 12.75H13.75V15.75C13.75 16.4404 13.1904 17 12.5 17H8.25V15C8.25 14.3096 7.69036 13.75 7 13.75C6.30964 13.75 5.75 14.3096 5.75 15V17H1.25C0.559643 17 0 16.4404 0 15.75V11.25H2C2.69036 11.25 3.25 10.6904 3.25 10C3.25 9.30964 2.69036 8.75 2 8.75H0V4.5C0 3.80964 0.559645 3.25 1.25 3.25H4.25V2.75Z" fill="#364141"/>
</svg>
