<svg width="16" height="16" viewBox="0 0 16 16" fill="none" xmlns="http://www.w3.org/2000/svg">
<path d="M4.2 4.25H3V2.75H4.2V4.25Z" fill="#364141"/>
<path fill-rule="evenodd" clip-rule="evenodd" d="M0 1.5C0 0.671573 0.671573 0 1.5 0H5.75C6.57843 0 7.25 0.671573 7.25 1.5V5.75C7.25 6.57843 6.57843 7.25 5.75 7.25H1.5C0.671573 7.25 0 6.57843 0 5.75V1.5ZM1.5 1.5H5.75V5.75H1.5L1.5 1.5Z" fill="#364141"/>
<path d="M13 4.25H11.8V2.75H13V4.25Z" fill="#364141"/>
<path fill-rule="evenodd" clip-rule="evenodd" d="M8.75 1.5C8.75 0.671573 9.42157 0 10.25 0H14.5C15.3284 0 16 0.671573 16 1.5V5.75C16 6.57843 15.3284 7.25 14.5 7.25H10.25C9.42157 7.25 8.75 6.57843 8.75 5.75V1.5ZM10.25 1.5H14.5V5.75H10.25V1.5Z" fill="#364141"/>
<path d="M16 10.25H14.5V8.75H16V10.25Z" fill="#364141"/>
<path d="M3 13.25H4.2V11.75H3V13.25Z" fill="#364141"/>
<path fill-rule="evenodd" clip-rule="evenodd" d="M0 10.25C0 9.42157 0.671573 8.75 1.5 8.75H5.75C6.57843 8.75 7.25 9.42157 7.25 10.25V14.5C7.25 15.3284 6.57843 16 5.75 16H1.5C0.671573 16 0 15.3284 0 14.5V10.25ZM1.5 10.25H5.75V14.5H1.5L1.5 10.25Z" fill="#364141"/>
<path d="M10.5 8.75C9.67157 8.75 9 9.42157 9 10.25V13.1406H10.5V10.25H13.25V8.75H10.5Z" fill="#364141"/>
<path d="M13.25 16H9V14.5H13.25V16Z" fill="#364141"/>
<path d="M14.5 11.63H11.75V13.13H14.5V16H16V13.13C16 12.3016 15.3284 11.63 14.5 11.63Z" fill="#364141"/>
</svg>
