<svg width="14" height="18" viewBox="0 0 14 18" fill="none" xmlns="http://www.w3.org/2000/svg">
<path d="M5.33333 0.25C2.52589 0.25 0.25 2.52589 0.25 5.33333H1.75C1.75 3.35431 3.35431 1.75 5.33333 1.75H8.66667C10.6457 1.75 12.25 3.35431 12.25 5.33333C12.25 7.31235 10.6457 8.91667 8.66667 8.91667H7.85714C6.96954 8.91667 6.25 9.63621 6.25 10.5238V13.5H7.75V10.5238C7.75 10.4646 7.79797 10.4167 7.85714 10.4167H8.66667C11.4741 10.4167 13.75 8.14078 13.75 5.33333C13.75 2.52589 11.4741 0.25 8.66667 0.25H5.33333Z" fill="#364141"/>
<path d="M7 18C7.55228 18 8 17.5523 8 17C8 16.4477 7.55228 16 7 16C6.44772 16 6 16.4477 6 17C6 17.5523 6.44772 18 7 18Z" fill="#364141"/>
</svg>
