<svg width="19" height="18" viewBox="0 0 19 18" fill="none" xmlns="http://www.w3.org/2000/svg">
<path fill-rule="evenodd" clip-rule="evenodd" d="M9.24999 2.81067L3.06065 9.00001L9.24999 15.1894V11.25H14.5C15.5487 11.25 16.5088 11.6299 17.25 12.2595V10C17.25 8.20509 15.7949 6.75001 14 6.75001H9.24999V2.81067ZM18.75 15.5H17.25C17.25 13.9812 16.0188 12.75 14.5 12.75H10.75V16.3965C10.75 17.2874 9.67285 17.7335 9.04288 17.1036L0.939331 9.00001L9.04288 0.896461C9.67285 0.266494 10.75 0.712666 10.75 1.60357V5.25001H14C16.6233 5.25001 18.75 7.37666 18.75 10V15.5ZM10.1035 16.0429C10.1033 16.0427 10.1037 16.0431 10.1035 16.0429Z" fill="#364141"/>
</svg>
