<svg width="15" height="18" viewBox="0 0 15 18" fill="none" xmlns="http://www.w3.org/2000/svg">
<path fill-rule="evenodd" clip-rule="evenodd" d="M5.5 6H3.75V10C4.57843 10 5.25 10.6716 5.25 11.5V16.5C5.25 17.3284 4.57843 18 3.75 18H2.25C1.42157 18 0.75 17.3284 0.75 16.5V11.5C0.75 10.6716 1.42157 10 2.25 10V6H0.5L2 0H4L5.5 6ZM3 2.18466L2.42116 4.5H3.57884L3 2.18466ZM2.25 16.5V11.5H3.75V16.5H2.25Z" fill="#364141"/>
<path fill-rule="evenodd" clip-rule="evenodd" d="M14.7494 6.5H13.2494L13.25 5.54057L12.8953 5.42233C12.6387 5.3368 12.3613 5.3368 12.1047 5.42233L11.75 5.54057V10C12.5784 10 13.25 10.6716 13.25 11.5V16.5C13.25 17.3284 12.5784 18 11.75 18H10.25C9.42157 18 8.75 17.3284 8.75 16.5V11.5C8.75 10.6716 9.42157 10 10.25 10V5.75H8.5C7.80964 5.75 7.25 5.19036 7.25 4.5V1.5C7.25 0.809644 7.80964 0.25 8.5 0.25H10.5C11.1047 0.25 11.6092 0.67944 11.725 1.25H12C13.5188 1.25 14.75 2.48122 14.75 4L14.7494 6.5ZM8.75 1.75V4.25H10.8783L11.6304 3.99931C12.155 3.82443 12.7192 3.81208 13.2494 3.96227C13.2295 3.28937 12.6777 2.75 12 2.75H11.5C10.8953 2.75 10.3908 2.32056 10.275 1.75H8.75ZM10.25 16.5V11.5H11.75V16.5H10.25Z" fill="#364141"/>
</svg>
