<svg width="16" height="16" viewBox="0 0 16 16" fill="none" xmlns="http://www.w3.org/2000/svg">
<path fill-rule="evenodd" clip-rule="evenodd" d="M5 1.5V5C5 6.10457 4.10457 7 3 7C1.34315 7 0 8.34315 0 10V13H16V10C16 8.34315 14.6569 7 13 7C11.8954 7 11 6.10457 11 5V1.5H12.5V0H3.5V1.5H5ZM6.5 1.5V5C6.5 6.933 4.933 8.5 3 8.5C2.17157 8.5 1.5 9.17157 1.5 10V11.5H14.5V10C14.5 9.17157 13.8284 8.5 13 8.5C11.067 8.5 9.5 6.933 9.5 5V1.5H6.5Z" fill="#364141"/>
<path d="M15 14.5H1C1.00033 15.3278 1.67142 15.9987 2.49925 15.9988L13.4999 15.9999C14.3283 15.9999 15 15.3284 15 14.5Z" fill="#364141"/>
</svg>
