<svg width="18" height="18" viewBox="0 0 18 18" fill="none" xmlns="http://www.w3.org/2000/svg">
<path fill-rule="evenodd" clip-rule="evenodd" d="M8.99991 0.986816C9.33554 0.986807 9.67118 1.15237 9.86405 1.48352L12.011 5.16955C12.1523 5.41215 12.389 5.58418 12.6634 5.6436L16.8325 6.54639C17.5816 6.7086 17.8772 7.61852 17.3666 8.19003L14.5244 11.3709C14.3373 11.5803 14.2469 11.8586 14.2751 12.1379L14.7048 16.3819C14.782 17.1445 14.008 17.7068 13.3067 17.3978L9.40319 15.6776C9.27472 15.621 9.13732 15.5927 8.99991 15.5927C8.99133 15.5927 8.98275 15.5928 8.97418 15.593C8.89893 15.595 8.82384 15.6054 8.75039 15.6243C8.69815 15.6378 8.64674 15.6556 8.59669 15.6776L4.6932 17.3978C4.60553 17.4364 4.51673 17.4614 4.4286 17.4741C4.2123 17.5053 4.00003 17.4624 3.81846 17.3648C3.48214 17.1839 3.25114 16.8152 3.29501 16.3819L3.72471 12.1379C3.75299 11.8586 3.66255 11.5803 3.47549 11.3709L0.633296 8.19003C0.122641 7.61852 0.418294 6.7086 1.16735 6.54639L5.33641 5.6436C5.6108 5.58418 5.84758 5.41215 5.98888 5.16955L8.1358 1.48352C8.3249 1.15885 8.65124 0.993342 8.98026 0.987005M8.99994 2.98026L10.7148 5.9245C11.0681 6.531 11.66 6.96107 12.346 7.10962L15.676 7.83073L13.4058 10.3715C12.9382 10.8949 12.7121 11.5907 12.7828 12.289L13.126 15.679L10.0081 14.305C9.68691 14.1635 9.34341 14.0927 8.99991 14.0927L8.99994 2.98026Z" fill="#364141"/>
</svg>
