<svg width="18" height="18" viewBox="0 0 18 18" fill="none" xmlns="http://www.w3.org/2000/svg">
<path d="M9 0C10.3367 0 11.6567 0.297767 12.864 0.871667C14.0712 1.44557 15.1355 2.28119 15.9795 3.31782C16.8234 4.35446 17.4259 5.56607 17.743 6.86464C18.0602 8.16321 18.0841 9.51612 17.813 10.8251C17.5419 12.134 16.9827 13.3662 16.1759 14.432C15.3691 15.4978 14.335 16.3705 13.1488 16.9867C11.9625 17.6029 10.6539 17.9471 9.31802 17.9944C7.98212 18.0416 6.65247 17.7907 5.42567 17.2598L6.01901 15.8887C7.04216 16.3314 8.15109 16.5407 9.26523 16.5013C10.3794 16.4619 11.4708 16.1748 12.4601 15.6609C13.4494 15.147 14.3118 14.4192 14.9847 13.5303C15.6576 12.6414 16.124 11.6138 16.35 10.5221C16.5761 9.43044 16.5562 8.30212 16.2917 7.21911C16.0272 6.1361 15.5247 5.12562 14.8209 4.26107C14.117 3.39651 13.2294 2.6996 12.2225 2.22097C11.2157 1.74234 10.1148 1.494 9 1.494V0Z" fill="#364141"/>
<path d="M2.63604 15.364C1.59794 14.3259 0.829544 13.0496 0.397864 11.6464C-0.033817 10.2432 -0.115679 8.75566 0.159415 7.31357L1.62695 7.59352C1.39752 8.79622 1.4658 10.0368 1.82582 11.2071C2.18584 12.3773 2.82668 13.4418 3.69246 14.3075L2.63604 15.364Z" fill="#364141"/>
<path d="M5.02644 0.924679C3.66624 1.59398 2.49715 2.59602 1.62763 3.83781L2.85145 4.69473C3.57662 3.65908 4.55165 2.82338 5.68605 2.26518L5.02644 0.924679Z" fill="#364141"/>
</svg>
