<svg width="16" height="18" viewBox="0 0 16 18" fill="none" xmlns="http://www.w3.org/2000/svg">
<path d="M5.5 4C5.5 4.55228 5.05228 5 4.5 5C3.94772 5 3.5 4.55228 3.5 4C3.5 3.44772 3.94772 3 4.5 3C5.05228 3 5.5 3.44772 5.5 4Z" fill="#364141"/>
<path fill-rule="evenodd" clip-rule="evenodd" d="M8.93934 0.43934L15.0858 6.58579C15.8668 7.36684 15.8668 8.63317 15.0858 9.41421L9.91421 14.5858C9.13316 15.3668 7.86684 15.3668 7.08579 14.5858L0.93934 8.43934C0.658035 8.15804 0.5 7.7765 0.5 7.37868V2C0.5 0.895431 1.39543 0 2.5 0H7.87868C8.2765 0 8.65804 0.158035 8.93934 0.43934ZM14.0251 7.64645L7.87868 1.5L2.5 1.5C2.22386 1.5 2 1.72386 2 2L2 7.37868L8.14645 13.5251C8.34171 13.7204 8.65829 13.7204 8.85355 13.5251L14.0251 8.35355C14.2204 8.15829 14.2204 7.84171 14.0251 7.64645Z" fill="#364141"/>
<path d="M6.62814 17.2451L0.974089 11.9445C0.671613 11.6609 0.5 11.2648 0.5 10.8502V10L7.13865 16.2237C7.90528 16.9424 9.09738 16.9453 9.86743 16.2302L15.5 11V11.8459C15.5 12.263 15.3263 12.6613 15.0207 12.9451L10.3802 17.2541C9.32139 18.2373 7.68226 18.2334 6.62814 17.2451Z" fill="#364141"/>
</svg>
