<svg width="16" height="16" viewBox="0 0 16 16" fill="none" xmlns="http://www.w3.org/2000/svg">
<path fill-rule="evenodd" clip-rule="evenodd" d="M3 4.5C3.82843 4.5 4.5 3.82843 4.5 3C4.5 2.17157 3.82843 1.5 3 1.5C2.17157 1.5 1.5 2.17157 1.5 3C1.5 3.82843 2.17157 4.5 3 4.5ZM3.75 5.90549C5.04392 5.57245 6 4.39788 6 3C6 1.34315 4.65685 0 3 0C1.34315 0 0 1.34315 0 3C0 4.39788 0.95608 5.57245 2.25 5.90549V10.0945C0.95608 10.4275 0 11.6021 0 13C0 14.6569 1.34315 16 3 16C4.65685 16 6 14.6569 6 13C6 11.6021 5.04392 10.4275 3.75 10.0945V5.90549ZM3 14.5C3.82843 14.5 4.5 13.8284 4.5 13C4.5 12.1716 3.82843 11.5 3 11.5C2.17157 11.5 1.5 12.1716 1.5 13C1.5 13.8284 2.17157 14.5 3 14.5ZM8 2.25H16V0.75H8V2.25ZM8 5.25H12V3.75H8V5.25ZM12 15.25H8V13.75H12V15.25ZM16 12.25H8V10.75H16V12.25Z" fill="#364141"/>
</svg>
