<svg width="18" height="18" viewBox="0 0 18 18" fill="none" xmlns="http://www.w3.org/2000/svg">
<path d="M10 0.25V1.75H5.08558L3.21268 9.24162C3.12109 9.60796 2.97047 9.94712 2.77249 10.25H11.2275C11.0295 9.94712 10.8789 9.60796 10.7873 9.24162L10.5224 8.1819L11.9776 7.8181L12.2425 8.87781C12.4441 9.68426 13.1687 10.25 14 10.25V11.75H7.75V17L7.21215 17.8628C7.11429 18.0198 6.88571 18.0198 6.78785 17.8628L6.25 17V11.75H0V10.25C0.831263 10.25 1.55585 9.68426 1.75746 8.87781L3.53942 1.75H2V0.25H10Z" fill="#364141"/>
<path d="M13.3002 6.54812L10.5017 4.06056L11.4983 2.93944L13.1998 4.45188L15.9504 1.48966L17.0496 2.51034L13.3002 6.54812Z" fill="#364141"/>
</svg>
