<svg width="18" height="15" viewBox="0 0 18 15" fill="none" xmlns="http://www.w3.org/2000/svg">
<path fill-rule="evenodd" clip-rule="evenodd" d="M9.50002 3.5C9.50002 5.433 7.93301 7 6.00001 7C4.06702 7 2.50001 5.433 2.50001 3.5C2.50001 1.567 4.06702 0 6.00001 0C7.93301 0 9.50002 1.567 9.50002 3.5ZM8.00001 3.5C8.00001 4.60457 7.10458 5.5 6.00001 5.5C4.89545 5.5 4.00001 4.60457 4.00001 3.5C4.00001 2.39543 4.89545 1.5 6.00001 1.5C7.10458 1.5 8.00001 2.39543 8.00001 3.5Z" fill="#364141"/>
<path fill-rule="evenodd" clip-rule="evenodd" d="M17 4C17 5.65685 15.6569 7 14 7C12.3432 7 11 5.65685 11 4C11 2.34315 12.3432 1 14 1C15.6569 1 17 2.34315 17 4ZM15.5 4C15.5 4.82843 14.8284 5.5 14 5.5C13.1716 5.5 12.5 4.82843 12.5 4C12.5 3.17157 13.1716 2.5 14 2.5C14.8284 2.5 15.5 3.17157 15.5 4Z" fill="#364141"/>
<path d="M13.6418 9.76618C14.2893 9.78495 14.9477 9.8255 15.6335 9.91309C15.9819 9.95759 16.2024 10.1581 16.2933 10.3701C16.3797 10.5715 16.3684 10.8202 16.16 11.0579C15.4729 11.8417 14.5416 12.5661 13.3767 12.7602C12.9681 12.8283 12.6921 13.2147 12.7602 13.6233C12.8283 14.0319 13.2147 14.3079 13.6233 14.2398C15.2634 13.9665 16.4814 12.9667 17.2879 12.0468C17.8848 11.366 17.9815 10.5006 17.6718 9.77865C17.3666 9.0673 16.6867 8.53542 15.8236 8.42517C14.825 8.29764 13.8847 8.26296 12.9944 8.25352C13.4688 8.61688 13.7043 9.19218 13.6418 9.76618Z" fill="#364141"/>
<path fill-rule="evenodd" clip-rule="evenodd" d="M5.98298 8.25C4.80043 8.25 3.52847 8.24999 2.1443 8.42931C1.28899 8.54011 0.614043 9.06441 0.30564 9.76892C-0.00671035 10.4825 0.0773659 11.3398 0.647795 12.0273C1.69329 13.2875 3.45642 14.75 6.00001 14.75C8.54362 14.75 10.3067 13.2875 11.3522 12.0273C11.9227 11.3398 12.0067 10.4825 11.6944 9.76892C11.386 9.06441 10.711 8.54011 9.85573 8.42931C8.47156 8.24999 7.19961 8.25 6.01706 8.25H5.98298ZM2.33701 9.91688C3.61845 9.75087 4.80373 9.75 6.00001 9.75C7.1963 9.75 8.38158 9.75087 9.66302 9.91688C10.0084 9.96162 10.2278 10.1591 10.3203 10.3704C10.4088 10.5728 10.4004 10.8254 10.1978 11.0696C9.29487 12.1579 7.91409 13.25 6.00001 13.25C4.08594 13.25 2.70516 12.1579 1.80222 11.0696C1.59962 10.8254 1.59118 10.5728 1.67975 10.3704C1.77226 10.1591 1.99165 9.96162 2.33701 9.91688Z" fill="#364141"/>
</svg>
