<svg width="20" height="17" viewBox="0 0 20 17" fill="none" xmlns="http://www.w3.org/2000/svg">
<path fill-rule="evenodd" clip-rule="evenodd" d="M6.99999 8C9.20913 8 11 6.20914 11 4C11 1.79086 9.20913 0 6.99999 0C4.79086 0 2.99999 1.79086 2.99999 4C2.99999 6.20914 4.79086 8 6.99999 8ZM6.99999 6.5C8.38071 6.5 9.49999 5.38071 9.49999 4C9.49999 2.61929 8.38071 1.5 6.99999 1.5C5.61928 1.5 4.49999 2.61929 4.49999 4C4.49999 5.38071 5.61928 6.5 6.99999 6.5Z" fill="#364141"/>
<path fill-rule="evenodd" clip-rule="evenodd" d="M6.98031 9.25H7.01968C8.53441 9.24999 10.1642 9.24999 11.9588 9.53319C13.6281 9.79663 14.5546 11.6367 13.5452 13.1034C12.4082 14.7555 10.2681 17 6.99999 17C3.73191 17 1.59179 14.7555 0.454801 13.1034C-0.554576 11.6367 0.371938 9.79663 2.04124 9.53319C3.83575 9.24999 5.46558 9.24999 6.98031 9.25ZM6.99999 10.75C5.47033 10.75 3.94547 10.7512 2.27506 11.0149C1.60589 11.1205 1.3577 11.7695 1.69046 12.253C2.73547 13.7715 4.48361 15.5 6.99999 15.5C9.51638 15.5 11.2645 13.7715 12.3095 12.253C12.6423 11.7695 12.3941 11.1205 11.7249 11.0149C10.0545 10.7512 8.52966 10.75 6.99999 10.75Z" fill="#364141"/>
<path d="M19.5303 3.53033L18.4697 2.46967L15 5.93934L13.5303 4.46967L12.4697 5.53033L15 8.06066L19.5303 3.53033Z" fill="#364141"/>
</svg>
