<svg width="18" height="14" viewBox="0 0 18 14" fill="none" xmlns="http://www.w3.org/2000/svg">
<path d="M8.04629 4.72948C7.7182 4.57829 7.36125 4.5 7 4.5V3C7.5147 3 8.02396 3.09933 8.5 3.2919C8.55854 3.31558 8.61658 3.34067 8.67407 3.36716C9.19901 3.60906 9.66529 3.96186 10.0408 4.40125C10.4163 4.84064 10.6922 5.3562 10.8493 5.91242C11.0065 6.46864 11.0412 7.05231 10.9511 7.62324C10.8611 8.19418 10.6484 8.73882 10.3276 9.21966C10.0069 9.70049 9.58576 10.1061 9.09322 10.4086C8.60069 10.711 8.04845 10.9032 7.47454 10.9718C7.41169 10.9793 7.34874 10.9853 7.28576 10.9898C6.77355 11.0265 6.25844 10.9642 5.76873 10.8058L6.23046 9.37861C6.57408 9.48974 6.93799 9.52519 7.29659 9.48234C7.65528 9.43949 8.00043 9.31941 8.30826 9.13036C8.6161 8.94132 8.87931 8.68781 9.07977 8.38729C9.28023 8.08676 9.41318 7.74636 9.46947 7.38953C9.52575 7.03269 9.50404 6.6679 9.40582 6.32026C9.30759 5.97262 9.1352 5.6504 8.9005 5.37578C8.6658 5.10116 8.37438 4.88066 8.04629 4.72948Z" fill="#364141"/>
<path d="M4.62134 7.7694C4.7431 8.14584 4.95247 8.48801 5.23223 8.76777L4.17157 9.82843C3.8074 9.46418 3.51752 9.03356 3.31732 8.56136C3.27152 8.45335 3.23041 8.34314 3.19414 8.23104C3.15788 8.11894 3.12667 8.00553 3.10053 7.89116C2.98628 7.39122 2.96899 6.87286 3.05082 6.36439L4.53182 6.60239C4.46899 6.99286 4.49962 7.3931 4.62134 7.7694Z" fill="#364141"/>
<path d="M4.92776 5.6015C5.16364 5.25197 5.48411 4.96779 5.85933 4.77539L5.86024 4.77493L5.17639 3.43988C5.0343 3.51266 4.89712 3.59367 4.76546 3.68234C4.47193 3.88004 4.20592 4.11584 3.97442 4.38353C3.8706 4.50359 3.77371 4.63007 3.68441 4.7624L4.92776 5.6015Z" fill="#364141"/>
<path fill-rule="evenodd" clip-rule="evenodd" d="M14 3.97159V1.5C14 0.671573 13.3284 0 12.5 0H1.5C0.671573 0 0 0.671573 0 1.5V12.5C0 13.3284 0.671573 14 1.5 14H12.5C13.3284 14 14 13.3284 14 12.5V10.0455L17.3291 11.256C17.6552 11.3746 18 11.1331 18 10.7861V3.26875C18 2.9239 17.6591 2.68258 17.3339 2.79716L14 3.97159ZM12.5 1.5H1.5L1.5 12.5H12.5V1.5ZM14 5.56194V8.44936L16.5 9.35845V4.68126L14 5.56194Z" fill="#364141"/>
</svg>
