<svg width="18" height="14" viewBox="0 0 18 14" fill="none" xmlns="http://www.w3.org/2000/svg">
<path fill-rule="evenodd" clip-rule="evenodd" d="M14 10.0455V12.5C14 13.3284 13.3284 14 12.5 14H1.5C0.671573 14 0 13.3284 0 12.5V1.5C0 0.671573 0.671573 0 1.5 0H12.5C13.3284 0 14 0.671573 14 1.5V3.97159L17.3339 2.79716C17.6591 2.68258 18 2.9239 18 3.26875V10.7861C18 11.1331 17.6552 11.3746 17.3291 11.256L14 10.0455ZM1.5 1.5H12.5V12.5H1.5L1.5 1.5ZM14 8.44936L16.5 9.35845V4.68126L14 5.56194V8.44936Z" fill="#364141"/>
</svg>
