<svg width="16" height="16" viewBox="0 0 16 16" fill="none" xmlns="http://www.w3.org/2000/svg">
<path fill-rule="evenodd" clip-rule="evenodd" d="M10.2361 5C10.7111 4.46924 11 3.76835 11 3C11 1.34315 9.65681 0 7.99995 0C6.3431 0 4.99995 1.34315 4.99995 3C4.99995 3.76835 5.28881 4.46924 5.76385 5H4.14565C3.46922 5 2.87648 5.45273 2.6985 6.10532L0.172198 15.3684C0.0854516 15.6865 0.324893 16 0.65458 16H15.3453C15.675 16 15.9145 15.6865 15.8277 15.3684L13.3014 6.10532C13.1234 5.45273 12.5307 5 11.8543 5H10.2361ZM9.49995 3C9.49995 3.82843 8.82838 4.5 7.99995 4.5C7.17153 4.5 6.49995 3.82843 6.49995 3C6.49995 2.17157 7.17153 1.5 7.99995 1.5C8.82838 1.5 9.49995 2.17157 9.49995 3ZM14.0361 14.5H1.96383L4.14565 6.5L11.8543 6.5L14.0361 14.5Z" fill="#364141"/>
</svg>
