<svg width="24" height="24" viewBox="0 0 24 24" fill="none" xmlns="http://www.w3.org/2000/svg">
<path d="M16.375 8.25C17.8247 8.25 19 7.07475 19 5.625C19 4.17525 17.8247 3 16.375 3C14.9253 3 13.75 4.17525 13.75 5.625C13.75 7.07475 14.9253 8.25 16.375 8.25Z" fill="#364141"/>
<path d="M10.25 11.0498C11.4926 11.0498 12.5 10.0424 12.5 8.7998C12.5 7.55716 11.4926 6.5498 10.25 6.5498C9.00736 6.5498 8 7.55716 8 8.7998C8 10.0424 9.00736 11.0498 10.25 11.0498Z" fill="#364141"/>
<path d="M5.5 13.5C6.32843 13.5 7 12.8284 7 12C7 11.1716 6.32843 10.5 5.5 10.5C4.67157 10.5 4 11.1716 4 12C4 12.8284 4.67157 13.5 5.5 13.5Z" fill="#364141"/>
<path d="M12.5 15.25C12.5 16.4926 11.4926 17.5 10.25 17.5C9.00736 17.5 8 16.4926 8 15.25C8 14.0074 9.00736 13 10.25 13C11.4926 13 12.5 14.0074 12.5 15.25Z" fill="#364141"/>
<path d="M19 12.0049C19 13.4546 17.8247 14.6299 16.375 14.6299C14.9253 14.6299 13.75 13.4546 13.75 12.0049C13.75 10.5551 14.9253 9.37988 16.375 9.37988C17.8247 9.37988 19 10.5551 19 12.0049Z" fill="#364141"/>
<path d="M16.375 21C17.8247 21 19 19.8247 19 18.375C19 16.9253 17.8247 15.75 16.375 15.75C14.9253 15.75 13.75 16.9253 13.75 18.375C13.75 19.8247 14.9253 21 16.375 21Z" fill="#364141"/>
</svg>
