<svg width="24" height="24" viewBox="0 0 24 24" fill="none" xmlns="http://www.w3.org/2000/svg">
<path fill-rule="evenodd" clip-rule="evenodd" d="M6 9C6 6.23858 8.23858 4 11 4H19.5C20.3284 4 21 4.67157 21 5.5V13C21 15.7614 18.7614 18 16 18H7.5C6.67157 18 6 17.3284 6 16.5V9ZM14.25 7.75H12.75V10.25H10.25V11.75H12.75V14.25H14.25V11.75H16.75V10.25H14.25V7.75Z" fill="#364141"/>
<path d="M4.5 8.42928C3.57432 9.33675 3 10.6013 3 12V19C3 20.1046 3.89543 21 5 21H13C14.3987 21 15.6633 20.4257 16.5707 19.5H6C5.17157 19.5 4.5 18.8284 4.5 18V8.42928Z" fill="#364141"/>
</svg>
