<svg width="24" height="24" viewBox="0 0 24 24" fill="none" xmlns="http://www.w3.org/2000/svg">
<path d="M5.5 3.5C4.67157 3.5 4 4.17157 4 5V8.75H8V5C8 4.17157 7.32843 3.5 6.5 3.5H5.5Z" fill="#364141"/>
<path d="M8 10.25H4V19C4 19.8284 4.67157 20.5 5.5 20.5H6.5C7.32843 20.5 8 19.8284 8 19V10.25Z" fill="#364141"/>
<path d="M11.5 3.5C10.6716 3.5 10 4.17157 10 5V13.75H14V5C14 4.17157 13.3284 3.5 12.5 3.5H11.5Z" fill="#364141"/>
<path d="M14 15.25H10V19C10 19.8284 10.6716 20.5 11.5 20.5H12.5C13.3284 20.5 14 19.8284 14 19V15.25Z" fill="#364141"/>
<path d="M16 5C16 4.17157 16.6716 3.5 17.5 3.5H18.5C19.3284 3.5 20 4.17157 20 5V8.75H16V5Z" fill="#364141"/>
<path d="M16 10.25V19C16 19.8284 16.6716 20.5 17.5 20.5H18.5C19.3284 20.5 20 19.8284 20 19V10.25H16Z" fill="#364141"/>
</svg>
