<svg width="24" height="24" viewBox="0 0 24 24" fill="none" xmlns="http://www.w3.org/2000/svg">
<path d="M13.5778 9.57159C14.7182 8.99469 15.5 7.81192 15.5 6.44653C15.5 4.51354 13.933 2.94653 12 2.94653C10.067 2.94653 8.5 4.51354 8.5 6.44653C8.5 7.81192 9.28184 8.99469 10.4222 9.57159H13.5778Z" fill="#364141"/>
<path d="M10.5 10.5C10.5 11.3284 11.1716 12 12 12C12.8284 12 13.5 11.3284 13.5 10.5H10.5Z" fill="#364141"/>
<path d="M17 6.5C17 6.66875 16.9916 6.83555 16.9753 7H18V12.75C18 13.5784 17.3284 14.25 16.5 14.25H8.70059L6 16.1488V8.5C6 7.83477 6.43305 7.27067 7.03262 7.07425C7.01107 6.88582 7 6.6942 7 6.5C7 5.98129 7.07899 5.48104 7.22559 5.0106C5.42085 5.15057 4 6.65935 4 8.5V19.5186C4 19.7211 4.22815 19.8396 4.39379 19.7231L9.33333 16.25H16.5C18.433 16.25 20 14.683 20 12.75V6C20 5.44772 19.5523 5 19 5H16.7711C16.9198 5.47352 17 5.9774 17 6.5Z" fill="#364141"/>
</svg>
