<svg width="24" height="24" viewBox="0 0 24 24" fill="none" xmlns="http://www.w3.org/2000/svg">
<path fill-rule="evenodd" clip-rule="evenodd" d="M12 7.75C10.8954 7.75 10 8.64543 10 9.75C10 10.8546 10.8954 11.75 12 11.75C13.1046 11.75 14 10.8546 14 9.75C14 8.64543 13.1046 7.75 12 7.75ZM11.5 9.75C11.5 9.47386 11.7239 9.25 12 9.25C12.2761 9.25 12.5 9.47386 12.5 9.75C12.5 10.0261 12.2761 10.25 12 10.25C11.7239 10.25 11.5 10.0261 11.5 9.75Z" fill="#364141"/>
<path fill-rule="evenodd" clip-rule="evenodd" d="M3 7C3 4.79086 4.79086 3 7 3H20C20.5523 3 21 3.44772 21 4V12.5C21 14.7091 19.2091 16.5 17 16.5H9L3.4 20.7C3.23519 20.8236 3 20.706 3 20.5V7ZM12 6.25C10.0328 6.25 8.20006 8.22439 7.40953 9.20735C7.15226 9.52723 7.15226 9.97277 7.40953 10.2927C8.20006 11.2756 10.0328 13.25 12 13.25C13.9672 13.25 15.7999 11.2756 16.5905 10.2927C16.8477 9.97277 16.8477 9.52723 16.5905 9.20735C15.7999 8.22439 13.9672 6.25 12 6.25Z" fill="#364141"/>
</svg>
