<svg width="24" height="24" viewBox="0 0 24 24" fill="none" xmlns="http://www.w3.org/2000/svg">
<path fill-rule="evenodd" clip-rule="evenodd" d="M15.3222 19.0942C14.1732 19.6737 12.8747 20 11.5 20C6.80558 20 3 16.1944 3 11.5C3 6.80558 6.80558 3 11.5 3C16.1944 3 20 6.80558 20 11.5C20 14.1003 18.8324 16.4278 16.9929 17.987C17.3519 18.4368 17.8615 18.7525 18.4383 18.8679C18.8777 18.9557 19.3247 19 19.7728 19H21V21H19.7728C19.193 21 18.6146 20.9427 18.0461 20.829C16.943 20.6084 15.9756 19.983 15.3222 19.0942ZM8.07219 17.0237C8.02478 16.7873 8 16.5433 8 16.2945C8 13.9424 10.1846 12.2171 12.4582 12.6718C13.8489 12.95 15.0453 13.8831 15.6367 15.1841L16.0652 16.1269C17.2597 14.9483 18 13.3106 18 11.5C18 7.91015 15.0899 5 11.5 5C7.91015 5 5 7.91015 5 11.5C5 13.8318 6.22781 15.8768 8.07219 17.0237ZM11.551 17.9998L11.3609 17.961C10.5689 17.7995 10 17.1028 10 16.2945C10 15.2379 10.997 14.4192 12.066 14.633C12.8366 14.7871 13.4952 15.3061 13.8159 16.0117L14.4082 17.3147C13.5474 17.7461 12.5775 17.9919 11.551 17.9998Z" fill="#364141"/>
</svg>
