<svg width="24" height="24" viewBox="0 0 24 24" fill="none" xmlns="http://www.w3.org/2000/svg">
<path fill-rule="evenodd" clip-rule="evenodd" d="M4 9C4 5.68629 6.68629 3 10 3H19C19.5523 3 20 3.44772 20 4V11C20 14.3137 17.3137 17 14 17H6.25311C6.04802 17 5.97581 17.2719 6.15388 17.3736L8.37063 18.6404C8.62493 18.7857 8.59891 19.1604 8.32697 19.2692L4.47999 20.808C4.25008 20.9 4 20.7307 4 20.483V9ZM8.1934 10.0303L13.5059 6.43146C13.7064 6.29564 13.9636 6.49572 13.8813 6.72346L12.8571 9.55556H15.6768C15.9239 9.55556 16.0212 9.87591 15.8158 10.0133L10.4903 13.5764C10.2897 13.7106 10.0341 13.5106 10.1162 13.2836L11.1429 10.4444L8.33742 10.4872C8.08909 10.491 7.98777 10.1696 8.1934 10.0303Z" fill="#364141"/>
</svg>
