<svg width="24" height="24" viewBox="0 0 24 24" fill="none" xmlns="http://www.w3.org/2000/svg">
<path fill-rule="evenodd" clip-rule="evenodd" d="M4 9C4 5.68629 6.68629 3 10 3H19C19.5523 3 20 3.44772 20 4V11C20 14.3137 17.3137 17 14 17H6.25311C6.04802 17 5.97581 17.2719 6.15388 17.3736L8.37063 18.6404C8.62493 18.7857 8.59891 19.1604 8.32697 19.2692L4.47999 20.808C4.25008 20.9 4 20.7307 4 20.483V9ZM8.5 11C9.05228 11 9.5 10.5523 9.5 10C9.5 9.44772 9.05228 9 8.5 9C7.94772 9 7.5 9.44772 7.5 10C7.5 10.5523 7.94772 11 8.5 11ZM12 11C12.5523 11 13 10.5523 13 10C13 9.44772 12.5523 9 12 9C11.4477 9 11 9.44772 11 10C11 10.5523 11.4477 11 12 11ZM16.5 10C16.5 10.5523 16.0523 11 15.5 11C14.9477 11 14.5 10.5523 14.5 10C14.5 9.44772 14.9477 9 15.5 9C16.0523 9 16.5 9.44772 16.5 10Z" fill="#364141"/>
</svg>
