<svg width="24" height="24" viewBox="0 0 24 24" fill="none" xmlns="http://www.w3.org/2000/svg">
<path fill-rule="evenodd" clip-rule="evenodd" d="M4 9C4 6.23858 6.23858 4 9 4H18.5C19.3284 4 20 4.67157 20 5.5V15C20 15.4547 19.9393 15.8953 19.8255 16.314C19.2485 18.438 17.3067 20 15 20H5.5C4.67157 20 4 19.3284 4 18.5V9ZM5.5 15.6945V18.5H15C16.7042 18.5 18.124 17.2819 18.4362 15.6689C16.5763 14.9288 14.3682 14.5 12 14.5C9.60459 14.5 7.37312 14.9387 5.5 15.6945ZM12 13C13.6569 13 15 11.6569 15 10C15 8.34315 13.6569 7 12 7C10.3431 7 9 8.34315 9 10C9 11.6569 10.3431 13 12 13Z" fill="#364141"/>
</svg>
