<svg width="15" height="18" viewBox="0 0 15 18" fill="none" xmlns="http://www.w3.org/2000/svg">
<path d="M12.375 5.25C13.8247 5.25 15 4.07475 15 2.625C15 1.17525 13.8247 0 12.375 0C10.9253 0 9.75 1.17525 9.75 2.625C9.75 4.07475 10.9253 5.25 12.375 5.25Z" fill="#364141"/>
<path d="M6.25 8.0498C7.49264 8.0498 8.5 7.04245 8.5 5.7998C8.5 4.55716 7.49264 3.5498 6.25 3.5498C5.00736 3.5498 4 4.55716 4 5.7998C4 7.04245 5.00736 8.0498 6.25 8.0498Z" fill="#364141"/>
<path d="M1.5 10.5C2.32843 10.5 3 9.82843 3 9C3 8.17157 2.32843 7.5 1.5 7.5C0.671573 7.5 0 8.17157 0 9C0 9.82843 0.671573 10.5 1.5 10.5Z" fill="#364141"/>
<path d="M8.5 12.25C8.5 13.4926 7.49264 14.5 6.25 14.5C5.00736 14.5 4 13.4926 4 12.25C4 11.0074 5.00736 10 6.25 10C7.49264 10 8.5 11.0074 8.5 12.25Z" fill="#364141"/>
<path d="M15 9.00488C15 10.4546 13.8247 11.6299 12.375 11.6299C10.9253 11.6299 9.75 10.4546 9.75 9.00488C9.75 7.55514 10.9253 6.37988 12.375 6.37988C13.8247 6.37988 15 7.55514 15 9.00488Z" fill="#364141"/>
<path d="M12.375 18C13.8247 18 15 16.8247 15 15.375C15 13.9253 13.8247 12.75 12.375 12.75C10.9253 12.75 9.75 13.9253 9.75 15.375C9.75 16.8247 10.9253 18 12.375 18Z" fill="#364141"/>
</svg>
