<svg width="18" height="17" viewBox="0 0 18 17" fill="none" xmlns="http://www.w3.org/2000/svg">
<path fill-rule="evenodd" clip-rule="evenodd" d="M3 5C3 2.23858 5.23858 0 8 0H16.5C17.3284 0 18 0.671573 18 1.5V9C18 11.7614 15.7614 14 13 14H4.5C3.67157 14 3 13.3284 3 12.5V5ZM11.25 3.75H9.75V6.25H7.25V7.75H9.75V10.25H11.25V7.75H13.75V6.25H11.25V3.75Z" fill="#364141"/>
<path d="M1.5 4.42928C0.574319 5.33675 0 6.6013 0 8V15C0 16.1046 0.89543 17 2 17H10C11.3987 17 12.6633 16.4257 13.5707 15.5H3C2.17157 15.5 1.5 14.8284 1.5 14V4.42928Z" fill="#364141"/>
</svg>
