<svg width="16" height="18" viewBox="0 0 16 18" fill="none" xmlns="http://www.w3.org/2000/svg">
<path fill-rule="evenodd" clip-rule="evenodd" d="M0 2C0 1.17157 0.671573 0.5 1.5 0.5H3C3.82843 0.5 4.5 1.17157 4.5 2V16C4.5 16.8284 3.82843 17.5 3 17.5H1.5C0.671573 17.5 0 16.8284 0 16V2ZM1.5 2H3V5.75H1.5V2ZM1.5 7.25L1.5 16H3V7.25H1.5Z" fill="#364141"/>
<path fill-rule="evenodd" clip-rule="evenodd" d="M5.75 2C5.75 1.17157 6.42157 0.5 7.25 0.5H8.75C9.57843 0.5 10.25 1.17157 10.25 2V16C10.25 16.8284 9.57843 17.5 8.75 17.5H7.25C6.42157 17.5 5.75 16.8284 5.75 16V2ZM7.25 2H8.75V10.75H7.25V2ZM7.25 12.25V16H8.75V12.25H7.25Z" fill="#364141"/>
<path fill-rule="evenodd" clip-rule="evenodd" d="M13 0.5C12.1716 0.5 11.5 1.17157 11.5 2V16C11.5 16.8284 12.1716 17.5 13 17.5H14.5C15.3284 17.5 16 16.8284 16 16V2C16 1.17157 15.3284 0.5 14.5 0.5H13ZM14.5 2H13V5.75H14.5V2ZM13 16V7.25H14.5V16H13Z" fill="#364141"/>
</svg>
