<svg width="16" height="18" viewBox="0 0 16 18" fill="none" xmlns="http://www.w3.org/2000/svg">
<path d="M1.5 0.5C0.671573 0.5 0 1.17157 0 2V5.75H4V2C4 1.17157 3.32843 0.5 2.5 0.5H1.5Z" fill="#364141"/>
<path d="M4 7.25H0V16C0 16.8284 0.671573 17.5 1.5 17.5H2.5C3.32843 17.5 4 16.8284 4 16V7.25Z" fill="#364141"/>
<path d="M7.5 0.5C6.67157 0.5 6 1.17157 6 2V10.75H10V2C10 1.17157 9.32843 0.5 8.5 0.5H7.5Z" fill="#364141"/>
<path d="M10 12.25H6V16C6 16.8284 6.67157 17.5 7.5 17.5H8.5C9.32843 17.5 10 16.8284 10 16V12.25Z" fill="#364141"/>
<path d="M12 2C12 1.17157 12.6716 0.5 13.5 0.5H14.5C15.3284 0.5 16 1.17157 16 2V5.75H12V2Z" fill="#364141"/>
<path d="M12 7.25V16C12 16.8284 12.6716 17.5 13.5 17.5H14.5C15.3284 17.5 16 16.8284 16 16V7.25H12Z" fill="#364141"/>
</svg>
