<svg width="18" height="18" viewBox="0 0 18 18" fill="none" xmlns="http://www.w3.org/2000/svg">
<path fill-rule="evenodd" clip-rule="evenodd" d="M9 4.75C7.89543 4.75 7 5.64543 7 6.75C7 7.85457 7.89543 8.75 9 8.75C10.1046 8.75 11 7.85457 11 6.75C11 5.64543 10.1046 4.75 9 4.75ZM8.5 6.75C8.5 6.47386 8.72386 6.25 9 6.25C9.27614 6.25 9.5 6.47386 9.5 6.75C9.5 7.02614 9.27614 7.25 9 7.25C8.72386 7.25 8.5 7.02614 8.5 6.75Z" fill="#364141"/>
<path fill-rule="evenodd" clip-rule="evenodd" d="M0 4C0 1.79086 1.79086 0 4 0H17C17.5523 0 18 0.447715 18 1V9.5C18 11.7091 16.2091 13.5 14 13.5H6L0.4 17.7C0.235191 17.8236 0 17.706 0 17.5V4ZM9 3.25C7.03278 3.25 5.20006 5.22439 4.40953 6.20735C4.15226 6.52723 4.15226 6.97277 4.40953 7.29265C5.20006 8.27561 7.03278 10.25 9 10.25C10.9672 10.25 12.7999 8.27561 13.5905 7.29265C13.8477 6.97277 13.8477 6.52723 13.5905 6.20735C12.7999 5.22439 10.9672 3.25 9 3.25Z" fill="#364141"/>
</svg>
