<svg width="16" height="18" viewBox="0 0 16 18" fill="none" xmlns="http://www.w3.org/2000/svg">
<path d="M9.57776 7.57159C10.7182 6.99469 11.5 5.81192 11.5 4.44653C11.5 2.51354 9.933 0.946533 8 0.946533C6.067 0.946533 4.5 2.51354 4.5 4.44653C4.5 5.81192 5.28184 6.99469 6.42224 7.57159H9.57776Z" fill="#364141"/>
<path d="M6.5 8.5C6.5 9.32843 7.17157 10 8 10C8.82843 10 9.5 9.32843 9.5 8.5H6.5Z" fill="#364141"/>
<path d="M13 4.5C13 4.66875 12.9916 4.83555 12.9753 5H14V10.75C14 11.5784 13.3284 12.25 12.5 12.25H4.70059L2 14.1488V6.5C2 5.83477 2.43305 5.27067 3.03262 5.07425C3.01107 4.88582 3 4.6942 3 4.5C3 3.98129 3.07899 3.48104 3.22559 3.0106C1.42085 3.15057 0 4.65935 0 6.5V17.5186C0 17.7211 0.228148 17.8396 0.393794 17.7231L5.33333 14.25H12.5C14.433 14.25 16 12.683 16 10.75V4C16 3.44772 15.5523 3 15 3H12.7711C12.9198 3.47352 13 3.9774 13 4.5Z" fill="#364141"/>
</svg>
