<svg width="16" height="16" viewBox="0 0 16 16" fill="none" xmlns="http://www.w3.org/2000/svg">
<path d="M5.5 2H7L9 0H5.5C2.46243 0 0 2.46243 0 5.5V14C0 15.1046 0.895431 16 2 16H10.5C13.5376 16 16 13.5376 16 10.5V7L14 9V10.5C14 12.433 12.433 14 10.5 14H2V5.5C2 3.567 3.567 2 5.5 2Z" fill="#364141"/>
<path d="M6 10V7.10355C6 7.03725 6.02634 6.97366 6.07322 6.92678L12.25 0.750001C13.0784 -0.0784255 14.4216 -0.0784269 15.25 0.75C16.0784 1.57843 16.0784 2.92157 15.25 3.75L9.07322 9.92678C9.02634 9.97366 8.96275 10 8.89645 10H6Z" fill="#364141"/>
</svg>
