<svg width="18" height="18" viewBox="0 0 18 18" fill="none" xmlns="http://www.w3.org/2000/svg">
<path fill-rule="evenodd" clip-rule="evenodd" d="M12.3222 16.0942C11.1732 16.6737 9.87469 17 8.5 17C3.80558 17 0 13.1944 0 8.5C0 3.80558 3.80558 0 8.5 0C13.1944 0 17 3.80558 17 8.5C17 11.1003 15.8324 13.4278 13.9929 14.987C14.3519 15.4368 14.8615 15.7525 15.4383 15.8679C15.8777 15.9557 16.3247 16 16.7728 16H18V18H16.7728C16.193 18 15.6146 17.9427 15.0461 17.829C13.943 17.6084 12.9756 16.983 12.3222 16.0942ZM5.07219 14.0237C5.02478 13.7873 5 13.5433 5 13.2945C5 10.9424 7.18464 9.21712 9.45818 9.67183C10.8489 9.94997 12.0453 10.8831 12.6367 12.1841L13.0652 13.1269C14.2597 11.9483 15 10.3106 15 8.5C15 4.91015 12.0899 2 8.5 2C4.91015 2 2 4.91015 2 8.5C2 10.8318 3.22781 12.8768 5.07219 14.0237ZM8.55098 14.9998L8.36087 14.961C7.56888 14.7995 7 14.1028 7 13.2945C7 12.2379 7.99697 11.4192 9.06595 11.633C9.83657 11.7871 10.4952 12.3061 10.8159 13.0117L11.4082 14.3147C10.5474 14.7461 9.57752 14.9919 8.55098 14.9998Z" fill="#364141"/>
</svg>
