<svg width="18" height="18" viewBox="0 0 18 18" fill="none" xmlns="http://www.w3.org/2000/svg">
<path fill-rule="evenodd" clip-rule="evenodd" d="M9.02852 16.9838C8.85372 16.9946 8.6775 17 8.5 17C3.80558 17 0 13.1944 0 8.5C0 3.80558 3.80558 0 8.5 0C13.1944 0 17 3.80558 17 8.5C17 11.2085 15.7332 13.6211 13.7597 15.1777C14.0901 15.6729 14.5847 16.0424 15.1631 16.2159C15.791 16.4043 16.4432 16.5 17.0988 16.5H18V18H17.0988C16.2972 18 15.4999 17.883 14.7321 17.6526C13.8129 17.3769 13.0274 16.7882 12.5047 15.9994C11.4687 16.5538 10.3044 16.8998 9.06782 16.9813C9.05481 16.9825 9.04171 16.9833 9.02852 16.9838ZM5.55447 14.852C5.35778 14.4088 5.25 13.9209 5.25 13.4134V13.3438C5.25 11.1407 7.26559 9.48827 9.42596 9.92034C10.7431 10.1838 11.8532 11.0647 12.4091 12.2875L13.0899 13.7853C14.5665 12.5019 15.5 10.61 15.5 8.5C15.5 4.63401 12.366 1.5 8.5 1.5C4.63401 1.5 1.5 4.63401 1.5 8.5C1.5 11.3138 3.1602 13.7398 5.55447 14.852ZM8.96227 15.485L8.93608 15.4855C8.71465 15.4899 8.49388 15.46 8.28162 15.3968L8.21382 15.3766C7.34536 15.118 6.75 14.3196 6.75 13.4134V13.3438C6.75 12.0872 7.89961 11.1448 9.13179 11.3912C9.97591 11.56 10.6873 12.1246 11.0435 12.9082L11.8374 14.6547C10.9729 15.1245 9.9983 15.4174 8.96227 15.485Z" fill="#364141"/>
</svg>
