<svg width="16" height="18" viewBox="0 0 16 18" fill="none" xmlns="http://www.w3.org/2000/svg">
<path fill-rule="evenodd" clip-rule="evenodd" d="M0 6C0 2.68629 2.68629 0 6 0H15C15.5523 0 16 0.447715 16 1V8C16 11.3137 13.3137 14 10 14H2.25311C2.04802 14 1.97581 14.2719 2.15388 14.3736L4.37063 15.6404C4.62493 15.7857 4.59891 16.1604 4.32697 16.2692L0.479987 17.808C0.250084 17.9 0 17.7307 0 17.483V6ZM4.5 8C5.05228 8 5.5 7.55228 5.5 7C5.5 6.44772 5.05228 6 4.5 6C3.94772 6 3.5 6.44772 3.5 7C3.5 7.55228 3.94772 8 4.5 8ZM8 8C8.55228 8 9 7.55228 9 7C9 6.44772 8.55228 6 8 6C7.44772 6 7 6.44772 7 7C7 7.55228 7.44772 8 8 8ZM12.5 7C12.5 7.55228 12.0523 8 11.5 8C10.9477 8 10.5 7.55228 10.5 7C10.5 6.44772 10.9477 6 11.5 6C12.0523 6 12.5 6.44772 12.5 7Z" fill="#364141"/>
</svg>
