<svg width="16" height="18" viewBox="0 0 16 18" fill="none" xmlns="http://www.w3.org/2000/svg">
<path d="M8 8C8.55229 8 9 7.55228 9 7C9 6.44772 8.55229 6 8 6C7.44772 6 7 6.44772 7 7C7 7.55228 7.44772 8 8 8Z" fill="#364141"/>
<path d="M5.5 7C5.5 7.55228 5.05228 8 4.5 8C3.94772 8 3.5 7.55228 3.5 7C3.5 6.44772 3.94772 6 4.5 6C5.05228 6 5.5 6.44772 5.5 7Z" fill="#364141"/>
<path d="M11.5 8C12.0523 8 12.5 7.55228 12.5 7C12.5 6.44772 12.0523 6 11.5 6C10.9477 6 10.5 6.44772 10.5 7C10.5 7.55228 10.9477 8 11.5 8Z" fill="#364141"/>
<path fill-rule="evenodd" clip-rule="evenodd" d="M6 0C2.68629 0 0 2.68629 0 6V17.483C0 17.7307 0.250084 17.9 0.479987 17.808L4.32697 16.2692C4.59891 16.1604 4.62493 15.7857 4.37063 15.6404L2.15388 14.3736C1.97581 14.2719 2.04802 14 2.25311 14H10C13.3137 14 16 11.3137 16 8V1C16 0.447715 15.5523 0 15 0H6ZM14.5 1.5H6C3.51472 1.5 1.5 3.51472 1.5 6V12.5H10C12.4853 12.5 14.5 10.4853 14.5 8V1.5Z" fill="#364141"/>
</svg>
