<svg width="16" height="18" viewBox="0 0 16 18" fill="none" xmlns="http://www.w3.org/2000/svg">
<path d="M9.50594 3.43146L4.1934 7.03028C3.98777 7.16957 4.08909 7.49102 4.33742 7.48723L7.14286 7.44444L6.11621 10.2836C6.03411 10.5106 6.28966 10.7106 6.49033 10.5764L11.8158 7.01334C12.0212 6.87591 11.9239 6.55556 11.6768 6.55556H8.85714L9.88125 3.72346C9.9636 3.49572 9.70643 3.29564 9.50594 3.43146Z" fill="#364141"/>
<path fill-rule="evenodd" clip-rule="evenodd" d="M6 0C2.68629 0 0 2.68629 0 6V17.483C0 17.7307 0.250084 17.9 0.479987 17.808L4.32697 16.2692C4.59891 16.1604 4.62493 15.7857 4.37063 15.6404L2.15388 14.3736C1.97581 14.2719 2.04802 14 2.25311 14H10C13.3137 14 16 11.3137 16 8V1C16 0.447715 15.5523 0 15 0H6ZM14.5 1.5H6C3.51472 1.5 1.5 3.51472 1.5 6V12.5H10C12.4853 12.5 14.5 10.4853 14.5 8V1.5Z" fill="#364141"/>
</svg>
