<svg width="16" height="16" viewBox="0 0 16 16" fill="none" xmlns="http://www.w3.org/2000/svg">
<path fill-rule="evenodd" clip-rule="evenodd" d="M0 5C0 2.23858 2.23858 0 5 0H14.5C15.3284 0 16 0.671573 16 1.5V11C16 11.4547 15.9393 11.8953 15.8255 12.314C15.2485 14.438 13.3067 16 11 16H1.5C0.671573 16 0 15.3284 0 14.5V5ZM1.5 11.6945V14.5H11C12.7042 14.5 14.124 13.2819 14.4362 11.6689C12.5763 10.9288 10.3682 10.5 8 10.5C5.60459 10.5 3.37312 10.9387 1.5 11.6945ZM8 9C9.65685 9 11 7.65685 11 6C11 4.34315 9.65685 3 8 3C6.34315 3 5 4.34315 5 6C5 7.65685 6.34315 9 8 9Z" fill="#364141"/>
</svg>
