<svg width="15" height="18" viewBox="0 0 15 18" fill="none" xmlns="http://www.w3.org/2000/svg">
<path fill-rule="evenodd" clip-rule="evenodd" d="M15 2.625C15 4.07475 13.8247 5.25 12.375 5.25C10.9253 5.25 9.75 4.07475 9.75 2.625C9.75 1.17525 10.9253 0 12.375 0C13.8247 0 15 1.17525 15 2.625ZM13.5 2.625C13.5 3.24632 12.9963 3.75 12.375 3.75C11.7537 3.75 11.25 3.24632 11.25 2.625C11.25 2.00368 11.7537 1.5 12.375 1.5C12.9963 1.5 13.5 2.00368 13.5 2.625Z" fill="#364141"/>
<path fill-rule="evenodd" clip-rule="evenodd" d="M8.5 5.7998C8.5 7.04245 7.49264 8.0498 6.25 8.0498C5.00736 8.0498 4 7.04245 4 5.7998C4 4.55716 5.00736 3.5498 6.25 3.5498C7.49264 3.5498 8.5 4.55716 8.5 5.7998ZM7 5.7998C7 6.21402 6.66421 6.5498 6.25 6.5498C5.83579 6.5498 5.5 6.21402 5.5 5.7998C5.5 5.38559 5.83579 5.0498 6.25 5.0498C6.66421 5.0498 7 5.38559 7 5.7998Z" fill="#364141"/>
<path d="M1.5 10.5C2.32843 10.5 3 9.82843 3 9C3 8.17157 2.32843 7.5 1.5 7.5C0.671573 7.5 0 8.17157 0 9C0 9.82843 0.671573 10.5 1.5 10.5Z" fill="#364141"/>
<path fill-rule="evenodd" clip-rule="evenodd" d="M6.25 14.5C7.49264 14.5 8.5 13.4926 8.5 12.25C8.5 11.0074 7.49264 10 6.25 10C5.00736 10 4 11.0074 4 12.25C4 13.4926 5.00736 14.5 6.25 14.5ZM6.25 13C6.66421 13 7 12.6642 7 12.25C7 11.8358 6.66421 11.5 6.25 11.5C5.83579 11.5 5.5 11.8358 5.5 12.25C5.5 12.6642 5.83579 13 6.25 13Z" fill="#364141"/>
<path fill-rule="evenodd" clip-rule="evenodd" d="M12.375 11.6299C13.8247 11.6299 15 10.4546 15 9.00488C15 7.55514 13.8247 6.37988 12.375 6.37988C10.9253 6.37988 9.75 7.55514 9.75 9.00488C9.75 10.4546 10.9253 11.6299 12.375 11.6299ZM12.375 10.1299C12.9963 10.1299 13.5 9.6262 13.5 9.00488C13.5 8.38356 12.9963 7.87988 12.375 7.87988C11.7537 7.87988 11.25 8.38356 11.25 9.00488C11.25 9.6262 11.7537 10.1299 12.375 10.1299Z" fill="#364141"/>
<path fill-rule="evenodd" clip-rule="evenodd" d="M15 15.375C15 16.8247 13.8247 18 12.375 18C10.9253 18 9.75 16.8247 9.75 15.375C9.75 13.9253 10.9253 12.75 12.375 12.75C13.8247 12.75 15 13.9253 15 15.375ZM13.5 15.375C13.5 15.9963 12.9963 16.5 12.375 16.5C11.7537 16.5 11.25 15.9963 11.25 15.375C11.25 14.7537 11.7537 14.25 12.375 14.25C12.9963 14.25 13.5 14.7537 13.5 15.375Z" fill="#364141"/>
</svg>
