<svg width="18" height="17" viewBox="0 0 18 17" fill="none" xmlns="http://www.w3.org/2000/svg">
<path d="M11.25 3.75H9.75V6.25H7.25V7.75H9.75V10.25H11.25V7.75H13.75V6.25H11.25V3.75Z" fill="#364141"/>
<path fill-rule="evenodd" clip-rule="evenodd" d="M8 0C5.23858 0 3 2.23858 3 5V12.5C3 13.3284 3.67157 14 4.5 14H13C15.7614 14 18 11.7614 18 9V1.5C18 0.671573 17.3284 0 16.5 0H8ZM16.5 1.5H8C6.067 1.5 4.5 3.067 4.5 5V12.5H13C14.933 12.5 16.5 10.933 16.5 9V1.5Z" fill="#364141"/>
<path d="M1.5 4.42928C0.574319 5.33675 0 6.6013 0 8V15C0 16.1046 0.89543 17 2 17H10C11.3987 17 12.6633 16.4257 13.5707 15.5H3C2.17157 15.5 1.5 14.8284 1.5 14V4.42928Z" fill="#364141"/>
</svg>
