<svg width="18" height="17" viewBox="0 0 18 17" fill="none" xmlns="http://www.w3.org/2000/svg">
<path fill-rule="evenodd" clip-rule="evenodd" d="M3 5C3 2.23858 5.23858 0 8 0H16.5C17.3284 0 18 0.671573 18 1.5V9C18 11.7614 15.7614 14 13 14H4.5C3.67157 14 3 13.3284 3 12.5V5ZM8 1.5H16.5V9C16.5 10.933 14.933 12.5 13 12.5H4.5V5C4.5 3.067 6.067 1.5 8 1.5Z" fill="#364141"/>
<path d="M0 8C0 6.6013 0.574319 5.33675 1.5 4.42928V14C1.5 14.8284 2.17157 15.5 3 15.5H13.5707C12.6633 16.4257 11.3987 17 10 17H2C0.89543 17 0 16.1046 0 15V8Z" fill="#364141"/>
</svg>
