<svg width="18" height="18" viewBox="0 0 18 18" fill="none" xmlns="http://www.w3.org/2000/svg">
<path d="M9.75 7L10 4.9V4H8V4.9L8.25 7H9.75Z" fill="#364141"/>
<path d="M9 10C9.55229 10 10 9.55229 10 9C10 8.44771 9.55229 8 9 8C8.44771 8 8 8.44771 8 9C8 9.55229 8.44771 10 9 10Z" fill="#364141"/>
<path fill-rule="evenodd" clip-rule="evenodd" d="M0.4 17.7C0.235191 17.8236 0 17.706 0 17.5V4C0 1.79086 1.79086 0 4 0H17C17.5523 0 18 0.447715 18 1V9.5C18 11.7091 16.2091 13.5 14 13.5H6L0.4 17.7ZM5.5 12H14C15.3807 12 16.5 10.8807 16.5 9.5V1.5H4C2.61929 1.5 1.5 2.61929 1.5 4V15L5.5 12Z" fill="#364141"/>
</svg>
