<svg width="18" height="18" viewBox="0 0 18 18" fill="none" xmlns="http://www.w3.org/2000/svg">
<path d="M9.75 6.75371C9.75 7.16998 9.41422 7.50742 9 7.50742C8.58579 7.50742 8.25 7.16998 8.25 6.75371C8.25 6.33745 8.58579 6 9 6C9.41422 6 9.75 6.33745 9.75 6.75371Z" fill="#364141"/>
<path fill-rule="evenodd" clip-rule="evenodd" d="M6.74559 4.35803C7.34077 3.91488 8.12263 3.5 9.00001 3.5C9.87739 3.5 10.6593 3.91488 11.2544 4.35803C11.8602 4.80909 12.3564 5.35213 12.678 5.74352C13.1615 6.33214 13.1615 7.16787 12.678 7.75648C12.3564 8.14787 11.8602 8.69091 11.2544 9.14197C10.6593 9.58512 9.87739 10 9.00001 10C8.12263 10 7.34077 9.58512 6.74559 9.14197C6.13979 8.69091 5.64359 8.14787 5.32207 7.75648C4.83853 7.16786 4.83853 6.33213 5.32207 5.74352C5.6436 5.35213 6.13979 4.80909 6.74559 4.35803ZM7.64141 5.56116C7.17097 5.91143 6.76247 6.35319 6.48112 6.69568C6.46382 6.71673 6.45941 6.73547 6.45941 6.75C6.45941 6.76453 6.46382 6.78327 6.48112 6.80432C6.76247 7.14681 7.17097 7.58857 7.64141 7.93884C8.12247 8.29702 8.58837 8.5 9.00001 8.5C9.41165 8.5 9.87756 8.29702 10.3586 7.93884C10.8291 7.58857 11.2376 7.14681 11.5189 6.80432C11.5362 6.78327 11.5406 6.76453 11.5406 6.75C11.5406 6.73547 11.5362 6.71673 11.5189 6.69568C11.2376 6.35319 10.8291 5.91143 10.3586 5.56116C9.87756 5.20298 9.41165 5 9.00001 5C8.58838 5 8.12247 5.20298 7.64141 5.56116Z" fill="#364141"/>
<path fill-rule="evenodd" clip-rule="evenodd" d="M6 13.5H14C16.2091 13.5 18 11.7091 18 9.5V1C18 0.447715 17.5523 0 17 0H4C1.79086 0 0 1.79086 0 4V17.5C0 17.706 0.235191 17.8236 0.4 17.7L6 13.5ZM5.5 12L1.5 15V4C1.5 2.61929 2.61929 1.5 4 1.5H16.5V9.5C16.5 10.8807 15.3807 12 14 12H5.5Z" fill="#364141"/>
</svg>
