<svg width="16" height="16" viewBox="0 0 16 16" fill="none" xmlns="http://www.w3.org/2000/svg">
<path fill-rule="evenodd" clip-rule="evenodd" d="M4 9H8.5C10.433 9 12 7.433 12 5.5V1C12 0.447715 11.5523 0 11 0H3.5C1.567 0 0 1.567 0 3.5V11.5C0 11.706 0.235191 11.8236 0.4 11.7L4 9ZM3.5 7.5L1.5 9V3.5C1.5 2.39543 2.39543 1.5 3.5 1.5H10.5V5.5C10.5 6.60457 9.60457 7.5 8.5 7.5H3.5Z" fill="#364141"/>
<path d="M8.50002 13C6.9145 13 5.5752 11.9458 5.14493 10.5H6.76755C7.11336 11.0978 7.75972 11.5 8.50001 11.5L12.5 11.5L14.5 13V7.99996C14.5 7.25968 14.0978 6.61333 13.5 6.26752V4.6449C14.9457 5.07517 16 6.41445 16 7.99996V15.5C16 15.706 15.7648 15.8236 15.6 15.7L12 13L8.50002 13Z" fill="#364141"/>
</svg>
