<svg width="16" height="18" viewBox="0 0 16 18" fill="none" xmlns="http://www.w3.org/2000/svg">
<path fill-rule="evenodd" clip-rule="evenodd" d="M9.57776 7.57159C10.7182 6.99469 11.5 5.81192 11.5 4.44653C11.5 2.51354 9.933 0.946533 8 0.946533C6.067 0.946533 4.5 2.51354 4.5 4.44653C4.5 5.81192 5.28184 6.99469 6.42224 7.57159H9.57776ZM9.16651 6.07159C9.6732 5.70718 10 5.11405 10 4.44653C10 3.34196 9.10457 2.44653 8 2.44653C6.89543 2.44653 6 3.34196 6 4.44653C6 5.11405 6.3268 5.70718 6.83349 6.07159H9.16651Z" fill="#364141"/>
<path d="M6.5 8.5C6.5 9.32843 7.17157 10 8 10C8.82843 10 9.5 9.32843 9.5 8.5H6.5Z" fill="#364141"/>
<path d="M14.5 4.5H12.9986C12.9871 3.97852 12.9083 3.47521 12.7711 3H15C15.5523 3 16 3.44772 16 4V10.926C16 12.859 14.433 14.426 12.5 14.426H5.33333L0.395288 17.9523C0.229818 18.0705 0 17.9522 0 17.7489V6.5C0 4.65926 1.421 3.15041 3.22586 3.01058C3.0851 3.50178 3.0066 4.02287 3.0004 4.56291C2.13758 4.78479 1.5 5.56794 1.5 6.5V15.3202L4.85273 12.926H12.5C13.6046 12.926 14.5 12.0305 14.5 10.926V4.5Z" fill="#364141"/>
</svg>
