<svg width="17" height="17" viewBox="0 0 17 17" fill="none" xmlns="http://www.w3.org/2000/svg">
<path fill-rule="evenodd" clip-rule="evenodd" d="M16.0303 0.969653C14.909 -0.151666 13.091 -0.15167 11.9697 0.969651L5.54289 7.39643C5.35536 7.58397 5.25 7.83832 5.25 8.10354V11.75H8.89645C9.16166 11.75 9.41602 11.6446 9.60355 11.4571L16.0303 5.03031C17.1516 3.90899 17.1516 2.09097 16.0303 0.969653ZM13.0303 2.03031C13.5659 1.49478 14.4341 1.49478 14.9697 2.03031C15.5052 2.56585 15.5052 3.43412 14.9697 3.96965L8.68934 10.25H6.75V8.31064L13.0303 2.03031Z" fill="#364141"/>
<path d="M5.25 2.49998H7.5L9 0.999983H5.25C2.3505 0.999983 0 3.35049 0 6.24998V15.25C0 16.2165 0.783501 17 1.75 17H10.75C13.6495 17 16 14.6495 16 11.75V7.99998L14.5 9.49998V11.75C14.5 13.8211 12.8211 15.5 10.75 15.5H1.75C1.61193 15.5 1.5 15.3881 1.5 15.25V6.24998C1.5 4.17892 3.17893 2.49998 5.25 2.49998Z" fill="#364141"/>
</svg>
