<svg width="16" height="16" viewBox="0 0 16 16" fill="none" xmlns="http://www.w3.org/2000/svg">
<path d="M7.28561 5.79999H12V7.29999H3.71439L7.46445 3.47495L8.53555 4.52505L7.28561 5.79999Z" fill="#364141"/>
<path d="M4 8.70001V10.2H8.71439L7.46445 11.475L8.53555 12.5251L12.2856 8.70001H4Z" fill="#364141"/>
<path fill-rule="evenodd" clip-rule="evenodd" d="M0 5C0 2.23858 2.23858 0 5 0H14.5C15.3284 0 16 0.671573 16 1.5V11C16 13.7614 13.7614 16 11 16H1.5C0.671573 16 0 15.3284 0 14.5V5ZM5 1.5H14.5V11C14.5 12.933 12.933 14.5 11 14.5H1.5V5C1.5 3.067 3.067 1.5 5 1.5Z" fill="#364141"/>
</svg>
