<svg width="16" height="16" viewBox="0 0 16 16" fill="none" xmlns="http://www.w3.org/2000/svg">
<path fill-rule="evenodd" clip-rule="evenodd" d="M11.25 6.25C11.25 8.04493 9.79493 9.5 8 9.5C6.20507 9.5 4.75 8.04493 4.75 6.25C4.75 4.45507 6.20507 3 8 3C9.79493 3 11.25 4.45507 11.25 6.25ZM9.75 6.25C9.75 7.2165 8.9665 8 8 8C7.0335 8 6.25 7.2165 6.25 6.25C6.25 5.2835 7.0335 4.5 8 4.5C8.9665 4.5 9.75 5.2835 9.75 6.25Z" fill="#364141"/>
<path fill-rule="evenodd" clip-rule="evenodd" d="M0 14.5C0 15.3284 0.671573 16 1.5 16H11C12.9266 16 14.5987 14.9103 15.4336 13.3137C15.6645 12.8721 15.8314 12.3918 15.9219 11.8851L15.9249 11.8681C15.9743 11.5861 16 11.2961 16 11V1.5C16 0.671573 15.3284 0 14.5 0H5C2.23858 0 0 2.23858 0 5V14.5ZM14.5 1.5H5C3.067 1.5 1.5 3.067 1.5 5V11.1945C3.37312 10.4387 5.60459 10 8 10C10.3932 10 12.6228 10.4379 14.4948 11.1924C14.4983 11.1287 14.5 11.0646 14.5 11V1.5ZM11 14.5C12.3375 14.5 13.4997 13.7498 14.0889 12.6473C12.3862 11.9348 10.2938 11.5 8 11.5C5.51802 11.5 3.27184 12.009 1.5 12.8282V14.5H11Z" fill="#364141"/>
</svg>
